<svg xmlns="http://www.w3.org/2000/svg" xmlns:xlink="http://www.w3.org/1999/xlink" width="800" height="674" style="background-color: white;"><g class="y axis" transform="translate(149,45)" fill="none" font-size="10" font-family="sans-serif" text-anchor="end" style="font-size: 13px;"><path class="domain" stroke="currentColor" d="M0.5,0.5V480.5"></path><g class="tick" opacity="1" transform="translate(0,32.592592592592595)" style="font-size: 13px;"><line stroke="currentColor" x2="0"></line><text fill="currentColor" x="-3" dy="0.32em">object (simple)    </text></g><g class="tick" opacity="1" transform="translate(0,91.85185185185186)" style="font-size: 13px;"><line stroke="currentColor" x2="0"></line><text fill="currentColor" x="-3" dy="0.32em">object (hierarchical)    </text></g><g class="tick" opacity="1" transform="translate(0,151.11111111111111)" style="font-size: 13px;"><line stroke="currentColor" x2="0"></line><text fill="currentColor" x="-3" dy="0.32em">object (recursive)    </text></g><g class="tick" opacity="1" transform="translate(0,210.37037037037035)" style="font-size: 13px;"><line stroke="currentColor" x2="0"></line><text fill="currentColor" x="-3" dy="0.32em">object (union, explicit)    </text></g><g class="tick" opacity="1" transform="translate(0,269.6296296296296)" style="font-size: 13px;"><line stroke="currentColor" x2="0"></line><text fill="currentColor" x="-3" dy="0.32em">array (simple)    </text></g><g class="tick" opacity="1" transform="translate(0,328.8888888888889)" style="font-size: 13px;"><line stroke="currentColor" x2="0"></line><text fill="currentColor" x="-3" dy="0.32em">array (hierarchical)    </text></g><g class="tick" opacity="1" transform="translate(0,388.14814814814815)" style="font-size: 13px;"><line stroke="currentColor" x2="0"></line><text fill="currentColor" x="-3" dy="0.32em">array (recursive)    </text></g><g class="tick" opacity="1" transform="translate(0,447.40740740740745)" style="font-size: 13px;"><line stroke="currentColor" x2="0"></line><text fill="currentColor" x="-3" dy="0.32em">array (union, explicit)    </text></g></g><g class="x axis" transform="translate(149,525)" fill="none" font-size="10" font-family="sans-serif" text-anchor="middle" style="font-size: 13px;"><path class="domain" stroke="currentColor" d="M0.5,0.5H485.5"></path><g class="tick" opacity="1" transform="translate(0.5,0)" style="font-size: 13px;"><line stroke="currentColor" y2="6"></line><text fill="currentColor" y="9" dy="0.71em">0x</text></g><g class="tick" opacity="1" transform="translate(89.96322836257345,0)" style="font-size: 13px;"><line stroke="currentColor" y2="6"></line><text fill="currentColor" y="9" dy="0.71em">5x</text></g><g class="tick" opacity="1" transform="translate(179.4264567251469,0)" style="font-size: 13px;"><line stroke="currentColor" y2="6"></line><text fill="currentColor" y="9" dy="0.71em">10x</text></g><g class="tick" opacity="1" transform="translate(268.8896850877203,0)" style="font-size: 13px;"><line stroke="currentColor" y2="6"></line><text fill="currentColor" y="9" dy="0.71em">15x</text></g><g class="tick" opacity="1" transform="translate(358.3529134502938,0)" style="font-size: 13px;"><line stroke="currentColor" y2="6"></line><text fill="currentColor" y="9" dy="0.71em">20x</text></g><g class="tick" opacity="1" transform="translate(447.81614181286716,0)" style="font-size: 13px;"><line stroke="currentColor" y2="6"></line><text fill="currentColor" y="9" dy="0.71em">25x</text></g></g><text transform="translate(400, 30)" style="text-anchor: middle; font-size: 20px; font-weight: bold;">assert benchmark</text><rect x="650" y="125" width="230" height="5" fill="gray"></rect><rect x="645" y="35" width="230" height="90" fill="none" stroke="black"></rect><rect x="655" y="45" width="10" height="10" style="fill: #4472c4;"></rect><text x="670" y="55" style="font-size: 12px;">nestia-express</text><rect x="655" y="65" width="10" height="10" style="fill: #ed7d31;"></rect><text x="670" y="75" style="font-size: 12px;">nestia-fastify</text><rect x="655" y="85" width="10" height="10" style="fill: #a5a5a5;"></rect><text x="670" y="95" style="font-size: 12px;">NestJS-express</text><rect x="655" y="105" width="10" height="10" style="fill: #ffc000;"></rect><text x="670" y="115" style="font-size: 12px;">NestJS-fastify</text><text x="20" y="589" style="font-size: 12px;">  - CPU: 11th Gen Intel(R) Core(TM) i5-1135G7 @ 2.40GHz</text><text x="20" y="606" style="font-size: 12px;">  - OS: win32</text><text x="20" y="623" style="font-size: 12px;">  - RAM: 16 GB</text><text x="20" y="640" style="font-size: 12px;">  - NodeJS version: v16.20.0</text><text x="20" y="657" style="font-size: 12px;">  - Nestia version: v1.2.2</text><g style="font-size: 13px;"><g style="font-size: 13px;"><rect x="150" y="51.584362139917694" width="201.194230352507" height="12.510288065843621" fill="#4472c4"></rect><rect x="150" y="64.75308641975309" width="296.1360710457452" height="12.510288065843621" fill="#ed7d31"></rect><rect x="150" y="77.92181069958848" width="17.89264567251469" height="12.510288065843621" fill="#a5a5a5"></rect><rect x="150" y="91.09053497942386" width="18.069043654534656" height="12.510288065843621" fill="#ffc000"></rect><text class="label" x="359.694230352507" y="60.084362139917694" font-size="10px">11.24x</text><text class="label" x="454.6360710457452" y="73.25308641975309" font-size="10px">16.55x</text><text class="label" x="176.39264567251467" y="86.42181069958848" font-size="10px">1x</text><text class="label" x="176.56904365453465" y="99.59053497942386" font-size="10px">1.01x</text><text class="label" x="356.194230352507" y="61.584362139917694" font-size="8px"></text><text class="label" x="451.1360710457452" y="74.75308641975309" font-size="8px"></text><text class="label" x="172.89264567251467" y="87.92181069958848" font-size="8px"></text><text class="label" x="173.06904365453465" y="101.09053497942386" font-size="8px"></text></g><g style="font-size: 13px;"><rect x="150" y="110.84362139917695" width="225.7711135471848" height="12.510288065843621" fill="#4472c4"></rect><rect x="150" y="124.01234567901236" width="230.59665725275684" height="12.510288065843621" fill="#ed7d31"></rect><rect x="150" y="137.18106995884773" width="17.89264567251469" height="12.510288065843621" fill="#a5a5a5"></rect><rect x="150" y="150.34979423868313" width="18.08411590042" height="12.510288065843621" fill="#ffc000"></rect><text class="label" x="384.27111354718477" y="119.34362139917695" font-size="10px">12.62x</text><text class="label" x="389.0966572527568" y="132.51234567901236" font-size="10px">12.89x</text><text class="label" x="176.39264567251467" y="145.68106995884773" font-size="10px">1x</text><text class="label" x="176.58411590042" y="158.84979423868313" font-size="10px">1.01x</text><text class="label" x="380.77111354718477" y="120.84362139917695" font-size="8px"></text><text class="label" x="385.5966572527568" y="134.01234567901236" font-size="8px"></text><text class="label" x="172.89264567251467" y="147.18106995884773" font-size="8px"></text><text class="label" x="173.08411590042" y="160.34979423868313" font-size="8px"></text></g><g style="font-size: 13px;"><rect x="150" y="170.10288065843622" width="255.6913908134433" height="12.510288065843621" fill="#4472c4"></rect><rect x="150" y="183.2716049382716" width="273.11526740927" height="12.510288065843621" fill="#ed7d31"></rect><rect x="150" y="196.440329218107" width="17.89264567251469" height="12.510288065843621" fill="#a5a5a5"></rect><rect x="150" y="209.6090534979424" width="18.170832309656504" height="12.510288065843621" fill="#ffc000"></rect><text class="label" x="414.19139081344326" y="178.60288065843622" font-size="10px">14.29x</text><text class="label" x="431.61526740927" y="191.7716049382716" font-size="10px">15.26x</text><text class="label" x="176.39264567251467" y="204.940329218107" font-size="10px">1x</text><text class="label" x="176.6708323096565" y="218.1090534979424" font-size="10px">1.02x</text><text class="label" x="410.69139081344326" y="180.10288065843622" font-size="8px"></text><text class="label" x="428.11526740927" y="193.2716049382716" font-size="8px"></text><text class="label" x="172.89264567251467" y="206.440329218107" font-size="8px"></text><text class="label" x="173.1708323096565" y="219.6090534979424" font-size="8px"></text></g><g style="font-size: 13px;"><rect x="150" y="229.36213991769546" width="406.8879205864233" height="12.510288065843621" fill="#4472c4"></rect><rect x="150" y="242.53086419753086" width="440.9090909090909" height="12.510288065843621" fill="#ed7d31"></rect><rect x="150" y="255.69958847736626" width="17.89264567251469" height="12.510288065843621" fill="#a5a5a5"></rect><rect x="150" y="268.86831275720164" width="18.154797993984392" height="12.510288065843621" fill="#ffc000"></rect><text class="label" x="565.3879205864233" y="237.86213991769546" font-size="10px">22.74x</text><text class="label" x="599.4090909090909" y="251.03086419753086" font-size="10px">24.64x</text><text class="label" x="176.39264567251467" y="264.19958847736626" font-size="10px">1x</text><text class="label" x="176.6547979939844" y="277.36831275720164" font-size="10px">1.01x</text><text class="label" x="561.8879205864233" y="239.36213991769546" font-size="8px"></text><text class="label" x="595.9090909090909" y="252.53086419753086" font-size="8px"></text><text class="label" x="172.89264567251467" y="265.69958847736626" font-size="8px"></text><text class="label" x="173.1547979939844" y="278.86831275720164" font-size="8px"></text></g><g style="font-size: 13px;"><rect x="150" y="288.6213991769547" width="233.58991252803926" height="12.510288065843621" fill="#4472c4"></rect><rect x="150" y="301.7901234567901" width="242.75602550779345" height="12.510288065843621" fill="#ed7d31"></rect><rect x="150" y="314.9588477366255" width="17.89264567251469" height="12.510288065843621" fill="#a5a5a5"></rect><rect x="150" y="328.12757201646093" width="18.268694734095412" height="12.510288065843621" fill="#ffc000"></rect><text class="label" x="392.08991252803924" y="297.1213991769547" font-size="10px">13.06x</text><text class="label" x="401.2560255077934" y="310.2901234567901" font-size="10px">13.57x</text><text class="label" x="176.39264567251467" y="323.4588477366255" font-size="10px">1x</text><text class="label" x="176.76869473409542" y="336.62757201646093" font-size="10px">1.02x</text><text class="label" x="388.58991252803924" y="298.6213991769547" font-size="8px"></text><text class="label" x="397.7560255077934" y="311.7901234567901" font-size="8px"></text><text class="label" x="172.89264567251467" y="324.9588477366255" font-size="8px"></text><text class="label" x="173.26869473409542" y="338.12757201646093" font-size="8px"></text></g><g style="font-size: 13px;"><rect x="150" y="347.880658436214" width="318.8382311795451" height="12.510288065843621" fill="#4472c4"></rect><rect x="150" y="361.04938271604937" width="325.895083831124" height="12.510288065843621" fill="#ed7d31"></rect><rect x="150" y="374.2181069958848" width="18.459017090916753" height="12.510288065843621" fill="#a5a5a5"></rect><rect x="150" y="387.38683127572017" width="17.89264567251469" height="12.510288065843621" fill="#ffc000"></rect><text class="label" x="477.3382311795451" y="356.380658436214" font-size="10px">17.82x</text><text class="label" x="484.395083831124" y="369.54938271604937" font-size="10px">18.21x</text><text class="label" x="176.95901709091675" y="382.7181069958848" font-size="10px">1.03x</text><text class="label" x="176.39264567251467" y="395.88683127572017" font-size="10px">1x</text><text class="label" x="473.8382311795451" y="357.880658436214" font-size="8px"></text><text class="label" x="480.895083831124" y="371.04938271604937" font-size="8px"></text><text class="label" x="173.45901709091675" y="384.2181069958848" font-size="8px"></text><text class="label" x="172.89264567251467" y="397.38683127572017" font-size="8px"></text></g><g style="font-size: 13px;"><rect x="150" y="407.13991769547323" width="311.7408772194418" height="12.510288065843621" fill="#4472c4"></rect><rect x="150" y="420.3086419753086" width="286.92133623635834" height="12.510288065843621" fill="#ed7d31"></rect><rect x="150" y="433.47736625514403" width="17.92274884177502" height="12.510288065843621" fill="#a5a5a5"></rect><rect x="150" y="446.6460905349794" width="17.89264567251469" height="12.510288065843621" fill="#ffc000"></rect><text class="label" x="470.2408772194418" y="415.63991769547323" font-size="10px">17.42x</text><text class="label" x="445.42133623635834" y="428.8086419753086" font-size="10px">16.04x</text><text class="label" x="176.42274884177502" y="441.97736625514403" font-size="10px">1x</text><text class="label" x="176.39264567251467" y="455.1460905349794" font-size="10px">1x</text><text class="label" x="466.7408772194418" y="417.13991769547323" font-size="8px"></text><text class="label" x="441.92133623635834" y="430.3086419753086" font-size="8px"></text><text class="label" x="172.92274884177502" y="443.47736625514403" font-size="8px"></text><text class="label" x="172.89264567251467" y="456.6460905349794" font-size="8px"></text></g><g style="font-size: 13px;"><rect x="150" y="466.3991769547325" width="372.01976750149885" height="12.510288065843621" fill="#4472c4"></rect><rect x="150" y="479.5679012345679" width="342.1565715736104" height="12.510288065843621" fill="#ed7d31"></rect><rect x="150" y="492.73662551440333" width="19.029796742446663" height="12.510288065843621" fill="#a5a5a5"></rect><rect x="150" y="505.9053497942387" width="17.89264567251469" height="12.510288065843621" fill="#ffc000"></rect><text class="label" x="530.5197675014988" y="474.8991769547325" font-size="10px">20.79x</text><text class="label" x="500.6565715736104" y="488.0679012345679" font-size="10px">19.12x</text><text class="label" x="177.52979674244665" y="501.23662551440333" font-size="10px">1.06x</text><text class="label" x="176.39264567251467" y="514.4053497942386" font-size="10px">1x</text><text class="label" x="527.0197675014988" y="476.3991769547325" font-size="8px"></text><text class="label" x="497.1565715736104" y="489.5679012345679" font-size="8px"></text><text class="label" x="174.02979674244665" y="502.73662551440333" font-size="8px"></text><text class="label" x="172.89264567251467" y="515.9053497942386" font-size="8px"></text></g></g></svg>