<svg xmlns="http://www.w3.org/2000/svg" xmlns:xlink="http://www.w3.org/1999/xlink" width="800" height="794" style="background-color: white;"><g class="y axis" transform="translate(149,45)" fill="none" font-size="10" font-family="sans-serif" text-anchor="end" style="font-size: 13px;"><path class="domain" stroke="currentColor" d="M0.5,0.5V600.5"></path><g class="tick" opacity="1" transform="translate(0,40.740740740740726)" style="font-size: 13px;"><line stroke="currentColor" x2="0"></line><text fill="currentColor" x="-3" dy="0.32em">object (simple)    </text></g><g class="tick" opacity="1" transform="translate(0,114.81481481481481)" style="font-size: 13px;"><line stroke="currentColor" x2="0"></line><text fill="currentColor" x="-3" dy="0.32em">object (hierarchical)    </text></g><g class="tick" opacity="1" transform="translate(0,188.88888888888889)" style="font-size: 13px;"><line stroke="currentColor" x2="0"></line><text fill="currentColor" x="-3" dy="0.32em">object (recursive)    </text></g><g class="tick" opacity="1" transform="translate(0,262.96296296296293)" style="font-size: 13px;"><line stroke="currentColor" x2="0"></line><text fill="currentColor" x="-3" dy="0.32em">object (union, explicit)    </text></g><g class="tick" opacity="1" transform="translate(0,337.037037037037)" style="font-size: 13px;"><line stroke="currentColor" x2="0"></line><text fill="currentColor" x="-3" dy="0.32em">array (simple)    </text></g><g class="tick" opacity="1" transform="translate(0,411.1111111111111)" style="font-size: 13px;"><line stroke="currentColor" x2="0"></line><text fill="currentColor" x="-3" dy="0.32em">array (hierarchical)    </text></g><g class="tick" opacity="1" transform="translate(0,485.18518518518516)" style="font-size: 13px;"><line stroke="currentColor" x2="0"></line><text fill="currentColor" x="-3" dy="0.32em">array (recursive)    </text></g><g class="tick" opacity="1" transform="translate(0,559.2592592592592)" style="font-size: 13px;"><line stroke="currentColor" x2="0"></line><text fill="currentColor" x="-3" dy="0.32em">array (union, explicit)    </text></g></g><g class="x axis" transform="translate(149,645)" fill="none" font-size="10" font-family="sans-serif" text-anchor="middle" style="font-size: 13px;"><path class="domain" stroke="currentColor" d="M0.5,0.5H485.5"></path><g class="tick" opacity="1" transform="translate(0.5,0)" style="font-size: 13px;"><line stroke="currentColor" y2="6"></line><text fill="currentColor" y="9" dy="0.71em">0x</text></g><g class="tick" opacity="1" transform="translate(135.20736578235275,0)" style="font-size: 13px;"><line stroke="currentColor" y2="6"></line><text fill="currentColor" y="9" dy="0.71em">10x</text></g><g class="tick" opacity="1" transform="translate(269.9147315647055,0)" style="font-size: 13px;"><line stroke="currentColor" y2="6"></line><text fill="currentColor" y="9" dy="0.71em">20x</text></g><g class="tick" opacity="1" transform="translate(404.62209734705823,0)" style="font-size: 13px;"><line stroke="currentColor" y2="6"></line><text fill="currentColor" y="9" dy="0.71em">30x</text></g></g><text transform="translate(400, 30)" style="text-anchor: middle; font-size: 20px; font-weight: bold;">assert benchmark</text><rect x="650" y="145" width="230" height="5" fill="gray"></rect><rect x="645" y="35" width="230" height="110" fill="none" stroke="black"></rect><rect x="655" y="45" width="10" height="10" style="fill: #4472c4;"></rect><text x="670" y="55" style="font-size: 12px;">nestia-express</text><rect x="655" y="65" width="10" height="10" style="fill: #ed7d31;"></rect><text x="670" y="75" style="font-size: 12px;">nestia-fastify</text><rect x="655" y="85" width="10" height="10" style="fill: #a5a5a5;"></rect><text x="670" y="95" style="font-size: 12px;">fastify</text><rect x="655" y="105" width="10" height="10" style="fill: #ffc000;"></rect><text x="670" y="115" style="font-size: 12px;">NestJS-express</text><rect x="655" y="125" width="10" height="10" style="fill: #5b9bd5;"></rect><text x="670" y="135" style="font-size: 12px;">NestJS-fastify</text><text x="20" y="709" style="font-size: 12px;">  - CPU: 11th Gen Intel(R) Core(TM) i5-1135G7 @ 2.40GHz</text><text x="20" y="726" style="font-size: 12px;">  - OS: win32</text><text x="20" y="743" style="font-size: 12px;">  - RAM: 16 GB</text><text x="20" y="760" style="font-size: 12px;">  - NodeJS version: v16.20.0</text><text x="20" y="777" style="font-size: 12px;">  - Nestia version: v1.4.1</text><g style="font-size: 13px;"><g style="font-size: 13px;"><rect x="150" y="53.06747341400805" width="173.6289606098211" height="12.541254125412543" fill="#4472c4"></rect><rect x="150" y="66.26879354602124" width="236.44497334701032" height="12.541254125412543" fill="#ed7d31"></rect><rect x="150" y="79.47011367803445" width="233.43670447609233" height="12.541254125412543" fill="#a5a5a5"></rect><rect x="150" y="92.67143381004766" width="13.470736578235275" height="12.541254125412543" fill="#ffc000"></rect><rect x="150" y="105.87275394206085" width="13.594631153894758" height="12.541254125412543" fill="#5b9bd5"></rect><text class="label" x="332.1289606098211" y="61.56747341400805" font-size="10px">12.89x</text><text class="label" x="394.9449733470103" y="74.76879354602124" font-size="10px">17.55x</text><text class="label" x="391.93670447609236" y="87.97011367803445" font-size="10px">17.33x</text><text class="label" x="171.9707365782353" y="101.17143381004766" font-size="10px">1x</text><text class="label" x="172.09463115389477" y="114.37275394206085" font-size="10px">1.01x</text><text class="label" x="328.6289606098211" y="63.06747341400805" font-size="8px"></text><text class="label" x="391.4449733470103" y="76.26879354602124" font-size="8px"></text><text class="label" x="388.43670447609236" y="89.47011367803445" font-size="8px"></text><text class="label" x="168.4707365782353" y="102.67143381004766" font-size="8px"></text><text class="label" x="168.59463115389477" y="115.87275394206085" font-size="8px"></text></g><g style="font-size: 13px;"><rect x="150" y="127.14154748808213" width="200.2091934918343" height="12.541254125412543" fill="#4472c4"></rect><rect x="150" y="140.34286762009532" width="206.32888312660003" height="12.541254125412543" fill="#ed7d31"></rect><rect x="150" y="153.54418775210854" width="194.42884239971752" height="12.541254125412543" fill="#a5a5a5"></rect><rect x="150" y="166.74550788412174" width="14.871377546672516" height="12.541254125412543" fill="#ffc000"></rect><rect x="150" y="179.94682801613493" width="13.470736578235275" height="12.541254125412543" fill="#5b9bd5"></rect><text class="label" x="358.7091934918343" y="135.64154748808213" font-size="10px">14.86x</text><text class="label" x="364.82888312660003" y="148.84286762009532" font-size="10px">15.32x</text><text class="label" x="352.9288423997175" y="162.04418775210854" font-size="10px">14.43x</text><text class="label" x="173.3713775466725" y="175.24550788412174" font-size="10px">1.1x</text><text class="label" x="171.9707365782353" y="188.44682801613493" font-size="10px">1x</text><text class="label" x="355.2091934918343" y="137.14154748808213" font-size="8px"></text><text class="label" x="361.32888312660003" y="150.34286762009532" font-size="8px"></text><text class="label" x="349.4288423997175" y="163.54418775210854" font-size="8px"></text><text class="label" x="169.8713775466725" y="176.74550788412174" font-size="8px"></text><text class="label" x="168.4707365782353" y="189.94682801613493" font-size="8px"></text></g><g style="font-size: 13px;"><rect x="150" y="201.2156215621562" width="235.4704230812562" height="12.541254125412543" fill="#4472c4"></rect><rect x="150" y="214.4169416941694" width="237.60013232037483" height="12.541254125412543" fill="#ed7d31"></rect><rect x="150" y="227.61826182618262" width="223.24522656586353" height="12.541254125412543" fill="#a5a5a5"></rect><rect x="150" y="240.8195819581958" width="13.470736578235275" height="12.541254125412543" fill="#ffc000"></rect><rect x="150" y="254.020902090209" width="14.272064833104693" height="12.541254125412543" fill="#5b9bd5"></rect><text class="label" x="393.9704230812562" y="209.7156215621562" font-size="10px">17.48x</text><text class="label" x="396.1001323203748" y="222.9169416941694" font-size="10px">17.64x</text><text class="label" x="381.7452265658635" y="236.11826182618262" font-size="10px">16.57x</text><text class="label" x="171.9707365782353" y="249.3195819581958" font-size="10px">1x</text><text class="label" x="172.7720648331047" y="262.520902090209" font-size="10px">1.06x</text><text class="label" x="390.4704230812562" y="211.2156215621562" font-size="8px"></text><text class="label" x="392.6001323203748" y="224.4169416941694" font-size="8px"></text><text class="label" x="378.2452265658635" y="237.61826182618262" font-size="8px"></text><text class="label" x="168.4707365782353" y="250.8195819581958" font-size="8px"></text><text class="label" x="169.2720648331047" y="264.020902090209" font-size="8px"></text></g><g style="font-size: 13px;"><rect x="150" y="275.28969563623025" width="430.25596685592774" height="12.541254125412543" fill="#4472c4"></rect><rect x="150" y="288.49101576824347" width="440.9090909090909" height="12.541254125412543" fill="#ed7d31"></rect><rect x="150" y="301.6923359002567" width="244.89108571270833" height="12.541254125412543" fill="#a5a5a5"></rect><rect x="150" y="314.89365603226986" width="15.49231244510545" height="12.541254125412543" fill="#ffc000"></rect><rect x="150" y="328.0949761642831" width="13.470736578235275" height="12.541254125412543" fill="#5b9bd5"></rect><text class="label" x="588.7559668559277" y="283.78969563623025" font-size="10px">31.94x</text><text class="label" x="599.4090909090909" y="296.99101576824347" font-size="10px">32.73x</text><text class="label" x="403.39108571270833" y="310.1923359002567" font-size="10px">18.18x</text><text class="label" x="173.99231244510545" y="323.39365603226986" font-size="10px">1.15x</text><text class="label" x="171.9707365782353" y="336.5949761642831" font-size="10px">1x</text><text class="label" x="585.2559668559277" y="285.28969563623025" font-size="8px"></text><text class="label" x="595.9090909090909" y="298.49101576824347" font-size="8px"></text><text class="label" x="399.89108571270833" y="311.6923359002567" font-size="8px"></text><text class="label" x="170.49231244510545" y="324.89365603226986" font-size="8px"></text><text class="label" x="168.4707365782353" y="338.0949761642831" font-size="8px"></text></g><g style="font-size: 13px;"><rect x="150" y="349.3637697103044" width="228.35650411305159" height="12.541254125412543" fill="#4472c4"></rect><rect x="150" y="362.56508984231755" width="222.18382829074565" height="12.541254125412543" fill="#ed7d31"></rect><rect x="150" y="375.76640997433077" width="217.59593058275476" height="12.541254125412543" fill="#a5a5a5"></rect><rect x="150" y="388.967730106344" width="13.470736578235275" height="12.541254125412543" fill="#ffc000"></rect><rect x="150" y="402.16905023835716" width="14.170615664586325" height="12.541254125412543" fill="#5b9bd5"></rect><text class="label" x="386.8565041130516" y="357.8637697103044" font-size="10px">16.95x</text><text class="label" x="380.6838282907456" y="371.06508984231755" font-size="10px">16.49x</text><text class="label" x="376.09593058275476" y="384.26640997433077" font-size="10px">16.15x</text><text class="label" x="171.9707365782353" y="397.467730106344" font-size="10px">1x</text><text class="label" x="172.67061566458634" y="410.66905023835716" font-size="10px">1.05x</text><text class="label" x="383.3565041130516" y="359.3637697103044" font-size="8px"></text><text class="label" x="377.1838282907456" y="372.56508984231755" font-size="8px"></text><text class="label" x="372.59593058275476" y="385.76640997433077" font-size="8px"></text><text class="label" x="168.4707365782353" y="398.967730106344" font-size="8px"></text><text class="label" x="169.17061566458634" y="412.16905023835716" font-size="8px"></text></g><g style="font-size: 13px;"><rect x="150" y="423.4378437843784" width="30.988032295882768" height="12.541254125412543" fill="#4472c4"></rect><rect x="150" y="436.6391639163916" width="292.55802853665443" height="12.541254125412543" fill="#ed7d31"></rect><rect x="150" y="449.84048404840485" width="305.97470538516626" height="12.541254125412543" fill="#a5a5a5"></rect><rect x="150" y="463.041804180418" width="13.470736578235275" height="12.541254125412543" fill="#ffc000"></rect><rect x="150" y="476.24312431243123" width="21.57060629461242" height="12.541254125412543" fill="#5b9bd5"></rect><text class="label" x="189.48803229588276" y="431.9378437843784" font-size="10px">2.3x</text><text class="label" x="451.05802853665443" y="445.1391639163916" font-size="10px">21.72x</text><text class="label" x="464.47470538516626" y="458.34048404840485" font-size="10px">22.71x</text><text class="label" x="171.9707365782353" y="471.541804180418" font-size="10px">1x</text><text class="label" x="180.07060629461242" y="484.74312431243123" font-size="10px">1.6x</text><text class="label" x="185.98803229588276" y="433.4378437843784" font-size="8px"></text><text class="label" x="447.55802853665443" y="446.6391639163916" font-size="8px"></text><text class="label" x="460.97470538516626" y="459.84048404840485" font-size="8px"></text><text class="label" x="168.4707365782353" y="473.041804180418" font-size="8px"></text><text class="label" x="176.57060629461242" y="486.24312431243123" font-size="8px"></text></g><g style="font-size: 13px;"><rect x="150" y="497.51191785845253" width="256.7239686760409" height="12.541254125412543" fill="#4472c4"></rect><rect x="150" y="510.7132379904657" width="335.4630121387729" height="12.541254125412543" fill="#ed7d31"></rect><rect x="150" y="523.9145581224789" width="224.7300553334868" height="12.541254125412543" fill="#a5a5a5"></rect><rect x="150" y="537.1158782544921" width="13.470736578235275" height="12.541254125412543" fill="#ffc000"></rect><rect x="150" y="550.3171983865053" width="14.67782983465766" height="12.541254125412543" fill="#5b9bd5"></rect><text class="label" x="415.2239686760409" y="506.01191785845253" font-size="10px">19.06x</text><text class="label" x="493.9630121387729" y="519.2132379904657" font-size="10px">24.9x</text><text class="label" x="383.2300553334868" y="532.4145581224789" font-size="10px">16.68x</text><text class="label" x="171.9707365782353" y="545.6158782544921" font-size="10px">1x</text><text class="label" x="173.17782983465767" y="558.8171983865053" font-size="10px">1.09x</text><text class="label" x="411.7239686760409" y="507.51191785845253" font-size="8px"></text><text class="label" x="490.4630121387729" y="520.7132379904657" font-size="8px"></text><text class="label" x="379.7300553334868" y="533.9145581224789" font-size="8px"></text><text class="label" x="168.4707365782353" y="547.1158782544921" font-size="8px"></text><text class="label" x="169.67782983465767" y="560.3171983865053" font-size="8px"></text></g><g style="font-size: 13px;"><rect x="150" y="571.5859919325266" width="286.0859455586095" height="12.541254125412543" fill="#4472c4"></rect><rect x="150" y="584.7873120645397" width="260.10743040448256" height="12.541254125412543" fill="#ed7d31"></rect><rect x="150" y="597.9886321965529" width="194.94730483539055" height="12.541254125412543" fill="#a5a5a5"></rect><rect x="150" y="611.1899523285662" width="13.470736578235275" height="12.541254125412543" fill="#ffc000"></rect><rect x="150" y="624.3912724605793" width="15.139056807758264" height="12.541254125412543" fill="#5b9bd5"></rect><text class="label" x="444.5859455586095" y="580.0859919325266" font-size="10px">21.24x</text><text class="label" x="418.60743040448256" y="593.2873120645397" font-size="10px">19.31x</text><text class="label" x="353.4473048353906" y="606.4886321965529" font-size="10px">14.47x</text><text class="label" x="171.9707365782353" y="619.6899523285662" font-size="10px">1x</text><text class="label" x="173.63905680775827" y="632.8912724605793" font-size="10px">1.12x</text><text class="label" x="441.0859455586095" y="581.5859919325266" font-size="8px"></text><text class="label" x="415.10743040448256" y="594.7873120645397" font-size="8px"></text><text class="label" x="349.9473048353906" y="607.9886321965529" font-size="8px"></text><text class="label" x="168.4707365782353" y="621.1899523285662" font-size="8px"></text><text class="label" x="170.13905680775827" y="634.3912724605793" font-size="8px"></text></g></g></svg>