<svg xmlns="http://www.w3.org/2000/svg" xmlns:xlink="http://www.w3.org/1999/xlink" width="800" height="794" style="background-color: white;"><g class="y axis" transform="translate(149,45)" fill="none" font-size="10" font-family="sans-serif" text-anchor="end" style="font-size: 13px;"><path class="domain" stroke="currentColor" d="M0.5,0.5V600.5"></path><g class="tick" opacity="1" transform="translate(0,40.740740740740726)" style="font-size: 13px;"><line stroke="currentColor" x2="0"></line><text fill="currentColor" x="-3" dy="0.32em">object (simple)    </text></g><g class="tick" opacity="1" transform="translate(0,114.81481481481481)" style="font-size: 13px;"><line stroke="currentColor" x2="0"></line><text fill="currentColor" x="-3" dy="0.32em">object (hierarchical)    </text></g><g class="tick" opacity="1" transform="translate(0,188.88888888888889)" style="font-size: 13px;"><line stroke="currentColor" x2="0"></line><text fill="currentColor" x="-3" dy="0.32em">object (recursive)    </text></g><g class="tick" opacity="1" transform="translate(0,262.96296296296293)" style="font-size: 13px;"><line stroke="currentColor" x2="0"></line><text fill="currentColor" x="-3" dy="0.32em">object (union, explicit)    </text></g><g class="tick" opacity="1" transform="translate(0,337.037037037037)" style="font-size: 13px;"><line stroke="currentColor" x2="0"></line><text fill="currentColor" x="-3" dy="0.32em">array (simple)    </text></g><g class="tick" opacity="1" transform="translate(0,411.1111111111111)" style="font-size: 13px;"><line stroke="currentColor" x2="0"></line><text fill="currentColor" x="-3" dy="0.32em">array (hierarchical)    </text></g><g class="tick" opacity="1" transform="translate(0,485.18518518518516)" style="font-size: 13px;"><line stroke="currentColor" x2="0"></line><text fill="currentColor" x="-3" dy="0.32em">array (recursive)    </text></g><g class="tick" opacity="1" transform="translate(0,559.2592592592592)" style="font-size: 13px;"><line stroke="currentColor" x2="0"></line><text fill="currentColor" x="-3" dy="0.32em">array (union, explicit)    </text></g></g><g class="x axis" transform="translate(149,645)" fill="none" font-size="10" font-family="sans-serif" text-anchor="middle" style="font-size: 13px;"><path class="domain" stroke="currentColor" d="M0.5,0.5H485.5"></path><g class="tick" opacity="1" transform="translate(0.5,0)" style="font-size: 13px;"><line stroke="currentColor" y2="6"></line><text fill="currentColor" y="9" dy="0.71em">0x</text></g><g class="tick" opacity="1" transform="translate(87.4211335971281,0)" style="font-size: 13px;"><line stroke="currentColor" y2="6"></line><text fill="currentColor" y="9" dy="0.71em">5x</text></g><g class="tick" opacity="1" transform="translate(174.3422671942562,0)" style="font-size: 13px;"><line stroke="currentColor" y2="6"></line><text fill="currentColor" y="9" dy="0.71em">10x</text></g><g class="tick" opacity="1" transform="translate(261.2634007913843,0)" style="font-size: 13px;"><line stroke="currentColor" y2="6"></line><text fill="currentColor" y="9" dy="0.71em">15x</text></g><g class="tick" opacity="1" transform="translate(348.1845343885124,0)" style="font-size: 13px;"><line stroke="currentColor" y2="6"></line><text fill="currentColor" y="9" dy="0.71em">20x</text></g><g class="tick" opacity="1" transform="translate(435.1056679856404,0)" style="font-size: 13px;"><line stroke="currentColor" y2="6"></line><text fill="currentColor" y="9" dy="0.71em">25x</text></g></g><text transform="translate(400, 30)" style="text-anchor: middle; font-size: 20px; font-weight: bold;">assert benchmark</text><rect x="650" y="145" width="230" height="5" fill="gray"></rect><rect x="645" y="35" width="230" height="110" fill="none" stroke="black"></rect><rect x="655" y="45" width="10" height="10" style="fill: #4472c4;"></rect><text x="670" y="55" style="font-size: 12px;">nestia-express</text><rect x="655" y="65" width="10" height="10" style="fill: #ed7d31;"></rect><text x="670" y="75" style="font-size: 12px;">nestia-fastify</text><rect x="655" y="85" width="10" height="10" style="fill: #a5a5a5;"></rect><text x="670" y="95" style="font-size: 12px;">fastify</text><rect x="655" y="105" width="10" height="10" style="fill: #ffc000;"></rect><text x="670" y="115" style="font-size: 12px;">NestJS-express</text><rect x="655" y="125" width="10" height="10" style="fill: #5b9bd5;"></rect><text x="670" y="135" style="font-size: 12px;">NestJS-fastify</text><text x="20" y="709" style="font-size: 12px;">  - CPU: 11th Gen Intel(R) Core(TM) i5-1135G7 @ 2.40GHz</text><text x="20" y="726" style="font-size: 12px;">  - OS: win32</text><text x="20" y="743" style="font-size: 12px;">  - RAM: 16 GB</text><text x="20" y="760" style="font-size: 12px;">  - NodeJS version: v16.20.0</text><text x="20" y="777" style="font-size: 12px;">  - Nestia version: v1.3.8</text><g style="font-size: 13px;"><g style="font-size: 13px;"><rect x="150" y="53.06747341400805" width="202.99813067763696" height="12.541254125412543" fill="#4472c4"></rect><rect x="150" y="66.26879354602124" width="283.6135078962179" height="12.541254125412543" fill="#ed7d31"></rect><rect x="150" y="79.47011367803445" width="273.6058782131957" height="12.541254125412543" fill="#a5a5a5"></rect><rect x="150" y="92.67143381004766" width="17.384226719425616" height="12.541254125412543" fill="#ffc000"></rect><rect x="150" y="105.87275394206085" width="18.064241463569804" height="12.541254125412543" fill="#5b9bd5"></rect><text class="label" x="361.49813067763694" y="61.56747341400805" font-size="10px">11.68x</text><text class="label" x="442.1135078962179" y="74.76879354602124" font-size="10px">16.31x</text><text class="label" x="432.1058782131957" y="87.97011367803445" font-size="10px">15.74x</text><text class="label" x="175.8842267194256" y="101.17143381004766" font-size="10px">1x</text><text class="label" x="176.5642414635698" y="114.37275394206085" font-size="10px">1.04x</text><text class="label" x="357.99813067763694" y="63.06747341400805" font-size="8px"></text><text class="label" x="438.6135078962179" y="76.26879354602124" font-size="8px"></text><text class="label" x="428.6058782131957" y="89.47011367803445" font-size="8px"></text><text class="label" x="172.3842267194256" y="102.67143381004766" font-size="8px"></text><text class="label" x="173.0642414635698" y="115.87275394206085" font-size="8px"></text></g><g style="font-size: 13px;"><rect x="150" y="127.14154748808213" width="238.62934079203296" height="12.541254125412543" fill="#4472c4"></rect><rect x="150" y="140.34286762009532" width="238.87416500361365" height="12.541254125412543" fill="#ed7d31"></rect><rect x="150" y="153.54418775210854" width="230.76696590787193" height="12.541254125412543" fill="#a5a5a5"></rect><rect x="150" y="166.74550788412174" width="17.384226719425616" height="12.541254125412543" fill="#ffc000"></rect><rect x="150" y="179.94682801613493" width="18.91482241307358" height="12.541254125412543" fill="#5b9bd5"></rect><text class="label" x="397.12934079203296" y="135.64154748808213" font-size="10px">13.73x</text><text class="label" x="397.37416500361365" y="148.84286762009532" font-size="10px">13.74x</text><text class="label" x="389.26696590787196" y="162.04418775210854" font-size="10px">13.27x</text><text class="label" x="175.8842267194256" y="175.24550788412174" font-size="10px">1x</text><text class="label" x="177.41482241307358" y="188.44682801613493" font-size="10px">1.09x</text><text class="label" x="393.62934079203296" y="137.14154748808213" font-size="8px"></text><text class="label" x="393.87416500361365" y="150.34286762009532" font-size="8px"></text><text class="label" x="385.76696590787196" y="163.54418775210854" font-size="8px"></text><text class="label" x="172.3842267194256" y="176.74550788412174" font-size="8px"></text><text class="label" x="173.91482241307358" y="189.94682801613493" font-size="8px"></text></g><g style="font-size: 13px;"><rect x="150" y="201.2156215621562" width="286.06055035471917" height="12.541254125412543" fill="#4472c4"></rect><rect x="150" y="214.4169416941694" width="282.7939631365162" height="12.541254125412543" fill="#ed7d31"></rect><rect x="150" y="227.61826182618262" width="264.02608223746" height="12.541254125412543" fill="#a5a5a5"></rect><rect x="150" y="240.8195819581958" width="17.55614495213397" height="12.541254125412543" fill="#ffc000"></rect><rect x="150" y="254.020902090209" width="17.384226719425616" height="12.541254125412543" fill="#5b9bd5"></rect><text class="label" x="444.56055035471917" y="209.7156215621562" font-size="10px">16.46x</text><text class="label" x="441.2939631365162" y="222.9169416941694" font-size="10px">16.27x</text><text class="label" x="422.52608223746" y="236.11826182618262" font-size="10px">15.19x</text><text class="label" x="176.05614495213396" y="249.3195819581958" font-size="10px">1.01x</text><text class="label" x="175.8842267194256" y="262.520902090209" font-size="10px">1x</text><text class="label" x="441.06055035471917" y="211.2156215621562" font-size="8px"></text><text class="label" x="437.7939631365162" y="224.4169416941694" font-size="8px"></text><text class="label" x="419.02608223746" y="237.61826182618262" font-size="8px"></text><text class="label" x="172.55614495213396" y="250.8195819581958" font-size="8px"></text><text class="label" x="172.3842267194256" y="264.020902090209" font-size="8px"></text></g><g style="font-size: 13px;"><rect x="150" y="275.28969563623025" width="427.26976526523316" height="12.541254125412543" fill="#4472c4"></rect><rect x="150" y="288.49101576824347" width="440.9090909090909" height="12.541254125412543" fill="#ed7d31"></rect><rect x="150" y="301.6923359002567" width="267.65012565428793" height="12.541254125412543" fill="#a5a5a5"></rect><rect x="150" y="314.89365603226986" width="17.384226719425616" height="12.541254125412543" fill="#ffc000"></rect><rect x="150" y="328.0949761642831" width="17.7068573217125" height="12.541254125412543" fill="#5b9bd5"></rect><text class="label" x="585.7697652652332" y="283.78969563623025" font-size="10px">24.58x</text><text class="label" x="599.4090909090909" y="296.99101576824347" font-size="10px">25.36x</text><text class="label" x="426.15012565428793" y="310.1923359002567" font-size="10px">15.4x</text><text class="label" x="175.8842267194256" y="323.39365603226986" font-size="10px">1x</text><text class="label" x="176.2068573217125" y="336.5949761642831" font-size="10px">1.02x</text><text class="label" x="582.2697652652332" y="285.28969563623025" font-size="8px"></text><text class="label" x="595.9090909090909" y="298.49101576824347" font-size="8px"></text><text class="label" x="422.65012565428793" y="311.6923359002567" font-size="8px"></text><text class="label" x="172.3842267194256" y="324.89365603226986" font-size="8px"></text><text class="label" x="172.7068573217125" y="338.0949761642831" font-size="8px"></text></g><g style="font-size: 13px;"><rect x="150" y="349.3637697103044" width="251.81655752440005" height="12.541254125412543" fill="#4472c4"></rect><rect x="150" y="362.56508984231755" width="268.8212040311108" height="12.541254125412543" fill="#ed7d31"></rect><rect x="150" y="375.76640997433077" width="260.4831237735801" height="12.541254125412543" fill="#a5a5a5"></rect><rect x="150" y="388.967730106344" width="17.384226719425616" height="12.541254125412543" fill="#ffc000"></rect><rect x="150" y="402.16905023835716" width="17.404051160769598" height="12.541254125412543" fill="#5b9bd5"></rect><text class="label" x="410.3165575244001" y="357.8637697103044" font-size="10px">14.49x</text><text class="label" x="427.3212040311108" y="371.06508984231755" font-size="10px">15.46x</text><text class="label" x="418.9831237735801" y="384.26640997433077" font-size="10px">14.98x</text><text class="label" x="175.8842267194256" y="397.467730106344" font-size="10px">1x</text><text class="label" x="175.9040511607696" y="410.66905023835716" font-size="10px">1x</text><text class="label" x="406.8165575244001" y="359.3637697103044" font-size="8px"></text><text class="label" x="423.8212040311108" y="372.56508984231755" font-size="8px"></text><text class="label" x="415.4831237735801" y="385.76640997433077" font-size="8px"></text><text class="label" x="172.3842267194256" y="398.967730106344" font-size="8px"></text><text class="label" x="172.4040511607696" y="412.16905023835716" font-size="8px"></text></g><g style="font-size: 13px;"><rect x="150" y="423.4378437843784" width="362.62967794302426" height="12.541254125412543" fill="#4472c4"></rect><rect x="150" y="436.6391639163916" width="299.7662070284533" height="12.541254125412543" fill="#ed7d31"></rect><rect x="150" y="449.84048404840485" width="298.5133235590757" height="12.541254125412543" fill="#a5a5a5"></rect><rect x="150" y="463.041804180418" width="17.384226719425616" height="12.541254125412543" fill="#ffc000"></rect><rect x="150" y="476.24312431243123" width="17.388123030154627" height="12.541254125412543" fill="#5b9bd5"></rect><text class="label" x="521.1296779430243" y="431.9378437843784" font-size="10px">20.86x</text><text class="label" x="458.2662070284533" y="445.1391639163916" font-size="10px">17.24x</text><text class="label" x="457.0133235590757" y="458.34048404840485" font-size="10px">17.17x</text><text class="label" x="175.8842267194256" y="471.541804180418" font-size="10px">1x</text><text class="label" x="175.88812303015462" y="484.74312431243123" font-size="10px">1x</text><text class="label" x="517.6296779430243" y="433.4378437843784" font-size="8px"></text><text class="label" x="454.7662070284533" y="446.6391639163916" font-size="8px"></text><text class="label" x="453.5133235590757" y="459.84048404840485" font-size="8px"></text><text class="label" x="172.3842267194256" y="473.041804180418" font-size="8px"></text><text class="label" x="172.38812303015462" y="486.24312431243123" font-size="8px"></text></g><g style="font-size: 13px;"><rect x="150" y="497.51191785845253" width="308.3454474236467" height="12.541254125412543" fill="#4472c4"></rect><rect x="150" y="510.7132379904657" width="283.8019269991684" height="12.541254125412543" fill="#ed7d31"></rect><rect x="150" y="523.9145581224789" width="279.05677337918235" height="12.541254125412543" fill="#a5a5a5"></rect><rect x="150" y="537.1158782544921" width="17.9608166513861" height="12.541254125412543" fill="#ffc000"></rect><rect x="150" y="550.3171983865053" width="17.384226719425616" height="12.541254125412543" fill="#5b9bd5"></rect><text class="label" x="466.8454474236467" y="506.01191785845253" font-size="10px">17.74x</text><text class="label" x="442.3019269991684" y="519.2132379904657" font-size="10px">16.33x</text><text class="label" x="437.55677337918235" y="532.4145581224789" font-size="10px">16.05x</text><text class="label" x="176.4608166513861" y="545.6158782544921" font-size="10px">1.03x</text><text class="label" x="175.8842267194256" y="558.8171983865053" font-size="10px">1x</text><text class="label" x="463.3454474236467" y="507.51191785845253" font-size="8px"></text><text class="label" x="438.8019269991684" y="520.7132379904657" font-size="8px"></text><text class="label" x="434.05677337918235" y="533.9145581224789" font-size="8px"></text><text class="label" x="172.9608166513861" y="547.1158782544921" font-size="8px"></text><text class="label" x="172.3842267194256" y="560.3171983865053" font-size="8px"></text></g><g style="font-size: 13px;"><rect x="150" y="571.5859919325266" width="373.7476633558211" height="12.541254125412543" fill="#4472c4"></rect><rect x="150" y="584.7873120645397" width="343.2750042981998" height="12.541254125412543" fill="#ed7d31"></rect><rect x="150" y="597.9886321965529" width="225.62616490032053" height="12.541254125412543" fill="#a5a5a5"></rect><rect x="150" y="611.1899523285662" width="18.085375526141952" height="12.541254125412543" fill="#ffc000"></rect><rect x="150" y="624.3912724605793" width="17.384226719425616" height="12.541254125412543" fill="#5b9bd5"></rect><text class="label" x="532.247663355821" y="580.0859919325266" font-size="10px">21.5x</text><text class="label" x="501.7750042981998" y="593.2873120645397" font-size="10px">19.75x</text><text class="label" x="384.12616490032053" y="606.4886321965529" font-size="10px">12.98x</text><text class="label" x="176.58537552614195" y="619.6899523285662" font-size="10px">1.04x</text><text class="label" x="175.8842267194256" y="632.8912724605793" font-size="10px">1x</text><text class="label" x="528.747663355821" y="581.5859919325266" font-size="8px"></text><text class="label" x="498.2750042981998" y="594.7873120645397" font-size="8px"></text><text class="label" x="380.62616490032053" y="607.9886321965529" font-size="8px"></text><text class="label" x="173.08537552614195" y="621.1899523285662" font-size="8px"></text><text class="label" x="172.3842267194256" y="634.3912724605793" font-size="8px"></text></g></g></svg>