<svg xmlns="http://www.w3.org/2000/svg" xmlns:xlink="http://www.w3.org/1999/xlink" width="800" height="674" style="background-color: white;"><g class="y axis" transform="translate(149,45)" fill="none" font-size="10" font-family="sans-serif" text-anchor="end" style="font-size: 13px;"><path class="domain" stroke="currentColor" d="M0.5,0.5V480.5"></path><g class="tick" opacity="1" transform="translate(0,32.592592592592595)" style="font-size: 13px;"><line stroke="currentColor" x2="0"></line><text fill="currentColor" x="-3" dy="0.32em">object (simple)    </text></g><g class="tick" opacity="1" transform="translate(0,91.85185185185186)" style="font-size: 13px;"><line stroke="currentColor" x2="0"></line><text fill="currentColor" x="-3" dy="0.32em">object (hierarchical)    </text></g><g class="tick" opacity="1" transform="translate(0,151.11111111111111)" style="font-size: 13px;"><line stroke="currentColor" x2="0"></line><text fill="currentColor" x="-3" dy="0.32em">object (recursive)    </text></g><g class="tick" opacity="1" transform="translate(0,210.37037037037035)" style="font-size: 13px;"><line stroke="currentColor" x2="0"></line><text fill="currentColor" x="-3" dy="0.32em">object (union, explicit)    </text></g><g class="tick" opacity="1" transform="translate(0,269.6296296296296)" style="font-size: 13px;"><line stroke="currentColor" x2="0"></line><text fill="currentColor" x="-3" dy="0.32em">array (simple)    </text></g><g class="tick" opacity="1" transform="translate(0,328.8888888888889)" style="font-size: 13px;"><line stroke="currentColor" x2="0"></line><text fill="currentColor" x="-3" dy="0.32em">array (hierarchical)    </text></g><g class="tick" opacity="1" transform="translate(0,388.14814814814815)" style="font-size: 13px;"><line stroke="currentColor" x2="0"></line><text fill="currentColor" x="-3" dy="0.32em">array (recursive)    </text></g><g class="tick" opacity="1" transform="translate(0,447.40740740740745)" style="font-size: 13px;"><line stroke="currentColor" x2="0"></line><text fill="currentColor" x="-3" dy="0.32em">array (union, explicit)    </text></g></g><g class="x axis" transform="translate(149,525)" fill="none" font-size="10" font-family="sans-serif" text-anchor="middle" style="font-size: 13px;"><path class="domain" stroke="currentColor" d="M0.5,0.5H485.5"></path><g class="tick" opacity="1" transform="translate(0.5,0)" style="font-size: 13px;"><line stroke="currentColor" y2="6"></line><text fill="currentColor" y="9" dy="0.71em">0x</text></g><g class="tick" opacity="1" transform="translate(69.60037803471376,0)" style="font-size: 13px;"><line stroke="currentColor" y2="6"></line><text fill="currentColor" y="9" dy="0.71em">5x</text></g><g class="tick" opacity="1" transform="translate(138.7007560694275,0)" style="font-size: 13px;"><line stroke="currentColor" y2="6"></line><text fill="currentColor" y="9" dy="0.71em">10x</text></g><g class="tick" opacity="1" transform="translate(207.80113410414128,0)" style="font-size: 13px;"><line stroke="currentColor" y2="6"></line><text fill="currentColor" y="9" dy="0.71em">15x</text></g><g class="tick" opacity="1" transform="translate(276.901512138855,0)" style="font-size: 13px;"><line stroke="currentColor" y2="6"></line><text fill="currentColor" y="9" dy="0.71em">20x</text></g><g class="tick" opacity="1" transform="translate(346.00189017356877,0)" style="font-size: 13px;"><line stroke="currentColor" y2="6"></line><text fill="currentColor" y="9" dy="0.71em">25x</text></g><g class="tick" opacity="1" transform="translate(415.10226820828257,0)" style="font-size: 13px;"><line stroke="currentColor" y2="6"></line><text fill="currentColor" y="9" dy="0.71em">30x</text></g><g class="tick" opacity="1" transform="translate(484.20264624299625,0)" style="font-size: 13px;"><line stroke="currentColor" y2="6"></line><text fill="currentColor" y="9" dy="0.71em">35x</text></g></g><text transform="translate(400, 30)" style="text-anchor: middle; font-size: 20px; font-weight: bold;">performance benchmark</text><rect x="650" y="125" width="230" height="5" fill="gray"></rect><rect x="645" y="35" width="230" height="90" fill="none" stroke="black"></rect><rect x="655" y="45" width="10" height="10" style="fill: #4472c4;"></rect><text x="670" y="55" style="font-size: 12px;">nestia-express</text><rect x="655" y="65" width="10" height="10" style="fill: #ed7d31;"></rect><text x="670" y="75" style="font-size: 12px;">nestia-fastify</text><rect x="655" y="85" width="10" height="10" style="fill: #a5a5a5;"></rect><text x="670" y="95" style="font-size: 12px;">NestJS-express</text><rect x="655" y="105" width="10" height="10" style="fill: #ffc000;"></rect><text x="670" y="115" style="font-size: 12px;">NestJS-fastify</text><text x="20" y="589" style="font-size: 12px;">  - CPU: 11th Gen Intel(R) Core(TM) i5-1135G7 @ 2.40GHz</text><text x="20" y="606" style="font-size: 12px;">  - OS: win32</text><text x="20" y="623" style="font-size: 12px;">  - RAM: 16 GB</text><text x="20" y="640" style="font-size: 12px;">  - NodeJS version: v16.20.0</text><text x="20" y="657" style="font-size: 12px;">  - Nestia version: v1.2.2</text><g style="font-size: 13px;"><g style="font-size: 13px;"><rect x="150" y="51.584362139917694" width="119.38594950261" height="12.510288065843621" fill="#4472c4"></rect><rect x="150" y="64.75308641975309" width="175.6108157166156" height="12.510288065843621" fill="#ed7d31"></rect><rect x="150" y="77.92181069958848" width="13.820075606942751" height="12.510288065843621" fill="#a5a5a5"></rect><rect x="150" y="91.09053497942386" width="14.808026307957489" height="12.510288065843621" fill="#ffc000"></rect><text class="label" x="277.88594950261" y="60.084362139917694" font-size="10px">8.64x</text><text class="label" x="334.1108157166156" y="73.25308641975309" font-size="10px">12.71x</text><text class="label" x="172.32007560694274" y="86.42181069958848" font-size="10px">1x</text><text class="label" x="173.30802630795748" y="99.59053497942386" font-size="10px">1.07x</text><text class="label" x="274.38594950261" y="61.584362139917694" font-size="8px"></text><text class="label" x="330.6108157166156" y="74.75308641975309" font-size="8px"></text><text class="label" x="168.82007560694274" y="87.92181069958848" font-size="8px"></text><text class="label" x="169.80802630795748" y="101.09053497942386" font-size="8px"></text></g><g style="font-size: 13px;"><rect x="150" y="110.84362139917695" width="133.70355697895914" height="12.510288065843621" fill="#4472c4"></rect><rect x="150" y="124.01234567901236" width="157.3200820536107" height="12.510288065843621" fill="#ed7d31"></rect><rect x="150" y="137.18106995884773" width="13.820075606942751" height="12.510288065843621" fill="#a5a5a5"></rect><rect x="150" y="150.34979423868313" width="15.14296434120078" height="12.510288065843621" fill="#ffc000"></rect><text class="label" x="292.2035569789591" y="119.34362139917695" font-size="10px">9.67x</text><text class="label" x="315.8200820536107" y="132.51234567901236" font-size="10px">11.38x</text><text class="label" x="172.32007560694274" y="145.68106995884773" font-size="10px">1x</text><text class="label" x="173.64296434120078" y="158.84979423868313" font-size="10px">1.1x</text><text class="label" x="288.7035569789591" y="120.84362139917695" font-size="8px"></text><text class="label" x="312.3200820536107" y="134.01234567901236" font-size="8px"></text><text class="label" x="168.82007560694274" y="147.18106995884773" font-size="8px"></text><text class="label" x="170.14296434120078" y="160.34979423868313" font-size="8px"></text></g><g style="font-size: 13px;"><rect x="150" y="170.10288065843622" width="131.33854015445095" height="12.510288065843621" fill="#4472c4"></rect><rect x="150" y="183.2716049382716" width="150.75960901300613" height="12.510288065843621" fill="#ed7d31"></rect><rect x="150" y="196.440329218107" width="13.820075606942751" height="12.510288065843621" fill="#a5a5a5"></rect><rect x="150" y="209.6090534979424" width="13.953761829674217" height="12.510288065843621" fill="#ffc000"></rect><text class="label" x="289.8385401544509" y="178.60288065843622" font-size="10px">9.5x</text><text class="label" x="309.2596090130061" y="191.7716049382716" font-size="10px">10.91x</text><text class="label" x="172.32007560694274" y="204.940329218107" font-size="10px">1x</text><text class="label" x="172.45376182967422" y="218.1090534979424" font-size="10px">1.01x</text><text class="label" x="286.3385401544509" y="180.10288065843622" font-size="8px"></text><text class="label" x="305.7596090130061" y="193.2716049382716" font-size="8px"></text><text class="label" x="168.82007560694274" y="206.440329218107" font-size="8px"></text><text class="label" x="168.95376182967422" y="219.6090534979424" font-size="8px"></text></g><g style="font-size: 13px;"><rect x="150" y="229.36213991769546" width="369.1592764196537" height="12.510288065843621" fill="#4472c4"></rect><rect x="150" y="242.53086419753086" width="440.9090909090909" height="12.510288065843621" fill="#ed7d31"></rect><rect x="150" y="255.69958847736626" width="13.820075606942751" height="12.510288065843621" fill="#a5a5a5"></rect><rect x="150" y="268.86831275720164" width="14.135142164057456" height="12.510288065843621" fill="#ffc000"></rect><text class="label" x="527.6592764196537" y="237.86213991769546" font-size="10px">26.71x</text><text class="label" x="599.4090909090909" y="251.03086419753086" font-size="10px">31.9x</text><text class="label" x="172.32007560694274" y="264.19958847736626" font-size="10px">1x</text><text class="label" x="172.63514216405747" y="277.36831275720164" font-size="10px">1.02x</text><text class="label" x="524.1592764196537" y="239.36213991769546" font-size="8px"></text><text class="label" x="595.9090909090909" y="252.53086419753086" font-size="8px"></text><text class="label" x="168.82007560694274" y="265.69958847736626" font-size="8px"></text><text class="label" x="169.13514216405747" y="278.86831275720164" font-size="8px"></text></g><g style="font-size: 13px;"><rect x="150" y="288.6213991769547" width="222.23860890693354" height="12.510288065843621" fill="#4472c4"></rect><rect x="150" y="301.7901234567901" width="252.96925515574898" height="12.510288065843621" fill="#ed7d31"></rect><rect x="150" y="314.9588477366255" width="14.54983730989021" height="12.510288065843621" fill="#a5a5a5"></rect><rect x="150" y="328.12757201646093" width="13.820075606942751" height="12.510288065843621" fill="#ffc000"></rect><text class="label" x="380.73860890693356" y="297.1213991769547" font-size="10px">16.08x</text><text class="label" x="411.469255155749" y="310.2901234567901" font-size="10px">18.3x</text><text class="label" x="173.04983730989022" y="323.4588477366255" font-size="10px">1.05x</text><text class="label" x="172.32007560694274" y="336.62757201646093" font-size="10px">1x</text><text class="label" x="377.23860890693356" y="298.6213991769547" font-size="8px"></text><text class="label" x="407.969255155749" y="311.7901234567901" font-size="8px"></text><text class="label" x="169.54983730989022" y="324.9588477366255" font-size="8px"></text><text class="label" x="168.82007560694274" y="338.12757201646093" font-size="8px"></text></g><g style="font-size: 13px;"><rect x="150" y="347.880658436214" width="297.6379566343952" height="12.510288065843621" fill="#4472c4"></rect><rect x="150" y="361.04938271604937" width="289.5925176182433" height="12.510288065843621" fill="#ed7d31"></rect><rect x="150" y="374.2181069958848" width="14.103767070896001" height="12.510288065843621" fill="#a5a5a5"></rect><rect x="150" y="387.38683127572017" width="13.820075606942751" height="12.510288065843621" fill="#ffc000"></rect><text class="label" x="456.1379566343952" y="356.380658436214" font-size="10px">21.54x</text><text class="label" x="448.0925176182433" y="369.54938271604937" font-size="10px">20.95x</text><text class="label" x="172.603767070896" y="382.7181069958848" font-size="10px">1.02x</text><text class="label" x="172.32007560694274" y="395.88683127572017" font-size="10px">1x</text><text class="label" x="452.6379566343952" y="357.880658436214" font-size="8px"></text><text class="label" x="444.5925176182433" y="371.04938271604937" font-size="8px"></text><text class="label" x="169.103767070896" y="384.2181069958848" font-size="8px"></text><text class="label" x="168.82007560694274" y="397.38683127572017" font-size="8px"></text></g><g style="font-size: 13px;"><rect x="150" y="407.13991769547323" width="134.56488308182793" height="12.510288065843621" fill="#4472c4"></rect><rect x="150" y="420.3086419753086" width="142.80492176814712" height="12.510288065843621" fill="#ed7d31"></rect><rect x="150" y="433.47736625514403" width="13.820075606942751" height="12.510288065843621" fill="#a5a5a5"></rect><rect x="150" y="446.6460905349794" width="14.084490932780735" height="12.510288065843621" fill="#ffc000"></rect><text class="label" x="293.06488308182793" y="415.63991769547323" font-size="10px">9.74x</text><text class="label" x="301.3049217681471" y="428.8086419753086" font-size="10px">10.33x</text><text class="label" x="172.32007560694274" y="441.97736625514403" font-size="10px">1x</text><text class="label" x="172.58449093278074" y="455.1460905349794" font-size="10px">1.02x</text><text class="label" x="289.56488308182793" y="417.13991769547323" font-size="8px"></text><text class="label" x="297.8049217681471" y="430.3086419753086" font-size="8px"></text><text class="label" x="168.82007560694274" y="443.47736625514403" font-size="8px"></text><text class="label" x="169.08449093278074" y="456.6460905349794" font-size="8px"></text></g><g style="font-size: 13px;"><rect x="150" y="466.3991769547325" width="267.1186319292366" height="12.510288065843621" fill="#4472c4"></rect><rect x="150" y="479.5679012345679" width="276.73896945108913" height="12.510288065843621" fill="#ed7d31"></rect><rect x="150" y="492.73662551440333" width="13.891723148658887" height="12.510288065843621" fill="#a5a5a5"></rect><rect x="150" y="505.9053497942387" width="13.820075606942751" height="12.510288065843621" fill="#ffc000"></rect><text class="label" x="425.6186319292366" y="474.8991769547325" font-size="10px">19.33x</text><text class="label" x="435.23896945108913" y="488.0679012345679" font-size="10px">20.02x</text><text class="label" x="172.39172314865888" y="501.23662551440333" font-size="10px">1.01x</text><text class="label" x="172.32007560694274" y="514.4053497942386" font-size="10px">1x</text><text class="label" x="422.1186319292366" y="476.3991769547325" font-size="8px"></text><text class="label" x="431.73896945108913" y="489.5679012345679" font-size="8px"></text><text class="label" x="168.89172314865888" y="502.73662551440333" font-size="8px"></text><text class="label" x="168.82007560694274" y="515.9053497942386" font-size="8px"></text></g></g></svg>