<svg xmlns="http://www.w3.org/2000/svg" xmlns:xlink="http://www.w3.org/1999/xlink" width="800" height="794" style="background-color: white;"><g class="y axis" transform="translate(149,45)" fill="none" font-size="10" font-family="sans-serif" text-anchor="end" style="font-size: 13px;"><path class="domain" stroke="currentColor" d="M0.5,0.5V600.5"></path><g class="tick" opacity="1" transform="translate(0,40.740740740740726)" style="font-size: 13px;"><line stroke="currentColor" x2="0"></line><text fill="currentColor" x="-3" dy="0.32em">object (simple)    </text></g><g class="tick" opacity="1" transform="translate(0,114.81481481481481)" style="font-size: 13px;"><line stroke="currentColor" x2="0"></line><text fill="currentColor" x="-3" dy="0.32em">object (hierarchical)    </text></g><g class="tick" opacity="1" transform="translate(0,188.88888888888889)" style="font-size: 13px;"><line stroke="currentColor" x2="0"></line><text fill="currentColor" x="-3" dy="0.32em">object (recursive)    </text></g><g class="tick" opacity="1" transform="translate(0,262.96296296296293)" style="font-size: 13px;"><line stroke="currentColor" x2="0"></line><text fill="currentColor" x="-3" dy="0.32em">object (union, explicit)    </text></g><g class="tick" opacity="1" transform="translate(0,337.037037037037)" style="font-size: 13px;"><line stroke="currentColor" x2="0"></line><text fill="currentColor" x="-3" dy="0.32em">array (simple)    </text></g><g class="tick" opacity="1" transform="translate(0,411.1111111111111)" style="font-size: 13px;"><line stroke="currentColor" x2="0"></line><text fill="currentColor" x="-3" dy="0.32em">array (hierarchical)    </text></g><g class="tick" opacity="1" transform="translate(0,485.18518518518516)" style="font-size: 13px;"><line stroke="currentColor" x2="0"></line><text fill="currentColor" x="-3" dy="0.32em">array (recursive)    </text></g><g class="tick" opacity="1" transform="translate(0,559.2592592592592)" style="font-size: 13px;"><line stroke="currentColor" x2="0"></line><text fill="currentColor" x="-3" dy="0.32em">array (union, explicit)    </text></g></g><g class="x axis" transform="translate(149,645)" fill="none" font-size="10" font-family="sans-serif" text-anchor="middle" style="font-size: 13px;"><path class="domain" stroke="currentColor" d="M0.5,0.5H485.5"></path><g class="tick" opacity="1" transform="translate(0.5,0)" style="font-size: 13px;"><line stroke="currentColor" y2="6"></line><text fill="currentColor" y="9" dy="0.71em">0x</text></g><g class="tick" opacity="1" transform="translate(135.25199380941248,0)" style="font-size: 13px;"><line stroke="currentColor" y2="6"></line><text fill="currentColor" y="9" dy="0.71em">10x</text></g><g class="tick" opacity="1" transform="translate(270.00398761882497,0)" style="font-size: 13px;"><line stroke="currentColor" y2="6"></line><text fill="currentColor" y="9" dy="0.71em">20x</text></g><g class="tick" opacity="1" transform="translate(404.7559814282375,0)" style="font-size: 13px;"><line stroke="currentColor" y2="6"></line><text fill="currentColor" y="9" dy="0.71em">30x</text></g></g><text transform="translate(400, 30)" style="text-anchor: middle; font-size: 20px; font-weight: bold;">performance benchmark</text><rect x="650" y="145" width="230" height="5" fill="gray"></rect><rect x="645" y="35" width="230" height="110" fill="none" stroke="black"></rect><rect x="655" y="45" width="10" height="10" style="fill: #4472c4;"></rect><text x="670" y="55" style="font-size: 12px;">nestia-express</text><rect x="655" y="65" width="10" height="10" style="fill: #ed7d31;"></rect><text x="670" y="75" style="font-size: 12px;">nestia-fastify</text><rect x="655" y="85" width="10" height="10" style="fill: #a5a5a5;"></rect><text x="670" y="95" style="font-size: 12px;">NestJS-express</text><rect x="655" y="105" width="10" height="10" style="fill: #ffc000;"></rect><text x="670" y="115" style="font-size: 12px;">NestJS-fastify</text><rect x="655" y="125" width="10" height="10" style="fill: #5b9bd5;"></rect><text x="670" y="135" style="font-size: 12px;">fastify</text><text x="20" y="709" style="font-size: 12px;">  - CPU: 11th Gen Intel(R) Core(TM) i5-1135G7 @ 2.40GHz</text><text x="20" y="726" style="font-size: 12px;">  - OS: win32</text><text x="20" y="743" style="font-size: 12px;">  - RAM: 16 GB</text><text x="20" y="760" style="font-size: 12px;">  - NodeJS version: v16.20.0</text><text x="20" y="777" style="font-size: 12px;">  - Nestia version: v1.3.8</text><g style="font-size: 13px;"><g style="font-size: 13px;"><rect x="150" y="53.06747341400805" width="117.4994310723224" height="12.541254125412543" fill="#4472c4"></rect><rect x="150" y="66.26879354602124" width="181.17084945884676" height="12.541254125412543" fill="#ed7d31"></rect><rect x="150" y="79.47011367803445" width="13.475199380941248" height="12.541254125412543" fill="#a5a5a5"></rect><rect x="150" y="92.67143381004766" width="14.707212818518553" height="12.541254125412543" fill="#ffc000"></rect><rect x="150" y="105.87275394206085" width="81.62741686494041" height="12.541254125412543" fill="#5b9bd5"></rect><text class="label" x="275.9994310723224" y="61.56747341400805" font-size="10px">8.72x</text><text class="label" x="339.67084945884676" y="74.76879354602124" font-size="10px">13.44x</text><text class="label" x="171.97519938094126" y="87.97011367803445" font-size="10px">1x</text><text class="label" x="173.20721281851854" y="101.17143381004766" font-size="10px">1.09x</text><text class="label" x="240.12741686494041" y="114.37275394206085" font-size="10px">6.06x</text><text class="label" x="272.4994310723224" y="63.06747341400805" font-size="8px"></text><text class="label" x="336.17084945884676" y="76.26879354602124" font-size="8px"></text><text class="label" x="168.47519938094126" y="89.47011367803445" font-size="8px"></text><text class="label" x="169.70721281851854" y="102.67143381004766" font-size="8px"></text><text class="label" x="236.62741686494041" y="115.87275394206085" font-size="8px"></text></g><g style="font-size: 13px;"><rect x="150" y="127.14154748808213" width="115.07098180962633" height="12.541254125412543" fill="#4472c4"></rect><rect x="150" y="140.34286762009532" width="130.03109193704793" height="12.541254125412543" fill="#ed7d31"></rect><rect x="150" y="153.54418775210854" width="13.475199380941248" height="12.541254125412543" fill="#a5a5a5"></rect><rect x="150" y="166.74550788412174" width="13.926176547983022" height="12.541254125412543" fill="#ffc000"></rect><rect x="150" y="179.94682801613493" width="81.0963170487455" height="12.541254125412543" fill="#5b9bd5"></rect><text class="label" x="273.57098180962635" y="135.64154748808213" font-size="10px">8.54x</text><text class="label" x="288.5310919370479" y="148.84286762009532" font-size="10px">9.65x</text><text class="label" x="171.97519938094126" y="162.04418775210854" font-size="10px">1x</text><text class="label" x="172.42617654798303" y="175.24550788412174" font-size="10px">1.03x</text><text class="label" x="239.5963170487455" y="188.44682801613493" font-size="10px">6.02x</text><text class="label" x="270.07098180962635" y="137.14154748808213" font-size="8px"></text><text class="label" x="285.0310919370479" y="150.34286762009532" font-size="8px"></text><text class="label" x="168.47519938094126" y="163.54418775210854" font-size="8px"></text><text class="label" x="168.92617654798303" y="176.74550788412174" font-size="8px"></text><text class="label" x="236.0963170487455" y="189.94682801613493" font-size="8px"></text></g><g style="font-size: 13px;"><rect x="150" y="201.2156215621562" width="129.0902014668475" height="12.541254125412543" fill="#4472c4"></rect><rect x="150" y="214.4169416941694" width="152.4636306779636" height="12.541254125412543" fill="#ed7d31"></rect><rect x="150" y="227.61826182618262" width="13.475199380941248" height="12.541254125412543" fill="#a5a5a5"></rect><rect x="150" y="240.8195819581958" width="14.199616148542038" height="12.541254125412543" fill="#ffc000"></rect><rect x="150" y="254.020902090209" width="100.40011551761748" height="12.541254125412543" fill="#5b9bd5"></rect><text class="label" x="287.5902014668475" y="209.7156215621562" font-size="10px">9.58x</text><text class="label" x="310.9636306779636" y="222.9169416941694" font-size="10px">11.31x</text><text class="label" x="171.97519938094126" y="236.11826182618262" font-size="10px">1x</text><text class="label" x="172.69961614854205" y="249.3195819581958" font-size="10px">1.05x</text><text class="label" x="258.90011551761745" y="262.520902090209" font-size="10px">7.45x</text><text class="label" x="284.0902014668475" y="211.2156215621562" font-size="8px"></text><text class="label" x="307.4636306779636" y="224.4169416941694" font-size="8px"></text><text class="label" x="168.47519938094126" y="237.61826182618262" font-size="8px"></text><text class="label" x="169.19961614854205" y="250.8195819581958" font-size="8px"></text><text class="label" x="255.40011551761748" y="264.020902090209" font-size="8px"></text></g><g style="font-size: 13px;"><rect x="150" y="275.28969563623025" width="366.37831261393893" height="12.541254125412543" fill="#4472c4"></rect><rect x="150" y="288.49101576824347" width="440.9090909090908" height="12.541254125412543" fill="#ed7d31"></rect><rect x="150" y="301.6923359002567" width="13.475199380941248" height="12.541254125412543" fill="#a5a5a5"></rect><rect x="150" y="314.89365603226986" width="13.874634839325518" height="12.541254125412543" fill="#ffc000"></rect><rect x="150" y="328.0949761642831" width="283.2285270669026" height="12.541254125412543" fill="#5b9bd5"></rect><text class="label" x="524.878312613939" y="283.78969563623025" font-size="10px">27.19x</text><text class="label" x="599.4090909090908" y="296.99101576824347" font-size="10px">32.72x</text><text class="label" x="171.97519938094126" y="310.1923359002567" font-size="10px">1x</text><text class="label" x="172.37463483932552" y="323.39365603226986" font-size="10px">1.03x</text><text class="label" x="441.7285270669026" y="336.5949761642831" font-size="10px">21.02x</text><text class="label" x="521.378312613939" y="285.28969563623025" font-size="8px"></text><text class="label" x="595.9090909090908" y="298.49101576824347" font-size="8px"></text><text class="label" x="168.47519938094126" y="311.6923359002567" font-size="8px"></text><text class="label" x="168.87463483932552" y="324.89365603226986" font-size="8px"></text><text class="label" x="438.2285270669026" y="338.0949761642831" font-size="8px"></text></g><g style="font-size: 13px;"><rect x="150" y="349.3637697103044" width="206.28734342296724" height="12.541254125412543" fill="#4472c4"></rect><rect x="150" y="362.56508984231755" width="235.1360201812433" height="12.541254125412543" fill="#ed7d31"></rect><rect x="150" y="375.76640997433077" width="13.475199380941248" height="12.541254125412543" fill="#a5a5a5"></rect><rect x="150" y="388.967730106344" width="13.895121268912478" height="12.541254125412543" fill="#ffc000"></rect><rect x="150" y="402.16905023835716" width="181.1773887260181" height="12.541254125412543" fill="#5b9bd5"></rect><text class="label" x="364.78734342296724" y="357.8637697103044" font-size="10px">15.31x</text><text class="label" x="393.63602018124334" y="371.06508984231755" font-size="10px">17.45x</text><text class="label" x="171.97519938094126" y="384.26640997433077" font-size="10px">1x</text><text class="label" x="172.39512126891248" y="397.467730106344" font-size="10px">1.03x</text><text class="label" x="339.6773887260181" y="410.66905023835716" font-size="10px">13.45x</text><text class="label" x="361.28734342296724" y="359.3637697103044" font-size="8px"></text><text class="label" x="390.13602018124334" y="372.56508984231755" font-size="8px"></text><text class="label" x="168.47519938094126" y="385.76640997433077" font-size="8px"></text><text class="label" x="168.89512126891248" y="398.967730106344" font-size="8px"></text><text class="label" x="336.1773887260181" y="412.16905023835716" font-size="8px"></text></g><g style="font-size: 13px;"><rect x="150" y="423.4378437843784" width="282.81561294173275" height="12.541254125412543" fill="#4472c4"></rect><rect x="150" y="436.6391639163916" width="291.9640031267099" height="12.541254125412543" fill="#ed7d31"></rect><rect x="150" y="449.84048404840485" width="13.6522492059943" height="12.541254125412543" fill="#a5a5a5"></rect><rect x="150" y="463.041804180418" width="13.475199380941248" height="12.541254125412543" fill="#ffc000"></rect><rect x="150" y="476.24312431243123" width="236.78417553037093" height="12.541254125412543" fill="#5b9bd5"></rect><text class="label" x="441.31561294173275" y="431.9378437843784" font-size="10px">20.99x</text><text class="label" x="450.4640031267099" y="445.1391639163916" font-size="10px">21.67x</text><text class="label" x="172.1522492059943" y="458.34048404840485" font-size="10px">1.01x</text><text class="label" x="171.97519938094126" y="471.541804180418" font-size="10px">1x</text><text class="label" x="395.28417553037093" y="484.74312431243123" font-size="10px">17.57x</text><text class="label" x="437.81561294173275" y="433.4378437843784" font-size="8px"></text><text class="label" x="446.9640031267099" y="446.6391639163916" font-size="8px"></text><text class="label" x="168.6522492059943" y="459.84048404840485" font-size="8px"></text><text class="label" x="168.47519938094126" y="473.041804180418" font-size="8px"></text><text class="label" x="391.78417553037093" y="486.24312431243123" font-size="8px"></text></g><g style="font-size: 13px;"><rect x="150" y="497.51191785845253" width="134.24866665616923" height="12.541254125412543" fill="#4472c4"></rect><rect x="150" y="510.7132379904657" width="140.92715632205812" height="12.541254125412543" fill="#ed7d31"></rect><rect x="150" y="523.9145581224789" width="13.507977944557751" height="12.541254125412543" fill="#a5a5a5"></rect><rect x="150" y="537.1158782544921" width="13.475199380941248" height="12.541254125412543" fill="#ffc000"></rect><rect x="150" y="550.3171983865053" width="110.0983700747268" height="12.541254125412543" fill="#5b9bd5"></rect><text class="label" x="292.74866665616923" y="506.01191785845253" font-size="10px">9.96x</text><text class="label" x="299.4271563220581" y="519.2132379904657" font-size="10px">10.46x</text><text class="label" x="172.00797794455775" y="532.4145581224789" font-size="10px">1x</text><text class="label" x="171.97519938094126" y="545.6158782544921" font-size="10px">1x</text><text class="label" x="268.5983700747268" y="558.8171983865053" font-size="10px">8.17x</text><text class="label" x="289.24866665616923" y="507.51191785845253" font-size="8px"></text><text class="label" x="295.9271563220581" y="520.7132379904657" font-size="8px"></text><text class="label" x="168.50797794455775" y="533.9145581224789" font-size="8px"></text><text class="label" x="168.47519938094126" y="547.1158782544921" font-size="8px"></text><text class="label" x="265.0983700747268" y="560.3171983865053" font-size="8px"></text></g><g style="font-size: 13px;"><rect x="150" y="571.5859919325266" width="267.93356106405713" height="12.541254125412543" fill="#4472c4"></rect><rect x="150" y="584.7873120645397" width="279.67576560441057" height="12.541254125412543" fill="#ed7d31"></rect><rect x="150" y="597.9886321965529" width="13.780159917360553" height="12.541254125412543" fill="#a5a5a5"></rect><rect x="150" y="611.1899523285662" width="13.475199380941248" height="12.541254125412543" fill="#ffc000"></rect><rect x="150" y="624.3912724605793" width="249.42294876294517" height="12.541254125412543" fill="#5b9bd5"></rect><text class="label" x="426.43356106405713" y="580.0859919325266" font-size="10px">19.88x</text><text class="label" x="438.17576560441057" y="593.2873120645397" font-size="10px">20.75x</text><text class="label" x="172.28015991736055" y="606.4886321965529" font-size="10px">1.02x</text><text class="label" x="171.97519938094126" y="619.6899523285662" font-size="10px">1x</text><text class="label" x="407.92294876294517" y="632.8912724605793" font-size="10px">18.51x</text><text class="label" x="422.93356106405713" y="581.5859919325266" font-size="8px"></text><text class="label" x="434.67576560441057" y="594.7873120645397" font-size="8px"></text><text class="label" x="168.78015991736055" y="607.9886321965529" font-size="8px"></text><text class="label" x="168.47519938094126" y="621.1899523285662" font-size="8px"></text><text class="label" x="404.42294876294517" y="634.3912724605793" font-size="8px"></text></g></g></svg>