<svg xmlns="http://www.w3.org/2000/svg" xmlns:xlink="http://www.w3.org/1999/xlink" width="800" height="794" style="background-color: white;"><g class="y axis" transform="translate(149,45)" fill="none" font-size="10" font-family="sans-serif" text-anchor="end" style="font-size: 13px;"><path class="domain" stroke="currentColor" d="M0.5,0.5V600.5"></path><g class="tick" opacity="1" transform="translate(0,40.740740740740726)" style="font-size: 13px;"><line stroke="currentColor" x2="0"></line><text fill="currentColor" x="-3" dy="0.32em">object (simple)    </text></g><g class="tick" opacity="1" transform="translate(0,114.81481481481481)" style="font-size: 13px;"><line stroke="currentColor" x2="0"></line><text fill="currentColor" x="-3" dy="0.32em">object (hierarchical)    </text></g><g class="tick" opacity="1" transform="translate(0,188.88888888888889)" style="font-size: 13px;"><line stroke="currentColor" x2="0"></line><text fill="currentColor" x="-3" dy="0.32em">object (recursive)    </text></g><g class="tick" opacity="1" transform="translate(0,262.96296296296293)" style="font-size: 13px;"><line stroke="currentColor" x2="0"></line><text fill="currentColor" x="-3" dy="0.32em">object (union, explicit)    </text></g><g class="tick" opacity="1" transform="translate(0,337.037037037037)" style="font-size: 13px;"><line stroke="currentColor" x2="0"></line><text fill="currentColor" x="-3" dy="0.32em">array (simple)    </text></g><g class="tick" opacity="1" transform="translate(0,411.1111111111111)" style="font-size: 13px;"><line stroke="currentColor" x2="0"></line><text fill="currentColor" x="-3" dy="0.32em">array (hierarchical)    </text></g><g class="tick" opacity="1" transform="translate(0,485.18518518518516)" style="font-size: 13px;"><line stroke="currentColor" x2="0"></line><text fill="currentColor" x="-3" dy="0.32em">array (recursive)    </text></g><g class="tick" opacity="1" transform="translate(0,559.2592592592592)" style="font-size: 13px;"><line stroke="currentColor" x2="0"></line><text fill="currentColor" x="-3" dy="0.32em">array (union, explicit)    </text></g></g><g class="x axis" transform="translate(149,645)" fill="none" font-size="10" font-family="sans-serif" text-anchor="middle" style="font-size: 13px;"><path class="domain" stroke="currentColor" d="M0.5,0.5H485.5"></path><g class="tick" opacity="1" transform="translate(0.5,0)" style="font-size: 13px;"><line stroke="currentColor" y2="6"></line><text fill="currentColor" y="9" dy="0.71em">0x</text></g><g class="tick" opacity="1" transform="translate(71.45020782112155,0)" style="font-size: 13px;"><line stroke="currentColor" y2="6"></line><text fill="currentColor" y="9" dy="0.71em">5x</text></g><g class="tick" opacity="1" transform="translate(142.4004156422431,0)" style="font-size: 13px;"><line stroke="currentColor" y2="6"></line><text fill="currentColor" y="9" dy="0.71em">10x</text></g><g class="tick" opacity="1" transform="translate(213.35062346336466,0)" style="font-size: 13px;"><line stroke="currentColor" y2="6"></line><text fill="currentColor" y="9" dy="0.71em">15x</text></g><g class="tick" opacity="1" transform="translate(284.3008312844862,0)" style="font-size: 13px;"><line stroke="currentColor" y2="6"></line><text fill="currentColor" y="9" dy="0.71em">20x</text></g><g class="tick" opacity="1" transform="translate(355.2510391056078,0)" style="font-size: 13px;"><line stroke="currentColor" y2="6"></line><text fill="currentColor" y="9" dy="0.71em">25x</text></g><g class="tick" opacity="1" transform="translate(426.2012469267293,0)" style="font-size: 13px;"><line stroke="currentColor" y2="6"></line><text fill="currentColor" y="9" dy="0.71em">30x</text></g></g><text transform="translate(400, 30)" style="text-anchor: middle; font-size: 20px; font-weight: bold;">performance benchmark</text><rect x="650" y="145" width="230" height="5" fill="gray"></rect><rect x="645" y="35" width="230" height="110" fill="none" stroke="black"></rect><rect x="655" y="45" width="10" height="10" style="fill: #4472c4;"></rect><text x="670" y="55" style="font-size: 12px;">nestia-express</text><rect x="655" y="65" width="10" height="10" style="fill: #ed7d31;"></rect><text x="670" y="75" style="font-size: 12px;">nestia-fastify</text><rect x="655" y="85" width="10" height="10" style="fill: #a5a5a5;"></rect><text x="670" y="95" style="font-size: 12px;">fastify</text><rect x="655" y="105" width="10" height="10" style="fill: #ffc000;"></rect><text x="670" y="115" style="font-size: 12px;">NestJS-express</text><rect x="655" y="125" width="10" height="10" style="fill: #5b9bd5;"></rect><text x="670" y="135" style="font-size: 12px;">NestJS-fastify</text><text x="20" y="709" style="font-size: 12px;">  - CPU: 11th Gen Intel(R) Core(TM) i5-1135G7 @ 2.40GHz</text><text x="20" y="726" style="font-size: 12px;">  - OS: win32</text><text x="20" y="743" style="font-size: 12px;">  - RAM: 16 GB</text><text x="20" y="760" style="font-size: 12px;">  - NodeJS version: v16.20.0</text><text x="20" y="777" style="font-size: 12px;">  - Nestia version: v1.3.8</text><g style="font-size: 13px;"><g style="font-size: 13px;"><rect x="150" y="53.06747341400805" width="121.06959575018749" height="12.541254125412543" fill="#4472c4"></rect><rect x="150" y="66.26879354602124" width="184.19845635253128" height="12.541254125412543" fill="#ed7d31"></rect><rect x="150" y="79.47011367803445" width="169.11813241015622" height="12.541254125412543" fill="#a5a5a5"></rect><rect x="150" y="92.67143381004766" width="14.19004156422431" height="12.541254125412543" fill="#ffc000"></rect><rect x="150" y="105.87275394206085" width="15.029100199706562" height="12.541254125412543" fill="#5b9bd5"></rect><text class="label" x="279.5695957501875" y="61.56747341400805" font-size="10px">8.53x</text><text class="label" x="342.69845635253125" y="74.76879354602124" font-size="10px">12.98x</text><text class="label" x="327.61813241015625" y="87.97011367803445" font-size="10px">11.92x</text><text class="label" x="172.69004156422432" y="101.17143381004766" font-size="10px">1x</text><text class="label" x="173.52910019970656" y="114.37275394206085" font-size="10px">1.06x</text><text class="label" x="276.0695957501875" y="63.06747341400805" font-size="8px"></text><text class="label" x="339.19845635253125" y="76.26879354602124" font-size="8px"></text><text class="label" x="324.11813241015625" y="89.47011367803445" font-size="8px"></text><text class="label" x="169.19004156422432" y="102.67143381004766" font-size="8px"></text><text class="label" x="170.02910019970656" y="115.87275394206085" font-size="8px"></text></g><g style="font-size: 13px;"><rect x="150" y="127.14154748808213" width="115.41165918512864" height="12.541254125412543" fill="#4472c4"></rect><rect x="150" y="140.34286762009532" width="143.34249243564034" height="12.541254125412543" fill="#ed7d31"></rect><rect x="150" y="153.54418775210854" width="115.92233522512211" height="12.541254125412543" fill="#a5a5a5"></rect><rect x="150" y="166.74550788412174" width="14.19004156422431" height="12.541254125412543" fill="#ffc000"></rect><rect x="150" y="179.94682801613493" width="14.767750799365315" height="12.541254125412543" fill="#5b9bd5"></rect><text class="label" x="273.91165918512866" y="135.64154748808213" font-size="10px">8.13x</text><text class="label" x="301.84249243564034" y="148.84286762009532" font-size="10px">10.1x</text><text class="label" x="274.4223352251221" y="162.04418775210854" font-size="10px">8.17x</text><text class="label" x="172.69004156422432" y="175.24550788412174" font-size="10px">1x</text><text class="label" x="173.2677507993653" y="188.44682801613493" font-size="10px">1.04x</text><text class="label" x="270.41165918512866" y="137.14154748808213" font-size="8px"></text><text class="label" x="298.34249243564034" y="150.34286762009532" font-size="8px"></text><text class="label" x="270.9223352251221" y="163.54418775210854" font-size="8px"></text><text class="label" x="169.19004156422432" y="176.74550788412174" font-size="8px"></text><text class="label" x="169.7677507993653" y="189.94682801613493" font-size="8px"></text></g><g style="font-size: 13px;"><rect x="150" y="201.2156215621562" width="134.0192135689679" height="12.541254125412543" fill="#4472c4"></rect><rect x="150" y="214.4169416941694" width="157.793821210378" height="12.541254125412543" fill="#ed7d31"></rect><rect x="150" y="227.61826182618262" width="97.62593560993538" height="12.541254125412543" fill="#a5a5a5"></rect><rect x="150" y="240.8195819581958" width="14.19004156422431" height="12.541254125412543" fill="#ffc000"></rect><rect x="150" y="254.020902090209" width="14.328249243690978" height="12.541254125412543" fill="#5b9bd5"></rect><text class="label" x="292.51921356896787" y="209.7156215621562" font-size="10px">9.44x</text><text class="label" x="316.29382121037804" y="222.9169416941694" font-size="10px">11.12x</text><text class="label" x="256.12593560993537" y="236.11826182618262" font-size="10px">6.88x</text><text class="label" x="172.69004156422432" y="249.3195819581958" font-size="10px">1x</text><text class="label" x="172.82824924369098" y="262.520902090209" font-size="10px">1.01x</text><text class="label" x="289.01921356896787" y="211.2156215621562" font-size="8px"></text><text class="label" x="312.79382121037804" y="224.4169416941694" font-size="8px"></text><text class="label" x="252.62593560993537" y="237.61826182618262" font-size="8px"></text><text class="label" x="169.19004156422432" y="250.8195819581958" font-size="8px"></text><text class="label" x="169.32824924369098" y="264.020902090209" font-size="8px"></text></g><g style="font-size: 13px;"><rect x="150" y="275.28969563623025" width="374.0009495998041" height="12.541254125412543" fill="#4472c4"></rect><rect x="150" y="288.49101576824347" width="440.9090909090908" height="12.541254125412543" fill="#ed7d31"></rect><rect x="150" y="301.6923359002567" width="261.00175143625677" height="12.541254125412543" fill="#a5a5a5"></rect><rect x="150" y="314.89365603226986" width="14.215074930803985" height="12.541254125412543" fill="#ffc000"></rect><rect x="150" y="328.0949761642831" width="14.19004156422431" height="12.541254125412543" fill="#5b9bd5"></rect><text class="label" x="532.500949599804" y="283.78969563623025" font-size="10px">26.36x</text><text class="label" x="599.4090909090908" y="296.99101576824347" font-size="10px">31.07x</text><text class="label" x="419.50175143625677" y="310.1923359002567" font-size="10px">18.39x</text><text class="label" x="172.71507493080398" y="323.39365603226986" font-size="10px">1x</text><text class="label" x="172.69004156422432" y="336.5949761642831" font-size="10px">1x</text><text class="label" x="529.000949599804" y="285.28969563623025" font-size="8px"></text><text class="label" x="595.9090909090908" y="298.49101576824347" font-size="8px"></text><text class="label" x="416.00175143625677" y="311.6923359002567" font-size="8px"></text><text class="label" x="169.21507493080398" y="324.89365603226986" font-size="8px"></text><text class="label" x="169.19004156422432" y="338.0949761642831" font-size="8px"></text></g><g style="font-size: 13px;"><rect x="150" y="349.3637697103044" width="222.68580367349367" height="12.541254125412543" fill="#4472c4"></rect><rect x="150" y="362.56508984231755" width="250.224269855947" height="12.541254125412543" fill="#ed7d31"></rect><rect x="150" y="375.76640997433077" width="255.2574456104058" height="12.541254125412543" fill="#a5a5a5"></rect><rect x="150" y="388.967730106344" width="14.19004156422431" height="12.541254125412543" fill="#ffc000"></rect><rect x="150" y="402.16905023835716" width="15.268582336411303" height="12.541254125412543" fill="#5b9bd5"></rect><text class="label" x="381.18580367349364" y="357.8637697103044" font-size="10px">15.69x</text><text class="label" x="408.724269855947" y="371.06508984231755" font-size="10px">17.63x</text><text class="label" x="413.7574456104058" y="384.26640997433077" font-size="10px">17.99x</text><text class="label" x="172.69004156422432" y="397.467730106344" font-size="10px">1x</text><text class="label" x="173.7685823364113" y="410.66905023835716" font-size="10px">1.08x</text><text class="label" x="377.68580367349364" y="359.3637697103044" font-size="8px"></text><text class="label" x="405.224269855947" y="372.56508984231755" font-size="8px"></text><text class="label" x="410.2574456104058" y="385.76640997433077" font-size="8px"></text><text class="label" x="169.19004156422432" y="398.967730106344" font-size="8px"></text><text class="label" x="170.2685823364113" y="412.16905023835716" font-size="8px"></text></g><g style="font-size: 13px;"><rect x="150" y="423.4378437843784" width="309.8208318620401" height="12.541254125412543" fill="#4472c4"></rect><rect x="150" y="436.6391639163916" width="310.227795622607" height="12.541254125412543" fill="#ed7d31"></rect><rect x="150" y="449.84048404840485" width="218.2100175691313" height="12.541254125412543" fill="#a5a5a5"></rect><rect x="150" y="463.041804180418" width="14.991468253653556" height="12.541254125412543" fill="#ffc000"></rect><rect x="150" y="476.24312431243123" width="14.19004156422431" height="12.541254125412543" fill="#5b9bd5"></rect><text class="label" x="468.3208318620401" y="431.9378437843784" font-size="10px">21.83x</text><text class="label" x="468.727795622607" y="445.1391639163916" font-size="10px">21.86x</text><text class="label" x="376.7100175691313" y="458.34048404840485" font-size="10px">15.38x</text><text class="label" x="173.49146825365355" y="471.541804180418" font-size="10px">1.06x</text><text class="label" x="172.69004156422432" y="484.74312431243123" font-size="10px">1x</text><text class="label" x="464.8208318620401" y="433.4378437843784" font-size="8px"></text><text class="label" x="465.227795622607" y="446.6391639163916" font-size="8px"></text><text class="label" x="373.2100175691313" y="459.84048404840485" font-size="8px"></text><text class="label" x="169.99146825365355" y="473.041804180418" font-size="8px"></text><text class="label" x="169.19004156422432" y="486.24312431243123" font-size="8px"></text></g><g style="font-size: 13px;"><rect x="150" y="497.51191785845253" width="137.11447753821383" height="12.541254125412543" fill="#4472c4"></rect><rect x="150" y="510.7132379904657" width="145.47319774638845" height="12.541254125412543" fill="#ed7d31"></rect><rect x="150" y="523.9145581224789" width="125.60604208057867" height="12.541254125412543" fill="#a5a5a5"></rect><rect x="150" y="537.1158782544921" width="14.463927826255778" height="12.541254125412543" fill="#ffc000"></rect><rect x="150" y="550.3171983865053" width="14.19004156422431" height="12.541254125412543" fill="#5b9bd5"></rect><text class="label" x="295.6144775382138" y="506.01191785845253" font-size="10px">9.66x</text><text class="label" x="303.97319774638845" y="519.2132379904657" font-size="10px">10.25x</text><text class="label" x="284.1060420805787" y="532.4145581224789" font-size="10px">8.85x</text><text class="label" x="172.96392782625577" y="545.6158782544921" font-size="10px">1.02x</text><text class="label" x="172.69004156422432" y="558.8171983865053" font-size="10px">1x</text><text class="label" x="292.1144775382138" y="507.51191785845253" font-size="8px"></text><text class="label" x="300.47319774638845" y="520.7132379904657" font-size="8px"></text><text class="label" x="280.6060420805787" y="533.9145581224789" font-size="8px"></text><text class="label" x="169.46392782625577" y="547.1158782544921" font-size="8px"></text><text class="label" x="169.19004156422432" y="560.3171983865053" font-size="8px"></text></g><g style="font-size: 13px;"><rect x="150" y="571.5859919325266" width="287.7597568121235" height="12.541254125412543" fill="#4472c4"></rect><rect x="150" y="584.7873120645397" width="295.03514473133714" height="12.541254125412543" fill="#ed7d31"></rect><rect x="150" y="597.9886321965529" width="103.22610017119851" height="12.541254125412543" fill="#a5a5a5"></rect><rect x="150" y="611.1899523285662" width="14.19004156422431" height="12.541254125412543" fill="#ffc000"></rect><rect x="150" y="624.3912724605793" width="14.247817489587298" height="12.541254125412543" fill="#5b9bd5"></rect><text class="label" x="446.2597568121235" y="580.0859919325266" font-size="10px">20.28x</text><text class="label" x="453.53514473133714" y="593.2873120645397" font-size="10px">20.79x</text><text class="label" x="261.7261001711985" y="606.4886321965529" font-size="10px">7.27x</text><text class="label" x="172.69004156422432" y="619.6899523285662" font-size="10px">1x</text><text class="label" x="172.7478174895873" y="632.8912724605793" font-size="10px">1x</text><text class="label" x="442.7597568121235" y="581.5859919325266" font-size="8px"></text><text class="label" x="450.03514473133714" y="594.7873120645397" font-size="8px"></text><text class="label" x="258.2261001711985" y="607.9886321965529" font-size="8px"></text><text class="label" x="169.19004156422432" y="621.1899523285662" font-size="8px"></text><text class="label" x="169.2478174895873" y="634.3912724605793" font-size="8px"></text></g></g></svg>