<svg xmlns="http://www.w3.org/2000/svg" xmlns:xlink="http://www.w3.org/1999/xlink" width="800" height="794" style="background-color: white;"><g class="y axis" transform="translate(149,45)" fill="none" font-size="10" font-family="sans-serif" text-anchor="end" style="font-size: 13px;"><path class="domain" stroke="currentColor" d="M0.5,0.5V600.5"></path><g class="tick" opacity="1" transform="translate(0,40.740740740740726)" style="font-size: 13px;"><line stroke="currentColor" x2="0"></line><text fill="currentColor" x="-3" dy="0.32em">object (simple)    </text></g><g class="tick" opacity="1" transform="translate(0,114.81481481481481)" style="font-size: 13px;"><line stroke="currentColor" x2="0"></line><text fill="currentColor" x="-3" dy="0.32em">object (hierarchical)    </text></g><g class="tick" opacity="1" transform="translate(0,188.88888888888889)" style="font-size: 13px;"><line stroke="currentColor" x2="0"></line><text fill="currentColor" x="-3" dy="0.32em">object (recursive)    </text></g><g class="tick" opacity="1" transform="translate(0,262.96296296296293)" style="font-size: 13px;"><line stroke="currentColor" x2="0"></line><text fill="currentColor" x="-3" dy="0.32em">object (union, explicit)    </text></g><g class="tick" opacity="1" transform="translate(0,337.037037037037)" style="font-size: 13px;"><line stroke="currentColor" x2="0"></line><text fill="currentColor" x="-3" dy="0.32em">array (simple)    </text></g><g class="tick" opacity="1" transform="translate(0,411.1111111111111)" style="font-size: 13px;"><line stroke="currentColor" x2="0"></line><text fill="currentColor" x="-3" dy="0.32em">array (hierarchical)    </text></g><g class="tick" opacity="1" transform="translate(0,485.18518518518516)" style="font-size: 13px;"><line stroke="currentColor" x2="0"></line><text fill="currentColor" x="-3" dy="0.32em">array (recursive)    </text></g><g class="tick" opacity="1" transform="translate(0,559.2592592592592)" style="font-size: 13px;"><line stroke="currentColor" x2="0"></line><text fill="currentColor" x="-3" dy="0.32em">array (union, explicit)    </text></g></g><g class="x axis" transform="translate(149,645)" fill="none" font-size="10" font-family="sans-serif" text-anchor="middle" style="font-size: 13px;"><path class="domain" stroke="currentColor" d="M0.5,0.5H485.5"></path><g class="tick" opacity="1" transform="translate(0.5,0)" style="font-size: 13px;"><line stroke="currentColor" y2="6"></line><text fill="currentColor" y="9" dy="0.71em">0x</text></g><g class="tick" opacity="1" transform="translate(124.33157313976398,0)" style="font-size: 13px;"><line stroke="currentColor" y2="6"></line><text fill="currentColor" y="9" dy="0.71em">10x</text></g><g class="tick" opacity="1" transform="translate(248.16314627952795,0)" style="font-size: 13px;"><line stroke="currentColor" y2="6"></line><text fill="currentColor" y="9" dy="0.71em">20x</text></g><g class="tick" opacity="1" transform="translate(371.9947194192919,0)" style="font-size: 13px;"><line stroke="currentColor" y2="6"></line><text fill="currentColor" y="9" dy="0.71em">30x</text></g></g><text transform="translate(400, 30)" style="text-anchor: middle; font-size: 20px; font-weight: bold;">performance benchmark</text><rect x="650" y="145" width="230" height="5" fill="gray"></rect><rect x="645" y="35" width="230" height="110" fill="none" stroke="black"></rect><rect x="655" y="45" width="10" height="10" style="fill: #4472c4;"></rect><text x="670" y="55" style="font-size: 12px;">nestia-express</text><rect x="655" y="65" width="10" height="10" style="fill: #ed7d31;"></rect><text x="670" y="75" style="font-size: 12px;">nestia-fastify</text><rect x="655" y="85" width="10" height="10" style="fill: #a5a5a5;"></rect><text x="670" y="95" style="font-size: 12px;">fastify</text><rect x="655" y="105" width="10" height="10" style="fill: #ffc000;"></rect><text x="670" y="115" style="font-size: 12px;">NestJS-express</text><rect x="655" y="125" width="10" height="10" style="fill: #5b9bd5;"></rect><text x="670" y="135" style="font-size: 12px;">NestJS-fastify</text><text x="20" y="709" style="font-size: 12px;">  - CPU: 11th Gen Intel(R) Core(TM) i5-1135G7 @ 2.40GHz</text><text x="20" y="726" style="font-size: 12px;">  - OS: win32</text><text x="20" y="743" style="font-size: 12px;">  - RAM: 16 GB</text><text x="20" y="760" style="font-size: 12px;">  - NodeJS version: v16.20.0</text><text x="20" y="777" style="font-size: 12px;">  - Nestia version: v1.4.1</text><g style="font-size: 13px;"><g style="font-size: 13px;"><rect x="150" y="53.06747341400805" width="124.05385038408117" height="12.541254125412543" fill="#4472c4"></rect><rect x="150" y="66.26879354602124" width="202.66285125813025" height="12.541254125412543" fill="#ed7d31"></rect><rect x="150" y="79.47011367803445" width="176.90087499029102" height="12.541254125412543" fill="#a5a5a5"></rect><rect x="150" y="92.67143381004766" width="12.383157313976398" height="12.541254125412543" fill="#ffc000"></rect><rect x="150" y="105.87275394206085" width="13.12703568975811" height="12.541254125412543" fill="#5b9bd5"></rect><text class="label" x="282.55385038408116" y="61.56747341400805" font-size="10px">10.02x</text><text class="label" x="361.1628512581302" y="74.76879354602124" font-size="10px">16.37x</text><text class="label" x="335.400874990291" y="87.97011367803445" font-size="10px">14.29x</text><text class="label" x="170.8831573139764" y="101.17143381004766" font-size="10px">1x</text><text class="label" x="171.62703568975812" y="114.37275394206085" font-size="10px">1.06x</text><text class="label" x="279.05385038408116" y="63.06747341400805" font-size="8px"></text><text class="label" x="357.6628512581302" y="76.26879354602124" font-size="8px"></text><text class="label" x="331.900874990291" y="89.47011367803445" font-size="8px"></text><text class="label" x="167.3831573139764" y="102.67143381004766" font-size="8px"></text><text class="label" x="168.12703568975812" y="115.87275394206085" font-size="8px"></text></g><g style="font-size: 13px;"><rect x="150" y="127.14154748808213" width="94.2606376135586" height="12.541254125412543" fill="#4472c4"></rect><rect x="150" y="140.34286762009532" width="123.27519330503975" height="12.541254125412543" fill="#ed7d31"></rect><rect x="150" y="153.54418775210854" width="100.85586329996521" height="12.541254125412543" fill="#a5a5a5"></rect><rect x="150" y="166.74550788412174" width="12.516250378142843" height="12.541254125412543" fill="#ffc000"></rect><rect x="150" y="179.94682801613493" width="12.383157313976398" height="12.541254125412543" fill="#5b9bd5"></rect><text class="label" x="252.7606376135586" y="135.64154748808213" font-size="10px">7.61x</text><text class="label" x="281.77519330503975" y="148.84286762009532" font-size="10px">9.96x</text><text class="label" x="259.3558632999652" y="162.04418775210854" font-size="10px">8.14x</text><text class="label" x="171.01625037814284" y="175.24550788412174" font-size="10px">1.01x</text><text class="label" x="170.8831573139764" y="188.44682801613493" font-size="10px">1x</text><text class="label" x="249.2606376135586" y="137.14154748808213" font-size="8px"></text><text class="label" x="278.27519330503975" y="150.34286762009532" font-size="8px"></text><text class="label" x="255.85586329996522" y="163.54418775210854" font-size="8px"></text><text class="label" x="167.51625037814284" y="176.74550788412174" font-size="8px"></text><text class="label" x="167.3831573139764" y="189.94682801613493" font-size="8px"></text></g><g style="font-size: 13px;"><rect x="150" y="201.2156215621562" width="116.46729864904006" height="12.541254125412543" fill="#4472c4"></rect><rect x="150" y="214.4169416941694" width="132.77042704071366" height="12.541254125412543" fill="#ed7d31"></rect><rect x="150" y="227.61826182618262" width="90.77037611324873" height="12.541254125412543" fill="#a5a5a5"></rect><rect x="150" y="240.8195819581958" width="12.383157313976398" height="12.541254125412543" fill="#ffc000"></rect><rect x="150" y="254.020902090209" width="12.829196842672465" height="12.541254125412543" fill="#5b9bd5"></rect><text class="label" x="274.96729864904006" y="209.7156215621562" font-size="10px">9.41x</text><text class="label" x="291.2704270407137" y="222.9169416941694" font-size="10px">10.72x</text><text class="label" x="249.27037611324874" y="236.11826182618262" font-size="10px">7.33x</text><text class="label" x="170.8831573139764" y="249.3195819581958" font-size="10px">1x</text><text class="label" x="171.32919684267247" y="262.520902090209" font-size="10px">1.04x</text><text class="label" x="271.46729864904006" y="211.2156215621562" font-size="8px"></text><text class="label" x="287.7704270407137" y="224.4169416941694" font-size="8px"></text><text class="label" x="245.77037611324874" y="237.61826182618262" font-size="8px"></text><text class="label" x="167.3831573139764" y="250.8195819581958" font-size="8px"></text><text class="label" x="167.82919684267247" y="264.020902090209" font-size="8px"></text></g><g style="font-size: 13px;"><rect x="150" y="275.28969563623025" width="320.5726893958442" height="12.541254125412543" fill="#4472c4"></rect><rect x="150" y="288.49101576824347" width="410.8577111086308" height="12.541254125412543" fill="#ed7d31"></rect><rect x="150" y="301.6923359002567" width="239.94153590889152" height="12.541254125412543" fill="#a5a5a5"></rect><rect x="150" y="314.89365603226986" width="13.092514181730525" height="12.541254125412543" fill="#ffc000"></rect><rect x="150" y="328.0949761642831" width="12.383157313976398" height="12.541254125412543" fill="#5b9bd5"></rect><text class="label" x="479.0726893958442" y="283.78969563623025" font-size="10px">25.89x</text><text class="label" x="569.3577111086308" y="296.99101576824347" font-size="10px">33.18x</text><text class="label" x="398.4415359088915" y="310.1923359002567" font-size="10px">19.38x</text><text class="label" x="171.59251418173054" y="323.39365603226986" font-size="10px">1.06x</text><text class="label" x="170.8831573139764" y="336.5949761642831" font-size="10px">1x</text><text class="label" x="475.5726893958442" y="285.28969563623025" font-size="8px"></text><text class="label" x="565.8577111086308" y="298.49101576824347" font-size="8px"></text><text class="label" x="394.9415359088915" y="311.6923359002567" font-size="8px"></text><text class="label" x="168.09251418173054" y="324.89365603226986" font-size="8px"></text><text class="label" x="167.3831573139764" y="338.0949761642831" font-size="8px"></text></g><g style="font-size: 13px;"><rect x="150" y="349.3637697103044" width="339.7309641045569" height="12.541254125412543" fill="#4472c4"></rect><rect x="150" y="362.56508984231755" width="397.1837403598369" height="12.541254125412543" fill="#ed7d31"></rect><rect x="150" y="375.76640997433077" width="252.4700636138444" height="12.541254125412543" fill="#a5a5a5"></rect><rect x="150" y="388.967730106344" width="12.383157313976398" height="12.541254125412543" fill="#ffc000"></rect><rect x="150" y="402.16905023835716" width="19.18417026575329" height="12.541254125412543" fill="#5b9bd5"></rect><text class="label" x="498.2309641045569" y="357.8637697103044" font-size="10px">27.43x</text><text class="label" x="555.683740359837" y="371.06508984231755" font-size="10px">32.07x</text><text class="label" x="410.9700636138444" y="384.26640997433077" font-size="10px">20.39x</text><text class="label" x="170.8831573139764" y="397.467730106344" font-size="10px">1x</text><text class="label" x="177.6841702657533" y="410.66905023835716" font-size="10px">1.55x</text><text class="label" x="494.7309641045569" y="359.3637697103044" font-size="8px"></text><text class="label" x="552.183740359837" y="372.56508984231755" font-size="8px"></text><text class="label" x="407.4700636138444" y="385.76640997433077" font-size="8px"></text><text class="label" x="167.3831573139764" y="398.967730106344" font-size="8px"></text><text class="label" x="174.1841702657533" y="412.16905023835716" font-size="8px"></text></g><g style="font-size: 13px;"><rect x="150" y="423.4378437843784" width="437.08363573544966" height="12.541254125412543" fill="#4472c4"></rect><rect x="150" y="436.6391639163916" width="440.9090909090909" height="12.541254125412543" fill="#ed7d31"></rect><rect x="150" y="449.84048404840485" width="159.55406953463446" height="12.541254125412543" fill="#a5a5a5"></rect><rect x="150" y="463.041804180418" width="16.023780830903892" height="12.541254125412543" fill="#ffc000"></rect><rect x="150" y="476.24312431243123" width="12.383157313976398" height="12.541254125412543" fill="#5b9bd5"></rect><text class="label" x="595.5836357354497" y="431.9378437843784" font-size="10px">35.3x</text><text class="label" x="599.4090909090909" y="445.1391639163916" font-size="10px">35.61x</text><text class="label" x="318.05406953463444" y="458.34048404840485" font-size="10px">12.88x</text><text class="label" x="174.5237808309039" y="471.541804180418" font-size="10px">1.29x</text><text class="label" x="170.8831573139764" y="484.74312431243123" font-size="10px">1x</text><text class="label" x="592.0836357354497" y="433.4378437843784" font-size="8px"></text><text class="label" x="595.9090909090909" y="446.6391639163916" font-size="8px"></text><text class="label" x="314.55406953463444" y="459.84048404840485" font-size="8px"></text><text class="label" x="171.0237808309039" y="473.041804180418" font-size="8px"></text><text class="label" x="167.3831573139764" y="486.24312431243123" font-size="8px"></text></g><g style="font-size: 13px;"><rect x="150" y="497.51191785845253" width="129.9402300404292" height="12.541254125412543" fill="#4472c4"></rect><rect x="150" y="510.7132379904657" width="130.55963522904224" height="12.541254125412543" fill="#ed7d31"></rect><rect x="150" y="523.9145581224789" width="113.61572306712294" height="12.541254125412543" fill="#a5a5a5"></rect><rect x="150" y="537.1158782544921" width="14.61051552596918" height="12.541254125412543" fill="#ffc000"></rect><rect x="150" y="550.3171983865053" width="12.383157313976398" height="12.541254125412543" fill="#5b9bd5"></rect><text class="label" x="288.44023004042924" y="506.01191785845253" font-size="10px">10.49x</text><text class="label" x="289.0596352290422" y="519.2132379904657" font-size="10px">10.54x</text><text class="label" x="272.11572306712293" y="532.4145581224789" font-size="10px">9.18x</text><text class="label" x="173.1105155259692" y="545.6158782544921" font-size="10px">1.18x</text><text class="label" x="170.8831573139764" y="558.8171983865053" font-size="10px">1x</text><text class="label" x="284.94023004042924" y="507.51191785845253" font-size="8px"></text><text class="label" x="285.5596352290422" y="520.7132379904657" font-size="8px"></text><text class="label" x="268.61572306712293" y="533.9145581224789" font-size="8px"></text><text class="label" x="169.6105155259692" y="547.1158782544921" font-size="8px"></text><text class="label" x="167.3831573139764" y="560.3171983865053" font-size="8px"></text></g><g style="font-size: 13px;"><rect x="150" y="571.5859919325266" width="248.73712147525998" height="12.541254125412543" fill="#4472c4"></rect><rect x="150" y="584.7873120645397" width="256.03459541615445" height="12.541254125412543" fill="#ed7d31"></rect><rect x="150" y="597.9886321965529" width="86.75045601464195" height="12.541254125412543" fill="#a5a5a5"></rect><rect x="150" y="611.1899523285662" width="12.718088988706432" height="12.541254125412543" fill="#ffc000"></rect><rect x="150" y="624.3912724605793" width="12.383157313976398" height="12.541254125412543" fill="#5b9bd5"></rect><text class="label" x="407.23712147526" y="580.0859919325266" font-size="10px">20.09x</text><text class="label" x="414.53459541615445" y="593.2873120645397" font-size="10px">20.68x</text><text class="label" x="245.25045601464194" y="606.4886321965529" font-size="10px">7.01x</text><text class="label" x="171.21808898870643" y="619.6899523285662" font-size="10px">1.03x</text><text class="label" x="170.8831573139764" y="632.8912724605793" font-size="10px">1x</text><text class="label" x="403.73712147526" y="581.5859919325266" font-size="8px"></text><text class="label" x="411.03459541615445" y="594.7873120645397" font-size="8px"></text><text class="label" x="241.75045601464194" y="607.9886321965529" font-size="8px"></text><text class="label" x="167.71808898870643" y="621.1899523285662" font-size="8px"></text><text class="label" x="167.3831573139764" y="634.3912724605793" font-size="8px"></text></g></g></svg>