<svg xmlns="http://www.w3.org/2000/svg" xmlns:xlink="http://www.w3.org/1999/xlink" width="800" height="794" style="background-color: white;"><g class="y axis" transform="translate(149,45)" fill="none" font-size="10" font-family="sans-serif" text-anchor="end" style="font-size: 13px;"><path class="domain" stroke="currentColor" d="M0.5,0.5V600.5"></path><g class="tick" opacity="1" transform="translate(0,40.740740740740726)" style="font-size: 13px;"><line stroke="currentColor" x2="0"></line><text fill="currentColor" x="-3" dy="0.32em">object (simple)    </text></g><g class="tick" opacity="1" transform="translate(0,114.81481481481481)" style="font-size: 13px;"><line stroke="currentColor" x2="0"></line><text fill="currentColor" x="-3" dy="0.32em">object (hierarchical)    </text></g><g class="tick" opacity="1" transform="translate(0,188.88888888888889)" style="font-size: 13px;"><line stroke="currentColor" x2="0"></line><text fill="currentColor" x="-3" dy="0.32em">object (recursive)    </text></g><g class="tick" opacity="1" transform="translate(0,262.96296296296293)" style="font-size: 13px;"><line stroke="currentColor" x2="0"></line><text fill="currentColor" x="-3" dy="0.32em">object (union, explicit)    </text></g><g class="tick" opacity="1" transform="translate(0,337.037037037037)" style="font-size: 13px;"><line stroke="currentColor" x2="0"></line><text fill="currentColor" x="-3" dy="0.32em">array (simple)    </text></g><g class="tick" opacity="1" transform="translate(0,411.1111111111111)" style="font-size: 13px;"><line stroke="currentColor" x2="0"></line><text fill="currentColor" x="-3" dy="0.32em">array (hierarchical)    </text></g><g class="tick" opacity="1" transform="translate(0,485.18518518518516)" style="font-size: 13px;"><line stroke="currentColor" x2="0"></line><text fill="currentColor" x="-3" dy="0.32em">array (recursive)    </text></g><g class="tick" opacity="1" transform="translate(0,559.2592592592592)" style="font-size: 13px;"><line stroke="currentColor" x2="0"></line><text fill="currentColor" x="-3" dy="0.32em">array (union, explicit)    </text></g></g><g class="x axis" transform="translate(149,645)" fill="none" font-size="10" font-family="sans-serif" text-anchor="middle" style="font-size: 13px;"><path class="domain" stroke="currentColor" d="M0.5,0.5H485.5"></path><g class="tick" opacity="1" transform="translate(0.5,0)" style="font-size: 13px;"><line stroke="currentColor" y2="6"></line><text fill="currentColor" y="9" dy="0.71em">0x</text></g><g class="tick" opacity="1" transform="translate(97.78120209564493,0)" style="font-size: 13px;"><line stroke="currentColor" y2="6"></line><text fill="currentColor" y="9" dy="0.71em">20x</text></g><g class="tick" opacity="1" transform="translate(195.06240419128986,0)" style="font-size: 13px;"><line stroke="currentColor" y2="6"></line><text fill="currentColor" y="9" dy="0.71em">40x</text></g><g class="tick" opacity="1" transform="translate(292.34360628693474,0)" style="font-size: 13px;"><line stroke="currentColor" y2="6"></line><text fill="currentColor" y="9" dy="0.71em">60x</text></g><g class="tick" opacity="1" transform="translate(389.6248083825797,0)" style="font-size: 13px;"><line stroke="currentColor" y2="6"></line><text fill="currentColor" y="9" dy="0.71em">80x</text></g></g><text transform="translate(400, 30)" style="text-anchor: middle; font-size: 20px; font-weight: bold;">stringify benchmark</text><rect x="650" y="145" width="230" height="5" fill="gray"></rect><rect x="645" y="35" width="230" height="110" fill="none" stroke="black"></rect><rect x="655" y="45" width="10" height="10" style="fill: #4472c4;"></rect><text x="670" y="55" style="font-size: 12px;">nestia-express</text><rect x="655" y="65" width="10" height="10" style="fill: #ed7d31;"></rect><text x="670" y="75" style="font-size: 12px;">nestia-fastify</text><rect x="655" y="85" width="10" height="10" style="fill: #a5a5a5;"></rect><text x="670" y="95" style="font-size: 12px;">NestJS-express</text><rect x="655" y="105" width="10" height="10" style="fill: #ffc000;"></rect><text x="670" y="115" style="font-size: 12px;">NestJS-fastify</text><rect x="655" y="125" width="10" height="10" style="fill: #5b9bd5;"></rect><text x="670" y="135" style="font-size: 12px;">fastify</text><text x="20" y="709" style="font-size: 12px;">  - CPU: 11th Gen Intel(R) Core(TM) i5-1135G7 @ 2.40GHz</text><text x="20" y="726" style="font-size: 12px;">  - OS: win32</text><text x="20" y="743" style="font-size: 12px;">  - RAM: 16 GB</text><text x="20" y="760" style="font-size: 12px;">  - NodeJS version: v16.20.0</text><text x="20" y="777" style="font-size: 12px;">  - Nestia version: v1.3.8</text><g style="font-size: 13px;"><g style="font-size: 13px;"><rect x="150" y="53.06747341400805" width="125.3651735568754" height="12.541254125412543" fill="#4472c4"></rect><rect x="150" y="66.26879354602124" width="263.14278244017385" height="12.541254125412543" fill="#ed7d31"></rect><rect x="150" y="79.47011367803445" width="16.654938987680808" height="12.541254125412543" fill="#a5a5a5"></rect><rect x="150" y="92.67143381004766" width="15.809905277301207" height="12.541254125412543" fill="#ffc000"></rect><rect x="150" y="105.87275394206085" width="4.864060104782247" height="12.541254125412543" fill="#5b9bd5"></rect><text class="label" x="283.8651735568754" y="61.56747341400805" font-size="10px">25.77x</text><text class="label" x="421.64278244017385" y="74.76879354602124" font-size="10px">54.1x</text><text class="label" x="175.1549389876808" y="87.97011367803445" font-size="10px">3.42x</text><text class="label" x="174.3099052773012" y="101.17143381004766" font-size="10px">3.25x</text><text class="label" x="163.36406010478225" y="114.37275394206085" font-size="10px">1x</text><text class="label" x="280.3651735568754" y="63.06747341400805" font-size="8px"></text><text class="label" x="418.14278244017385" y="76.26879354602124" font-size="8px"></text><text class="label" x="171.6549389876808" y="89.47011367803445" font-size="8px"></text><text class="label" x="170.8099052773012" y="102.67143381004766" font-size="8px"></text><text class="label" x="159.86406010478225" y="115.87275394206085" font-size="8px"></text></g><g style="font-size: 13px;"><rect x="150" y="127.14154748808213" width="339.9107492537088" height="12.541254125412543" fill="#4472c4"></rect><rect x="150" y="140.34286762009532" width="375.3810226654312" height="12.541254125412543" fill="#ed7d31"></rect><rect x="150" y="153.54418775210854" width="33.107203264510424" height="12.541254125412543" fill="#a5a5a5"></rect><rect x="150" y="166.74550788412174" width="40.611325602300184" height="12.541254125412543" fill="#ffc000"></rect><rect x="150" y="179.94682801613493" width="4.864060104782247" height="12.541254125412543" fill="#5b9bd5"></rect><text class="label" x="498.4107492537088" y="135.64154748808213" font-size="10px">69.88x</text><text class="label" x="533.8810226654311" y="148.84286762009532" font-size="10px">77.17x</text><text class="label" x="191.60720326451042" y="162.04418775210854" font-size="10px">6.81x</text><text class="label" x="199.11132560230018" y="175.24550788412174" font-size="10px">8.35x</text><text class="label" x="163.36406010478225" y="188.44682801613493" font-size="10px">1x</text><text class="label" x="494.9107492537088" y="137.14154748808213" font-size="8px"></text><text class="label" x="530.3810226654311" y="150.34286762009532" font-size="8px"></text><text class="label" x="188.10720326451042" y="163.54418775210854" font-size="8px"></text><text class="label" x="195.61132560230018" y="176.74550788412174" font-size="8px"></text><text class="label" x="159.86406010478225" y="189.94682801613493" font-size="8px"></text></g><g style="font-size: 13px;"><rect x="150" y="201.2156215621562" width="328.58158694245816" height="12.541254125412543" fill="#4472c4"></rect><rect x="150" y="214.4169416941694" width="440.9090909090909" height="12.541254125412543" fill="#ed7d31"></rect><rect x="150" y="227.61826182618262" width="30.723654386926476" height="12.541254125412543" fill="#a5a5a5"></rect><rect x="150" y="240.8195819581958" width="32.17348553280552" height="12.541254125412543" fill="#ffc000"></rect><rect x="150" y="254.020902090209" width="4.864060104782247" height="12.541254125412543" fill="#5b9bd5"></rect><text class="label" x="487.08158694245816" y="209.7156215621562" font-size="10px">67.55x</text><text class="label" x="599.4090909090909" y="222.9169416941694" font-size="10px">90.65x</text><text class="label" x="189.22365438692648" y="236.11826182618262" font-size="10px">6.32x</text><text class="label" x="190.67348553280553" y="249.3195819581958" font-size="10px">6.61x</text><text class="label" x="163.36406010478225" y="262.520902090209" font-size="10px">1x</text><text class="label" x="483.58158694245816" y="211.2156215621562" font-size="8px"></text><text class="label" x="595.9090909090909" y="224.4169416941694" font-size="8px"></text><text class="label" x="185.72365438692648" y="237.61826182618262" font-size="8px"></text><text class="label" x="187.17348553280553" y="250.8195819581958" font-size="8px"></text><text class="label" x="159.86406010478225" y="264.020902090209" font-size="8px"></text></g><g style="font-size: 13px;"><rect x="150" y="275.28969563623025" width="219.07738853338827" height="12.541254125412543" fill="#4472c4"></rect><rect x="150" y="288.49101576824347" width="259.6552775111673" height="12.541254125412543" fill="#ed7d31"></rect><rect x="150" y="301.6923359002567" width="14.382774603406855" height="12.541254125412543" fill="#a5a5a5"></rect><rect x="150" y="314.89365603226986" width="14.668570587448857" height="12.541254125412543" fill="#ffc000"></rect><rect x="150" y="328.0949761642831" width="4.864060104782247" height="12.541254125412543" fill="#5b9bd5"></rect><text class="label" x="377.5773885333883" y="283.78969563623025" font-size="10px">45.04x</text><text class="label" x="418.1552775111673" y="296.99101576824347" font-size="10px">53.38x</text><text class="label" x="172.88277460340686" y="310.1923359002567" font-size="10px">2.96x</text><text class="label" x="173.16857058744887" y="323.39365603226986" font-size="10px">3.02x</text><text class="label" x="163.36406010478225" y="336.5949761642831" font-size="10px">1x</text><text class="label" x="374.0773885333883" y="285.28969563623025" font-size="8px"></text><text class="label" x="414.6552775111673" y="298.49101576824347" font-size="8px"></text><text class="label" x="169.38277460340686" y="311.6923359002567" font-size="8px"></text><text class="label" x="169.66857058744887" y="324.89365603226986" font-size="8px"></text><text class="label" x="159.86406010478225" y="338.0949761642831" font-size="8px"></text></g><g style="font-size: 13px;"><rect x="150" y="349.3637697103044" width="223.03166627809958" height="12.541254125412543" fill="#4472c4"></rect><rect x="150" y="362.56508984231755" width="266.128535460807" height="12.541254125412543" fill="#ed7d31"></rect><rect x="150" y="375.76640997433077" width="31.078202264571" height="12.541254125412543" fill="#a5a5a5"></rect><rect x="150" y="388.967730106344" width="30.932973694326893" height="12.541254125412543" fill="#ffc000"></rect><rect x="150" y="402.16905023835716" width="4.864060104782247" height="12.541254125412543" fill="#5b9bd5"></rect><text class="label" x="381.5316662780996" y="357.8637697103044" font-size="10px">45.85x</text><text class="label" x="424.628535460807" y="371.06508984231755" font-size="10px">54.71x</text><text class="label" x="189.578202264571" y="384.26640997433077" font-size="10px">6.39x</text><text class="label" x="189.4329736943269" y="397.467730106344" font-size="10px">6.36x</text><text class="label" x="163.36406010478225" y="410.66905023835716" font-size="10px">1x</text><text class="label" x="378.0316662780996" y="359.3637697103044" font-size="8px"></text><text class="label" x="421.128535460807" y="372.56508984231755" font-size="8px"></text><text class="label" x="186.078202264571" y="385.76640997433077" font-size="8px"></text><text class="label" x="185.9329736943269" y="398.967730106344" font-size="8px"></text><text class="label" x="159.86406010478225" y="412.16905023835716" font-size="8px"></text></g><g style="font-size: 13px;"><rect x="150" y="423.4378437843784" width="304.9369632587624" height="12.541254125412543" fill="#4472c4"></rect><rect x="150" y="436.6391639163916" width="316.7013847892512" height="12.541254125412543" fill="#ed7d31"></rect><rect x="150" y="449.84048404840485" width="26.422890967414737" height="12.541254125412543" fill="#a5a5a5"></rect><rect x="150" y="463.041804180418" width="26.48792975933223" height="12.541254125412543" fill="#ffc000"></rect><rect x="150" y="476.24312431243123" width="4.864060104782247" height="12.541254125412543" fill="#5b9bd5"></rect><text class="label" x="463.4369632587624" y="431.9378437843784" font-size="10px">62.69x</text><text class="label" x="475.2013847892512" y="445.1391639163916" font-size="10px">65.11x</text><text class="label" x="184.92289096741473" y="458.34048404840485" font-size="10px">5.43x</text><text class="label" x="184.98792975933222" y="471.541804180418" font-size="10px">5.45x</text><text class="label" x="163.36406010478225" y="484.74312431243123" font-size="10px">1x</text><text class="label" x="459.9369632587624" y="433.4378437843784" font-size="8px"></text><text class="label" x="471.7013847892512" y="446.6391639163916" font-size="8px"></text><text class="label" x="181.42289096741473" y="459.84048404840485" font-size="8px"></text><text class="label" x="181.48792975933222" y="473.041804180418" font-size="8px"></text><text class="label" x="159.86406010478225" y="486.24312431243123" font-size="8px"></text></g><g style="font-size: 13px;"><rect x="150" y="497.51191785845253" width="286.3992381533007" height="12.541254125412543" fill="#4472c4"></rect><rect x="150" y="510.7132379904657" width="300.8554780339637" height="12.541254125412543" fill="#ed7d31"></rect><rect x="150" y="523.9145581224789" width="29.20324110735204" height="12.541254125412543" fill="#a5a5a5"></rect><rect x="150" y="537.1158782544921" width="29.171292470120473" height="12.541254125412543" fill="#ffc000"></rect><rect x="150" y="550.3171983865053" width="4.864060104782247" height="12.541254125412543" fill="#5b9bd5"></rect><text class="label" x="444.8992381533007" y="506.01191785845253" font-size="10px">58.88x</text><text class="label" x="459.3554780339637" y="519.2132379904657" font-size="10px">61.85x</text><text class="label" x="187.70324110735203" y="532.4145581224789" font-size="10px">6x</text><text class="label" x="187.67129247012048" y="545.6158782544921" font-size="10px">6x</text><text class="label" x="163.36406010478225" y="558.8171983865053" font-size="10px">1x</text><text class="label" x="441.3992381533007" y="507.51191785845253" font-size="8px"></text><text class="label" x="455.8554780339637" y="520.7132379904657" font-size="8px"></text><text class="label" x="184.20324110735203" y="533.9145581224789" font-size="8px"></text><text class="label" x="184.17129247012048" y="547.1158782544921" font-size="8px"></text><text class="label" x="159.86406010478225" y="560.3171983865053" font-size="8px"></text></g><g style="font-size: 13px;"><rect x="150" y="571.5859919325266" width="242.1606696833171" height="12.541254125412543" fill="#4472c4"></rect><rect x="150" y="584.7873120645397" width="267.17928508066313" height="12.541254125412543" fill="#ed7d31"></rect><rect x="150" y="597.9886321965529" width="31.4260992253395" height="12.541254125412543" fill="#a5a5a5"></rect><rect x="150" y="611.1899523285662" width="31.58571146602916" height="12.541254125412543" fill="#ffc000"></rect><rect x="150" y="624.3912724605793" width="4.864060104782247" height="12.541254125412543" fill="#5b9bd5"></rect><text class="label" x="400.6606696833171" y="580.0859919325266" font-size="10px">49.79x</text><text class="label" x="425.67928508066313" y="593.2873120645397" font-size="10px">54.93x</text><text class="label" x="189.9260992253395" y="606.4886321965529" font-size="10px">6.46x</text><text class="label" x="190.08571146602915" y="619.6899523285662" font-size="10px">6.49x</text><text class="label" x="163.36406010478225" y="632.8912724605793" font-size="10px">1x</text><text class="label" x="397.1606696833171" y="581.5859919325266" font-size="8px"></text><text class="label" x="422.17928508066313" y="594.7873120645397" font-size="8px"></text><text class="label" x="186.4260992253395" y="607.9886321965529" font-size="8px"></text><text class="label" x="186.58571146602915" y="621.1899523285662" font-size="8px"></text><text class="label" x="159.86406010478225" y="634.3912724605793" font-size="8px"></text></g></g></svg>