<svg xmlns="http://www.w3.org/2000/svg" xmlns:xlink="http://www.w3.org/1999/xlink" width="800" height="794" style="background-color: white;"><g class="y axis" transform="translate(149,45)" fill="none" font-size="10" font-family="sans-serif" text-anchor="end" style="font-size: 13px;"><path class="domain" stroke="currentColor" d="M0.5,0.5V600.5"></path><g class="tick" opacity="1" transform="translate(0,40.740740740740726)" style="font-size: 13px;"><line stroke="currentColor" x2="0"></line><text fill="currentColor" x="-3" dy="0.32em">object (simple)    </text></g><g class="tick" opacity="1" transform="translate(0,114.81481481481481)" style="font-size: 13px;"><line stroke="currentColor" x2="0"></line><text fill="currentColor" x="-3" dy="0.32em">object (hierarchical)    </text></g><g class="tick" opacity="1" transform="translate(0,188.88888888888889)" style="font-size: 13px;"><line stroke="currentColor" x2="0"></line><text fill="currentColor" x="-3" dy="0.32em">object (recursive)    </text></g><g class="tick" opacity="1" transform="translate(0,262.96296296296293)" style="font-size: 13px;"><line stroke="currentColor" x2="0"></line><text fill="currentColor" x="-3" dy="0.32em">object (union, explicit)    </text></g><g class="tick" opacity="1" transform="translate(0,337.037037037037)" style="font-size: 13px;"><line stroke="currentColor" x2="0"></line><text fill="currentColor" x="-3" dy="0.32em">array (simple)    </text></g><g class="tick" opacity="1" transform="translate(0,411.1111111111111)" style="font-size: 13px;"><line stroke="currentColor" x2="0"></line><text fill="currentColor" x="-3" dy="0.32em">array (hierarchical)    </text></g><g class="tick" opacity="1" transform="translate(0,485.18518518518516)" style="font-size: 13px;"><line stroke="currentColor" x2="0"></line><text fill="currentColor" x="-3" dy="0.32em">array (recursive)    </text></g><g class="tick" opacity="1" transform="translate(0,559.2592592592592)" style="font-size: 13px;"><line stroke="currentColor" x2="0"></line><text fill="currentColor" x="-3" dy="0.32em">array (union, explicit)    </text></g></g><g class="x axis" transform="translate(149,645)" fill="none" font-size="10" font-family="sans-serif" text-anchor="middle" style="font-size: 13px;"><path class="domain" stroke="currentColor" d="M0.5,0.5H485.5"></path><g class="tick" opacity="1" transform="translate(0.5,0)" style="font-size: 13px;"><line stroke="currentColor" y2="6"></line><text fill="currentColor" y="9" dy="0.71em">0x</text></g><g class="tick" opacity="1" transform="translate(119.83513115532423,0)" style="font-size: 13px;"><line stroke="currentColor" y2="6"></line><text fill="currentColor" y="9" dy="0.71em">5x</text></g><g class="tick" opacity="1" transform="translate(239.17026231064847,0)" style="font-size: 13px;"><line stroke="currentColor" y2="6"></line><text fill="currentColor" y="9" dy="0.71em">10x</text></g><g class="tick" opacity="1" transform="translate(358.50539346597276,0)" style="font-size: 13px;"><line stroke="currentColor" y2="6"></line><text fill="currentColor" y="9" dy="0.71em">15x</text></g><g class="tick" opacity="1" transform="translate(477.84052462129694,0)" style="font-size: 13px;"><line stroke="currentColor" y2="6"></line><text fill="currentColor" y="9" dy="0.71em">20x</text></g></g><text transform="translate(400, 30)" style="text-anchor: middle; font-size: 20px; font-weight: bold;">stringify benchmark</text><rect x="650" y="145" width="230" height="5" fill="gray"></rect><rect x="645" y="35" width="230" height="110" fill="none" stroke="black"></rect><rect x="655" y="45" width="10" height="10" style="fill: #4472c4;"></rect><text x="670" y="55" style="font-size: 12px;">nestia-express</text><rect x="655" y="65" width="10" height="10" style="fill: #ed7d31;"></rect><text x="670" y="75" style="font-size: 12px;">nestia-fastify</text><rect x="655" y="85" width="10" height="10" style="fill: #a5a5a5;"></rect><text x="670" y="95" style="font-size: 12px;">fastify</text><rect x="655" y="105" width="10" height="10" style="fill: #ffc000;"></rect><text x="670" y="115" style="font-size: 12px;">NestJS-express</text><rect x="655" y="125" width="10" height="10" style="fill: #5b9bd5;"></rect><text x="670" y="135" style="font-size: 12px;">NestJS-fastify</text><text x="20" y="709" style="font-size: 12px;">  - CPU: 11th Gen Intel(R) Core(TM) i5-1135G7 @ 2.40GHz</text><text x="20" y="726" style="font-size: 12px;">  - OS: win32</text><text x="20" y="743" style="font-size: 12px;">  - RAM: 16 GB</text><text x="20" y="760" style="font-size: 12px;">  - NodeJS version: v16.20.0</text><text x="20" y="777" style="font-size: 12px;">  - Nestia version: v1.3.8</text><g style="font-size: 13px;"><g style="font-size: 13px;"><rect x="150" y="53.06747341400805" width="187.2402262112908" height="12.541254125412543" fill="#4472c4"></rect><rect x="150" y="66.26879354602124" width="412.17697721512644" height="12.541254125412543" fill="#ed7d31"></rect><rect x="150" y="79.47011367803445" width="332.09264635106274" height="12.541254125412543" fill="#a5a5a5"></rect><rect x="150" y="92.67143381004766" width="23.867026231064845" height="12.541254125412543" fill="#ffc000"></rect><rect x="150" y="105.87275394206085" width="26.33462803756818" height="12.541254125412543" fill="#5b9bd5"></rect><text class="label" x="345.7402262112908" y="61.56747341400805" font-size="10px">7.85x</text><text class="label" x="570.6769772151265" y="74.76879354602124" font-size="10px">17.27x</text><text class="label" x="490.59264635106274" y="87.97011367803445" font-size="10px">13.91x</text><text class="label" x="182.36702623106484" y="101.17143381004766" font-size="10px">1x</text><text class="label" x="184.83462803756817" y="114.37275394206085" font-size="10px">1.1x</text><text class="label" x="342.2402262112908" y="63.06747341400805" font-size="8px"></text><text class="label" x="567.1769772151265" y="76.26879354602124" font-size="8px"></text><text class="label" x="487.09264635106274" y="89.47011367803445" font-size="8px"></text><text class="label" x="178.86702623106484" y="102.67143381004766" font-size="8px"></text><text class="label" x="181.33462803756817" y="115.87275394206085" font-size="8px"></text></g><g style="font-size: 13px;"><rect x="150" y="127.14154748808213" width="207.80400756488768" height="12.541254125412543" fill="#4472c4"></rect><rect x="150" y="140.34286762009532" width="290.3214885518976" height="12.541254125412543" fill="#ed7d31"></rect><rect x="150" y="153.54418775210854" width="227.60559234905392" height="12.541254125412543" fill="#a5a5a5"></rect><rect x="150" y="166.74550788412174" width="23.867026231064845" height="12.541254125412543" fill="#ffc000"></rect><rect x="150" y="179.94682801613493" width="24.79298962445578" height="12.541254125412543" fill="#5b9bd5"></rect><text class="label" x="366.3040075648877" y="135.64154748808213" font-size="10px">8.71x</text><text class="label" x="448.8214885518976" y="148.84286762009532" font-size="10px">12.16x</text><text class="label" x="386.10559234905395" y="162.04418775210854" font-size="10px">9.54x</text><text class="label" x="182.36702623106484" y="175.24550788412174" font-size="10px">1x</text><text class="label" x="183.29298962445577" y="188.44682801613493" font-size="10px">1.04x</text><text class="label" x="362.8040075648877" y="137.14154748808213" font-size="8px"></text><text class="label" x="445.3214885518976" y="150.34286762009532" font-size="8px"></text><text class="label" x="382.60559234905395" y="163.54418775210854" font-size="8px"></text><text class="label" x="178.86702623106484" y="176.74550788412174" font-size="8px"></text><text class="label" x="179.79298962445577" y="189.94682801613493" font-size="8px"></text></g><g style="font-size: 13px;"><rect x="150" y="201.2156215621562" width="252.0349761933253" height="12.541254125412543" fill="#4472c4"></rect><rect x="150" y="214.4169416941694" width="316.58106123345544" height="12.541254125412543" fill="#ed7d31"></rect><rect x="150" y="227.61826182618262" width="127.94963598602425" height="12.541254125412543" fill="#a5a5a5"></rect><rect x="150" y="240.8195819581958" width="23.867026231064845" height="12.541254125412543" fill="#ffc000"></rect><rect x="150" y="254.020902090209" width="24.184544098051468" height="12.541254125412543" fill="#5b9bd5"></rect><text class="label" x="410.5349761933253" y="209.7156215621562" font-size="10px">10.56x</text><text class="label" x="475.08106123345544" y="222.9169416941694" font-size="10px">13.26x</text><text class="label" x="286.44963598602425" y="236.11826182618262" font-size="10px">5.36x</text><text class="label" x="182.36702623106484" y="249.3195819581958" font-size="10px">1x</text><text class="label" x="182.68454409805148" y="262.520902090209" font-size="10px">1.01x</text><text class="label" x="407.0349761933253" y="211.2156215621562" font-size="8px"></text><text class="label" x="471.58106123345544" y="224.4169416941694" font-size="8px"></text><text class="label" x="282.94963598602425" y="237.61826182618262" font-size="8px"></text><text class="label" x="178.86702623106484" y="250.8195819581958" font-size="8px"></text><text class="label" x="179.18454409805148" y="264.020902090209" font-size="8px"></text></g><g style="font-size: 13px;"><rect x="150" y="275.28969563623025" width="375.55737052189784" height="12.541254125412543" fill="#4472c4"></rect><rect x="150" y="288.49101576824347" width="440.9090909090909" height="12.541254125412543" fill="#ed7d31"></rect><rect x="150" y="301.6923359002567" width="241.83706623652193" height="12.541254125412543" fill="#a5a5a5"></rect><rect x="150" y="314.89365603226986" width="23.867026231064845" height="12.541254125412543" fill="#ffc000"></rect><rect x="150" y="328.0949761642831" width="24.31668229071716" height="12.541254125412543" fill="#5b9bd5"></rect><text class="label" x="534.0573705218978" y="283.78969563623025" font-size="10px">15.74x</text><text class="label" x="599.4090909090909" y="296.99101576824347" font-size="10px">18.47x</text><text class="label" x="400.33706623652193" y="310.1923359002567" font-size="10px">10.13x</text><text class="label" x="182.36702623106484" y="323.39365603226986" font-size="10px">1x</text><text class="label" x="182.81668229071715" y="336.5949761642831" font-size="10px">1.02x</text><text class="label" x="530.5573705218978" y="285.28969563623025" font-size="8px"></text><text class="label" x="595.9090909090909" y="298.49101576824347" font-size="8px"></text><text class="label" x="396.83706623652193" y="311.6923359002567" font-size="8px"></text><text class="label" x="178.86702623106484" y="324.89365603226986" font-size="8px"></text><text class="label" x="179.31668229071715" y="338.0949761642831" font-size="8px"></text></g><g style="font-size: 13px;"><rect x="150" y="349.3637697103044" width="173.22488122220017" height="12.541254125412543" fill="#4472c4"></rect><rect x="150" y="362.56508984231755" width="228.74243026754786" height="12.541254125412543" fill="#ed7d31"></rect><rect x="150" y="375.76640997433077" width="172.06547836197566" height="12.541254125412543" fill="#a5a5a5"></rect><rect x="150" y="388.967730106344" width="23.867026231064845" height="12.541254125412543" fill="#ffc000"></rect><rect x="150" y="402.16905023835716" width="24.612650575829175" height="12.541254125412543" fill="#5b9bd5"></rect><text class="label" x="331.72488122220017" y="357.8637697103044" font-size="10px">7.26x</text><text class="label" x="387.2424302675479" y="371.06508984231755" font-size="10px">9.58x</text><text class="label" x="330.5654783619757" y="384.26640997433077" font-size="10px">7.21x</text><text class="label" x="182.36702623106484" y="397.467730106344" font-size="10px">1x</text><text class="label" x="183.11265057582918" y="410.66905023835716" font-size="10px">1.03x</text><text class="label" x="328.22488122220017" y="359.3637697103044" font-size="8px"></text><text class="label" x="383.7424302675479" y="372.56508984231755" font-size="8px"></text><text class="label" x="327.0654783619757" y="385.76640997433077" font-size="8px"></text><text class="label" x="178.86702623106484" y="398.967730106344" font-size="8px"></text><text class="label" x="179.61265057582918" y="412.16905023835716" font-size="8px"></text></g><g style="font-size: 13px;"><rect x="150" y="423.4378437843784" width="290.5894034675433" height="12.541254125412543" fill="#4472c4"></rect><rect x="150" y="436.6391639163916" width="292.3947040393596" height="12.541254125412543" fill="#ed7d31"></rect><rect x="150" y="449.84048404840485" width="131.94892771811826" height="12.541254125412543" fill="#a5a5a5"></rect><rect x="150" y="463.041804180418" width="24.162348570040216" height="12.541254125412543" fill="#ffc000"></rect><rect x="150" y="476.24312431243123" width="23.867026231064845" height="12.541254125412543" fill="#5b9bd5"></rect><text class="label" x="449.0894034675433" y="431.9378437843784" font-size="10px">12.18x</text><text class="label" x="450.8947040393596" y="445.1391639163916" font-size="10px">12.25x</text><text class="label" x="290.4489277181183" y="458.34048404840485" font-size="10px">5.53x</text><text class="label" x="182.66234857004022" y="471.541804180418" font-size="10px">1.01x</text><text class="label" x="182.36702623106484" y="484.74312431243123" font-size="10px">1x</text><text class="label" x="445.5894034675433" y="433.4378437843784" font-size="8px"></text><text class="label" x="447.3947040393596" y="446.6391639163916" font-size="8px"></text><text class="label" x="286.9489277181183" y="459.84048404840485" font-size="8px"></text><text class="label" x="179.16234857004022" y="473.041804180418" font-size="8px"></text><text class="label" x="178.86702623106484" y="486.24312431243123" font-size="8px"></text></g><g style="font-size: 13px;"><rect x="150" y="497.51191785845253" width="236.562683839201" height="12.541254125412543" fill="#4472c4"></rect><rect x="150" y="510.7132379904657" width="257.8086325194907" height="12.541254125412543" fill="#ed7d31"></rect><rect x="150" y="523.9145581224789" width="164.32580054626476" height="12.541254125412543" fill="#a5a5a5"></rect><rect x="150" y="537.1158782544921" width="24.024757218370144" height="12.541254125412543" fill="#ffc000"></rect><rect x="150" y="550.3171983865053" width="23.867026231064845" height="12.541254125412543" fill="#5b9bd5"></rect><text class="label" x="395.062683839201" y="506.01191785845253" font-size="10px">9.91x</text><text class="label" x="416.3086325194907" y="519.2132379904657" font-size="10px">10.8x</text><text class="label" x="322.82580054626476" y="532.4145581224789" font-size="10px">6.89x</text><text class="label" x="182.52475721837015" y="545.6158782544921" font-size="10px">1.01x</text><text class="label" x="182.36702623106484" y="558.8171983865053" font-size="10px">1x</text><text class="label" x="391.562683839201" y="507.51191785845253" font-size="8px"></text><text class="label" x="412.8086325194907" y="520.7132379904657" font-size="8px"></text><text class="label" x="319.32580054626476" y="533.9145581224789" font-size="8px"></text><text class="label" x="179.02475721837015" y="547.1158782544921" font-size="8px"></text><text class="label" x="178.86702623106484" y="560.3171983865053" font-size="8px"></text></g><g style="font-size: 13px;"><rect x="150" y="571.5859919325266" width="181.67741866506836" height="12.541254125412543" fill="#4472c4"></rect><rect x="150" y="584.7873120645397" width="203.27617672343715" height="12.541254125412543" fill="#ed7d31"></rect><rect x="150" y="597.9886321965529" width="48.47347826381422" height="12.541254125412543" fill="#a5a5a5"></rect><rect x="150" y="611.1899523285662" width="23.883956604389255" height="12.541254125412543" fill="#ffc000"></rect><rect x="150" y="624.3912724605793" width="23.867026231064845" height="12.541254125412543" fill="#5b9bd5"></rect><text class="label" x="340.17741866506833" y="580.0859919325266" font-size="10px">7.61x</text><text class="label" x="361.7761767234372" y="593.2873120645397" font-size="10px">8.52x</text><text class="label" x="206.97347826381423" y="606.4886321965529" font-size="10px">2.03x</text><text class="label" x="182.38395660438925" y="619.6899523285662" font-size="10px">1x</text><text class="label" x="182.36702623106484" y="632.8912724605793" font-size="10px">1x</text><text class="label" x="336.67741866506833" y="581.5859919325266" font-size="8px"></text><text class="label" x="358.2761767234372" y="594.7873120645397" font-size="8px"></text><text class="label" x="203.47347826381423" y="607.9886321965529" font-size="8px"></text><text class="label" x="178.88395660438925" y="621.1899523285662" font-size="8px"></text><text class="label" x="178.86702623106484" y="634.3912724605793" font-size="8px"></text></g></g></svg>