<svg xmlns="http://www.w3.org/2000/svg" xmlns:xlink="http://www.w3.org/1999/xlink" width="800" height="674" style="background-color: white;"><g class="y axis" transform="translate(149,45)" fill="none" font-size="10" font-family="sans-serif" text-anchor="end" style="font-size: 13px;"><path class="domain" stroke="currentColor" d="M0.5,0.5V480.5"></path><g class="tick" opacity="1" transform="translate(0,32.592592592592595)" style="font-size: 13px;"><line stroke="currentColor" x2="0"></line><text fill="currentColor" x="-3" dy="0.32em">object (simple)    </text></g><g class="tick" opacity="1" transform="translate(0,91.85185185185186)" style="font-size: 13px;"><line stroke="currentColor" x2="0"></line><text fill="currentColor" x="-3" dy="0.32em">object (hierarchical)    </text></g><g class="tick" opacity="1" transform="translate(0,151.11111111111111)" style="font-size: 13px;"><line stroke="currentColor" x2="0"></line><text fill="currentColor" x="-3" dy="0.32em">object (recursive)    </text></g><g class="tick" opacity="1" transform="translate(0,210.37037037037035)" style="font-size: 13px;"><line stroke="currentColor" x2="0"></line><text fill="currentColor" x="-3" dy="0.32em">object (union, explicit)    </text></g><g class="tick" opacity="1" transform="translate(0,269.6296296296296)" style="font-size: 13px;"><line stroke="currentColor" x2="0"></line><text fill="currentColor" x="-3" dy="0.32em">array (simple)    </text></g><g class="tick" opacity="1" transform="translate(0,328.8888888888889)" style="font-size: 13px;"><line stroke="currentColor" x2="0"></line><text fill="currentColor" x="-3" dy="0.32em">array (hierarchical)    </text></g><g class="tick" opacity="1" transform="translate(0,388.14814814814815)" style="font-size: 13px;"><line stroke="currentColor" x2="0"></line><text fill="currentColor" x="-3" dy="0.32em">array (recursive)    </text></g><g class="tick" opacity="1" transform="translate(0,447.40740740740745)" style="font-size: 13px;"><line stroke="currentColor" x2="0"></line><text fill="currentColor" x="-3" dy="0.32em">array (union, explicit)    </text></g></g><g class="x axis" transform="translate(149,525)" fill="none" font-size="10" font-family="sans-serif" text-anchor="middle" style="font-size: 13px;"><path class="domain" stroke="currentColor" d="M0.5,0.5H485.5"></path><g class="tick" opacity="1" transform="translate(0.5,0)" style="font-size: 13px;"><line stroke="currentColor" y2="6"></line><text fill="currentColor" y="9" dy="0.71em">0x</text></g><g class="tick" opacity="1" transform="translate(118.98561112040701,0)" style="font-size: 13px;"><line stroke="currentColor" y2="6"></line><text fill="currentColor" y="9" dy="0.71em">5x</text></g><g class="tick" opacity="1" transform="translate(237.47122224081403,0)" style="font-size: 13px;"><line stroke="currentColor" y2="6"></line><text fill="currentColor" y="9" dy="0.71em">10x</text></g><g class="tick" opacity="1" transform="translate(355.956833361221,0)" style="font-size: 13px;"><line stroke="currentColor" y2="6"></line><text fill="currentColor" y="9" dy="0.71em">15x</text></g><g class="tick" opacity="1" transform="translate(474.44244448162806,0)" style="font-size: 13px;"><line stroke="currentColor" y2="6"></line><text fill="currentColor" y="9" dy="0.71em">20x</text></g></g><text transform="translate(400, 30)" style="text-anchor: middle; font-size: 20px; font-weight: bold;">stringify benchmark</text><rect x="650" y="125" width="230" height="5" fill="gray"></rect><rect x="645" y="35" width="230" height="90" fill="none" stroke="black"></rect><rect x="655" y="45" width="10" height="10" style="fill: #4472c4;"></rect><text x="670" y="55" style="font-size: 12px;">nestia-express</text><rect x="655" y="65" width="10" height="10" style="fill: #ed7d31;"></rect><text x="670" y="75" style="font-size: 12px;">nestia-fastify</text><rect x="655" y="85" width="10" height="10" style="fill: #a5a5a5;"></rect><text x="670" y="95" style="font-size: 12px;">NestJS-express</text><rect x="655" y="105" width="10" height="10" style="fill: #ffc000;"></rect><text x="670" y="115" style="font-size: 12px;">NestJS-fastify</text><text x="20" y="589" style="font-size: 12px;">  - CPU: 11th Gen Intel(R) Core(TM) i5-1135G7 @ 2.40GHz</text><text x="20" y="606" style="font-size: 12px;">  - OS: win32</text><text x="20" y="623" style="font-size: 12px;">  - RAM: 16 GB</text><text x="20" y="640" style="font-size: 12px;">  - NodeJS version: v16.20.0</text><text x="20" y="657" style="font-size: 12px;">  - Nestia version: v1.2.2</text><g style="font-size: 13px;"><g style="font-size: 13px;"><rect x="150" y="51.584362139917694" width="186.68313512614904" height="12.510288065843621" fill="#4472c4"></rect><rect x="150" y="64.75308641975309" width="391.81359719160344" height="12.510288065843621" fill="#ed7d31"></rect><rect x="150" y="77.92181069958848" width="23.6971222240814" height="12.510288065843621" fill="#a5a5a5"></rect><rect x="150" y="91.09053497942386" width="26.08080463152478" height="12.510288065843621" fill="#ffc000"></rect><text class="label" x="345.18313512614907" y="60.084362139917694" font-size="10px">7.88x</text><text class="label" x="550.3135971916034" y="73.25308641975309" font-size="10px">16.53x</text><text class="label" x="182.1971222240814" y="86.42181069958848" font-size="10px">1x</text><text class="label" x="184.58080463152479" y="99.59053497942386" font-size="10px">1.1x</text><text class="label" x="341.68313512614907" y="61.584362139917694" font-size="8px"></text><text class="label" x="546.8135971916034" y="74.75308641975309" font-size="8px"></text><text class="label" x="178.6971222240814" y="87.92181069958848" font-size="8px"></text><text class="label" x="181.08080463152479" y="101.09053497942386" font-size="8px"></text></g><g style="font-size: 13px;"><rect x="150" y="110.84362139917695" width="209.00868098183614" height="12.510288065843621" fill="#4472c4"></rect><rect x="150" y="124.01234567901236" width="298.32822135514544" height="12.510288065843621" fill="#ed7d31"></rect><rect x="150" y="137.18106995884773" width="23.6971222240814" height="12.510288065843621" fill="#a5a5a5"></rect><rect x="150" y="150.34979423868313" width="26.030623272900645" height="12.510288065843621" fill="#ffc000"></rect><text class="label" x="367.50868098183616" y="119.34362139917695" font-size="10px">8.82x</text><text class="label" x="456.82822135514544" y="132.51234567901236" font-size="10px">12.59x</text><text class="label" x="182.1971222240814" y="145.68106995884773" font-size="10px">1x</text><text class="label" x="184.53062327290064" y="158.84979423868313" font-size="10px">1.1x</text><text class="label" x="364.00868098183616" y="120.84362139917695" font-size="8px"></text><text class="label" x="453.32822135514544" y="134.01234567901236" font-size="8px"></text><text class="label" x="178.6971222240814" y="147.18106995884773" font-size="8px"></text><text class="label" x="181.03062327290064" y="160.34979423868313" font-size="8px"></text></g><g style="font-size: 13px;"><rect x="150" y="170.10288065843622" width="255.24186535927376" height="12.510288065843621" fill="#4472c4"></rect><rect x="150" y="183.2716049382716" width="335.4588075128202" height="12.510288065843621" fill="#ed7d31"></rect><rect x="150" y="196.440329218107" width="23.6971222240814" height="12.510288065843621" fill="#a5a5a5"></rect><rect x="150" y="209.6090534979424" width="24.787430091925554" height="12.510288065843621" fill="#ffc000"></rect><text class="label" x="413.7418653592738" y="178.60288065843622" font-size="10px">10.77x</text><text class="label" x="493.9588075128202" y="191.7716049382716" font-size="10px">14.16x</text><text class="label" x="182.1971222240814" y="204.940329218107" font-size="10px">1x</text><text class="label" x="183.28743009192556" y="218.1090534979424" font-size="10px">1.05x</text><text class="label" x="410.2418653592738" y="180.10288065843622" font-size="8px"></text><text class="label" x="490.4588075128202" y="193.2716049382716" font-size="8px"></text><text class="label" x="178.6971222240814" y="206.440329218107" font-size="8px"></text><text class="label" x="179.78743009192556" y="219.6090534979424" font-size="8px"></text></g><g style="font-size: 13px;"><rect x="150" y="229.36213991769546" width="350.03518990050367" height="12.510288065843621" fill="#4472c4"></rect><rect x="150" y="242.53086419753086" width="440.9090909090908" height="12.510288065843621" fill="#ed7d31"></rect><rect x="150" y="255.69958847736626" width="23.819702378493126" height="12.510288065843621" fill="#a5a5a5"></rect><rect x="150" y="268.86831275720164" width="23.6971222240814" height="12.510288065843621" fill="#ffc000"></rect><text class="label" x="508.53518990050367" y="237.86213991769546" font-size="10px">14.77x</text><text class="label" x="599.4090909090908" y="251.03086419753086" font-size="10px">18.61x</text><text class="label" x="182.31970237849313" y="264.19958847736626" font-size="10px">1.01x</text><text class="label" x="182.1971222240814" y="277.36831275720164" font-size="10px">1x</text><text class="label" x="505.03518990050367" y="239.36213991769546" font-size="8px"></text><text class="label" x="595.9090909090908" y="252.53086419753086" font-size="8px"></text><text class="label" x="178.81970237849313" y="265.69958847736626" font-size="8px"></text><text class="label" x="178.6971222240814" y="278.86831275720164" font-size="8px"></text></g><g style="font-size: 13px;"><rect x="150" y="288.6213991769547" width="174.52804664014513" height="12.510288065843621" fill="#4472c4"></rect><rect x="150" y="301.7901234567901" width="237.26226148857722" height="12.510288065843621" fill="#ed7d31"></rect><rect x="150" y="314.9588477366255" width="23.6971222240814" height="12.510288065843621" fill="#a5a5a5"></rect><rect x="150" y="328.12757201646093" width="25.671832877774158" height="12.510288065843621" fill="#ffc000"></rect><text class="label" x="333.02804664014513" y="297.1213991769547" font-size="10px">7.36x</text><text class="label" x="395.7622614885772" y="310.2901234567901" font-size="10px">10.01x</text><text class="label" x="182.1971222240814" y="323.4588477366255" font-size="10px">1x</text><text class="label" x="184.17183287777416" y="336.62757201646093" font-size="10px">1.08x</text><text class="label" x="329.52804664014513" y="298.6213991769547" font-size="8px"></text><text class="label" x="392.2622614885772" y="311.7901234567901" font-size="8px"></text><text class="label" x="178.6971222240814" y="324.9588477366255" font-size="8px"></text><text class="label" x="180.67183287777416" y="338.12757201646093" font-size="8px"></text></g><g style="font-size: 13px;"><rect x="150" y="347.880658436214" width="273.0932894235931" height="12.510288065843621" fill="#4472c4"></rect><rect x="150" y="361.04938271604937" width="281.1038193827022" height="12.510288065843621" fill="#ed7d31"></rect><rect x="150" y="374.2181069958848" width="24.116520333706635" height="12.510288065843621" fill="#a5a5a5"></rect><rect x="150" y="387.38683127572017" width="23.6971222240814" height="12.510288065843621" fill="#ffc000"></rect><text class="label" x="431.5932894235931" y="356.380658436214" font-size="10px">11.52x</text><text class="label" x="439.6038193827022" y="369.54938271604937" font-size="10px">11.86x</text><text class="label" x="182.61652033370663" y="382.7181069958848" font-size="10px">1.02x</text><text class="label" x="182.1971222240814" y="395.88683127572017" font-size="10px">1x</text><text class="label" x="428.0932894235931" y="357.880658436214" font-size="8px"></text><text class="label" x="436.1038193827022" y="371.04938271604937" font-size="8px"></text><text class="label" x="179.11652033370663" y="384.2181069958848" font-size="8px"></text><text class="label" x="178.6971222240814" y="397.38683127572017" font-size="8px"></text></g><g style="font-size: 13px;"><rect x="150" y="407.13991769547323" width="246.77810016662977" height="12.510288065843621" fill="#4472c4"></rect><rect x="150" y="420.3086419753086" width="259.3524457175682" height="12.510288065843621" fill="#ed7d31"></rect><rect x="150" y="433.47736625514403" width="25.221206514794233" height="12.510288065843621" fill="#a5a5a5"></rect><rect x="150" y="446.6460905349794" width="23.6971222240814" height="12.510288065843621" fill="#ffc000"></rect><text class="label" x="405.27810016662977" y="415.63991769547323" font-size="10px">10.41x</text><text class="label" x="417.8524457175682" y="428.8086419753086" font-size="10px">10.94x</text><text class="label" x="183.72120651479423" y="441.97736625514403" font-size="10px">1.06x</text><text class="label" x="182.1971222240814" y="455.1460905349794" font-size="10px">1x</text><text class="label" x="401.77810016662977" y="417.13991769547323" font-size="8px"></text><text class="label" x="414.3524457175682" y="430.3086419753086" font-size="8px"></text><text class="label" x="180.22120651479423" y="443.47736625514403" font-size="8px"></text><text class="label" x="178.6971222240814" y="456.6460905349794" font-size="8px"></text></g><g style="font-size: 13px;"><rect x="150" y="466.3991769547325" width="184.81436254603042" height="12.510288065843621" fill="#4472c4"></rect><rect x="150" y="479.5679012345679" width="202.51090230773647" height="12.510288065843621" fill="#ed7d31"></rect><rect x="150" y="492.73662551440333" width="24.174139421098985" height="12.510288065843621" fill="#a5a5a5"></rect><rect x="150" y="505.9053497942387" width="23.6971222240814" height="12.510288065843621" fill="#ffc000"></rect><text class="label" x="343.31436254603045" y="474.8991769547325" font-size="10px">7.8x</text><text class="label" x="361.0109023077365" y="488.0679012345679" font-size="10px">8.55x</text><text class="label" x="182.67413942109897" y="501.23662551440333" font-size="10px">1.02x</text><text class="label" x="182.1971222240814" y="514.4053497942386" font-size="10px">1x</text><text class="label" x="339.81436254603045" y="476.3991769547325" font-size="8px"></text><text class="label" x="357.5109023077365" y="489.5679012345679" font-size="8px"></text><text class="label" x="179.17413942109897" y="502.73662551440333" font-size="8px"></text><text class="label" x="178.6971222240814" y="515.9053497942386" font-size="8px"></text></g></g></svg>