<svg xmlns="http://www.w3.org/2000/svg" xmlns:xlink="http://www.w3.org/1999/xlink" width="800" height="914" style="background-color: white;"><g class="y axis" transform="translate(149,45)" fill="none" font-size="10" font-family="sans-serif" text-anchor="end" style="font-size: 13px;"><path class="domain" stroke="currentColor" d="M0.5,0.5V720.5"></path><g class="tick" opacity="1" transform="translate(0,48.88888888888886)" style="font-size: 13px;"><line stroke="currentColor" x2="0"></line><text fill="currentColor" x="-3" dy="0.32em">object (simple)    </text></g><g class="tick" opacity="1" transform="translate(0,137.77777777777774)" style="font-size: 13px;"><line stroke="currentColor" x2="0"></line><text fill="currentColor" x="-3" dy="0.32em">object (hierarchical)    </text></g><g class="tick" opacity="1" transform="translate(0,226.66666666666663)" style="font-size: 13px;"><line stroke="currentColor" x2="0"></line><text fill="currentColor" x="-3" dy="0.32em">object (recursive)    </text></g><g class="tick" opacity="1" transform="translate(0,315.5555555555555)" style="font-size: 13px;"><line stroke="currentColor" x2="0"></line><text fill="currentColor" x="-3" dy="0.32em">object (union, explicit)    </text></g><g class="tick" opacity="1" transform="translate(0,404.4444444444444)" style="font-size: 13px;"><line stroke="currentColor" x2="0"></line><text fill="currentColor" x="-3" dy="0.32em">array (simple)    </text></g><g class="tick" opacity="1" transform="translate(0,493.3333333333333)" style="font-size: 13px;"><line stroke="currentColor" x2="0"></line><text fill="currentColor" x="-3" dy="0.32em">array (hierarchical)    </text></g><g class="tick" opacity="1" transform="translate(0,582.2222222222222)" style="font-size: 13px;"><line stroke="currentColor" x2="0"></line><text fill="currentColor" x="-3" dy="0.32em">array (recursive)    </text></g><g class="tick" opacity="1" transform="translate(0,671.1111111111111)" style="font-size: 13px;"><line stroke="currentColor" x2="0"></line><text fill="currentColor" x="-3" dy="0.32em">array (union, explicit)    </text></g></g><g class="x axis" transform="translate(149,765)" fill="none" font-size="10" font-family="sans-serif" text-anchor="middle" style="font-size: 13px;"><path class="domain" stroke="currentColor" d="M0.5,0.5H485.5"></path><g class="tick" opacity="1" transform="translate(0.5,0)" style="font-size: 13px;"><line stroke="currentColor" y2="6"></line><text fill="currentColor" y="9" dy="0.71em">0x</text></g><g class="tick" opacity="1" transform="translate(122.55023416738112,0)" style="font-size: 13px;"><line stroke="currentColor" y2="6"></line><text fill="currentColor" y="9" dy="0.71em">5x</text></g><g class="tick" opacity="1" transform="translate(244.60046833476224,0)" style="font-size: 13px;"><line stroke="currentColor" y2="6"></line><text fill="currentColor" y="9" dy="0.71em">10x</text></g><g class="tick" opacity="1" transform="translate(366.65070250214336,0)" style="font-size: 13px;"><line stroke="currentColor" y2="6"></line><text fill="currentColor" y="9" dy="0.71em">15x</text></g></g><text transform="translate(400, 30)" style="text-anchor: middle; font-size: 20px; font-weight: bold;">stringify benchmark</text><rect x="650" y="165" width="230" height="5" fill="gray"></rect><rect x="645" y="35" width="230" height="130" fill="none" stroke="black"></rect><rect x="655" y="45" width="10" height="10" style="fill: #4472c4;"></rect><text x="670" y="55" style="font-size: 12px;">express-nestia</text><rect x="655" y="65" width="10" height="10" style="fill: #ed7d31;"></rect><text x="670" y="75" style="font-size: 12px;">express-nestjs</text><rect x="655" y="85" width="10" height="10" style="fill: #a5a5a5;"></rect><text x="670" y="95" style="font-size: 12px;">express-pure</text><rect x="655" y="105" width="10" height="10" style="fill: #ffc000;"></rect><text x="670" y="115" style="font-size: 12px;">fastify-nestia</text><rect x="655" y="125" width="10" height="10" style="fill: #5b9bd5;"></rect><text x="670" y="135" style="font-size: 12px;">fastify-nestjs</text><rect x="655" y="145" width="10" height="10" style="fill: #70ad47;"></rect><text x="670" y="155" style="font-size: 12px;">fastify-pure</text><text x="20" y="829" style="font-size: 12px;">  - CPU: 11th Gen Intel(R) Core(TM) i5-1135G7 @ 2.40GHz</text><text x="20" y="846" style="font-size: 12px;">  - OS: win32</text><text x="20" y="863" style="font-size: 12px;">  - RAM: 16 GB</text><text x="20" y="880" style="font-size: 12px;">  - NodeJS version: v16.20.0</text><text x="20" y="897" style="font-size: 12px;">  - Typia version: v0.1.0</text><g style="font-size: 13px;"><g style="font-size: 13px;"><rect x="150" y="54.55004591368224" width="173.74266861842327" height="12.56198347107438" fill="#4472c4"></rect><rect x="150" y="67.77318640955001" width="24.410046833476223" height="12.56198347107438" fill="#ed7d31"></rect><rect x="150" y="80.99632690541777" width="146.5156486432452" height="12.56198347107438" fill="#a5a5a5"></rect><rect x="150" y="94.21946740128556" width="415.52662713680166" height="12.56198347107438" fill="#ffc000"></rect><rect x="150" y="107.44260789715332" width="26.55647005265318" height="12.56198347107438" fill="#5b9bd5"></rect><rect x="150" y="120.66574839302109" width="353.3338304024843" height="12.56198347107438" fill="#70ad47"></rect><text class="label" x="332.2426686184233" y="63.05004591368224" font-size="10px">7.12x</text><text class="label" x="182.91004683347623" y="76.27318640955001" font-size="10px">1x</text><text class="label" x="305.0156486432452" y="89.49632690541777" font-size="10px">6x</text><text class="label" x="574.0266271368016" y="102.71946740128556" font-size="10px">17.02x</text><text class="label" x="185.05647005265317" y="115.94260789715332" font-size="10px">1.09x</text><text class="label" x="511.8338304024843" y="129.1657483930211" font-size="10px">14.47x</text><text class="label" x="328.7426686184233" y="64.55004591368224" font-size="8px"></text><text class="label" x="179.41004683347623" y="77.77318640955001" font-size="8px"></text><text class="label" x="301.5156486432452" y="90.99632690541777" font-size="8px"></text><text class="label" x="570.5266271368016" y="104.21946740128556" font-size="8px"></text><text class="label" x="181.55647005265317" y="117.44260789715332" font-size="8px"></text><text class="label" x="508.3338304024843" y="130.6657483930211" font-size="8px"></text></g><g style="font-size: 13px;"><rect x="150" y="143.4389348025711" width="193.44274620551712" height="12.56198347107438" fill="#4472c4"></rect><rect x="150" y="156.66207529843888" width="24.410046833476223" height="12.56198347107438" fill="#ed7d31"></rect><rect x="150" y="169.88521579430665" width="135.18473491361084" height="12.56198347107438" fill="#a5a5a5"></rect><rect x="150" y="183.10835629017444" width="247.59281545309813" height="12.56198347107438" fill="#ffc000"></rect><rect x="150" y="196.3314967860422" width="24.913087835449005" height="12.56198347107438" fill="#5b9bd5"></rect><rect x="150" y="209.55463728190998" width="209.96699902710026" height="12.56198347107438" fill="#70ad47"></rect><text class="label" x="351.9427462055171" y="151.9389348025711" font-size="10px">7.92x</text><text class="label" x="182.91004683347623" y="165.16207529843888" font-size="10px">1x</text><text class="label" x="293.68473491361084" y="178.38521579430665" font-size="10px">5.54x</text><text class="label" x="406.0928154530981" y="191.60835629017444" font-size="10px">10.14x</text><text class="label" x="183.413087835449" y="204.8314967860422" font-size="10px">1.02x</text><text class="label" x="368.46699902710026" y="218.05463728190998" font-size="10px">8.6x</text><text class="label" x="348.4427462055171" y="153.4389348025711" font-size="8px"></text><text class="label" x="179.41004683347623" y="166.66207529843888" font-size="8px"></text><text class="label" x="290.18473491361084" y="179.88521579430665" font-size="8px"></text><text class="label" x="402.5928154530981" y="193.10835629017444" font-size="8px"></text><text class="label" x="179.913087835449" y="206.3314967860422" font-size="8px"></text><text class="label" x="364.96699902710026" y="219.55463728190998" font-size="8px"></text></g><g style="font-size: 13px;"><rect x="150" y="232.32782369146003" width="247.9502534066279" height="12.56198347107438" fill="#4472c4"></rect><rect x="150" y="245.5509641873278" width="25.43852497716776" height="12.56198347107438" fill="#ed7d31"></rect><rect x="150" y="258.77410468319556" width="179.0445465571736" height="12.56198347107438" fill="#a5a5a5"></rect><rect x="150" y="271.9972451790633" width="299.90917401551656" height="12.56198347107438" fill="#ffc000"></rect><rect x="150" y="285.2203856749311" width="24.410046833476223" height="12.56198347107438" fill="#5b9bd5"></rect><rect x="150" y="298.44352617079886" width="168.0494323502157" height="12.56198347107438" fill="#70ad47"></rect><text class="label" x="406.4502534066279" y="240.82782369146003" font-size="10px">10.16x</text><text class="label" x="183.93852497716776" y="254.0509641873278" font-size="10px">1.04x</text><text class="label" x="337.5445465571736" y="267.27410468319556" font-size="10px">7.33x</text><text class="label" x="458.40917401551656" y="280.4972451790633" font-size="10px">12.29x</text><text class="label" x="182.91004683347623" y="293.7203856749311" font-size="10px">1x</text><text class="label" x="326.54943235021574" y="306.94352617079886" font-size="10px">6.88x</text><text class="label" x="402.9502534066279" y="242.32782369146003" font-size="8px"></text><text class="label" x="180.43852497716776" y="255.5509641873278" font-size="8px"></text><text class="label" x="334.0445465571736" y="268.77410468319556" font-size="8px"></text><text class="label" x="454.90917401551656" y="281.9972451790633" font-size="8px"></text><text class="label" x="179.41004683347623" y="295.2203856749311" font-size="8px"></text><text class="label" x="323.04943235021574" y="308.44352617079886" font-size="8px"></text></g><g style="font-size: 13px;"><rect x="150" y="321.2167125803489" width="367.5525716462213" height="12.56198347107438" fill="#4472c4"></rect><rect x="150" y="334.43985307621665" width="25.0855236977397" height="12.56198347107438" fill="#ed7d31"></rect><rect x="150" y="347.6629935720844" width="236.44377675107344" height="12.56198347107438" fill="#a5a5a5"></rect><rect x="150" y="360.8861340679522" width="440.9090909090908" height="12.56198347107438" fill="#ffc000"></rect><rect x="150" y="374.10927456381995" width="24.410046833476223" height="12.56198347107438" fill="#5b9bd5"></rect><rect x="150" y="387.3324150596877" width="240.08391487411853" height="12.56198347107438" fill="#70ad47"></rect><text class="label" x="526.0525716462213" y="329.7167125803489" font-size="10px">15.06x</text><text class="label" x="183.5855236977397" y="342.93985307621665" font-size="10px">1.03x</text><text class="label" x="394.9437767510734" y="356.1629935720844" font-size="10px">9.69x</text><text class="label" x="599.4090909090908" y="369.3861340679522" font-size="10px">18.06x</text><text class="label" x="182.91004683347623" y="382.60927456381995" font-size="10px">1x</text><text class="label" x="398.58391487411853" y="395.8324150596877" font-size="10px">9.84x</text><text class="label" x="522.5525716462213" y="331.2167125803489" font-size="8px"></text><text class="label" x="180.0855236977397" y="344.43985307621665" font-size="8px"></text><text class="label" x="391.4437767510734" y="357.6629935720844" font-size="8px"></text><text class="label" x="595.9090909090908" y="370.8861340679522" font-size="8px"></text><text class="label" x="179.41004683347623" y="384.10927456381995" font-size="8px"></text><text class="label" x="395.08391487411853" y="397.3324150596877" font-size="8px"></text></g><g style="font-size: 13px;"><rect x="150" y="410.1056014692378" width="199.7321662509306" height="12.56198347107438" fill="#4472c4"></rect><rect x="150" y="423.32874196510556" width="24.410046833476223" height="12.56198347107438" fill="#ed7d31"></rect><rect x="150" y="436.55188246097333" width="172.375740142387" height="12.56198347107438" fill="#a5a5a5"></rect><rect x="150" y="449.7750229568411" width="247.5406040440401" height="12.56198347107438" fill="#ffc000"></rect><rect x="150" y="462.99816345270887" width="25.236427313157726" height="12.56198347107438" fill="#5b9bd5"></rect><rect x="150" y="476.22130394857663" width="209.07879599275657" height="12.56198347107438" fill="#70ad47"></rect><text class="label" x="358.2321662509306" y="418.6056014692378" font-size="10px">8.18x</text><text class="label" x="182.91004683347623" y="431.82874196510556" font-size="10px">1x</text><text class="label" x="330.87574014238703" y="445.05188246097333" font-size="10px">7.06x</text><text class="label" x="406.0406040440401" y="458.2750229568411" font-size="10px">10.14x</text><text class="label" x="183.73642731315772" y="471.49816345270887" font-size="10px">1.03x</text><text class="label" x="367.57879599275657" y="484.72130394857663" font-size="10px">8.57x</text><text class="label" x="354.7321662509306" y="420.1056014692378" font-size="8px"></text><text class="label" x="179.41004683347623" y="433.32874196510556" font-size="8px"></text><text class="label" x="327.37574014238703" y="446.55188246097333" font-size="8px"></text><text class="label" x="402.5406040440401" y="459.7750229568411" font-size="8px"></text><text class="label" x="180.23642731315772" y="472.99816345270887" font-size="8px"></text><text class="label" x="364.07879599275657" y="486.22130394857663" font-size="8px"></text></g><g style="font-size: 13px;"><rect x="150" y="498.9944903581267" width="290.4735401251834" height="12.56198347107438" fill="#4472c4"></rect><rect x="150" y="512.2176308539945" width="24.410046833476223" height="12.56198347107438" fill="#ed7d31"></rect><rect x="150" y="525.4407713498622" width="196.22489126228945" height="12.56198347107438" fill="#a5a5a5"></rect><rect x="150" y="538.66391184573" width="286.7924349216109" height="12.56198347107438" fill="#ffc000"></rect><rect x="150" y="551.8870523415978" width="24.909541433218543" height="12.56198347107438" fill="#5b9bd5"></rect><rect x="150" y="565.1101928374655" width="121.49540303053669" height="12.56198347107438" fill="#70ad47"></rect><text class="label" x="448.9735401251834" y="507.4944903581267" font-size="10px">11.9x</text><text class="label" x="182.91004683347623" y="520.7176308539945" font-size="10px">1x</text><text class="label" x="354.7248912622895" y="533.9407713498622" font-size="10px">8.04x</text><text class="label" x="445.2924349216109" y="547.16391184573" font-size="10px">11.75x</text><text class="label" x="183.40954143321855" y="560.3870523415978" font-size="10px">1.02x</text><text class="label" x="279.9954030305367" y="573.6101928374655" font-size="10px">4.98x</text><text class="label" x="445.4735401251834" y="508.9944903581267" font-size="8px"></text><text class="label" x="179.41004683347623" y="522.2176308539945" font-size="8px"></text><text class="label" x="351.2248912622895" y="535.4407713498622" font-size="8px"></text><text class="label" x="441.7924349216109" y="548.66391184573" font-size="8px"></text><text class="label" x="179.90954143321855" y="561.8870523415978" font-size="8px"></text><text class="label" x="276.4954030305367" y="575.1101928374655" font-size="8px"></text></g><g style="font-size: 13px;"><rect x="150" y="587.8833792470156" width="244.52297215455098" height="12.56198347107438" fill="#4472c4"></rect><rect x="150" y="601.1065197428833" width="26.312881561479944" height="12.56198347107438" fill="#ed7d31"></rect><rect x="150" y="614.3296602387511" width="195.7976706552177" height="12.56198347107438" fill="#a5a5a5"></rect><rect x="150" y="627.5528007346188" width="253.93618827686498" height="12.56198347107438" fill="#ffc000"></rect><rect x="150" y="640.7759412304866" width="24.410046833476223" height="12.56198347107438" fill="#5b9bd5"></rect><rect x="150" y="653.9990817263545" width="173.53614133413302" height="12.56198347107438" fill="#70ad47"></rect><text class="label" x="403.022972154551" y="596.3833792470156" font-size="10px">10.02x</text><text class="label" x="184.81288156147994" y="609.6065197428833" font-size="10px">1.08x</text><text class="label" x="354.2976706552177" y="622.8296602387511" font-size="10px">8.02x</text><text class="label" x="412.436188276865" y="636.0528007346188" font-size="10px">10.4x</text><text class="label" x="182.91004683347623" y="649.2759412304866" font-size="10px">1x</text><text class="label" x="332.03614133413305" y="662.4990817263545" font-size="10px">7.11x</text><text class="label" x="399.522972154551" y="597.8833792470156" font-size="8px"></text><text class="label" x="181.31288156147994" y="611.1065197428833" font-size="8px"></text><text class="label" x="350.7976706552177" y="624.3296602387511" font-size="8px"></text><text class="label" x="408.936188276865" y="637.5528007346188" font-size="8px"></text><text class="label" x="179.41004683347623" y="650.7759412304866" font-size="8px"></text><text class="label" x="328.53614133413305" y="663.9990817263545" font-size="8px"></text></g><g style="font-size: 13px;"><rect x="150" y="676.7722681359045" width="220.84651634498974" height="12.56198347107438" fill="#4472c4"></rect><rect x="150" y="689.9954086317722" width="24.410046833476223" height="12.56198347107438" fill="#ed7d31"></rect><rect x="150" y="703.21854912764" width="195.34678723439131" height="12.56198347107438" fill="#a5a5a5"></rect><rect x="150" y="716.4416896235077" width="205.36294288503015" height="12.56198347107438" fill="#ffc000"></rect><rect x="150" y="729.6648301193756" width="28.208927130229462" height="12.56198347107438" fill="#5b9bd5"></rect><rect x="150" y="742.8879706152434" width="171.5308208279919" height="12.56198347107438" fill="#70ad47"></rect><text class="label" x="379.3465163449897" y="685.2722681359045" font-size="10px">9.05x</text><text class="label" x="182.91004683347623" y="698.4954086317722" font-size="10px">1x</text><text class="label" x="353.8467872343913" y="711.71854912764" font-size="10px">8x</text><text class="label" x="363.8629428850302" y="724.9416896235077" font-size="10px">8.41x</text><text class="label" x="186.70892713022945" y="738.1648301193756" font-size="10px">1.16x</text><text class="label" x="330.0308208279919" y="751.3879706152434" font-size="10px">7.03x</text><text class="label" x="375.8465163449897" y="686.7722681359045" font-size="8px"></text><text class="label" x="179.41004683347623" y="699.9954086317722" font-size="8px"></text><text class="label" x="350.3467872343913" y="713.21854912764" font-size="8px"></text><text class="label" x="360.3629428850302" y="726.4416896235077" font-size="8px"></text><text class="label" x="183.20892713022945" y="739.6648301193756" font-size="8px"></text><text class="label" x="326.5308208279919" y="752.8879706152434" font-size="8px"></text></g></g></svg>