<svg xmlns="http://www.w3.org/2000/svg" xmlns:xlink="http://www.w3.org/1999/xlink" width="800" height="674" style="background-color: white;"><g class="y axis" transform="translate(149,45)" fill="none" font-size="10" font-family="sans-serif" text-anchor="end" style="font-size: 13px;"><path class="domain" stroke="currentColor" d="M0.5,0.5V480.5"></path><g class="tick" opacity="1" transform="translate(0,32.592592592592595)" style="font-size: 13px;"><line stroke="currentColor" x2="0"></line><text fill="currentColor" x="-3" dy="0.32em">object (simple)    </text></g><g class="tick" opacity="1" transform="translate(0,91.85185185185186)" style="font-size: 13px;"><line stroke="currentColor" x2="0"></line><text fill="currentColor" x="-3" dy="0.32em">object (hierarchical)    </text></g><g class="tick" opacity="1" transform="translate(0,151.11111111111111)" style="font-size: 13px;"><line stroke="currentColor" x2="0"></line><text fill="currentColor" x="-3" dy="0.32em">object (recursive)    </text></g><g class="tick" opacity="1" transform="translate(0,210.37037037037035)" style="font-size: 13px;"><line stroke="currentColor" x2="0"></line><text fill="currentColor" x="-3" dy="0.32em">object (union, explicit)    </text></g><g class="tick" opacity="1" transform="translate(0,269.6296296296296)" style="font-size: 13px;"><line stroke="currentColor" x2="0"></line><text fill="currentColor" x="-3" dy="0.32em">array (simple)    </text></g><g class="tick" opacity="1" transform="translate(0,328.8888888888889)" style="font-size: 13px;"><line stroke="currentColor" x2="0"></line><text fill="currentColor" x="-3" dy="0.32em">array (hierarchical)    </text></g><g class="tick" opacity="1" transform="translate(0,388.14814814814815)" style="font-size: 13px;"><line stroke="currentColor" x2="0"></line><text fill="currentColor" x="-3" dy="0.32em">array (recursive)    </text></g><g class="tick" opacity="1" transform="translate(0,447.40740740740745)" style="font-size: 13px;"><line stroke="currentColor" x2="0"></line><text fill="currentColor" x="-3" dy="0.32em">array (union, explicit)    </text></g></g><g class="x axis" transform="translate(149,525)" fill="none" font-size="10" font-family="sans-serif" text-anchor="middle" style="font-size: 13px;"><path class="domain" stroke="currentColor" d="M0.5,0.5H485.5"></path><g class="tick" opacity="1" transform="translate(0.5,0)" style="font-size: 13px;"><line stroke="currentColor" y2="6"></line><text fill="currentColor" y="9" dy="0.71em">0x</text></g><g class="tick" opacity="1" transform="translate(122.96458826340238,0)" style="font-size: 13px;"><line stroke="currentColor" y2="6"></line><text fill="currentColor" y="9" dy="0.71em">5x</text></g><g class="tick" opacity="1" transform="translate(245.42917652680475,0)" style="font-size: 13px;"><line stroke="currentColor" y2="6"></line><text fill="currentColor" y="9" dy="0.71em">10x</text></g><g class="tick" opacity="1" transform="translate(367.8937647902072,0)" style="font-size: 13px;"><line stroke="currentColor" y2="6"></line><text fill="currentColor" y="9" dy="0.71em">15x</text></g></g><text transform="translate(400, 30)" style="text-anchor: middle; font-size: 20px; font-weight: bold;">stringify benchmark</text><rect x="650" y="125" width="230" height="5" fill="gray"></rect><rect x="645" y="35" width="230" height="90" fill="none" stroke="black"></rect><rect x="655" y="45" width="10" height="10" style="fill: #4472c4;"></rect><text x="670" y="55" style="font-size: 12px;">nestia-express</text><rect x="655" y="65" width="10" height="10" style="fill: #ed7d31;"></rect><text x="670" y="75" style="font-size: 12px;">nestia-fastify</text><rect x="655" y="85" width="10" height="10" style="fill: #a5a5a5;"></rect><text x="670" y="95" style="font-size: 12px;">NestJS-express</text><rect x="655" y="105" width="10" height="10" style="fill: #ffc000;"></rect><text x="670" y="115" style="font-size: 12px;">NestJS-fastify</text><text x="20" y="589" style="font-size: 12px;">  - CPU: 11th Gen Intel(R) Core(TM) i5-1135G7 @ 2.40GHz</text><text x="20" y="606" style="font-size: 12px;">  - OS: win32</text><text x="20" y="623" style="font-size: 12px;">  - RAM: 16 GB</text><text x="20" y="640" style="font-size: 12px;">  - NodeJS version: v16.20.0</text><text x="20" y="657" style="font-size: 12px;">  - Typia version: v0.1.0</text><g style="font-size: 13px;"><g style="font-size: 13px;"><rect x="150" y="51.584362139917694" width="202.73627531716977" height="12.510288065843621" fill="#4472c4"></rect><rect x="150" y="64.75308641975309" width="432.9601254684043" height="12.510288065843621" fill="#ed7d31"></rect><rect x="150" y="77.92181069958848" width="24.492917652680475" height="12.510288065843621" fill="#a5a5a5"></rect><rect x="150" y="91.09053497942386" width="32.48319017284564" height="12.510288065843621" fill="#ffc000"></rect><text class="label" x="361.23627531716977" y="60.084362139917694" font-size="10px">8.28x</text><text class="label" x="591.4601254684044" y="73.25308641975309" font-size="10px">17.68x</text><text class="label" x="182.9929176526805" y="86.42181069958848" font-size="10px">1x</text><text class="label" x="190.98319017284564" y="99.59053497942386" font-size="10px">1.33x</text><text class="label" x="357.73627531716977" y="61.584362139917694" font-size="8px"></text><text class="label" x="587.9601254684044" y="74.75308641975309" font-size="8px"></text><text class="label" x="179.4929176526805" y="87.92181069958848" font-size="8px"></text><text class="label" x="187.48319017284564" y="101.09053497942386" font-size="8px"></text></g><g style="font-size: 13px;"><rect x="150" y="110.84362139917695" width="208.43975335504916" height="12.510288065843621" fill="#4472c4"></rect><rect x="150" y="124.01234567901236" width="264.1745789545874" height="12.510288065843621" fill="#ed7d31"></rect><rect x="150" y="137.18106995884773" width="24.492917652680475" height="12.510288065843621" fill="#a5a5a5"></rect><rect x="150" y="150.34979423868313" width="26.795345974380115" height="12.510288065843621" fill="#ffc000"></rect><text class="label" x="366.93975335504916" y="119.34362139917695" font-size="10px">8.51x</text><text class="label" x="422.6745789545874" y="132.51234567901236" font-size="10px">10.79x</text><text class="label" x="182.9929176526805" y="145.68106995884773" font-size="10px">1x</text><text class="label" x="185.29534597438013" y="158.84979423868313" font-size="10px">1.09x</text><text class="label" x="363.43975335504916" y="120.84362139917695" font-size="8px"></text><text class="label" x="419.1745789545874" y="134.01234567901236" font-size="8px"></text><text class="label" x="179.4929176526805" y="147.18106995884773" font-size="8px"></text><text class="label" x="181.79534597438013" y="160.34979423868313" font-size="8px"></text></g><g style="font-size: 13px;"><rect x="150" y="170.10288065843622" width="259.66650119806883" height="12.510288065843621" fill="#4472c4"></rect><rect x="150" y="183.2716049382716" width="310.96226415099704" height="12.510288065843621" fill="#ed7d31"></rect><rect x="150" y="196.440329218107" width="25.470503534928444" height="12.510288065843621" fill="#a5a5a5"></rect><rect x="150" y="209.6090534979424" width="24.492917652680475" height="12.510288065843621" fill="#ffc000"></rect><text class="label" x="418.16650119806883" y="178.60288065843622" font-size="10px">10.6x</text><text class="label" x="469.46226415099704" y="191.7716049382716" font-size="10px">12.7x</text><text class="label" x="183.97050353492844" y="204.940329218107" font-size="10px">1.04x</text><text class="label" x="182.9929176526805" y="218.1090534979424" font-size="10px">1x</text><text class="label" x="414.66650119806883" y="180.10288065843622" font-size="8px"></text><text class="label" x="465.96226415099704" y="193.2716049382716" font-size="8px"></text><text class="label" x="180.47050353492844" y="206.440329218107" font-size="8px"></text><text class="label" x="179.4929176526805" y="219.6090534979424" font-size="8px"></text></g><g style="font-size: 13px;"><rect x="150" y="229.36213991769546" width="336.0743335571795" height="12.510288065843621" fill="#4472c4"></rect><rect x="150" y="242.53086419753086" width="440.9090909090908" height="12.510288065843621" fill="#ed7d31"></rect><rect x="150" y="255.69958847736626" width="24.68055351273021" height="12.510288065843621" fill="#a5a5a5"></rect><rect x="150" y="268.86831275720164" width="24.492917652680475" height="12.510288065843621" fill="#ffc000"></rect><text class="label" x="494.5743335571795" y="237.86213991769546" font-size="10px">13.72x</text><text class="label" x="599.4090909090908" y="251.03086419753086" font-size="10px">18x</text><text class="label" x="183.1805535127302" y="264.19958847736626" font-size="10px">1.01x</text><text class="label" x="182.9929176526805" y="277.36831275720164" font-size="10px">1x</text><text class="label" x="491.0743335571795" y="239.36213991769546" font-size="8px"></text><text class="label" x="595.9090909090908" y="252.53086419753086" font-size="8px"></text><text class="label" x="179.6805535127302" y="265.69958847736626" font-size="8px"></text><text class="label" x="179.4929176526805" y="278.86831275720164" font-size="8px"></text></g><g style="font-size: 13px;"><rect x="150" y="288.6213991769547" width="186.6837661989" height="12.510288065843621" fill="#4472c4"></rect><rect x="150" y="301.7901234567901" width="213.58157442232388" height="12.510288065843621" fill="#ed7d31"></rect><rect x="150" y="314.9588477366255" width="24.9304399571031" height="12.510288065843621" fill="#a5a5a5"></rect><rect x="150" y="328.12757201646093" width="24.492917652680475" height="12.510288065843621" fill="#ffc000"></rect><text class="label" x="345.1837661989" y="297.1213991769547" font-size="10px">7.62x</text><text class="label" x="372.0815744223239" y="310.2901234567901" font-size="10px">8.72x</text><text class="label" x="183.4304399571031" y="323.4588477366255" font-size="10px">1.02x</text><text class="label" x="182.9929176526805" y="336.62757201646093" font-size="10px">1x</text><text class="label" x="341.6837661989" y="298.6213991769547" font-size="8px"></text><text class="label" x="368.5815744223239" y="311.7901234567901" font-size="8px"></text><text class="label" x="179.9304399571031" y="324.9588477366255" font-size="8px"></text><text class="label" x="179.4929176526805" y="338.12757201646093" font-size="8px"></text></g><g style="font-size: 13px;"><rect x="150" y="347.880658436214" width="318.07823044498184" height="12.510288065843621" fill="#4472c4"></rect><rect x="150" y="361.04938271604937" width="291.76547430386216" height="12.510288065843621" fill="#ed7d31"></rect><rect x="150" y="374.2181069958848" width="24.492917652680475" height="12.510288065843621" fill="#a5a5a5"></rect><rect x="150" y="387.38683127572017" width="26.15592759613506" height="12.510288065843621" fill="#ffc000"></rect><text class="label" x="476.57823044498184" y="356.380658436214" font-size="10px">12.99x</text><text class="label" x="450.26547430386216" y="369.54938271604937" font-size="10px">11.91x</text><text class="label" x="182.9929176526805" y="382.7181069958848" font-size="10px">1x</text><text class="label" x="184.65592759613506" y="395.88683127572017" font-size="10px">1.07x</text><text class="label" x="473.07823044498184" y="357.880658436214" font-size="8px"></text><text class="label" x="446.76547430386216" y="371.04938271604937" font-size="8px"></text><text class="label" x="179.4929176526805" y="384.2181069958848" font-size="8px"></text><text class="label" x="181.15592759613506" y="397.38683127572017" font-size="8px"></text></g><g style="font-size: 13px;"><rect x="150" y="407.13991769547323" width="253.26284051500716" height="12.510288065843621" fill="#4472c4"></rect><rect x="150" y="420.3086419753086" width="261.249921347426" height="12.510288065843621" fill="#ed7d31"></rect><rect x="150" y="433.47736625514403" width="26.422143223302356" height="12.510288065843621" fill="#a5a5a5"></rect><rect x="150" y="446.6460905349794" width="24.492917652680475" height="12.510288065843621" fill="#ffc000"></rect><text class="label" x="411.76284051500716" y="415.63991769547323" font-size="10px">10.34x</text><text class="label" x="419.749921347426" y="428.8086419753086" font-size="10px">10.67x</text><text class="label" x="184.92214322330236" y="441.97736625514403" font-size="10px">1.08x</text><text class="label" x="182.9929176526805" y="455.1460905349794" font-size="10px">1x</text><text class="label" x="408.26284051500716" y="417.13991769547323" font-size="8px"></text><text class="label" x="416.249921347426" y="430.3086419753086" font-size="8px"></text><text class="label" x="181.42214322330236" y="443.47736625514403" font-size="8px"></text><text class="label" x="179.4929176526805" y="456.6460905349794" font-size="8px"></text></g><g style="font-size: 13px;"><rect x="150" y="466.3991769547325" width="197.8369088996923" height="12.510288065843621" fill="#4472c4"></rect><rect x="150" y="479.5679012345679" width="210.32390557349262" height="12.510288065843621" fill="#ed7d31"></rect><rect x="150" y="492.73662551440333" width="25.246390935477145" height="12.510288065843621" fill="#a5a5a5"></rect><rect x="150" y="505.9053497942387" width="24.492917652680475" height="12.510288065843621" fill="#ffc000"></rect><text class="label" x="356.3369088996923" y="474.8991769547325" font-size="10px">8.08x</text><text class="label" x="368.82390557349265" y="488.0679012345679" font-size="10px">8.59x</text><text class="label" x="183.74639093547714" y="501.23662551440333" font-size="10px">1.03x</text><text class="label" x="182.9929176526805" y="514.4053497942386" font-size="10px">1x</text><text class="label" x="352.8369088996923" y="476.3991769547325" font-size="8px"></text><text class="label" x="365.32390557349265" y="489.5679012345679" font-size="8px"></text><text class="label" x="180.24639093547714" y="502.73662551440333" font-size="8px"></text><text class="label" x="179.4929176526805" y="515.9053497942386" font-size="8px"></text></g></g></svg>