<svg xmlns="http://www.w3.org/2000/svg" xmlns:xlink="http://www.w3.org/1999/xlink" width="800" height="674" style="background-color: white;"><g class="y axis" transform="translate(149,45)" fill="none" font-size="10" font-family="sans-serif" text-anchor="end" style="font-size: 13px;"><path class="domain" stroke="currentColor" d="M0.5,0.5V480.5"></path><g class="tick" opacity="1" transform="translate(0,32.592592592592595)" style="font-size: 13px;"><line stroke="currentColor" x2="0"></line><text fill="currentColor" x="-3" dy="0.32em">object (simple)    </text></g><g class="tick" opacity="1" transform="translate(0,91.85185185185186)" style="font-size: 13px;"><line stroke="currentColor" x2="0"></line><text fill="currentColor" x="-3" dy="0.32em">object (hierarchical)    </text></g><g class="tick" opacity="1" transform="translate(0,151.11111111111111)" style="font-size: 13px;"><line stroke="currentColor" x2="0"></line><text fill="currentColor" x="-3" dy="0.32em">object (recursive)    </text></g><g class="tick" opacity="1" transform="translate(0,210.37037037037035)" style="font-size: 13px;"><line stroke="currentColor" x2="0"></line><text fill="currentColor" x="-3" dy="0.32em">object (union, explicit)    </text></g><g class="tick" opacity="1" transform="translate(0,269.6296296296296)" style="font-size: 13px;"><line stroke="currentColor" x2="0"></line><text fill="currentColor" x="-3" dy="0.32em">array (simple)    </text></g><g class="tick" opacity="1" transform="translate(0,328.8888888888889)" style="font-size: 13px;"><line stroke="currentColor" x2="0"></line><text fill="currentColor" x="-3" dy="0.32em">array (hierarchical)    </text></g><g class="tick" opacity="1" transform="translate(0,388.14814814814815)" style="font-size: 13px;"><line stroke="currentColor" x2="0"></line><text fill="currentColor" x="-3" dy="0.32em">array (recursive)    </text></g><g class="tick" opacity="1" transform="translate(0,447.40740740740745)" style="font-size: 13px;"><line stroke="currentColor" x2="0"></line><text fill="currentColor" x="-3" dy="0.32em">array (union, explicit)    </text></g></g><g class="x axis" transform="translate(149,525)" fill="none" font-size="10" font-family="sans-serif" text-anchor="middle" style="font-size: 13px;"><path class="domain" stroke="currentColor" d="M0.5,0.5H485.5"></path><g class="tick" opacity="1" transform="translate(0.5,0)" style="font-size: 13px;"><line stroke="currentColor" y2="6"></line><text fill="currentColor" y="9" dy="0.71em">0x</text></g><g class="tick" opacity="1" transform="translate(119.84955587091865,0)" style="font-size: 13px;"><line stroke="currentColor" y2="6"></line><text fill="currentColor" y="9" dy="0.71em">5x</text></g><g class="tick" opacity="1" transform="translate(239.1991117418373,0)" style="font-size: 13px;"><line stroke="currentColor" y2="6"></line><text fill="currentColor" y="9" dy="0.71em">10x</text></g><g class="tick" opacity="1" transform="translate(358.54866761275593,0)" style="font-size: 13px;"><line stroke="currentColor" y2="6"></line><text fill="currentColor" y="9" dy="0.71em">15x</text></g><g class="tick" opacity="1" transform="translate(477.8982234836746,0)" style="font-size: 13px;"><line stroke="currentColor" y2="6"></line><text fill="currentColor" y="9" dy="0.71em">20x</text></g></g><text transform="translate(400, 30)" style="text-anchor: middle; font-size: 20px; font-weight: bold;">stringify benchmark</text><rect x="650" y="125" width="230" height="5" fill="gray"></rect><rect x="645" y="35" width="230" height="90" fill="none" stroke="black"></rect><rect x="655" y="45" width="10" height="10" style="fill: #4472c4;"></rect><text x="670" y="55" style="font-size: 12px;">nestia-express</text><rect x="655" y="65" width="10" height="10" style="fill: #ed7d31;"></rect><text x="670" y="75" style="font-size: 12px;">nestia-fastify</text><rect x="655" y="85" width="10" height="10" style="fill: #a5a5a5;"></rect><text x="670" y="95" style="font-size: 12px;">NestJS-express</text><rect x="655" y="105" width="10" height="10" style="fill: #ffc000;"></rect><text x="670" y="115" style="font-size: 12px;">NestJS-fastify</text><text x="20" y="589" style="font-size: 12px;">  - CPU: 11th Gen Intel(R) Core(TM) i5-1135G7 @ 2.40GHz</text><text x="20" y="606" style="font-size: 12px;">  - OS: win32</text><text x="20" y="623" style="font-size: 12px;">  - RAM: 16 GB</text><text x="20" y="640" style="font-size: 12px;">  - NodeJS version: v16.20.0</text><text x="20" y="657" style="font-size: 12px;">  - Typia version: v0.1.0</text><g style="font-size: 13px;"><g style="font-size: 13px;"><rect x="150" y="51.584362139917694" width="162.5446833706396" height="12.510288065843621" fill="#4472c4"></rect><rect x="150" y="64.75308641975309" width="362.7670484658091" height="12.510288065843621" fill="#ed7d31"></rect><rect x="150" y="77.92181069958848" width="23.86991117418373" height="12.510288065843621" fill="#a5a5a5"></rect><rect x="150" y="91.09053497942386" width="26.06751824291136" height="12.510288065843621" fill="#ffc000"></rect><text class="label" x="321.04468337063963" y="60.084362139917694" font-size="10px">6.81x</text><text class="label" x="521.2670484658091" y="73.25308641975309" font-size="10px">15.2x</text><text class="label" x="182.36991117418373" y="86.42181069958848" font-size="10px">1x</text><text class="label" x="184.56751824291135" y="99.59053497942386" font-size="10px">1.09x</text><text class="label" x="317.54468337063963" y="61.584362139917694" font-size="8px"></text><text class="label" x="517.7670484658091" y="74.75308641975309" font-size="8px"></text><text class="label" x="178.86991117418373" y="87.92181069958848" font-size="8px"></text><text class="label" x="181.06751824291135" y="101.09053497942386" font-size="8px"></text></g><g style="font-size: 13px;"><rect x="150" y="110.84362139917695" width="202.11854862003062" height="12.510288065843621" fill="#4472c4"></rect><rect x="150" y="124.01234567901236" width="240.6546055154998" height="12.510288065843621" fill="#ed7d31"></rect><rect x="150" y="137.18106995884773" width="23.86991117418373" height="12.510288065843621" fill="#a5a5a5"></rect><rect x="150" y="150.34979423868313" width="24.961293851220322" height="12.510288065843621" fill="#ffc000"></rect><text class="label" x="360.61854862003065" y="119.34362139917695" font-size="10px">8.47x</text><text class="label" x="399.15460551549984" y="132.51234567901236" font-size="10px">10.08x</text><text class="label" x="182.36991117418373" y="145.68106995884773" font-size="10px">1x</text><text class="label" x="183.46129385122032" y="158.84979423868313" font-size="10px">1.05x</text><text class="label" x="357.11854862003065" y="120.84362139917695" font-size="8px"></text><text class="label" x="395.65460551549984" y="134.01234567901236" font-size="8px"></text><text class="label" x="178.86991117418373" y="147.18106995884773" font-size="8px"></text><text class="label" x="179.96129385122032" y="160.34979423868313" font-size="8px"></text></g><g style="font-size: 13px;"><rect x="150" y="170.10288065843622" width="222.09648672420343" height="12.510288065843621" fill="#4472c4"></rect><rect x="150" y="183.2716049382716" width="285.75195554196483" height="12.510288065843621" fill="#ed7d31"></rect><rect x="150" y="196.440329218107" width="23.86991117418373" height="12.510288065843621" fill="#a5a5a5"></rect><rect x="150" y="209.6090534979424" width="24.696466230747316" height="12.510288065843621" fill="#ffc000"></rect><text class="label" x="380.59648672420343" y="178.60288065843622" font-size="10px">9.3x</text><text class="label" x="444.25195554196483" y="191.7716049382716" font-size="10px">11.97x</text><text class="label" x="182.36991117418373" y="204.940329218107" font-size="10px">1x</text><text class="label" x="183.19646623074732" y="218.1090534979424" font-size="10px">1.03x</text><text class="label" x="377.09648672420343" y="180.10288065843622" font-size="8px"></text><text class="label" x="440.75195554196483" y="193.2716049382716" font-size="8px"></text><text class="label" x="178.86991117418373" y="206.440329218107" font-size="8px"></text><text class="label" x="179.69646623074732" y="219.6090534979424" font-size="8px"></text></g><g style="font-size: 13px;"><rect x="150" y="229.36213991769546" width="361.2913921240094" height="12.510288065843621" fill="#4472c4"></rect><rect x="150" y="242.53086419753086" width="440.9090909090908" height="12.510288065843621" fill="#ed7d31"></rect><rect x="150" y="255.69958847736626" width="23.86991117418373" height="12.510288065843621" fill="#a5a5a5"></rect><rect x="150" y="268.86831275720164" width="24.924510043670246" height="12.510288065843621" fill="#ffc000"></rect><text class="label" x="519.7913921240095" y="237.86213991769546" font-size="10px">15.14x</text><text class="label" x="599.4090909090908" y="251.03086419753086" font-size="10px">18.47x</text><text class="label" x="182.36991117418373" y="264.19958847736626" font-size="10px">1x</text><text class="label" x="183.42451004367024" y="277.36831275720164" font-size="10px">1.04x</text><text class="label" x="516.2913921240095" y="239.36213991769546" font-size="8px"></text><text class="label" x="595.9090909090908" y="252.53086419753086" font-size="8px"></text><text class="label" x="178.86991117418373" y="265.69958847736626" font-size="8px"></text><text class="label" x="179.92451004367024" y="278.86831275720164" font-size="8px"></text></g><g style="font-size: 13px;"><rect x="150" y="288.6213991769547" width="175.33246977813033" height="12.510288065843621" fill="#4472c4"></rect><rect x="150" y="301.7901234567901" width="217.58904418818466" height="12.510288065843621" fill="#ed7d31"></rect><rect x="150" y="314.9588477366255" width="24.352807198644303" height="12.510288065843621" fill="#a5a5a5"></rect><rect x="150" y="328.12757201646093" width="23.86991117418373" height="12.510288065843621" fill="#ffc000"></rect><text class="label" x="333.8324697781303" y="297.1213991769547" font-size="10px">7.35x</text><text class="label" x="376.08904418818463" y="310.2901234567901" font-size="10px">9.12x</text><text class="label" x="182.8528071986443" y="323.4588477366255" font-size="10px">1.02x</text><text class="label" x="182.36991117418373" y="336.62757201646093" font-size="10px">1x</text><text class="label" x="330.3324697781303" y="298.6213991769547" font-size="8px"></text><text class="label" x="372.58904418818463" y="311.7901234567901" font-size="8px"></text><text class="label" x="179.3528071986443" y="324.9588477366255" font-size="8px"></text><text class="label" x="178.86991117418373" y="338.12757201646093" font-size="8px"></text></g><g style="font-size: 13px;"><rect x="150" y="347.880658436214" width="281.21750832229475" height="12.510288065843621" fill="#4472c4"></rect><rect x="150" y="361.04938271604937" width="286.4771186624689" height="12.510288065843621" fill="#ed7d31"></rect><rect x="150" y="374.2181069958848" width="23.86991117418373" height="12.510288065843621" fill="#a5a5a5"></rect><rect x="150" y="387.38683127572017" width="24.031053388368043" height="12.510288065843621" fill="#ffc000"></rect><text class="label" x="439.71750832229475" y="356.380658436214" font-size="10px">11.78x</text><text class="label" x="444.9771186624689" y="369.54938271604937" font-size="10px">12x</text><text class="label" x="182.36991117418373" y="382.7181069958848" font-size="10px">1x</text><text class="label" x="182.53105338836804" y="395.88683127572017" font-size="10px">1.01x</text><text class="label" x="436.21750832229475" y="357.880658436214" font-size="8px"></text><text class="label" x="441.4771186624689" y="371.04938271604937" font-size="8px"></text><text class="label" x="178.86991117418373" y="384.2181069958848" font-size="8px"></text><text class="label" x="179.03105338836804" y="397.38683127572017" font-size="8px"></text></g><g style="font-size: 13px;"><rect x="150" y="407.13991769547323" width="230.71539809484997" height="12.510288065843621" fill="#4472c4"></rect><rect x="150" y="420.3086419753086" width="250.47110584135655" height="12.510288065843621" fill="#ed7d31"></rect><rect x="150" y="433.47736625514403" width="23.86991117418373" height="12.510288065843621" fill="#a5a5a5"></rect><rect x="150" y="446.6460905349794" width="25.042999190622886" height="12.510288065843621" fill="#ffc000"></rect><text class="label" x="389.21539809485" y="415.63991769547323" font-size="10px">9.67x</text><text class="label" x="408.9711058413566" y="428.8086419753086" font-size="10px">10.49x</text><text class="label" x="182.36991117418373" y="441.97736625514403" font-size="10px">1x</text><text class="label" x="183.54299919062288" y="455.1460905349794" font-size="10px">1.05x</text><text class="label" x="385.71539809485" y="417.13991769547323" font-size="8px"></text><text class="label" x="405.4711058413566" y="430.3086419753086" font-size="8px"></text><text class="label" x="178.86991117418373" y="443.47736625514403" font-size="8px"></text><text class="label" x="180.04299919062288" y="456.6460905349794" font-size="8px"></text></g><g style="font-size: 13px;"><rect x="150" y="466.3991769547325" width="189.54213447558223" height="12.510288065843621" fill="#4472c4"></rect><rect x="150" y="479.5679012345679" width="202.23611771369397" height="12.510288065843621" fill="#ed7d31"></rect><rect x="150" y="492.73662551440333" width="23.86991117418373" height="12.510288065843621" fill="#a5a5a5"></rect><rect x="150" y="505.9053497942387" width="24.588176631259223" height="12.510288065843621" fill="#ffc000"></rect><text class="label" x="348.0421344755822" y="474.8991769547325" font-size="10px">7.94x</text><text class="label" x="360.73611771369394" y="488.0679012345679" font-size="10px">8.47x</text><text class="label" x="182.36991117418373" y="501.23662551440333" font-size="10px">1x</text><text class="label" x="183.08817663125922" y="514.4053497942386" font-size="10px">1.03x</text><text class="label" x="344.5421344755822" y="476.3991769547325" font-size="8px"></text><text class="label" x="357.23611771369394" y="489.5679012345679" font-size="8px"></text><text class="label" x="178.86991117418373" y="502.73662551440333" font-size="8px"></text><text class="label" x="179.58817663125922" y="515.9053497942386" font-size="8px"></text></g></g></svg>