<svg xmlns="http://www.w3.org/2000/svg" xmlns:xlink="http://www.w3.org/1999/xlink" width="800" height="794" style="background-color: white;"><g class="y axis" transform="translate(149,45)" fill="none" font-size="10" font-family="sans-serif" text-anchor="end" style="font-size: 13px;"><path class="domain" stroke="currentColor" d="M0.5,0.5V600.5"></path><g class="tick" opacity="1" transform="translate(0,40.740740740740726)" style="font-size: 13px;"><line stroke="currentColor" x2="0"></line><text fill="currentColor" x="-3" dy="0.32em">object (simple)    </text></g><g class="tick" opacity="1" transform="translate(0,114.81481481481481)" style="font-size: 13px;"><line stroke="currentColor" x2="0"></line><text fill="currentColor" x="-3" dy="0.32em">object (hierarchical)    </text></g><g class="tick" opacity="1" transform="translate(0,188.88888888888889)" style="font-size: 13px;"><line stroke="currentColor" x2="0"></line><text fill="currentColor" x="-3" dy="0.32em">object (recursive)    </text></g><g class="tick" opacity="1" transform="translate(0,262.96296296296293)" style="font-size: 13px;"><line stroke="currentColor" x2="0"></line><text fill="currentColor" x="-3" dy="0.32em">object (union, explicit)    </text></g><g class="tick" opacity="1" transform="translate(0,337.037037037037)" style="font-size: 13px;"><line stroke="currentColor" x2="0"></line><text fill="currentColor" x="-3" dy="0.32em">array (simple)    </text></g><g class="tick" opacity="1" transform="translate(0,411.1111111111111)" style="font-size: 13px;"><line stroke="currentColor" x2="0"></line><text fill="currentColor" x="-3" dy="0.32em">array (hierarchical)    </text></g><g class="tick" opacity="1" transform="translate(0,485.18518518518516)" style="font-size: 13px;"><line stroke="currentColor" x2="0"></line><text fill="currentColor" x="-3" dy="0.32em">array (recursive)    </text></g><g class="tick" opacity="1" transform="translate(0,559.2592592592592)" style="font-size: 13px;"><line stroke="currentColor" x2="0"></line><text fill="currentColor" x="-3" dy="0.32em">array (union, explicit)    </text></g></g><g class="x axis" transform="translate(149,645)" fill="none" font-size="10" font-family="sans-serif" text-anchor="middle" style="font-size: 13px;"><path class="domain" stroke="currentColor" d="M0.5,0.5H485.5"></path><g class="tick" opacity="1" transform="translate(0.5,0)" style="font-size: 13px;"><line stroke="currentColor" y2="6"></line><text fill="currentColor" y="9" dy="0.71em">0x</text></g><g class="tick" opacity="1" transform="translate(114.3017588353065,0)" style="font-size: 13px;"><line stroke="currentColor" y2="6"></line><text fill="currentColor" y="9" dy="0.71em">5x</text></g><g class="tick" opacity="1" transform="translate(228.103517670613,0)" style="font-size: 13px;"><line stroke="currentColor" y2="6"></line><text fill="currentColor" y="9" dy="0.71em">10x</text></g><g class="tick" opacity="1" transform="translate(341.90527650591946,0)" style="font-size: 13px;"><line stroke="currentColor" y2="6"></line><text fill="currentColor" y="9" dy="0.71em">15x</text></g><g class="tick" opacity="1" transform="translate(455.707035341226,0)" style="font-size: 13px;"><line stroke="currentColor" y2="6"></line><text fill="currentColor" y="9" dy="0.71em">20x</text></g></g><text transform="translate(400, 30)" style="text-anchor: middle; font-size: 20px; font-weight: bold;">stringify benchmark</text><rect x="650" y="145" width="230" height="5" fill="gray"></rect><rect x="645" y="35" width="230" height="110" fill="none" stroke="black"></rect><rect x="655" y="45" width="10" height="10" style="fill: #4472c4;"></rect><text x="670" y="55" style="font-size: 12px;">nestia-express</text><rect x="655" y="65" width="10" height="10" style="fill: #ed7d31;"></rect><text x="670" y="75" style="font-size: 12px;">nestia-fastify</text><rect x="655" y="85" width="10" height="10" style="fill: #a5a5a5;"></rect><text x="670" y="95" style="font-size: 12px;">fastify</text><rect x="655" y="105" width="10" height="10" style="fill: #ffc000;"></rect><text x="670" y="115" style="font-size: 12px;">NestJS-express</text><rect x="655" y="125" width="10" height="10" style="fill: #5b9bd5;"></rect><text x="670" y="135" style="font-size: 12px;">NestJS-fastify</text><text x="20" y="709" style="font-size: 12px;">  - CPU: 11th Gen Intel(R) Core(TM) i5-1135G7 @ 2.40GHz</text><text x="20" y="726" style="font-size: 12px;">  - OS: win32</text><text x="20" y="743" style="font-size: 12px;">  - RAM: 16 GB</text><text x="20" y="760" style="font-size: 12px;">  - NodeJS version: v16.20.0</text><text x="20" y="777" style="font-size: 12px;">  - Nestia version: v1.4.1</text><g style="font-size: 13px;"><g style="font-size: 13px;"><rect x="150" y="53.06747341400805" width="203.10018273496982" height="12.541254125412543" fill="#4472c4"></rect><rect x="150" y="66.26879354602124" width="380.52082313895033" height="12.541254125412543" fill="#ed7d31"></rect><rect x="150" y="79.47011367803445" width="339.35086428774196" height="12.541254125412543" fill="#a5a5a5"></rect><rect x="150" y="92.67143381004766" width="25.949076007651545" height="12.541254125412543" fill="#ffc000"></rect><rect x="150" y="105.87275394206085" width="22.760351767061298" height="12.541254125412543" fill="#5b9bd5"></rect><text class="label" x="361.60018273496985" y="61.56747341400805" font-size="10px">8.92x</text><text class="label" x="539.0208231389504" y="74.76879354602124" font-size="10px">16.72x</text><text class="label" x="497.85086428774196" y="87.97011367803445" font-size="10px">14.91x</text><text class="label" x="184.44907600765154" y="101.17143381004766" font-size="10px">1.14x</text><text class="label" x="181.2603517670613" y="114.37275394206085" font-size="10px">1x</text><text class="label" x="358.10018273496985" y="63.06747341400805" font-size="8px"></text><text class="label" x="535.5208231389504" y="76.26879354602124" font-size="8px"></text><text class="label" x="494.35086428774196" y="89.47011367803445" font-size="8px"></text><text class="label" x="180.94907600765154" y="102.67143381004766" font-size="8px"></text><text class="label" x="177.7603517670613" y="115.87275394206085" font-size="8px"></text></g><g style="font-size: 13px;"><rect x="150" y="127.14154748808213" width="262.2191993870477" height="12.541254125412543" fill="#4472c4"></rect><rect x="150" y="140.34286762009532" width="319.55324068187144" height="12.541254125412543" fill="#ed7d31"></rect><rect x="150" y="153.54418775210854" width="244.9367081402222" height="12.541254125412543" fill="#a5a5a5"></rect><rect x="150" y="166.74550788412174" width="22.760351767061298" height="12.541254125412543" fill="#ffc000"></rect><rect x="150" y="179.94682801613493" width="24.21975522766126" height="12.541254125412543" fill="#5b9bd5"></rect><text class="label" x="420.7191993870477" y="135.64154748808213" font-size="10px">11.52x</text><text class="label" x="478.05324068187144" y="148.84286762009532" font-size="10px">14.04x</text><text class="label" x="403.4367081402222" y="162.04418775210854" font-size="10px">10.76x</text><text class="label" x="181.2603517670613" y="175.24550788412174" font-size="10px">1x</text><text class="label" x="182.71975522766127" y="188.44682801613493" font-size="10px">1.06x</text><text class="label" x="417.2191993870477" y="137.14154748808213" font-size="8px"></text><text class="label" x="474.55324068187144" y="150.34286762009532" font-size="8px"></text><text class="label" x="399.9367081402222" y="163.54418775210854" font-size="8px"></text><text class="label" x="177.7603517670613" y="176.74550788412174" font-size="8px"></text><text class="label" x="179.21975522766127" y="189.94682801613493" font-size="8px"></text></g><g style="font-size: 13px;"><rect x="150" y="201.2156215621562" width="257.11172290107237" height="12.541254125412543" fill="#4472c4"></rect><rect x="150" y="214.4169416941694" width="363.64714866500856" height="12.541254125412543" fill="#ed7d31"></rect><rect x="150" y="227.61826182618262" width="130.21555975701412" height="12.541254125412543" fill="#a5a5a5"></rect><rect x="150" y="240.8195819581958" width="23.13315337997675" height="12.541254125412543" fill="#ffc000"></rect><rect x="150" y="254.020902090209" width="22.760351767061298" height="12.541254125412543" fill="#5b9bd5"></rect><text class="label" x="415.61172290107237" y="209.7156215621562" font-size="10px">11.3x</text><text class="label" x="522.1471486650086" y="222.9169416941694" font-size="10px">15.98x</text><text class="label" x="288.71555975701415" y="236.11826182618262" font-size="10px">5.72x</text><text class="label" x="181.63315337997676" y="249.3195819581958" font-size="10px">1.02x</text><text class="label" x="181.2603517670613" y="262.520902090209" font-size="10px">1x</text><text class="label" x="412.11172290107237" y="211.2156215621562" font-size="8px"></text><text class="label" x="518.6471486650086" y="224.4169416941694" font-size="8px"></text><text class="label" x="285.21555975701415" y="237.61826182618262" font-size="8px"></text><text class="label" x="178.13315337997676" y="250.8195819581958" font-size="8px"></text><text class="label" x="177.7603517670613" y="264.020902090209" font-size="8px"></text></g><g style="font-size: 13px;"><rect x="150" y="275.28969563623025" width="352.82553300430885" height="12.541254125412543" fill="#4472c4"></rect><rect x="150" y="288.49101576824347" width="440.9090909090908" height="12.541254125412543" fill="#ed7d31"></rect><rect x="150" y="301.6923359002567" width="236.8166316523536" height="12.541254125412543" fill="#a5a5a5"></rect><rect x="150" y="314.89365603226986" width="22.760351767061298" height="12.541254125412543" fill="#ffc000"></rect><rect x="150" y="328.0949761642831" width="25.016299614162556" height="12.541254125412543" fill="#5b9bd5"></rect><text class="label" x="511.32553300430885" y="283.78969563623025" font-size="10px">15.5x</text><text class="label" x="599.4090909090908" y="296.99101576824347" font-size="10px">19.37x</text><text class="label" x="395.31663165235364" y="310.1923359002567" font-size="10px">10.4x</text><text class="label" x="181.2603517670613" y="323.39365603226986" font-size="10px">1x</text><text class="label" x="183.51629961416256" y="336.5949761642831" font-size="10px">1.1x</text><text class="label" x="507.82553300430885" y="285.28969563623025" font-size="8px"></text><text class="label" x="595.9090909090908" y="298.49101576824347" font-size="8px"></text><text class="label" x="391.81663165235364" y="311.6923359002567" font-size="8px"></text><text class="label" x="177.7603517670613" y="324.89365603226986" font-size="8px"></text><text class="label" x="180.01629961416256" y="338.0949761642831" font-size="8px"></text></g><g style="font-size: 13px;"><rect x="150" y="349.3637697103044" width="181.06297528830598" height="12.541254125412543" fill="#4472c4"></rect><rect x="150" y="362.56508984231755" width="234.59278038420607" height="12.541254125412543" fill="#ed7d31"></rect><rect x="150" y="375.76640997433077" width="176.16455178168934" height="12.541254125412543" fill="#a5a5a5"></rect><rect x="150" y="388.967730106344" width="22.760351767061298" height="12.541254125412543" fill="#ffc000"></rect><rect x="150" y="402.16905023835716" width="24.496686843316834" height="12.541254125412543" fill="#5b9bd5"></rect><text class="label" x="339.562975288306" y="357.8637697103044" font-size="10px">7.96x</text><text class="label" x="393.0927803842061" y="371.06508984231755" font-size="10px">10.31x</text><text class="label" x="334.66455178168934" y="384.26640997433077" font-size="10px">7.74x</text><text class="label" x="181.2603517670613" y="397.467730106344" font-size="10px">1x</text><text class="label" x="182.99668684331684" y="410.66905023835716" font-size="10px">1.08x</text><text class="label" x="336.062975288306" y="359.3637697103044" font-size="8px"></text><text class="label" x="389.5927803842061" y="372.56508984231755" font-size="8px"></text><text class="label" x="331.16455178168934" y="385.76640997433077" font-size="8px"></text><text class="label" x="177.7603517670613" y="398.967730106344" font-size="8px"></text><text class="label" x="179.49668684331684" y="412.16905023835716" font-size="8px"></text></g><g style="font-size: 13px;"><rect x="150" y="423.4378437843784" width="323.4944420743002" height="12.541254125412543" fill="#4472c4"></rect><rect x="150" y="436.6391639163916" width="329.98184407174284" height="12.541254125412543" fill="#ed7d31"></rect><rect x="150" y="449.84048404840485" width="130.36769339123606" height="12.541254125412543" fill="#a5a5a5"></rect><rect x="150" y="463.041804180418" width="24.098870985906757" height="12.541254125412543" fill="#ffc000"></rect><rect x="150" y="476.24312431243123" width="22.760351767061298" height="12.541254125412543" fill="#5b9bd5"></rect><text class="label" x="481.9944420743002" y="431.9378437843784" font-size="10px">14.21x</text><text class="label" x="488.48184407174284" y="445.1391639163916" font-size="10px">14.5x</text><text class="label" x="288.86769339123606" y="458.34048404840485" font-size="10px">5.73x</text><text class="label" x="182.59887098590676" y="471.541804180418" font-size="10px">1.06x</text><text class="label" x="181.2603517670613" y="484.74312431243123" font-size="10px">1x</text><text class="label" x="478.4944420743002" y="433.4378437843784" font-size="8px"></text><text class="label" x="484.98184407174284" y="446.6391639163916" font-size="8px"></text><text class="label" x="285.36769339123606" y="459.84048404840485" font-size="8px"></text><text class="label" x="179.09887098590676" y="473.041804180418" font-size="8px"></text><text class="label" x="177.7603517670613" y="486.24312431243123" font-size="8px"></text></g><g style="font-size: 13px;"><rect x="150" y="497.51191785845253" width="241.81375754180522" height="12.541254125412543" fill="#4472c4"></rect><rect x="150" y="510.7132379904657" width="260.88353054651884" height="12.541254125412543" fill="#ed7d31"></rect><rect x="150" y="523.9145581224789" width="153.71422980735267" height="12.541254125412543" fill="#a5a5a5"></rect><rect x="150" y="537.1158782544921" width="23.162149609895014" height="12.541254125412543" fill="#ffc000"></rect><rect x="150" y="550.3171983865053" width="22.760351767061298" height="12.541254125412543" fill="#5b9bd5"></rect><text class="label" x="400.3137575418052" y="506.01191785845253" font-size="10px">10.62x</text><text class="label" x="419.38353054651884" y="519.2132379904657" font-size="10px">11.46x</text><text class="label" x="312.2142298073527" y="532.4145581224789" font-size="10px">6.75x</text><text class="label" x="181.662149609895" y="545.6158782544921" font-size="10px">1.02x</text><text class="label" x="181.2603517670613" y="558.8171983865053" font-size="10px">1x</text><text class="label" x="396.8137575418052" y="507.51191785845253" font-size="8px"></text><text class="label" x="415.88353054651884" y="520.7132379904657" font-size="8px"></text><text class="label" x="308.7142298073527" y="533.9145581224789" font-size="8px"></text><text class="label" x="178.162149609895" y="547.1158782544921" font-size="8px"></text><text class="label" x="177.7603517670613" y="560.3171983865053" font-size="8px"></text></g><g style="font-size: 13px;"><rect x="150" y="571.5859919325266" width="225.0166826620218" height="12.541254125412543" fill="#4472c4"></rect><rect x="150" y="584.7873120645397" width="242.1840402866854" height="12.541254125412543" fill="#ed7d31"></rect><rect x="150" y="597.9886321965529" width="52.80597745545584" height="12.541254125412543" fill="#a5a5a5"></rect><rect x="150" y="611.1899523285662" width="22.760351767061298" height="12.541254125412543" fill="#ffc000"></rect><rect x="150" y="624.3912724605793" width="25.57700475055092" height="12.541254125412543" fill="#5b9bd5"></rect><text class="label" x="383.5166826620218" y="580.0859919325266" font-size="10px">9.89x</text><text class="label" x="400.6840402866854" y="593.2873120645397" font-size="10px">10.64x</text><text class="label" x="211.30597745545583" y="606.4886321965529" font-size="10px">2.32x</text><text class="label" x="181.2603517670613" y="619.6899523285662" font-size="10px">1x</text><text class="label" x="184.0770047505509" y="632.8912724605793" font-size="10px">1.12x</text><text class="label" x="380.0166826620218" y="581.5859919325266" font-size="8px"></text><text class="label" x="397.1840402866854" y="594.7873120645397" font-size="8px"></text><text class="label" x="207.80597745545583" y="607.9886321965529" font-size="8px"></text><text class="label" x="177.7603517670613" y="621.1899523285662" font-size="8px"></text><text class="label" x="180.5770047505509" y="634.3912724605793" font-size="8px"></text></g></g></svg>