<svg xmlns="http://www.w3.org/2000/svg" xmlns:xlink="http://www.w3.org/1999/xlink" width="800" height="674" style="background-color: white;"><g class="y axis" transform="translate(149,45)" fill="none" font-size="10" font-family="sans-serif" text-anchor="end" style="font-size: 13px;"><path class="domain" stroke="currentColor" d="M0.5,0.5V480.5"></path><g class="tick" opacity="1" transform="translate(0,32.592592592592595)" style="font-size: 13px;"><line stroke="currentColor" x2="0"></line><text fill="currentColor" x="-3" dy="0.32em">object (simple)    </text></g><g class="tick" opacity="1" transform="translate(0,91.85185185185186)" style="font-size: 13px;"><line stroke="currentColor" x2="0"></line><text fill="currentColor" x="-3" dy="0.32em">object (hierarchical)    </text></g><g class="tick" opacity="1" transform="translate(0,151.11111111111111)" style="font-size: 13px;"><line stroke="currentColor" x2="0"></line><text fill="currentColor" x="-3" dy="0.32em">object (recursive)    </text></g><g class="tick" opacity="1" transform="translate(0,210.37037037037035)" style="font-size: 13px;"><line stroke="currentColor" x2="0"></line><text fill="currentColor" x="-3" dy="0.32em">object (union, explicit)    </text></g><g class="tick" opacity="1" transform="translate(0,269.6296296296296)" style="font-size: 13px;"><line stroke="currentColor" x2="0"></line><text fill="currentColor" x="-3" dy="0.32em">array (simple)    </text></g><g class="tick" opacity="1" transform="translate(0,328.8888888888889)" style="font-size: 13px;"><line stroke="currentColor" x2="0"></line><text fill="currentColor" x="-3" dy="0.32em">array (hierarchical)    </text></g><g class="tick" opacity="1" transform="translate(0,388.14814814814815)" style="font-size: 13px;"><line stroke="currentColor" x2="0"></line><text fill="currentColor" x="-3" dy="0.32em">array (recursive)    </text></g><g class="tick" opacity="1" transform="translate(0,447.40740740740745)" style="font-size: 13px;"><line stroke="currentColor" x2="0"></line><text fill="currentColor" x="-3" dy="0.32em">array (union, explicit)    </text></g></g><g class="x axis" transform="translate(149,525)" fill="none" font-size="10" font-family="sans-serif" text-anchor="middle" style="font-size: 13px;"><path class="domain" stroke="currentColor" d="M0.5,0.5H485.5"></path><g class="tick" opacity="1" transform="translate(0.5,0)" style="font-size: 13px;"><line stroke="currentColor" y2="6"></line><text fill="currentColor" y="9" dy="0.71em">0x</text></g><g class="tick" opacity="1" transform="translate(108.18232317728766,0)" style="font-size: 13px;"><line stroke="currentColor" y2="6"></line><text fill="currentColor" y="9" dy="0.71em">5x</text></g><g class="tick" opacity="1" transform="translate(215.8646463545753,0)" style="font-size: 13px;"><line stroke="currentColor" y2="6"></line><text fill="currentColor" y="9" dy="0.71em">10x</text></g><g class="tick" opacity="1" transform="translate(323.54696953186294,0)" style="font-size: 13px;"><line stroke="currentColor" y2="6"></line><text fill="currentColor" y="9" dy="0.71em">15x</text></g><g class="tick" opacity="1" transform="translate(431.2292927091506,0)" style="font-size: 13px;"><line stroke="currentColor" y2="6"></line><text fill="currentColor" y="9" dy="0.71em">20x</text></g></g><text transform="translate(400, 30)" style="text-anchor: middle; font-size: 20px; font-weight: bold;">stringify benchmark</text><rect x="650" y="125" width="230" height="5" fill="gray"></rect><rect x="645" y="35" width="230" height="90" fill="none" stroke="black"></rect><rect x="655" y="45" width="10" height="10" style="fill: #4472c4;"></rect><text x="670" y="55" style="font-size: 12px;">nestia-express</text><rect x="655" y="65" width="10" height="10" style="fill: #ed7d31;"></rect><text x="670" y="75" style="font-size: 12px;">nestia-fastify</text><rect x="655" y="85" width="10" height="10" style="fill: #a5a5a5;"></rect><text x="670" y="95" style="font-size: 12px;">NestJS-express</text><rect x="655" y="105" width="10" height="10" style="fill: #ffc000;"></rect><text x="670" y="115" style="font-size: 12px;">NestJS-fastify</text><text x="20" y="589" style="font-size: 12px;">  - CPU: 11th Gen Intel(R) Core(TM) i5-1135G7 @ 2.40GHz</text><text x="20" y="606" style="font-size: 12px;">  - OS: win32</text><text x="20" y="623" style="font-size: 12px;">  - RAM: 16 GB</text><text x="20" y="640" style="font-size: 12px;">  - NodeJS version: v16.20.0</text><text x="20" y="657" style="font-size: 12px;">  - Nestia version: v1.2.2</text><g style="font-size: 13px;"><g style="font-size: 13px;"><rect x="150" y="51.584362139917694" width="158.80924391415198" height="12.510288065843621" fill="#4472c4"></rect><rect x="150" y="64.75308641975309" width="440.9090909090908" height="12.510288065843621" fill="#ed7d31"></rect><rect x="150" y="77.92181069958848" width="24.393030619903154" height="12.510288065843621" fill="#a5a5a5"></rect><rect x="150" y="91.09053497942386" width="21.53646463545753" height="12.510288065843621" fill="#ffc000"></rect><text class="label" x="317.309243914152" y="60.084362139917694" font-size="10px">7.37x</text><text class="label" x="599.4090909090908" y="73.25308641975309" font-size="10px">20.47x</text><text class="label" x="182.89303061990316" y="86.42181069958848" font-size="10px">1.13x</text><text class="label" x="180.03646463545752" y="99.59053497942386" font-size="10px">1x</text><text class="label" x="313.809243914152" y="61.584362139917694" font-size="8px"></text><text class="label" x="595.9090909090908" y="74.75308641975309" font-size="8px"></text><text class="label" x="179.39303061990316" y="87.92181069958848" font-size="8px"></text><text class="label" x="176.53646463545752" y="101.09053497942386" font-size="8px"></text></g><g style="font-size: 13px;"><rect x="150" y="110.84362139917695" width="219.89832501213334" height="12.510288065843621" fill="#4472c4"></rect><rect x="150" y="124.01234567901236" width="281.5586944256288" height="12.510288065843621" fill="#ed7d31"></rect><rect x="150" y="137.18106995884773" width="21.53646463545753" height="12.510288065843621" fill="#a5a5a5"></rect><rect x="150" y="150.34979423868313" width="25.715948998893516" height="12.510288065843621" fill="#ffc000"></rect><text class="label" x="378.39832501213334" y="119.34362139917695" font-size="10px">10.21x</text><text class="label" x="440.0586944256288" y="132.51234567901236" font-size="10px">13.07x</text><text class="label" x="180.03646463545752" y="145.68106995884773" font-size="10px">1x</text><text class="label" x="184.2159489988935" y="158.84979423868313" font-size="10px">1.19x</text><text class="label" x="374.89832501213334" y="120.84362139917695" font-size="8px"></text><text class="label" x="436.5586944256288" y="134.01234567901236" font-size="8px"></text><text class="label" x="176.53646463545752" y="147.18106995884773" font-size="8px"></text><text class="label" x="180.7159489988935" y="160.34979423868313" font-size="8px"></text></g><g style="font-size: 13px;"><rect x="150" y="170.10288065843622" width="214.50522474567288" height="12.510288065843621" fill="#4472c4"></rect><rect x="150" y="183.2716049382716" width="293.7090650203513" height="12.510288065843621" fill="#ed7d31"></rect><rect x="150" y="196.440329218107" width="21.53646463545753" height="12.510288065843621" fill="#a5a5a5"></rect><rect x="150" y="209.6090534979424" width="22.94801747117523" height="12.510288065843621" fill="#ffc000"></rect><text class="label" x="373.0052247456729" y="178.60288065843622" font-size="10px">9.96x</text><text class="label" x="452.2090650203513" y="191.7716049382716" font-size="10px">13.64x</text><text class="label" x="180.03646463545752" y="204.940329218107" font-size="10px">1x</text><text class="label" x="181.44801747117523" y="218.1090534979424" font-size="10px">1.07x</text><text class="label" x="369.5052247456729" y="180.10288065843622" font-size="8px"></text><text class="label" x="448.7090650203513" y="193.2716049382716" font-size="8px"></text><text class="label" x="176.53646463545752" y="206.440329218107" font-size="8px"></text><text class="label" x="177.94801747117523" y="219.6090534979424" font-size="8px"></text></g><g style="font-size: 13px;"><rect x="150" y="229.36213991769546" width="302.13508202158255" height="12.510288065843621" fill="#4472c4"></rect><rect x="150" y="242.53086419753086" width="395.668173887985" height="12.510288065843621" fill="#ed7d31"></rect><rect x="150" y="255.69958847736626" width="21.53646463545753" height="12.510288065843621" fill="#a5a5a5"></rect><rect x="150" y="268.86831275720164" width="21.58283921034048" height="12.510288065843621" fill="#ffc000"></rect><text class="label" x="460.63508202158255" y="237.86213991769546" font-size="10px">14.03x</text><text class="label" x="554.168173887985" y="251.03086419753086" font-size="10px">18.37x</text><text class="label" x="180.03646463545752" y="264.19958847736626" font-size="10px">1x</text><text class="label" x="180.08283921034047" y="277.36831275720164" font-size="10px">1x</text><text class="label" x="457.13508202158255" y="239.36213991769546" font-size="8px"></text><text class="label" x="550.668173887985" y="252.53086419753086" font-size="8px"></text><text class="label" x="176.53646463545752" y="265.69958847736626" font-size="8px"></text><text class="label" x="176.58283921034047" y="278.86831275720164" font-size="8px"></text></g><g style="font-size: 13px;"><rect x="150" y="288.6213991769547" width="162.40452924781113" height="12.510288065843621" fill="#4472c4"></rect><rect x="150" y="301.7901234567901" width="196.694795338893" height="12.510288065843621" fill="#ed7d31"></rect><rect x="150" y="314.9588477366255" width="21.53646463545753" height="12.510288065843621" fill="#a5a5a5"></rect><rect x="150" y="328.12757201646093" width="22.071840629583047" height="12.510288065843621" fill="#ffc000"></rect><text class="label" x="320.9045292478111" y="297.1213991769547" font-size="10px">7.54x</text><text class="label" x="355.19479533889296" y="310.2901234567901" font-size="10px">9.13x</text><text class="label" x="180.03646463545752" y="323.4588477366255" font-size="10px">1x</text><text class="label" x="180.57184062958305" y="336.62757201646093" font-size="10px">1.02x</text><text class="label" x="317.4045292478111" y="298.6213991769547" font-size="8px"></text><text class="label" x="351.69479533889296" y="311.7901234567901" font-size="8px"></text><text class="label" x="176.53646463545752" y="324.9588477366255" font-size="8px"></text><text class="label" x="177.07184062958305" y="338.12757201646093" font-size="8px"></text></g><g style="font-size: 13px;"><rect x="150" y="347.880658436214" width="252.5159042536023" height="12.510288065843621" fill="#4472c4"></rect><rect x="150" y="361.04938271604937" width="250.79673161916395" height="12.510288065843621" fill="#ed7d31"></rect><rect x="150" y="374.2181069958848" width="22.171598997902016" height="12.510288065843621" fill="#a5a5a5"></rect><rect x="150" y="387.38683127572017" width="21.53646463545753" height="12.510288065843621" fill="#ffc000"></rect><text class="label" x="411.0159042536023" y="356.380658436214" font-size="10px">11.73x</text><text class="label" x="409.29673161916395" y="369.54938271604937" font-size="10px">11.65x</text><text class="label" x="180.671598997902" y="382.7181069958848" font-size="10px">1.03x</text><text class="label" x="180.03646463545752" y="395.88683127572017" font-size="10px">1x</text><text class="label" x="407.5159042536023" y="357.880658436214" font-size="8px"></text><text class="label" x="405.79673161916395" y="371.04938271604937" font-size="8px"></text><text class="label" x="177.171598997902" y="384.2181069958848" font-size="8px"></text><text class="label" x="176.53646463545752" y="397.38683127572017" font-size="8px"></text></g><g style="font-size: 13px;"><rect x="150" y="407.13991769547323" width="212.34319850537875" height="12.510288065843621" fill="#4472c4"></rect><rect x="150" y="420.3086419753086" width="216.62394825320797" height="12.510288065843621" fill="#ed7d31"></rect><rect x="150" y="433.47736625514403" width="21.53646463545753" height="12.510288065843621" fill="#a5a5a5"></rect><rect x="150" y="446.6460905349794" width="22.774559375153597" height="12.510288065843621" fill="#ffc000"></rect><text class="label" x="370.8431985053787" y="415.63991769547323" font-size="10px">9.86x</text><text class="label" x="375.12394825320797" y="428.8086419753086" font-size="10px">10.06x</text><text class="label" x="180.03646463545752" y="441.97736625514403" font-size="10px">1x</text><text class="label" x="181.2745593751536" y="455.1460905349794" font-size="10px">1.06x</text><text class="label" x="367.3431985053787" y="417.13991769547323" font-size="8px"></text><text class="label" x="371.62394825320797" y="430.3086419753086" font-size="8px"></text><text class="label" x="176.53646463545752" y="443.47736625514403" font-size="8px"></text><text class="label" x="177.7745593751536" y="456.6460905349794" font-size="8px"></text></g><g style="font-size: 13px;"><rect x="150" y="466.3991769547325" width="173.20403545623972" height="12.510288065843621" fill="#4472c4"></rect><rect x="150" y="479.5679012345679" width="193.72081172432345" height="12.510288065843621" fill="#ed7d31"></rect><rect x="150" y="492.73662551440333" width="22.33186570968018" height="12.510288065843621" fill="#a5a5a5"></rect><rect x="150" y="505.9053497942387" width="21.53646463545753" height="12.510288065843621" fill="#ffc000"></rect><text class="label" x="331.7040354562397" y="474.8991769547325" font-size="10px">8.04x</text><text class="label" x="352.2208117243234" y="488.0679012345679" font-size="10px">9x</text><text class="label" x="180.8318657096802" y="501.23662551440333" font-size="10px">1.04x</text><text class="label" x="180.03646463545752" y="514.4053497942386" font-size="10px">1x</text><text class="label" x="328.2040354562397" y="476.3991769547325" font-size="8px"></text><text class="label" x="348.7208117243234" y="489.5679012345679" font-size="8px"></text><text class="label" x="177.3318657096802" y="502.73662551440333" font-size="8px"></text><text class="label" x="176.53646463545752" y="515.9053497942386" font-size="8px"></text></g></g></svg>