<svg xmlns="http://www.w3.org/2000/svg" xmlns:xlink="http://www.w3.org/1999/xlink" width="800" height="794" style="background-color: white;"><g class="y axis" transform="translate(149,45)" fill="none" font-size="10" font-family="sans-serif" text-anchor="end" style="font-size: 13px;"><path class="domain" stroke="currentColor" d="M0.5,0.5V600.5"></path><g class="tick" opacity="1" transform="translate(0,40.740740740740726)" style="font-size: 13px;"><line stroke="currentColor" x2="0"></line><text fill="currentColor" x="-3" dy="0.32em">object (simple)    </text></g><g class="tick" opacity="1" transform="translate(0,114.81481481481481)" style="font-size: 13px;"><line stroke="currentColor" x2="0"></line><text fill="currentColor" x="-3" dy="0.32em">object (hierarchical)    </text></g><g class="tick" opacity="1" transform="translate(0,188.88888888888889)" style="font-size: 13px;"><line stroke="currentColor" x2="0"></line><text fill="currentColor" x="-3" dy="0.32em">object (recursive)    </text></g><g class="tick" opacity="1" transform="translate(0,262.96296296296293)" style="font-size: 13px;"><line stroke="currentColor" x2="0"></line><text fill="currentColor" x="-3" dy="0.32em">object (union, explicit)    </text></g><g class="tick" opacity="1" transform="translate(0,337.037037037037)" style="font-size: 13px;"><line stroke="currentColor" x2="0"></line><text fill="currentColor" x="-3" dy="0.32em">array (simple)    </text></g><g class="tick" opacity="1" transform="translate(0,411.1111111111111)" style="font-size: 13px;"><line stroke="currentColor" x2="0"></line><text fill="currentColor" x="-3" dy="0.32em">array (hierarchical)    </text></g><g class="tick" opacity="1" transform="translate(0,485.18518518518516)" style="font-size: 13px;"><line stroke="currentColor" x2="0"></line><text fill="currentColor" x="-3" dy="0.32em">array (recursive)    </text></g><g class="tick" opacity="1" transform="translate(0,559.2592592592592)" style="font-size: 13px;"><line stroke="currentColor" x2="0"></line><text fill="currentColor" x="-3" dy="0.32em">array (union, explicit)    </text></g></g><g class="x axis" transform="translate(149,645)" fill="none" font-size="10" font-family="sans-serif" text-anchor="middle" style="font-size: 13px;"><path class="domain" stroke="currentColor" d="M0.5,0.5H485.5"></path><g class="tick" opacity="1" transform="translate(0.5,0)" style="font-size: 13px;"><line stroke="currentColor" y2="6"></line><text fill="currentColor" y="9" dy="0.71em">0x</text></g><g class="tick" opacity="1" transform="translate(93.23940774509653,0)" style="font-size: 13px;"><line stroke="currentColor" y2="6"></line><text fill="currentColor" y="9" dy="0.71em">5x</text></g><g class="tick" opacity="1" transform="translate(185.97881549019306,0)" style="font-size: 13px;"><line stroke="currentColor" y2="6"></line><text fill="currentColor" y="9" dy="0.71em">10x</text></g><g class="tick" opacity="1" transform="translate(278.7182232352896,0)" style="font-size: 13px;"><line stroke="currentColor" y2="6"></line><text fill="currentColor" y="9" dy="0.71em">15x</text></g><g class="tick" opacity="1" transform="translate(371.4576309803861,0)" style="font-size: 13px;"><line stroke="currentColor" y2="6"></line><text fill="currentColor" y="9" dy="0.71em">20x</text></g><g class="tick" opacity="1" transform="translate(464.1970387254826,0)" style="font-size: 13px;"><line stroke="currentColor" y2="6"></line><text fill="currentColor" y="9" dy="0.71em">25x</text></g></g><text transform="translate(400, 30)" style="text-anchor: middle; font-size: 20px; font-weight: bold;">assert benchmark</text><rect x="650" y="145" width="230" height="5" fill="gray"></rect><rect x="645" y="35" width="230" height="110" fill="none" stroke="black"></rect><rect x="655" y="45" width="10" height="10" style="fill: #4472c4;"></rect><text x="670" y="55" style="font-size: 12px;">nestia-express</text><rect x="655" y="65" width="10" height="10" style="fill: #ed7d31;"></rect><text x="670" y="75" style="font-size: 12px;">nestia-fastify</text><rect x="655" y="85" width="10" height="10" style="fill: #a5a5a5;"></rect><text x="670" y="95" style="font-size: 12px;">fastify</text><rect x="655" y="105" width="10" height="10" style="fill: #ffc000;"></rect><text x="670" y="115" style="font-size: 12px;">NestJS-express</text><rect x="655" y="125" width="10" height="10" style="fill: #5b9bd5;"></rect><text x="670" y="135" style="font-size: 12px;">NestJS-fastify</text><text x="20" y="709" style="font-size: 12px;">  - CPU: Intel(R) Xeon(R) Platinum 8272CL CPU @ 2.60GHz</text><text x="20" y="726" style="font-size: 12px;">  - OS: linux</text><text x="20" y="743" style="font-size: 12px;">  - RAM: 16 GB</text><text x="20" y="760" style="font-size: 12px;">  - NodeJS version: v19.9.0</text><text x="20" y="777" style="font-size: 12px;">  - Nestia version: v1.4.0</text><g style="font-size: 13px;"><g style="font-size: 13px;"><rect x="150" y="53.06747341400805" width="179.1068813211655" height="12.541254125412543" fill="#4472c4"></rect><rect x="150" y="66.26879354602124" width="276.88827238972397" height="12.541254125412543" fill="#ed7d31"></rect><rect x="150" y="79.47011367803445" width="262.58731710216824" height="12.541254125412543" fill="#a5a5a5"></rect><rect x="150" y="92.67143381004766" width="18.54788154901931" height="12.541254125412543" fill="#ffc000"></rect><rect x="150" y="105.87275394206085" width="19.525410827180643" height="12.541254125412543" fill="#5b9bd5"></rect><text class="label" x="337.6068813211655" y="61.56747341400805" font-size="10px">9.66x</text><text class="label" x="435.38827238972397" y="74.76879354602124" font-size="10px">14.93x</text><text class="label" x="421.08731710216824" y="87.97011367803445" font-size="10px">14.16x</text><text class="label" x="177.0478815490193" y="101.17143381004766" font-size="10px">1x</text><text class="label" x="178.02541082718065" y="114.37275394206085" font-size="10px">1.05x</text><text class="label" x="334.1068813211655" y="63.06747341400805" font-size="8px"></text><text class="label" x="431.88827238972397" y="76.26879354602124" font-size="8px"></text><text class="label" x="417.58731710216824" y="89.47011367803445" font-size="8px"></text><text class="label" x="173.5478815490193" y="102.67143381004766" font-size="8px"></text><text class="label" x="174.52541082718065" y="115.87275394206085" font-size="8px"></text></g><g style="font-size: 13px;"><rect x="150" y="127.14154748808213" width="261.74840528341815" height="12.541254125412543" fill="#4472c4"></rect><rect x="150" y="140.34286762009532" width="296.3051997100488" height="12.541254125412543" fill="#ed7d31"></rect><rect x="150" y="153.54418775210854" width="276.1520699493647" height="12.541254125412543" fill="#a5a5a5"></rect><rect x="150" y="166.74550788412174" width="18.54788154901931" height="12.541254125412543" fill="#ffc000"></rect><rect x="150" y="179.94682801613493" width="19.23452367960838" height="12.541254125412543" fill="#5b9bd5"></rect><text class="label" x="420.24840528341815" y="135.64154748808213" font-size="10px">14.11x</text><text class="label" x="454.8051997100488" y="148.84286762009532" font-size="10px">15.98x</text><text class="label" x="434.6520699493647" y="162.04418775210854" font-size="10px">14.89x</text><text class="label" x="177.0478815490193" y="175.24550788412174" font-size="10px">1x</text><text class="label" x="177.73452367960837" y="188.44682801613493" font-size="10px">1.04x</text><text class="label" x="416.74840528341815" y="137.14154748808213" font-size="8px"></text><text class="label" x="451.3051997100488" y="150.34286762009532" font-size="8px"></text><text class="label" x="431.1520699493647" y="163.54418775210854" font-size="8px"></text><text class="label" x="173.5478815490193" y="176.74550788412174" font-size="8px"></text><text class="label" x="174.23452367960837" y="189.94682801613493" font-size="8px"></text></g><g style="font-size: 13px;"><rect x="150" y="201.2156215621562" width="271.2574219698706" height="12.541254125412543" fill="#4472c4"></rect><rect x="150" y="214.4169416941694" width="287.9067641094808" height="12.541254125412543" fill="#ed7d31"></rect><rect x="150" y="227.61826182618262" width="275.8165523745604" height="12.541254125412543" fill="#a5a5a5"></rect><rect x="150" y="240.8195819581958" width="18.54788154901931" height="12.541254125412543" fill="#ffc000"></rect><rect x="150" y="254.020902090209" width="18.751514670016213" height="12.541254125412543" fill="#5b9bd5"></rect><text class="label" x="429.7574219698706" y="209.7156215621562" font-size="10px">14.62x</text><text class="label" x="446.4067641094808" y="222.9169416941694" font-size="10px">15.52x</text><text class="label" x="434.3165523745604" y="236.11826182618262" font-size="10px">14.87x</text><text class="label" x="177.0478815490193" y="249.3195819581958" font-size="10px">1x</text><text class="label" x="177.2515146700162" y="262.520902090209" font-size="10px">1.01x</text><text class="label" x="426.2574219698706" y="211.2156215621562" font-size="8px"></text><text class="label" x="442.9067641094808" y="224.4169416941694" font-size="8px"></text><text class="label" x="430.8165523745604" y="237.61826182618262" font-size="8px"></text><text class="label" x="173.5478815490193" y="250.8195819581958" font-size="8px"></text><text class="label" x="173.7515146700162" y="264.020902090209" font-size="8px"></text></g><g style="font-size: 13px;"><rect x="150" y="275.28969563623025" width="386.12595522672706" height="12.541254125412543" fill="#4472c4"></rect><rect x="150" y="288.49101576824347" width="421.709362639944" height="12.541254125412543" fill="#ed7d31"></rect><rect x="150" y="301.6923359002567" width="269.5280227414047" height="12.541254125412543" fill="#a5a5a5"></rect><rect x="150" y="314.89365603226986" width="18.54788154901931" height="12.541254125412543" fill="#ffc000"></rect><rect x="150" y="328.0949761642831" width="18.627055197366456" height="12.541254125412543" fill="#5b9bd5"></rect><text class="label" x="544.625955226727" y="283.78969563623025" font-size="10px">20.82x</text><text class="label" x="580.209362639944" y="296.99101576824347" font-size="10px">22.74x</text><text class="label" x="428.0280227414047" y="310.1923359002567" font-size="10px">14.53x</text><text class="label" x="177.0478815490193" y="323.39365603226986" font-size="10px">1x</text><text class="label" x="177.12705519736645" y="336.5949761642831" font-size="10px">1x</text><text class="label" x="541.125955226727" y="285.28969563623025" font-size="8px"></text><text class="label" x="576.709362639944" y="298.49101576824347" font-size="8px"></text><text class="label" x="424.5280227414047" y="311.6923359002567" font-size="8px"></text><text class="label" x="173.5478815490193" y="324.89365603226986" font-size="8px"></text><text class="label" x="173.62705519736645" y="338.0949761642831" font-size="8px"></text></g><g style="font-size: 13px;"><rect x="150" y="349.3637697103044" width="261.1600304513284" height="12.541254125412543" fill="#4472c4"></rect><rect x="150" y="362.56508984231755" width="266.64374527260077" height="12.541254125412543" fill="#ed7d31"></rect><rect x="150" y="375.76640997433077" width="257.4082216851852" height="12.541254125412543" fill="#a5a5a5"></rect><rect x="150" y="388.967730106344" width="18.54788154901931" height="12.541254125412543" fill="#ffc000"></rect><rect x="150" y="402.16905023835716" width="18.699857434884247" height="12.541254125412543" fill="#5b9bd5"></rect><text class="label" x="419.6600304513284" y="357.8637697103044" font-size="10px">14.08x</text><text class="label" x="425.14374527260077" y="371.06508984231755" font-size="10px">14.38x</text><text class="label" x="415.9082216851852" y="384.26640997433077" font-size="10px">13.88x</text><text class="label" x="177.0478815490193" y="397.467730106344" font-size="10px">1x</text><text class="label" x="177.19985743488425" y="410.66905023835716" font-size="10px">1.01x</text><text class="label" x="416.1600304513284" y="359.3637697103044" font-size="8px"></text><text class="label" x="421.64374527260077" y="372.56508984231755" font-size="8px"></text><text class="label" x="412.4082216851852" y="385.76640997433077" font-size="8px"></text><text class="label" x="173.5478815490193" y="398.967730106344" font-size="8px"></text><text class="label" x="173.69985743488425" y="412.16905023835716" font-size="8px"></text></g><g style="font-size: 13px;"><rect x="150" y="423.4378437843784" width="396.0888982976375" height="12.541254125412543" fill="#4472c4"></rect><rect x="150" y="436.6391639163916" width="418.86832842651205" height="12.541254125412543" fill="#ed7d31"></rect><rect x="150" y="449.84048404840485" width="440.9090909090908" height="12.541254125412543" fill="#a5a5a5"></rect><rect x="150" y="463.041804180418" width="18.54788154901931" height="12.541254125412543" fill="#ffc000"></rect><rect x="150" y="476.24312431243123" width="26.445379154387805" height="12.541254125412543" fill="#5b9bd5"></rect><text class="label" x="554.5888982976376" y="431.9378437843784" font-size="10px">21.35x</text><text class="label" x="577.3683284265121" y="445.1391639163916" font-size="10px">22.58x</text><text class="label" x="599.4090909090908" y="458.34048404840485" font-size="10px">23.77x</text><text class="label" x="177.0478815490193" y="471.541804180418" font-size="10px">1x</text><text class="label" x="184.9453791543878" y="484.74312431243123" font-size="10px">1.43x</text><text class="label" x="551.0888982976376" y="433.4378437843784" font-size="8px"></text><text class="label" x="573.8683284265121" y="446.6391639163916" font-size="8px"></text><text class="label" x="595.9090909090908" y="459.84048404840485" font-size="8px"></text><text class="label" x="173.5478815490193" y="473.041804180418" font-size="8px"></text><text class="label" x="181.4453791543878" y="486.24312431243123" font-size="8px"></text></g><g style="font-size: 13px;"><rect x="150" y="497.51191785845253" width="286.9212450341446" height="12.541254125412543" fill="#4472c4"></rect><rect x="150" y="510.7132379904657" width="268.8210903512213" height="12.541254125412543" fill="#ed7d31"></rect><rect x="150" y="523.9145581224789" width="256.96844960259864" height="12.541254125412543" fill="#a5a5a5"></rect><rect x="150" y="537.1158782544921" width="18.54788154901931" height="12.541254125412543" fill="#ffc000"></rect><rect x="150" y="550.3171983865053" width="18.997186997922324" height="12.541254125412543" fill="#5b9bd5"></rect><text class="label" x="445.4212450341446" y="506.01191785845253" font-size="10px">15.47x</text><text class="label" x="427.3210903512213" y="519.2132379904657" font-size="10px">14.49x</text><text class="label" x="415.46844960259864" y="532.4145581224789" font-size="10px">13.85x</text><text class="label" x="177.0478815490193" y="545.6158782544921" font-size="10px">1x</text><text class="label" x="177.4971869979223" y="558.8171983865053" font-size="10px">1.02x</text><text class="label" x="441.9212450341446" y="507.51191785845253" font-size="8px"></text><text class="label" x="423.8210903512213" y="520.7132379904657" font-size="8px"></text><text class="label" x="411.96844960259864" y="533.9145581224789" font-size="8px"></text><text class="label" x="173.5478815490193" y="547.1158782544921" font-size="8px"></text><text class="label" x="173.9971869979223" y="560.3171983865053" font-size="8px"></text></g><g style="font-size: 13px;"><rect x="150" y="571.5859919325266" width="360.5858402655295" height="12.541254125412543" fill="#4472c4"></rect><rect x="150" y="584.7873120645397" width="331.01356425094116" height="12.541254125412543" fill="#ed7d31"></rect><rect x="150" y="597.9886321965529" width="225.14168903405707" height="12.541254125412543" fill="#a5a5a5"></rect><rect x="150" y="611.1899523285662" width="18.57043954884504" height="12.541254125412543" fill="#ffc000"></rect><rect x="150" y="624.3912724605793" width="18.54788154901931" height="12.541254125412543" fill="#5b9bd5"></rect><text class="label" x="519.0858402655294" y="580.0859919325266" font-size="10px">19.44x</text><text class="label" x="489.51356425094116" y="593.2873120645397" font-size="10px">17.85x</text><text class="label" x="383.6416890340571" y="606.4886321965529" font-size="10px">12.14x</text><text class="label" x="177.07043954884503" y="619.6899523285662" font-size="10px">1x</text><text class="label" x="177.0478815490193" y="632.8912724605793" font-size="10px">1x</text><text class="label" x="515.5858402655294" y="581.5859919325266" font-size="8px"></text><text class="label" x="486.01356425094116" y="594.7873120645397" font-size="8px"></text><text class="label" x="380.1416890340571" y="607.9886321965529" font-size="8px"></text><text class="label" x="173.57043954884503" y="621.1899523285662" font-size="8px"></text><text class="label" x="173.5478815490193" y="634.3912724605793" font-size="8px"></text></g></g></svg>