<svg xmlns="http://www.w3.org/2000/svg" xmlns:xlink="http://www.w3.org/1999/xlink" width="800" height="794" style="background-color: white;"><g class="y axis" transform="translate(149,45)" fill="none" font-size="10" font-family="sans-serif" text-anchor="end" style="font-size: 13px;"><path class="domain" stroke="currentColor" d="M0.5,0.5V600.5"></path><g class="tick" opacity="1" transform="translate(0,40.740740740740726)" style="font-size: 13px;"><line stroke="currentColor" x2="0"></line><text fill="currentColor" x="-3" dy="0.32em">object (simple)    </text></g><g class="tick" opacity="1" transform="translate(0,114.81481481481481)" style="font-size: 13px;"><line stroke="currentColor" x2="0"></line><text fill="currentColor" x="-3" dy="0.32em">object (hierarchical)    </text></g><g class="tick" opacity="1" transform="translate(0,188.88888888888889)" style="font-size: 13px;"><line stroke="currentColor" x2="0"></line><text fill="currentColor" x="-3" dy="0.32em">object (recursive)    </text></g><g class="tick" opacity="1" transform="translate(0,262.96296296296293)" style="font-size: 13px;"><line stroke="currentColor" x2="0"></line><text fill="currentColor" x="-3" dy="0.32em">object (union, explicit)    </text></g><g class="tick" opacity="1" transform="translate(0,337.037037037037)" style="font-size: 13px;"><line stroke="currentColor" x2="0"></line><text fill="currentColor" x="-3" dy="0.32em">array (simple)    </text></g><g class="tick" opacity="1" transform="translate(0,411.1111111111111)" style="font-size: 13px;"><line stroke="currentColor" x2="0"></line><text fill="currentColor" x="-3" dy="0.32em">array (hierarchical)    </text></g><g class="tick" opacity="1" transform="translate(0,485.18518518518516)" style="font-size: 13px;"><line stroke="currentColor" x2="0"></line><text fill="currentColor" x="-3" dy="0.32em">array (recursive)    </text></g><g class="tick" opacity="1" transform="translate(0,559.2592592592592)" style="font-size: 13px;"><line stroke="currentColor" x2="0"></line><text fill="currentColor" x="-3" dy="0.32em">array (union, explicit)    </text></g></g><g class="x axis" transform="translate(149,645)" fill="none" font-size="10" font-family="sans-serif" text-anchor="middle" style="font-size: 13px;"><path class="domain" stroke="currentColor" d="M0.5,0.5H485.5"></path><g class="tick" opacity="1" transform="translate(0.5,0)" style="font-size: 13px;"><line stroke="currentColor" y2="6"></line><text fill="currentColor" y="9" dy="0.71em">0x</text></g><g class="tick" opacity="1" transform="translate(88.5568047402984,0)" style="font-size: 13px;"><line stroke="currentColor" y2="6"></line><text fill="currentColor" y="9" dy="0.71em">5x</text></g><g class="tick" opacity="1" transform="translate(176.6136094805968,0)" style="font-size: 13px;"><line stroke="currentColor" y2="6"></line><text fill="currentColor" y="9" dy="0.71em">10x</text></g><g class="tick" opacity="1" transform="translate(264.6704142208952,0)" style="font-size: 13px;"><line stroke="currentColor" y2="6"></line><text fill="currentColor" y="9" dy="0.71em">15x</text></g><g class="tick" opacity="1" transform="translate(352.7272189611936,0)" style="font-size: 13px;"><line stroke="currentColor" y2="6"></line><text fill="currentColor" y="9" dy="0.71em">20x</text></g><g class="tick" opacity="1" transform="translate(440.784023701492,0)" style="font-size: 13px;"><line stroke="currentColor" y2="6"></line><text fill="currentColor" y="9" dy="0.71em">25x</text></g></g><text transform="translate(400, 30)" style="text-anchor: middle; font-size: 20px; font-weight: bold;">performance benchmark</text><rect x="650" y="145" width="230" height="5" fill="gray"></rect><rect x="645" y="35" width="230" height="110" fill="none" stroke="black"></rect><rect x="655" y="45" width="10" height="10" style="fill: #4472c4;"></rect><text x="670" y="55" style="font-size: 12px;">nestia-express</text><rect x="655" y="65" width="10" height="10" style="fill: #ed7d31;"></rect><text x="670" y="75" style="font-size: 12px;">nestia-fastify</text><rect x="655" y="85" width="10" height="10" style="fill: #a5a5a5;"></rect><text x="670" y="95" style="font-size: 12px;">fastify</text><rect x="655" y="105" width="10" height="10" style="fill: #ffc000;"></rect><text x="670" y="115" style="font-size: 12px;">NestJS-express</text><rect x="655" y="125" width="10" height="10" style="fill: #5b9bd5;"></rect><text x="670" y="135" style="font-size: 12px;">NestJS-fastify</text><text x="20" y="709" style="font-size: 12px;">  - CPU: Intel(R) Xeon(R) Platinum 8272CL CPU @ 2.60GHz</text><text x="20" y="726" style="font-size: 12px;">  - OS: linux</text><text x="20" y="743" style="font-size: 12px;">  - RAM: 16 GB</text><text x="20" y="760" style="font-size: 12px;">  - NodeJS version: v19.9.0</text><text x="20" y="777" style="font-size: 12px;">  - Nestia version: v1.4.0</text><g style="font-size: 13px;"><g style="font-size: 13px;"><rect x="150" y="53.06747341400805" width="108.20354684170597" height="12.541254125412543" fill="#4472c4"></rect><rect x="150" y="66.26879354602124" width="161.83384183159745" height="12.541254125412543" fill="#ed7d31"></rect><rect x="150" y="79.47011367803445" width="164.07473021631984" height="12.541254125412543" fill="#a5a5a5"></rect><rect x="150" y="92.67143381004766" width="17.61136094805968" height="12.541254125412543" fill="#ffc000"></rect><rect x="150" y="105.87275394206085" width="19.111417160933836" height="12.541254125412543" fill="#5b9bd5"></rect><text class="label" x="266.703546841706" y="61.56747341400805" font-size="10px">6.14x</text><text class="label" x="320.33384183159745" y="74.76879354602124" font-size="10px">9.19x</text><text class="label" x="322.57473021631984" y="87.97011367803445" font-size="10px">9.32x</text><text class="label" x="176.11136094805968" y="101.17143381004766" font-size="10px">1x</text><text class="label" x="177.61141716093383" y="114.37275394206085" font-size="10px">1.09x</text><text class="label" x="263.203546841706" y="63.06747341400805" font-size="8px"></text><text class="label" x="316.83384183159745" y="76.26879354602124" font-size="8px"></text><text class="label" x="319.07473021631984" y="89.47011367803445" font-size="8px"></text><text class="label" x="172.61136094805968" y="102.67143381004766" font-size="8px"></text><text class="label" x="174.11141716093383" y="115.87275394206085" font-size="8px"></text></g><g style="font-size: 13px;"><rect x="150" y="127.14154748808213" width="109.7474070938709" height="12.541254125412543" fill="#4472c4"></rect><rect x="150" y="140.34286762009532" width="121.57727381222094" height="12.541254125412543" fill="#ed7d31"></rect><rect x="150" y="153.54418775210854" width="112.8163745372507" height="12.541254125412543" fill="#a5a5a5"></rect><rect x="150" y="166.74550788412174" width="17.61136094805968" height="12.541254125412543" fill="#ffc000"></rect><rect x="150" y="179.94682801613493" width="18.13014439844054" height="12.541254125412543" fill="#5b9bd5"></rect><text class="label" x="268.2474070938709" y="135.64154748808213" font-size="10px">6.23x</text><text class="label" x="280.07727381222094" y="148.84286762009532" font-size="10px">6.9x</text><text class="label" x="271.3163745372507" y="162.04418775210854" font-size="10px">6.41x</text><text class="label" x="176.11136094805968" y="175.24550788412174" font-size="10px">1x</text><text class="label" x="176.63014439844054" y="188.44682801613493" font-size="10px">1.03x</text><text class="label" x="264.7474070938709" y="137.14154748808213" font-size="8px"></text><text class="label" x="276.57727381222094" y="150.34286762009532" font-size="8px"></text><text class="label" x="267.8163745372507" y="163.54418775210854" font-size="8px"></text><text class="label" x="172.61136094805968" y="176.74550788412174" font-size="8px"></text><text class="label" x="173.13014439844054" y="189.94682801613493" font-size="8px"></text></g><g style="font-size: 13px;"><rect x="150" y="201.2156215621562" width="116.47287309143306" height="12.541254125412543" fill="#4472c4"></rect><rect x="150" y="214.4169416941694" width="125.88277042308361" height="12.541254125412543" fill="#ed7d31"></rect><rect x="150" y="227.61826182618262" width="93.0828976750413" height="12.541254125412543" fill="#a5a5a5"></rect><rect x="150" y="240.8195819581958" width="17.61136094805968" height="12.541254125412543" fill="#ffc000"></rect><rect x="150" y="254.020902090209" width="18.45038295675561" height="12.541254125412543" fill="#5b9bd5"></rect><text class="label" x="274.97287309143303" y="209.7156215621562" font-size="10px">6.61x</text><text class="label" x="284.3827704230836" y="222.9169416941694" font-size="10px">7.15x</text><text class="label" x="251.5828976750413" y="236.11826182618262" font-size="10px">5.29x</text><text class="label" x="176.11136094805968" y="249.3195819581958" font-size="10px">1x</text><text class="label" x="176.95038295675562" y="262.520902090209" font-size="10px">1.05x</text><text class="label" x="271.47287309143303" y="211.2156215621562" font-size="8px"></text><text class="label" x="280.8827704230836" y="224.4169416941694" font-size="8px"></text><text class="label" x="248.0828976750413" y="237.61826182618262" font-size="8px"></text><text class="label" x="172.61136094805968" y="250.8195819581958" font-size="8px"></text><text class="label" x="173.45038295675562" y="264.020902090209" font-size="8px"></text></g><g style="font-size: 13px;"><rect x="150" y="275.28969563623025" width="405.6941228594536" height="12.541254125412543" fill="#4472c4"></rect><rect x="150" y="288.49101576824347" width="440.9090909090909" height="12.541254125412543" fill="#ed7d31"></rect><rect x="150" y="301.6923359002567" width="286.4265835045366" height="12.541254125412543" fill="#a5a5a5"></rect><rect x="150" y="314.89365603226986" width="17.61136094805968" height="12.541254125412543" fill="#ffc000"></rect><rect x="150" y="328.0949761642831" width="17.965668038209216" height="12.541254125412543" fill="#5b9bd5"></rect><text class="label" x="564.1941228594536" y="283.78969563623025" font-size="10px">23.04x</text><text class="label" x="599.4090909090909" y="296.99101576824347" font-size="10px">25.04x</text><text class="label" x="444.9265835045366" y="310.1923359002567" font-size="10px">16.26x</text><text class="label" x="176.11136094805968" y="323.39365603226986" font-size="10px">1x</text><text class="label" x="176.46566803820923" y="336.5949761642831" font-size="10px">1.02x</text><text class="label" x="560.6941228594536" y="285.28969563623025" font-size="8px"></text><text class="label" x="595.9090909090909" y="298.49101576824347" font-size="8px"></text><text class="label" x="441.4265835045366" y="311.6923359002567" font-size="8px"></text><text class="label" x="172.61136094805968" y="324.89365603226986" font-size="8px"></text><text class="label" x="172.96566803820923" y="338.0949761642831" font-size="8px"></text></g><g style="font-size: 13px;"><rect x="150" y="349.3637697103044" width="172.55035885719582" height="12.541254125412543" fill="#4472c4"></rect><rect x="150" y="362.56508984231755" width="179.89706395608619" height="12.541254125412543" fill="#ed7d31"></rect><rect x="150" y="375.76640997433077" width="172.78140727991467" height="12.541254125412543" fill="#a5a5a5"></rect><rect x="150" y="388.967730106344" width="17.61136094805968" height="12.541254125412543" fill="#ffc000"></rect><rect x="150" y="402.16905023835716" width="18.130247886943557" height="12.541254125412543" fill="#5b9bd5"></rect><text class="label" x="331.0503588571958" y="357.8637697103044" font-size="10px">9.8x</text><text class="label" x="338.3970639560862" y="371.06508984231755" font-size="10px">10.21x</text><text class="label" x="331.2814072799147" y="384.26640997433077" font-size="10px">9.81x</text><text class="label" x="176.11136094805968" y="397.467730106344" font-size="10px">1x</text><text class="label" x="176.63024788694355" y="410.66905023835716" font-size="10px">1.03x</text><text class="label" x="327.5503588571958" y="359.3637697103044" font-size="8px"></text><text class="label" x="334.8970639560862" y="372.56508984231755" font-size="8px"></text><text class="label" x="327.7814072799147" y="385.76640997433077" font-size="8px"></text><text class="label" x="172.61136094805968" y="398.967730106344" font-size="8px"></text><text class="label" x="173.13024788694355" y="412.16905023835716" font-size="8px"></text></g><g style="font-size: 13px;"><rect x="150" y="423.4378437843784" width="256.0466736887693" height="12.541254125412543" fill="#4472c4"></rect><rect x="150" y="436.6391639163916" width="397.27487444424446" height="12.541254125412543" fill="#ed7d31"></rect><rect x="150" y="449.84048404840485" width="319.4319423193251" height="12.541254125412543" fill="#a5a5a5"></rect><rect x="150" y="463.041804180418" width="17.61136094805968" height="12.541254125412543" fill="#ffc000"></rect><rect x="150" y="476.24312431243123" width="20.174396555543176" height="12.541254125412543" fill="#5b9bd5"></rect><text class="label" x="414.5466736887693" y="431.9378437843784" font-size="10px">14.54x</text><text class="label" x="555.7748744442445" y="445.1391639163916" font-size="10px">22.56x</text><text class="label" x="477.9319423193251" y="458.34048404840485" font-size="10px">18.14x</text><text class="label" x="176.11136094805968" y="471.541804180418" font-size="10px">1x</text><text class="label" x="178.67439655554318" y="484.74312431243123" font-size="10px">1.15x</text><text class="label" x="411.0466736887693" y="433.4378437843784" font-size="8px"></text><text class="label" x="552.2748744442445" y="446.6391639163916" font-size="8px"></text><text class="label" x="474.4319423193251" y="459.84048404840485" font-size="8px"></text><text class="label" x="172.61136094805968" y="473.041804180418" font-size="8px"></text><text class="label" x="175.17439655554318" y="486.24312431243123" font-size="8px"></text></g><g style="font-size: 13px;"><rect x="150" y="497.51191785845253" width="125.70299848046629" height="12.541254125412543" fill="#4472c4"></rect><rect x="150" y="510.7132379904657" width="122.34865798765861" height="12.541254125412543" fill="#ed7d31"></rect><rect x="150" y="523.9145581224789" width="126.79019227903923" height="12.541254125412543" fill="#a5a5a5"></rect><rect x="150" y="537.1158782544921" width="17.61136094805968" height="12.541254125412543" fill="#ffc000"></rect><rect x="150" y="550.3171983865053" width="18.04240092562104" height="12.541254125412543" fill="#5b9bd5"></rect><text class="label" x="284.2029984804663" y="506.01191785845253" font-size="10px">7.14x</text><text class="label" x="280.8486579876586" y="519.2132379904657" font-size="10px">6.95x</text><text class="label" x="285.2901922790392" y="532.4145581224789" font-size="10px">7.2x</text><text class="label" x="176.11136094805968" y="545.6158782544921" font-size="10px">1x</text><text class="label" x="176.54240092562105" y="558.8171983865053" font-size="10px">1.02x</text><text class="label" x="280.7029984804663" y="507.51191785845253" font-size="8px"></text><text class="label" x="277.3486579876586" y="520.7132379904657" font-size="8px"></text><text class="label" x="281.7901922790392" y="533.9145581224789" font-size="8px"></text><text class="label" x="172.61136094805968" y="547.1158782544921" font-size="8px"></text><text class="label" x="173.04240092562105" y="560.3171983865053" font-size="8px"></text></g><g style="font-size: 13px;"><rect x="150" y="571.5859919325266" width="256.61566101227845" height="12.541254125412543" fill="#4472c4"></rect><rect x="150" y="584.7873120645397" width="249.17118864291035" height="12.541254125412543" fill="#ed7d31"></rect><rect x="150" y="597.9886321965529" width="114.82729722026643" height="12.541254125412543" fill="#a5a5a5"></rect><rect x="150" y="611.1899523285662" width="17.61136094805968" height="12.541254125412543" fill="#ffc000"></rect><rect x="150" y="624.3912724605793" width="17.909287591803025" height="12.541254125412543" fill="#5b9bd5"></rect><text class="label" x="415.11566101227845" y="580.0859919325266" font-size="10px">14.57x</text><text class="label" x="407.67118864291035" y="593.2873120645397" font-size="10px">14.15x</text><text class="label" x="273.3272972202664" y="606.4886321965529" font-size="10px">6.52x</text><text class="label" x="176.11136094805968" y="619.6899523285662" font-size="10px">1x</text><text class="label" x="176.40928759180304" y="632.8912724605793" font-size="10px">1.02x</text><text class="label" x="411.61566101227845" y="581.5859919325266" font-size="8px"></text><text class="label" x="404.17118864291035" y="594.7873120645397" font-size="8px"></text><text class="label" x="269.8272972202664" y="607.9886321965529" font-size="8px"></text><text class="label" x="172.61136094805968" y="621.1899523285662" font-size="8px"></text><text class="label" x="172.90928759180304" y="634.3912724605793" font-size="8px"></text></g></g></svg>