<svg xmlns="http://www.w3.org/2000/svg" xmlns:xlink="http://www.w3.org/1999/xlink" width="800" height="794" style="background-color: white;"><g class="y axis" transform="translate(149,45)" fill="none" font-size="10" font-family="sans-serif" text-anchor="end" style="font-size: 13px;"><path class="domain" stroke="currentColor" d="M0.5,0.5V600.5"></path><g class="tick" opacity="1" transform="translate(0,40.740740740740726)" style="font-size: 13px;"><line stroke="currentColor" x2="0"></line><text fill="currentColor" x="-3" dy="0.32em">object (simple)    </text></g><g class="tick" opacity="1" transform="translate(0,114.81481481481481)" style="font-size: 13px;"><line stroke="currentColor" x2="0"></line><text fill="currentColor" x="-3" dy="0.32em">object (hierarchical)    </text></g><g class="tick" opacity="1" transform="translate(0,188.88888888888889)" style="font-size: 13px;"><line stroke="currentColor" x2="0"></line><text fill="currentColor" x="-3" dy="0.32em">object (recursive)    </text></g><g class="tick" opacity="1" transform="translate(0,262.96296296296293)" style="font-size: 13px;"><line stroke="currentColor" x2="0"></line><text fill="currentColor" x="-3" dy="0.32em">object (union, explicit)    </text></g><g class="tick" opacity="1" transform="translate(0,337.037037037037)" style="font-size: 13px;"><line stroke="currentColor" x2="0"></line><text fill="currentColor" x="-3" dy="0.32em">array (simple)    </text></g><g class="tick" opacity="1" transform="translate(0,411.1111111111111)" style="font-size: 13px;"><line stroke="currentColor" x2="0"></line><text fill="currentColor" x="-3" dy="0.32em">array (hierarchical)    </text></g><g class="tick" opacity="1" transform="translate(0,485.18518518518516)" style="font-size: 13px;"><line stroke="currentColor" x2="0"></line><text fill="currentColor" x="-3" dy="0.32em">array (recursive)    </text></g><g class="tick" opacity="1" transform="translate(0,559.2592592592592)" style="font-size: 13px;"><line stroke="currentColor" x2="0"></line><text fill="currentColor" x="-3" dy="0.32em">array (union, explicit)    </text></g></g><g class="x axis" transform="translate(149,645)" fill="none" font-size="10" font-family="sans-serif" text-anchor="middle" style="font-size: 13px;"><path class="domain" stroke="currentColor" d="M0.5,0.5H485.5"></path><g class="tick" opacity="1" transform="translate(0.5,0)" style="font-size: 13px;"><line stroke="currentColor" y2="6"></line><text fill="currentColor" y="9" dy="0.71em">0x</text></g><g class="tick" opacity="1" transform="translate(83.25480038216575,0)" style="font-size: 13px;"><line stroke="currentColor" y2="6"></line><text fill="currentColor" y="9" dy="0.71em">2x</text></g><g class="tick" opacity="1" transform="translate(166.0096007643315,0)" style="font-size: 13px;"><line stroke="currentColor" y2="6"></line><text fill="currentColor" y="9" dy="0.71em">4x</text></g><g class="tick" opacity="1" transform="translate(248.76440114649722,0)" style="font-size: 13px;"><line stroke="currentColor" y2="6"></line><text fill="currentColor" y="9" dy="0.71em">6x</text></g><g class="tick" opacity="1" transform="translate(331.519201528663,0)" style="font-size: 13px;"><line stroke="currentColor" y2="6"></line><text fill="currentColor" y="9" dy="0.71em">8x</text></g><g class="tick" opacity="1" transform="translate(414.2740019108287,0)" style="font-size: 13px;"><line stroke="currentColor" y2="6"></line><text fill="currentColor" y="9" dy="0.71em">10x</text></g></g><text transform="translate(400, 30)" style="text-anchor: middle; font-size: 20px; font-weight: bold;">stringify benchmark</text><rect x="650" y="145" width="230" height="5" fill="gray"></rect><rect x="645" y="35" width="230" height="110" fill="none" stroke="black"></rect><rect x="655" y="45" width="10" height="10" style="fill: #4472c4;"></rect><text x="670" y="55" style="font-size: 12px;">nestia-express</text><rect x="655" y="65" width="10" height="10" style="fill: #ed7d31;"></rect><text x="670" y="75" style="font-size: 12px;">nestia-fastify</text><rect x="655" y="85" width="10" height="10" style="fill: #a5a5a5;"></rect><text x="670" y="95" style="font-size: 12px;">fastify</text><rect x="655" y="105" width="10" height="10" style="fill: #ffc000;"></rect><text x="670" y="115" style="font-size: 12px;">NestJS-express</text><rect x="655" y="125" width="10" height="10" style="fill: #5b9bd5;"></rect><text x="670" y="135" style="font-size: 12px;">NestJS-fastify</text><text x="20" y="709" style="font-size: 12px;">  - CPU: Intel(R) Xeon(R) Platinum 8272CL CPU @ 2.60GHz</text><text x="20" y="726" style="font-size: 12px;">  - OS: linux</text><text x="20" y="743" style="font-size: 12px;">  - RAM: 16 GB</text><text x="20" y="760" style="font-size: 12px;">  - NodeJS version: v19.9.0</text><text x="20" y="777" style="font-size: 12px;">  - Nestia version: v1.4.0</text><g style="font-size: 13px;"><g style="font-size: 13px;"><rect x="150" y="53.06747341400805" width="209.8590771157394" height="12.541254125412543" fill="#4472c4"></rect><rect x="150" y="66.26879354602124" width="440.9090909090909" height="12.541254125412543" fill="#ed7d31"></rect><rect x="150" y="79.47011367803445" width="384.34518356901737" height="12.541254125412543" fill="#a5a5a5"></rect><rect x="150" y="92.67143381004766" width="41.37740019108288" height="12.541254125412543" fill="#ffc000"></rect><rect x="150" y="105.87275394206085" width="46.914391069444974" height="12.541254125412543" fill="#5b9bd5"></rect><text class="label" x="368.3590771157394" y="61.56747341400805" font-size="10px">5.07x</text><text class="label" x="599.4090909090909" y="74.76879354602124" font-size="10px">10.66x</text><text class="label" x="542.8451835690173" y="87.97011367803445" font-size="10px">9.29x</text><text class="label" x="199.87740019108287" y="101.17143381004766" font-size="10px">1x</text><text class="label" x="205.41439106944497" y="114.37275394206085" font-size="10px">1.13x</text><text class="label" x="364.8590771157394" y="63.06747341400805" font-size="8px"></text><text class="label" x="595.9090909090909" y="76.26879354602124" font-size="8px"></text><text class="label" x="539.3451835690173" y="89.47011367803445" font-size="8px"></text><text class="label" x="196.37740019108287" y="102.67143381004766" font-size="8px"></text><text class="label" x="201.91439106944497" y="115.87275394206085" font-size="8px"></text></g><g style="font-size: 13px;"><rect x="150" y="127.14154748808213" width="173.7560232279972" height="12.541254125412543" fill="#4472c4"></rect><rect x="150" y="140.34286762009532" width="203.0393011925298" height="12.541254125412543" fill="#ed7d31"></rect><rect x="150" y="153.54418775210854" width="186.03438496831978" height="12.541254125412543" fill="#a5a5a5"></rect><rect x="150" y="166.74550788412174" width="41.37740019108288" height="12.541254125412543" fill="#ffc000"></rect><rect x="150" y="179.94682801613493" width="43.034048278823306" height="12.541254125412543" fill="#5b9bd5"></rect><text class="label" x="332.25602322799716" y="135.64154748808213" font-size="10px">4.2x</text><text class="label" x="361.5393011925298" y="148.84286762009532" font-size="10px">4.91x</text><text class="label" x="344.5343849683198" y="162.04418775210854" font-size="10px">4.5x</text><text class="label" x="199.87740019108287" y="175.24550788412174" font-size="10px">1x</text><text class="label" x="201.53404827882332" y="188.44682801613493" font-size="10px">1.04x</text><text class="label" x="328.75602322799716" y="137.14154748808213" font-size="8px"></text><text class="label" x="358.0393011925298" y="150.34286762009532" font-size="8px"></text><text class="label" x="341.0343849683198" y="163.54418775210854" font-size="8px"></text><text class="label" x="196.37740019108287" y="176.74550788412174" font-size="8px"></text><text class="label" x="198.03404827882332" y="189.94682801613493" font-size="8px"></text></g><g style="font-size: 13px;"><rect x="150" y="201.2156215621562" width="185.66660934206612" height="12.541254125412543" fill="#4472c4"></rect><rect x="150" y="214.4169416941694" width="204.35373447769686" height="12.541254125412543" fill="#ed7d31"></rect><rect x="150" y="227.61826182618262" width="132.44847916699902" height="12.541254125412543" fill="#a5a5a5"></rect><rect x="150" y="240.8195819581958" width="41.37740019108288" height="12.541254125412543" fill="#ffc000"></rect><rect x="150" y="254.020902090209" width="42.06546280694329" height="12.541254125412543" fill="#5b9bd5"></rect><text class="label" x="344.1666093420661" y="209.7156215621562" font-size="10px">4.49x</text><text class="label" x="362.8537344776969" y="222.9169416941694" font-size="10px">4.94x</text><text class="label" x="290.94847916699905" y="236.11826182618262" font-size="10px">3.2x</text><text class="label" x="199.87740019108287" y="249.3195819581958" font-size="10px">1x</text><text class="label" x="200.5654628069433" y="262.520902090209" font-size="10px">1.02x</text><text class="label" x="340.6666093420661" y="211.2156215621562" font-size="8px"></text><text class="label" x="359.3537344776969" y="224.4169416941694" font-size="8px"></text><text class="label" x="287.44847916699905" y="237.61826182618262" font-size="8px"></text><text class="label" x="196.37740019108287" y="250.8195819581958" font-size="8px"></text><text class="label" x="197.0654628069433" y="264.020902090209" font-size="8px"></text></g><g style="font-size: 13px;"><rect x="150" y="275.28969563623025" width="312.577194789292" height="12.541254125412543" fill="#4472c4"></rect><rect x="150" y="288.49101576824347" width="329.72908065336856" height="12.541254125412543" fill="#ed7d31"></rect><rect x="150" y="301.6923359002567" width="309.9804130523415" height="12.541254125412543" fill="#a5a5a5"></rect><rect x="150" y="314.89365603226986" width="41.37740019108288" height="12.541254125412543" fill="#ffc000"></rect><rect x="150" y="328.0949761642831" width="43.60586459470218" height="12.541254125412543" fill="#5b9bd5"></rect><text class="label" x="471.077194789292" y="283.78969563623025" font-size="10px">7.55x</text><text class="label" x="488.22908065336856" y="296.99101576824347" font-size="10px">7.97x</text><text class="label" x="468.4804130523415" y="310.1923359002567" font-size="10px">7.49x</text><text class="label" x="199.87740019108287" y="323.39365603226986" font-size="10px">1x</text><text class="label" x="202.10586459470218" y="336.5949761642831" font-size="10px">1.05x</text><text class="label" x="467.577194789292" y="285.28969563623025" font-size="8px"></text><text class="label" x="484.72908065336856" y="298.49101576824347" font-size="8px"></text><text class="label" x="464.9804130523415" y="311.6923359002567" font-size="8px"></text><text class="label" x="196.37740019108287" y="324.89365603226986" font-size="8px"></text><text class="label" x="198.60586459470218" y="338.0949761642831" font-size="8px"></text></g><g style="font-size: 13px;"><rect x="150" y="349.3637697103044" width="146.58933554687127" height="12.541254125412543" fill="#4472c4"></rect><rect x="150" y="362.56508984231755" width="147.49757221682987" height="12.541254125412543" fill="#ed7d31"></rect><rect x="150" y="375.76640997433077" width="138.13471184245228" height="12.541254125412543" fill="#a5a5a5"></rect><rect x="150" y="388.967730106344" width="41.37740019108288" height="12.541254125412543" fill="#ffc000"></rect><rect x="150" y="402.16905023835716" width="41.83783773491833" height="12.541254125412543" fill="#5b9bd5"></rect><text class="label" x="305.08933554687127" y="357.8637697103044" font-size="10px">3.54x</text><text class="label" x="305.9975722168299" y="371.06508984231755" font-size="10px">3.56x</text><text class="label" x="296.63471184245225" y="384.26640997433077" font-size="10px">3.34x</text><text class="label" x="199.87740019108287" y="397.467730106344" font-size="10px">1x</text><text class="label" x="200.33783773491834" y="410.66905023835716" font-size="10px">1.01x</text><text class="label" x="301.58933554687127" y="359.3637697103044" font-size="8px"></text><text class="label" x="302.4975722168299" y="372.56508984231755" font-size="8px"></text><text class="label" x="293.13471184245225" y="385.76640997433077" font-size="8px"></text><text class="label" x="196.37740019108287" y="398.967730106344" font-size="8px"></text><text class="label" x="196.83783773491834" y="412.16905023835716" font-size="8px"></text></g><g style="font-size: 13px;"><rect x="150" y="423.4378437843784" width="247.09299074250762" height="12.541254125412543" fill="#4472c4"></rect><rect x="150" y="436.6391639163916" width="252.52215037641096" height="12.541254125412543" fill="#ed7d31"></rect><rect x="150" y="449.84048404840485" width="232.47448878226274" height="12.541254125412543" fill="#a5a5a5"></rect><rect x="150" y="463.041804180418" width="41.37740019108288" height="12.541254125412543" fill="#ffc000"></rect><rect x="150" y="476.24312431243123" width="43.90633598983849" height="12.541254125412543" fill="#5b9bd5"></rect><text class="label" x="405.5929907425076" y="431.9378437843784" font-size="10px">5.97x</text><text class="label" x="411.022150376411" y="445.1391639163916" font-size="10px">6.1x</text><text class="label" x="390.9744887822627" y="458.34048404840485" font-size="10px">5.62x</text><text class="label" x="199.87740019108287" y="471.541804180418" font-size="10px">1x</text><text class="label" x="202.40633598983848" y="484.74312431243123" font-size="10px">1.06x</text><text class="label" x="402.0929907425076" y="433.4378437843784" font-size="8px"></text><text class="label" x="407.522150376411" y="446.6391639163916" font-size="8px"></text><text class="label" x="387.4744887822627" y="459.84048404840485" font-size="8px"></text><text class="label" x="196.37740019108287" y="473.041804180418" font-size="8px"></text><text class="label" x="198.90633598983848" y="486.24312431243123" font-size="8px"></text></g><g style="font-size: 13px;"><rect x="150" y="497.51191785845253" width="194.5980875583183" height="12.541254125412543" fill="#4472c4"></rect><rect x="150" y="510.7132379904657" width="202.4979318379609" height="12.541254125412543" fill="#ed7d31"></rect><rect x="150" y="523.9145581224789" width="162.90654603163307" height="12.541254125412543" fill="#a5a5a5"></rect><rect x="150" y="537.1158782544921" width="41.98923995833447" height="12.541254125412543" fill="#ffc000"></rect><rect x="150" y="550.3171983865053" width="41.37740019108288" height="12.541254125412543" fill="#5b9bd5"></rect><text class="label" x="353.0980875583183" y="506.01191785845253" font-size="10px">4.7x</text><text class="label" x="360.9979318379609" y="519.2132379904657" font-size="10px">4.89x</text><text class="label" x="321.40654603163307" y="532.4145581224789" font-size="10px">3.94x</text><text class="label" x="200.48923995833448" y="545.6158782544921" font-size="10px">1.01x</text><text class="label" x="199.87740019108287" y="558.8171983865053" font-size="10px">1x</text><text class="label" x="349.5980875583183" y="507.51191785845253" font-size="8px"></text><text class="label" x="357.4979318379609" y="520.7132379904657" font-size="8px"></text><text class="label" x="317.90654603163307" y="533.9145581224789" font-size="8px"></text><text class="label" x="196.98923995833448" y="547.1158782544921" font-size="8px"></text><text class="label" x="196.37740019108287" y="560.3171983865053" font-size="8px"></text></g><g style="font-size: 13px;"><rect x="150" y="571.5859919325266" width="150.1534579240208" height="12.541254125412543" fill="#4472c4"></rect><rect x="150" y="584.7873120645397" width="151.53946748046405" height="12.541254125412543" fill="#ed7d31"></rect><rect x="150" y="597.9886321965529" width="56.23654113747654" height="12.541254125412543" fill="#a5a5a5"></rect><rect x="150" y="611.1899523285662" width="41.37740019108288" height="12.541254125412543" fill="#ffc000"></rect><rect x="150" y="624.3912724605793" width="49.65221948342967" height="12.541254125412543" fill="#5b9bd5"></rect><text class="label" x="308.6534579240208" y="580.0859919325266" font-size="10px">3.63x</text><text class="label" x="310.03946748046405" y="593.2873120645397" font-size="10px">3.66x</text><text class="label" x="214.73654113747654" y="606.4886321965529" font-size="10px">1.36x</text><text class="label" x="199.87740019108287" y="619.6899523285662" font-size="10px">1x</text><text class="label" x="208.15221948342966" y="632.8912724605793" font-size="10px">1.2x</text><text class="label" x="305.1534579240208" y="581.5859919325266" font-size="8px"></text><text class="label" x="306.53946748046405" y="594.7873120645397" font-size="8px"></text><text class="label" x="211.23654113747654" y="607.9886321965529" font-size="8px"></text><text class="label" x="196.37740019108287" y="621.1899523285662" font-size="8px"></text><text class="label" x="204.65221948342966" y="634.3912724605793" font-size="8px"></text></g></g></svg>