<svg xmlns="http://www.w3.org/2000/svg" xmlns:xlink="http://www.w3.org/1999/xlink" width="800" height="794" style="background-color: white;"><g class="y axis" transform="translate(149,45)" fill="none" font-size="10" font-family="sans-serif" text-anchor="end" style="font-size: 13px;"><path class="domain" stroke="currentColor" d="M0.5,0.5V600.5"></path><g class="tick" opacity="1" transform="translate(0,40.740740740740726)" style="font-size: 13px;"><line stroke="currentColor" x2="0"></line><text fill="currentColor" x="-3" dy="0.32em">object (simple)    </text></g><g class="tick" opacity="1" transform="translate(0,114.81481481481481)" style="font-size: 13px;"><line stroke="currentColor" x2="0"></line><text fill="currentColor" x="-3" dy="0.32em">object (hierarchical)    </text></g><g class="tick" opacity="1" transform="translate(0,188.88888888888889)" style="font-size: 13px;"><line stroke="currentColor" x2="0"></line><text fill="currentColor" x="-3" dy="0.32em">object (recursive)    </text></g><g class="tick" opacity="1" transform="translate(0,262.96296296296293)" style="font-size: 13px;"><line stroke="currentColor" x2="0"></line><text fill="currentColor" x="-3" dy="0.32em">object (union, explicit)    </text></g><g class="tick" opacity="1" transform="translate(0,337.037037037037)" style="font-size: 13px;"><line stroke="currentColor" x2="0"></line><text fill="currentColor" x="-3" dy="0.32em">array (simple)    </text></g><g class="tick" opacity="1" transform="translate(0,411.1111111111111)" style="font-size: 13px;"><line stroke="currentColor" x2="0"></line><text fill="currentColor" x="-3" dy="0.32em">array (hierarchical)    </text></g><g class="tick" opacity="1" transform="translate(0,485.18518518518516)" style="font-size: 13px;"><line stroke="currentColor" x2="0"></line><text fill="currentColor" x="-3" dy="0.32em">array (recursive)    </text></g><g class="tick" opacity="1" transform="translate(0,559.2592592592592)" style="font-size: 13px;"><line stroke="currentColor" x2="0"></line><text fill="currentColor" x="-3" dy="0.32em">array (union, explicit)    </text></g></g><g class="x axis" transform="translate(149,645)" fill="none" font-size="10" font-family="sans-serif" text-anchor="middle" style="font-size: 13px;"><path class="domain" stroke="currentColor" d="M0.5,0.5H485.5"></path><g class="tick" opacity="1" transform="translate(0.5,0)" style="font-size: 13px;"><line stroke="currentColor" y2="6"></line><text fill="currentColor" y="9" dy="0.71em">0x</text></g><g class="tick" opacity="1" transform="translate(95.30504271802094,0)" style="font-size: 13px;"><line stroke="currentColor" y2="6"></line><text fill="currentColor" y="9" dy="0.71em">5x</text></g><g class="tick" opacity="1" transform="translate(190.11008543604189,0)" style="font-size: 13px;"><line stroke="currentColor" y2="6"></line><text fill="currentColor" y="9" dy="0.71em">10x</text></g><g class="tick" opacity="1" transform="translate(284.9151281540628,0)" style="font-size: 13px;"><line stroke="currentColor" y2="6"></line><text fill="currentColor" y="9" dy="0.71em">15x</text></g><g class="tick" opacity="1" transform="translate(379.72017087208377,0)" style="font-size: 13px;"><line stroke="currentColor" y2="6"></line><text fill="currentColor" y="9" dy="0.71em">20x</text></g><g class="tick" opacity="1" transform="translate(474.5252135901047,0)" style="font-size: 13px;"><line stroke="currentColor" y2="6"></line><text fill="currentColor" y="9" dy="0.71em">25x</text></g></g><text transform="translate(400, 30)" style="text-anchor: middle; font-size: 20px; font-weight: bold;">assert benchmark</text><rect x="650" y="145" width="230" height="5" fill="gray"></rect><rect x="645" y="35" width="230" height="110" fill="none" stroke="black"></rect><rect x="655" y="45" width="10" height="10" style="fill: #4472c4;"></rect><text x="670" y="55" style="font-size: 12px;">nestia-express</text><rect x="655" y="65" width="10" height="10" style="fill: #ed7d31;"></rect><text x="670" y="75" style="font-size: 12px;">nestia-fastify</text><rect x="655" y="85" width="10" height="10" style="fill: #a5a5a5;"></rect><text x="670" y="95" style="font-size: 12px;">fastify</text><rect x="655" y="105" width="10" height="10" style="fill: #ffc000;"></rect><text x="670" y="115" style="font-size: 12px;">NestJS-express</text><rect x="655" y="125" width="10" height="10" style="fill: #5b9bd5;"></rect><text x="670" y="135" style="font-size: 12px;">NestJS-fastify</text><text x="20" y="709" style="font-size: 12px;">  - CPU: AMD Ryzen 7 6800HS with Radeon Graphics</text><text x="20" y="726" style="font-size: 12px;">  - OS: win32</text><text x="20" y="743" style="font-size: 12px;">  - RAM: 63 GB</text><text x="20" y="760" style="font-size: 12px;">  - NodeJS version: v16.20.0</text><text x="20" y="777" style="font-size: 12px;">  - Nestia version: v1.3.8</text><g style="font-size: 13px;"><g style="font-size: 13px;"><rect x="150" y="53.06747341400805" width="166.68445367142903" height="12.541254125412543" fill="#4472c4"></rect><rect x="150" y="66.26879354602124" width="239.14885280561722" height="12.541254125412543" fill="#ed7d31"></rect><rect x="150" y="79.47011367803445" width="226.20885387473552" height="12.541254125412543" fill="#a5a5a5"></rect><rect x="150" y="92.67143381004766" width="18.96100854360419" height="12.541254125412543" fill="#ffc000"></rect><rect x="150" y="105.87275394206085" width="19.739021961273387" height="12.541254125412543" fill="#5b9bd5"></rect><text class="label" x="325.184453671429" y="61.56747341400805" font-size="10px">8.79x</text><text class="label" x="397.64885280561725" y="74.76879354602124" font-size="10px">12.61x</text><text class="label" x="384.7088538747355" y="87.97011367803445" font-size="10px">11.93x</text><text class="label" x="177.46100854360418" y="101.17143381004766" font-size="10px">1x</text><text class="label" x="178.23902196127338" y="114.37275394206085" font-size="10px">1.04x</text><text class="label" x="321.684453671429" y="63.06747341400805" font-size="8px"></text><text class="label" x="394.14885280561725" y="76.26879354602124" font-size="8px"></text><text class="label" x="381.2088538747355" y="89.47011367803445" font-size="8px"></text><text class="label" x="173.96100854360418" y="102.67143381004766" font-size="8px"></text><text class="label" x="174.73902196127338" y="115.87275394206085" font-size="8px"></text></g><g style="font-size: 13px;"><rect x="150" y="127.14154748808213" width="226.39021091614066" height="12.541254125412543" fill="#4472c4"></rect><rect x="150" y="140.34286762009532" width="236.77245014163245" height="12.541254125412543" fill="#ed7d31"></rect><rect x="150" y="153.54418775210854" width="234.22561831405295" height="12.541254125412543" fill="#a5a5a5"></rect><rect x="150" y="166.74550788412174" width="18.96100854360419" height="12.541254125412543" fill="#ffc000"></rect><rect x="150" y="179.94682801613493" width="19.97923470163397" height="12.541254125412543" fill="#5b9bd5"></rect><text class="label" x="384.89021091614063" y="135.64154748808213" font-size="10px">11.94x</text><text class="label" x="395.2724501416325" y="148.84286762009532" font-size="10px">12.49x</text><text class="label" x="392.72561831405295" y="162.04418775210854" font-size="10px">12.35x</text><text class="label" x="177.46100854360418" y="175.24550788412174" font-size="10px">1x</text><text class="label" x="178.47923470163397" y="188.44682801613493" font-size="10px">1.05x</text><text class="label" x="381.39021091614063" y="137.14154748808213" font-size="8px"></text><text class="label" x="391.7724501416325" y="150.34286762009532" font-size="8px"></text><text class="label" x="389.22561831405295" y="163.54418775210854" font-size="8px"></text><text class="label" x="173.96100854360418" y="176.74550788412174" font-size="8px"></text><text class="label" x="174.97923470163397" y="189.94682801613493" font-size="8px"></text></g><g style="font-size: 13px;"><rect x="150" y="201.2156215621562" width="265.2563670693067" height="12.541254125412543" fill="#4472c4"></rect><rect x="150" y="214.4169416941694" width="279.4775479388622" height="12.541254125412543" fill="#ed7d31"></rect><rect x="150" y="227.61826182618262" width="265.39631238110223" height="12.541254125412543" fill="#a5a5a5"></rect><rect x="150" y="240.8195819581958" width="18.96100854360419" height="12.541254125412543" fill="#ffc000"></rect><rect x="150" y="254.020902090209" width="19.452501679369515" height="12.541254125412543" fill="#5b9bd5"></rect><text class="label" x="423.7563670693067" y="209.7156215621562" font-size="10px">13.99x</text><text class="label" x="437.9775479388622" y="222.9169416941694" font-size="10px">14.74x</text><text class="label" x="423.89631238110223" y="236.11826182618262" font-size="10px">14x</text><text class="label" x="177.46100854360418" y="249.3195819581958" font-size="10px">1x</text><text class="label" x="177.9525016793695" y="262.520902090209" font-size="10px">1.03x</text><text class="label" x="420.2563670693067" y="211.2156215621562" font-size="8px"></text><text class="label" x="434.4775479388622" y="224.4169416941694" font-size="8px"></text><text class="label" x="420.39631238110223" y="237.61826182618262" font-size="8px"></text><text class="label" x="173.96100854360418" y="250.8195819581958" font-size="8px"></text><text class="label" x="174.4525016793695" y="264.020902090209" font-size="8px"></text></g><g style="font-size: 13px;"><rect x="150" y="275.28969563623025" width="411.8484520109939" height="12.541254125412543" fill="#4472c4"></rect><rect x="150" y="288.49101576824347" width="440.9090909090908" height="12.541254125412543" fill="#ed7d31"></rect><rect x="150" y="301.6923359002567" width="273.86695114721397" height="12.541254125412543" fill="#a5a5a5"></rect><rect x="150" y="314.89365603226986" width="18.96100854360419" height="12.541254125412543" fill="#ffc000"></rect><rect x="150" y="328.0949761642831" width="19.472828581294458" height="12.541254125412543" fill="#5b9bd5"></rect><text class="label" x="570.3484520109939" y="283.78969563623025" font-size="10px">21.72x</text><text class="label" x="599.4090909090908" y="296.99101576824347" font-size="10px">23.25x</text><text class="label" x="432.36695114721397" y="310.1923359002567" font-size="10px">14.44x</text><text class="label" x="177.46100854360418" y="323.39365603226986" font-size="10px">1x</text><text class="label" x="177.97282858129446" y="336.5949761642831" font-size="10px">1.03x</text><text class="label" x="566.8484520109939" y="285.28969563623025" font-size="8px"></text><text class="label" x="595.9090909090908" y="298.49101576824347" font-size="8px"></text><text class="label" x="428.86695114721397" y="311.6923359002567" font-size="8px"></text><text class="label" x="173.96100854360418" y="324.89365603226986" font-size="8px"></text><text class="label" x="174.47282858129446" y="338.0949761642831" font-size="8px"></text></g><g style="font-size: 13px;"><rect x="150" y="349.3637697103044" width="283.52846536675236" height="12.541254125412543" fill="#4472c4"></rect><rect x="150" y="362.56508984231755" width="272.6274467525762" height="12.541254125412543" fill="#ed7d31"></rect><rect x="150" y="375.76640997433077" width="274.05019060358933" height="12.541254125412543" fill="#a5a5a5"></rect><rect x="150" y="388.967730106344" width="18.96100854360419" height="12.541254125412543" fill="#ffc000"></rect><rect x="150" y="402.16905023835716" width="19.887761906473784" height="12.541254125412543" fill="#5b9bd5"></rect><text class="label" x="442.02846536675236" y="357.8637697103044" font-size="10px">14.95x</text><text class="label" x="431.1274467525762" y="371.06508984231755" font-size="10px">14.38x</text><text class="label" x="432.55019060358933" y="384.26640997433077" font-size="10px">14.45x</text><text class="label" x="177.46100854360418" y="397.467730106344" font-size="10px">1x</text><text class="label" x="178.38776190647377" y="410.66905023835716" font-size="10px">1.05x</text><text class="label" x="438.52846536675236" y="359.3637697103044" font-size="8px"></text><text class="label" x="427.6274467525762" y="372.56508984231755" font-size="8px"></text><text class="label" x="429.05019060358933" y="385.76640997433077" font-size="8px"></text><text class="label" x="173.96100854360418" y="398.967730106344" font-size="8px"></text><text class="label" x="174.88776190647377" y="412.16905023835716" font-size="8px"></text></g><g style="font-size: 13px;"><rect x="150" y="423.4378437843784" width="316.5047101859978" height="12.541254125412543" fill="#4472c4"></rect><rect x="150" y="436.6391639163916" width="344.382878691995" height="12.541254125412543" fill="#ed7d31"></rect><rect x="150" y="449.84048404840485" width="319.8438796948247" height="12.541254125412543" fill="#a5a5a5"></rect><rect x="150" y="463.041804180418" width="18.96100854360419" height="12.541254125412543" fill="#ffc000"></rect><rect x="150" y="476.24312431243123" width="19.277185015877315" height="12.541254125412543" fill="#5b9bd5"></rect><text class="label" x="475.0047101859978" y="431.9378437843784" font-size="10px">16.69x</text><text class="label" x="502.882878691995" y="445.1391639163916" font-size="10px">18.16x</text><text class="label" x="478.3438796948247" y="458.34048404840485" font-size="10px">16.87x</text><text class="label" x="177.46100854360418" y="471.541804180418" font-size="10px">1x</text><text class="label" x="177.7771850158773" y="484.74312431243123" font-size="10px">1.02x</text><text class="label" x="471.5047101859978" y="433.4378437843784" font-size="8px"></text><text class="label" x="499.382878691995" y="446.6391639163916" font-size="8px"></text><text class="label" x="474.8438796948247" y="459.84048404840485" font-size="8px"></text><text class="label" x="173.96100854360418" y="473.041804180418" font-size="8px"></text><text class="label" x="174.2771850158773" y="486.24312431243123" font-size="8px"></text></g><g style="font-size: 13px;"><rect x="150" y="497.51191785845253" width="321.65954900430967" height="12.541254125412543" fill="#4472c4"></rect><rect x="150" y="510.7132379904657" width="301.09741664945307" height="12.541254125412543" fill="#ed7d31"></rect><rect x="150" y="523.9145581224789" width="293.6917753597783" height="12.541254125412543" fill="#a5a5a5"></rect><rect x="150" y="537.1158782544921" width="18.96100854360419" height="12.541254125412543" fill="#ffc000"></rect><rect x="150" y="550.3171983865053" width="19.286332589866703" height="12.541254125412543" fill="#5b9bd5"></rect><text class="label" x="480.15954900430967" y="506.01191785845253" font-size="10px">16.96x</text><text class="label" x="459.59741664945307" y="519.2132379904657" font-size="10px">15.88x</text><text class="label" x="452.1917753597783" y="532.4145581224789" font-size="10px">15.49x</text><text class="label" x="177.46100854360418" y="545.6158782544921" font-size="10px">1x</text><text class="label" x="177.7863325898667" y="558.8171983865053" font-size="10px">1.02x</text><text class="label" x="476.65954900430967" y="507.51191785845253" font-size="8px"></text><text class="label" x="456.09741664945307" y="520.7132379904657" font-size="8px"></text><text class="label" x="448.6917753597783" y="533.9145581224789" font-size="8px"></text><text class="label" x="173.96100854360418" y="547.1158782544921" font-size="8px"></text><text class="label" x="174.2863325898667" y="560.3171983865053" font-size="8px"></text></g><g style="font-size: 13px;"><rect x="150" y="571.5859919325266" width="367.4600613502269" height="12.541254125412543" fill="#4472c4"></rect><rect x="150" y="584.7873120645397" width="339.21369269804006" height="12.541254125412543" fill="#ed7d31"></rect><rect x="150" y="597.9886321965529" width="231.9262353503888" height="12.541254125412543" fill="#a5a5a5"></rect><rect x="150" y="611.1899523285662" width="19.228736465139804" height="12.541254125412543" fill="#ffc000"></rect><rect x="150" y="624.3912724605793" width="18.96100854360419" height="12.541254125412543" fill="#5b9bd5"></rect><text class="label" x="525.9600613502269" y="580.0859919325266" font-size="10px">19.38x</text><text class="label" x="497.71369269804006" y="593.2873120645397" font-size="10px">17.89x</text><text class="label" x="390.42623535038877" y="606.4886321965529" font-size="10px">12.23x</text><text class="label" x="177.7287364651398" y="619.6899523285662" font-size="10px">1.01x</text><text class="label" x="177.46100854360418" y="632.8912724605793" font-size="10px">1x</text><text class="label" x="522.4600613502269" y="581.5859919325266" font-size="8px"></text><text class="label" x="494.21369269804006" y="594.7873120645397" font-size="8px"></text><text class="label" x="386.92623535038877" y="607.9886321965529" font-size="8px"></text><text class="label" x="174.2287364651398" y="621.1899523285662" font-size="8px"></text><text class="label" x="173.96100854360418" y="634.3912724605793" font-size="8px"></text></g></g></svg>