<svg xmlns="http://www.w3.org/2000/svg" xmlns:xlink="http://www.w3.org/1999/xlink" width="800" height="674" style="background-color: white;"><g class="y axis" transform="translate(149,45)" fill="none" font-size="10" font-family="sans-serif" text-anchor="end" style="font-size: 13px;"><path class="domain" stroke="currentColor" d="M0.5,0.5V480.5"></path><g class="tick" opacity="1" transform="translate(0,32.592592592592595)" style="font-size: 13px;"><line stroke="currentColor" x2="0"></line><text fill="currentColor" x="-3" dy="0.32em">object (simple)    </text></g><g class="tick" opacity="1" transform="translate(0,91.85185185185186)" style="font-size: 13px;"><line stroke="currentColor" x2="0"></line><text fill="currentColor" x="-3" dy="0.32em">object (hierarchical)    </text></g><g class="tick" opacity="1" transform="translate(0,151.11111111111111)" style="font-size: 13px;"><line stroke="currentColor" x2="0"></line><text fill="currentColor" x="-3" dy="0.32em">object (recursive)    </text></g><g class="tick" opacity="1" transform="translate(0,210.37037037037035)" style="font-size: 13px;"><line stroke="currentColor" x2="0"></line><text fill="currentColor" x="-3" dy="0.32em">object (union, explicit)    </text></g><g class="tick" opacity="1" transform="translate(0,269.6296296296296)" style="font-size: 13px;"><line stroke="currentColor" x2="0"></line><text fill="currentColor" x="-3" dy="0.32em">array (simple)    </text></g><g class="tick" opacity="1" transform="translate(0,328.8888888888889)" style="font-size: 13px;"><line stroke="currentColor" x2="0"></line><text fill="currentColor" x="-3" dy="0.32em">array (hierarchical)    </text></g><g class="tick" opacity="1" transform="translate(0,388.14814814814815)" style="font-size: 13px;"><line stroke="currentColor" x2="0"></line><text fill="currentColor" x="-3" dy="0.32em">array (recursive)    </text></g><g class="tick" opacity="1" transform="translate(0,447.40740740740745)" style="font-size: 13px;"><line stroke="currentColor" x2="0"></line><text fill="currentColor" x="-3" dy="0.32em">array (union, explicit)    </text></g></g><g class="x axis" transform="translate(149,525)" fill="none" font-size="10" font-family="sans-serif" text-anchor="middle" style="font-size: 13px;"><path class="domain" stroke="currentColor" d="M0.5,0.5H485.5"></path><g class="tick" opacity="1" transform="translate(0.5,0)" style="font-size: 13px;"><line stroke="currentColor" y2="6"></line><text fill="currentColor" y="9" dy="0.71em">0x</text></g><g class="tick" opacity="1" transform="translate(95.310758630819,0)" style="font-size: 13px;"><line stroke="currentColor" y2="6"></line><text fill="currentColor" y="9" dy="0.71em">5x</text></g><g class="tick" opacity="1" transform="translate(190.121517261638,0)" style="font-size: 13px;"><line stroke="currentColor" y2="6"></line><text fill="currentColor" y="9" dy="0.71em">10x</text></g><g class="tick" opacity="1" transform="translate(284.93227589245697,0)" style="font-size: 13px;"><line stroke="currentColor" y2="6"></line><text fill="currentColor" y="9" dy="0.71em">15x</text></g><g class="tick" opacity="1" transform="translate(379.743034523276,0)" style="font-size: 13px;"><line stroke="currentColor" y2="6"></line><text fill="currentColor" y="9" dy="0.71em">20x</text></g><g class="tick" opacity="1" transform="translate(474.55379315409493,0)" style="font-size: 13px;"><line stroke="currentColor" y2="6"></line><text fill="currentColor" y="9" dy="0.71em">25x</text></g></g><text transform="translate(400, 30)" style="text-anchor: middle; font-size: 20px; font-weight: bold;">assert benchmark</text><rect x="650" y="125" width="230" height="5" fill="gray"></rect><rect x="645" y="35" width="230" height="90" fill="none" stroke="black"></rect><rect x="655" y="45" width="10" height="10" style="fill: #4472c4;"></rect><text x="670" y="55" style="font-size: 12px;">nestia-express</text><rect x="655" y="65" width="10" height="10" style="fill: #ed7d31;"></rect><text x="670" y="75" style="font-size: 12px;">nestia-fastify</text><rect x="655" y="85" width="10" height="10" style="fill: #a5a5a5;"></rect><text x="670" y="95" style="font-size: 12px;">NestJS-express</text><rect x="655" y="105" width="10" height="10" style="fill: #ffc000;"></rect><text x="670" y="115" style="font-size: 12px;">NestJS-fastify</text><text x="20" y="589" style="font-size: 12px;">  - CPU: AMD Ryzen 7 6800HS with Radeon Graphics</text><text x="20" y="606" style="font-size: 12px;">  - OS: win32</text><text x="20" y="623" style="font-size: 12px;">  - RAM: 63 GB</text><text x="20" y="640" style="font-size: 12px;">  - NodeJS version: v16.20.0</text><text x="20" y="657" style="font-size: 12px;">  - Nestia version: v1.2.2</text><g style="font-size: 13px;"><g style="font-size: 13px;"><rect x="150" y="51.584362139917694" width="144.30592059552248" height="12.510288065843621" fill="#4472c4"></rect><rect x="150" y="64.75308641975309" width="206.44897716754267" height="12.510288065843621" fill="#ed7d31"></rect><rect x="150" y="77.92181069958848" width="19.82975019284453" height="12.510288065843621" fill="#a5a5a5"></rect><rect x="150" y="91.09053497942386" width="18.962151726163796" height="12.510288065843621" fill="#ffc000"></rect><text class="label" x="302.8059205955225" y="60.084362139917694" font-size="10px">7.61x</text><text class="label" x="364.9489771675427" y="73.25308641975309" font-size="10px">10.89x</text><text class="label" x="178.32975019284453" y="86.42181069958848" font-size="10px">1.05x</text><text class="label" x="177.4621517261638" y="99.59053497942386" font-size="10px">1x</text><text class="label" x="299.3059205955225" y="61.584362139917694" font-size="8px"></text><text class="label" x="361.4489771675427" y="74.75308641975309" font-size="8px"></text><text class="label" x="174.82975019284453" y="87.92181069958848" font-size="8px"></text><text class="label" x="173.9621517261638" y="101.09053497942386" font-size="8px"></text></g><g style="font-size: 13px;"><rect x="150" y="110.84362139917695" width="208.8862236301767" height="12.510288065843621" fill="#4472c4"></rect><rect x="150" y="124.01234567901236" width="241.78176589698305" height="12.510288065843621" fill="#ed7d31"></rect><rect x="150" y="137.18106995884773" width="18.962151726163796" height="12.510288065843621" fill="#a5a5a5"></rect><rect x="150" y="150.34979423868313" width="19.35218517715765" height="12.510288065843621" fill="#ffc000"></rect><text class="label" x="367.3862236301767" y="119.34362139917695" font-size="10px">11.02x</text><text class="label" x="400.2817658969831" y="132.51234567901236" font-size="10px">12.75x</text><text class="label" x="177.4621517261638" y="145.68106995884773" font-size="10px">1x</text><text class="label" x="177.85218517715765" y="158.84979423868313" font-size="10px">1.02x</text><text class="label" x="363.8862236301767" y="120.84362139917695" font-size="8px"></text><text class="label" x="396.7817658969831" y="134.01234567901236" font-size="8px"></text><text class="label" x="173.9621517261638" y="147.18106995884773" font-size="8px"></text><text class="label" x="174.35218517715765" y="160.34979423868313" font-size="8px"></text></g><g style="font-size: 13px;"><rect x="150" y="170.10288065843622" width="250.5862043234743" height="12.510288065843621" fill="#4472c4"></rect><rect x="150" y="183.2716049382716" width="269.9575018029118" height="12.510288065843621" fill="#ed7d31"></rect><rect x="150" y="196.440329218107" width="18.962151726163796" height="12.510288065843621" fill="#a5a5a5"></rect><rect x="150" y="209.6090534979424" width="19.226517711073228" height="12.510288065843621" fill="#ffc000"></rect><text class="label" x="409.0862043234743" y="178.60288065843622" font-size="10px">13.22x</text><text class="label" x="428.4575018029118" y="191.7716049382716" font-size="10px">14.24x</text><text class="label" x="177.4621517261638" y="204.940329218107" font-size="10px">1x</text><text class="label" x="177.72651771107323" y="218.1090534979424" font-size="10px">1.01x</text><text class="label" x="405.5862043234743" y="180.10288065843622" font-size="8px"></text><text class="label" x="424.9575018029118" y="193.2716049382716" font-size="8px"></text><text class="label" x="173.9621517261638" y="206.440329218107" font-size="8px"></text><text class="label" x="174.22651771107323" y="219.6090534979424" font-size="8px"></text></g><g style="font-size: 13px;"><rect x="150" y="229.36213991769546" width="401.40633885440803" height="12.510288065843621" fill="#4472c4"></rect><rect x="150" y="242.53086419753086" width="440.9090909090909" height="12.510288065843621" fill="#ed7d31"></rect><rect x="150" y="255.69958847736626" width="19.36306451332224" height="12.510288065843621" fill="#a5a5a5"></rect><rect x="150" y="268.86831275720164" width="18.962151726163796" height="12.510288065843621" fill="#ffc000"></rect><text class="label" x="559.906338854408" y="237.86213991769546" font-size="10px">21.17x</text><text class="label" x="599.4090909090909" y="251.03086419753086" font-size="10px">23.25x</text><text class="label" x="177.86306451332223" y="264.19958847736626" font-size="10px">1.02x</text><text class="label" x="177.4621517261638" y="277.36831275720164" font-size="10px">1x</text><text class="label" x="556.406338854408" y="239.36213991769546" font-size="8px"></text><text class="label" x="595.9090909090909" y="252.53086419753086" font-size="8px"></text><text class="label" x="174.36306451332223" y="265.69958847736626" font-size="8px"></text><text class="label" x="173.9621517261638" y="278.86831275720164" font-size="8px"></text></g><g style="font-size: 13px;"><rect x="150" y="288.6213991769547" width="262.8050582962884" height="12.510288065843621" fill="#4472c4"></rect><rect x="150" y="301.7901234567901" width="266.14905327458246" height="12.510288065843621" fill="#ed7d31"></rect><rect x="150" y="314.9588477366255" width="18.962151726163796" height="12.510288065843621" fill="#a5a5a5"></rect><rect x="150" y="328.12757201646093" width="20.170952325343823" height="12.510288065843621" fill="#ffc000"></rect><text class="label" x="421.3050582962884" y="297.1213991769547" font-size="10px">13.86x</text><text class="label" x="424.64905327458246" y="310.2901234567901" font-size="10px">14.04x</text><text class="label" x="177.4621517261638" y="323.4588477366255" font-size="10px">1x</text><text class="label" x="178.67095232534382" y="336.62757201646093" font-size="10px">1.06x</text><text class="label" x="417.8050582962884" y="298.6213991769547" font-size="8px"></text><text class="label" x="421.14905327458246" y="311.7901234567901" font-size="8px"></text><text class="label" x="173.9621517261638" y="324.9588477366255" font-size="8px"></text><text class="label" x="175.17095232534382" y="338.12757201646093" font-size="8px"></text></g><g style="font-size: 13px;"><rect x="150" y="347.880658436214" width="325.124822982818" height="12.510288065843621" fill="#4472c4"></rect><rect x="150" y="361.04938271604937" width="333.7713852695415" height="12.510288065843621" fill="#ed7d31"></rect><rect x="150" y="374.2181069958848" width="18.962151726163796" height="12.510288065843621" fill="#a5a5a5"></rect><rect x="150" y="387.38683127572017" width="19.775290463436132" height="12.510288065843621" fill="#ffc000"></rect><text class="label" x="483.624822982818" y="356.380658436214" font-size="10px">17.15x</text><text class="label" x="492.2713852695415" y="369.54938271604937" font-size="10px">17.6x</text><text class="label" x="177.4621517261638" y="382.7181069958848" font-size="10px">1x</text><text class="label" x="178.27529046343614" y="395.88683127572017" font-size="10px">1.04x</text><text class="label" x="480.124822982818" y="357.880658436214" font-size="8px"></text><text class="label" x="488.7713852695415" y="371.04938271604937" font-size="8px"></text><text class="label" x="173.9621517261638" y="384.2181069958848" font-size="8px"></text><text class="label" x="174.77529046343614" y="397.38683127572017" font-size="8px"></text></g><g style="font-size: 13px;"><rect x="150" y="407.13991769547323" width="299.96600996774384" height="12.510288065843621" fill="#4472c4"></rect><rect x="150" y="420.3086419753086" width="287.40213791948884" height="12.510288065843621" fill="#ed7d31"></rect><rect x="150" y="433.47736625514403" width="18.962151726163796" height="12.510288065843621" fill="#a5a5a5"></rect><rect x="150" y="446.6460905349794" width="19.287205672940587" height="12.510288065843621" fill="#ffc000"></rect><text class="label" x="458.46600996774384" y="415.63991769547323" font-size="10px">15.82x</text><text class="label" x="445.90213791948884" y="428.8086419753086" font-size="10px">15.16x</text><text class="label" x="177.4621517261638" y="441.97736625514403" font-size="10px">1x</text><text class="label" x="177.7872056729406" y="455.1460905349794" font-size="10px">1.02x</text><text class="label" x="454.96600996774384" y="417.13991769547323" font-size="8px"></text><text class="label" x="442.40213791948884" y="430.3086419753086" font-size="8px"></text><text class="label" x="173.9621517261638" y="443.47736625514403" font-size="8px"></text><text class="label" x="174.2872056729406" y="456.6460905349794" font-size="8px"></text></g><g style="font-size: 13px;"><rect x="150" y="466.3991769547325" width="367.3198145382515" height="12.510288065843621" fill="#4472c4"></rect><rect x="150" y="479.5679012345679" width="334.04711944225386" height="12.510288065843621" fill="#ed7d31"></rect><rect x="150" y="492.73662551440333" width="19.244524528953658" height="12.510288065843621" fill="#a5a5a5"></rect><rect x="150" y="505.9053497942387" width="18.962151726163796" height="12.510288065843621" fill="#ffc000"></rect><text class="label" x="525.8198145382514" y="474.8991769547325" font-size="10px">19.37x</text><text class="label" x="492.54711944225386" y="488.0679012345679" font-size="10px">17.62x</text><text class="label" x="177.74452452895366" y="501.23662551440333" font-size="10px">1.01x</text><text class="label" x="177.4621517261638" y="514.4053497942386" font-size="10px">1x</text><text class="label" x="522.3198145382514" y="476.3991769547325" font-size="8px"></text><text class="label" x="489.04711944225386" y="489.5679012345679" font-size="8px"></text><text class="label" x="174.24452452895366" y="502.73662551440333" font-size="8px"></text><text class="label" x="173.9621517261638" y="515.9053497942386" font-size="8px"></text></g></g></svg>