<svg xmlns="http://www.w3.org/2000/svg" xmlns:xlink="http://www.w3.org/1999/xlink" width="800" height="674" style="background-color: white;"><g class="y axis" transform="translate(149,45)" fill="none" font-size="10" font-family="sans-serif" text-anchor="end" style="font-size: 13px;"><path class="domain" stroke="currentColor" d="M0.5,0.5V480.5"></path><g class="tick" opacity="1" transform="translate(0,32.592592592592595)" style="font-size: 13px;"><line stroke="currentColor" x2="0"></line><text fill="currentColor" x="-3" dy="0.32em">object (simple)    </text></g><g class="tick" opacity="1" transform="translate(0,91.85185185185186)" style="font-size: 13px;"><line stroke="currentColor" x2="0"></line><text fill="currentColor" x="-3" dy="0.32em">object (hierarchical)    </text></g><g class="tick" opacity="1" transform="translate(0,151.11111111111111)" style="font-size: 13px;"><line stroke="currentColor" x2="0"></line><text fill="currentColor" x="-3" dy="0.32em">object (recursive)    </text></g><g class="tick" opacity="1" transform="translate(0,210.37037037037035)" style="font-size: 13px;"><line stroke="currentColor" x2="0"></line><text fill="currentColor" x="-3" dy="0.32em">object (union, explicit)    </text></g><g class="tick" opacity="1" transform="translate(0,269.6296296296296)" style="font-size: 13px;"><line stroke="currentColor" x2="0"></line><text fill="currentColor" x="-3" dy="0.32em">array (simple)    </text></g><g class="tick" opacity="1" transform="translate(0,328.8888888888889)" style="font-size: 13px;"><line stroke="currentColor" x2="0"></line><text fill="currentColor" x="-3" dy="0.32em">array (hierarchical)    </text></g><g class="tick" opacity="1" transform="translate(0,388.14814814814815)" style="font-size: 13px;"><line stroke="currentColor" x2="0"></line><text fill="currentColor" x="-3" dy="0.32em">array (recursive)    </text></g><g class="tick" opacity="1" transform="translate(0,447.40740740740745)" style="font-size: 13px;"><line stroke="currentColor" x2="0"></line><text fill="currentColor" x="-3" dy="0.32em">array (union, explicit)    </text></g></g><g class="x axis" transform="translate(149,525)" fill="none" font-size="10" font-family="sans-serif" text-anchor="middle" style="font-size: 13px;"><path class="domain" stroke="currentColor" d="M0.5,0.5H485.5"></path><g class="tick" opacity="1" transform="translate(0.5,0)" style="font-size: 13px;"><line stroke="currentColor" y2="6"></line><text fill="currentColor" y="9" dy="0.71em">0x</text></g><g class="tick" opacity="1" transform="translate(75.98601706077363,0)" style="font-size: 13px;"><line stroke="currentColor" y2="6"></line><text fill="currentColor" y="9" dy="0.71em">5x</text></g><g class="tick" opacity="1" transform="translate(151.47203412154727,0)" style="font-size: 13px;"><line stroke="currentColor" y2="6"></line><text fill="currentColor" y="9" dy="0.71em">10x</text></g><g class="tick" opacity="1" transform="translate(226.95805118232093,0)" style="font-size: 13px;"><line stroke="currentColor" y2="6"></line><text fill="currentColor" y="9" dy="0.71em">15x</text></g><g class="tick" opacity="1" transform="translate(302.44406824309453,0)" style="font-size: 13px;"><line stroke="currentColor" y2="6"></line><text fill="currentColor" y="9" dy="0.71em">20x</text></g><g class="tick" opacity="1" transform="translate(377.9300853038682,0)" style="font-size: 13px;"><line stroke="currentColor" y2="6"></line><text fill="currentColor" y="9" dy="0.71em">25x</text></g><g class="tick" opacity="1" transform="translate(453.41610236464186,0)" style="font-size: 13px;"><line stroke="currentColor" y2="6"></line><text fill="currentColor" y="9" dy="0.71em">30x</text></g></g><text transform="translate(400, 30)" style="text-anchor: middle; font-size: 20px; font-weight: bold;">performance benchmark</text><rect x="650" y="125" width="230" height="5" fill="gray"></rect><rect x="645" y="35" width="230" height="90" fill="none" stroke="black"></rect><rect x="655" y="45" width="10" height="10" style="fill: #4472c4;"></rect><text x="670" y="55" style="font-size: 12px;">nestia-express</text><rect x="655" y="65" width="10" height="10" style="fill: #ed7d31;"></rect><text x="670" y="75" style="font-size: 12px;">nestia-fastify</text><rect x="655" y="85" width="10" height="10" style="fill: #a5a5a5;"></rect><text x="670" y="95" style="font-size: 12px;">NestJS-express</text><rect x="655" y="105" width="10" height="10" style="fill: #ffc000;"></rect><text x="670" y="115" style="font-size: 12px;">NestJS-fastify</text><text x="20" y="589" style="font-size: 12px;">  - CPU: AMD Ryzen 7 6800HS with Radeon Graphics</text><text x="20" y="606" style="font-size: 12px;">  - OS: win32</text><text x="20" y="623" style="font-size: 12px;">  - RAM: 63 GB</text><text x="20" y="640" style="font-size: 12px;">  - NodeJS version: v16.20.0</text><text x="20" y="657" style="font-size: 12px;">  - Nestia version: v1.2.2</text><g style="font-size: 13px;"><g style="font-size: 13px;"><rect x="150" y="51.584362139917694" width="103.61899067186853" height="12.510288065843621" fill="#4472c4"></rect><rect x="150" y="64.75308641975309" width="158.1065206668981" height="12.510288065843621" fill="#ed7d31"></rect><rect x="150" y="77.92181069958848" width="15.097203412154728" height="12.510288065843621" fill="#a5a5a5"></rect><rect x="150" y="91.09053497942386" width="16.230622818257977" height="12.510288065843621" fill="#ffc000"></rect><text class="label" x="262.1189906718685" y="60.084362139917694" font-size="10px">6.86x</text><text class="label" x="316.60652066689806" y="73.25308641975309" font-size="10px">10.47x</text><text class="label" x="173.59720341215473" y="86.42181069958848" font-size="10px">1x</text><text class="label" x="174.73062281825798" y="99.59053497942386" font-size="10px">1.08x</text><text class="label" x="258.6189906718685" y="61.584362139917694" font-size="8px"></text><text class="label" x="313.10652066689806" y="74.75308641975309" font-size="8px"></text><text class="label" x="170.09720341215473" y="87.92181069958848" font-size="8px"></text><text class="label" x="171.23062281825798" y="101.09053497942386" font-size="8px"></text></g><g style="font-size: 13px;"><rect x="150" y="110.84362139917695" width="117.91421306677952" height="12.510288065843621" fill="#4472c4"></rect><rect x="150" y="124.01234567901236" width="133.1639315533338" height="12.510288065843621" fill="#ed7d31"></rect><rect x="150" y="137.18106995884773" width="15.097203412154728" height="12.510288065843621" fill="#a5a5a5"></rect><rect x="150" y="150.34979423868313" width="15.402806659777932" height="12.510288065843621" fill="#ffc000"></rect><text class="label" x="276.41421306677955" y="119.34362139917695" font-size="10px">7.81x</text><text class="label" x="291.6639315533338" y="132.51234567901236" font-size="10px">8.82x</text><text class="label" x="173.59720341215473" y="145.68106995884773" font-size="10px">1x</text><text class="label" x="173.90280665977792" y="158.84979423868313" font-size="10px">1.02x</text><text class="label" x="272.91421306677955" y="120.84362139917695" font-size="8px"></text><text class="label" x="288.1639315533338" y="134.01234567901236" font-size="8px"></text><text class="label" x="170.09720341215473" y="147.18106995884773" font-size="8px"></text><text class="label" x="170.40280665977792" y="160.34979423868313" font-size="8px"></text></g><g style="font-size: 13px;"><rect x="150" y="170.10288065843622" width="120.31843435662395" height="12.510288065843621" fill="#4472c4"></rect><rect x="150" y="183.2716049382716" width="136.47488165618057" height="12.510288065843621" fill="#ed7d31"></rect><rect x="150" y="196.440329218107" width="15.101612133339037" height="12.510288065843621" fill="#a5a5a5"></rect><rect x="150" y="209.6090534979424" width="15.097203412154728" height="12.510288065843621" fill="#ffc000"></rect><text class="label" x="278.8184343566239" y="178.60288065843622" font-size="10px">7.97x</text><text class="label" x="294.97488165618057" y="191.7716049382716" font-size="10px">9.04x</text><text class="label" x="173.60161213333905" y="204.940329218107" font-size="10px">1x</text><text class="label" x="173.59720341215473" y="218.1090534979424" font-size="10px">1x</text><text class="label" x="275.3184343566239" y="180.10288065843622" font-size="8px"></text><text class="label" x="291.47488165618057" y="193.2716049382716" font-size="8px"></text><text class="label" x="170.10161213333905" y="206.440329218107" font-size="8px"></text><text class="label" x="170.09720341215473" y="219.6090534979424" font-size="8px"></text></g><g style="font-size: 13px;"><rect x="150" y="229.36213991769546" width="373.5936106674815" height="12.510288065843621" fill="#4472c4"></rect><rect x="150" y="242.53086419753086" width="440.9090909090909" height="12.510288065843621" fill="#ed7d31"></rect><rect x="150" y="255.69958847736626" width="15.327250880452699" height="12.510288065843621" fill="#a5a5a5"></rect><rect x="150" y="268.86831275720164" width="15.097203412154728" height="12.510288065843621" fill="#ffc000"></rect><text class="label" x="532.0936106674815" y="237.86213991769546" font-size="10px">24.75x</text><text class="label" x="599.4090909090909" y="251.03086419753086" font-size="10px">29.2x</text><text class="label" x="173.8272508804527" y="264.19958847736626" font-size="10px">1.02x</text><text class="label" x="173.59720341215473" y="277.36831275720164" font-size="10px">1x</text><text class="label" x="528.5936106674815" y="239.36213991769546" font-size="8px"></text><text class="label" x="595.9090909090909" y="252.53086419753086" font-size="8px"></text><text class="label" x="170.3272508804527" y="265.69958847736626" font-size="8px"></text><text class="label" x="170.09720341215473" y="278.86831275720164" font-size="8px"></text></g><g style="font-size: 13px;"><rect x="150" y="288.6213991769547" width="183.52382929276268" height="12.510288065843621" fill="#4472c4"></rect><rect x="150" y="301.7901234567901" width="211.67683319232867" height="12.510288065843621" fill="#ed7d31"></rect><rect x="150" y="314.9588477366255" width="15.116892818380597" height="12.510288065843621" fill="#a5a5a5"></rect><rect x="150" y="328.12757201646093" width="15.097203412154728" height="12.510288065843621" fill="#ffc000"></rect><text class="label" x="342.0238292927627" y="297.1213991769547" font-size="10px">12.16x</text><text class="label" x="370.1768331923287" y="310.2901234567901" font-size="10px">14.02x</text><text class="label" x="173.6168928183806" y="323.4588477366255" font-size="10px">1x</text><text class="label" x="173.59720341215473" y="336.62757201646093" font-size="10px">1x</text><text class="label" x="338.5238292927627" y="298.6213991769547" font-size="8px"></text><text class="label" x="366.6768331923287" y="311.7901234567901" font-size="8px"></text><text class="label" x="170.1168928183806" y="324.9588477366255" font-size="8px"></text><text class="label" x="170.09720341215473" y="338.12757201646093" font-size="8px"></text></g><g style="font-size: 13px;"><rect x="150" y="347.880658436214" width="315.4330564452311" height="12.510288065843621" fill="#4472c4"></rect><rect x="150" y="361.04938271604937" width="318.7682982688669" height="12.510288065843621" fill="#ed7d31"></rect><rect x="150" y="374.2181069958848" width="15.937225304105143" height="12.510288065843621" fill="#a5a5a5"></rect><rect x="150" y="387.38683127572017" width="15.097203412154728" height="12.510288065843621" fill="#ffc000"></rect><text class="label" x="473.9330564452311" y="356.380658436214" font-size="10px">20.89x</text><text class="label" x="477.2682982688669" y="369.54938271604937" font-size="10px">21.11x</text><text class="label" x="174.43722530410514" y="382.7181069958848" font-size="10px">1.06x</text><text class="label" x="173.59720341215473" y="395.88683127572017" font-size="10px">1x</text><text class="label" x="470.4330564452311" y="357.880658436214" font-size="8px"></text><text class="label" x="473.7682982688669" y="371.04938271604937" font-size="8px"></text><text class="label" x="170.93722530410514" y="384.2181069958848" font-size="8px"></text><text class="label" x="170.09720341215473" y="397.38683127572017" font-size="8px"></text></g><g style="font-size: 13px;"><rect x="150" y="407.13991769547323" width="138.1698212985045" height="12.510288065843621" fill="#4472c4"></rect><rect x="150" y="420.3086419753086" width="147.49334588590656" height="12.510288065843621" fill="#ed7d31"></rect><rect x="150" y="433.47736625514403" width="15.581388277578982" height="12.510288065843621" fill="#a5a5a5"></rect><rect x="150" y="446.6460905349794" width="15.097203412154728" height="12.510288065843621" fill="#ffc000"></rect><text class="label" x="296.66982129850453" y="415.63991769547323" font-size="10px">9.15x</text><text class="label" x="305.9933458859066" y="428.8086419753086" font-size="10px">9.77x</text><text class="label" x="174.08138827757898" y="441.97736625514403" font-size="10px">1.03x</text><text class="label" x="173.59720341215473" y="455.1460905349794" font-size="10px">1x</text><text class="label" x="293.16982129850453" y="417.13991769547323" font-size="8px"></text><text class="label" x="302.4933458859066" y="430.3086419753086" font-size="8px"></text><text class="label" x="170.58138827757898" y="443.47736625514403" font-size="8px"></text><text class="label" x="170.09720341215473" y="456.6460905349794" font-size="8px"></text></g><g style="font-size: 13px;"><rect x="150" y="466.3991769547325" width="281.09987080432086" height="12.510288065843621" fill="#4472c4"></rect><rect x="150" y="479.5679012345679" width="294.23637545376357" height="12.510288065843621" fill="#ed7d31"></rect><rect x="150" y="492.73662551440333" width="15.736794693943988" height="12.510288065843621" fill="#a5a5a5"></rect><rect x="150" y="505.9053497942387" width="15.097203412154728" height="12.510288065843621" fill="#ffc000"></rect><text class="label" x="439.59987080432086" y="474.8991769547325" font-size="10px">18.62x</text><text class="label" x="452.73637545376357" y="488.0679012345679" font-size="10px">19.49x</text><text class="label" x="174.23679469394398" y="501.23662551440333" font-size="10px">1.04x</text><text class="label" x="173.59720341215473" y="514.4053497942386" font-size="10px">1x</text><text class="label" x="436.09987080432086" y="476.3991769547325" font-size="8px"></text><text class="label" x="449.23637545376357" y="489.5679012345679" font-size="8px"></text><text class="label" x="170.73679469394398" y="502.73662551440333" font-size="8px"></text><text class="label" x="170.09720341215473" y="515.9053497942386" font-size="8px"></text></g></g></svg>