<svg xmlns="http://www.w3.org/2000/svg" xmlns:xlink="http://www.w3.org/1999/xlink" width="800" height="794" style="background-color: white;"><g class="y axis" transform="translate(149,45)" fill="none" font-size="10" font-family="sans-serif" text-anchor="end" style="font-size: 13px;"><path class="domain" stroke="currentColor" d="M0.5,0.5V600.5"></path><g class="tick" opacity="1" transform="translate(0,40.740740740740726)" style="font-size: 13px;"><line stroke="currentColor" x2="0"></line><text fill="currentColor" x="-3" dy="0.32em">object (simple)    </text></g><g class="tick" opacity="1" transform="translate(0,114.81481481481481)" style="font-size: 13px;"><line stroke="currentColor" x2="0"></line><text fill="currentColor" x="-3" dy="0.32em">object (hierarchical)    </text></g><g class="tick" opacity="1" transform="translate(0,188.88888888888889)" style="font-size: 13px;"><line stroke="currentColor" x2="0"></line><text fill="currentColor" x="-3" dy="0.32em">object (recursive)    </text></g><g class="tick" opacity="1" transform="translate(0,262.96296296296293)" style="font-size: 13px;"><line stroke="currentColor" x2="0"></line><text fill="currentColor" x="-3" dy="0.32em">object (union, explicit)    </text></g><g class="tick" opacity="1" transform="translate(0,337.037037037037)" style="font-size: 13px;"><line stroke="currentColor" x2="0"></line><text fill="currentColor" x="-3" dy="0.32em">array (simple)    </text></g><g class="tick" opacity="1" transform="translate(0,411.1111111111111)" style="font-size: 13px;"><line stroke="currentColor" x2="0"></line><text fill="currentColor" x="-3" dy="0.32em">array (hierarchical)    </text></g><g class="tick" opacity="1" transform="translate(0,485.18518518518516)" style="font-size: 13px;"><line stroke="currentColor" x2="0"></line><text fill="currentColor" x="-3" dy="0.32em">array (recursive)    </text></g><g class="tick" opacity="1" transform="translate(0,559.2592592592592)" style="font-size: 13px;"><line stroke="currentColor" x2="0"></line><text fill="currentColor" x="-3" dy="0.32em">array (union, explicit)    </text></g></g><g class="x axis" transform="translate(149,645)" fill="none" font-size="10" font-family="sans-serif" text-anchor="middle" style="font-size: 13px;"><path class="domain" stroke="currentColor" d="M0.5,0.5H485.5"></path><g class="tick" opacity="1" transform="translate(0.5,0)" style="font-size: 13px;"><line stroke="currentColor" y2="6"></line><text fill="currentColor" y="9" dy="0.71em">0x</text></g><g class="tick" opacity="1" transform="translate(77.34033837225941,0)" style="font-size: 13px;"><line stroke="currentColor" y2="6"></line><text fill="currentColor" y="9" dy="0.71em">5x</text></g><g class="tick" opacity="1" transform="translate(154.18067674451882,0)" style="font-size: 13px;"><line stroke="currentColor" y2="6"></line><text fill="currentColor" y="9" dy="0.71em">10x</text></g><g class="tick" opacity="1" transform="translate(231.02101511677824,0)" style="font-size: 13px;"><line stroke="currentColor" y2="6"></line><text fill="currentColor" y="9" dy="0.71em">15x</text></g><g class="tick" opacity="1" transform="translate(307.86135348903764,0)" style="font-size: 13px;"><line stroke="currentColor" y2="6"></line><text fill="currentColor" y="9" dy="0.71em">20x</text></g><g class="tick" opacity="1" transform="translate(384.7016918612971,0)" style="font-size: 13px;"><line stroke="currentColor" y2="6"></line><text fill="currentColor" y="9" dy="0.71em">25x</text></g><g class="tick" opacity="1" transform="translate(461.5420302335565,0)" style="font-size: 13px;"><line stroke="currentColor" y2="6"></line><text fill="currentColor" y="9" dy="0.71em">30x</text></g></g><text transform="translate(400, 30)" style="text-anchor: middle; font-size: 20px; font-weight: bold;">performance benchmark</text><rect x="650" y="145" width="230" height="5" fill="gray"></rect><rect x="645" y="35" width="230" height="110" fill="none" stroke="black"></rect><rect x="655" y="45" width="10" height="10" style="fill: #4472c4;"></rect><text x="670" y="55" style="font-size: 12px;">nestia-express</text><rect x="655" y="65" width="10" height="10" style="fill: #ed7d31;"></rect><text x="670" y="75" style="font-size: 12px;">nestia-fastify</text><rect x="655" y="85" width="10" height="10" style="fill: #a5a5a5;"></rect><text x="670" y="95" style="font-size: 12px;">fastify</text><rect x="655" y="105" width="10" height="10" style="fill: #ffc000;"></rect><text x="670" y="115" style="font-size: 12px;">NestJS-express</text><rect x="655" y="125" width="10" height="10" style="fill: #5b9bd5;"></rect><text x="670" y="135" style="font-size: 12px;">NestJS-fastify</text><text x="20" y="709" style="font-size: 12px;">  - CPU: AMD Ryzen 7 6800HS with Radeon Graphics</text><text x="20" y="726" style="font-size: 12px;">  - OS: win32</text><text x="20" y="743" style="font-size: 12px;">  - RAM: 63 GB</text><text x="20" y="760" style="font-size: 12px;">  - NodeJS version: v16.20.0</text><text x="20" y="777" style="font-size: 12px;">  - Nestia version: v1.3.8</text><g style="font-size: 13px;"><g style="font-size: 13px;"><rect x="150" y="53.06747341400805" width="103.5987164219894" height="12.541254125412543" fill="#4472c4"></rect><rect x="150" y="66.26879354602124" width="147.53312728786517" height="12.541254125412543" fill="#ed7d31"></rect><rect x="150" y="79.47011367803445" width="144.72539526169513" height="12.541254125412543" fill="#a5a5a5"></rect><rect x="150" y="92.67143381004766" width="15.368067674451883" height="12.541254125412543" fill="#ffc000"></rect><rect x="150" y="105.87275394206085" width="16.401507875435545" height="12.541254125412543" fill="#5b9bd5"></rect><text class="label" x="262.09871642198937" y="61.56747341400805" font-size="10px">6.74x</text><text class="label" x="306.03312728786517" y="74.76879354602124" font-size="10px">9.6x</text><text class="label" x="303.2253952616951" y="87.97011367803445" font-size="10px">9.42x</text><text class="label" x="173.86806767445188" y="101.17143381004766" font-size="10px">1x</text><text class="label" x="174.90150787543556" y="114.37275394206085" font-size="10px">1.07x</text><text class="label" x="258.59871642198937" y="63.06747341400805" font-size="8px"></text><text class="label" x="302.53312728786517" y="76.26879354602124" font-size="8px"></text><text class="label" x="299.7253952616951" y="89.47011367803445" font-size="8px"></text><text class="label" x="170.36806767445188" y="102.67143381004766" font-size="8px"></text><text class="label" x="171.40150787543556" y="115.87275394206085" font-size="8px"></text></g><g style="font-size: 13px;"><rect x="150" y="127.14154748808213" width="113.77200287559974" height="12.541254125412543" fill="#4472c4"></rect><rect x="150" y="140.34286762009532" width="124.64175554434252" height="12.541254125412543" fill="#ed7d31"></rect><rect x="150" y="153.54418775210854" width="114.23514546529535" height="12.541254125412543" fill="#a5a5a5"></rect><rect x="150" y="166.74550788412174" width="15.368067674451883" height="12.541254125412543" fill="#ffc000"></rect><rect x="150" y="179.94682801613493" width="15.887403108210748" height="12.541254125412543" fill="#5b9bd5"></rect><text class="label" x="272.27200287559975" y="135.64154748808213" font-size="10px">7.4x</text><text class="label" x="283.1417555443425" y="148.84286762009532" font-size="10px">8.11x</text><text class="label" x="272.7351454652953" y="162.04418775210854" font-size="10px">7.43x</text><text class="label" x="173.86806767445188" y="175.24550788412174" font-size="10px">1x</text><text class="label" x="174.38740310821075" y="188.44682801613493" font-size="10px">1.03x</text><text class="label" x="268.77200287559975" y="137.14154748808213" font-size="8px"></text><text class="label" x="279.6417555443425" y="150.34286762009532" font-size="8px"></text><text class="label" x="269.2351454652953" y="163.54418775210854" font-size="8px"></text><text class="label" x="170.36806767445188" y="176.74550788412174" font-size="8px"></text><text class="label" x="170.88740310821075" y="189.94682801613493" font-size="8px"></text></g><g style="font-size: 13px;"><rect x="150" y="201.2156215621562" width="132.24080208777025" height="12.541254125412543" fill="#4472c4"></rect><rect x="150" y="214.4169416941694" width="144.34346924596537" height="12.541254125412543" fill="#ed7d31"></rect><rect x="150" y="227.61826182618262" width="101.43479277449391" height="12.541254125412543" fill="#a5a5a5"></rect><rect x="150" y="240.8195819581958" width="15.368067674451883" height="12.541254125412543" fill="#ffc000"></rect><rect x="150" y="254.020902090209" width="15.940467604707731" height="12.541254125412543" fill="#5b9bd5"></rect><text class="label" x="290.74080208777025" y="209.7156215621562" font-size="10px">8.6x</text><text class="label" x="302.84346924596537" y="222.9169416941694" font-size="10px">9.39x</text><text class="label" x="259.9347927744939" y="236.11826182618262" font-size="10px">6.6x</text><text class="label" x="173.86806767445188" y="249.3195819581958" font-size="10px">1x</text><text class="label" x="174.44046760470772" y="262.520902090209" font-size="10px">1.04x</text><text class="label" x="287.24080208777025" y="211.2156215621562" font-size="8px"></text><text class="label" x="299.34346924596537" y="224.4169416941694" font-size="8px"></text><text class="label" x="256.4347927744939" y="237.61826182618262" font-size="8px"></text><text class="label" x="170.36806767445188" y="250.8195819581958" font-size="8px"></text><text class="label" x="170.94046760470772" y="264.020902090209" font-size="8px"></text></g><g style="font-size: 13px;"><rect x="150" y="275.28969563623025" width="393.2579919952327" height="12.541254125412543" fill="#4472c4"></rect><rect x="150" y="288.49101576824347" width="440.9090909090909" height="12.541254125412543" fill="#ed7d31"></rect><rect x="150" y="301.6923359002567" width="254.82400097270428" height="12.541254125412543" fill="#a5a5a5"></rect><rect x="150" y="314.89365603226986" width="15.668014600286096" height="12.541254125412543" fill="#ffc000"></rect><rect x="150" y="328.0949761642831" width="15.368067674451883" height="12.541254125412543" fill="#5b9bd5"></rect><text class="label" x="551.7579919952327" y="283.78969563623025" font-size="10px">25.59x</text><text class="label" x="599.4090909090909" y="296.99101576824347" font-size="10px">28.69x</text><text class="label" x="413.3240009727043" y="310.1923359002567" font-size="10px">16.58x</text><text class="label" x="174.16801460028609" y="323.39365603226986" font-size="10px">1.02x</text><text class="label" x="173.86806767445188" y="336.5949761642831" font-size="10px">1x</text><text class="label" x="548.2579919952327" y="285.28969563623025" font-size="8px"></text><text class="label" x="595.9090909090909" y="298.49101576824347" font-size="8px"></text><text class="label" x="409.8240009727043" y="311.6923359002567" font-size="8px"></text><text class="label" x="170.66801460028609" y="324.89365603226986" font-size="8px"></text><text class="label" x="170.36806767445188" y="338.0949761642831" font-size="8px"></text></g><g style="font-size: 13px;"><rect x="150" y="349.3637697103044" width="177.2808154392893" height="12.541254125412543" fill="#4472c4"></rect><rect x="150" y="362.56508984231755" width="209.2440830247156" height="12.541254125412543" fill="#ed7d31"></rect><rect x="150" y="375.76640997433077" width="203.70495899478175" height="12.541254125412543" fill="#a5a5a5"></rect><rect x="150" y="388.967730106344" width="15.368067674451883" height="12.541254125412543" fill="#ffc000"></rect><rect x="150" y="402.16905023835716" width="15.6461358472256" height="12.541254125412543" fill="#5b9bd5"></rect><text class="label" x="335.7808154392893" y="357.8637697103044" font-size="10px">11.54x</text><text class="label" x="367.74408302471556" y="371.06508984231755" font-size="10px">13.62x</text><text class="label" x="362.20495899478175" y="384.26640997433077" font-size="10px">13.26x</text><text class="label" x="173.86806767445188" y="397.467730106344" font-size="10px">1x</text><text class="label" x="174.1461358472256" y="410.66905023835716" font-size="10px">1.02x</text><text class="label" x="332.2808154392893" y="359.3637697103044" font-size="8px"></text><text class="label" x="364.24408302471556" y="372.56508984231755" font-size="8px"></text><text class="label" x="358.70495899478175" y="385.76640997433077" font-size="8px"></text><text class="label" x="170.36806767445188" y="398.967730106344" font-size="8px"></text><text class="label" x="170.6461358472256" y="412.16905023835716" font-size="8px"></text></g><g style="font-size: 13px;"><rect x="150" y="423.4378437843784" width="303.94202203132653" height="12.541254125412543" fill="#4472c4"></rect><rect x="150" y="436.6391639163916" width="325.14613583962415" height="12.541254125412543" fill="#ed7d31"></rect><rect x="150" y="449.84048404840485" width="208.06817761358477" height="12.541254125412543" fill="#a5a5a5"></rect><rect x="150" y="463.041804180418" width="15.368067674451883" height="12.541254125412543" fill="#ffc000"></rect><rect x="150" y="476.24312431243123" width="15.768280849292076" height="12.541254125412543" fill="#5b9bd5"></rect><text class="label" x="462.44202203132653" y="431.9378437843784" font-size="10px">19.78x</text><text class="label" x="483.64613583962415" y="445.1391639163916" font-size="10px">21.16x</text><text class="label" x="366.5681776135848" y="458.34048404840485" font-size="10px">13.54x</text><text class="label" x="173.86806767445188" y="471.541804180418" font-size="10px">1x</text><text class="label" x="174.26828084929207" y="484.74312431243123" font-size="10px">1.03x</text><text class="label" x="458.94202203132653" y="433.4378437843784" font-size="8px"></text><text class="label" x="480.14613583962415" y="446.6391639163916" font-size="8px"></text><text class="label" x="363.0681776135848" y="459.84048404840485" font-size="8px"></text><text class="label" x="170.36806767445188" y="473.041804180418" font-size="8px"></text><text class="label" x="170.76828084929207" y="486.24312431243123" font-size="8px"></text></g><g style="font-size: 13px;"><rect x="150" y="497.51191785845253" width="141.1088842212356" height="12.541254125412543" fill="#4472c4"></rect><rect x="150" y="510.7132379904657" width="146.2572278420557" height="12.541254125412543" fill="#ed7d31"></rect><rect x="150" y="523.9145581224789" width="125.98620049122282" height="12.541254125412543" fill="#a5a5a5"></rect><rect x="150" y="537.1158782544921" width="15.368067674451883" height="12.541254125412543" fill="#ffc000"></rect><rect x="150" y="550.3171983865053" width="15.389537407216897" height="12.541254125412543" fill="#5b9bd5"></rect><text class="label" x="299.6088842212356" y="506.01191785845253" font-size="10px">9.18x</text><text class="label" x="304.7572278420557" y="519.2132379904657" font-size="10px">9.52x</text><text class="label" x="284.4862004912228" y="532.4145581224789" font-size="10px">8.2x</text><text class="label" x="173.86806767445188" y="545.6158782544921" font-size="10px">1x</text><text class="label" x="173.8895374072169" y="558.8171983865053" font-size="10px">1x</text><text class="label" x="296.1088842212356" y="507.51191785845253" font-size="8px"></text><text class="label" x="301.2572278420557" y="520.7132379904657" font-size="8px"></text><text class="label" x="280.9862004912228" y="533.9145581224789" font-size="8px"></text><text class="label" x="170.36806767445188" y="547.1158782544921" font-size="8px"></text><text class="label" x="170.3895374072169" y="560.3171983865053" font-size="8px"></text></g><g style="font-size: 13px;"><rect x="150" y="571.5859919325266" width="293.30831759859643" height="12.541254125412543" fill="#4472c4"></rect><rect x="150" y="584.7873120645397" width="308.44384428026297" height="12.541254125412543" fill="#ed7d31"></rect><rect x="150" y="597.9886321965529" width="107.78026399255117" height="12.541254125412543" fill="#a5a5a5"></rect><rect x="150" y="611.1899523285662" width="15.41892192523897" height="12.541254125412543" fill="#ffc000"></rect><rect x="150" y="624.3912724605793" width="15.368067674451883" height="12.541254125412543" fill="#5b9bd5"></rect><text class="label" x="451.80831759859643" y="580.0859919325266" font-size="10px">19.09x</text><text class="label" x="466.94384428026297" y="593.2873120645397" font-size="10px">20.07x</text><text class="label" x="266.28026399255117" y="606.4886321965529" font-size="10px">7.01x</text><text class="label" x="173.91892192523898" y="619.6899523285662" font-size="10px">1x</text><text class="label" x="173.86806767445188" y="632.8912724605793" font-size="10px">1x</text><text class="label" x="448.30831759859643" y="581.5859919325266" font-size="8px"></text><text class="label" x="463.44384428026297" y="594.7873120645397" font-size="8px"></text><text class="label" x="262.78026399255117" y="607.9886321965529" font-size="8px"></text><text class="label" x="170.41892192523898" y="621.1899523285662" font-size="8px"></text><text class="label" x="170.36806767445188" y="634.3912724605793" font-size="8px"></text></g></g></svg>