<svg xmlns="http://www.w3.org/2000/svg" xmlns:xlink="http://www.w3.org/1999/xlink" width="800" height="674" style="background-color: white;"><g class="y axis" transform="translate(149,45)" fill="none" font-size="10" font-family="sans-serif" text-anchor="end" style="font-size: 13px;"><path class="domain" stroke="currentColor" d="M0.5,0.5V480.5"></path><g class="tick" opacity="1" transform="translate(0,32.592592592592595)" style="font-size: 13px;"><line stroke="currentColor" x2="0"></line><text fill="currentColor" x="-3" dy="0.32em">object (simple)    </text></g><g class="tick" opacity="1" transform="translate(0,91.85185185185186)" style="font-size: 13px;"><line stroke="currentColor" x2="0"></line><text fill="currentColor" x="-3" dy="0.32em">object (hierarchical)    </text></g><g class="tick" opacity="1" transform="translate(0,151.11111111111111)" style="font-size: 13px;"><line stroke="currentColor" x2="0"></line><text fill="currentColor" x="-3" dy="0.32em">object (recursive)    </text></g><g class="tick" opacity="1" transform="translate(0,210.37037037037035)" style="font-size: 13px;"><line stroke="currentColor" x2="0"></line><text fill="currentColor" x="-3" dy="0.32em">object (union, explicit)    </text></g><g class="tick" opacity="1" transform="translate(0,269.6296296296296)" style="font-size: 13px;"><line stroke="currentColor" x2="0"></line><text fill="currentColor" x="-3" dy="0.32em">array (simple)    </text></g><g class="tick" opacity="1" transform="translate(0,328.8888888888889)" style="font-size: 13px;"><line stroke="currentColor" x2="0"></line><text fill="currentColor" x="-3" dy="0.32em">array (hierarchical)    </text></g><g class="tick" opacity="1" transform="translate(0,388.14814814814815)" style="font-size: 13px;"><line stroke="currentColor" x2="0"></line><text fill="currentColor" x="-3" dy="0.32em">array (recursive)    </text></g><g class="tick" opacity="1" transform="translate(0,447.40740740740745)" style="font-size: 13px;"><line stroke="currentColor" x2="0"></line><text fill="currentColor" x="-3" dy="0.32em">array (union, explicit)    </text></g></g><g class="x axis" transform="translate(149,525)" fill="none" font-size="10" font-family="sans-serif" text-anchor="middle" style="font-size: 13px;"><path class="domain" stroke="currentColor" d="M0.5,0.5H485.5"></path><g class="tick" opacity="1" transform="translate(0.5,0)" style="font-size: 13px;"><line stroke="currentColor" y2="6"></line><text fill="currentColor" y="9" dy="0.71em">0x</text></g><g class="tick" opacity="1" transform="translate(131.94539554172184,0)" style="font-size: 13px;"><line stroke="currentColor" y2="6"></line><text fill="currentColor" y="9" dy="0.71em">5x</text></g><g class="tick" opacity="1" transform="translate(263.3907910834437,0)" style="font-size: 13px;"><line stroke="currentColor" y2="6"></line><text fill="currentColor" y="9" dy="0.71em">10x</text></g><g class="tick" opacity="1" transform="translate(394.83618662516557,0)" style="font-size: 13px;"><line stroke="currentColor" y2="6"></line><text fill="currentColor" y="9" dy="0.71em">15x</text></g></g><text transform="translate(400, 30)" style="text-anchor: middle; font-size: 20px; font-weight: bold;">stringify benchmark</text><rect x="650" y="125" width="230" height="5" fill="gray"></rect><rect x="645" y="35" width="230" height="90" fill="none" stroke="black"></rect><rect x="655" y="45" width="10" height="10" style="fill: #4472c4;"></rect><text x="670" y="55" style="font-size: 12px;">nestia-express</text><rect x="655" y="65" width="10" height="10" style="fill: #ed7d31;"></rect><text x="670" y="75" style="font-size: 12px;">nestia-fastify</text><rect x="655" y="85" width="10" height="10" style="fill: #a5a5a5;"></rect><text x="670" y="95" style="font-size: 12px;">NestJS-express</text><rect x="655" y="105" width="10" height="10" style="fill: #ffc000;"></rect><text x="670" y="115" style="font-size: 12px;">NestJS-fastify</text><text x="20" y="589" style="font-size: 12px;">  - CPU: AMD Ryzen 7 6800HS with Radeon Graphics</text><text x="20" y="606" style="font-size: 12px;">  - OS: win32</text><text x="20" y="623" style="font-size: 12px;">  - RAM: 63 GB</text><text x="20" y="640" style="font-size: 12px;">  - NodeJS version: v16.20.0</text><text x="20" y="657" style="font-size: 12px;">  - Nestia version: v1.2.2</text><g style="font-size: 13px;"><g style="font-size: 13px;"><rect x="150" y="51.584362139917694" width="151.25300140664805" height="12.510288065843621" fill="#4472c4"></rect><rect x="150" y="64.75308641975309" width="231.68488594095436" height="12.510288065843621" fill="#ed7d31"></rect><rect x="150" y="77.92181069958848" width="26.28907910834437" height="12.510288065843621" fill="#a5a5a5"></rect><rect x="150" y="91.09053497942386" width="29.12443471828218" height="12.510288065843621" fill="#ffc000"></rect><text class="label" x="309.7530014066481" y="60.084362139917694" font-size="10px">5.75x</text><text class="label" x="390.18488594095436" y="73.25308641975309" font-size="10px">8.81x</text><text class="label" x="184.78907910834437" y="86.42181069958848" font-size="10px">1x</text><text class="label" x="187.62443471828217" y="99.59053497942386" font-size="10px">1.11x</text><text class="label" x="306.2530014066481" y="61.584362139917694" font-size="8px"></text><text class="label" x="386.68488594095436" y="74.75308641975309" font-size="8px"></text><text class="label" x="181.28907910834437" y="87.92181069958848" font-size="8px"></text><text class="label" x="184.12443471828217" y="101.09053497942386" font-size="8px"></text></g><g style="font-size: 13px;"><rect x="150" y="110.84362139917695" width="197.61255555687" height="12.510288065843621" fill="#4472c4"></rect><rect x="150" y="124.01234567901236" width="278.03087393912733" height="12.510288065843621" fill="#ed7d31"></rect><rect x="150" y="137.18106995884773" width="26.28907910834437" height="12.510288065843621" fill="#a5a5a5"></rect><rect x="150" y="150.34979423868313" width="28.266595830148034" height="12.510288065843621" fill="#ffc000"></rect><text class="label" x="356.11255555687" y="119.34362139917695" font-size="10px">7.52x</text><text class="label" x="436.53087393912733" y="132.51234567901236" font-size="10px">10.58x</text><text class="label" x="184.78907910834437" y="145.68106995884773" font-size="10px">1x</text><text class="label" x="186.76659583014805" y="158.84979423868313" font-size="10px">1.08x</text><text class="label" x="352.61255555687" y="120.84362139917695" font-size="8px"></text><text class="label" x="433.03087393912733" y="134.01234567901236" font-size="8px"></text><text class="label" x="181.28907910834437" y="147.18106995884773" font-size="8px"></text><text class="label" x="183.26659583014805" y="160.34979423868313" font-size="8px"></text></g><g style="font-size: 13px;"><rect x="150" y="170.10288065843622" width="246.32867329262717" height="12.510288065843621" fill="#4472c4"></rect><rect x="150" y="183.2716049382716" width="303.2896416813304" height="12.510288065843621" fill="#ed7d31"></rect><rect x="150" y="196.440329218107" width="26.28907910834437" height="12.510288065843621" fill="#a5a5a5"></rect><rect x="150" y="209.6090534979424" width="27.214226276014646" height="12.510288065843621" fill="#ffc000"></rect><text class="label" x="404.8286732926272" y="178.60288065843622" font-size="10px">9.37x</text><text class="label" x="461.7896416813304" y="191.7716049382716" font-size="10px">11.54x</text><text class="label" x="184.78907910834437" y="204.940329218107" font-size="10px">1x</text><text class="label" x="185.71422627601464" y="218.1090534979424" font-size="10px">1.04x</text><text class="label" x="401.3286732926272" y="180.10288065843622" font-size="8px"></text><text class="label" x="458.2896416813304" y="193.2716049382716" font-size="8px"></text><text class="label" x="181.28907910834437" y="206.440329218107" font-size="8px"></text><text class="label" x="182.21422627601464" y="219.6090534979424" font-size="8px"></text></g><g style="font-size: 13px;"><rect x="150" y="229.36213991769546" width="314.8180800861035" height="12.510288065843621" fill="#4472c4"></rect><rect x="150" y="242.53086419753086" width="440.9090909090908" height="12.510288065843621" fill="#ed7d31"></rect><rect x="150" y="255.69958847736626" width="26.28907910834437" height="12.510288065843621" fill="#a5a5a5"></rect><rect x="150" y="268.86831275720164" width="26.542449221160595" height="12.510288065843621" fill="#ffc000"></rect><text class="label" x="473.3180800861035" y="237.86213991769546" font-size="10px">11.98x</text><text class="label" x="599.4090909090908" y="251.03086419753086" font-size="10px">16.77x</text><text class="label" x="184.78907910834437" y="264.19958847736626" font-size="10px">1x</text><text class="label" x="185.0424492211606" y="277.36831275720164" font-size="10px">1.01x</text><text class="label" x="469.8180800861035" y="239.36213991769546" font-size="8px"></text><text class="label" x="595.9090909090908" y="252.53086419753086" font-size="8px"></text><text class="label" x="181.28907910834437" y="265.69958847736626" font-size="8px"></text><text class="label" x="181.5424492211606" y="278.86831275720164" font-size="8px"></text></g><g style="font-size: 13px;"><rect x="150" y="288.6213991769547" width="121.18182240454064" height="12.510288065843621" fill="#4472c4"></rect><rect x="150" y="301.7901234567901" width="177.2523579708426" height="12.510288065843621" fill="#ed7d31"></rect><rect x="150" y="314.9588477366255" width="26.28907910834437" height="12.510288065843621" fill="#a5a5a5"></rect><rect x="150" y="328.12757201646093" width="26.3627997039628" height="12.510288065843621" fill="#ffc000"></rect><text class="label" x="279.68182240454064" y="297.1213991769547" font-size="10px">4.61x</text><text class="label" x="335.7523579708426" y="310.2901234567901" font-size="10px">6.74x</text><text class="label" x="184.78907910834437" y="323.4588477366255" font-size="10px">1x</text><text class="label" x="184.8627997039628" y="336.62757201646093" font-size="10px">1x</text><text class="label" x="276.18182240454064" y="298.6213991769547" font-size="8px"></text><text class="label" x="332.2523579708426" y="311.7901234567901" font-size="8px"></text><text class="label" x="181.28907910834437" y="324.9588477366255" font-size="8px"></text><text class="label" x="181.3627997039628" y="338.12757201646093" font-size="8px"></text></g><g style="font-size: 13px;"><rect x="150" y="347.880658436214" width="267.59514463503166" height="12.510288065843621" fill="#4472c4"></rect><rect x="150" y="361.04938271604937" width="291.66964573978373" height="12.510288065843621" fill="#ed7d31"></rect><rect x="150" y="374.2181069958848" width="26.390109287875582" height="12.510288065843621" fill="#a5a5a5"></rect><rect x="150" y="387.38683127572017" width="26.28907910834437" height="12.510288065843621" fill="#ffc000"></rect><text class="label" x="426.09514463503166" y="356.380658436214" font-size="10px">10.18x</text><text class="label" x="450.16964573978373" y="369.54938271604937" font-size="10px">11.09x</text><text class="label" x="184.8901092878756" y="382.7181069958848" font-size="10px">1x</text><text class="label" x="184.78907910834437" y="395.88683127572017" font-size="10px">1x</text><text class="label" x="422.59514463503166" y="357.880658436214" font-size="8px"></text><text class="label" x="446.66964573978373" y="371.04938271604937" font-size="8px"></text><text class="label" x="181.3901092878756" y="384.2181069958848" font-size="8px"></text><text class="label" x="181.28907910834437" y="397.38683127572017" font-size="8px"></text></g><g style="font-size: 13px;"><rect x="150" y="407.13991769547323" width="218.09834498080403" height="12.510288065843621" fill="#4472c4"></rect><rect x="150" y="420.3086419753086" width="226.09850642587006" height="12.510288065843621" fill="#ed7d31"></rect><rect x="150" y="433.47736625514403" width="26.28907910834437" height="12.510288065843621" fill="#a5a5a5"></rect><rect x="150" y="446.6460905349794" width="26.818432687365636" height="12.510288065843621" fill="#ffc000"></rect><text class="label" x="376.59834498080403" y="415.63991769547323" font-size="10px">8.3x</text><text class="label" x="384.59850642587" y="428.8086419753086" font-size="10px">8.6x</text><text class="label" x="184.78907910834437" y="441.97736625514403" font-size="10px">1x</text><text class="label" x="185.31843268736563" y="455.1460905349794" font-size="10px">1.02x</text><text class="label" x="373.09834498080403" y="417.13991769547323" font-size="8px"></text><text class="label" x="381.09850642587" y="430.3086419753086" font-size="8px"></text><text class="label" x="181.28907910834437" y="443.47736625514403" font-size="8px"></text><text class="label" x="181.81843268736563" y="456.6460905349794" font-size="8px"></text></g><g style="font-size: 13px;"><rect x="150" y="466.3991769547325" width="181.92491623194013" height="12.510288065843621" fill="#4472c4"></rect><rect x="150" y="479.5679012345679" width="202.17714865481992" height="12.510288065843621" fill="#ed7d31"></rect><rect x="150" y="492.73662551440333" width="27.6462571647941" height="12.510288065843621" fill="#a5a5a5"></rect><rect x="150" y="505.9053497942387" width="26.28907910834437" height="12.510288065843621" fill="#ffc000"></rect><text class="label" x="340.42491623194013" y="474.8991769547325" font-size="10px">6.92x</text><text class="label" x="360.6771486548199" y="488.0679012345679" font-size="10px">7.69x</text><text class="label" x="186.1462571647941" y="501.23662551440333" font-size="10px">1.05x</text><text class="label" x="184.78907910834437" y="514.4053497942386" font-size="10px">1x</text><text class="label" x="336.92491623194013" y="476.3991769547325" font-size="8px"></text><text class="label" x="357.1771486548199" y="489.5679012345679" font-size="8px"></text><text class="label" x="182.6462571647941" y="502.73662551440333" font-size="8px"></text><text class="label" x="181.28907910834437" y="515.9053497942386" font-size="8px"></text></g></g></svg>