<svg xmlns="http://www.w3.org/2000/svg" xmlns:xlink="http://www.w3.org/1999/xlink" width="800" height="794" style="background-color: white;"><g class="y axis" transform="translate(149,45)" fill="none" font-size="10" font-family="sans-serif" text-anchor="end" style="font-size: 13px;"><path class="domain" stroke="currentColor" d="M0.5,0.5V600.5"></path><g class="tick" opacity="1" transform="translate(0,40.740740740740726)" style="font-size: 13px;"><line stroke="currentColor" x2="0"></line><text fill="currentColor" x="-3" dy="0.32em">object (simple)    </text></g><g class="tick" opacity="1" transform="translate(0,114.81481481481481)" style="font-size: 13px;"><line stroke="currentColor" x2="0"></line><text fill="currentColor" x="-3" dy="0.32em">object (hierarchical)    </text></g><g class="tick" opacity="1" transform="translate(0,188.88888888888889)" style="font-size: 13px;"><line stroke="currentColor" x2="0"></line><text fill="currentColor" x="-3" dy="0.32em">object (recursive)    </text></g><g class="tick" opacity="1" transform="translate(0,262.96296296296293)" style="font-size: 13px;"><line stroke="currentColor" x2="0"></line><text fill="currentColor" x="-3" dy="0.32em">object (union, explicit)    </text></g><g class="tick" opacity="1" transform="translate(0,337.037037037037)" style="font-size: 13px;"><line stroke="currentColor" x2="0"></line><text fill="currentColor" x="-3" dy="0.32em">array (simple)    </text></g><g class="tick" opacity="1" transform="translate(0,411.1111111111111)" style="font-size: 13px;"><line stroke="currentColor" x2="0"></line><text fill="currentColor" x="-3" dy="0.32em">array (hierarchical)    </text></g><g class="tick" opacity="1" transform="translate(0,485.18518518518516)" style="font-size: 13px;"><line stroke="currentColor" x2="0"></line><text fill="currentColor" x="-3" dy="0.32em">array (recursive)    </text></g><g class="tick" opacity="1" transform="translate(0,559.2592592592592)" style="font-size: 13px;"><line stroke="currentColor" x2="0"></line><text fill="currentColor" x="-3" dy="0.32em">array (union, explicit)    </text></g></g><g class="x axis" transform="translate(149,645)" fill="none" font-size="10" font-family="sans-serif" text-anchor="middle" style="font-size: 13px;"><path class="domain" stroke="currentColor" d="M0.5,0.5H485.5"></path><g class="tick" opacity="1" transform="translate(0.5,0)" style="font-size: 13px;"><line stroke="currentColor" y2="6"></line><text fill="currentColor" y="9" dy="0.71em">0x</text></g><g class="tick" opacity="1" transform="translate(128.12812524576265,0)" style="font-size: 13px;"><line stroke="currentColor" y2="6"></line><text fill="currentColor" y="9" dy="0.71em">5x</text></g><g class="tick" opacity="1" transform="translate(255.75625049152532,0)" style="font-size: 13px;"><line stroke="currentColor" y2="6"></line><text fill="currentColor" y="9" dy="0.71em">10x</text></g><g class="tick" opacity="1" transform="translate(383.384375737288,0)" style="font-size: 13px;"><line stroke="currentColor" y2="6"></line><text fill="currentColor" y="9" dy="0.71em">15x</text></g></g><text transform="translate(400, 30)" style="text-anchor: middle; font-size: 20px; font-weight: bold;">stringify benchmark</text><rect x="650" y="145" width="230" height="5" fill="gray"></rect><rect x="645" y="35" width="230" height="110" fill="none" stroke="black"></rect><rect x="655" y="45" width="10" height="10" style="fill: #4472c4;"></rect><text x="670" y="55" style="font-size: 12px;">nestia-express</text><rect x="655" y="65" width="10" height="10" style="fill: #ed7d31;"></rect><text x="670" y="75" style="font-size: 12px;">nestia-fastify</text><rect x="655" y="85" width="10" height="10" style="fill: #a5a5a5;"></rect><text x="670" y="95" style="font-size: 12px;">fastify</text><rect x="655" y="105" width="10" height="10" style="fill: #ffc000;"></rect><text x="670" y="115" style="font-size: 12px;">NestJS-express</text><rect x="655" y="125" width="10" height="10" style="fill: #5b9bd5;"></rect><text x="670" y="135" style="font-size: 12px;">NestJS-fastify</text><text x="20" y="709" style="font-size: 12px;">  - CPU: AMD Ryzen 7 6800HS with Radeon Graphics</text><text x="20" y="726" style="font-size: 12px;">  - OS: win32</text><text x="20" y="743" style="font-size: 12px;">  - RAM: 63 GB</text><text x="20" y="760" style="font-size: 12px;">  - NodeJS version: v16.20.0</text><text x="20" y="777" style="font-size: 12px;">  - Nestia version: v1.3.8</text><g style="font-size: 13px;"><g style="font-size: 13px;"><rect x="150" y="53.06747341400805" width="152.25426687758454" height="12.541254125412543" fill="#4472c4"></rect><rect x="150" y="66.26879354602124" width="206.2902859628231" height="12.541254125412543" fill="#ed7d31"></rect><rect x="150" y="79.47011367803445" width="204.08278473808866" height="12.541254125412543" fill="#a5a5a5"></rect><rect x="150" y="92.67143381004766" width="25.52562504915253" height="12.541254125412543" fill="#ffc000"></rect><rect x="150" y="105.87275394206085" width="28.49843475384972" height="12.541254125412543" fill="#5b9bd5"></rect><text class="label" x="310.75426687758454" y="61.56747341400805" font-size="10px">5.96x</text><text class="label" x="364.7902859628231" y="74.76879354602124" font-size="10px">8.08x</text><text class="label" x="362.58278473808866" y="87.97011367803445" font-size="10px">8x</text><text class="label" x="184.02562504915252" y="101.17143381004766" font-size="10px">1x</text><text class="label" x="186.99843475384972" y="114.37275394206085" font-size="10px">1.12x</text><text class="label" x="307.25426687758454" y="63.06747341400805" font-size="8px"></text><text class="label" x="361.2902859628231" y="76.26879354602124" font-size="8px"></text><text class="label" x="359.08278473808866" y="89.47011367803445" font-size="8px"></text><text class="label" x="180.52562504915252" y="102.67143381004766" font-size="8px"></text><text class="label" x="183.49843475384972" y="115.87275394206085" font-size="8px"></text></g><g style="font-size: 13px;"><rect x="150" y="127.14154748808213" width="200.6754620048978" height="12.541254125412543" fill="#4472c4"></rect><rect x="150" y="140.34286762009532" width="277.5687125772389" height="12.541254125412543" fill="#ed7d31"></rect><rect x="150" y="153.54418775210854" width="226.6655270801199" height="12.541254125412543" fill="#a5a5a5"></rect><rect x="150" y="166.74550788412174" width="25.52562504915253" height="12.541254125412543" fill="#ffc000"></rect><rect x="150" y="179.94682801613493" width="26.957695008196325" height="12.541254125412543" fill="#5b9bd5"></rect><text class="label" x="359.1754620048978" y="135.64154748808213" font-size="10px">7.86x</text><text class="label" x="436.0687125772389" y="148.84286762009532" font-size="10px">10.87x</text><text class="label" x="385.1655270801199" y="162.04418775210854" font-size="10px">8.88x</text><text class="label" x="184.02562504915252" y="175.24550788412174" font-size="10px">1x</text><text class="label" x="185.4576950081963" y="188.44682801613493" font-size="10px">1.06x</text><text class="label" x="355.6754620048978" y="137.14154748808213" font-size="8px"></text><text class="label" x="432.5687125772389" y="150.34286762009532" font-size="8px"></text><text class="label" x="381.6655270801199" y="163.54418775210854" font-size="8px"></text><text class="label" x="180.52562504915252" y="176.74550788412174" font-size="8px"></text><text class="label" x="181.9576950081963" y="189.94682801613493" font-size="8px"></text></g><g style="font-size: 13px;"><rect x="150" y="201.2156215621562" width="242.763389526049" height="12.541254125412543" fill="#4472c4"></rect><rect x="150" y="214.4169416941694" width="318.17797668983496" height="12.541254125412543" fill="#ed7d31"></rect><rect x="150" y="227.61826182618262" width="144.49218511191572" height="12.541254125412543" fill="#a5a5a5"></rect><rect x="150" y="240.8195819581958" width="25.52562504915253" height="12.541254125412543" fill="#ffc000"></rect><rect x="150" y="254.020902090209" width="26.755226360248663" height="12.541254125412543" fill="#5b9bd5"></rect><text class="label" x="401.26338952604897" y="209.7156215621562" font-size="10px">9.51x</text><text class="label" x="476.67797668983496" y="222.9169416941694" font-size="10px">12.47x</text><text class="label" x="302.9921851119157" y="236.11826182618262" font-size="10px">5.66x</text><text class="label" x="184.02562504915252" y="249.3195819581958" font-size="10px">1x</text><text class="label" x="185.25522636024866" y="262.520902090209" font-size="10px">1.05x</text><text class="label" x="397.76338952604897" y="211.2156215621562" font-size="8px"></text><text class="label" x="473.17797668983496" y="224.4169416941694" font-size="8px"></text><text class="label" x="299.4921851119157" y="237.61826182618262" font-size="8px"></text><text class="label" x="180.52562504915252" y="250.8195819581958" font-size="8px"></text><text class="label" x="181.75522636024866" y="264.020902090209" font-size="8px"></text></g><g style="font-size: 13px;"><rect x="150" y="275.28969563623025" width="397.2514859503594" height="12.541254125412543" fill="#4472c4"></rect><rect x="150" y="288.49101576824347" width="440.9090909090909" height="12.541254125412543" fill="#ed7d31"></rect><rect x="150" y="301.6923359002567" width="237.9885733055747" height="12.541254125412543" fill="#a5a5a5"></rect><rect x="150" y="314.89365603226986" width="25.52562504915253" height="12.541254125412543" fill="#ffc000"></rect><rect x="150" y="328.0949761642831" width="26.23042450429121" height="12.541254125412543" fill="#5b9bd5"></rect><text class="label" x="555.7514859503594" y="283.78969563623025" font-size="10px">15.56x</text><text class="label" x="599.4090909090909" y="296.99101576824347" font-size="10px">17.27x</text><text class="label" x="396.48857330557473" y="310.1923359002567" font-size="10px">9.32x</text><text class="label" x="184.02562504915252" y="323.39365603226986" font-size="10px">1x</text><text class="label" x="184.73042450429122" y="336.5949761642831" font-size="10px">1.03x</text><text class="label" x="552.2514859503594" y="285.28969563623025" font-size="8px"></text><text class="label" x="595.9090909090909" y="298.49101576824347" font-size="8px"></text><text class="label" x="392.98857330557473" y="311.6923359002567" font-size="8px"></text><text class="label" x="180.52562504915252" y="324.89365603226986" font-size="8px"></text><text class="label" x="181.23042450429122" y="338.0949761642831" font-size="8px"></text></g><g style="font-size: 13px;"><rect x="150" y="349.3637697103044" width="145.9749698344559" height="12.541254125412543" fill="#4472c4"></rect><rect x="150" y="362.56508984231755" width="160.23825311702547" height="12.541254125412543" fill="#ed7d31"></rect><rect x="150" y="375.76640997433077" width="146.72012628058502" height="12.541254125412543" fill="#a5a5a5"></rect><rect x="150" y="388.967730106344" width="25.52562504915253" height="12.541254125412543" fill="#ffc000"></rect><rect x="150" y="402.16905023835716" width="26.154232411986186" height="12.541254125412543" fill="#5b9bd5"></rect><text class="label" x="304.4749698344559" y="357.8637697103044" font-size="10px">5.72x</text><text class="label" x="318.73825311702547" y="371.06508984231755" font-size="10px">6.28x</text><text class="label" x="305.220126280585" y="384.26640997433077" font-size="10px">5.75x</text><text class="label" x="184.02562504915252" y="397.467730106344" font-size="10px">1x</text><text class="label" x="184.6542324119862" y="410.66905023835716" font-size="10px">1.02x</text><text class="label" x="300.9749698344559" y="359.3637697103044" font-size="8px"></text><text class="label" x="315.23825311702547" y="372.56508984231755" font-size="8px"></text><text class="label" x="301.720126280585" y="385.76640997433077" font-size="8px"></text><text class="label" x="180.52562504915252" y="398.967730106344" font-size="8px"></text><text class="label" x="181.1542324119862" y="412.16905023835716" font-size="8px"></text></g><g style="font-size: 13px;"><rect x="150" y="423.4378437843784" width="281.41841555970296" height="12.541254125412543" fill="#4472c4"></rect><rect x="150" y="436.6391639163916" width="297.1072302446757" height="12.541254125412543" fill="#ed7d31"></rect><rect x="150" y="449.84048404840485" width="129.49434862874597" height="12.541254125412543" fill="#a5a5a5"></rect><rect x="150" y="463.041804180418" width="26.027194025336474" height="12.541254125412543" fill="#ffc000"></rect><rect x="150" y="476.24312431243123" width="25.52562504915253" height="12.541254125412543" fill="#5b9bd5"></rect><text class="label" x="439.91841555970296" y="431.9378437843784" font-size="10px">11.02x</text><text class="label" x="455.6072302446757" y="445.1391639163916" font-size="10px">11.64x</text><text class="label" x="287.99434862874597" y="458.34048404840485" font-size="10px">5.07x</text><text class="label" x="184.52719402533648" y="471.541804180418" font-size="10px">1.02x</text><text class="label" x="184.02562504915252" y="484.74312431243123" font-size="10px">1x</text><text class="label" x="436.41841555970296" y="433.4378437843784" font-size="8px"></text><text class="label" x="452.1072302446757" y="446.6391639163916" font-size="8px"></text><text class="label" x="284.49434862874597" y="459.84048404840485" font-size="8px"></text><text class="label" x="181.02719402533648" y="473.041804180418" font-size="8px"></text><text class="label" x="180.52562504915252" y="486.24312431243123" font-size="8px"></text></g><g style="font-size: 13px;"><rect x="150" y="497.51191785845253" width="230.38806316080272" height="12.541254125412543" fill="#4472c4"></rect><rect x="150" y="510.7132379904657" width="233.35366311018507" height="12.541254125412543" fill="#ed7d31"></rect><rect x="150" y="523.9145581224789" width="135.54296254424113" height="12.541254125412543" fill="#a5a5a5"></rect><rect x="150" y="537.1158782544921" width="27.282595548093166" height="12.541254125412543" fill="#ffc000"></rect><rect x="150" y="550.3171983865053" width="25.52562504915253" height="12.541254125412543" fill="#5b9bd5"></rect><text class="label" x="388.88806316080274" y="506.01191785845253" font-size="10px">9.03x</text><text class="label" x="391.85366311018504" y="519.2132379904657" font-size="10px">9.14x</text><text class="label" x="294.04296254424116" y="532.4145581224789" font-size="10px">5.31x</text><text class="label" x="185.78259554809316" y="545.6158782544921" font-size="10px">1.07x</text><text class="label" x="184.02562504915252" y="558.8171983865053" font-size="10px">1x</text><text class="label" x="385.38806316080274" y="507.51191785845253" font-size="8px"></text><text class="label" x="388.35366311018504" y="520.7132379904657" font-size="8px"></text><text class="label" x="290.54296254424116" y="533.9145581224789" font-size="8px"></text><text class="label" x="182.28259554809316" y="547.1158782544921" font-size="8px"></text><text class="label" x="180.52562504915252" y="560.3171983865053" font-size="8px"></text></g><g style="font-size: 13px;"><rect x="150" y="571.5859919325266" width="172.8923168164875" height="12.541254125412543" fill="#4472c4"></rect><rect x="150" y="584.7873120645397" width="194.36562399980482" height="12.541254125412543" fill="#ed7d31"></rect><rect x="150" y="597.9886321965529" width="47.588645924075735" height="12.541254125412543" fill="#a5a5a5"></rect><rect x="150" y="611.1899523285662" width="25.652421159263668" height="12.541254125412543" fill="#ffc000"></rect><rect x="150" y="624.3912724605793" width="25.52562504915253" height="12.541254125412543" fill="#5b9bd5"></rect><text class="label" x="331.3923168164875" y="580.0859919325266" font-size="10px">6.77x</text><text class="label" x="352.8656239998048" y="593.2873120645397" font-size="10px">7.61x</text><text class="label" x="206.08864592407573" y="606.4886321965529" font-size="10px">1.86x</text><text class="label" x="184.15242115926367" y="619.6899523285662" font-size="10px">1x</text><text class="label" x="184.02562504915252" y="632.8912724605793" font-size="10px">1x</text><text class="label" x="327.8923168164875" y="581.5859919325266" font-size="8px"></text><text class="label" x="349.3656239998048" y="594.7873120645397" font-size="8px"></text><text class="label" x="202.58864592407573" y="607.9886321965529" font-size="8px"></text><text class="label" x="180.65242115926367" y="621.1899523285662" font-size="8px"></text><text class="label" x="180.52562504915252" y="634.3912724605793" font-size="8px"></text></g></g></svg>