<svg xmlns="http://www.w3.org/2000/svg" xmlns:xlink="http://www.w3.org/1999/xlink" width="800" height="674" style="background-color: white;"><g class="y axis" transform="translate(149,45)" fill="none" font-size="10" font-family="sans-serif" text-anchor="end" style="font-size: 13px;"><path class="domain" stroke="currentColor" d="M0.5,0.5V480.5"></path><g class="tick" opacity="1" transform="translate(0,32.592592592592595)" style="font-size: 13px;"><line stroke="currentColor" x2="0"></line><text fill="currentColor" x="-3" dy="0.32em">object (simple)    </text></g><g class="tick" opacity="1" transform="translate(0,91.85185185185186)" style="font-size: 13px;"><line stroke="currentColor" x2="0"></line><text fill="currentColor" x="-3" dy="0.32em">object (hierarchical)    </text></g><g class="tick" opacity="1" transform="translate(0,151.11111111111111)" style="font-size: 13px;"><line stroke="currentColor" x2="0"></line><text fill="currentColor" x="-3" dy="0.32em">object (recursive)    </text></g><g class="tick" opacity="1" transform="translate(0,210.37037037037035)" style="font-size: 13px;"><line stroke="currentColor" x2="0"></line><text fill="currentColor" x="-3" dy="0.32em">object (union, explicit)    </text></g><g class="tick" opacity="1" transform="translate(0,269.6296296296296)" style="font-size: 13px;"><line stroke="currentColor" x2="0"></line><text fill="currentColor" x="-3" dy="0.32em">array (simple)    </text></g><g class="tick" opacity="1" transform="translate(0,328.8888888888889)" style="font-size: 13px;"><line stroke="currentColor" x2="0"></line><text fill="currentColor" x="-3" dy="0.32em">array (hierarchical)    </text></g><g class="tick" opacity="1" transform="translate(0,388.14814814814815)" style="font-size: 13px;"><line stroke="currentColor" x2="0"></line><text fill="currentColor" x="-3" dy="0.32em">array (recursive)    </text></g><g class="tick" opacity="1" transform="translate(0,447.40740740740745)" style="font-size: 13px;"><line stroke="currentColor" x2="0"></line><text fill="currentColor" x="-3" dy="0.32em">array (union, explicit)    </text></g></g><g class="x axis" transform="translate(149,525)" fill="none" font-size="10" font-family="sans-serif" text-anchor="middle" style="font-size: 13px;"><path class="domain" stroke="currentColor" d="M0.5,0.5H485.5"></path><g class="tick" opacity="1" transform="translate(0.5,0)" style="font-size: 13px;"><line stroke="currentColor" y2="6"></line><text fill="currentColor" y="9" dy="0.71em">0x</text></g><g class="tick" opacity="1" transform="translate(135.99251620524933,0)" style="font-size: 13px;"><line stroke="currentColor" y2="6"></line><text fill="currentColor" y="9" dy="0.71em">5x</text></g><g class="tick" opacity="1" transform="translate(271.48503241049866,0)" style="font-size: 13px;"><line stroke="currentColor" y2="6"></line><text fill="currentColor" y="9" dy="0.71em">10x</text></g><g class="tick" opacity="1" transform="translate(406.977548615748,0)" style="font-size: 13px;"><line stroke="currentColor" y2="6"></line><text fill="currentColor" y="9" dy="0.71em">15x</text></g></g><text transform="translate(400, 30)" style="text-anchor: middle; font-size: 20px; font-weight: bold;">stringify benchmark</text><rect x="650" y="125" width="230" height="5" fill="gray"></rect><rect x="645" y="35" width="230" height="90" fill="none" stroke="black"></rect><rect x="655" y="45" width="10" height="10" style="fill: #4472c4;"></rect><text x="670" y="55" style="font-size: 12px;">nestia-express</text><rect x="655" y="65" width="10" height="10" style="fill: #ed7d31;"></rect><text x="670" y="75" style="font-size: 12px;">nestia-fastify</text><rect x="655" y="85" width="10" height="10" style="fill: #a5a5a5;"></rect><text x="670" y="95" style="font-size: 12px;">NestJS-express</text><rect x="655" y="105" width="10" height="10" style="fill: #ffc000;"></rect><text x="670" y="115" style="font-size: 12px;">NestJS-fastify</text><text x="20" y="589" style="font-size: 12px;">  - CPU: AMD Ryzen 7 6800HS with Radeon Graphics</text><text x="20" y="606" style="font-size: 12px;">  - OS: win32</text><text x="20" y="623" style="font-size: 12px;">  - RAM: 63 GB</text><text x="20" y="640" style="font-size: 12px;">  - NodeJS version: v16.20.0</text><text x="20" y="657" style="font-size: 12px;">  - Nestia version: v1.2.2</text><g style="font-size: 13px;"><g style="font-size: 13px;"><rect x="150" y="51.584362139917694" width="159.511398871529" height="12.510288065843621" fill="#4472c4"></rect><rect x="150" y="64.75308641975309" width="243.78851007266346" height="12.510288065843621" fill="#ed7d31"></rect><rect x="150" y="77.92181069958848" width="27.09850324104987" height="12.510288065843621" fill="#a5a5a5"></rect><rect x="150" y="91.09053497942386" width="29.82807679691203" height="12.510288065843621" fill="#ffc000"></rect><text class="label" x="318.01139887152897" y="60.084362139917694" font-size="10px">5.89x</text><text class="label" x="402.2885100726635" y="73.25308641975309" font-size="10px">9x</text><text class="label" x="185.59850324104985" y="86.42181069958848" font-size="10px">1x</text><text class="label" x="188.32807679691203" y="99.59053497942386" font-size="10px">1.1x</text><text class="label" x="314.51139887152897" y="61.584362139917694" font-size="8px"></text><text class="label" x="398.7885100726635" y="74.75308641975309" font-size="8px"></text><text class="label" x="182.09850324104985" y="87.92181069958848" font-size="8px"></text><text class="label" x="184.82807679691203" y="101.09053497942386" font-size="8px"></text></g><g style="font-size: 13px;"><rect x="150" y="110.84362139917695" width="193.13421993956842" height="12.510288065843621" fill="#4472c4"></rect><rect x="150" y="124.01234567901236" width="292.32734322835216" height="12.510288065843621" fill="#ed7d31"></rect><rect x="150" y="137.18106995884773" width="27.09850324104987" height="12.510288065843621" fill="#a5a5a5"></rect><rect x="150" y="150.34979423868313" width="29.33897214292708" height="12.510288065843621" fill="#ffc000"></rect><text class="label" x="351.6342199395684" y="119.34362139917695" font-size="10px">7.13x</text><text class="label" x="450.82734322835216" y="132.51234567901236" font-size="10px">10.79x</text><text class="label" x="185.59850324104985" y="145.68106995884773" font-size="10px">1x</text><text class="label" x="187.83897214292708" y="158.84979423868313" font-size="10px">1.08x</text><text class="label" x="348.1342199395684" y="120.84362139917695" font-size="8px"></text><text class="label" x="447.32734322835216" y="134.01234567901236" font-size="8px"></text><text class="label" x="182.09850324104985" y="147.18106995884773" font-size="8px"></text><text class="label" x="184.33897214292708" y="160.34979423868313" font-size="8px"></text></g><g style="font-size: 13px;"><rect x="150" y="170.10288065843622" width="221.15152768554253" height="12.510288065843621" fill="#4472c4"></rect><rect x="150" y="183.2716049382716" width="269.89801929176474" height="12.510288065843621" fill="#ed7d31"></rect><rect x="150" y="196.440329218107" width="27.09850324104987" height="12.510288065843621" fill="#a5a5a5"></rect><rect x="150" y="209.6090534979424" width="28.08066500255334" height="12.510288065843621" fill="#ffc000"></rect><text class="label" x="379.65152768554253" y="178.60288065843622" font-size="10px">8.16x</text><text class="label" x="428.39801929176474" y="191.7716049382716" font-size="10px">9.96x</text><text class="label" x="185.59850324104985" y="204.940329218107" font-size="10px">1x</text><text class="label" x="186.58066500255333" y="218.1090534979424" font-size="10px">1.04x</text><text class="label" x="376.15152768554253" y="180.10288065843622" font-size="8px"></text><text class="label" x="424.89801929176474" y="193.2716049382716" font-size="8px"></text><text class="label" x="182.09850324104985" y="206.440329218107" font-size="8px"></text><text class="label" x="183.08066500255333" y="219.6090534979424" font-size="8px"></text></g><g style="font-size: 13px;"><rect x="150" y="229.36213991769546" width="317.96342255650706" height="12.510288065843621" fill="#4472c4"></rect><rect x="150" y="242.53086419753086" width="440.9090909090909" height="12.510288065843621" fill="#ed7d31"></rect><rect x="150" y="255.69958847736626" width="27.09850324104987" height="12.510288065843621" fill="#a5a5a5"></rect><rect x="150" y="268.86831275720164" width="27.407738041410582" height="12.510288065843621" fill="#ffc000"></rect><text class="label" x="476.46342255650706" y="237.86213991769546" font-size="10px">11.73x</text><text class="label" x="599.4090909090909" y="251.03086419753086" font-size="10px">16.27x</text><text class="label" x="185.59850324104985" y="264.19958847736626" font-size="10px">1x</text><text class="label" x="185.9077380414106" y="277.36831275720164" font-size="10px">1.01x</text><text class="label" x="472.96342255650706" y="239.36213991769546" font-size="8px"></text><text class="label" x="595.9090909090909" y="252.53086419753086" font-size="8px"></text><text class="label" x="182.09850324104985" y="265.69958847736626" font-size="8px"></text><text class="label" x="182.4077380414106" y="278.86831275720164" font-size="8px"></text></g><g style="font-size: 13px;"><rect x="150" y="288.6213991769547" width="172.19325181176504" height="12.510288065843621" fill="#4472c4"></rect><rect x="150" y="301.7901234567901" width="180.47622731318307" height="12.510288065843621" fill="#ed7d31"></rect><rect x="150" y="314.9588477366255" width="27.09850324104987" height="12.510288065843621" fill="#a5a5a5"></rect><rect x="150" y="328.12757201646093" width="28.992963106933825" height="12.510288065843621" fill="#ffc000"></rect><text class="label" x="330.69325181176504" y="297.1213991769547" font-size="10px">6.35x</text><text class="label" x="338.9762273131831" y="310.2901234567901" font-size="10px">6.66x</text><text class="label" x="185.59850324104985" y="323.4588477366255" font-size="10px">1x</text><text class="label" x="187.49296310693381" y="336.62757201646093" font-size="10px">1.07x</text><text class="label" x="327.19325181176504" y="298.6213991769547" font-size="8px"></text><text class="label" x="335.4762273131831" y="311.7901234567901" font-size="8px"></text><text class="label" x="182.09850324104985" y="324.9588477366255" font-size="8px"></text><text class="label" x="183.99296310693381" y="338.12757201646093" font-size="8px"></text></g><g style="font-size: 13px;"><rect x="150" y="347.880658436214" width="302.39632821209545" height="12.510288065843621" fill="#4472c4"></rect><rect x="150" y="361.04938271604937" width="287.90983601122565" height="12.510288065843621" fill="#ed7d31"></rect><rect x="150" y="374.2181069958848" width="27.09850324104987" height="12.510288065843621" fill="#a5a5a5"></rect><rect x="150" y="387.38683127572017" width="28.29609239293838" height="12.510288065843621" fill="#ffc000"></rect><text class="label" x="460.89632821209545" y="356.380658436214" font-size="10px">11.16x</text><text class="label" x="446.40983601122565" y="369.54938271604937" font-size="10px">10.62x</text><text class="label" x="185.59850324104985" y="382.7181069958848" font-size="10px">1x</text><text class="label" x="186.7960923929384" y="395.88683127572017" font-size="10px">1.04x</text><text class="label" x="457.39632821209545" y="357.880658436214" font-size="8px"></text><text class="label" x="442.90983601122565" y="371.04938271604937" font-size="8px"></text><text class="label" x="182.09850324104985" y="384.2181069958848" font-size="8px"></text><text class="label" x="183.2960923929384" y="397.38683127572017" font-size="8px"></text></g><g style="font-size: 13px;"><rect x="150" y="407.13991769547323" width="228.69431854162403" height="12.510288065843621" fill="#4472c4"></rect><rect x="150" y="420.3086419753086" width="235.00985138520036" height="12.510288065843621" fill="#ed7d31"></rect><rect x="150" y="433.47736625514403" width="27.09850324104987" height="12.510288065843621" fill="#a5a5a5"></rect><rect x="150" y="446.6460905349794" width="27.85036352542907" height="12.510288065843621" fill="#ffc000"></rect><text class="label" x="387.19431854162406" y="415.63991769547323" font-size="10px">8.44x</text><text class="label" x="393.50985138520036" y="428.8086419753086" font-size="10px">8.67x</text><text class="label" x="185.59850324104985" y="441.97736625514403" font-size="10px">1x</text><text class="label" x="186.35036352542906" y="455.1460905349794" font-size="10px">1.03x</text><text class="label" x="383.69431854162406" y="417.13991769547323" font-size="8px"></text><text class="label" x="390.00985138520036" y="430.3086419753086" font-size="8px"></text><text class="label" x="182.09850324104985" y="443.47736625514403" font-size="8px"></text><text class="label" x="182.85036352542906" y="456.6460905349794" font-size="8px"></text></g><g style="font-size: 13px;"><rect x="150" y="466.3991769547325" width="187.6883955538677" height="12.510288065843621" fill="#4472c4"></rect><rect x="150" y="479.5679012345679" width="205.96528963427798" height="12.510288065843621" fill="#ed7d31"></rect><rect x="150" y="492.73662551440333" width="27.713158855093862" height="12.510288065843621" fill="#a5a5a5"></rect><rect x="150" y="505.9053497942387" width="27.09850324104987" height="12.510288065843621" fill="#ffc000"></rect><text class="label" x="346.18839555386774" y="474.8991769547325" font-size="10px">6.93x</text><text class="label" x="364.46528963427795" y="488.0679012345679" font-size="10px">7.6x</text><text class="label" x="186.21315885509387" y="501.23662551440333" font-size="10px">1.02x</text><text class="label" x="185.59850324104985" y="514.4053497942386" font-size="10px">1x</text><text class="label" x="342.68839555386774" y="476.3991769547325" font-size="8px"></text><text class="label" x="360.96528963427795" y="489.5679012345679" font-size="8px"></text><text class="label" x="182.71315885509387" y="502.73662551440333" font-size="8px"></text><text class="label" x="182.09850324104985" y="515.9053497942386" font-size="8px"></text></g></g></svg>