<svg xmlns="http://www.w3.org/2000/svg" xmlns:xlink="http://www.w3.org/1999/xlink" width="800" height="674" style="background-color: white;"><g class="y axis" transform="translate(149,45)" fill="none" font-size="10" font-family="sans-serif" text-anchor="end" style="font-size: 13px;"><path class="domain" stroke="currentColor" d="M0.5,0.5V480.5"></path><g class="tick" opacity="1" transform="translate(0,32.592592592592595)" style="font-size: 13px;"><line stroke="currentColor" x2="0"></line><text fill="currentColor" x="-3" dy="0.32em">object (simple)    </text></g><g class="tick" opacity="1" transform="translate(0,91.85185185185186)" style="font-size: 13px;"><line stroke="currentColor" x2="0"></line><text fill="currentColor" x="-3" dy="0.32em">object (hierarchical)    </text></g><g class="tick" opacity="1" transform="translate(0,151.11111111111111)" style="font-size: 13px;"><line stroke="currentColor" x2="0"></line><text fill="currentColor" x="-3" dy="0.32em">object (recursive)    </text></g><g class="tick" opacity="1" transform="translate(0,210.37037037037035)" style="font-size: 13px;"><line stroke="currentColor" x2="0"></line><text fill="currentColor" x="-3" dy="0.32em">object (union, explicit)    </text></g><g class="tick" opacity="1" transform="translate(0,269.6296296296296)" style="font-size: 13px;"><line stroke="currentColor" x2="0"></line><text fill="currentColor" x="-3" dy="0.32em">array (simple)    </text></g><g class="tick" opacity="1" transform="translate(0,328.8888888888889)" style="font-size: 13px;"><line stroke="currentColor" x2="0"></line><text fill="currentColor" x="-3" dy="0.32em">array (hierarchical)    </text></g><g class="tick" opacity="1" transform="translate(0,388.14814814814815)" style="font-size: 13px;"><line stroke="currentColor" x2="0"></line><text fill="currentColor" x="-3" dy="0.32em">array (recursive)    </text></g><g class="tick" opacity="1" transform="translate(0,447.40740740740745)" style="font-size: 13px;"><line stroke="currentColor" x2="0"></line><text fill="currentColor" x="-3" dy="0.32em">array (union, explicit)    </text></g></g><g class="x axis" transform="translate(149,525)" fill="none" font-size="10" font-family="sans-serif" text-anchor="middle" style="font-size: 13px;"><path class="domain" stroke="currentColor" d="M0.5,0.5H485.5"></path><g class="tick" opacity="1" transform="translate(0.5,0)" style="font-size: 13px;"><line stroke="currentColor" y2="6"></line><text fill="currentColor" y="9" dy="0.71em">0x</text></g><g class="tick" opacity="1" transform="translate(138.4939235299083,0)" style="font-size: 13px;"><line stroke="currentColor" y2="6"></line><text fill="currentColor" y="9" dy="0.71em">5x</text></g><g class="tick" opacity="1" transform="translate(276.4878470598166,0)" style="font-size: 13px;"><line stroke="currentColor" y2="6"></line><text fill="currentColor" y="9" dy="0.71em">10x</text></g><g class="tick" opacity="1" transform="translate(414.48177058972493,0)" style="font-size: 13px;"><line stroke="currentColor" y2="6"></line><text fill="currentColor" y="9" dy="0.71em">15x</text></g></g><text transform="translate(400, 30)" style="text-anchor: middle; font-size: 20px; font-weight: bold;">stringify benchmark</text><rect x="650" y="125" width="230" height="5" fill="gray"></rect><rect x="645" y="35" width="230" height="90" fill="none" stroke="black"></rect><rect x="655" y="45" width="10" height="10" style="fill: #4472c4;"></rect><text x="670" y="55" style="font-size: 12px;">nestia-express</text><rect x="655" y="65" width="10" height="10" style="fill: #ed7d31;"></rect><text x="670" y="75" style="font-size: 12px;">nestia-fastify</text><rect x="655" y="85" width="10" height="10" style="fill: #a5a5a5;"></rect><text x="670" y="95" style="font-size: 12px;">NestJS-express</text><rect x="655" y="105" width="10" height="10" style="fill: #ffc000;"></rect><text x="670" y="115" style="font-size: 12px;">NestJS-fastify</text><text x="20" y="589" style="font-size: 12px;">  - CPU: AMD Ryzen 7 6800HS with Radeon Graphics</text><text x="20" y="606" style="font-size: 12px;">  - OS: win32</text><text x="20" y="623" style="font-size: 12px;">  - RAM: 63 GB</text><text x="20" y="640" style="font-size: 12px;">  - NodeJS version: v16.20.0</text><text x="20" y="657" style="font-size: 12px;">  - Typia version: v0.1.0</text><g style="font-size: 13px;"><g style="font-size: 13px;"><rect x="150" y="51.584362139917694" width="150.58061504440425" height="12.510288065843621" fill="#4472c4"></rect><rect x="150" y="64.75308641975309" width="209.75558833961352" height="12.510288065843621" fill="#ed7d31"></rect><rect x="150" y="77.92181069958848" width="27.59878470598166" height="12.510288065843621" fill="#a5a5a5"></rect><rect x="150" y="91.09053497942386" width="31.048961833147498" height="12.510288065843621" fill="#ffc000"></rect><text class="label" x="309.0806150444042" y="60.084362139917694" font-size="10px">5.46x</text><text class="label" x="368.2555883396135" y="73.25308641975309" font-size="10px">7.6x</text><text class="label" x="186.09878470598167" y="86.42181069958848" font-size="10px">1x</text><text class="label" x="189.5489618331475" y="99.59053497942386" font-size="10px">1.13x</text><text class="label" x="305.5806150444042" y="61.584362139917694" font-size="8px"></text><text class="label" x="364.7555883396135" y="74.75308641975309" font-size="8px"></text><text class="label" x="182.59878470598167" y="87.92181069958848" font-size="8px"></text><text class="label" x="186.0489618331475" y="101.09053497942386" font-size="8px"></text></g><g style="font-size: 13px;"><rect x="150" y="110.84362139917695" width="187.24544908425256" height="12.510288065843621" fill="#4472c4"></rect><rect x="150" y="124.01234567901236" width="221.83300555440925" height="12.510288065843621" fill="#ed7d31"></rect><rect x="150" y="137.18106995884773" width="27.59878470598166" height="12.510288065843621" fill="#a5a5a5"></rect><rect x="150" y="150.34979423868313" width="29.32361505718962" height="12.510288065843621" fill="#ffc000"></rect><text class="label" x="345.7454490842525" y="119.34362139917695" font-size="10px">6.78x</text><text class="label" x="380.3330055544093" y="132.51234567901236" font-size="10px">8.04x</text><text class="label" x="186.09878470598167" y="145.68106995884773" font-size="10px">1x</text><text class="label" x="187.8236150571896" y="158.84979423868313" font-size="10px">1.06x</text><text class="label" x="342.2454490842525" y="120.84362139917695" font-size="8px"></text><text class="label" x="376.8330055544093" y="134.01234567901236" font-size="8px"></text><text class="label" x="182.59878470598167" y="147.18106995884773" font-size="8px"></text><text class="label" x="184.3236150571896" y="160.34979423868313" font-size="8px"></text></g><g style="font-size: 13px;"><rect x="150" y="170.10288065843622" width="225.654431926902" height="12.510288065843621" fill="#4472c4"></rect><rect x="150" y="183.2716049382716" width="271.0709459919897" height="12.510288065843621" fill="#ed7d31"></rect><rect x="150" y="196.440329218107" width="27.59878470598166" height="12.510288065843621" fill="#a5a5a5"></rect><rect x="150" y="209.6090534979424" width="28.465144601903578" height="12.510288065843621" fill="#ffc000"></rect><text class="label" x="384.154431926902" y="178.60288065843622" font-size="10px">8.18x</text><text class="label" x="429.5709459919897" y="191.7716049382716" font-size="10px">9.82x</text><text class="label" x="186.09878470598167" y="204.940329218107" font-size="10px">1x</text><text class="label" x="186.96514460190357" y="218.1090534979424" font-size="10px">1.03x</text><text class="label" x="380.654431926902" y="180.10288065843622" font-size="8px"></text><text class="label" x="426.0709459919897" y="193.2716049382716" font-size="8px"></text><text class="label" x="182.59878470598167" y="206.440329218107" font-size="8px"></text><text class="label" x="183.46514460190357" y="219.6090534979424" font-size="8px"></text></g><g style="font-size: 13px;"><rect x="150" y="229.36213991769546" width="369.9028687464434" height="12.510288065843621" fill="#4472c4"></rect><rect x="150" y="242.53086419753086" width="440.9090909090909" height="12.510288065843621" fill="#ed7d31"></rect><rect x="150" y="255.69958847736626" width="27.59878470598166" height="12.510288065843621" fill="#a5a5a5"></rect><rect x="150" y="268.86831275720164" width="27.664317353331146" height="12.510288065843621" fill="#ffc000"></rect><text class="label" x="528.4028687464433" y="237.86213991769546" font-size="10px">13.4x</text><text class="label" x="599.4090909090909" y="251.03086419753086" font-size="10px">15.98x</text><text class="label" x="186.09878470598167" y="264.19958847736626" font-size="10px">1x</text><text class="label" x="186.16431735333114" y="277.36831275720164" font-size="10px">1x</text><text class="label" x="524.9028687464433" y="239.36213991769546" font-size="8px"></text><text class="label" x="595.9090909090909" y="252.53086419753086" font-size="8px"></text><text class="label" x="182.59878470598167" y="265.69958847736626" font-size="8px"></text><text class="label" x="182.66431735333114" y="278.86831275720164" font-size="8px"></text></g><g style="font-size: 13px;"><rect x="150" y="288.6213991769547" width="133.31507187686026" height="12.510288065843621" fill="#4472c4"></rect><rect x="150" y="301.7901234567901" width="169.78613306705583" height="12.510288065843621" fill="#ed7d31"></rect><rect x="150" y="314.9588477366255" width="27.92461139705469" height="12.510288065843621" fill="#a5a5a5"></rect><rect x="150" y="328.12757201646093" width="27.59878470598166" height="12.510288065843621" fill="#ffc000"></rect><text class="label" x="291.81507187686026" y="297.1213991769547" font-size="10px">4.83x</text><text class="label" x="328.28613306705586" y="310.2901234567901" font-size="10px">6.15x</text><text class="label" x="186.4246113970547" y="323.4588477366255" font-size="10px">1.01x</text><text class="label" x="186.09878470598167" y="336.62757201646093" font-size="10px">1x</text><text class="label" x="288.31507187686026" y="298.6213991769547" font-size="8px"></text><text class="label" x="324.78613306705586" y="311.7901234567901" font-size="8px"></text><text class="label" x="182.9246113970547" y="324.9588477366255" font-size="8px"></text><text class="label" x="182.59878470598167" y="338.12757201646093" font-size="8px"></text></g><g style="font-size: 13px;"><rect x="150" y="347.880658436214" width="288.02762967594913" height="12.510288065843621" fill="#4472c4"></rect><rect x="150" y="361.04938271604937" width="290.3644828451065" height="12.510288065843621" fill="#ed7d31"></rect><rect x="150" y="374.2181069958848" width="27.59878470598166" height="12.510288065843621" fill="#a5a5a5"></rect><rect x="150" y="387.38683127572017" width="27.9272268686623" height="12.510288065843621" fill="#ffc000"></rect><text class="label" x="446.52762967594913" y="356.380658436214" font-size="10px">10.44x</text><text class="label" x="448.8644828451065" y="369.54938271604937" font-size="10px">10.52x</text><text class="label" x="186.09878470598167" y="382.7181069958848" font-size="10px">1x</text><text class="label" x="186.4272268686623" y="395.88683127572017" font-size="10px">1.01x</text><text class="label" x="443.02762967594913" y="357.880658436214" font-size="8px"></text><text class="label" x="445.3644828451065" y="371.04938271604937" font-size="8px"></text><text class="label" x="182.59878470598167" y="384.2181069958848" font-size="8px"></text><text class="label" x="182.9272268686623" y="397.38683127572017" font-size="8px"></text></g><g style="font-size: 13px;"><rect x="150" y="407.13991769547323" width="220.0389350525932" height="12.510288065843621" fill="#4472c4"></rect><rect x="150" y="420.3086419753086" width="227.1547525118624" height="12.510288065843621" fill="#ed7d31"></rect><rect x="150" y="433.47736625514403" width="27.765851470740174" height="12.510288065843621" fill="#a5a5a5"></rect><rect x="150" y="446.6460905349794" width="27.59878470598166" height="12.510288065843621" fill="#ffc000"></rect><text class="label" x="378.53893505259316" y="415.63991769547323" font-size="10px">7.97x</text><text class="label" x="385.6547525118624" y="428.8086419753086" font-size="10px">8.23x</text><text class="label" x="186.2658514707402" y="441.97736625514403" font-size="10px">1.01x</text><text class="label" x="186.09878470598167" y="455.1460905349794" font-size="10px">1x</text><text class="label" x="375.03893505259316" y="417.13991769547323" font-size="8px"></text><text class="label" x="382.1547525118624" y="430.3086419753086" font-size="8px"></text><text class="label" x="182.7658514707402" y="443.47736625514403" font-size="8px"></text><text class="label" x="182.59878470598167" y="456.6460905349794" font-size="8px"></text></g><g style="font-size: 13px;"><rect x="150" y="466.3991769547325" width="190.52735860625765" height="12.510288065843621" fill="#4472c4"></rect><rect x="150" y="479.5679012345679" width="212.5447144738162" height="12.510288065843621" fill="#ed7d31"></rect><rect x="150" y="492.73662551440333" width="27.661007020844423" height="12.510288065843621" fill="#a5a5a5"></rect><rect x="150" y="505.9053497942387" width="27.59878470598166" height="12.510288065843621" fill="#ffc000"></rect><text class="label" x="349.0273586062576" y="474.8991769547325" font-size="10px">6.9x</text><text class="label" x="371.0447144738162" y="488.0679012345679" font-size="10px">7.7x</text><text class="label" x="186.1610070208444" y="501.23662551440333" font-size="10px">1x</text><text class="label" x="186.09878470598167" y="514.4053497942386" font-size="10px">1x</text><text class="label" x="345.5273586062576" y="476.3991769547325" font-size="8px"></text><text class="label" x="367.5447144738162" y="489.5679012345679" font-size="8px"></text><text class="label" x="182.6610070208444" y="502.73662551440333" font-size="8px"></text><text class="label" x="182.59878470598167" y="515.9053497942386" font-size="8px"></text></g></g></svg>