<svg xmlns="http://www.w3.org/2000/svg" xmlns:xlink="http://www.w3.org/1999/xlink" width="800" height="794" style="background-color: white;"><g class="y axis" transform="translate(149,45)" fill="none" font-size="10" font-family="sans-serif" text-anchor="end" style="font-size: 13px;"><path class="domain" stroke="currentColor" d="M0.5,0.5V600.5"></path><g class="tick" opacity="1" transform="translate(0,40.740740740740726)" style="font-size: 13px;"><line stroke="currentColor" x2="0"></line><text fill="currentColor" x="-3" dy="0.32em">object (simple)    </text></g><g class="tick" opacity="1" transform="translate(0,114.81481481481481)" style="font-size: 13px;"><line stroke="currentColor" x2="0"></line><text fill="currentColor" x="-3" dy="0.32em">object (hierarchical)    </text></g><g class="tick" opacity="1" transform="translate(0,188.88888888888889)" style="font-size: 13px;"><line stroke="currentColor" x2="0"></line><text fill="currentColor" x="-3" dy="0.32em">object (recursive)    </text></g><g class="tick" opacity="1" transform="translate(0,262.96296296296293)" style="font-size: 13px;"><line stroke="currentColor" x2="0"></line><text fill="currentColor" x="-3" dy="0.32em">object (union, explicit)    </text></g><g class="tick" opacity="1" transform="translate(0,337.037037037037)" style="font-size: 13px;"><line stroke="currentColor" x2="0"></line><text fill="currentColor" x="-3" dy="0.32em">array (simple)    </text></g><g class="tick" opacity="1" transform="translate(0,411.1111111111111)" style="font-size: 13px;"><line stroke="currentColor" x2="0"></line><text fill="currentColor" x="-3" dy="0.32em">array (hierarchical)    </text></g><g class="tick" opacity="1" transform="translate(0,485.18518518518516)" style="font-size: 13px;"><line stroke="currentColor" x2="0"></line><text fill="currentColor" x="-3" dy="0.32em">array (recursive)    </text></g><g class="tick" opacity="1" transform="translate(0,559.2592592592592)" style="font-size: 13px;"><line stroke="currentColor" x2="0"></line><text fill="currentColor" x="-3" dy="0.32em">array (union, explicit)    </text></g></g><g class="x axis" transform="translate(149,645)" fill="none" font-size="10" font-family="sans-serif" text-anchor="middle" style="font-size: 13px;"><path class="domain" stroke="currentColor" d="M0.5,0.5H485.5"></path><g class="tick" opacity="1" transform="translate(0.5,0)" style="font-size: 13px;"><line stroke="currentColor" y2="6"></line><text fill="currentColor" y="9" dy="0.71em">0x</text></g><g class="tick" opacity="1" transform="translate(116.57332995201149,0)" style="font-size: 13px;"><line stroke="currentColor" y2="6"></line><text fill="currentColor" y="9" dy="0.71em">5x</text></g><g class="tick" opacity="1" transform="translate(232.64665990402298,0)" style="font-size: 13px;"><line stroke="currentColor" y2="6"></line><text fill="currentColor" y="9" dy="0.71em">10x</text></g><g class="tick" opacity="1" transform="translate(348.7199898560345,0)" style="font-size: 13px;"><line stroke="currentColor" y2="6"></line><text fill="currentColor" y="9" dy="0.71em">15x</text></g><g class="tick" opacity="1" transform="translate(464.79331980804596,0)" style="font-size: 13px;"><line stroke="currentColor" y2="6"></line><text fill="currentColor" y="9" dy="0.71em">20x</text></g></g><text transform="translate(400, 30)" style="text-anchor: middle; font-size: 20px; font-weight: bold;">assert benchmark</text><rect x="650" y="145" width="230" height="5" fill="gray"></rect><rect x="645" y="35" width="230" height="110" fill="none" stroke="black"></rect><rect x="655" y="45" width="10" height="10" style="fill: #4472c4;"></rect><text x="670" y="55" style="font-size: 12px;">nestia-express</text><rect x="655" y="65" width="10" height="10" style="fill: #ed7d31;"></rect><text x="670" y="75" style="font-size: 12px;">nestia-fastify</text><rect x="655" y="85" width="10" height="10" style="fill: #a5a5a5;"></rect><text x="670" y="95" style="font-size: 12px;">fastify</text><rect x="655" y="105" width="10" height="10" style="fill: #ffc000;"></rect><text x="670" y="115" style="font-size: 12px;">NestJS-express</text><rect x="655" y="125" width="10" height="10" style="fill: #5b9bd5;"></rect><text x="670" y="135" style="font-size: 12px;">NestJS-fastify</text><text x="20" y="709" style="font-size: 12px;">  - CPU: Intel(R) Core(TM) i5-8250U CPU @ 1.60GHz</text><text x="20" y="726" style="font-size: 12px;">  - OS: win32</text><text x="20" y="743" style="font-size: 12px;">  - RAM: 8 GB</text><text x="20" y="760" style="font-size: 12px;">  - NodeJS version: v16.20.1</text><text x="20" y="777" style="font-size: 12px;">  - Nestia version: v1.6.1</text><g style="font-size: 13px;"><g style="font-size: 13px;"><rect x="150" y="53.06747341400805" width="230.54759778152027" height="12.541254125412543" fill="#4472c4"></rect><rect x="150" y="66.26879354602124" width="325.6479008615461" height="12.541254125412543" fill="#ed7d31"></rect><rect x="150" y="79.47011367803445" width="317.8398560875933" height="12.541254125412543" fill="#a5a5a5"></rect><rect x="150" y="92.67143381004766" width="23.2146659904023" height="12.541254125412543" fill="#ffc000"></rect><rect x="150" y="105.87275394206085" width="24.650708293992263" height="12.541254125412543" fill="#5b9bd5"></rect><text class="label" x="389.04759778152027" y="61.56747341400805" font-size="10px">9.93x</text><text class="label" x="484.1479008615461" y="74.76879354602124" font-size="10px">14.03x</text><text class="label" x="476.3398560875933" y="87.97011367803445" font-size="10px">13.69x</text><text class="label" x="181.7146659904023" y="101.17143381004766" font-size="10px">1x</text><text class="label" x="183.15070829399227" y="114.37275394206085" font-size="10px">1.06x</text><text class="label" x="385.54759778152027" y="63.06747341400805" font-size="8px"></text><text class="label" x="480.6479008615461" y="76.26879354602124" font-size="8px"></text><text class="label" x="472.8398560875933" y="89.47011367803445" font-size="8px"></text><text class="label" x="178.2146659904023" y="102.67143381004766" font-size="8px"></text><text class="label" x="179.65070829399227" y="115.87275394206085" font-size="8px"></text></g><g style="font-size: 13px;"><rect x="150" y="127.14154748808213" width="313.7178217420074" height="12.541254125412543" fill="#4472c4"></rect><rect x="150" y="140.34286762009532" width="331.2300416668825" height="12.541254125412543" fill="#ed7d31"></rect><rect x="150" y="153.54418775210854" width="322.09119355024956" height="12.541254125412543" fill="#a5a5a5"></rect><rect x="150" y="166.74550788412174" width="23.2146659904023" height="12.541254125412543" fill="#ffc000"></rect><rect x="150" y="179.94682801613493" width="24.250924102204777" height="12.541254125412543" fill="#5b9bd5"></rect><text class="label" x="472.2178217420074" y="135.64154748808213" font-size="10px">13.51x</text><text class="label" x="489.7300416668825" y="148.84286762009532" font-size="10px">14.27x</text><text class="label" x="480.59119355024956" y="162.04418775210854" font-size="10px">13.87x</text><text class="label" x="181.7146659904023" y="175.24550788412174" font-size="10px">1x</text><text class="label" x="182.75092410220478" y="188.44682801613493" font-size="10px">1.04x</text><text class="label" x="468.7178217420074" y="137.14154748808213" font-size="8px"></text><text class="label" x="486.2300416668825" y="150.34286762009532" font-size="8px"></text><text class="label" x="477.09119355024956" y="163.54418775210854" font-size="8px"></text><text class="label" x="178.2146659904023" y="176.74550788412174" font-size="8px"></text><text class="label" x="179.25092410220478" y="189.94682801613493" font-size="8px"></text></g><g style="font-size: 13px;"><rect x="150" y="201.2156215621562" width="436.0213401722835" height="12.541254125412543" fill="#4472c4"></rect><rect x="150" y="214.4169416941694" width="440.9090909090909" height="12.541254125412543" fill="#ed7d31"></rect><rect x="150" y="227.61826182618262" width="416.3680735305825" height="12.541254125412543" fill="#a5a5a5"></rect><rect x="150" y="240.8195819581958" width="23.2146659904023" height="12.541254125412543" fill="#ffc000"></rect><rect x="150" y="254.020902090209" width="30.69018963330049" height="12.541254125412543" fill="#5b9bd5"></rect><text class="label" x="594.5213401722835" y="209.7156215621562" font-size="10px">18.78x</text><text class="label" x="599.4090909090909" y="222.9169416941694" font-size="10px">18.99x</text><text class="label" x="574.8680735305825" y="236.11826182618262" font-size="10px">17.94x</text><text class="label" x="181.7146659904023" y="249.3195819581958" font-size="10px">1x</text><text class="label" x="189.1901896333005" y="262.520902090209" font-size="10px">1.32x</text><text class="label" x="591.0213401722835" y="211.2156215621562" font-size="8px"></text><text class="label" x="595.9090909090909" y="224.4169416941694" font-size="8px"></text><text class="label" x="571.3680735305825" y="237.61826182618262" font-size="8px"></text><text class="label" x="178.2146659904023" y="250.8195819581958" font-size="8px"></text><text class="label" x="185.6901896333005" y="264.020902090209" font-size="8px"></text></g><g style="font-size: 13px;"><rect x="150" y="275.28969563623025" width="218.40762963000842" height="12.541254125412543" fill="#4472c4"></rect><rect x="150" y="288.49101576824347" width="221.09662325711318" height="12.541254125412543" fill="#ed7d31"></rect><rect x="150" y="301.6923359002567" width="143.19148853001303" height="12.541254125412543" fill="#a5a5a5"></rect><rect x="150" y="314.89365603226986" width="23.476678669811243" height="12.541254125412543" fill="#ffc000"></rect><rect x="150" y="328.0949761642831" width="23.2146659904023" height="12.541254125412543" fill="#5b9bd5"></rect><text class="label" x="376.9076296300084" y="283.78969563623025" font-size="10px">9.41x</text><text class="label" x="379.59662325711315" y="296.99101576824347" font-size="10px">9.52x</text><text class="label" x="301.69148853001303" y="310.1923359002567" font-size="10px">6.17x</text><text class="label" x="181.97667866981124" y="323.39365603226986" font-size="10px">1.01x</text><text class="label" x="181.7146659904023" y="336.5949761642831" font-size="10px">1x</text><text class="label" x="373.4076296300084" y="285.28969563623025" font-size="8px"></text><text class="label" x="376.09662325711315" y="298.49101576824347" font-size="8px"></text><text class="label" x="298.19148853001303" y="311.6923359002567" font-size="8px"></text><text class="label" x="178.47667866981124" y="324.89365603226986" font-size="8px"></text><text class="label" x="178.2146659904023" y="338.0949761642831" font-size="8px"></text></g><g style="font-size: 13px;"><rect x="150" y="349.3637697103044" width="137.35092055361048" height="12.541254125412543" fill="#4472c4"></rect><rect x="150" y="362.56508984231755" width="135.91181045893043" height="12.541254125412543" fill="#ed7d31"></rect><rect x="150" y="375.76640997433077" width="144.9126548753411" height="12.541254125412543" fill="#a5a5a5"></rect><rect x="150" y="388.967730106344" width="23.2146659904023" height="12.541254125412543" fill="#ffc000"></rect><rect x="150" y="402.16905023835716" width="24.60851099801343" height="12.541254125412543" fill="#5b9bd5"></rect><text class="label" x="295.8509205536105" y="357.8637697103044" font-size="10px">5.92x</text><text class="label" x="294.4118104589304" y="371.06508984231755" font-size="10px">5.85x</text><text class="label" x="303.4126548753411" y="384.26640997433077" font-size="10px">6.24x</text><text class="label" x="181.7146659904023" y="397.467730106344" font-size="10px">1x</text><text class="label" x="183.10851099801343" y="410.66905023835716" font-size="10px">1.06x</text><text class="label" x="292.3509205536105" y="359.3637697103044" font-size="8px"></text><text class="label" x="290.9118104589304" y="372.56508984231755" font-size="8px"></text><text class="label" x="299.9126548753411" y="385.76640997433077" font-size="8px"></text><text class="label" x="178.2146659904023" y="398.967730106344" font-size="8px"></text><text class="label" x="179.60851099801343" y="412.16905023835716" font-size="8px"></text></g><g style="font-size: 13px;"><rect x="150" y="423.4378437843784" width="94.1638465658949" height="12.541254125412543" fill="#4472c4"></rect><rect x="150" y="436.6391639163916" width="195.94501134740284" height="12.541254125412543" fill="#ed7d31"></rect><rect x="150" y="449.84048404840485" width="154.6159996468071" height="12.541254125412543" fill="#a5a5a5"></rect><rect x="150" y="463.041804180418" width="23.2146659904023" height="12.541254125412543" fill="#ffc000"></rect><rect x="150" y="476.24312431243123" width="26.156590768533437" height="12.541254125412543" fill="#5b9bd5"></rect><text class="label" x="252.66384656589491" y="431.9378437843784" font-size="10px">4.06x</text><text class="label" x="354.44501134740284" y="445.1391639163916" font-size="10px">8.44x</text><text class="label" x="313.1159996468071" y="458.34048404840485" font-size="10px">6.66x</text><text class="label" x="181.7146659904023" y="471.541804180418" font-size="10px">1x</text><text class="label" x="184.65659076853345" y="484.74312431243123" font-size="10px">1.13x</text><text class="label" x="249.16384656589491" y="433.4378437843784" font-size="8px"></text><text class="label" x="350.94501134740284" y="446.6391639163916" font-size="8px"></text><text class="label" x="309.6159996468071" y="459.84048404840485" font-size="8px"></text><text class="label" x="178.2146659904023" y="473.041804180418" font-size="8px"></text><text class="label" x="181.15659076853345" y="486.24312431243123" font-size="8px"></text></g><g style="font-size: 13px;"><rect x="150" y="497.51191785845253" width="382.7889893635448" height="12.541254125412543" fill="#4472c4"></rect><rect x="150" y="510.7132379904657" width="347.0213767062845" height="12.541254125412543" fill="#ed7d31"></rect><rect x="150" y="523.9145581224789" width="334.1189228654602" height="12.541254125412543" fill="#a5a5a5"></rect><rect x="150" y="537.1158782544921" width="23.799788538181964" height="12.541254125412543" fill="#ffc000"></rect><rect x="150" y="550.3171983865053" width="23.2146659904023" height="12.541254125412543" fill="#5b9bd5"></rect><text class="label" x="541.2889893635447" y="506.01191785845253" font-size="10px">16.49x</text><text class="label" x="505.5213767062845" y="519.2132379904657" font-size="10px">14.95x</text><text class="label" x="492.6189228654602" y="532.4145581224789" font-size="10px">14.39x</text><text class="label" x="182.29978853818196" y="545.6158782544921" font-size="10px">1.03x</text><text class="label" x="181.7146659904023" y="558.8171983865053" font-size="10px">1x</text><text class="label" x="537.7889893635447" y="507.51191785845253" font-size="8px"></text><text class="label" x="502.0213767062845" y="520.7132379904657" font-size="8px"></text><text class="label" x="489.1189228654602" y="533.9145581224789" font-size="8px"></text><text class="label" x="178.79978853818196" y="547.1158782544921" font-size="8px"></text><text class="label" x="178.2146659904023" y="560.3171983865053" font-size="8px"></text></g><g style="font-size: 13px;"><rect x="150" y="571.5859919325266" width="182.847502923594" height="12.541254125412543" fill="#4472c4"></rect><rect x="150" y="584.7873120645397" width="164.36367797131146" height="12.541254125412543" fill="#ed7d31"></rect><rect x="150" y="597.9886321965529" width="109.71891674612688" height="12.541254125412543" fill="#a5a5a5"></rect><rect x="150" y="611.1899523285662" width="23.2146659904023" height="12.541254125412543" fill="#ffc000"></rect><rect x="150" y="624.3912724605793" width="25.504976655617064" height="12.541254125412543" fill="#5b9bd5"></rect><text class="label" x="341.347502923594" y="580.0859919325266" font-size="10px">7.88x</text><text class="label" x="322.86367797131146" y="593.2873120645397" font-size="10px">7.08x</text><text class="label" x="268.21891674612687" y="606.4886321965529" font-size="10px">4.73x</text><text class="label" x="181.7146659904023" y="619.6899523285662" font-size="10px">1x</text><text class="label" x="184.00497665561707" y="632.8912724605793" font-size="10px">1.1x</text><text class="label" x="337.847502923594" y="581.5859919325266" font-size="8px"></text><text class="label" x="319.36367797131146" y="594.7873120645397" font-size="8px"></text><text class="label" x="264.71891674612687" y="607.9886321965529" font-size="8px"></text><text class="label" x="178.2146659904023" y="621.1899523285662" font-size="8px"></text><text class="label" x="180.50497665561707" y="634.3912724605793" font-size="8px"></text></g></g></svg>