<svg xmlns="http://www.w3.org/2000/svg" xmlns:xlink="http://www.w3.org/1999/xlink" width="800" height="794" style="background-color: white;"><g class="y axis" transform="translate(149,45)" fill="none" font-size="10" font-family="sans-serif" text-anchor="end" style="font-size: 13px;"><path class="domain" stroke="currentColor" d="M0.5,0.5V600.5"></path><g class="tick" opacity="1" transform="translate(0,40.740740740740726)" style="font-size: 13px;"><line stroke="currentColor" x2="0"></line><text fill="currentColor" x="-3" dy="0.32em">object (simple)    </text></g><g class="tick" opacity="1" transform="translate(0,114.81481481481481)" style="font-size: 13px;"><line stroke="currentColor" x2="0"></line><text fill="currentColor" x="-3" dy="0.32em">object (hierarchical)    </text></g><g class="tick" opacity="1" transform="translate(0,188.88888888888889)" style="font-size: 13px;"><line stroke="currentColor" x2="0"></line><text fill="currentColor" x="-3" dy="0.32em">object (recursive)    </text></g><g class="tick" opacity="1" transform="translate(0,262.96296296296293)" style="font-size: 13px;"><line stroke="currentColor" x2="0"></line><text fill="currentColor" x="-3" dy="0.32em">object (union, explicit)    </text></g><g class="tick" opacity="1" transform="translate(0,337.037037037037)" style="font-size: 13px;"><line stroke="currentColor" x2="0"></line><text fill="currentColor" x="-3" dy="0.32em">array (simple)    </text></g><g class="tick" opacity="1" transform="translate(0,411.1111111111111)" style="font-size: 13px;"><line stroke="currentColor" x2="0"></line><text fill="currentColor" x="-3" dy="0.32em">array (hierarchical)    </text></g><g class="tick" opacity="1" transform="translate(0,485.18518518518516)" style="font-size: 13px;"><line stroke="currentColor" x2="0"></line><text fill="currentColor" x="-3" dy="0.32em">array (recursive)    </text></g><g class="tick" opacity="1" transform="translate(0,559.2592592592592)" style="font-size: 13px;"><line stroke="currentColor" x2="0"></line><text fill="currentColor" x="-3" dy="0.32em">array (union, explicit)    </text></g></g><g class="x axis" transform="translate(149,645)" fill="none" font-size="10" font-family="sans-serif" text-anchor="middle" style="font-size: 13px;"><path class="domain" stroke="currentColor" d="M0.5,0.5H485.5"></path><g class="tick" opacity="1" transform="translate(0.5,0)" style="font-size: 13px;"><line stroke="currentColor" y2="6"></line><text fill="currentColor" y="9" dy="0.71em">0x</text></g><g class="tick" opacity="1" transform="translate(73.63936587246802,0)" style="font-size: 13px;"><line stroke="currentColor" y2="6"></line><text fill="currentColor" y="9" dy="0.71em">2x</text></g><g class="tick" opacity="1" transform="translate(146.77873174493604,0)" style="font-size: 13px;"><line stroke="currentColor" y2="6"></line><text fill="currentColor" y="9" dy="0.71em">4x</text></g><g class="tick" opacity="1" transform="translate(219.91809761740404,0)" style="font-size: 13px;"><line stroke="currentColor" y2="6"></line><text fill="currentColor" y="9" dy="0.71em">6x</text></g><g class="tick" opacity="1" transform="translate(293.0574634898721,0)" style="font-size: 13px;"><line stroke="currentColor" y2="6"></line><text fill="currentColor" y="9" dy="0.71em">8x</text></g><g class="tick" opacity="1" transform="translate(366.19682936234005,0)" style="font-size: 13px;"><line stroke="currentColor" y2="6"></line><text fill="currentColor" y="9" dy="0.71em">10x</text></g><g class="tick" opacity="1" transform="translate(439.3361952348081,0)" style="font-size: 13px;"><line stroke="currentColor" y2="6"></line><text fill="currentColor" y="9" dy="0.71em">12x</text></g></g><text transform="translate(400, 30)" style="text-anchor: middle; font-size: 20px; font-weight: bold;">performance benchmark</text><rect x="650" y="145" width="230" height="5" fill="gray"></rect><rect x="645" y="35" width="230" height="110" fill="none" stroke="black"></rect><rect x="655" y="45" width="10" height="10" style="fill: #4472c4;"></rect><text x="670" y="55" style="font-size: 12px;">nestia-express</text><rect x="655" y="65" width="10" height="10" style="fill: #ed7d31;"></rect><text x="670" y="75" style="font-size: 12px;">nestia-fastify</text><rect x="655" y="85" width="10" height="10" style="fill: #a5a5a5;"></rect><text x="670" y="95" style="font-size: 12px;">fastify</text><rect x="655" y="105" width="10" height="10" style="fill: #ffc000;"></rect><text x="670" y="115" style="font-size: 12px;">NestJS-express</text><rect x="655" y="125" width="10" height="10" style="fill: #5b9bd5;"></rect><text x="670" y="135" style="font-size: 12px;">NestJS-fastify</text><text x="20" y="709" style="font-size: 12px;">  - CPU: Intel(R) Core(TM) i5-8250U CPU @ 1.60GHz</text><text x="20" y="726" style="font-size: 12px;">  - OS: win32</text><text x="20" y="743" style="font-size: 12px;">  - RAM: 8 GB</text><text x="20" y="760" style="font-size: 12px;">  - NodeJS version: v16.20.1</text><text x="20" y="777" style="font-size: 12px;">  - Nestia version: v1.6.1</text><g style="font-size: 13px;"><g style="font-size: 13px;"><rect x="150" y="53.06747341400805" width="234.92540589269228" height="12.541254125412543" fill="#4472c4"></rect><rect x="150" y="66.26879354602124" width="364.9695099983337" height="12.541254125412543" fill="#ed7d31"></rect><rect x="150" y="79.47011367803445" width="342.0962157354408" height="12.541254125412543" fill="#a5a5a5"></rect><rect x="150" y="92.67143381004766" width="36.56968293623401" height="12.541254125412543" fill="#ffc000"></rect><rect x="150" y="105.87275394206085" width="39.14977366722308" height="12.541254125412543" fill="#5b9bd5"></rect><text class="label" x="393.4254058926923" y="61.56747341400805" font-size="10px">6.42x</text><text class="label" x="523.4695099983337" y="74.76879354602124" font-size="10px">9.98x</text><text class="label" x="500.5962157354408" y="87.97011367803445" font-size="10px">9.35x</text><text class="label" x="195.06968293623402" y="101.17143381004766" font-size="10px">1x</text><text class="label" x="197.6497736672231" y="114.37275394206085" font-size="10px">1.07x</text><text class="label" x="389.9254058926923" y="63.06747341400805" font-size="8px"></text><text class="label" x="519.9695099983337" y="76.26879354602124" font-size="8px"></text><text class="label" x="497.0962157354408" y="89.47011367803445" font-size="8px"></text><text class="label" x="191.56968293623402" y="102.67143381004766" font-size="8px"></text><text class="label" x="194.1497736672231" y="115.87275394206085" font-size="8px"></text></g><g style="font-size: 13px;"><rect x="150" y="127.14154748808213" width="263.191471575586" height="12.541254125412543" fill="#4472c4"></rect><rect x="150" y="140.34286762009532" width="325.5240001751992" height="12.541254125412543" fill="#ed7d31"></rect><rect x="150" y="153.54418775210854" width="283.5124458747368" height="12.541254125412543" fill="#a5a5a5"></rect><rect x="150" y="166.74550788412174" width="36.56968293623401" height="12.541254125412543" fill="#ffc000"></rect><rect x="150" y="179.94682801613493" width="37.57235064292332" height="12.541254125412543" fill="#5b9bd5"></rect><text class="label" x="421.691471575586" y="135.64154748808213" font-size="10px">7.2x</text><text class="label" x="484.0240001751992" y="148.84286762009532" font-size="10px">8.9x</text><text class="label" x="442.0124458747368" y="162.04418775210854" font-size="10px">7.75x</text><text class="label" x="195.06968293623402" y="175.24550788412174" font-size="10px">1x</text><text class="label" x="196.0723506429233" y="188.44682801613493" font-size="10px">1.03x</text><text class="label" x="418.191471575586" y="137.14154748808213" font-size="8px"></text><text class="label" x="480.5240001751992" y="150.34286762009532" font-size="8px"></text><text class="label" x="438.5124458747368" y="163.54418775210854" font-size="8px"></text><text class="label" x="191.56968293623402" y="176.74550788412174" font-size="8px"></text><text class="label" x="192.5723506429233" y="189.94682801613493" font-size="8px"></text></g><g style="font-size: 13px;"><rect x="150" y="201.2156215621562" width="305.2596888310745" height="12.541254125412543" fill="#4472c4"></rect><rect x="150" y="214.4169416941694" width="346.3843943286505" height="12.541254125412543" fill="#ed7d31"></rect><rect x="150" y="227.61826182618262" width="242.211374008233" height="12.541254125412543" fill="#a5a5a5"></rect><rect x="150" y="240.8195819581958" width="36.56968293623401" height="12.541254125412543" fill="#ffc000"></rect><rect x="150" y="254.020902090209" width="37.48922873388053" height="12.541254125412543" fill="#5b9bd5"></rect><text class="label" x="463.7596888310745" y="209.7156215621562" font-size="10px">8.35x</text><text class="label" x="504.8843943286505" y="222.9169416941694" font-size="10px">9.47x</text><text class="label" x="400.711374008233" y="236.11826182618262" font-size="10px">6.62x</text><text class="label" x="195.06968293623402" y="249.3195819581958" font-size="10px">1x</text><text class="label" x="195.98922873388054" y="262.520902090209" font-size="10px">1.03x</text><text class="label" x="460.2596888310745" y="211.2156215621562" font-size="8px"></text><text class="label" x="501.3843943286505" y="224.4169416941694" font-size="8px"></text><text class="label" x="397.211374008233" y="237.61826182618262" font-size="8px"></text><text class="label" x="191.56968293623402" y="250.8195819581958" font-size="8px"></text><text class="label" x="192.48922873388054" y="264.020902090209" font-size="8px"></text></g><g style="font-size: 13px;"><rect x="150" y="275.28969563623025" width="367.26416817101085" height="12.541254125412543" fill="#4472c4"></rect><rect x="150" y="288.49101576824347" width="440.9090909090908" height="12.541254125412543" fill="#ed7d31"></rect><rect x="150" y="301.6923359002567" width="271.36756923742695" height="12.541254125412543" fill="#a5a5a5"></rect><rect x="150" y="314.89365603226986" width="36.56968293623401" height="12.541254125412543" fill="#ffc000"></rect><rect x="150" y="328.0949761642831" width="38.72232990715346" height="12.541254125412543" fill="#5b9bd5"></rect><text class="label" x="525.7641681710109" y="283.78969563623025" font-size="10px">10.04x</text><text class="label" x="599.4090909090908" y="296.99101576824347" font-size="10px">12.06x</text><text class="label" x="429.86756923742695" y="310.1923359002567" font-size="10px">7.42x</text><text class="label" x="195.06968293623402" y="323.39365603226986" font-size="10px">1x</text><text class="label" x="197.22232990715347" y="336.5949761642831" font-size="10px">1.06x</text><text class="label" x="522.2641681710109" y="285.28969563623025" font-size="8px"></text><text class="label" x="595.9090909090908" y="298.49101576824347" font-size="8px"></text><text class="label" x="426.36756923742695" y="311.6923359002567" font-size="8px"></text><text class="label" x="191.56968293623402" y="324.89365603226986" font-size="8px"></text><text class="label" x="193.72232990715347" y="338.0949761642831" font-size="8px"></text></g><g style="font-size: 13px;"><rect x="150" y="349.3637697103044" width="215.868087313081" height="12.541254125412543" fill="#4472c4"></rect><rect x="150" y="362.56508984231755" width="257.1160041784416" height="12.541254125412543" fill="#ed7d31"></rect><rect x="150" y="375.76640997433077" width="247.32788498038207" height="12.541254125412543" fill="#a5a5a5"></rect><rect x="150" y="388.967730106344" width="36.56968293623401" height="12.541254125412543" fill="#ffc000"></rect><rect x="150" y="402.16905023835716" width="37.12370856325652" height="12.541254125412543" fill="#5b9bd5"></rect><text class="label" x="374.368087313081" y="357.8637697103044" font-size="10px">5.9x</text><text class="label" x="415.6160041784416" y="371.06508984231755" font-size="10px">7.03x</text><text class="label" x="405.82788498038207" y="384.26640997433077" font-size="10px">6.76x</text><text class="label" x="195.06968293623402" y="397.467730106344" font-size="10px">1x</text><text class="label" x="195.6237085632565" y="410.66905023835716" font-size="10px">1.02x</text><text class="label" x="370.868087313081" y="359.3637697103044" font-size="8px"></text><text class="label" x="412.1160041784416" y="372.56508984231755" font-size="8px"></text><text class="label" x="402.32788498038207" y="385.76640997433077" font-size="8px"></text><text class="label" x="191.56968293623402" y="398.967730106344" font-size="8px"></text><text class="label" x="192.1237085632565" y="412.16905023835716" font-size="8px"></text></g><g style="font-size: 13px;"><rect x="150" y="423.4378437843784" width="275.76063399175945" height="12.541254125412543" fill="#4472c4"></rect><rect x="150" y="436.6391639163916" width="319.72934428208384" height="12.541254125412543" fill="#ed7d31"></rect><rect x="150" y="449.84048404840485" width="211.7485597226876" height="12.541254125412543" fill="#a5a5a5"></rect><rect x="150" y="463.041804180418" width="36.56968293623401" height="12.541254125412543" fill="#ffc000"></rect><rect x="150" y="476.24312431243123" width="37.7731200296883" height="12.541254125412543" fill="#5b9bd5"></rect><text class="label" x="434.26063399175945" y="431.9378437843784" font-size="10px">7.54x</text><text class="label" x="478.22934428208384" y="445.1391639163916" font-size="10px">8.74x</text><text class="label" x="370.24855972268756" y="458.34048404840485" font-size="10px">5.79x</text><text class="label" x="195.06968293623402" y="471.541804180418" font-size="10px">1x</text><text class="label" x="196.2731200296883" y="484.74312431243123" font-size="10px">1.03x</text><text class="label" x="430.76063399175945" y="433.4378437843784" font-size="8px"></text><text class="label" x="474.72934428208384" y="446.6391639163916" font-size="8px"></text><text class="label" x="366.74855972268756" y="459.84048404840485" font-size="8px"></text><text class="label" x="191.56968293623402" y="473.041804180418" font-size="8px"></text><text class="label" x="192.7731200296883" y="486.24312431243123" font-size="8px"></text></g><g style="font-size: 13px;"><rect x="150" y="497.51191785845253" width="322.36641828297314" height="12.541254125412543" fill="#4472c4"></rect><rect x="150" y="510.7132379904657" width="332.06797573771894" height="12.541254125412543" fill="#ed7d31"></rect><rect x="150" y="523.9145581224789" width="299.9525783672815" height="12.541254125412543" fill="#a5a5a5"></rect><rect x="150" y="537.1158782544921" width="36.56968293623401" height="12.541254125412543" fill="#ffc000"></rect><rect x="150" y="550.3171983865053" width="36.59266322467115" height="12.541254125412543" fill="#5b9bd5"></rect><text class="label" x="480.86641828297314" y="506.01191785845253" font-size="10px">8.82x</text><text class="label" x="490.56797573771894" y="519.2132379904657" font-size="10px">9.08x</text><text class="label" x="458.4525783672815" y="532.4145581224789" font-size="10px">8.2x</text><text class="label" x="195.06968293623402" y="545.6158782544921" font-size="10px">1x</text><text class="label" x="195.09266322467116" y="558.8171983865053" font-size="10px">1x</text><text class="label" x="477.36641828297314" y="507.51191785845253" font-size="8px"></text><text class="label" x="487.06797573771894" y="520.7132379904657" font-size="8px"></text><text class="label" x="454.9525783672815" y="533.9145581224789" font-size="8px"></text><text class="label" x="191.56968293623402" y="547.1158782544921" font-size="8px"></text><text class="label" x="191.59266322467116" y="560.3171983865053" font-size="8px"></text></g><g style="font-size: 13px;"><rect x="150" y="571.5859919325266" width="337.8301006766151" height="12.541254125412543" fill="#4472c4"></rect><rect x="150" y="584.7873120645397" width="344.61474783086834" height="12.541254125412543" fill="#ed7d31"></rect><rect x="150" y="597.9886321965529" width="117.95565429617773" height="12.541254125412543" fill="#a5a5a5"></rect><rect x="150" y="611.1899523285662" width="47.65617150891308" height="12.541254125412543" fill="#ffc000"></rect><rect x="150" y="624.3912724605793" width="36.56968293623401" height="12.541254125412543" fill="#5b9bd5"></rect><text class="label" x="496.3301006766151" y="580.0859919325266" font-size="10px">9.24x</text><text class="label" x="503.11474783086834" y="593.2873120645397" font-size="10px">9.42x</text><text class="label" x="276.4556542961777" y="606.4886321965529" font-size="10px">3.23x</text><text class="label" x="206.15617150891308" y="619.6899523285662" font-size="10px">1.3x</text><text class="label" x="195.06968293623402" y="632.8912724605793" font-size="10px">1x</text><text class="label" x="492.8301006766151" y="581.5859919325266" font-size="8px"></text><text class="label" x="499.61474783086834" y="594.7873120645397" font-size="8px"></text><text class="label" x="272.9556542961777" y="607.9886321965529" font-size="8px"></text><text class="label" x="202.65617150891308" y="621.1899523285662" font-size="8px"></text><text class="label" x="191.56968293623402" y="634.3912724605793" font-size="8px"></text></g></g></svg>