<svg xmlns="http://www.w3.org/2000/svg" xmlns:xlink="http://www.w3.org/1999/xlink" width="800" height="794" style="background-color: white;"><g class="y axis" transform="translate(149,45)" fill="none" font-size="10" font-family="sans-serif" text-anchor="end" style="font-size: 13px;"><path class="domain" stroke="currentColor" d="M0.5,0.5V600.5"></path><g class="tick" opacity="1" transform="translate(0,40.740740740740726)" style="font-size: 13px;"><line stroke="currentColor" x2="0"></line><text fill="currentColor" x="-3" dy="0.32em">object (simple)    </text></g><g class="tick" opacity="1" transform="translate(0,114.81481481481481)" style="font-size: 13px;"><line stroke="currentColor" x2="0"></line><text fill="currentColor" x="-3" dy="0.32em">object (hierarchical)    </text></g><g class="tick" opacity="1" transform="translate(0,188.88888888888889)" style="font-size: 13px;"><line stroke="currentColor" x2="0"></line><text fill="currentColor" x="-3" dy="0.32em">object (recursive)    </text></g><g class="tick" opacity="1" transform="translate(0,262.96296296296293)" style="font-size: 13px;"><line stroke="currentColor" x2="0"></line><text fill="currentColor" x="-3" dy="0.32em">object (union, explicit)    </text></g><g class="tick" opacity="1" transform="translate(0,337.037037037037)" style="font-size: 13px;"><line stroke="currentColor" x2="0"></line><text fill="currentColor" x="-3" dy="0.32em">array (simple)    </text></g><g class="tick" opacity="1" transform="translate(0,411.1111111111111)" style="font-size: 13px;"><line stroke="currentColor" x2="0"></line><text fill="currentColor" x="-3" dy="0.32em">array (hierarchical)    </text></g><g class="tick" opacity="1" transform="translate(0,485.18518518518516)" style="font-size: 13px;"><line stroke="currentColor" x2="0"></line><text fill="currentColor" x="-3" dy="0.32em">array (recursive)    </text></g><g class="tick" opacity="1" transform="translate(0,559.2592592592592)" style="font-size: 13px;"><line stroke="currentColor" x2="0"></line><text fill="currentColor" x="-3" dy="0.32em">array (union, explicit)    </text></g></g><g class="x axis" transform="translate(149,645)" fill="none" font-size="10" font-family="sans-serif" text-anchor="middle" style="font-size: 13px;"><path class="domain" stroke="currentColor" d="M0.5,0.5H485.5"></path><g class="tick" opacity="1" transform="translate(0.5,0)" style="font-size: 13px;"><line stroke="currentColor" y2="6"></line><text fill="currentColor" y="9" dy="0.71em">0x</text></g><g class="tick" opacity="1" transform="translate(62.17685188075554,0)" style="font-size: 13px;"><line stroke="currentColor" y2="6"></line><text fill="currentColor" y="9" dy="0.71em">2x</text></g><g class="tick" opacity="1" transform="translate(123.85370376151108,0)" style="font-size: 13px;"><line stroke="currentColor" y2="6"></line><text fill="currentColor" y="9" dy="0.71em">4x</text></g><g class="tick" opacity="1" transform="translate(185.53055564226665,0)" style="font-size: 13px;"><line stroke="currentColor" y2="6"></line><text fill="currentColor" y="9" dy="0.71em">6x</text></g><g class="tick" opacity="1" transform="translate(247.20740752302217,0)" style="font-size: 13px;"><line stroke="currentColor" y2="6"></line><text fill="currentColor" y="9" dy="0.71em">8x</text></g><g class="tick" opacity="1" transform="translate(308.8842594037777,0)" style="font-size: 13px;"><line stroke="currentColor" y2="6"></line><text fill="currentColor" y="9" dy="0.71em">10x</text></g><g class="tick" opacity="1" transform="translate(370.5611112845333,0)" style="font-size: 13px;"><line stroke="currentColor" y2="6"></line><text fill="currentColor" y="9" dy="0.71em">12x</text></g><g class="tick" opacity="1" transform="translate(432.2379631652888,0)" style="font-size: 13px;"><line stroke="currentColor" y2="6"></line><text fill="currentColor" y="9" dy="0.71em">14x</text></g></g><text transform="translate(400, 30)" style="text-anchor: middle; font-size: 20px; font-weight: bold;">stringify benchmark</text><rect x="650" y="145" width="230" height="5" fill="gray"></rect><rect x="645" y="35" width="230" height="110" fill="none" stroke="black"></rect><rect x="655" y="45" width="10" height="10" style="fill: #4472c4;"></rect><text x="670" y="55" style="font-size: 12px;">nestia-express</text><rect x="655" y="65" width="10" height="10" style="fill: #ed7d31;"></rect><text x="670" y="75" style="font-size: 12px;">nestia-fastify</text><rect x="655" y="85" width="10" height="10" style="fill: #a5a5a5;"></rect><text x="670" y="95" style="font-size: 12px;">fastify</text><rect x="655" y="105" width="10" height="10" style="fill: #ffc000;"></rect><text x="670" y="115" style="font-size: 12px;">NestJS-express</text><rect x="655" y="125" width="10" height="10" style="fill: #5b9bd5;"></rect><text x="670" y="135" style="font-size: 12px;">NestJS-fastify</text><text x="20" y="709" style="font-size: 12px;">  - CPU: Intel(R) Core(TM) i5-8250U CPU @ 1.60GHz</text><text x="20" y="726" style="font-size: 12px;">  - OS: win32</text><text x="20" y="743" style="font-size: 12px;">  - RAM: 8 GB</text><text x="20" y="760" style="font-size: 12px;">  - NodeJS version: v16.20.1</text><text x="20" y="777" style="font-size: 12px;">  - Nestia version: v1.6.1</text><g style="font-size: 13px;"><g style="font-size: 13px;"><rect x="150" y="53.06747341400805" width="179.69108245131682" height="12.541254125412543" fill="#4472c4"></rect><rect x="150" y="66.26879354602124" width="355.2758566131028" height="12.541254125412543" fill="#ed7d31"></rect><rect x="150" y="79.47011367803445" width="317.7088430454446" height="12.541254125412543" fill="#a5a5a5"></rect><rect x="150" y="92.67143381004766" width="30.83842594037777" height="12.541254125412543" fill="#ffc000"></rect><rect x="150" y="105.87275394206085" width="33.87211081328421" height="12.541254125412543" fill="#5b9bd5"></rect><text class="label" x="338.1910824513168" y="61.56747341400805" font-size="10px">5.83x</text><text class="label" x="513.7758566131029" y="74.76879354602124" font-size="10px">11.52x</text><text class="label" x="476.2088430454446" y="87.97011367803445" font-size="10px">10.3x</text><text class="label" x="189.33842594037776" y="101.17143381004766" font-size="10px">1x</text><text class="label" x="192.37211081328422" y="114.37275394206085" font-size="10px">1.1x</text><text class="label" x="334.6910824513168" y="63.06747341400805" font-size="8px"></text><text class="label" x="510.2758566131028" y="76.26879354602124" font-size="8px"></text><text class="label" x="472.7088430454446" y="89.47011367803445" font-size="8px"></text><text class="label" x="185.83842594037776" y="102.67143381004766" font-size="8px"></text><text class="label" x="188.87211081328422" y="115.87275394206085" font-size="8px"></text></g><g style="font-size: 13px;"><rect x="150" y="127.14154748808213" width="223.5116965009947" height="12.541254125412543" fill="#4472c4"></rect><rect x="150" y="140.34286762009532" width="302.2484239935096" height="12.541254125412543" fill="#ed7d31"></rect><rect x="150" y="153.54418775210854" width="229.41283766024642" height="12.541254125412543" fill="#a5a5a5"></rect><rect x="150" y="166.74550788412174" width="30.83842594037777" height="12.541254125412543" fill="#ffc000"></rect><rect x="150" y="179.94682801613493" width="32.53396428718863" height="12.541254125412543" fill="#5b9bd5"></rect><text class="label" x="382.01169650099473" y="135.64154748808213" font-size="10px">7.25x</text><text class="label" x="460.7484239935096" y="148.84286762009532" font-size="10px">9.8x</text><text class="label" x="387.9128376602464" y="162.04418775210854" font-size="10px">7.44x</text><text class="label" x="189.33842594037776" y="175.24550788412174" font-size="10px">1x</text><text class="label" x="191.03396428718864" y="188.44682801613493" font-size="10px">1.05x</text><text class="label" x="378.51169650099473" y="137.14154748808213" font-size="8px"></text><text class="label" x="457.2484239935096" y="150.34286762009532" font-size="8px"></text><text class="label" x="384.4128376602464" y="163.54418775210854" font-size="8px"></text><text class="label" x="185.83842594037776" y="176.74550788412174" font-size="8px"></text><text class="label" x="187.53396428718864" y="189.94682801613493" font-size="8px"></text></g><g style="font-size: 13px;"><rect x="150" y="201.2156215621562" width="233.6717945774037" height="12.541254125412543" fill="#4472c4"></rect><rect x="150" y="214.4169416941694" width="320.71666827913924" height="12.541254125412543" fill="#ed7d31"></rect><rect x="150" y="227.61826182618262" width="165.45890513693425" height="12.541254125412543" fill="#a5a5a5"></rect><rect x="150" y="240.8195819581958" width="30.83842594037777" height="12.541254125412543" fill="#ffc000"></rect><rect x="150" y="254.020902090209" width="32.107483941252475" height="12.541254125412543" fill="#5b9bd5"></rect><text class="label" x="392.1717945774037" y="209.7156215621562" font-size="10px">7.58x</text><text class="label" x="479.21666827913924" y="222.9169416941694" font-size="10px">10.4x</text><text class="label" x="323.9589051369343" y="236.11826182618262" font-size="10px">5.37x</text><text class="label" x="189.33842594037776" y="249.3195819581958" font-size="10px">1x</text><text class="label" x="190.60748394125247" y="262.520902090209" font-size="10px">1.04x</text><text class="label" x="388.6717945774037" y="211.2156215621562" font-size="8px"></text><text class="label" x="475.71666827913924" y="224.4169416941694" font-size="8px"></text><text class="label" x="320.4589051369343" y="237.61826182618262" font-size="8px"></text><text class="label" x="185.83842594037776" y="250.8195819581958" font-size="8px"></text><text class="label" x="187.10748394125247" y="264.020902090209" font-size="8px"></text></g><g style="font-size: 13px;"><rect x="150" y="275.28969563623025" width="377.10653628423626" height="12.541254125412543" fill="#4472c4"></rect><rect x="150" y="288.49101576824347" width="440.9090909090908" height="12.541254125412543" fill="#ed7d31"></rect><rect x="150" y="301.6923359002567" width="273.1640491472567" height="12.541254125412543" fill="#a5a5a5"></rect><rect x="150" y="314.89365603226986" width="30.83842594037777" height="12.541254125412543" fill="#ffc000"></rect><rect x="150" y="328.0949761642831" width="33.02548707711942" height="12.541254125412543" fill="#5b9bd5"></rect><text class="label" x="535.6065362842362" y="283.78969563623025" font-size="10px">12.23x</text><text class="label" x="599.4090909090908" y="296.99101576824347" font-size="10px">14.3x</text><text class="label" x="431.6640491472567" y="310.1923359002567" font-size="10px">8.86x</text><text class="label" x="189.33842594037776" y="323.39365603226986" font-size="10px">1x</text><text class="label" x="191.5254870771194" y="336.5949761642831" font-size="10px">1.07x</text><text class="label" x="532.1065362842362" y="285.28969563623025" font-size="8px"></text><text class="label" x="595.9090909090908" y="298.49101576824347" font-size="8px"></text><text class="label" x="428.1640491472567" y="311.6923359002567" font-size="8px"></text><text class="label" x="185.83842594037776" y="324.89365603226986" font-size="8px"></text><text class="label" x="188.0254870771194" y="338.0949761642831" font-size="8px"></text></g><g style="font-size: 13px;"><rect x="150" y="349.3637697103044" width="208.6452754342251" height="12.541254125412543" fill="#4472c4"></rect><rect x="150" y="362.56508984231755" width="232.72003656934316" height="12.541254125412543" fill="#ed7d31"></rect><rect x="150" y="375.76640997433077" width="202.29709711098027" height="12.541254125412543" fill="#a5a5a5"></rect><rect x="150" y="388.967730106344" width="30.83842594037777" height="12.541254125412543" fill="#ffc000"></rect><rect x="150" y="402.16905023835716" width="32.99027280765574" height="12.541254125412543" fill="#5b9bd5"></rect><text class="label" x="367.14527543422514" y="357.8637697103044" font-size="10px">6.77x</text><text class="label" x="391.22003656934316" y="371.06508984231755" font-size="10px">7.55x</text><text class="label" x="360.7970971109803" y="384.26640997433077" font-size="10px">6.56x</text><text class="label" x="189.33842594037776" y="397.467730106344" font-size="10px">1x</text><text class="label" x="191.49027280765574" y="410.66905023835716" font-size="10px">1.07x</text><text class="label" x="363.64527543422514" y="359.3637697103044" font-size="8px"></text><text class="label" x="387.72003656934316" y="372.56508984231755" font-size="8px"></text><text class="label" x="357.2970971109803" y="385.76640997433077" font-size="8px"></text><text class="label" x="185.83842594037776" y="398.967730106344" font-size="8px"></text><text class="label" x="187.99027280765574" y="412.16905023835716" font-size="8px"></text></g><g style="font-size: 13px;"><rect x="150" y="423.4378437843784" width="371.7260018358681" height="12.541254125412543" fill="#4472c4"></rect><rect x="150" y="436.6391639163916" width="371.89164011824073" height="12.541254125412543" fill="#ed7d31"></rect><rect x="150" y="449.84048404840485" width="168.0056275165674" height="12.541254125412543" fill="#a5a5a5"></rect><rect x="150" y="463.041804180418" width="31.387263636854485" height="12.541254125412543" fill="#ffc000"></rect><rect x="150" y="476.24312431243123" width="30.83842594037777" height="12.541254125412543" fill="#5b9bd5"></rect><text class="label" x="530.2260018358681" y="431.9378437843784" font-size="10px">12.05x</text><text class="label" x="530.3916401182407" y="445.1391639163916" font-size="10px">12.06x</text><text class="label" x="326.5056275165674" y="458.34048404840485" font-size="10px">5.45x</text><text class="label" x="189.88726363685447" y="471.541804180418" font-size="10px">1.02x</text><text class="label" x="189.33842594037776" y="484.74312431243123" font-size="10px">1x</text><text class="label" x="526.7260018358681" y="433.4378437843784" font-size="8px"></text><text class="label" x="526.8916401182407" y="446.6391639163916" font-size="8px"></text><text class="label" x="323.0056275165674" y="459.84048404840485" font-size="8px"></text><text class="label" x="186.38726363685447" y="473.041804180418" font-size="8px"></text><text class="label" x="185.83842594037776" y="486.24312431243123" font-size="8px"></text></g><g style="font-size: 13px;"><rect x="150" y="497.51191785845253" width="261.4205445776488" height="12.541254125412543" fill="#4472c4"></rect><rect x="150" y="510.7132379904657" width="298.72833329299004" height="12.541254125412543" fill="#ed7d31"></rect><rect x="150" y="523.9145581224789" width="188.0615780839948" height="12.541254125412543" fill="#a5a5a5"></rect><rect x="150" y="537.1158782544921" width="30.83842594037777" height="12.541254125412543" fill="#ffc000"></rect><rect x="150" y="550.3171983865053" width="31.180190277236655" height="12.541254125412543" fill="#5b9bd5"></rect><text class="label" x="419.9205445776488" y="506.01191785845253" font-size="10px">8.48x</text><text class="label" x="457.22833329299004" y="519.2132379904657" font-size="10px">9.69x</text><text class="label" x="346.5615780839948" y="532.4145581224789" font-size="10px">6.1x</text><text class="label" x="189.33842594037776" y="545.6158782544921" font-size="10px">1x</text><text class="label" x="189.68019027723665" y="558.8171983865053" font-size="10px">1.01x</text><text class="label" x="416.4205445776488" y="507.51191785845253" font-size="8px"></text><text class="label" x="453.72833329299004" y="520.7132379904657" font-size="8px"></text><text class="label" x="343.0615780839948" y="533.9145581224789" font-size="8px"></text><text class="label" x="185.83842594037776" y="547.1158782544921" font-size="8px"></text><text class="label" x="186.18019027723665" y="560.3171983865053" font-size="8px"></text></g><g style="font-size: 13px;"><rect x="150" y="571.5859919325266" width="220.9920760946941" height="12.541254125412543" fill="#4472c4"></rect><rect x="150" y="584.7873120645397" width="245.36824027233317" height="12.541254125412543" fill="#ed7d31"></rect><rect x="150" y="597.9886321965529" width="60.79700450014913" height="12.541254125412543" fill="#a5a5a5"></rect><rect x="150" y="611.1899523285662" width="31.126204022874912" height="12.541254125412543" fill="#ffc000"></rect><rect x="150" y="624.3912724605793" width="30.83842594037777" height="12.541254125412543" fill="#5b9bd5"></rect><text class="label" x="379.4920760946941" y="580.0859919325266" font-size="10px">7.17x</text><text class="label" x="403.8682402723332" y="593.2873120645397" font-size="10px">7.96x</text><text class="label" x="219.29700450014911" y="606.4886321965529" font-size="10px">1.97x</text><text class="label" x="189.6262040228749" y="619.6899523285662" font-size="10px">1.01x</text><text class="label" x="189.33842594037776" y="632.8912724605793" font-size="10px">1x</text><text class="label" x="375.9920760946941" y="581.5859919325266" font-size="8px"></text><text class="label" x="400.3682402723332" y="594.7873120645397" font-size="8px"></text><text class="label" x="215.79700450014911" y="607.9886321965529" font-size="8px"></text><text class="label" x="186.1262040228749" y="621.1899523285662" font-size="8px"></text><text class="label" x="185.83842594037776" y="634.3912724605793" font-size="8px"></text></g></g></svg>