<svg xmlns="http://www.w3.org/2000/svg" xmlns:xlink="http://www.w3.org/1999/xlink" width="800" height="794" style="background-color: white;"><g class="y axis" transform="translate(149,45)" fill="none" font-size="10" font-family="sans-serif" text-anchor="end" style="font-size: 13px;"><path class="domain" stroke="currentColor" d="M0.5,0.5V600.5"></path><g class="tick" opacity="1" transform="translate(0,40.740740740740726)" style="font-size: 13px;"><line stroke="currentColor" x2="0"></line><text fill="currentColor" x="-3" dy="0.32em">object (simple)    </text></g><g class="tick" opacity="1" transform="translate(0,114.81481481481481)" style="font-size: 13px;"><line stroke="currentColor" x2="0"></line><text fill="currentColor" x="-3" dy="0.32em">object (hierarchical)    </text></g><g class="tick" opacity="1" transform="translate(0,188.88888888888889)" style="font-size: 13px;"><line stroke="currentColor" x2="0"></line><text fill="currentColor" x="-3" dy="0.32em">object (recursive)    </text></g><g class="tick" opacity="1" transform="translate(0,262.96296296296293)" style="font-size: 13px;"><line stroke="currentColor" x2="0"></line><text fill="currentColor" x="-3" dy="0.32em">object (union, explicit)    </text></g><g class="tick" opacity="1" transform="translate(0,337.037037037037)" style="font-size: 13px;"><line stroke="currentColor" x2="0"></line><text fill="currentColor" x="-3" dy="0.32em">array (simple)    </text></g><g class="tick" opacity="1" transform="translate(0,411.1111111111111)" style="font-size: 13px;"><line stroke="currentColor" x2="0"></line><text fill="currentColor" x="-3" dy="0.32em">array (hierarchical)    </text></g><g class="tick" opacity="1" transform="translate(0,485.18518518518516)" style="font-size: 13px;"><line stroke="currentColor" x2="0"></line><text fill="currentColor" x="-3" dy="0.32em">array (recursive)    </text></g><g class="tick" opacity="1" transform="translate(0,559.2592592592592)" style="font-size: 13px;"><line stroke="currentColor" x2="0"></line><text fill="currentColor" x="-3" dy="0.32em">array (union, explicit)    </text></g></g><g class="x axis" transform="translate(149,645)" fill="none" font-size="10" font-family="sans-serif" text-anchor="middle" style="font-size: 13px;"><path class="domain" stroke="currentColor" d="M0.5,0.5H485.5"></path><g class="tick" opacity="1" transform="translate(0.5,0)" style="font-size: 13px;"><line stroke="currentColor" y2="6"></line><text fill="currentColor" y="9" dy="0.71em">0x</text></g><g class="tick" opacity="1" transform="translate(97.83515459682565,0)" style="font-size: 13px;"><line stroke="currentColor" y2="6"></line><text fill="currentColor" y="9" dy="0.71em">5x</text></g><g class="tick" opacity="1" transform="translate(195.1703091936513,0)" style="font-size: 13px;"><line stroke="currentColor" y2="6"></line><text fill="currentColor" y="9" dy="0.71em">10x</text></g><g class="tick" opacity="1" transform="translate(292.50546379047694,0)" style="font-size: 13px;"><line stroke="currentColor" y2="6"></line><text fill="currentColor" y="9" dy="0.71em">15x</text></g><g class="tick" opacity="1" transform="translate(389.8406183873026,0)" style="font-size: 13px;"><line stroke="currentColor" y2="6"></line><text fill="currentColor" y="9" dy="0.71em">20x</text></g></g><text transform="translate(400, 30)" style="text-anchor: middle; font-size: 20px; font-weight: bold;">assert benchmark</text><rect x="650" y="145" width="230" height="5" fill="gray"></rect><rect x="645" y="35" width="230" height="110" fill="none" stroke="black"></rect><rect x="655" y="45" width="10" height="10" style="fill: #4472c4;"></rect><text x="670" y="55" style="font-size: 12px;">nestia-express</text><rect x="655" y="65" width="10" height="10" style="fill: #ed7d31;"></rect><text x="670" y="75" style="font-size: 12px;">nestia-fastify</text><rect x="655" y="85" width="10" height="10" style="fill: #a5a5a5;"></rect><text x="670" y="95" style="font-size: 12px;">fastify</text><rect x="655" y="105" width="10" height="10" style="fill: #ffc000;"></rect><text x="670" y="115" style="font-size: 12px;">NestJS-express</text><rect x="655" y="125" width="10" height="10" style="fill: #5b9bd5;"></rect><text x="670" y="135" style="font-size: 12px;">NestJS-fastify</text><text x="20" y="709" style="font-size: 12px;">  - CPU: Intel(R) Xeon(R) Platinum 8370C CPU @ 2.80GHz</text><text x="20" y="726" style="font-size: 12px;">  - OS: linux</text><text x="20" y="743" style="font-size: 12px;">  - RAM: 16 GB</text><text x="20" y="760" style="font-size: 12px;">  - NodeJS version: v19.9.0</text><text x="20" y="777" style="font-size: 12px;">  - Nestia version: v1.4.0</text><g style="font-size: 13px;"><g style="font-size: 13px;"><rect x="150" y="53.06747341400805" width="209.42150257948254" height="12.541254125412543" fill="#4472c4"></rect><rect x="150" y="66.26879354602124" width="289.68337280328416" height="12.541254125412543" fill="#ed7d31"></rect><rect x="150" y="79.47011367803445" width="289.28405625794403" height="12.541254125412543" fill="#a5a5a5"></rect><rect x="150" y="92.67143381004766" width="19.46703091936513" height="12.541254125412543" fill="#ffc000"></rect><rect x="150" y="105.87275394206085" width="19.69220125206465" height="12.541254125412543" fill="#5b9bd5"></rect><text class="label" x="367.92150257948254" y="61.56747341400805" font-size="10px">10.76x</text><text class="label" x="448.18337280328416" y="74.76879354602124" font-size="10px">14.88x</text><text class="label" x="447.78405625794403" y="87.97011367803445" font-size="10px">14.86x</text><text class="label" x="177.96703091936513" y="101.17143381004766" font-size="10px">1x</text><text class="label" x="178.19220125206465" y="114.37275394206085" font-size="10px">1.01x</text><text class="label" x="364.42150257948254" y="63.06747341400805" font-size="8px"></text><text class="label" x="444.68337280328416" y="76.26879354602124" font-size="8px"></text><text class="label" x="444.28405625794403" y="89.47011367803445" font-size="8px"></text><text class="label" x="174.46703091936513" y="102.67143381004766" font-size="8px"></text><text class="label" x="174.69220125206465" y="115.87275394206085" font-size="8px"></text></g><g style="font-size: 13px;"><rect x="150" y="127.14154748808213" width="264.9755032253191" height="12.541254125412543" fill="#4472c4"></rect><rect x="150" y="140.34286762009532" width="278.50287244092215" height="12.541254125412543" fill="#ed7d31"></rect><rect x="150" y="153.54418775210854" width="273.2373417363031" height="12.541254125412543" fill="#a5a5a5"></rect><rect x="150" y="166.74550788412174" width="19.46703091936513" height="12.541254125412543" fill="#ffc000"></rect><rect x="150" y="179.94682801613493" width="20.14578575710828" height="12.541254125412543" fill="#5b9bd5"></rect><text class="label" x="423.4755032253191" y="135.64154748808213" font-size="10px">13.61x</text><text class="label" x="437.00287244092215" y="148.84286762009532" font-size="10px">14.31x</text><text class="label" x="431.7373417363031" y="162.04418775210854" font-size="10px">14.04x</text><text class="label" x="177.96703091936513" y="175.24550788412174" font-size="10px">1x</text><text class="label" x="178.64578575710829" y="188.44682801613493" font-size="10px">1.03x</text><text class="label" x="419.9755032253191" y="137.14154748808213" font-size="8px"></text><text class="label" x="433.50287244092215" y="150.34286762009532" font-size="8px"></text><text class="label" x="428.2373417363031" y="163.54418775210854" font-size="8px"></text><text class="label" x="174.46703091936513" y="176.74550788412174" font-size="8px"></text><text class="label" x="175.14578575710829" y="189.94682801613493" font-size="8px"></text></g><g style="font-size: 13px;"><rect x="150" y="201.2156215621562" width="280.94897783102857" height="12.541254125412543" fill="#4472c4"></rect><rect x="150" y="214.4169416941694" width="282.83882171188577" height="12.541254125412543" fill="#ed7d31"></rect><rect x="150" y="227.61826182618262" width="271.858823278064" height="12.541254125412543" fill="#a5a5a5"></rect><rect x="150" y="240.8195819581958" width="19.528649275011148" height="12.541254125412543" fill="#ffc000"></rect><rect x="150" y="254.020902090209" width="19.46703091936513" height="12.541254125412543" fill="#5b9bd5"></rect><text class="label" x="439.44897783102857" y="209.7156215621562" font-size="10px">14.43x</text><text class="label" x="441.33882171188577" y="222.9169416941694" font-size="10px">14.53x</text><text class="label" x="430.358823278064" y="236.11826182618262" font-size="10px">13.97x</text><text class="label" x="178.02864927501116" y="249.3195819581958" font-size="10px">1x</text><text class="label" x="177.96703091936513" y="262.520902090209" font-size="10px">1x</text><text class="label" x="435.94897783102857" y="211.2156215621562" font-size="8px"></text><text class="label" x="437.83882171188577" y="224.4169416941694" font-size="8px"></text><text class="label" x="426.858823278064" y="237.61826182618262" font-size="8px"></text><text class="label" x="174.52864927501116" y="250.8195819581958" font-size="8px"></text><text class="label" x="174.46703091936513" y="264.020902090209" font-size="8px"></text></g><g style="font-size: 13px;"><rect x="150" y="275.28969563623025" width="423.117611683602" height="12.541254125412543" fill="#4472c4"></rect><rect x="150" y="288.49101576824347" width="440.9090909090909" height="12.541254125412543" fill="#ed7d31"></rect><rect x="150" y="301.6923359002567" width="277.90652983341045" height="12.541254125412543" fill="#a5a5a5"></rect><rect x="150" y="314.89365603226986" width="19.46703091936513" height="12.541254125412543" fill="#ffc000"></rect><rect x="150" y="328.0949761642831" width="20.274544054655788" height="12.541254125412543" fill="#5b9bd5"></rect><text class="label" x="581.617611683602" y="283.78969563623025" font-size="10px">21.74x</text><text class="label" x="599.4090909090909" y="296.99101576824347" font-size="10px">22.65x</text><text class="label" x="436.40652983341045" y="310.1923359002567" font-size="10px">14.28x</text><text class="label" x="177.96703091936513" y="323.39365603226986" font-size="10px">1x</text><text class="label" x="178.7745440546558" y="336.5949761642831" font-size="10px">1.04x</text><text class="label" x="578.117611683602" y="285.28969563623025" font-size="8px"></text><text class="label" x="595.9090909090909" y="298.49101576824347" font-size="8px"></text><text class="label" x="432.90652983341045" y="311.6923359002567" font-size="8px"></text><text class="label" x="174.46703091936513" y="324.89365603226986" font-size="8px"></text><text class="label" x="175.2745440546558" y="338.0949761642831" font-size="8px"></text></g><g style="font-size: 13px;"><rect x="150" y="349.3637697103044" width="276.33981895431236" height="12.541254125412543" fill="#4472c4"></rect><rect x="150" y="362.56508984231755" width="298.71105744263815" height="12.541254125412543" fill="#ed7d31"></rect><rect x="150" y="375.76640997433077" width="305.3554834566159" height="12.541254125412543" fill="#a5a5a5"></rect><rect x="150" y="388.967730106344" width="20.154448836524555" height="12.541254125412543" fill="#ffc000"></rect><rect x="150" y="402.16905023835716" width="19.46703091936513" height="12.541254125412543" fill="#5b9bd5"></rect><text class="label" x="434.83981895431236" y="357.8637697103044" font-size="10px">14.2x</text><text class="label" x="457.21105744263815" y="371.06508984231755" font-size="10px">15.34x</text><text class="label" x="463.8554834566159" y="384.26640997433077" font-size="10px">15.69x</text><text class="label" x="178.65444883652455" y="397.467730106344" font-size="10px">1.04x</text><text class="label" x="177.96703091936513" y="410.66905023835716" font-size="10px">1x</text><text class="label" x="431.33981895431236" y="359.3637697103044" font-size="8px"></text><text class="label" x="453.71105744263815" y="372.56508984231755" font-size="8px"></text><text class="label" x="460.3554834566159" y="385.76640997433077" font-size="8px"></text><text class="label" x="175.15444883652455" y="398.967730106344" font-size="8px"></text><text class="label" x="174.46703091936513" y="412.16905023835716" font-size="8px"></text></g><g style="font-size: 13px;"><rect x="150" y="423.4378437843784" width="355.6854631209752" height="12.541254125412543" fill="#4472c4"></rect><rect x="150" y="436.6391639163916" width="292.4181880983043" height="12.541254125412543" fill="#ed7d31"></rect><rect x="150" y="449.84048404840485" width="272.1030037156178" height="12.541254125412543" fill="#a5a5a5"></rect><rect x="150" y="463.041804180418" width="19.46703091936513" height="12.541254125412543" fill="#ffc000"></rect><rect x="150" y="476.24312431243123" width="22.71499361724244" height="12.541254125412543" fill="#5b9bd5"></rect><text class="label" x="514.1854631209752" y="431.9378437843784" font-size="10px">18.27x</text><text class="label" x="450.9181880983043" y="445.1391639163916" font-size="10px">15.02x</text><text class="label" x="430.6030037156178" y="458.34048404840485" font-size="10px">13.98x</text><text class="label" x="177.96703091936513" y="471.541804180418" font-size="10px">1x</text><text class="label" x="181.21499361724244" y="484.74312431243123" font-size="10px">1.17x</text><text class="label" x="510.6854631209752" y="433.4378437843784" font-size="8px"></text><text class="label" x="447.4181880983043" y="446.6391639163916" font-size="8px"></text><text class="label" x="427.1030037156178" y="459.84048404840485" font-size="8px"></text><text class="label" x="174.46703091936513" y="473.041804180418" font-size="8px"></text><text class="label" x="177.71499361724244" y="486.24312431243123" font-size="8px"></text></g><g style="font-size: 13px;"><rect x="150" y="497.51191785845253" width="296.29237880625885" height="12.541254125412543" fill="#4472c4"></rect><rect x="150" y="510.7132379904657" width="294.8136868347301" height="12.541254125412543" fill="#ed7d31"></rect><rect x="150" y="523.9145581224789" width="291.6724458418522" height="12.541254125412543" fill="#a5a5a5"></rect><rect x="150" y="537.1158782544921" width="19.46703091936513" height="12.541254125412543" fill="#ffc000"></rect><rect x="150" y="550.3171983865053" width="25.4942790007881" height="12.541254125412543" fill="#5b9bd5"></rect><text class="label" x="454.79237880625885" y="506.01191785845253" font-size="10px">15.22x</text><text class="label" x="453.3136868347301" y="519.2132379904657" font-size="10px">15.14x</text><text class="label" x="450.1724458418522" y="532.4145581224789" font-size="10px">14.98x</text><text class="label" x="177.96703091936513" y="545.6158782544921" font-size="10px">1x</text><text class="label" x="183.9942790007881" y="558.8171983865053" font-size="10px">1.31x</text><text class="label" x="451.29237880625885" y="507.51191785845253" font-size="8px"></text><text class="label" x="449.8136868347301" y="520.7132379904657" font-size="8px"></text><text class="label" x="446.6724458418522" y="533.9145581224789" font-size="8px"></text><text class="label" x="174.46703091936513" y="547.1158782544921" font-size="8px"></text><text class="label" x="180.4942790007881" y="560.3171983865053" font-size="8px"></text></g><g style="font-size: 13px;"><rect x="150" y="571.5859919325266" width="358.48742397556697" height="12.541254125412543" fill="#4472c4"></rect><rect x="150" y="584.7873120645397" width="355.13891301371575" height="12.541254125412543" fill="#ed7d31"></rect><rect x="150" y="597.9886321965529" width="228.41621733457455" height="12.541254125412543" fill="#a5a5a5"></rect><rect x="150" y="611.1899523285662" width="19.46703091936513" height="12.541254125412543" fill="#ffc000"></rect><rect x="150" y="624.3912724605793" width="19.686963076323615" height="12.541254125412543" fill="#5b9bd5"></rect><text class="label" x="516.987423975567" y="580.0859919325266" font-size="10px">18.42x</text><text class="label" x="513.6389130137158" y="593.2873120645397" font-size="10px">18.24x</text><text class="label" x="386.9162173345745" y="606.4886321965529" font-size="10px">11.73x</text><text class="label" x="177.96703091936513" y="619.6899523285662" font-size="10px">1x</text><text class="label" x="178.18696307632362" y="632.8912724605793" font-size="10px">1.01x</text><text class="label" x="513.487423975567" y="581.5859919325266" font-size="8px"></text><text class="label" x="510.13891301371575" y="594.7873120645397" font-size="8px"></text><text class="label" x="383.4162173345745" y="607.9886321965529" font-size="8px"></text><text class="label" x="174.46703091936513" y="621.1899523285662" font-size="8px"></text><text class="label" x="174.68696307632362" y="634.3912724605793" font-size="8px"></text></g></g></svg>