<svg xmlns="http://www.w3.org/2000/svg" xmlns:xlink="http://www.w3.org/1999/xlink" width="800" height="794" style="background-color: white;"><g class="y axis" transform="translate(149,45)" fill="none" font-size="10" font-family="sans-serif" text-anchor="end" style="font-size: 13px;"><path class="domain" stroke="currentColor" d="M0.5,0.5V600.5"></path><g class="tick" opacity="1" transform="translate(0,40.740740740740726)" style="font-size: 13px;"><line stroke="currentColor" x2="0"></line><text fill="currentColor" x="-3" dy="0.32em">object (simple)    </text></g><g class="tick" opacity="1" transform="translate(0,114.81481481481481)" style="font-size: 13px;"><line stroke="currentColor" x2="0"></line><text fill="currentColor" x="-3" dy="0.32em">object (hierarchical)    </text></g><g class="tick" opacity="1" transform="translate(0,188.88888888888889)" style="font-size: 13px;"><line stroke="currentColor" x2="0"></line><text fill="currentColor" x="-3" dy="0.32em">object (recursive)    </text></g><g class="tick" opacity="1" transform="translate(0,262.96296296296293)" style="font-size: 13px;"><line stroke="currentColor" x2="0"></line><text fill="currentColor" x="-3" dy="0.32em">object (union, explicit)    </text></g><g class="tick" opacity="1" transform="translate(0,337.037037037037)" style="font-size: 13px;"><line stroke="currentColor" x2="0"></line><text fill="currentColor" x="-3" dy="0.32em">array (simple)    </text></g><g class="tick" opacity="1" transform="translate(0,411.1111111111111)" style="font-size: 13px;"><line stroke="currentColor" x2="0"></line><text fill="currentColor" x="-3" dy="0.32em">array (hierarchical)    </text></g><g class="tick" opacity="1" transform="translate(0,485.18518518518516)" style="font-size: 13px;"><line stroke="currentColor" x2="0"></line><text fill="currentColor" x="-3" dy="0.32em">array (recursive)    </text></g><g class="tick" opacity="1" transform="translate(0,559.2592592592592)" style="font-size: 13px;"><line stroke="currentColor" x2="0"></line><text fill="currentColor" x="-3" dy="0.32em">array (union, explicit)    </text></g></g><g class="x axis" transform="translate(149,645)" fill="none" font-size="10" font-family="sans-serif" text-anchor="middle" style="font-size: 13px;"><path class="domain" stroke="currentColor" d="M0.5,0.5H485.5"></path><g class="tick" opacity="1" transform="translate(0.5,0)" style="font-size: 13px;"><line stroke="currentColor" y2="6"></line><text fill="currentColor" y="9" dy="0.71em">0x</text></g><g class="tick" opacity="1" transform="translate(87.25911882637567,0)" style="font-size: 13px;"><line stroke="currentColor" y2="6"></line><text fill="currentColor" y="9" dy="0.71em">5x</text></g><g class="tick" opacity="1" transform="translate(174.01823765275134,0)" style="font-size: 13px;"><line stroke="currentColor" y2="6"></line><text fill="currentColor" y="9" dy="0.71em">10x</text></g><g class="tick" opacity="1" transform="translate(260.77735647912704,0)" style="font-size: 13px;"><line stroke="currentColor" y2="6"></line><text fill="currentColor" y="9" dy="0.71em">15x</text></g><g class="tick" opacity="1" transform="translate(347.5364753055027,0)" style="font-size: 13px;"><line stroke="currentColor" y2="6"></line><text fill="currentColor" y="9" dy="0.71em">20x</text></g><g class="tick" opacity="1" transform="translate(434.2955941318784,0)" style="font-size: 13px;"><line stroke="currentColor" y2="6"></line><text fill="currentColor" y="9" dy="0.71em">25x</text></g></g><text transform="translate(400, 30)" style="text-anchor: middle; font-size: 20px; font-weight: bold;">performance benchmark</text><rect x="650" y="145" width="230" height="5" fill="gray"></rect><rect x="645" y="35" width="230" height="110" fill="none" stroke="black"></rect><rect x="655" y="45" width="10" height="10" style="fill: #4472c4;"></rect><text x="670" y="55" style="font-size: 12px;">nestia-express</text><rect x="655" y="65" width="10" height="10" style="fill: #ed7d31;"></rect><text x="670" y="75" style="font-size: 12px;">nestia-fastify</text><rect x="655" y="85" width="10" height="10" style="fill: #a5a5a5;"></rect><text x="670" y="95" style="font-size: 12px;">fastify</text><rect x="655" y="105" width="10" height="10" style="fill: #ffc000;"></rect><text x="670" y="115" style="font-size: 12px;">NestJS-express</text><rect x="655" y="125" width="10" height="10" style="fill: #5b9bd5;"></rect><text x="670" y="135" style="font-size: 12px;">NestJS-fastify</text><text x="20" y="709" style="font-size: 12px;">  - CPU: Intel(R) Xeon(R) Platinum 8370C CPU @ 2.80GHz</text><text x="20" y="726" style="font-size: 12px;">  - OS: linux</text><text x="20" y="743" style="font-size: 12px;">  - RAM: 16 GB</text><text x="20" y="760" style="font-size: 12px;">  - NodeJS version: v19.9.0</text><text x="20" y="777" style="font-size: 12px;">  - Nestia version: v1.4.0</text><g style="font-size: 13px;"><g style="font-size: 13px;"><rect x="150" y="53.06747341400805" width="117.87353527841968" height="12.541254125412543" fill="#4472c4"></rect><rect x="150" y="66.26879354602124" width="170.95997081682" height="12.541254125412543" fill="#ed7d31"></rect><rect x="150" y="79.47011367803445" width="167.21454222993327" height="12.541254125412543" fill="#a5a5a5"></rect><rect x="150" y="92.67143381004766" width="17.351823765275135" height="12.541254125412543" fill="#ffc000"></rect><rect x="150" y="105.87275394206085" width="19.42940163559509" height="12.541254125412543" fill="#5b9bd5"></rect><text class="label" x="276.3735352784197" y="61.56747341400805" font-size="10px">6.79x</text><text class="label" x="329.45997081682003" y="74.76879354602124" font-size="10px">9.85x</text><text class="label" x="325.7145422299333" y="87.97011367803445" font-size="10px">9.64x</text><text class="label" x="175.85182376527513" y="101.17143381004766" font-size="10px">1x</text><text class="label" x="177.9294016355951" y="114.37275394206085" font-size="10px">1.12x</text><text class="label" x="272.8735352784197" y="63.06747341400805" font-size="8px"></text><text class="label" x="325.95997081682003" y="76.26879354602124" font-size="8px"></text><text class="label" x="322.2145422299333" y="89.47011367803445" font-size="8px"></text><text class="label" x="172.35182376527513" y="102.67143381004766" font-size="8px"></text><text class="label" x="174.4294016355951" y="115.87275394206085" font-size="8px"></text></g><g style="font-size: 13px;"><rect x="150" y="127.14154748808213" width="108.70335848912399" height="12.541254125412543" fill="#4472c4"></rect><rect x="150" y="140.34286762009532" width="121.82023419294227" height="12.541254125412543" fill="#ed7d31"></rect><rect x="150" y="153.54418775210854" width="116.55221378160614" height="12.541254125412543" fill="#a5a5a5"></rect><rect x="150" y="166.74550788412174" width="17.351823765275135" height="12.541254125412543" fill="#ffc000"></rect><rect x="150" y="179.94682801613493" width="18.05536602587254" height="12.541254125412543" fill="#5b9bd5"></rect><text class="label" x="267.20335848912396" y="135.64154748808213" font-size="10px">6.26x</text><text class="label" x="280.3202341929423" y="148.84286762009532" font-size="10px">7.02x</text><text class="label" x="275.05221378160616" y="162.04418775210854" font-size="10px">6.72x</text><text class="label" x="175.85182376527513" y="175.24550788412174" font-size="10px">1x</text><text class="label" x="176.55536602587253" y="188.44682801613493" font-size="10px">1.04x</text><text class="label" x="263.70335848912396" y="137.14154748808213" font-size="8px"></text><text class="label" x="276.8202341929423" y="150.34286762009532" font-size="8px"></text><text class="label" x="271.55221378160616" y="163.54418775210854" font-size="8px"></text><text class="label" x="172.35182376527513" y="176.74550788412174" font-size="8px"></text><text class="label" x="173.05536602587253" y="189.94682801613493" font-size="8px"></text></g><g style="font-size: 13px;"><rect x="150" y="201.2156215621562" width="111.1624974918216" height="12.541254125412543" fill="#4472c4"></rect><rect x="150" y="214.4169416941694" width="125.20375697188038" height="12.541254125412543" fill="#ed7d31"></rect><rect x="150" y="227.61826182618262" width="93.55497516572183" height="12.541254125412543" fill="#a5a5a5"></rect><rect x="150" y="240.8195819581958" width="17.351823765275135" height="12.541254125412543" fill="#ffc000"></rect><rect x="150" y="254.020902090209" width="17.756567704728553" height="12.541254125412543" fill="#5b9bd5"></rect><text class="label" x="269.66249749182157" y="209.7156215621562" font-size="10px">6.41x</text><text class="label" x="283.70375697188035" y="222.9169416941694" font-size="10px">7.22x</text><text class="label" x="252.05497516572183" y="236.11826182618262" font-size="10px">5.39x</text><text class="label" x="175.85182376527513" y="249.3195819581958" font-size="10px">1x</text><text class="label" x="176.25656770472855" y="262.520902090209" font-size="10px">1.02x</text><text class="label" x="266.16249749182157" y="211.2156215621562" font-size="8px"></text><text class="label" x="280.20375697188035" y="224.4169416941694" font-size="8px"></text><text class="label" x="248.55497516572183" y="237.61826182618262" font-size="8px"></text><text class="label" x="172.35182376527513" y="250.8195819581958" font-size="8px"></text><text class="label" x="172.75656770472855" y="264.020902090209" font-size="8px"></text></g><g style="font-size: 13px;"><rect x="150" y="275.28969563623025" width="353.7281664600084" height="12.541254125412543" fill="#4472c4"></rect><rect x="150" y="288.49101576824347" width="440.9090909090908" height="12.541254125412543" fill="#ed7d31"></rect><rect x="150" y="301.6923359002567" width="302.6657881981107" height="12.541254125412543" fill="#a5a5a5"></rect><rect x="150" y="314.89365603226986" width="17.351823765275135" height="12.541254125412543" fill="#ffc000"></rect><rect x="150" y="328.0949761642831" width="17.561962104333737" height="12.541254125412543" fill="#5b9bd5"></rect><text class="label" x="512.2281664600084" y="283.78969563623025" font-size="10px">20.39x</text><text class="label" x="599.4090909090908" y="296.99101576824347" font-size="10px">25.41x</text><text class="label" x="461.1657881981107" y="310.1923359002567" font-size="10px">17.44x</text><text class="label" x="175.85182376527513" y="323.39365603226986" font-size="10px">1x</text><text class="label" x="176.06196210433373" y="336.5949761642831" font-size="10px">1.01x</text><text class="label" x="508.7281664600084" y="285.28969563623025" font-size="8px"></text><text class="label" x="595.9090909090908" y="298.49101576824347" font-size="8px"></text><text class="label" x="457.6657881981107" y="311.6923359002567" font-size="8px"></text><text class="label" x="172.35182376527513" y="324.89365603226986" font-size="8px"></text><text class="label" x="172.56196210433373" y="338.0949761642831" font-size="8px"></text></g><g style="font-size: 13px;"><rect x="150" y="349.3637697103044" width="191.0502672830245" height="12.541254125412543" fill="#4472c4"></rect><rect x="150" y="362.56508984231755" width="198.52524949745816" height="12.541254125412543" fill="#ed7d31"></rect><rect x="150" y="375.76640997433077" width="192.80492940933834" height="12.541254125412543" fill="#a5a5a5"></rect><rect x="150" y="388.967730106344" width="17.351823765275135" height="12.541254125412543" fill="#ffc000"></rect><rect x="150" y="402.16905023835716" width="18.078685828776376" height="12.541254125412543" fill="#5b9bd5"></rect><text class="label" x="349.5502672830245" y="357.8637697103044" font-size="10px">11.01x</text><text class="label" x="357.02524949745816" y="371.06508984231755" font-size="10px">11.44x</text><text class="label" x="351.30492940933834" y="384.26640997433077" font-size="10px">11.11x</text><text class="label" x="175.85182376527513" y="397.467730106344" font-size="10px">1x</text><text class="label" x="176.57868582877637" y="410.66905023835716" font-size="10px">1.04x</text><text class="label" x="346.0502672830245" y="359.3637697103044" font-size="8px"></text><text class="label" x="353.52524949745816" y="372.56508984231755" font-size="8px"></text><text class="label" x="347.80492940933834" y="385.76640997433077" font-size="8px"></text><text class="label" x="172.35182376527513" y="398.967730106344" font-size="8px"></text><text class="label" x="173.07868582877637" y="412.16905023835716" font-size="8px"></text></g><g style="font-size: 13px;"><rect x="150" y="423.4378437843784" width="0" height="12.541254125412543" fill="#4472c4"></rect><rect x="150" y="436.6391639163916" width="156.97190006834788" height="12.541254125412543" fill="#ed7d31"></rect><rect x="150" y="449.84048404840485" width="0" height="12.541254125412543" fill="#a5a5a5"></rect><rect x="150" y="463.041804180418" width="17.674424582254375" height="12.541254125412543" fill="#ffc000"></rect><rect x="150" y="476.24312431243123" width="17.351823765275135" height="12.541254125412543" fill="#5b9bd5"></rect><text class="label" x="158.5" y="431.9378437843784" font-size="10px"></text><text class="label" x="315.47190006834785" y="445.1391639163916" font-size="10px">9.05x</text><text class="label" x="158.5" y="458.34048404840485" font-size="10px"></text><text class="label" x="176.17442458225437" y="471.541804180418" font-size="10px">1.02x</text><text class="label" x="175.85182376527513" y="484.74312431243123" font-size="10px">1x</text><text class="label" x="155" y="433.4378437843784" font-size="8px">Failed</text><text class="label" x="311.97190006834785" y="446.6391639163916" font-size="8px"></text><text class="label" x="155" y="459.84048404840485" font-size="8px">Failed</text><text class="label" x="172.67442458225437" y="473.041804180418" font-size="8px"></text><text class="label" x="172.35182376527513" y="486.24312431243123" font-size="8px"></text></g><g style="font-size: 13px;"><rect x="150" y="497.51191785845253" width="174.4607392990932" height="12.541254125412543" fill="#4472c4"></rect><rect x="150" y="510.7132379904657" width="17.351823765275135" height="12.541254125412543" fill="#ed7d31"></rect><rect x="150" y="523.9145581224789" width="193.3938981971239" height="12.541254125412543" fill="#a5a5a5"></rect><rect x="150" y="537.1158782544921" width="24.86985992998409" height="12.541254125412543" fill="#ffc000"></rect><rect x="150" y="550.3171983865053" width="25.799494504719647" height="12.541254125412543" fill="#5b9bd5"></rect><text class="label" x="332.96073929909323" y="506.01191785845253" font-size="10px">10.05x</text><text class="label" x="175.85182376527513" y="519.2132379904657" font-size="10px">1x</text><text class="label" x="351.8938981971239" y="532.4145581224789" font-size="10px">11.15x</text><text class="label" x="183.3698599299841" y="545.6158782544921" font-size="10px">1.43x</text><text class="label" x="184.29949450471963" y="558.8171983865053" font-size="10px">1.49x</text><text class="label" x="329.46073929909323" y="507.51191785845253" font-size="8px"></text><text class="label" x="172.35182376527513" y="520.7132379904657" font-size="8px"></text><text class="label" x="348.3938981971239" y="533.9145581224789" font-size="8px"></text><text class="label" x="179.8698599299841" y="547.1158782544921" font-size="8px"></text><text class="label" x="180.79949450471963" y="560.3171983865053" font-size="8px"></text></g><g style="font-size: 13px;"><rect x="150" y="571.5859919325266" width="246.63296785462626" height="12.541254125412543" fill="#4472c4"></rect><rect x="150" y="584.7873120645397" width="245.96711854313986" height="12.541254125412543" fill="#ed7d31"></rect><rect x="150" y="597.9886321965529" width="108.1313262187704" height="12.541254125412543" fill="#a5a5a5"></rect><rect x="150" y="611.1899523285662" width="17.503958132365497" height="12.541254125412543" fill="#ffc000"></rect><rect x="150" y="624.3912724605793" width="17.351823765275135" height="12.541254125412543" fill="#5b9bd5"></rect><text class="label" x="405.13296785462626" y="580.0859919325266" font-size="10px">14.21x</text><text class="label" x="404.46711854313986" y="593.2873120645397" font-size="10px">14.18x</text><text class="label" x="266.63132621877037" y="606.4886321965529" font-size="10px">6.23x</text><text class="label" x="176.00395813236548" y="619.6899523285662" font-size="10px">1.01x</text><text class="label" x="175.85182376527513" y="632.8912724605793" font-size="10px">1x</text><text class="label" x="401.63296785462626" y="581.5859919325266" font-size="8px"></text><text class="label" x="400.96711854313986" y="594.7873120645397" font-size="8px"></text><text class="label" x="263.13132621877037" y="607.9886321965529" font-size="8px"></text><text class="label" x="172.50395813236548" y="621.1899523285662" font-size="8px"></text><text class="label" x="172.35182376527513" y="634.3912724605793" font-size="8px"></text></g></g></svg>