<svg xmlns="http://www.w3.org/2000/svg" xmlns:xlink="http://www.w3.org/1999/xlink" width="800" height="794" style="background-color: white;"><g class="y axis" transform="translate(149,45)" fill="none" font-size="10" font-family="sans-serif" text-anchor="end" style="font-size: 13px;"><path class="domain" stroke="currentColor" d="M0.5,0.5V600.5"></path><g class="tick" opacity="1" transform="translate(0,40.740740740740726)" style="font-size: 13px;"><line stroke="currentColor" x2="0"></line><text fill="currentColor" x="-3" dy="0.32em">object (simple)    </text></g><g class="tick" opacity="1" transform="translate(0,114.81481481481481)" style="font-size: 13px;"><line stroke="currentColor" x2="0"></line><text fill="currentColor" x="-3" dy="0.32em">object (hierarchical)    </text></g><g class="tick" opacity="1" transform="translate(0,188.88888888888889)" style="font-size: 13px;"><line stroke="currentColor" x2="0"></line><text fill="currentColor" x="-3" dy="0.32em">object (recursive)    </text></g><g class="tick" opacity="1" transform="translate(0,262.96296296296293)" style="font-size: 13px;"><line stroke="currentColor" x2="0"></line><text fill="currentColor" x="-3" dy="0.32em">object (union, explicit)    </text></g><g class="tick" opacity="1" transform="translate(0,337.037037037037)" style="font-size: 13px;"><line stroke="currentColor" x2="0"></line><text fill="currentColor" x="-3" dy="0.32em">array (simple)    </text></g><g class="tick" opacity="1" transform="translate(0,411.1111111111111)" style="font-size: 13px;"><line stroke="currentColor" x2="0"></line><text fill="currentColor" x="-3" dy="0.32em">array (hierarchical)    </text></g><g class="tick" opacity="1" transform="translate(0,485.18518518518516)" style="font-size: 13px;"><line stroke="currentColor" x2="0"></line><text fill="currentColor" x="-3" dy="0.32em">array (recursive)    </text></g><g class="tick" opacity="1" transform="translate(0,559.2592592592592)" style="font-size: 13px;"><line stroke="currentColor" x2="0"></line><text fill="currentColor" x="-3" dy="0.32em">array (union, explicit)    </text></g></g><g class="x axis" transform="translate(149,645)" fill="none" font-size="10" font-family="sans-serif" text-anchor="middle" style="font-size: 13px;"><path class="domain" stroke="currentColor" d="M0.5,0.5H485.5"></path><g class="tick" opacity="1" transform="translate(0.5,0)" style="font-size: 13px;"><line stroke="currentColor" y2="6"></line><text fill="currentColor" y="9" dy="0.71em">0x</text></g><g class="tick" opacity="1" transform="translate(74.06267732429433,0)" style="font-size: 13px;"><line stroke="currentColor" y2="6"></line><text fill="currentColor" y="9" dy="0.71em">2x</text></g><g class="tick" opacity="1" transform="translate(147.62535464858865,0)" style="font-size: 13px;"><line stroke="currentColor" y2="6"></line><text fill="currentColor" y="9" dy="0.71em">4x</text></g><g class="tick" opacity="1" transform="translate(221.18803197288295,0)" style="font-size: 13px;"><line stroke="currentColor" y2="6"></line><text fill="currentColor" y="9" dy="0.71em">6x</text></g><g class="tick" opacity="1" transform="translate(294.7507092971773,0)" style="font-size: 13px;"><line stroke="currentColor" y2="6"></line><text fill="currentColor" y="9" dy="0.71em">8x</text></g><g class="tick" opacity="1" transform="translate(368.3133866214716,0)" style="font-size: 13px;"><line stroke="currentColor" y2="6"></line><text fill="currentColor" y="9" dy="0.71em">10x</text></g><g class="tick" opacity="1" transform="translate(441.8760639457659,0)" style="font-size: 13px;"><line stroke="currentColor" y2="6"></line><text fill="currentColor" y="9" dy="0.71em">12x</text></g></g><text transform="translate(400, 30)" style="text-anchor: middle; font-size: 20px; font-weight: bold;">stringify benchmark</text><rect x="650" y="145" width="230" height="5" fill="gray"></rect><rect x="645" y="35" width="230" height="110" fill="none" stroke="black"></rect><rect x="655" y="45" width="10" height="10" style="fill: #4472c4;"></rect><text x="670" y="55" style="font-size: 12px;">nestia-express</text><rect x="655" y="65" width="10" height="10" style="fill: #ed7d31;"></rect><text x="670" y="75" style="font-size: 12px;">nestia-fastify</text><rect x="655" y="85" width="10" height="10" style="fill: #a5a5a5;"></rect><text x="670" y="95" style="font-size: 12px;">fastify</text><rect x="655" y="105" width="10" height="10" style="fill: #ffc000;"></rect><text x="670" y="115" style="font-size: 12px;">NestJS-express</text><rect x="655" y="125" width="10" height="10" style="fill: #5b9bd5;"></rect><text x="670" y="135" style="font-size: 12px;">NestJS-fastify</text><text x="20" y="709" style="font-size: 12px;">  - CPU: Intel(R) Xeon(R) Platinum 8370C CPU @ 2.80GHz</text><text x="20" y="726" style="font-size: 12px;">  - OS: linux</text><text x="20" y="743" style="font-size: 12px;">  - RAM: 16 GB</text><text x="20" y="760" style="font-size: 12px;">  - NodeJS version: v19.9.0</text><text x="20" y="777" style="font-size: 12px;">  - Nestia version: v1.4.0</text><g style="font-size: 13px;"><g style="font-size: 13px;"><rect x="150" y="53.06747341400805" width="204.7721743816816" height="12.541254125412543" fill="#4472c4"></rect><rect x="150" y="66.26879354602124" width="440.9090909090908" height="12.541254125412543" fill="#ed7d31"></rect><rect x="150" y="79.47011367803445" width="371.8794985982652" height="12.541254125412543" fill="#a5a5a5"></rect><rect x="150" y="92.67143381004766" width="36.781338662147164" height="12.541254125412543" fill="#ffc000"></rect><rect x="150" y="105.87275394206085" width="39.88260926903524" height="12.541254125412543" fill="#5b9bd5"></rect><text class="label" x="363.27217438168157" y="61.56747341400805" font-size="10px">5.57x</text><text class="label" x="599.4090909090908" y="74.76879354602124" font-size="10px">11.99x</text><text class="label" x="530.3794985982652" y="87.97011367803445" font-size="10px">10.11x</text><text class="label" x="195.28133866214716" y="101.17143381004766" font-size="10px">1x</text><text class="label" x="198.38260926903524" y="114.37275394206085" font-size="10px">1.08x</text><text class="label" x="359.77217438168157" y="63.06747341400805" font-size="8px"></text><text class="label" x="595.9090909090908" y="76.26879354602124" font-size="8px"></text><text class="label" x="526.8794985982652" y="89.47011367803445" font-size="8px"></text><text class="label" x="191.78133866214716" y="102.67143381004766" font-size="8px"></text><text class="label" x="194.88260926903524" y="115.87275394206085" font-size="8px"></text></g><g style="font-size: 13px;"><rect x="150" y="127.14154748808213" width="168.46684269225517" height="12.541254125412543" fill="#4472c4"></rect><rect x="150" y="140.34286762009532" width="189.1622676317094" height="12.541254125412543" fill="#ed7d31"></rect><rect x="150" y="153.54418775210854" width="181.89704460557616" height="12.541254125412543" fill="#a5a5a5"></rect><rect x="150" y="166.74550788412174" width="36.781338662147164" height="12.541254125412543" fill="#ffc000"></rect><rect x="150" y="179.94682801613493" width="40.03450468115737" height="12.541254125412543" fill="#5b9bd5"></rect><text class="label" x="326.96684269225517" y="135.64154748808213" font-size="10px">4.58x</text><text class="label" x="347.66226763170937" y="148.84286762009532" font-size="10px">5.14x</text><text class="label" x="340.3970446055762" y="162.04418775210854" font-size="10px">4.95x</text><text class="label" x="195.28133866214716" y="175.24550788412174" font-size="10px">1x</text><text class="label" x="198.5345046811574" y="188.44682801613493" font-size="10px">1.09x</text><text class="label" x="323.46684269225517" y="137.14154748808213" font-size="8px"></text><text class="label" x="344.16226763170937" y="150.34286762009532" font-size="8px"></text><text class="label" x="336.8970446055762" y="163.54418775210854" font-size="8px"></text><text class="label" x="191.78133866214716" y="176.74550788412174" font-size="8px"></text><text class="label" x="195.0345046811574" y="189.94682801613493" font-size="8px"></text></g><g style="font-size: 13px;"><rect x="150" y="201.2156215621562" width="173.1846300486234" height="12.541254125412543" fill="#4472c4"></rect><rect x="150" y="214.4169416941694" width="195.56138947539418" height="12.541254125412543" fill="#ed7d31"></rect><rect x="150" y="227.61826182618262" width="131.61217442503266" height="12.541254125412543" fill="#a5a5a5"></rect><rect x="150" y="240.8195819581958" width="37.28256985007472" height="12.541254125412543" fill="#ffc000"></rect><rect x="150" y="254.020902090209" width="36.781338662147164" height="12.541254125412543" fill="#5b9bd5"></rect><text class="label" x="331.6846300486234" y="209.7156215621562" font-size="10px">4.71x</text><text class="label" x="354.0613894753942" y="222.9169416941694" font-size="10px">5.32x</text><text class="label" x="290.11217442503266" y="236.11826182618262" font-size="10px">3.58x</text><text class="label" x="195.7825698500747" y="249.3195819581958" font-size="10px">1.01x</text><text class="label" x="195.28133866214716" y="262.520902090209" font-size="10px">1x</text><text class="label" x="328.1846300486234" y="211.2156215621562" font-size="8px"></text><text class="label" x="350.5613894753942" y="224.4169416941694" font-size="8px"></text><text class="label" x="286.61217442503266" y="237.61826182618262" font-size="8px"></text><text class="label" x="192.2825698500747" y="250.8195819581958" font-size="8px"></text><text class="label" x="191.78133866214716" y="264.020902090209" font-size="8px"></text></g><g style="font-size: 13px;"><rect x="150" y="275.28969563623025" width="290.86109153102865" height="12.541254125412543" fill="#4472c4"></rect><rect x="150" y="288.49101576824347" width="301.12774307788214" height="12.541254125412543" fill="#ed7d31"></rect><rect x="150" y="301.6923359002567" width="306.84201879803265" height="12.541254125412543" fill="#a5a5a5"></rect><rect x="150" y="314.89365603226986" width="37.16871656041311" height="12.541254125412543" fill="#ffc000"></rect><rect x="150" y="328.0949761642831" width="36.781338662147164" height="12.541254125412543" fill="#5b9bd5"></rect><text class="label" x="449.36109153102865" y="283.78969563623025" font-size="10px">7.91x</text><text class="label" x="459.62774307788214" y="296.99101576824347" font-size="10px">8.19x</text><text class="label" x="465.34201879803265" y="310.1923359002567" font-size="10px">8.34x</text><text class="label" x="195.66871656041312" y="323.39365603226986" font-size="10px">1.01x</text><text class="label" x="195.28133866214716" y="336.5949761642831" font-size="10px">1x</text><text class="label" x="445.86109153102865" y="285.28969563623025" font-size="8px"></text><text class="label" x="456.12774307788214" y="298.49101576824347" font-size="8px"></text><text class="label" x="461.84201879803265" y="311.6923359002567" font-size="8px"></text><text class="label" x="192.16871656041312" y="324.89365603226986" font-size="8px"></text><text class="label" x="191.78133866214716" y="338.0949761642831" font-size="8px"></text></g><g style="font-size: 13px;"><rect x="150" y="349.3637697103044" width="137.70817028254982" height="12.541254125412543" fill="#4472c4"></rect><rect x="150" y="362.56508984231755" width="141.96732368855194" height="12.541254125412543" fill="#ed7d31"></rect><rect x="150" y="375.76640997433077" width="152.92921213398807" height="12.541254125412543" fill="#a5a5a5"></rect><rect x="150" y="388.967730106344" width="36.838775702877065" height="12.541254125412543" fill="#ffc000"></rect><rect x="150" y="402.16905023835716" width="36.781338662147164" height="12.541254125412543" fill="#5b9bd5"></rect><text class="label" x="296.2081702825498" y="357.8637697103044" font-size="10px">3.74x</text><text class="label" x="300.4673236885519" y="371.06508984231755" font-size="10px">3.86x</text><text class="label" x="311.4292121339881" y="384.26640997433077" font-size="10px">4.16x</text><text class="label" x="195.33877570287706" y="397.467730106344" font-size="10px">1x</text><text class="label" x="195.28133866214716" y="410.66905023835716" font-size="10px">1x</text><text class="label" x="292.7081702825498" y="359.3637697103044" font-size="8px"></text><text class="label" x="296.9673236885519" y="372.56508984231755" font-size="8px"></text><text class="label" x="307.9292121339881" y="385.76640997433077" font-size="8px"></text><text class="label" x="191.83877570287706" y="398.967730106344" font-size="8px"></text><text class="label" x="191.78133866214716" y="412.16905023835716" font-size="8px"></text></g><g style="font-size: 13px;"><rect x="150" y="423.4378437843784" width="239.31648266085753" height="12.541254125412543" fill="#4472c4"></rect><rect x="150" y="436.6391639163916" width="211.35199126091953" height="12.541254125412543" fill="#ed7d31"></rect><rect x="150" y="449.84048404840485" width="160.55635562393292" height="12.541254125412543" fill="#a5a5a5"></rect><rect x="150" y="463.041804180418" width="36.781338662147164" height="12.541254125412543" fill="#ffc000"></rect><rect x="150" y="476.24312431243123" width="38.429333810283936" height="12.541254125412543" fill="#5b9bd5"></rect><text class="label" x="397.81648266085756" y="431.9378437843784" font-size="10px">6.51x</text><text class="label" x="369.85199126091953" y="445.1391639163916" font-size="10px">5.75x</text><text class="label" x="319.0563556239329" y="458.34048404840485" font-size="10px">4.37x</text><text class="label" x="195.28133866214716" y="471.541804180418" font-size="10px">1x</text><text class="label" x="196.92933381028394" y="484.74312431243123" font-size="10px">1.04x</text><text class="label" x="394.31648266085756" y="433.4378437843784" font-size="8px"></text><text class="label" x="366.35199126091953" y="446.6391639163916" font-size="8px"></text><text class="label" x="315.5563556239329" y="459.84048404840485" font-size="8px"></text><text class="label" x="191.78133866214716" y="473.041804180418" font-size="8px"></text><text class="label" x="193.42933381028394" y="486.24312431243123" font-size="8px"></text></g><g style="font-size: 13px;"><rect x="150" y="497.51191785845253" width="187.67472542515688" height="12.541254125412543" fill="#4472c4"></rect><rect x="150" y="510.7132379904657" width="195.4276071485099" height="12.541254125412543" fill="#ed7d31"></rect><rect x="150" y="523.9145581224789" width="173.28524054546205" height="12.541254125412543" fill="#a5a5a5"></rect><rect x="150" y="537.1158782544921" width="38.06427670959716" height="12.541254125412543" fill="#ffc000"></rect><rect x="150" y="550.3171983865053" width="36.781338662147164" height="12.541254125412543" fill="#5b9bd5"></rect><text class="label" x="346.1747254251569" y="506.01191785845253" font-size="10px">5.1x</text><text class="label" x="353.9276071485099" y="519.2132379904657" font-size="10px">5.31x</text><text class="label" x="331.78524054546205" y="532.4145581224789" font-size="10px">4.71x</text><text class="label" x="196.56427670959715" y="545.6158782544921" font-size="10px">1.03x</text><text class="label" x="195.28133866214716" y="558.8171983865053" font-size="10px">1x</text><text class="label" x="342.6747254251569" y="507.51191785845253" font-size="8px"></text><text class="label" x="350.4276071485099" y="520.7132379904657" font-size="8px"></text><text class="label" x="328.28524054546205" y="533.9145581224789" font-size="8px"></text><text class="label" x="193.06427670959715" y="547.1158782544921" font-size="8px"></text><text class="label" x="191.78133866214716" y="560.3171983865053" font-size="8px"></text></g><g style="font-size: 13px;"><rect x="150" y="571.5859919325266" width="138.35671631624442" height="12.541254125412543" fill="#4472c4"></rect><rect x="150" y="584.7873120645397" width="148.44501285197433" height="12.541254125412543" fill="#ed7d31"></rect><rect x="150" y="597.9886321965529" width="51.461955326887896" height="12.541254125412543" fill="#a5a5a5"></rect><rect x="150" y="611.1899523285662" width="36.78987681816871" height="12.541254125412543" fill="#ffc000"></rect><rect x="150" y="624.3912724605793" width="36.781338662147164" height="12.541254125412543" fill="#5b9bd5"></rect><text class="label" x="296.8567163162444" y="580.0859919325266" font-size="10px">3.76x</text><text class="label" x="306.9450128519743" y="593.2873120645397" font-size="10px">4.04x</text><text class="label" x="209.9619553268879" y="606.4886321965529" font-size="10px">1.4x</text><text class="label" x="195.2898768181687" y="619.6899523285662" font-size="10px">1x</text><text class="label" x="195.28133866214716" y="632.8912724605793" font-size="10px">1x</text><text class="label" x="293.3567163162444" y="581.5859919325266" font-size="8px"></text><text class="label" x="303.4450128519743" y="594.7873120645397" font-size="8px"></text><text class="label" x="206.4619553268879" y="607.9886321965529" font-size="8px"></text><text class="label" x="191.7898768181687" y="621.1899523285662" font-size="8px"></text><text class="label" x="191.78133866214716" y="634.3912724605793" font-size="8px"></text></g></g></svg>