<svg xmlns="http://www.w3.org/2000/svg" xmlns:xlink="http://www.w3.org/1999/xlink" width="800" height="794" style="background-color: white;"><g class="y axis" transform="translate(149,45)" fill="none" font-size="10" font-family="sans-serif" text-anchor="end" style="font-size: 13px;"><path class="domain" stroke="currentColor" d="M0.5,0.5V600.5"></path><g class="tick" opacity="1" transform="translate(0,40.740740740740726)" style="font-size: 13px;"><line stroke="currentColor" x2="0"></line><text fill="currentColor" x="-3" dy="0.32em">object (simple)    </text></g><g class="tick" opacity="1" transform="translate(0,114.81481481481481)" style="font-size: 13px;"><line stroke="currentColor" x2="0"></line><text fill="currentColor" x="-3" dy="0.32em">object (hierarchical)    </text></g><g class="tick" opacity="1" transform="translate(0,188.88888888888889)" style="font-size: 13px;"><line stroke="currentColor" x2="0"></line><text fill="currentColor" x="-3" dy="0.32em">object (recursive)    </text></g><g class="tick" opacity="1" transform="translate(0,262.96296296296293)" style="font-size: 13px;"><line stroke="currentColor" x2="0"></line><text fill="currentColor" x="-3" dy="0.32em">object (union, explicit)    </text></g><g class="tick" opacity="1" transform="translate(0,337.037037037037)" style="font-size: 13px;"><line stroke="currentColor" x2="0"></line><text fill="currentColor" x="-3" dy="0.32em">array (simple)    </text></g><g class="tick" opacity="1" transform="translate(0,411.1111111111111)" style="font-size: 13px;"><line stroke="currentColor" x2="0"></line><text fill="currentColor" x="-3" dy="0.32em">array (hierarchical)    </text></g><g class="tick" opacity="1" transform="translate(0,485.18518518518516)" style="font-size: 13px;"><line stroke="currentColor" x2="0"></line><text fill="currentColor" x="-3" dy="0.32em">array (recursive)    </text></g><g class="tick" opacity="1" transform="translate(0,559.2592592592592)" style="font-size: 13px;"><line stroke="currentColor" x2="0"></line><text fill="currentColor" x="-3" dy="0.32em">array (union, explicit)    </text></g></g><g class="x axis" transform="translate(149,645)" fill="none" font-size="10" font-family="sans-serif" text-anchor="middle" style="font-size: 13px;"><path class="domain" stroke="currentColor" d="M0.5,0.5H485.5"></path><g class="tick" opacity="1" transform="translate(0.5,0)" style="font-size: 13px;"><line stroke="currentColor" y2="6"></line><text fill="currentColor" y="9" dy="0.71em">0x</text></g><g class="tick" opacity="1" transform="translate(113.5379083623102,0)" style="font-size: 13px;"><line stroke="currentColor" y2="6"></line><text fill="currentColor" y="9" dy="0.71em">5x</text></g><g class="tick" opacity="1" transform="translate(226.5758167246204,0)" style="font-size: 13px;"><line stroke="currentColor" y2="6"></line><text fill="currentColor" y="9" dy="0.71em">10x</text></g><g class="tick" opacity="1" transform="translate(339.61372508693063,0)" style="font-size: 13px;"><line stroke="currentColor" y2="6"></line><text fill="currentColor" y="9" dy="0.71em">15x</text></g><g class="tick" opacity="1" transform="translate(452.6516334492408,0)" style="font-size: 13px;"><line stroke="currentColor" y2="6"></line><text fill="currentColor" y="9" dy="0.71em">20x</text></g></g><text transform="translate(400, 30)" style="text-anchor: middle; font-size: 20px; font-weight: bold;">assert benchmark</text><rect x="650" y="145" width="230" height="5" fill="gray"></rect><rect x="645" y="35" width="230" height="110" fill="none" stroke="black"></rect><rect x="655" y="45" width="10" height="10" style="fill: #4472c4;"></rect><text x="670" y="55" style="font-size: 12px;">nestia-express</text><rect x="655" y="65" width="10" height="10" style="fill: #ed7d31;"></rect><text x="670" y="75" style="font-size: 12px;">nestia-fastify</text><rect x="655" y="85" width="10" height="10" style="fill: #a5a5a5;"></rect><text x="670" y="95" style="font-size: 12px;">fastify</text><rect x="655" y="105" width="10" height="10" style="fill: #ffc000;"></rect><text x="670" y="115" style="font-size: 12px;">NestJS-express</text><rect x="655" y="125" width="10" height="10" style="fill: #5b9bd5;"></rect><text x="670" y="135" style="font-size: 12px;">NestJS-fastify</text><text x="20" y="709" style="font-size: 12px;">  - CPU: AMD EPYC 7763 64-Core Processor</text><text x="20" y="726" style="font-size: 12px;">  - OS: linux</text><text x="20" y="743" style="font-size: 12px;">  - RAM: 63 GB</text><text x="20" y="760" style="font-size: 12px;">  - NodeJS version: v19.9.0</text><text x="20" y="777" style="font-size: 12px;">  - Nestia version: v1.4.0</text><g style="font-size: 13px;"><g style="font-size: 13px;"><rect x="150" y="53.06747341400805" width="198.84851158982727" height="12.541254125412543" fill="#4472c4"></rect><rect x="150" y="66.26879354602124" width="290.2393749890104" height="12.541254125412543" fill="#ed7d31"></rect><rect x="150" y="79.47011367803445" width="278.666682111956" height="12.541254125412543" fill="#a5a5a5"></rect><rect x="150" y="92.67143381004766" width="22.607581672462043" height="12.541254125412543" fill="#ffc000"></rect><rect x="150" y="105.87275394206085" width="24.37720129397279" height="12.541254125412543" fill="#5b9bd5"></rect><text class="label" x="357.34851158982724" y="61.56747341400805" font-size="10px">8.8x</text><text class="label" x="448.7393749890104" y="74.76879354602124" font-size="10px">12.84x</text><text class="label" x="437.166682111956" y="87.97011367803445" font-size="10px">12.33x</text><text class="label" x="181.10758167246203" y="101.17143381004766" font-size="10px">1x</text><text class="label" x="182.8772012939728" y="114.37275394206085" font-size="10px">1.08x</text><text class="label" x="353.84851158982724" y="63.06747341400805" font-size="8px"></text><text class="label" x="445.2393749890104" y="76.26879354602124" font-size="8px"></text><text class="label" x="433.666682111956" y="89.47011367803445" font-size="8px"></text><text class="label" x="177.60758167246203" y="102.67143381004766" font-size="8px"></text><text class="label" x="179.3772012939728" y="115.87275394206085" font-size="8px"></text></g><g style="font-size: 13px;"><rect x="150" y="127.14154748808213" width="285.20999421684314" height="12.541254125412543" fill="#4472c4"></rect><rect x="150" y="140.34286762009532" width="316.55014083968683" height="12.541254125412543" fill="#ed7d31"></rect><rect x="150" y="153.54418775210854" width="301.163418734309" height="12.541254125412543" fill="#a5a5a5"></rect><rect x="150" y="166.74550788412174" width="22.607581672462043" height="12.541254125412543" fill="#ffc000"></rect><rect x="150" y="179.94682801613493" width="25.142504976527366" height="12.541254125412543" fill="#5b9bd5"></rect><text class="label" x="443.70999421684314" y="135.64154748808213" font-size="10px">12.62x</text><text class="label" x="475.05014083968683" y="148.84286762009532" font-size="10px">14x</text><text class="label" x="459.663418734309" y="162.04418775210854" font-size="10px">13.32x</text><text class="label" x="181.10758167246203" y="175.24550788412174" font-size="10px">1x</text><text class="label" x="183.64250497652736" y="188.44682801613493" font-size="10px">1.11x</text><text class="label" x="440.20999421684314" y="137.14154748808213" font-size="8px"></text><text class="label" x="471.55014083968683" y="150.34286762009532" font-size="8px"></text><text class="label" x="456.163418734309" y="163.54418775210854" font-size="8px"></text><text class="label" x="177.60758167246203" y="176.74550788412174" font-size="8px"></text><text class="label" x="180.14250497652736" y="189.94682801613493" font-size="8px"></text></g><g style="font-size: 13px;"><rect x="150" y="201.2156215621562" width="285.662475006329" height="12.541254125412543" fill="#4472c4"></rect><rect x="150" y="214.4169416941694" width="303.20551874122157" height="12.541254125412543" fill="#ed7d31"></rect><rect x="150" y="227.61826182618262" width="281.20757261433585" height="12.541254125412543" fill="#a5a5a5"></rect><rect x="150" y="240.8195819581958" width="22.607581672462043" height="12.541254125412543" fill="#ffc000"></rect><rect x="150" y="254.020902090209" width="23.334007110502903" height="12.541254125412543" fill="#5b9bd5"></rect><text class="label" x="444.162475006329" y="209.7156215621562" font-size="10px">12.64x</text><text class="label" x="461.70551874122157" y="222.9169416941694" font-size="10px">13.41x</text><text class="label" x="439.70757261433585" y="236.11826182618262" font-size="10px">12.44x</text><text class="label" x="181.10758167246203" y="249.3195819581958" font-size="10px">1x</text><text class="label" x="181.8340071105029" y="262.520902090209" font-size="10px">1.03x</text><text class="label" x="440.662475006329" y="211.2156215621562" font-size="8px"></text><text class="label" x="458.20551874122157" y="224.4169416941694" font-size="8px"></text><text class="label" x="436.20757261433585" y="237.61826182618262" font-size="8px"></text><text class="label" x="177.60758167246203" y="250.8195819581958" font-size="8px"></text><text class="label" x="178.3340071105029" y="264.020902090209" font-size="8px"></text></g><g style="font-size: 13px;"><rect x="150" y="275.28969563623025" width="418.09975561044007" height="12.541254125412543" fill="#4472c4"></rect><rect x="150" y="288.49101576824347" width="440.9090909090908" height="12.541254125412543" fill="#ed7d31"></rect><rect x="150" y="301.6923359002567" width="285.542543026563" height="12.541254125412543" fill="#a5a5a5"></rect><rect x="150" y="314.89365603226986" width="22.607581672462043" height="12.541254125412543" fill="#ffc000"></rect><rect x="150" y="328.0949761642831" width="22.978948754036303" height="12.541254125412543" fill="#5b9bd5"></rect><text class="label" x="576.5997556104401" y="283.78969563623025" font-size="10px">18.49x</text><text class="label" x="599.4090909090908" y="296.99101576824347" font-size="10px">19.5x</text><text class="label" x="444.042543026563" y="310.1923359002567" font-size="10px">12.63x</text><text class="label" x="181.10758167246203" y="323.39365603226986" font-size="10px">1x</text><text class="label" x="181.4789487540363" y="336.5949761642831" font-size="10px">1.02x</text><text class="label" x="573.0997556104401" y="285.28969563623025" font-size="8px"></text><text class="label" x="595.9090909090908" y="298.49101576824347" font-size="8px"></text><text class="label" x="440.542543026563" y="311.6923359002567" font-size="8px"></text><text class="label" x="177.60758167246203" y="324.89365603226986" font-size="8px"></text><text class="label" x="177.9789487540363" y="338.0949761642831" font-size="8px"></text></g><g style="font-size: 13px;"><rect x="150" y="349.3637697103044" width="264.1382805662154" height="12.541254125412543" fill="#4472c4"></rect><rect x="150" y="362.56508984231755" width="276.9668558919423" height="12.541254125412543" fill="#ed7d31"></rect><rect x="150" y="375.76640997433077" width="268.16003579294454" height="12.541254125412543" fill="#a5a5a5"></rect><rect x="150" y="388.967730106344" width="22.607581672462043" height="12.541254125412543" fill="#ffc000"></rect><rect x="150" y="402.16905023835716" width="22.995618257051746" height="12.541254125412543" fill="#5b9bd5"></rect><text class="label" x="422.6382805662154" y="357.8637697103044" font-size="10px">11.68x</text><text class="label" x="435.4668558919423" y="371.06508984231755" font-size="10px">12.25x</text><text class="label" x="426.66003579294454" y="384.26640997433077" font-size="10px">11.86x</text><text class="label" x="181.10758167246203" y="397.467730106344" font-size="10px">1x</text><text class="label" x="181.49561825705175" y="410.66905023835716" font-size="10px">1.02x</text><text class="label" x="419.1382805662154" y="359.3637697103044" font-size="8px"></text><text class="label" x="431.9668558919423" y="372.56508984231755" font-size="8px"></text><text class="label" x="423.16003579294454" y="385.76640997433077" font-size="8px"></text><text class="label" x="177.60758167246203" y="398.967730106344" font-size="8px"></text><text class="label" x="177.99561825705175" y="412.16905023835716" font-size="8px"></text></g><g style="font-size: 13px;"><rect x="150" y="423.4378437843784" width="382.5370800699754" height="12.541254125412543" fill="#4472c4"></rect><rect x="150" y="436.6391639163916" width="288.50569874659203" height="12.541254125412543" fill="#ed7d31"></rect><rect x="150" y="449.84048404840485" width="323.2328173864475" height="12.541254125412543" fill="#a5a5a5"></rect><rect x="150" y="463.041804180418" width="23.706710254386245" height="12.541254125412543" fill="#ffc000"></rect><rect x="150" y="476.24312431243123" width="22.607581672462043" height="12.541254125412543" fill="#5b9bd5"></rect><text class="label" x="541.0370800699754" y="431.9378437843784" font-size="10px">16.92x</text><text class="label" x="447.00569874659203" y="445.1391639163916" font-size="10px">12.76x</text><text class="label" x="481.7328173864475" y="458.34048404840485" font-size="10px">14.3x</text><text class="label" x="182.20671025438625" y="471.541804180418" font-size="10px">1.05x</text><text class="label" x="181.10758167246203" y="484.74312431243123" font-size="10px">1x</text><text class="label" x="537.5370800699754" y="433.4378437843784" font-size="8px"></text><text class="label" x="443.50569874659203" y="446.6391639163916" font-size="8px"></text><text class="label" x="478.2328173864475" y="459.84048404840485" font-size="8px"></text><text class="label" x="178.70671025438625" y="473.041804180418" font-size="8px"></text><text class="label" x="177.60758167246203" y="486.24312431243123" font-size="8px"></text></g><g style="font-size: 13px;"><rect x="150" y="497.51191785845253" width="323.0506985505408" height="12.541254125412543" fill="#4472c4"></rect><rect x="150" y="510.7132379904657" width="309.3232826279185" height="12.541254125412543" fill="#ed7d31"></rect><rect x="150" y="523.9145581224789" width="310.7163545032563" height="12.541254125412543" fill="#a5a5a5"></rect><rect x="150" y="537.1158782544921" width="22.607581672462043" height="12.541254125412543" fill="#ffc000"></rect><rect x="150" y="550.3171983865053" width="23.413175422914257" height="12.541254125412543" fill="#5b9bd5"></rect><text class="label" x="481.5506985505408" y="506.01191785845253" font-size="10px">14.29x</text><text class="label" x="467.8232826279185" y="519.2132379904657" font-size="10px">13.68x</text><text class="label" x="469.2163545032563" y="532.4145581224789" font-size="10px">13.74x</text><text class="label" x="181.10758167246203" y="545.6158782544921" font-size="10px">1x</text><text class="label" x="181.91317542291426" y="558.8171983865053" font-size="10px">1.04x</text><text class="label" x="478.0506985505408" y="507.51191785845253" font-size="8px"></text><text class="label" x="464.3232826279185" y="520.7132379904657" font-size="8px"></text><text class="label" x="465.7163545032563" y="533.9145581224789" font-size="8px"></text><text class="label" x="177.60758167246203" y="547.1158782544921" font-size="8px"></text><text class="label" x="178.41317542291426" y="560.3171983865053" font-size="8px"></text></g><g style="font-size: 13px;"><rect x="150" y="571.5859919325266" width="375.0992424823095" height="12.541254125412543" fill="#4472c4"></rect><rect x="150" y="584.7873120645397" width="374.7625605105919" height="12.541254125412543" fill="#ed7d31"></rect><rect x="150" y="597.9886321965529" width="261.5856694383381" height="12.541254125412543" fill="#a5a5a5"></rect><rect x="150" y="611.1899523285662" width="22.607581672462043" height="12.541254125412543" fill="#ffc000"></rect><rect x="150" y="624.3912724605793" width="23.375947674144832" height="12.541254125412543" fill="#5b9bd5"></rect><text class="label" x="533.5992424823095" y="580.0859919325266" font-size="10px">16.59x</text><text class="label" x="533.2625605105919" y="593.2873120645397" font-size="10px">16.58x</text><text class="label" x="420.0856694383381" y="606.4886321965529" font-size="10px">11.57x</text><text class="label" x="181.10758167246203" y="619.6899523285662" font-size="10px">1x</text><text class="label" x="181.87594767414484" y="632.8912724605793" font-size="10px">1.03x</text><text class="label" x="530.0992424823095" y="581.5859919325266" font-size="8px"></text><text class="label" x="529.7625605105919" y="594.7873120645397" font-size="8px"></text><text class="label" x="416.5856694383381" y="607.9886321965529" font-size="8px"></text><text class="label" x="177.60758167246203" y="621.1899523285662" font-size="8px"></text><text class="label" x="178.37594767414484" y="634.3912724605793" font-size="8px"></text></g></g></svg>