<svg xmlns="http://www.w3.org/2000/svg" xmlns:xlink="http://www.w3.org/1999/xlink" width="800" height="794" style="background-color: white;"><g class="y axis" transform="translate(149,45)" fill="none" font-size="10" font-family="sans-serif" text-anchor="end" style="font-size: 13px;"><path class="domain" stroke="currentColor" d="M0.5,0.5V600.5"></path><g class="tick" opacity="1" transform="translate(0,40.740740740740726)" style="font-size: 13px;"><line stroke="currentColor" x2="0"></line><text fill="currentColor" x="-3" dy="0.32em">object (simple)    </text></g><g class="tick" opacity="1" transform="translate(0,114.81481481481481)" style="font-size: 13px;"><line stroke="currentColor" x2="0"></line><text fill="currentColor" x="-3" dy="0.32em">object (hierarchical)    </text></g><g class="tick" opacity="1" transform="translate(0,188.88888888888889)" style="font-size: 13px;"><line stroke="currentColor" x2="0"></line><text fill="currentColor" x="-3" dy="0.32em">object (recursive)    </text></g><g class="tick" opacity="1" transform="translate(0,262.96296296296293)" style="font-size: 13px;"><line stroke="currentColor" x2="0"></line><text fill="currentColor" x="-3" dy="0.32em">object (union, explicit)    </text></g><g class="tick" opacity="1" transform="translate(0,337.037037037037)" style="font-size: 13px;"><line stroke="currentColor" x2="0"></line><text fill="currentColor" x="-3" dy="0.32em">array (simple)    </text></g><g class="tick" opacity="1" transform="translate(0,411.1111111111111)" style="font-size: 13px;"><line stroke="currentColor" x2="0"></line><text fill="currentColor" x="-3" dy="0.32em">array (hierarchical)    </text></g><g class="tick" opacity="1" transform="translate(0,485.18518518518516)" style="font-size: 13px;"><line stroke="currentColor" x2="0"></line><text fill="currentColor" x="-3" dy="0.32em">array (recursive)    </text></g><g class="tick" opacity="1" transform="translate(0,559.2592592592592)" style="font-size: 13px;"><line stroke="currentColor" x2="0"></line><text fill="currentColor" x="-3" dy="0.32em">array (union, explicit)    </text></g></g><g class="x axis" transform="translate(149,645)" fill="none" font-size="10" font-family="sans-serif" text-anchor="middle" style="font-size: 13px;"><path class="domain" stroke="currentColor" d="M0.5,0.5H485.5"></path><g class="tick" opacity="1" transform="translate(0.5,0)" style="font-size: 13px;"><line stroke="currentColor" y2="6"></line><text fill="currentColor" y="9" dy="0.71em">0x</text></g><g class="tick" opacity="1" transform="translate(90.55354274067146,0)" style="font-size: 13px;"><line stroke="currentColor" y2="6"></line><text fill="currentColor" y="9" dy="0.71em">5x</text></g><g class="tick" opacity="1" transform="translate(180.60708548134292,0)" style="font-size: 13px;"><line stroke="currentColor" y2="6"></line><text fill="currentColor" y="9" dy="0.71em">10x</text></g><g class="tick" opacity="1" transform="translate(270.6606282220144,0)" style="font-size: 13px;"><line stroke="currentColor" y2="6"></line><text fill="currentColor" y="9" dy="0.71em">15x</text></g><g class="tick" opacity="1" transform="translate(360.71417096268584,0)" style="font-size: 13px;"><line stroke="currentColor" y2="6"></line><text fill="currentColor" y="9" dy="0.71em">20x</text></g><g class="tick" opacity="1" transform="translate(450.7677137033574,0)" style="font-size: 13px;"><line stroke="currentColor" y2="6"></line><text fill="currentColor" y="9" dy="0.71em">25x</text></g></g><text transform="translate(400, 30)" style="text-anchor: middle; font-size: 20px; font-weight: bold;">performance benchmark</text><rect x="650" y="145" width="230" height="5" fill="gray"></rect><rect x="645" y="35" width="230" height="110" fill="none" stroke="black"></rect><rect x="655" y="45" width="10" height="10" style="fill: #4472c4;"></rect><text x="670" y="55" style="font-size: 12px;">nestia-express</text><rect x="655" y="65" width="10" height="10" style="fill: #ed7d31;"></rect><text x="670" y="75" style="font-size: 12px;">nestia-fastify</text><rect x="655" y="85" width="10" height="10" style="fill: #a5a5a5;"></rect><text x="670" y="95" style="font-size: 12px;">fastify</text><rect x="655" y="105" width="10" height="10" style="fill: #ffc000;"></rect><text x="670" y="115" style="font-size: 12px;">NestJS-express</text><rect x="655" y="125" width="10" height="10" style="fill: #5b9bd5;"></rect><text x="670" y="135" style="font-size: 12px;">NestJS-fastify</text><text x="20" y="709" style="font-size: 12px;">  - CPU: AMD EPYC 7763 64-Core Processor</text><text x="20" y="726" style="font-size: 12px;">  - OS: linux</text><text x="20" y="743" style="font-size: 12px;">  - RAM: 63 GB</text><text x="20" y="760" style="font-size: 12px;">  - NodeJS version: v19.9.0</text><text x="20" y="777" style="font-size: 12px;">  - Nestia version: v1.4.0</text><g style="font-size: 13px;"><g style="font-size: 13px;"><rect x="150" y="53.06747341400805" width="113.55638797664581" height="12.541254125412543" fill="#4472c4"></rect><rect x="150" y="66.26879354602124" width="163.8371961648516" height="12.541254125412543" fill="#ed7d31"></rect><rect x="150" y="79.47011367803445" width="165.83007345206252" height="12.541254125412543" fill="#a5a5a5"></rect><rect x="150" y="92.67143381004766" width="18.010708548134296" height="12.541254125412543" fill="#ffc000"></rect><rect x="150" y="105.87275394206085" width="20.68152601451914" height="12.541254125412543" fill="#5b9bd5"></rect><text class="label" x="272.0563879766458" y="61.56747341400805" font-size="10px">6.3x</text><text class="label" x="322.3371961648516" y="74.76879354602124" font-size="10px">9.1x</text><text class="label" x="324.3300734520625" y="87.97011367803445" font-size="10px">9.21x</text><text class="label" x="176.5107085481343" y="101.17143381004766" font-size="10px">1x</text><text class="label" x="179.18152601451914" y="114.37275394206085" font-size="10px">1.15x</text><text class="label" x="268.5563879766458" y="63.06747341400805" font-size="8px"></text><text class="label" x="318.8371961648516" y="76.26879354602124" font-size="8px"></text><text class="label" x="320.8300734520625" y="89.47011367803445" font-size="8px"></text><text class="label" x="173.0107085481343" y="102.67143381004766" font-size="8px"></text><text class="label" x="175.68152601451914" y="115.87275394206085" font-size="8px"></text></g><g style="font-size: 13px;"><rect x="150" y="127.14154748808213" width="111.20098928184666" height="12.541254125412543" fill="#4472c4"></rect><rect x="150" y="140.34286762009532" width="124.24837489592909" height="12.541254125412543" fill="#ed7d31"></rect><rect x="150" y="153.54418775210854" width="119.75628107314685" height="12.541254125412543" fill="#a5a5a5"></rect><rect x="150" y="166.74550788412174" width="18.010708548134296" height="12.541254125412543" fill="#ffc000"></rect><rect x="150" y="179.94682801613493" width="19.93346269362106" height="12.541254125412543" fill="#5b9bd5"></rect><text class="label" x="269.70098928184666" y="135.64154748808213" font-size="10px">6.17x</text><text class="label" x="282.7483748959291" y="148.84286762009532" font-size="10px">6.9x</text><text class="label" x="278.25628107314685" y="162.04418775210854" font-size="10px">6.65x</text><text class="label" x="176.5107085481343" y="175.24550788412174" font-size="10px">1x</text><text class="label" x="178.43346269362107" y="188.44682801613493" font-size="10px">1.11x</text><text class="label" x="266.20098928184666" y="137.14154748808213" font-size="8px"></text><text class="label" x="279.2483748959291" y="150.34286762009532" font-size="8px"></text><text class="label" x="274.75628107314685" y="163.54418775210854" font-size="8px"></text><text class="label" x="173.0107085481343" y="176.74550788412174" font-size="8px"></text><text class="label" x="174.93346269362107" y="189.94682801613493" font-size="8px"></text></g><g style="font-size: 13px;"><rect x="150" y="201.2156215621562" width="113.22438127108006" height="12.541254125412543" fill="#4472c4"></rect><rect x="150" y="214.4169416941694" width="124.62705047711208" height="12.541254125412543" fill="#ed7d31"></rect><rect x="150" y="227.61826182618262" width="95.41197882756009" height="12.541254125412543" fill="#a5a5a5"></rect><rect x="150" y="240.8195819581958" width="18.010708548134296" height="12.541254125412543" fill="#ffc000"></rect><rect x="150" y="254.020902090209" width="18.741726453693616" height="12.541254125412543" fill="#5b9bd5"></rect><text class="label" x="271.72438127108006" y="209.7156215621562" font-size="10px">6.29x</text><text class="label" x="283.1270504771121" y="222.9169416941694" font-size="10px">6.92x</text><text class="label" x="253.9119788275601" y="236.11826182618262" font-size="10px">5.3x</text><text class="label" x="176.5107085481343" y="249.3195819581958" font-size="10px">1x</text><text class="label" x="177.24172645369362" y="262.520902090209" font-size="10px">1.04x</text><text class="label" x="268.22438127108006" y="211.2156215621562" font-size="8px"></text><text class="label" x="279.6270504771121" y="224.4169416941694" font-size="8px"></text><text class="label" x="250.4119788275601" y="237.61826182618262" font-size="8px"></text><text class="label" x="173.0107085481343" y="250.8195819581958" font-size="8px"></text><text class="label" x="173.74172645369362" y="264.020902090209" font-size="8px"></text></g><g style="font-size: 13px;"><rect x="150" y="275.28969563623025" width="349.86148200364477" height="12.541254125412543" fill="#4472c4"></rect><rect x="150" y="288.49101576824347" width="440.9090909090909" height="12.541254125412543" fill="#ed7d31"></rect><rect x="150" y="301.6923359002567" width="297.17482018691607" height="12.541254125412543" fill="#a5a5a5"></rect><rect x="150" y="314.89365603226986" width="18.065475634831273" height="12.541254125412543" fill="#ffc000"></rect><rect x="150" y="328.0949761642831" width="18.010708548134296" height="12.541254125412543" fill="#5b9bd5"></rect><text class="label" x="508.36148200364477" y="283.78969563623025" font-size="10px">19.43x</text><text class="label" x="599.4090909090909" y="296.99101576824347" font-size="10px">24.48x</text><text class="label" x="455.67482018691607" y="310.1923359002567" font-size="10px">16.5x</text><text class="label" x="176.56547563483127" y="323.39365603226986" font-size="10px">1x</text><text class="label" x="176.5107085481343" y="336.5949761642831" font-size="10px">1x</text><text class="label" x="504.86148200364477" y="285.28969563623025" font-size="8px"></text><text class="label" x="595.9090909090909" y="298.49101576824347" font-size="8px"></text><text class="label" x="452.17482018691607" y="311.6923359002567" font-size="8px"></text><text class="label" x="173.06547563483127" y="324.89365603226986" font-size="8px"></text><text class="label" x="173.0107085481343" y="338.0949761642831" font-size="8px"></text></g><g style="font-size: 13px;"><rect x="150" y="349.3637697103044" width="173.79901142130032" height="12.541254125412543" fill="#4472c4"></rect><rect x="150" y="362.56508984231755" width="184.88671786515852" height="12.541254125412543" fill="#ed7d31"></rect><rect x="150" y="375.76640997433077" width="188.06425061443124" height="12.541254125412543" fill="#a5a5a5"></rect><rect x="150" y="388.967730106344" width="18.010708548134296" height="12.541254125412543" fill="#ffc000"></rect><rect x="150" y="402.16905023835716" width="18.17956967149402" height="12.541254125412543" fill="#5b9bd5"></rect><text class="label" x="332.2990114213003" y="357.8637697103044" font-size="10px">9.65x</text><text class="label" x="343.3867178651585" y="371.06508984231755" font-size="10px">10.27x</text><text class="label" x="346.5642506144312" y="384.26640997433077" font-size="10px">10.44x</text><text class="label" x="176.5107085481343" y="397.467730106344" font-size="10px">1x</text><text class="label" x="176.67956967149402" y="410.66905023835716" font-size="10px">1.01x</text><text class="label" x="328.7990114213003" y="359.3637697103044" font-size="8px"></text><text class="label" x="339.8867178651585" y="372.56508984231755" font-size="8px"></text><text class="label" x="343.0642506144312" y="385.76640997433077" font-size="8px"></text><text class="label" x="173.0107085481343" y="398.967730106344" font-size="8px"></text><text class="label" x="173.17956967149402" y="412.16905023835716" font-size="8px"></text></g><g style="font-size: 13px;"><rect x="150" y="423.4378437843784" width="323.8068788361985" height="12.541254125412543" fill="#4472c4"></rect><rect x="150" y="436.6391639163916" width="346.4470533296696" height="12.541254125412543" fill="#ed7d31"></rect><rect x="150" y="449.84048404840485" width="305.9689995765792" height="12.541254125412543" fill="#a5a5a5"></rect><rect x="150" y="463.041804180418" width="22.058814135438098" height="12.541254125412543" fill="#ffc000"></rect><rect x="150" y="476.24312431243123" width="18.010708548134296" height="12.541254125412543" fill="#5b9bd5"></rect><text class="label" x="482.3068788361985" y="431.9378437843784" font-size="10px">17.98x</text><text class="label" x="504.9470533296696" y="445.1391639163916" font-size="10px">19.24x</text><text class="label" x="464.4689995765792" y="458.34048404840485" font-size="10px">16.99x</text><text class="label" x="180.5588141354381" y="471.541804180418" font-size="10px">1.22x</text><text class="label" x="176.5107085481343" y="484.74312431243123" font-size="10px">1x</text><text class="label" x="478.8068788361985" y="433.4378437843784" font-size="8px"></text><text class="label" x="501.4470533296696" y="446.6391639163916" font-size="8px"></text><text class="label" x="460.9689995765792" y="459.84048404840485" font-size="8px"></text><text class="label" x="177.0588141354381" y="473.041804180418" font-size="8px"></text><text class="label" x="173.0107085481343" y="486.24312431243123" font-size="8px"></text></g><g style="font-size: 13px;"><rect x="150" y="497.51191785845253" width="129.00382634579918" height="12.541254125412543" fill="#4472c4"></rect><rect x="150" y="510.7132379904657" width="130.77900260552076" height="12.541254125412543" fill="#ed7d31"></rect><rect x="150" y="523.9145581224789" width="137.3350171588012" height="12.541254125412543" fill="#a5a5a5"></rect><rect x="150" y="537.1158782544921" width="18.010708548134296" height="12.541254125412543" fill="#ffc000"></rect><rect x="150" y="550.3171983865053" width="19.324361187757745" height="12.541254125412543" fill="#5b9bd5"></rect><text class="label" x="287.5038263457992" y="506.01191785845253" font-size="10px">7.16x</text><text class="label" x="289.27900260552076" y="519.2132379904657" font-size="10px">7.26x</text><text class="label" x="295.8350171588012" y="532.4145581224789" font-size="10px">7.63x</text><text class="label" x="176.5107085481343" y="545.6158782544921" font-size="10px">1x</text><text class="label" x="177.82436118775775" y="558.8171983865053" font-size="10px">1.07x</text><text class="label" x="284.0038263457992" y="507.51191785845253" font-size="8px"></text><text class="label" x="285.77900260552076" y="520.7132379904657" font-size="8px"></text><text class="label" x="292.3350171588012" y="533.9145581224789" font-size="8px"></text><text class="label" x="173.0107085481343" y="547.1158782544921" font-size="8px"></text><text class="label" x="174.32436118775775" y="560.3171983865053" font-size="8px"></text></g><g style="font-size: 13px;"><rect x="150" y="571.5859919325266" width="258.48777167566465" height="12.541254125412543" fill="#4472c4"></rect><rect x="150" y="584.7873120645397" width="256.68078457759214" height="12.541254125412543" fill="#ed7d31"></rect><rect x="150" y="597.9886321965529" width="116.3667834748735" height="12.541254125412543" fill="#a5a5a5"></rect><rect x="150" y="611.1899523285662" width="18.159979055030494" height="12.541254125412543" fill="#ffc000"></rect><rect x="150" y="624.3912724605793" width="18.010708548134296" height="12.541254125412543" fill="#5b9bd5"></rect><text class="label" x="416.98777167566465" y="580.0859919325266" font-size="10px">14.35x</text><text class="label" x="415.18078457759214" y="593.2873120645397" font-size="10px">14.25x</text><text class="label" x="274.8667834748735" y="606.4886321965529" font-size="10px">6.46x</text><text class="label" x="176.6599790550305" y="619.6899523285662" font-size="10px">1.01x</text><text class="label" x="176.5107085481343" y="632.8912724605793" font-size="10px">1x</text><text class="label" x="413.48777167566465" y="581.5859919325266" font-size="8px"></text><text class="label" x="411.68078457759214" y="594.7873120645397" font-size="8px"></text><text class="label" x="271.3667834748735" y="607.9886321965529" font-size="8px"></text><text class="label" x="173.1599790550305" y="621.1899523285662" font-size="8px"></text><text class="label" x="173.0107085481343" y="634.3912724605793" font-size="8px"></text></g></g></svg>