<svg xmlns="http://www.w3.org/2000/svg" xmlns:xlink="http://www.w3.org/1999/xlink" width="800" height="794" style="background-color: white;"><g class="y axis" transform="translate(149,45)" fill="none" font-size="10" font-family="sans-serif" text-anchor="end" style="font-size: 13px;"><path class="domain" stroke="currentColor" d="M0.5,0.5V600.5"></path><g class="tick" opacity="1" transform="translate(0,40.740740740740726)" style="font-size: 13px;"><line stroke="currentColor" x2="0"></line><text fill="currentColor" x="-3" dy="0.32em">object (simple)    </text></g><g class="tick" opacity="1" transform="translate(0,114.81481481481481)" style="font-size: 13px;"><line stroke="currentColor" x2="0"></line><text fill="currentColor" x="-3" dy="0.32em">object (hierarchical)    </text></g><g class="tick" opacity="1" transform="translate(0,188.88888888888889)" style="font-size: 13px;"><line stroke="currentColor" x2="0"></line><text fill="currentColor" x="-3" dy="0.32em">object (recursive)    </text></g><g class="tick" opacity="1" transform="translate(0,262.96296296296293)" style="font-size: 13px;"><line stroke="currentColor" x2="0"></line><text fill="currentColor" x="-3" dy="0.32em">object (union, explicit)    </text></g><g class="tick" opacity="1" transform="translate(0,337.037037037037)" style="font-size: 13px;"><line stroke="currentColor" x2="0"></line><text fill="currentColor" x="-3" dy="0.32em">array (simple)    </text></g><g class="tick" opacity="1" transform="translate(0,411.1111111111111)" style="font-size: 13px;"><line stroke="currentColor" x2="0"></line><text fill="currentColor" x="-3" dy="0.32em">array (hierarchical)    </text></g><g class="tick" opacity="1" transform="translate(0,485.18518518518516)" style="font-size: 13px;"><line stroke="currentColor" x2="0"></line><text fill="currentColor" x="-3" dy="0.32em">array (recursive)    </text></g><g class="tick" opacity="1" transform="translate(0,559.2592592592592)" style="font-size: 13px;"><line stroke="currentColor" x2="0"></line><text fill="currentColor" x="-3" dy="0.32em">array (union, explicit)    </text></g></g><g class="x axis" transform="translate(149,645)" fill="none" font-size="10" font-family="sans-serif" text-anchor="middle" style="font-size: 13px;"><path class="domain" stroke="currentColor" d="M0.5,0.5H485.5"></path><g class="tick" opacity="1" transform="translate(0.5,0)" style="font-size: 13px;"><line stroke="currentColor" y2="6"></line><text fill="currentColor" y="9" dy="0.71em">0x</text></g><g class="tick" opacity="1" transform="translate(83.41329422431438,0)" style="font-size: 13px;"><line stroke="currentColor" y2="6"></line><text fill="currentColor" y="9" dy="0.71em">2x</text></g><g class="tick" opacity="1" transform="translate(166.32658844862877,0)" style="font-size: 13px;"><line stroke="currentColor" y2="6"></line><text fill="currentColor" y="9" dy="0.71em">4x</text></g><g class="tick" opacity="1" transform="translate(249.23988267294314,0)" style="font-size: 13px;"><line stroke="currentColor" y2="6"></line><text fill="currentColor" y="9" dy="0.71em">6x</text></g><g class="tick" opacity="1" transform="translate(332.15317689725754,0)" style="font-size: 13px;"><line stroke="currentColor" y2="6"></line><text fill="currentColor" y="9" dy="0.71em">8x</text></g><g class="tick" opacity="1" transform="translate(415.0664711215719,0)" style="font-size: 13px;"><line stroke="currentColor" y2="6"></line><text fill="currentColor" y="9" dy="0.71em">10x</text></g></g><text transform="translate(400, 30)" style="text-anchor: middle; font-size: 20px; font-weight: bold;">stringify benchmark</text><rect x="650" y="145" width="230" height="5" fill="gray"></rect><rect x="645" y="35" width="230" height="110" fill="none" stroke="black"></rect><rect x="655" y="45" width="10" height="10" style="fill: #4472c4;"></rect><text x="670" y="55" style="font-size: 12px;">nestia-express</text><rect x="655" y="65" width="10" height="10" style="fill: #ed7d31;"></rect><text x="670" y="75" style="font-size: 12px;">nestia-fastify</text><rect x="655" y="85" width="10" height="10" style="fill: #a5a5a5;"></rect><text x="670" y="95" style="font-size: 12px;">fastify</text><rect x="655" y="105" width="10" height="10" style="fill: #ffc000;"></rect><text x="670" y="115" style="font-size: 12px;">NestJS-express</text><rect x="655" y="125" width="10" height="10" style="fill: #5b9bd5;"></rect><text x="670" y="135" style="font-size: 12px;">NestJS-fastify</text><text x="20" y="709" style="font-size: 12px;">  - CPU: AMD EPYC 7763 64-Core Processor</text><text x="20" y="726" style="font-size: 12px;">  - OS: linux</text><text x="20" y="743" style="font-size: 12px;">  - RAM: 63 GB</text><text x="20" y="760" style="font-size: 12px;">  - NodeJS version: v19.9.0</text><text x="20" y="777" style="font-size: 12px;">  - Nestia version: v1.4.0</text><g style="font-size: 13px;"><g style="font-size: 13px;"><rect x="150" y="53.06747341400805" width="215.97655298484327" height="12.541254125412543" fill="#4472c4"></rect><rect x="150" y="66.26879354602124" width="440.9090909090909" height="12.541254125412543" fill="#ed7d31"></rect><rect x="150" y="79.47011367803445" width="401.1229704204135" height="12.541254125412543" fill="#a5a5a5"></rect><rect x="150" y="92.67143381004766" width="41.45664711215719" height="12.541254125412543" fill="#ffc000"></rect><rect x="150" y="105.87275394206085" width="48.328424703043524" height="12.541254125412543" fill="#5b9bd5"></rect><text class="label" x="374.47655298484324" y="61.56747341400805" font-size="10px">5.21x</text><text class="label" x="599.4090909090909" y="74.76879354602124" font-size="10px">10.64x</text><text class="label" x="559.6229704204135" y="87.97011367803445" font-size="10px">9.68x</text><text class="label" x="199.95664711215719" y="101.17143381004766" font-size="10px">1x</text><text class="label" x="206.82842470304354" y="114.37275394206085" font-size="10px">1.17x</text><text class="label" x="370.97655298484324" y="63.06747341400805" font-size="8px"></text><text class="label" x="595.9090909090909" y="76.26879354602124" font-size="8px"></text><text class="label" x="556.1229704204135" y="89.47011367803445" font-size="8px"></text><text class="label" x="196.45664711215719" y="102.67143381004766" font-size="8px"></text><text class="label" x="203.32842470304354" y="115.87275394206085" font-size="8px"></text></g><g style="font-size: 13px;"><rect x="150" y="127.14154748808213" width="180.4927759395595" height="12.541254125412543" fill="#4472c4"></rect><rect x="150" y="140.34286762009532" width="206.56969361276686" height="12.541254125412543" fill="#ed7d31"></rect><rect x="150" y="153.54418775210854" width="200.77756573940854" height="12.541254125412543" fill="#a5a5a5"></rect><rect x="150" y="166.74550788412174" width="41.45664711215719" height="12.541254125412543" fill="#ffc000"></rect><rect x="150" y="179.94682801613493" width="42.02562419313527" height="12.541254125412543" fill="#5b9bd5"></rect><text class="label" x="338.99277593955946" y="135.64154748808213" font-size="10px">4.35x</text><text class="label" x="365.06969361276686" y="148.84286762009532" font-size="10px">4.98x</text><text class="label" x="359.27756573940854" y="162.04418775210854" font-size="10px">4.84x</text><text class="label" x="199.95664711215719" y="175.24550788412174" font-size="10px">1x</text><text class="label" x="200.5256241931353" y="188.44682801613493" font-size="10px">1.01x</text><text class="label" x="335.49277593955946" y="137.14154748808213" font-size="8px"></text><text class="label" x="361.56969361276686" y="150.34286762009532" font-size="8px"></text><text class="label" x="355.77756573940854" y="163.54418775210854" font-size="8px"></text><text class="label" x="196.45664711215719" y="176.74550788412174" font-size="8px"></text><text class="label" x="197.0256241931353" y="189.94682801613493" font-size="8px"></text></g><g style="font-size: 13px;"><rect x="150" y="201.2156215621562" width="198.10253864882912" height="12.541254125412543" fill="#4472c4"></rect><rect x="150" y="214.4169416941694" width="220.59148721416977" height="12.541254125412543" fill="#ed7d31"></rect><rect x="150" y="227.61826182618262" width="146.7276394469316" height="12.541254125412543" fill="#a5a5a5"></rect><rect x="150" y="240.8195819581958" width="41.45664711215719" height="12.541254125412543" fill="#ffc000"></rect><rect x="150" y="254.020902090209" width="43.03623116547161" height="12.541254125412543" fill="#5b9bd5"></rect><text class="label" x="356.6025386488291" y="209.7156215621562" font-size="10px">4.78x</text><text class="label" x="379.0914872141698" y="222.9169416941694" font-size="10px">5.32x</text><text class="label" x="305.22763944693156" y="236.11826182618262" font-size="10px">3.54x</text><text class="label" x="199.95664711215719" y="249.3195819581958" font-size="10px">1x</text><text class="label" x="201.5362311654716" y="262.520902090209" font-size="10px">1.04x</text><text class="label" x="353.1025386488291" y="211.2156215621562" font-size="8px"></text><text class="label" x="375.5914872141698" y="224.4169416941694" font-size="8px"></text><text class="label" x="301.72763944693156" y="237.61826182618262" font-size="8px"></text><text class="label" x="196.45664711215719" y="250.8195819581958" font-size="8px"></text><text class="label" x="198.0362311654716" y="264.020902090209" font-size="8px"></text></g><g style="font-size: 13px;"><rect x="150" y="275.28969563623025" width="338.6123415049643" height="12.541254125412543" fill="#4472c4"></rect><rect x="150" y="288.49101576824347" width="360.4756385568595" height="12.541254125412543" fill="#ed7d31"></rect><rect x="150" y="301.6923359002567" width="363.75941841102565" height="12.541254125412543" fill="#a5a5a5"></rect><rect x="150" y="314.89365603226986" width="42.08566988505424" height="12.541254125412543" fill="#ffc000"></rect><rect x="150" y="328.0949761642831" width="41.45664711215719" height="12.541254125412543" fill="#5b9bd5"></rect><text class="label" x="497.1123415049643" y="283.78969563623025" font-size="10px">8.17x</text><text class="label" x="518.9756385568595" y="296.99101576824347" font-size="10px">8.7x</text><text class="label" x="522.2594184110256" y="310.1923359002567" font-size="10px">8.77x</text><text class="label" x="200.58566988505424" y="323.39365603226986" font-size="10px">1.02x</text><text class="label" x="199.95664711215719" y="336.5949761642831" font-size="10px">1x</text><text class="label" x="493.6123415049643" y="285.28969563623025" font-size="8px"></text><text class="label" x="515.4756385568595" y="298.49101576824347" font-size="8px"></text><text class="label" x="518.7594184110256" y="311.6923359002567" font-size="8px"></text><text class="label" x="197.08566988505424" y="324.89365603226986" font-size="8px"></text><text class="label" x="196.45664711215719" y="338.0949761642831" font-size="8px"></text></g><g style="font-size: 13px;"><rect x="150" y="349.3637697103044" width="163.57330303864566" height="12.541254125412543" fill="#4472c4"></rect><rect x="150" y="362.56508984231755" width="170.21591970453645" height="12.541254125412543" fill="#ed7d31"></rect><rect x="150" y="375.76640997433077" width="167.84601200093863" height="12.541254125412543" fill="#a5a5a5"></rect><rect x="150" y="388.967730106344" width="41.45664711215719" height="12.541254125412543" fill="#ffc000"></rect><rect x="150" y="402.16905023835716" width="41.67098370152689" height="12.541254125412543" fill="#5b9bd5"></rect><text class="label" x="322.0733030386457" y="357.8637697103044" font-size="10px">3.95x</text><text class="label" x="328.7159197045364" y="371.06508984231755" font-size="10px">4.11x</text><text class="label" x="326.34601200093863" y="384.26640997433077" font-size="10px">4.05x</text><text class="label" x="199.95664711215719" y="397.467730106344" font-size="10px">1x</text><text class="label" x="200.1709837015269" y="410.66905023835716" font-size="10px">1.01x</text><text class="label" x="318.5733030386457" y="359.3637697103044" font-size="8px"></text><text class="label" x="325.2159197045364" y="372.56508984231755" font-size="8px"></text><text class="label" x="322.84601200093863" y="385.76640997433077" font-size="8px"></text><text class="label" x="196.45664711215719" y="398.967730106344" font-size="8px"></text><text class="label" x="196.6709837015269" y="412.16905023835716" font-size="8px"></text></g><g style="font-size: 13px;"><rect x="150" y="423.4378437843784" width="234.76541102340175" height="12.541254125412543" fill="#4472c4"></rect><rect x="150" y="436.6391639163916" width="258.04134326389857" height="12.541254125412543" fill="#ed7d31"></rect><rect x="150" y="449.84048404840485" width="230.54048336033526" height="12.541254125412543" fill="#a5a5a5"></rect><rect x="150" y="463.041804180418" width="41.77380956370395" height="12.541254125412543" fill="#ffc000"></rect><rect x="150" y="476.24312431243123" width="41.45664711215719" height="12.541254125412543" fill="#5b9bd5"></rect><text class="label" x="393.2654110234017" y="431.9378437843784" font-size="10px">5.66x</text><text class="label" x="416.54134326389857" y="445.1391639163916" font-size="10px">6.22x</text><text class="label" x="389.04048336033526" y="458.34048404840485" font-size="10px">5.56x</text><text class="label" x="200.27380956370394" y="471.541804180418" font-size="10px">1.01x</text><text class="label" x="199.95664711215719" y="484.74312431243123" font-size="10px">1x</text><text class="label" x="389.7654110234017" y="433.4378437843784" font-size="8px"></text><text class="label" x="413.04134326389857" y="446.6391639163916" font-size="8px"></text><text class="label" x="385.54048336033526" y="459.84048404840485" font-size="8px"></text><text class="label" x="196.77380956370394" y="473.041804180418" font-size="8px"></text><text class="label" x="196.45664711215719" y="486.24312431243123" font-size="8px"></text></g><g style="font-size: 13px;"><rect x="150" y="497.51191785845253" width="222.63551167837676" height="12.541254125412543" fill="#4472c4"></rect><rect x="150" y="510.7132379904657" width="223.30635214388002" height="12.541254125412543" fill="#ed7d31"></rect><rect x="150" y="523.9145581224789" width="199.26516846230095" height="12.541254125412543" fill="#a5a5a5"></rect><rect x="150" y="537.1158782544921" width="41.45664711215719" height="12.541254125412543" fill="#ffc000"></rect><rect x="150" y="550.3171983865053" width="42.700183004091585" height="12.541254125412543" fill="#5b9bd5"></rect><text class="label" x="381.13551167837676" y="506.01191785845253" font-size="10px">5.37x</text><text class="label" x="381.80635214388" y="519.2132379904657" font-size="10px">5.39x</text><text class="label" x="357.76516846230095" y="532.4145581224789" font-size="10px">4.81x</text><text class="label" x="199.95664711215719" y="545.6158782544921" font-size="10px">1x</text><text class="label" x="201.20018300409157" y="558.8171983865053" font-size="10px">1.03x</text><text class="label" x="377.63551167837676" y="507.51191785845253" font-size="8px"></text><text class="label" x="378.30635214388" y="520.7132379904657" font-size="8px"></text><text class="label" x="354.26516846230095" y="533.9145581224789" font-size="8px"></text><text class="label" x="196.45664711215719" y="547.1158782544921" font-size="8px"></text><text class="label" x="197.70018300409157" y="560.3171983865053" font-size="8px"></text></g><g style="font-size: 13px;"><rect x="150" y="571.5859919325266" width="161.89034930492429" height="12.541254125412543" fill="#4472c4"></rect><rect x="150" y="584.7873120645397" width="169.44875538870792" height="12.541254125412543" fill="#ed7d31"></rect><rect x="150" y="597.9886321965529" width="61.034198085687855" height="12.541254125412543" fill="#a5a5a5"></rect><rect x="150" y="611.1899523285662" width="41.45664711215719" height="12.541254125412543" fill="#ffc000"></rect><rect x="150" y="624.3912724605793" width="42.75716907179489" height="12.541254125412543" fill="#5b9bd5"></rect><text class="label" x="320.39034930492426" y="580.0859919325266" font-size="10px">3.91x</text><text class="label" x="327.9487553887079" y="593.2873120645397" font-size="10px">4.09x</text><text class="label" x="219.53419808568785" y="606.4886321965529" font-size="10px">1.47x</text><text class="label" x="199.95664711215719" y="619.6899523285662" font-size="10px">1x</text><text class="label" x="201.2571690717949" y="632.8912724605793" font-size="10px">1.03x</text><text class="label" x="316.89034930492426" y="581.5859919325266" font-size="8px"></text><text class="label" x="324.4487553887079" y="594.7873120645397" font-size="8px"></text><text class="label" x="216.03419808568785" y="607.9886321965529" font-size="8px"></text><text class="label" x="196.45664711215719" y="621.1899523285662" font-size="8px"></text><text class="label" x="197.7571690717949" y="634.3912724605793" font-size="8px"></text></g></g></svg>