<svg xmlns="http://www.w3.org/2000/svg" xmlns:xlink="http://www.w3.org/1999/xlink" width="800" height="794" style="background-color: white;"><g class="y axis" transform="translate(149,45)" fill="none" font-size="10" font-family="sans-serif" text-anchor="end" style="font-size: 13px;"><path class="domain" stroke="currentColor" d="M0.5,0.5V600.5"></path><g class="tick" opacity="1" transform="translate(0,40.740740740740726)" style="font-size: 13px;"><line stroke="currentColor" x2="0"></line><text fill="currentColor" x="-3" dy="0.32em">object (simple)    </text></g><g class="tick" opacity="1" transform="translate(0,114.81481481481481)" style="font-size: 13px;"><line stroke="currentColor" x2="0"></line><text fill="currentColor" x="-3" dy="0.32em">object (hierarchical)    </text></g><g class="tick" opacity="1" transform="translate(0,188.88888888888889)" style="font-size: 13px;"><line stroke="currentColor" x2="0"></line><text fill="currentColor" x="-3" dy="0.32em">object (recursive)    </text></g><g class="tick" opacity="1" transform="translate(0,262.96296296296293)" style="font-size: 13px;"><line stroke="currentColor" x2="0"></line><text fill="currentColor" x="-3" dy="0.32em">object (union, explicit)    </text></g><g class="tick" opacity="1" transform="translate(0,337.037037037037)" style="font-size: 13px;"><line stroke="currentColor" x2="0"></line><text fill="currentColor" x="-3" dy="0.32em">array (simple)    </text></g><g class="tick" opacity="1" transform="translate(0,411.1111111111111)" style="font-size: 13px;"><line stroke="currentColor" x2="0"></line><text fill="currentColor" x="-3" dy="0.32em">array (hierarchical)    </text></g><g class="tick" opacity="1" transform="translate(0,485.18518518518516)" style="font-size: 13px;"><line stroke="currentColor" x2="0"></line><text fill="currentColor" x="-3" dy="0.32em">array (recursive)    </text></g><g class="tick" opacity="1" transform="translate(0,559.2592592592592)" style="font-size: 13px;"><line stroke="currentColor" x2="0"></line><text fill="currentColor" x="-3" dy="0.32em">array (union, explicit)    </text></g></g><g class="x axis" transform="translate(149,645)" fill="none" font-size="10" font-family="sans-serif" text-anchor="middle" style="font-size: 13px;"><path class="domain" stroke="currentColor" d="M0.5,0.5H485.5"></path><g class="tick" opacity="1" transform="translate(0.5,0)" style="font-size: 13px;"><line stroke="currentColor" y2="6"></line><text fill="currentColor" y="9" dy="0.71em">0x</text></g><g class="tick" opacity="1" transform="translate(62.09598413498021,0)" style="font-size: 13px;"><line stroke="currentColor" y2="6"></line><text fill="currentColor" y="9" dy="0.71em">2x</text></g><g class="tick" opacity="1" transform="translate(123.69196826996043,0)" style="font-size: 13px;"><line stroke="currentColor" y2="6"></line><text fill="currentColor" y="9" dy="0.71em">4x</text></g><g class="tick" opacity="1" transform="translate(185.28795240494063,0)" style="font-size: 13px;"><line stroke="currentColor" y2="6"></line><text fill="currentColor" y="9" dy="0.71em">6x</text></g><g class="tick" opacity="1" transform="translate(246.88393653992085,0)" style="font-size: 13px;"><line stroke="currentColor" y2="6"></line><text fill="currentColor" y="9" dy="0.71em">8x</text></g><g class="tick" opacity="1" transform="translate(308.47992067490105,0)" style="font-size: 13px;"><line stroke="currentColor" y2="6"></line><text fill="currentColor" y="9" dy="0.71em">10x</text></g><g class="tick" opacity="1" transform="translate(370.07590480988125,0)" style="font-size: 13px;"><line stroke="currentColor" y2="6"></line><text fill="currentColor" y="9" dy="0.71em">12x</text></g><g class="tick" opacity="1" transform="translate(431.67188894486145,0)" style="font-size: 13px;"><line stroke="currentColor" y2="6"></line><text fill="currentColor" y="9" dy="0.71em">14x</text></g></g><text transform="translate(400, 30)" style="text-anchor: middle; font-size: 20px; font-weight: bold;">assert benchmark</text><rect x="650" y="145" width="230" height="5" fill="gray"></rect><rect x="645" y="35" width="230" height="110" fill="none" stroke="black"></rect><rect x="655" y="45" width="10" height="10" style="fill: #4472c4;"></rect><text x="670" y="55" style="font-size: 12px;">nestia-express</text><rect x="655" y="65" width="10" height="10" style="fill: #ed7d31;"></rect><text x="670" y="75" style="font-size: 12px;">nestia-fastify</text><rect x="655" y="85" width="10" height="10" style="fill: #a5a5a5;"></rect><text x="670" y="95" style="font-size: 12px;">fastify</text><rect x="655" y="105" width="10" height="10" style="fill: #ffc000;"></rect><text x="670" y="115" style="font-size: 12px;">NestJS-express</text><rect x="655" y="125" width="10" height="10" style="fill: #5b9bd5;"></rect><text x="670" y="135" style="font-size: 12px;">NestJS-fastify</text><text x="20" y="709" style="font-size: 12px;">  - CPU: 13th Gen Intel(R) Core(TM) i9-13900HX</text><text x="20" y="726" style="font-size: 12px;">  - OS: win32</text><text x="20" y="743" style="font-size: 12px;">  - RAM: 32 GB</text><text x="20" y="760" style="font-size: 12px;">  - NodeJS version: v20.9.0</text><text x="20" y="777" style="font-size: 12px;">  - nestia version: v2.4.3</text><g style="font-size: 13px;"><g style="font-size: 13px;"><rect x="150" y="53.06747341400805" width="209.480555023812" height="12.541254125412543" fill="#4472c4"></rect><rect x="150" y="66.26879354602124" width="301.850492210758" height="12.541254125412543" fill="#ed7d31"></rect><rect x="150" y="79.47011367803445" width="334.43349648661996" height="12.541254125412543" fill="#a5a5a5"></rect><rect x="150" y="92.67143381004766" width="30.797992067490107" height="12.541254125412543" fill="#ffc000"></rect><rect x="150" y="105.87275394206085" width="33.3282567805368" height="12.541254125412543" fill="#5b9bd5"></rect><text class="label" x="367.98055502381203" y="61.56747341400805" font-size="10px">6.8x</text><text class="label" x="460.350492210758" y="74.76879354602124" font-size="10px">9.8x</text><text class="label" x="492.93349648661996" y="87.97011367803445" font-size="10px">10.86x</text><text class="label" x="189.2979920674901" y="101.17143381004766" font-size="10px">1x</text><text class="label" x="191.8282567805368" y="114.37275394206085" font-size="10px">1.08x</text><text class="label" x="364.48055502381203" y="63.06747341400805" font-size="8px"></text><text class="label" x="456.850492210758" y="76.26879354602124" font-size="8px"></text><text class="label" x="489.43349648661996" y="89.47011367803445" font-size="8px"></text><text class="label" x="185.7979920674901" y="102.67143381004766" font-size="8px"></text><text class="label" x="188.3282567805368" y="115.87275394206085" font-size="8px"></text></g><g style="font-size: 13px;"><rect x="150" y="127.14154748808213" width="340.29781066751246" height="12.541254125412543" fill="#4472c4"></rect><rect x="150" y="140.34286762009532" width="350.2831998466229" height="12.541254125412543" fill="#ed7d31"></rect><rect x="150" y="153.54418775210854" width="344.7659774804511" height="12.541254125412543" fill="#a5a5a5"></rect><rect x="150" y="166.74550788412174" width="30.797992067490107" height="12.541254125412543" fill="#ffc000"></rect><rect x="150" y="179.94682801613493" width="31.14608751309525" height="12.541254125412543" fill="#5b9bd5"></rect><text class="label" x="498.79781066751246" y="135.64154748808213" font-size="10px">11.05x</text><text class="label" x="508.7831998466229" y="148.84286762009532" font-size="10px">11.37x</text><text class="label" x="503.2659774804511" y="162.04418775210854" font-size="10px">11.19x</text><text class="label" x="189.2979920674901" y="175.24550788412174" font-size="10px">1x</text><text class="label" x="189.64608751309524" y="188.44682801613493" font-size="10px">1.01x</text><text class="label" x="495.29781066751246" y="137.14154748808213" font-size="8px"></text><text class="label" x="505.2831998466229" y="150.34286762009532" font-size="8px"></text><text class="label" x="499.7659774804511" y="163.54418775210854" font-size="8px"></text><text class="label" x="185.7979920674901" y="176.74550788412174" font-size="8px"></text><text class="label" x="186.14608751309524" y="189.94682801613493" font-size="8px"></text></g><g style="font-size: 13px;"><rect x="150" y="201.2156215621562" width="369.39509850218315" height="12.541254125412543" fill="#4472c4"></rect><rect x="150" y="214.4169416941694" width="378.8371980332826" height="12.541254125412543" fill="#ed7d31"></rect><rect x="150" y="227.61826182618262" width="358.48824403671944" height="12.541254125412543" fill="#a5a5a5"></rect><rect x="150" y="240.8195819581958" width="30.797992067490107" height="12.541254125412543" fill="#ffc000"></rect><rect x="150" y="254.020902090209" width="30.983826283803257" height="12.541254125412543" fill="#5b9bd5"></rect><text class="label" x="527.8950985021831" y="209.7156215621562" font-size="10px">11.99x</text><text class="label" x="537.3371980332827" y="222.9169416941694" font-size="10px">12.3x</text><text class="label" x="516.9882440367194" y="236.11826182618262" font-size="10px">11.64x</text><text class="label" x="189.2979920674901" y="249.3195819581958" font-size="10px">1x</text><text class="label" x="189.48382628380327" y="262.520902090209" font-size="10px">1.01x</text><text class="label" x="524.3950985021831" y="211.2156215621562" font-size="8px"></text><text class="label" x="533.8371980332827" y="224.4169416941694" font-size="8px"></text><text class="label" x="513.4882440367194" y="237.61826182618262" font-size="8px"></text><text class="label" x="185.7979920674901" y="250.8195819581958" font-size="8px"></text><text class="label" x="185.98382628380327" y="264.020902090209" font-size="8px"></text></g><g style="font-size: 13px;"><rect x="150" y="275.28969563623025" width="231.2335830897547" height="12.541254125412543" fill="#4472c4"></rect><rect x="150" y="288.49101576824347" width="238.44677014886958" height="12.541254125412543" fill="#ed7d31"></rect><rect x="150" y="301.6923359002567" width="157.98652499573177" height="12.541254125412543" fill="#a5a5a5"></rect><rect x="150" y="314.89365603226986" width="30.797992067490107" height="12.541254125412543" fill="#ffc000"></rect><rect x="150" y="328.0949761642831" width="31.675440985008" height="12.541254125412543" fill="#5b9bd5"></rect><text class="label" x="389.7335830897547" y="283.78969563623025" font-size="10px">7.51x</text><text class="label" x="396.9467701488696" y="296.99101576824347" font-size="10px">7.74x</text><text class="label" x="316.48652499573177" y="310.1923359002567" font-size="10px">5.13x</text><text class="label" x="189.2979920674901" y="323.39365603226986" font-size="10px">1x</text><text class="label" x="190.175440985008" y="336.5949761642831" font-size="10px">1.03x</text><text class="label" x="386.2335830897547" y="285.28969563623025" font-size="8px"></text><text class="label" x="393.4467701488696" y="298.49101576824347" font-size="8px"></text><text class="label" x="312.98652499573177" y="311.6923359002567" font-size="8px"></text><text class="label" x="185.7979920674901" y="324.89365603226986" font-size="8px"></text><text class="label" x="186.675440985008" y="338.0949761642831" font-size="8px"></text></g><g style="font-size: 13px;"><rect x="150" y="349.3637697103044" width="191.15695334371375" height="12.541254125412543" fill="#4472c4"></rect><rect x="150" y="362.56508984231755" width="160.52669787064258" height="12.541254125412543" fill="#ed7d31"></rect><rect x="150" y="375.76640997433077" width="176.0518039159579" height="12.541254125412543" fill="#a5a5a5"></rect><rect x="150" y="388.967730106344" width="30.797992067490107" height="12.541254125412543" fill="#ffc000"></rect><rect x="150" y="402.16905023835716" width="36.70185978462728" height="12.541254125412543" fill="#5b9bd5"></rect><text class="label" x="349.6569533437138" y="357.8637697103044" font-size="10px">6.21x</text><text class="label" x="319.0266978706426" y="371.06508984231755" font-size="10px">5.21x</text><text class="label" x="334.55180391595786" y="384.26640997433077" font-size="10px">5.72x</text><text class="label" x="189.2979920674901" y="397.467730106344" font-size="10px">1x</text><text class="label" x="195.2018597846273" y="410.66905023835716" font-size="10px">1.19x</text><text class="label" x="346.1569533437138" y="359.3637697103044" font-size="8px"></text><text class="label" x="315.5266978706426" y="372.56508984231755" font-size="8px"></text><text class="label" x="331.05180391595786" y="385.76640997433077" font-size="8px"></text><text class="label" x="185.7979920674901" y="398.967730106344" font-size="8px"></text><text class="label" x="191.7018597846273" y="412.16905023835716" font-size="8px"></text></g><g style="font-size: 13px;"><rect x="150" y="423.4378437843784" width="187.74030792716638" height="12.541254125412543" fill="#4472c4"></rect><rect x="150" y="436.6391639163916" width="128.94972250681772" height="12.541254125412543" fill="#ed7d31"></rect><rect x="150" y="449.84048404840485" width="141.28527070148849" height="12.541254125412543" fill="#a5a5a5"></rect><rect x="150" y="463.041804180418" width="34.87358904136395" height="12.541254125412543" fill="#ffc000"></rect><rect x="150" y="476.24312431243123" width="30.797992067490107" height="12.541254125412543" fill="#5b9bd5"></rect><text class="label" x="346.2403079271664" y="431.9378437843784" font-size="10px">6.1x</text><text class="label" x="287.4497225068177" y="445.1391639163916" font-size="10px">4.19x</text><text class="label" x="299.78527070148846" y="458.34048404840485" font-size="10px">4.59x</text><text class="label" x="193.37358904136394" y="471.541804180418" font-size="10px">1.13x</text><text class="label" x="189.2979920674901" y="484.74312431243123" font-size="10px">1x</text><text class="label" x="342.7403079271664" y="433.4378437843784" font-size="8px"></text><text class="label" x="283.9497225068177" y="446.6391639163916" font-size="8px"></text><text class="label" x="296.28527070148846" y="459.84048404840485" font-size="8px"></text><text class="label" x="189.87358904136394" y="473.041804180418" font-size="8px"></text><text class="label" x="185.7979920674901" y="486.24312431243123" font-size="8px"></text></g><g style="font-size: 13px;"><rect x="150" y="497.51191785845253" width="440.9090909090909" height="12.541254125412543" fill="#4472c4"></rect><rect x="150" y="510.7132379904657" width="408.1392902461256" height="12.541254125412543" fill="#ed7d31"></rect><rect x="150" y="523.9145581224789" width="401.33897159467017" height="12.541254125412543" fill="#a5a5a5"></rect><rect x="150" y="537.1158782544921" width="30.807196946875294" height="12.541254125412543" fill="#ffc000"></rect><rect x="150" y="550.3171983865053" width="30.797992067490107" height="12.541254125412543" fill="#5b9bd5"></rect><text class="label" x="599.4090909090909" y="506.01191785845253" font-size="10px">14.32x</text><text class="label" x="566.6392902461256" y="519.2132379904657" font-size="10px">13.25x</text><text class="label" x="559.8389715946702" y="532.4145581224789" font-size="10px">13.03x</text><text class="label" x="189.3071969468753" y="545.6158782544921" font-size="10px">1x</text><text class="label" x="189.2979920674901" y="558.8171983865053" font-size="10px">1x</text><text class="label" x="595.9090909090909" y="507.51191785845253" font-size="8px"></text><text class="label" x="563.1392902461256" y="520.7132379904657" font-size="8px"></text><text class="label" x="556.3389715946702" y="533.9145581224789" font-size="8px"></text><text class="label" x="185.8071969468753" y="547.1158782544921" font-size="8px"></text><text class="label" x="185.7979920674901" y="560.3171983865053" font-size="8px"></text></g><g style="font-size: 13px;"><rect x="150" y="571.5859919325266" width="163.20517071881292" height="12.541254125412543" fill="#4472c4"></rect><rect x="150" y="584.7873120645397" width="152.78632837724606" height="12.541254125412543" fill="#ed7d31"></rect><rect x="150" y="597.9886321965529" width="106.54880852743253" height="12.541254125412543" fill="#a5a5a5"></rect><rect x="150" y="611.1899523285662" width="31.247532738749886" height="12.541254125412543" fill="#ffc000"></rect><rect x="150" y="624.3912724605793" width="30.797992067490107" height="12.541254125412543" fill="#5b9bd5"></rect><text class="label" x="321.70517071881295" y="580.0859919325266" font-size="10px">5.3x</text><text class="label" x="311.28632837724604" y="593.2873120645397" font-size="10px">4.96x</text><text class="label" x="265.0488085274325" y="606.4886321965529" font-size="10px">3.46x</text><text class="label" x="189.7475327387499" y="619.6899523285662" font-size="10px">1.01x</text><text class="label" x="189.2979920674901" y="632.8912724605793" font-size="10px">1x</text><text class="label" x="318.20517071881295" y="581.5859919325266" font-size="8px"></text><text class="label" x="307.78632837724604" y="594.7873120645397" font-size="8px"></text><text class="label" x="261.5488085274325" y="607.9886321965529" font-size="8px"></text><text class="label" x="186.2475327387499" y="621.1899523285662" font-size="8px"></text><text class="label" x="185.7979920674901" y="634.3912724605793" font-size="8px"></text></g></g></svg>