<svg xmlns="http://www.w3.org/2000/svg" xmlns:xlink="http://www.w3.org/1999/xlink" width="800" height="794" style="background-color: white;"><g class="y axis" transform="translate(149,45)" fill="none" font-size="10" font-family="sans-serif" text-anchor="end" style="font-size: 13px;"><path class="domain" stroke="currentColor" d="M0.5,0.5V600.5"></path><g class="tick" opacity="1" transform="translate(0,40.740740740740726)" style="font-size: 13px;"><line stroke="currentColor" x2="0"></line><text fill="currentColor" x="-3" dy="0.32em">object (simple)    </text></g><g class="tick" opacity="1" transform="translate(0,114.81481481481481)" style="font-size: 13px;"><line stroke="currentColor" x2="0"></line><text fill="currentColor" x="-3" dy="0.32em">object (hierarchical)    </text></g><g class="tick" opacity="1" transform="translate(0,188.88888888888889)" style="font-size: 13px;"><line stroke="currentColor" x2="0"></line><text fill="currentColor" x="-3" dy="0.32em">object (recursive)    </text></g><g class="tick" opacity="1" transform="translate(0,262.96296296296293)" style="font-size: 13px;"><line stroke="currentColor" x2="0"></line><text fill="currentColor" x="-3" dy="0.32em">object (union, explicit)    </text></g><g class="tick" opacity="1" transform="translate(0,337.037037037037)" style="font-size: 13px;"><line stroke="currentColor" x2="0"></line><text fill="currentColor" x="-3" dy="0.32em">array (simple)    </text></g><g class="tick" opacity="1" transform="translate(0,411.1111111111111)" style="font-size: 13px;"><line stroke="currentColor" x2="0"></line><text fill="currentColor" x="-3" dy="0.32em">array (hierarchical)    </text></g><g class="tick" opacity="1" transform="translate(0,485.18518518518516)" style="font-size: 13px;"><line stroke="currentColor" x2="0"></line><text fill="currentColor" x="-3" dy="0.32em">array (recursive)    </text></g><g class="tick" opacity="1" transform="translate(0,559.2592592592592)" style="font-size: 13px;"><line stroke="currentColor" x2="0"></line><text fill="currentColor" x="-3" dy="0.32em">array (union, explicit)    </text></g></g><g class="x axis" transform="translate(149,645)" fill="none" font-size="10" font-family="sans-serif" text-anchor="middle" style="font-size: 13px;"><path class="domain" stroke="currentColor" d="M0.5,0.5H485.5"></path><g class="tick" opacity="1" transform="translate(0.5,0)" style="font-size: 13px;"><line stroke="currentColor" y2="6"></line><text fill="currentColor" y="9" dy="0.71em">0x</text></g><g class="tick" opacity="1" transform="translate(107.00961458915013,0)" style="font-size: 13px;"><line stroke="currentColor" y2="6"></line><text fill="currentColor" y="9" dy="0.71em">2x</text></g><g class="tick" opacity="1" transform="translate(213.51922917830026,0)" style="font-size: 13px;"><line stroke="currentColor" y2="6"></line><text fill="currentColor" y="9" dy="0.71em">4x</text></g><g class="tick" opacity="1" transform="translate(320.02884376745044,0)" style="font-size: 13px;"><line stroke="currentColor" y2="6"></line><text fill="currentColor" y="9" dy="0.71em">6x</text></g><g class="tick" opacity="1" transform="translate(426.53845835660053,0)" style="font-size: 13px;"><line stroke="currentColor" y2="6"></line><text fill="currentColor" y="9" dy="0.71em">8x</text></g></g><text transform="translate(400, 30)" style="text-anchor: middle; font-size: 20px; font-weight: bold;">performance benchmark</text><rect x="650" y="145" width="230" height="5" fill="gray"></rect><rect x="645" y="35" width="230" height="110" fill="none" stroke="black"></rect><rect x="655" y="45" width="10" height="10" style="fill: #4472c4;"></rect><text x="670" y="55" style="font-size: 12px;">nestia-express</text><rect x="655" y="65" width="10" height="10" style="fill: #ed7d31;"></rect><text x="670" y="75" style="font-size: 12px;">nestia-fastify</text><rect x="655" y="85" width="10" height="10" style="fill: #a5a5a5;"></rect><text x="670" y="95" style="font-size: 12px;">fastify</text><rect x="655" y="105" width="10" height="10" style="fill: #ffc000;"></rect><text x="670" y="115" style="font-size: 12px;">NestJS-express</text><rect x="655" y="125" width="10" height="10" style="fill: #5b9bd5;"></rect><text x="670" y="135" style="font-size: 12px;">NestJS-fastify</text><text x="20" y="709" style="font-size: 12px;">  - CPU: 13th Gen Intel(R) Core(TM) i9-13900HX</text><text x="20" y="726" style="font-size: 12px;">  - OS: win32</text><text x="20" y="743" style="font-size: 12px;">  - RAM: 32 GB</text><text x="20" y="760" style="font-size: 12px;">  - NodeJS version: v20.9.0</text><text x="20" y="777" style="font-size: 12px;">  - nestia version: v2.4.3</text><g style="font-size: 13px;"><g style="font-size: 13px;"><rect x="150" y="53.06747341400805" width="278.00227809210537" height="12.541254125412543" fill="#4472c4"></rect><rect x="150" y="66.26879354602124" width="395.7403330685651" height="12.541254125412543" fill="#ed7d31"></rect><rect x="150" y="79.47011367803445" width="380.15445911269256" height="12.541254125412543" fill="#a5a5a5"></rect><rect x="150" y="92.67143381004766" width="53.254807294575066" height="12.541254125412543" fill="#ffc000"></rect><rect x="150" y="105.87275394206085" width="57.7602213749499" height="12.541254125412543" fill="#5b9bd5"></rect><text class="label" x="436.50227809210537" y="61.56747341400805" font-size="10px">5.22x</text><text class="label" x="554.2403330685652" y="74.76879354602124" font-size="10px">7.43x</text><text class="label" x="538.6544591126926" y="87.97011367803445" font-size="10px">7.14x</text><text class="label" x="211.75480729457507" y="101.17143381004766" font-size="10px">1x</text><text class="label" x="216.2602213749499" y="114.37275394206085" font-size="10px">1.08x</text><text class="label" x="433.00227809210537" y="63.06747341400805" font-size="8px"></text><text class="label" x="550.7403330685652" y="76.26879354602124" font-size="8px"></text><text class="label" x="535.1544591126926" y="89.47011367803445" font-size="8px"></text><text class="label" x="208.25480729457507" y="102.67143381004766" font-size="8px"></text><text class="label" x="212.7602213749499" y="115.87275394206085" font-size="8px"></text></g><g style="font-size: 13px;"><rect x="150" y="127.14154748808213" width="339.636655827754" height="12.541254125412543" fill="#4472c4"></rect><rect x="150" y="140.34286762009532" width="388.3978983071263" height="12.541254125412543" fill="#ed7d31"></rect><rect x="150" y="153.54418775210854" width="347.01444195680705" height="12.541254125412543" fill="#a5a5a5"></rect><rect x="150" y="166.74550788412174" width="53.254807294575066" height="12.541254125412543" fill="#ffc000"></rect><rect x="150" y="179.94682801613493" width="53.957067969471495" height="12.541254125412543" fill="#5b9bd5"></rect><text class="label" x="498.136655827754" y="135.64154748808213" font-size="10px">6.38x</text><text class="label" x="546.8978983071263" y="148.84286762009532" font-size="10px">7.29x</text><text class="label" x="505.51444195680705" y="162.04418775210854" font-size="10px">6.52x</text><text class="label" x="211.75480729457507" y="175.24550788412174" font-size="10px">1x</text><text class="label" x="212.4570679694715" y="188.44682801613493" font-size="10px">1.01x</text><text class="label" x="494.636655827754" y="137.14154748808213" font-size="8px"></text><text class="label" x="543.3978983071263" y="150.34286762009532" font-size="8px"></text><text class="label" x="502.01444195680705" y="163.54418775210854" font-size="8px"></text><text class="label" x="208.25480729457507" y="176.74550788412174" font-size="8px"></text><text class="label" x="208.9570679694715" y="189.94682801613493" font-size="8px"></text></g><g style="font-size: 13px;"><rect x="150" y="201.2156215621562" width="382.8060543729104" height="12.541254125412543" fill="#4472c4"></rect><rect x="150" y="214.4169416941694" width="419.4751240114924" height="12.541254125412543" fill="#ed7d31"></rect><rect x="150" y="227.61826182618262" width="298.35650627825675" height="12.541254125412543" fill="#a5a5a5"></rect><rect x="150" y="240.8195819581958" width="53.254807294575066" height="12.541254125412543" fill="#ffc000"></rect><rect x="150" y="254.020902090209" width="54.01060882654022" height="12.541254125412543" fill="#5b9bd5"></rect><text class="label" x="541.3060543729105" y="209.7156215621562" font-size="10px">7.19x</text><text class="label" x="577.9751240114924" y="222.9169416941694" font-size="10px">7.88x</text><text class="label" x="456.85650627825675" y="236.11826182618262" font-size="10px">5.6x</text><text class="label" x="211.75480729457507" y="249.3195819581958" font-size="10px">1x</text><text class="label" x="212.51060882654022" y="262.520902090209" font-size="10px">1.01x</text><text class="label" x="537.8060543729105" y="211.2156215621562" font-size="8px"></text><text class="label" x="574.4751240114924" y="224.4169416941694" font-size="8px"></text><text class="label" x="453.35650627825675" y="237.61826182618262" font-size="8px"></text><text class="label" x="208.25480729457507" y="250.8195819581958" font-size="8px"></text><text class="label" x="209.01060882654022" y="264.020902090209" font-size="8px"></text></g><g style="font-size: 13px;"><rect x="150" y="275.28969563623025" width="413.24935299623496" height="12.541254125412543" fill="#4472c4"></rect><rect x="150" y="288.49101576824347" width="440.9090909090908" height="12.541254125412543" fill="#ed7d31"></rect><rect x="150" y="301.6923359002567" width="300.4871555147374" height="12.541254125412543" fill="#a5a5a5"></rect><rect x="150" y="314.89365603226986" width="53.254807294575066" height="12.541254125412543" fill="#ffc000"></rect><rect x="150" y="328.0949761642831" width="55.4908102363821" height="12.541254125412543" fill="#5b9bd5"></rect><text class="label" x="571.749352996235" y="283.78969563623025" font-size="10px">7.76x</text><text class="label" x="599.4090909090908" y="296.99101576824347" font-size="10px">8.28x</text><text class="label" x="458.9871555147374" y="310.1923359002567" font-size="10px">5.64x</text><text class="label" x="211.75480729457507" y="323.39365603226986" font-size="10px">1x</text><text class="label" x="213.99081023638212" y="336.5949761642831" font-size="10px">1.04x</text><text class="label" x="568.249352996235" y="285.28969563623025" font-size="8px"></text><text class="label" x="595.9090909090908" y="298.49101576824347" font-size="8px"></text><text class="label" x="455.4871555147374" y="311.6923359002567" font-size="8px"></text><text class="label" x="208.25480729457507" y="324.89365603226986" font-size="8px"></text><text class="label" x="210.49081023638212" y="338.0949761642831" font-size="8px"></text></g><g style="font-size: 13px;"><rect x="150" y="349.3637697103044" width="263.86899759150856" height="12.541254125412543" fill="#4472c4"></rect><rect x="150" y="362.56508984231755" width="295.1349979184044" height="12.541254125412543" fill="#ed7d31"></rect><rect x="150" y="375.76640997433077" width="290.48642985515437" height="12.541254125412543" fill="#a5a5a5"></rect><rect x="150" y="388.967730106344" width="53.254807294575066" height="12.541254125412543" fill="#ffc000"></rect><rect x="150" y="402.16905023835716" width="56.68506824183914" height="12.541254125412543" fill="#5b9bd5"></rect><text class="label" x="422.36899759150856" y="357.8637697103044" font-size="10px">4.95x</text><text class="label" x="453.6349979184044" y="371.06508984231755" font-size="10px">5.54x</text><text class="label" x="448.98642985515437" y="384.26640997433077" font-size="10px">5.45x</text><text class="label" x="211.75480729457507" y="397.467730106344" font-size="10px">1x</text><text class="label" x="215.18506824183913" y="410.66905023835716" font-size="10px">1.06x</text><text class="label" x="418.86899759150856" y="359.3637697103044" font-size="8px"></text><text class="label" x="450.1349979184044" y="372.56508984231755" font-size="8px"></text><text class="label" x="445.48642985515437" y="385.76640997433077" font-size="8px"></text><text class="label" x="208.25480729457507" y="398.967730106344" font-size="8px"></text><text class="label" x="211.68506824183913" y="412.16905023835716" font-size="8px"></text></g><g style="font-size: 13px;"><rect x="150" y="423.4378437843784" width="340.90593273171805" height="12.541254125412543" fill="#4472c4"></rect><rect x="150" y="436.6391639163916" width="381.97310697730467" height="12.541254125412543" fill="#ed7d31"></rect><rect x="150" y="449.84048404840485" width="238.88155607978732" height="12.541254125412543" fill="#a5a5a5"></rect><rect x="150" y="463.041804180418" width="56.26326944080702" height="12.541254125412543" fill="#ffc000"></rect><rect x="150" y="476.24312431243123" width="53.254807294575066" height="12.541254125412543" fill="#5b9bd5"></rect><text class="label" x="499.40593273171805" y="431.9378437843784" font-size="10px">6.4x</text><text class="label" x="540.4731069773047" y="445.1391639163916" font-size="10px">7.17x</text><text class="label" x="397.3815560797873" y="458.34048404840485" font-size="10px">4.49x</text><text class="label" x="214.76326944080702" y="471.541804180418" font-size="10px">1.06x</text><text class="label" x="211.75480729457507" y="484.74312431243123" font-size="10px">1x</text><text class="label" x="495.90593273171805" y="433.4378437843784" font-size="8px"></text><text class="label" x="536.9731069773047" y="446.6391639163916" font-size="8px"></text><text class="label" x="393.8815560797873" y="459.84048404840485" font-size="8px"></text><text class="label" x="211.26326944080702" y="473.041804180418" font-size="8px"></text><text class="label" x="208.25480729457507" y="486.24312431243123" font-size="8px"></text></g><g style="font-size: 13px;"><rect x="150" y="497.51191785845253" width="409.785309718869" height="12.541254125412543" fill="#4472c4"></rect><rect x="150" y="510.7132379904657" width="399.9693255268744" height="12.541254125412543" fill="#ed7d31"></rect><rect x="150" y="523.9145581224789" width="392.6029015535257" height="12.541254125412543" fill="#a5a5a5"></rect><rect x="150" y="537.1158782544921" width="53.557426804381144" height="12.541254125412543" fill="#ffc000"></rect><rect x="150" y="550.3171983865053" width="53.254807294575066" height="12.541254125412543" fill="#5b9bd5"></rect><text class="label" x="568.285309718869" y="506.01191785845253" font-size="10px">7.69x</text><text class="label" x="558.4693255268744" y="519.2132379904657" font-size="10px">7.51x</text><text class="label" x="551.1029015535257" y="532.4145581224789" font-size="10px">7.37x</text><text class="label" x="212.05742680438115" y="545.6158782544921" font-size="10px">1.01x</text><text class="label" x="211.75480729457507" y="558.8171983865053" font-size="10px">1x</text><text class="label" x="564.785309718869" y="507.51191785845253" font-size="8px"></text><text class="label" x="554.9693255268744" y="520.7132379904657" font-size="8px"></text><text class="label" x="547.6029015535257" y="533.9145581224789" font-size="8px"></text><text class="label" x="208.55742680438115" y="547.1158782544921" font-size="8px"></text><text class="label" x="208.25480729457507" y="560.3171983865053" font-size="8px"></text></g><g style="font-size: 13px;"><rect x="150" y="571.5859919325266" width="267.3809165878324" height="12.541254125412543" fill="#4472c4"></rect><rect x="150" y="584.7873120645397" width="269.401886009797" height="12.541254125412543" fill="#ed7d31"></rect><rect x="150" y="597.9886321965529" width="111.93265985716776" height="12.541254125412543" fill="#a5a5a5"></rect><rect x="150" y="611.1899523285662" width="53.3139498631181" height="12.541254125412543" fill="#ffc000"></rect><rect x="150" y="624.3912724605793" width="53.254807294575066" height="12.541254125412543" fill="#5b9bd5"></rect><text class="label" x="425.8809165878324" y="580.0859919325266" font-size="10px">5.02x</text><text class="label" x="427.901886009797" y="593.2873120645397" font-size="10px">5.06x</text><text class="label" x="270.4326598571678" y="606.4886321965529" font-size="10px">2.1x</text><text class="label" x="211.8139498631181" y="619.6899523285662" font-size="10px">1x</text><text class="label" x="211.75480729457507" y="632.8912724605793" font-size="10px">1x</text><text class="label" x="422.3809165878324" y="581.5859919325266" font-size="8px"></text><text class="label" x="424.401886009797" y="594.7873120645397" font-size="8px"></text><text class="label" x="266.9326598571678" y="607.9886321965529" font-size="8px"></text><text class="label" x="208.3139498631181" y="621.1899523285662" font-size="8px"></text><text class="label" x="208.25480729457507" y="634.3912724605793" font-size="8px"></text></g></g></svg>