<svg xmlns="http://www.w3.org/2000/svg" xmlns:xlink="http://www.w3.org/1999/xlink" width="800" height="794" style="background-color: white;"><g class="y axis" transform="translate(149,45)" fill="none" font-size="10" font-family="sans-serif" text-anchor="end" style="font-size: 13px;"><path class="domain" stroke="currentColor" d="M0.5,0.5V600.5"></path><g class="tick" opacity="1" transform="translate(0,40.740740740740726)" style="font-size: 13px;"><line stroke="currentColor" x2="0"></line><text fill="currentColor" x="-3" dy="0.32em">object (simple)    </text></g><g class="tick" opacity="1" transform="translate(0,114.81481481481481)" style="font-size: 13px;"><line stroke="currentColor" x2="0"></line><text fill="currentColor" x="-3" dy="0.32em">object (hierarchical)    </text></g><g class="tick" opacity="1" transform="translate(0,188.88888888888889)" style="font-size: 13px;"><line stroke="currentColor" x2="0"></line><text fill="currentColor" x="-3" dy="0.32em">object (recursive)    </text></g><g class="tick" opacity="1" transform="translate(0,262.96296296296293)" style="font-size: 13px;"><line stroke="currentColor" x2="0"></line><text fill="currentColor" x="-3" dy="0.32em">object (union, explicit)    </text></g><g class="tick" opacity="1" transform="translate(0,337.037037037037)" style="font-size: 13px;"><line stroke="currentColor" x2="0"></line><text fill="currentColor" x="-3" dy="0.32em">array (simple)    </text></g><g class="tick" opacity="1" transform="translate(0,411.1111111111111)" style="font-size: 13px;"><line stroke="currentColor" x2="0"></line><text fill="currentColor" x="-3" dy="0.32em">array (hierarchical)    </text></g><g class="tick" opacity="1" transform="translate(0,485.18518518518516)" style="font-size: 13px;"><line stroke="currentColor" x2="0"></line><text fill="currentColor" x="-3" dy="0.32em">array (recursive)    </text></g><g class="tick" opacity="1" transform="translate(0,559.2592592592592)" style="font-size: 13px;"><line stroke="currentColor" x2="0"></line><text fill="currentColor" x="-3" dy="0.32em">array (union, explicit)    </text></g></g><g class="x axis" transform="translate(149,645)" fill="none" font-size="10" font-family="sans-serif" text-anchor="middle" style="font-size: 13px;"><path class="domain" stroke="currentColor" d="M0.5,0.5H485.5"></path><g class="tick" opacity="1" transform="translate(0.5,0)" style="font-size: 13px;"><line stroke="currentColor" y2="6"></line><text fill="currentColor" y="9" dy="0.71em">0x</text></g><g class="tick" opacity="1" transform="translate(80.43251399589063,0)" style="font-size: 13px;"><line stroke="currentColor" y2="6"></line><text fill="currentColor" y="9" dy="0.71em">2x</text></g><g class="tick" opacity="1" transform="translate(160.36502799178126,0)" style="font-size: 13px;"><line stroke="currentColor" y2="6"></line><text fill="currentColor" y="9" dy="0.71em">4x</text></g><g class="tick" opacity="1" transform="translate(240.2975419876719,0)" style="font-size: 13px;"><line stroke="currentColor" y2="6"></line><text fill="currentColor" y="9" dy="0.71em">6x</text></g><g class="tick" opacity="1" transform="translate(320.2300559835625,0)" style="font-size: 13px;"><line stroke="currentColor" y2="6"></line><text fill="currentColor" y="9" dy="0.71em">8x</text></g><g class="tick" opacity="1" transform="translate(400.1625699794532,0)" style="font-size: 13px;"><line stroke="currentColor" y2="6"></line><text fill="currentColor" y="9" dy="0.71em">10x</text></g><g class="tick" opacity="1" transform="translate(480.0950839753438,0)" style="font-size: 13px;"><line stroke="currentColor" y2="6"></line><text fill="currentColor" y="9" dy="0.71em">12x</text></g></g><text transform="translate(400, 30)" style="text-anchor: middle; font-size: 20px; font-weight: bold;">stringify benchmark</text><rect x="650" y="145" width="230" height="5" fill="gray"></rect><rect x="645" y="35" width="230" height="110" fill="none" stroke="black"></rect><rect x="655" y="45" width="10" height="10" style="fill: #4472c4;"></rect><text x="670" y="55" style="font-size: 12px;">nestia-express</text><rect x="655" y="65" width="10" height="10" style="fill: #ed7d31;"></rect><text x="670" y="75" style="font-size: 12px;">nestia-fastify</text><rect x="655" y="85" width="10" height="10" style="fill: #a5a5a5;"></rect><text x="670" y="95" style="font-size: 12px;">fastify</text><rect x="655" y="105" width="10" height="10" style="fill: #ffc000;"></rect><text x="670" y="115" style="font-size: 12px;">NestJS-express</text><rect x="655" y="125" width="10" height="10" style="fill: #5b9bd5;"></rect><text x="670" y="135" style="font-size: 12px;">NestJS-fastify</text><text x="20" y="709" style="font-size: 12px;">  - CPU: 13th Gen Intel(R) Core(TM) i9-13900HX</text><text x="20" y="726" style="font-size: 12px;">  - OS: win32</text><text x="20" y="743" style="font-size: 12px;">  - RAM: 32 GB</text><text x="20" y="760" style="font-size: 12px;">  - NodeJS version: v20.9.0</text><text x="20" y="777" style="font-size: 12px;">  - nestia version: v2.4.3</text><g style="font-size: 13px;"><g style="font-size: 13px;"><rect x="150" y="53.06747341400805" width="180.27909321959166" height="12.541254125412543" fill="#4472c4"></rect><rect x="150" y="66.26879354602124" width="328.28406323538167" height="12.541254125412543" fill="#ed7d31"></rect><rect x="150" y="79.47011367803445" width="305.9606389875161" height="12.541254125412543" fill="#a5a5a5"></rect><rect x="150" y="92.67143381004766" width="39.966256997945315" height="12.541254125412543" fill="#ffc000"></rect><rect x="150" y="105.87275394206085" width="43.77463886815757" height="12.541254125412543" fill="#5b9bd5"></rect><text class="label" x="338.7790932195917" y="61.56747341400805" font-size="10px">4.51x</text><text class="label" x="486.78406323538167" y="74.76879354602124" font-size="10px">8.21x</text><text class="label" x="464.4606389875161" y="87.97011367803445" font-size="10px">7.66x</text><text class="label" x="198.46625699794532" y="101.17143381004766" font-size="10px">1x</text><text class="label" x="202.27463886815758" y="114.37275394206085" font-size="10px">1.1x</text><text class="label" x="335.2790932195917" y="63.06747341400805" font-size="8px"></text><text class="label" x="483.28406323538167" y="76.26879354602124" font-size="8px"></text><text class="label" x="460.9606389875161" y="89.47011367803445" font-size="8px"></text><text class="label" x="194.96625699794532" y="102.67143381004766" font-size="8px"></text><text class="label" x="198.77463886815758" y="115.87275394206085" font-size="8px"></text></g><g style="font-size: 13px;"><rect x="150" y="127.14154748808213" width="214.3902592544161" height="12.541254125412543" fill="#4472c4"></rect><rect x="150" y="140.34286762009532" width="286.4054867326772" height="12.541254125412543" fill="#ed7d31"></rect><rect x="150" y="153.54418775210854" width="220.11790692877463" height="12.541254125412543" fill="#a5a5a5"></rect><rect x="150" y="166.74550788412174" width="39.966256997945315" height="12.541254125412543" fill="#ffc000"></rect><rect x="150" y="179.94682801613493" width="41.21419916160088" height="12.541254125412543" fill="#5b9bd5"></rect><text class="label" x="372.8902592544161" y="135.64154748808213" font-size="10px">5.36x</text><text class="label" x="444.9054867326772" y="148.84286762009532" font-size="10px">7.17x</text><text class="label" x="378.61790692877463" y="162.04418775210854" font-size="10px">5.51x</text><text class="label" x="198.46625699794532" y="175.24550788412174" font-size="10px">1x</text><text class="label" x="199.71419916160087" y="188.44682801613493" font-size="10px">1.03x</text><text class="label" x="369.3902592544161" y="137.14154748808213" font-size="8px"></text><text class="label" x="441.4054867326772" y="150.34286762009532" font-size="8px"></text><text class="label" x="375.11790692877463" y="163.54418775210854" font-size="8px"></text><text class="label" x="194.96625699794532" y="176.74550788412174" font-size="8px"></text><text class="label" x="196.21419916160087" y="189.94682801613493" font-size="8px"></text></g><g style="font-size: 13px;"><rect x="150" y="201.2156215621562" width="241.37347555016692" height="12.541254125412543" fill="#4472c4"></rect><rect x="150" y="214.4169416941694" width="304.12779980654744" height="12.541254125412543" fill="#ed7d31"></rect><rect x="150" y="227.61826182618262" width="160.25014876256313" height="12.541254125412543" fill="#a5a5a5"></rect><rect x="150" y="240.8195819581958" width="39.966256997945315" height="12.541254125412543" fill="#ffc000"></rect><rect x="150" y="254.020902090209" width="42.104798624848144" height="12.541254125412543" fill="#5b9bd5"></rect><text class="label" x="399.8734755501669" y="209.7156215621562" font-size="10px">6.04x</text><text class="label" x="462.62779980654744" y="222.9169416941694" font-size="10px">7.61x</text><text class="label" x="318.75014876256313" y="236.11826182618262" font-size="10px">4.01x</text><text class="label" x="198.46625699794532" y="249.3195819581958" font-size="10px">1x</text><text class="label" x="200.60479862484814" y="262.520902090209" font-size="10px">1.05x</text><text class="label" x="396.3734755501669" y="211.2156215621562" font-size="8px"></text><text class="label" x="459.12779980654744" y="224.4169416941694" font-size="8px"></text><text class="label" x="315.25014876256313" y="237.61826182618262" font-size="8px"></text><text class="label" x="194.96625699794532" y="250.8195819581958" font-size="8px"></text><text class="label" x="197.10479862484814" y="264.020902090209" font-size="8px"></text></g><g style="font-size: 13px;"><rect x="150" y="275.28969563623025" width="365.52302368089954" height="12.541254125412543" fill="#4472c4"></rect><rect x="150" y="288.49101576824347" width="440.9090909090908" height="12.541254125412543" fill="#ed7d31"></rect><rect x="150" y="301.6923359002567" width="285.9663001078812" height="12.541254125412543" fill="#a5a5a5"></rect><rect x="150" y="314.89365603226986" width="39.966256997945315" height="12.541254125412543" fill="#ffc000"></rect><rect x="150" y="328.0949761642831" width="41.30951927630463" height="12.541254125412543" fill="#5b9bd5"></rect><text class="label" x="524.0230236808995" y="283.78969563623025" font-size="10px">9.15x</text><text class="label" x="599.4090909090908" y="296.99101576824347" font-size="10px">11.03x</text><text class="label" x="444.4663001078812" y="310.1923359002567" font-size="10px">7.16x</text><text class="label" x="198.46625699794532" y="323.39365603226986" font-size="10px">1x</text><text class="label" x="199.80951927630463" y="336.5949761642831" font-size="10px">1.03x</text><text class="label" x="520.5230236808995" y="285.28969563623025" font-size="8px"></text><text class="label" x="595.9090909090908" y="298.49101576824347" font-size="8px"></text><text class="label" x="440.9663001078812" y="311.6923359002567" font-size="8px"></text><text class="label" x="194.96625699794532" y="324.89365603226986" font-size="8px"></text><text class="label" x="196.30951927630463" y="338.0949761642831" font-size="8px"></text></g><g style="font-size: 13px;"><rect x="150" y="349.3637697103044" width="193.91322868506492" height="12.541254125412543" fill="#4472c4"></rect><rect x="150" y="362.56508984231755" width="234.9578790576192" height="12.541254125412543" fill="#ed7d31"></rect><rect x="150" y="375.76640997433077" width="221.19902105005545" height="12.541254125412543" fill="#a5a5a5"></rect><rect x="150" y="388.967730106344" width="39.966256997945315" height="12.541254125412543" fill="#ffc000"></rect><rect x="150" y="402.16905023835716" width="42.898919192095214" height="12.541254125412543" fill="#5b9bd5"></rect><text class="label" x="352.41322868506495" y="357.8637697103044" font-size="10px">4.85x</text><text class="label" x="393.4578790576192" y="371.06508984231755" font-size="10px">5.88x</text><text class="label" x="379.6990210500554" y="384.26640997433077" font-size="10px">5.53x</text><text class="label" x="198.46625699794532" y="397.467730106344" font-size="10px">1x</text><text class="label" x="201.3989191920952" y="410.66905023835716" font-size="10px">1.07x</text><text class="label" x="348.91322868506495" y="359.3637697103044" font-size="8px"></text><text class="label" x="389.9578790576192" y="372.56508984231755" font-size="8px"></text><text class="label" x="376.1990210500554" y="385.76640997433077" font-size="8px"></text><text class="label" x="194.96625699794532" y="398.967730106344" font-size="8px"></text><text class="label" x="197.8989191920952" y="412.16905023835716" font-size="8px"></text></g><g style="font-size: 13px;"><rect x="150" y="423.4378437843784" width="295.31145612787043" height="12.541254125412543" fill="#4472c4"></rect><rect x="150" y="436.6391639163916" width="305.60613300533396" height="12.541254125412543" fill="#ed7d31"></rect><rect x="150" y="449.84048404840485" width="175.47101958559085" height="12.541254125412543" fill="#a5a5a5"></rect><rect x="150" y="463.041804180418" width="40.53593653886969" height="12.541254125412543" fill="#ffc000"></rect><rect x="150" y="476.24312431243123" width="39.966256997945315" height="12.541254125412543" fill="#5b9bd5"></rect><text class="label" x="453.81145612787043" y="431.9378437843784" font-size="10px">7.39x</text><text class="label" x="464.10613300533396" y="445.1391639163916" font-size="10px">7.65x</text><text class="label" x="333.97101958559085" y="458.34048404840485" font-size="10px">4.39x</text><text class="label" x="199.0359365388697" y="471.541804180418" font-size="10px">1.01x</text><text class="label" x="198.46625699794532" y="484.74312431243123" font-size="10px">1x</text><text class="label" x="450.31145612787043" y="433.4378437843784" font-size="8px"></text><text class="label" x="460.60613300533396" y="446.6391639163916" font-size="8px"></text><text class="label" x="330.47101958559085" y="459.84048404840485" font-size="8px"></text><text class="label" x="195.5359365388697" y="473.041804180418" font-size="8px"></text><text class="label" x="194.96625699794532" y="486.24312431243123" font-size="8px"></text></g><g style="font-size: 13px;"><rect x="150" y="497.51191785845253" width="263.10377405986316" height="12.541254125412543" fill="#4472c4"></rect><rect x="150" y="510.7132379904657" width="284.92847166671874" height="12.541254125412543" fill="#ed7d31"></rect><rect x="150" y="523.9145581224789" width="216.22882838522904" height="12.541254125412543" fill="#a5a5a5"></rect><rect x="150" y="537.1158782544921" width="39.966256997945315" height="12.541254125412543" fill="#ffc000"></rect><rect x="150" y="550.3171983865053" width="40.90401833856142" height="12.541254125412543" fill="#5b9bd5"></rect><text class="label" x="421.60377405986316" y="506.01191785845253" font-size="10px">6.58x</text><text class="label" x="443.42847166671874" y="519.2132379904657" font-size="10px">7.13x</text><text class="label" x="374.728828385229" y="532.4145581224789" font-size="10px">5.41x</text><text class="label" x="198.46625699794532" y="545.6158782544921" font-size="10px">1x</text><text class="label" x="199.40401833856143" y="558.8171983865053" font-size="10px">1.02x</text><text class="label" x="418.10377405986316" y="507.51191785845253" font-size="8px"></text><text class="label" x="439.92847166671874" y="520.7132379904657" font-size="8px"></text><text class="label" x="371.228828385229" y="533.9145581224789" font-size="8px"></text><text class="label" x="194.96625699794532" y="547.1158782544921" font-size="8px"></text><text class="label" x="195.90401833856143" y="560.3171983865053" font-size="8px"></text></g><g style="font-size: 13px;"><rect x="150" y="571.5859919325266" width="198.44425314798363" height="12.541254125412543" fill="#4472c4"></rect><rect x="150" y="584.7873120645397" width="219.32924407383416" height="12.541254125412543" fill="#ed7d31"></rect><rect x="150" y="597.9886321965529" width="60.23815866330338" height="12.541254125412543" fill="#a5a5a5"></rect><rect x="150" y="611.1899523285662" width="39.966256997945315" height="12.541254125412543" fill="#ffc000"></rect><rect x="150" y="624.3912724605793" width="40.15955137321592" height="12.541254125412543" fill="#5b9bd5"></rect><text class="label" x="356.94425314798366" y="580.0859919325266" font-size="10px">4.97x</text><text class="label" x="377.82924407383416" y="593.2873120645397" font-size="10px">5.49x</text><text class="label" x="218.73815866330338" y="606.4886321965529" font-size="10px">1.51x</text><text class="label" x="198.46625699794532" y="619.6899523285662" font-size="10px">1x</text><text class="label" x="198.65955137321592" y="632.8912724605793" font-size="10px">1x</text><text class="label" x="353.44425314798366" y="581.5859919325266" font-size="8px"></text><text class="label" x="374.32924407383416" y="594.7873120645397" font-size="8px"></text><text class="label" x="215.23815866330338" y="607.9886321965529" font-size="8px"></text><text class="label" x="194.96625699794532" y="621.1899523285662" font-size="8px"></text><text class="label" x="195.15955137321592" y="634.3912724605793" font-size="8px"></text></g></g></svg>