<svg xmlns="http://www.w3.org/2000/svg" xmlns:xlink="http://www.w3.org/1999/xlink" width="800" height="674" style="background-color: white;"><g class="y axis" transform="translate(149,45)" fill="none" font-size="10" font-family="sans-serif" text-anchor="end" style="font-size: 13px;"><path class="domain" stroke="currentColor" d="M0.5,0.5V480.5"></path><g class="tick" opacity="1" transform="translate(0,32.592592592592595)" style="font-size: 13px;"><line stroke="currentColor" x2="0"></line><text fill="currentColor" x="-3" dy="0.32em">object (simple)    </text></g><g class="tick" opacity="1" transform="translate(0,91.85185185185186)" style="font-size: 13px;"><line stroke="currentColor" x2="0"></line><text fill="currentColor" x="-3" dy="0.32em">object (hierarchical)    </text></g><g class="tick" opacity="1" transform="translate(0,151.11111111111111)" style="font-size: 13px;"><line stroke="currentColor" x2="0"></line><text fill="currentColor" x="-3" dy="0.32em">object (recursive)    </text></g><g class="tick" opacity="1" transform="translate(0,210.37037037037035)" style="font-size: 13px;"><line stroke="currentColor" x2="0"></line><text fill="currentColor" x="-3" dy="0.32em">object (union, explicit)    </text></g><g class="tick" opacity="1" transform="translate(0,269.6296296296296)" style="font-size: 13px;"><line stroke="currentColor" x2="0"></line><text fill="currentColor" x="-3" dy="0.32em">array (simple)    </text></g><g class="tick" opacity="1" transform="translate(0,328.8888888888889)" style="font-size: 13px;"><line stroke="currentColor" x2="0"></line><text fill="currentColor" x="-3" dy="0.32em">array (hierarchical)    </text></g><g class="tick" opacity="1" transform="translate(0,388.14814814814815)" style="font-size: 13px;"><line stroke="currentColor" x2="0"></line><text fill="currentColor" x="-3" dy="0.32em">array (recursive)    </text></g><g class="tick" opacity="1" transform="translate(0,447.40740740740745)" style="font-size: 13px;"><line stroke="currentColor" x2="0"></line><text fill="currentColor" x="-3" dy="0.32em">array (union, explicit)    </text></g></g><g class="x axis" transform="translate(149,525)" fill="none" font-size="10" font-family="sans-serif" text-anchor="middle" style="font-size: 13px;"><path class="domain" stroke="currentColor" d="M0.5,0.5H485.5"></path><g class="tick" opacity="1" transform="translate(0.5,0)" style="font-size: 13px;"><line stroke="currentColor" y2="6"></line><text fill="currentColor" y="9" dy="0.71em">0x</text></g><g class="tick" opacity="1" transform="translate(65.19903326130814,0)" style="font-size: 13px;"><line stroke="currentColor" y2="6"></line><text fill="currentColor" y="9" dy="0.71em">2x</text></g><g class="tick" opacity="1" transform="translate(129.8980665226163,0)" style="font-size: 13px;"><line stroke="currentColor" y2="6"></line><text fill="currentColor" y="9" dy="0.71em">4x</text></g><g class="tick" opacity="1" transform="translate(194.59709978392445,0)" style="font-size: 13px;"><line stroke="currentColor" y2="6"></line><text fill="currentColor" y="9" dy="0.71em">6x</text></g><g class="tick" opacity="1" transform="translate(259.2961330452326,0)" style="font-size: 13px;"><line stroke="currentColor" y2="6"></line><text fill="currentColor" y="9" dy="0.71em">8x</text></g><g class="tick" opacity="1" transform="translate(323.99516630654074,0)" style="font-size: 13px;"><line stroke="currentColor" y2="6"></line><text fill="currentColor" y="9" dy="0.71em">10x</text></g><g class="tick" opacity="1" transform="translate(388.6941995678489,0)" style="font-size: 13px;"><line stroke="currentColor" y2="6"></line><text fill="currentColor" y="9" dy="0.71em">12x</text></g><g class="tick" opacity="1" transform="translate(453.39323282915706,0)" style="font-size: 13px;"><line stroke="currentColor" y2="6"></line><text fill="currentColor" y="9" dy="0.71em">14x</text></g></g><text transform="translate(400, 30)" style="text-anchor: middle; font-size: 20px; font-weight: bold;">assert benchmark</text><rect x="650" y="125" width="230" height="5" fill="gray"></rect><rect x="645" y="35" width="230" height="90" fill="none" stroke="black"></rect><rect x="655" y="45" width="10" height="10" style="fill: #4472c4;"></rect><text x="670" y="55" style="font-size: 12px;">nestia-express</text><rect x="655" y="65" width="10" height="10" style="fill: #ed7d31;"></rect><text x="670" y="75" style="font-size: 12px;">nestia-fastify</text><rect x="655" y="85" width="10" height="10" style="fill: #a5a5a5;"></rect><text x="670" y="95" style="font-size: 12px;">NestJS-express</text><rect x="655" y="105" width="10" height="10" style="fill: #ffc000;"></rect><text x="670" y="115" style="font-size: 12px;">NestJS-fastify</text><text x="20" y="589" style="font-size: 12px;">  - CPU: Apple M1</text><text x="20" y="606" style="font-size: 12px;">  - OS: darwin</text><text x="20" y="623" style="font-size: 12px;">  - RAM: 16 GB</text><text x="20" y="640" style="font-size: 12px;">  - NodeJS version: v21.5.0</text><text x="20" y="657" style="font-size: 12px;">  - nestia version: v3.0.5</text><g style="font-size: 13px;"><g style="font-size: 13px;"><rect x="150" y="51.584362139917694" width="269.4818904958822" height="12.510288065843621" fill="#4472c4"></rect><rect x="150" y="64.75308641975309" width="389.0144804443818" height="12.510288065843621" fill="#ed7d31"></rect><rect x="150" y="77.92181069958848" width="32.34951663065407" height="12.510288065843621" fill="#a5a5a5"></rect><rect x="150" y="91.09053497942386" width="33.36812053477769" height="12.510288065843621" fill="#ffc000"></rect><text class="label" x="427.9818904958822" y="60.084362139917694" font-size="10px">8.33x</text><text class="label" x="547.5144804443818" y="73.25308641975309" font-size="10px">12.03x</text><text class="label" x="190.84951663065408" y="86.42181069958848" font-size="10px">1x</text><text class="label" x="191.8681205347777" y="99.59053497942386" font-size="10px">1.03x</text><text class="label" x="424.4818904958822" y="61.584362139917694" font-size="8px"></text><text class="label" x="544.0144804443818" y="74.75308641975309" font-size="8px"></text><text class="label" x="187.34951663065408" y="87.92181069958848" font-size="8px"></text><text class="label" x="188.3681205347777" y="101.09053497942386" font-size="8px"></text></g><g style="font-size: 13px;"><rect x="150" y="110.84362139917695" width="356.69439173178546" height="12.510288065843621" fill="#4472c4"></rect><rect x="150" y="124.01234567901236" width="411.1162427049147" height="12.510288065843621" fill="#ed7d31"></rect><rect x="150" y="137.18106995884773" width="32.34951663065407" height="12.510288065843621" fill="#a5a5a5"></rect><rect x="150" y="150.34979423868313" width="33.9565101853342" height="12.510288065843621" fill="#ffc000"></rect><text class="label" x="515.1943917317855" y="119.34362139917695" font-size="10px">11.03x</text><text class="label" x="569.6162427049147" y="132.51234567901236" font-size="10px">12.71x</text><text class="label" x="190.84951663065408" y="145.68106995884773" font-size="10px">1x</text><text class="label" x="192.4565101853342" y="158.84979423868313" font-size="10px">1.05x</text><text class="label" x="511.69439173178546" y="120.84362139917695" font-size="8px"></text><text class="label" x="566.1162427049147" y="134.01234567901236" font-size="8px"></text><text class="label" x="187.34951663065408" y="147.18106995884773" font-size="8px"></text><text class="label" x="188.9565101853342" y="160.34979423868313" font-size="8px"></text></g><g style="font-size: 13px;"><rect x="150" y="170.10288065843622" width="383.1264894699253" height="12.510288065843621" fill="#4472c4"></rect><rect x="150" y="183.2716049382716" width="405.10007182567097" height="12.510288065843621" fill="#ed7d31"></rect><rect x="150" y="196.440329218107" width="32.34951663065407" height="12.510288065843621" fill="#a5a5a5"></rect><rect x="150" y="209.6090534979424" width="33.89129004071269" height="12.510288065843621" fill="#ffc000"></rect><text class="label" x="541.6264894699252" y="178.60288065843622" font-size="10px">11.84x</text><text class="label" x="563.600071825671" y="191.7716049382716" font-size="10px">12.52x</text><text class="label" x="190.84951663065408" y="204.940329218107" font-size="10px">1x</text><text class="label" x="192.3912900407127" y="218.1090534979424" font-size="10px">1.05x</text><text class="label" x="538.1264894699252" y="180.10288065843622" font-size="8px"></text><text class="label" x="560.100071825671" y="193.2716049382716" font-size="8px"></text><text class="label" x="187.34951663065408" y="206.440329218107" font-size="8px"></text><text class="label" x="188.8912900407127" y="219.6090534979424" font-size="8px"></text></g><g style="font-size: 13px;"><rect x="150" y="229.36213991769546" width="207.46128591675765" height="12.510288065843621" fill="#4472c4"></rect><rect x="150" y="242.53086419753086" width="237.74230195200442" height="12.510288065843621" fill="#ed7d31"></rect><rect x="150" y="255.69958847736626" width="32.34951663065407" height="12.510288065843621" fill="#a5a5a5"></rect><rect x="150" y="268.86831275720164" width="33.88161828272869" height="12.510288065843621" fill="#ffc000"></rect><text class="label" x="365.9612859167577" y="237.86213991769546" font-size="10px">6.41x</text><text class="label" x="396.2423019520044" y="251.03086419753086" font-size="10px">7.35x</text><text class="label" x="190.84951663065408" y="264.19958847736626" font-size="10px">1x</text><text class="label" x="192.38161828272868" y="277.36831275720164" font-size="10px">1.05x</text><text class="label" x="362.4612859167577" y="239.36213991769546" font-size="8px"></text><text class="label" x="392.7423019520044" y="252.53086419753086" font-size="8px"></text><text class="label" x="187.34951663065408" y="265.69958847736626" font-size="8px"></text><text class="label" x="188.88161828272868" y="278.86831275720164" font-size="8px"></text></g><g style="font-size: 13px;"><rect x="150" y="288.6213991769547" width="165.06474693816963" height="12.510288065843621" fill="#4472c4"></rect><rect x="150" y="301.7901234567901" width="174.51124980510554" height="12.510288065843621" fill="#ed7d31"></rect><rect x="150" y="314.9588477366255" width="32.919234631728585" height="12.510288065843621" fill="#a5a5a5"></rect><rect x="150" y="328.12757201646093" width="32.34951663065407" height="12.510288065843621" fill="#ffc000"></rect><text class="label" x="323.5647469381696" y="297.1213991769547" font-size="10px">5.1x</text><text class="label" x="333.01124980510554" y="310.2901234567901" font-size="10px">5.39x</text><text class="label" x="191.41923463172859" y="323.4588477366255" font-size="10px">1.02x</text><text class="label" x="190.84951663065408" y="336.62757201646093" font-size="10px">1x</text><text class="label" x="320.0647469381696" y="298.6213991769547" font-size="8px"></text><text class="label" x="329.51124980510554" y="311.7901234567901" font-size="8px"></text><text class="label" x="187.91923463172859" y="324.9588477366255" font-size="8px"></text><text class="label" x="187.34951663065408" y="338.12757201646093" font-size="8px"></text></g><g style="font-size: 13px;"><rect x="150" y="347.880658436214" width="367.4809335664018" height="12.510288065843621" fill="#4472c4"></rect><rect x="150" y="361.04938271604937" width="294.0145530734788" height="12.510288065843621" fill="#ed7d31"></rect><rect x="150" y="374.2181069958848" width="32.34951663065407" height="12.510288065843621" fill="#a5a5a5"></rect><rect x="150" y="387.38683127572017" width="64.53758610856993" height="12.510288065843621" fill="#ffc000"></rect><text class="label" x="525.9809335664017" y="356.380658436214" font-size="10px">11.36x</text><text class="label" x="452.5145530734788" y="369.54938271604937" font-size="10px">9.09x</text><text class="label" x="190.84951663065408" y="382.7181069958848" font-size="10px">1x</text><text class="label" x="223.03758610856994" y="395.88683127572017" font-size="10px">2x</text><text class="label" x="522.4809335664017" y="357.880658436214" font-size="8px"></text><text class="label" x="449.0145530734788" y="371.04938271604937" font-size="8px"></text><text class="label" x="187.34951663065408" y="384.2181069958848" font-size="8px"></text><text class="label" x="219.53758610856994" y="397.38683127572017" font-size="8px"></text></g><g style="font-size: 13px;"><rect x="150" y="407.13991769547323" width="413.81985828311264" height="12.510288065843621" fill="#4472c4"></rect><rect x="150" y="420.3086419753086" width="440.9090909090908" height="12.510288065843621" fill="#ed7d31"></rect><rect x="150" y="433.47736625514403" width="32.34951663065407" height="12.510288065843621" fill="#a5a5a5"></rect><rect x="150" y="446.6460905349794" width="35.28996639755517" height="12.510288065843621" fill="#ffc000"></rect><text class="label" x="572.3198582831126" y="415.63991769547323" font-size="10px">12.79x</text><text class="label" x="599.4090909090908" y="428.8086419753086" font-size="10px">13.63x</text><text class="label" x="190.84951663065408" y="441.97736625514403" font-size="10px">1x</text><text class="label" x="193.78996639755516" y="455.1460905349794" font-size="10px">1.09x</text><text class="label" x="568.8198582831126" y="417.13991769547323" font-size="8px"></text><text class="label" x="595.9090909090908" y="430.3086419753086" font-size="8px"></text><text class="label" x="187.34951663065408" y="443.47736625514403" font-size="8px"></text><text class="label" x="190.28996639755516" y="456.6460905349794" font-size="8px"></text></g><g style="font-size: 13px;"><rect x="150" y="466.3991769547325" width="170.66762311510806" height="12.510288065843621" fill="#4472c4"></rect><rect x="150" y="479.5679012345679" width="173.23176027754093" height="12.510288065843621" fill="#ed7d31"></rect><rect x="150" y="492.73662551440333" width="32.34951663065407" height="12.510288065843621" fill="#a5a5a5"></rect><rect x="150" y="505.9053497942387" width="33.21534133641898" height="12.510288065843621" fill="#ffc000"></rect><text class="label" x="329.1676231151081" y="474.8991769547325" font-size="10px">5.28x</text><text class="label" x="331.73176027754096" y="488.0679012345679" font-size="10px">5.36x</text><text class="label" x="190.84951663065408" y="501.23662551440333" font-size="10px">1x</text><text class="label" x="191.715341336419" y="514.4053497942386" font-size="10px">1.03x</text><text class="label" x="325.6676231151081" y="476.3991769547325" font-size="8px"></text><text class="label" x="328.23176027754096" y="489.5679012345679" font-size="8px"></text><text class="label" x="187.34951663065408" y="502.73662551440333" font-size="8px"></text><text class="label" x="188.215341336419" y="515.9053497942386" font-size="8px"></text></g></g></svg>