<svg xmlns="http://www.w3.org/2000/svg" xmlns:xlink="http://www.w3.org/1999/xlink" width="800" height="674" style="background-color: white;"><g class="y axis" transform="translate(149,45)" fill="none" font-size="10" font-family="sans-serif" text-anchor="end" style="font-size: 13px;"><path class="domain" stroke="currentColor" d="M0.5,0.5V480.5"></path><g class="tick" opacity="1" transform="translate(0,32.592592592592595)" style="font-size: 13px;"><line stroke="currentColor" x2="0"></line><text fill="currentColor" x="-3" dy="0.32em">object (simple)    </text></g><g class="tick" opacity="1" transform="translate(0,91.85185185185186)" style="font-size: 13px;"><line stroke="currentColor" x2="0"></line><text fill="currentColor" x="-3" dy="0.32em">object (hierarchical)    </text></g><g class="tick" opacity="1" transform="translate(0,151.11111111111111)" style="font-size: 13px;"><line stroke="currentColor" x2="0"></line><text fill="currentColor" x="-3" dy="0.32em">object (recursive)    </text></g><g class="tick" opacity="1" transform="translate(0,210.37037037037035)" style="font-size: 13px;"><line stroke="currentColor" x2="0"></line><text fill="currentColor" x="-3" dy="0.32em">object (union, explicit)    </text></g><g class="tick" opacity="1" transform="translate(0,269.6296296296296)" style="font-size: 13px;"><line stroke="currentColor" x2="0"></line><text fill="currentColor" x="-3" dy="0.32em">array (simple)    </text></g><g class="tick" opacity="1" transform="translate(0,328.8888888888889)" style="font-size: 13px;"><line stroke="currentColor" x2="0"></line><text fill="currentColor" x="-3" dy="0.32em">array (hierarchical)    </text></g><g class="tick" opacity="1" transform="translate(0,388.14814814814815)" style="font-size: 13px;"><line stroke="currentColor" x2="0"></line><text fill="currentColor" x="-3" dy="0.32em">array (recursive)    </text></g><g class="tick" opacity="1" transform="translate(0,447.40740740740745)" style="font-size: 13px;"><line stroke="currentColor" x2="0"></line><text fill="currentColor" x="-3" dy="0.32em">array (union, explicit)    </text></g></g><g class="x axis" transform="translate(149,525)" fill="none" font-size="10" font-family="sans-serif" text-anchor="middle" style="font-size: 13px;"><path class="domain" stroke="currentColor" d="M0.5,0.5H485.5"></path><g class="tick" opacity="1" transform="translate(0.5,0)" style="font-size: 13px;"><line stroke="currentColor" y2="6"></line><text fill="currentColor" y="9" dy="0.71em">0x</text></g><g class="tick" opacity="1" transform="translate(126.98492929003007,0)" style="font-size: 13px;"><line stroke="currentColor" y2="6"></line><text fill="currentColor" y="9" dy="0.71em">200x</text></g><g class="tick" opacity="1" transform="translate(253.46985858006013,0)" style="font-size: 13px;"><line stroke="currentColor" y2="6"></line><text fill="currentColor" y="9" dy="0.71em">400x</text></g><g class="tick" opacity="1" transform="translate(379.95478787009023,0)" style="font-size: 13px;"><line stroke="currentColor" y2="6"></line><text fill="currentColor" y="9" dy="0.71em">600x</text></g></g><text transform="translate(400, 30)" style="text-anchor: middle; font-size: 20px; font-weight: bold;">performance benchmark</text><rect x="650" y="125" width="230" height="5" fill="gray"></rect><rect x="645" y="35" width="230" height="90" fill="none" stroke="black"></rect><rect x="655" y="45" width="10" height="10" style="fill: #4472c4;"></rect><text x="670" y="55" style="font-size: 12px;">nestia-express</text><rect x="655" y="65" width="10" height="10" style="fill: #ed7d31;"></rect><text x="670" y="75" style="font-size: 12px;">nestia-fastify</text><rect x="655" y="85" width="10" height="10" style="fill: #a5a5a5;"></rect><text x="670" y="95" style="font-size: 12px;">NestJS-express</text><rect x="655" y="105" width="10" height="10" style="fill: #ffc000;"></rect><text x="670" y="115" style="font-size: 12px;">NestJS-fastify</text><text x="20" y="589" style="font-size: 12px;">  - CPU: Apple M1</text><text x="20" y="606" style="font-size: 12px;">  - OS: darwin</text><text x="20" y="623" style="font-size: 12px;">  - RAM: 16 GB</text><text x="20" y="640" style="font-size: 12px;">  - NodeJS version: v21.5.0</text><text x="20" y="657" style="font-size: 12px;">  - nestia version: v3.0.5</text><g style="font-size: 13px;"><g style="font-size: 13px;"><rect x="150" y="51.584362139917694" width="3.752616030034056" height="12.510288065843621" fill="#4472c4"></rect><rect x="150" y="64.75308641975309" width="4.921630616785434" height="12.510288065843621" fill="#ed7d31"></rect><rect x="150" y="77.92181069958848" width="0.6324246464501504" height="12.510288065843621" fill="#a5a5a5"></rect><rect x="150" y="91.09053497942386" width="0.6782453427455137" height="12.510288065843621" fill="#ffc000"></rect><text class="label" x="162.25261603003406" y="60.084362139917694" font-size="10px">6x</text><text class="label" x="163.42163061678542" y="73.25308641975309" font-size="10px">8x</text><text class="label" x="159.13242464645015" y="86.42181069958848" font-size="10px">1x</text><text class="label" x="159.17824534274553" y="99.59053497942386" font-size="10px">1x</text><text class="label" x="158.75261603003406" y="61.584362139917694" font-size="8px"></text><text class="label" x="159.92163061678542" y="74.75308641975309" font-size="8px"></text><text class="label" x="155.63242464645015" y="87.92181069958848" font-size="8px"></text><text class="label" x="155.67824534274553" y="101.09053497942386" font-size="8px"></text></g><g style="font-size: 13px;"><rect x="150" y="110.84362139917695" width="4.01099940014747" height="12.510288065843621" fill="#4472c4"></rect><rect x="150" y="124.01234567901236" width="4.339369835910641" height="12.510288065843621" fill="#ed7d31"></rect><rect x="150" y="137.18106995884773" width="0.6324246464501504" height="12.510288065843621" fill="#a5a5a5"></rect><rect x="150" y="150.34979423868313" width="0.653545884006499" height="12.510288065843621" fill="#ffc000"></rect><text class="label" x="162.51099940014748" y="119.34362139917695" font-size="10px">6x</text><text class="label" x="162.83936983591065" y="132.51234567901236" font-size="10px">7x</text><text class="label" x="159.13242464645015" y="145.68106995884773" font-size="10px">1x</text><text class="label" x="159.1535458840065" y="158.84979423868313" font-size="10px">1x</text><text class="label" x="159.01099940014748" y="120.84362139917695" font-size="8px"></text><text class="label" x="159.33936983591065" y="134.01234567901236" font-size="8px"></text><text class="label" x="155.63242464645015" y="147.18106995884773" font-size="8px"></text><text class="label" x="155.6535458840065" y="160.34979423868313" font-size="8px"></text></g><g style="font-size: 13px;"><rect x="150" y="170.10288065843622" width="4.398946560285264" height="12.510288065843621" fill="#4472c4"></rect><rect x="150" y="183.2716049382716" width="4.602780739244478" height="12.510288065843621" fill="#ed7d31"></rect><rect x="150" y="196.440329218107" width="0.6324246464501504" height="12.510288065843621" fill="#a5a5a5"></rect><rect x="150" y="209.6090534979424" width="0.6447991121907138" height="12.510288065843621" fill="#ffc000"></rect><text class="label" x="162.89894656028525" y="178.60288065843622" font-size="10px">7x</text><text class="label" x="163.10278073924448" y="191.7716049382716" font-size="10px">7x</text><text class="label" x="159.13242464645015" y="204.940329218107" font-size="10px">1x</text><text class="label" x="159.14479911219073" y="218.1090534979424" font-size="10px">1x</text><text class="label" x="159.39894656028525" y="180.10288065843622" font-size="8px"></text><text class="label" x="159.60278073924448" y="193.2716049382716" font-size="8px"></text><text class="label" x="155.63242464645015" y="206.440329218107" font-size="8px"></text><text class="label" x="155.64479911219073" y="219.6090534979424" font-size="8px"></text></g><g style="font-size: 13px;"><rect x="150" y="229.36213991769546" width="4.976542348540603" height="12.510288065843621" fill="#4472c4"></rect><rect x="150" y="242.53086419753086" width="5.032193435037255" height="12.510288065843621" fill="#ed7d31"></rect><rect x="150" y="255.69958847736626" width="0.6612184928463315" height="12.510288065843621" fill="#a5a5a5"></rect><rect x="150" y="268.86831275720164" width="0.6324246464501504" height="12.510288065843621" fill="#ffc000"></rect><text class="label" x="163.4765423485406" y="237.86213991769546" font-size="10px">8x</text><text class="label" x="163.53219343503724" y="251.03086419753086" font-size="10px">8x</text><text class="label" x="159.16121849284633" y="264.19958847736626" font-size="10px">1x</text><text class="label" x="159.13242464645015" y="277.36831275720164" font-size="10px">1x</text><text class="label" x="159.9765423485406" y="239.36213991769546" font-size="8px"></text><text class="label" x="160.03219343503724" y="252.53086419753086" font-size="8px"></text><text class="label" x="155.66121849284633" y="265.69958847736626" font-size="8px"></text><text class="label" x="155.63242464645015" y="278.86831275720164" font-size="8px"></text></g><g style="font-size: 13px;"><rect x="150" y="288.6213991769547" width="3.2905400196636756" height="12.510288065843621" fill="#4472c4"></rect><rect x="150" y="301.7901234567901" width="3.337190910211056" height="12.510288065843621" fill="#ed7d31"></rect><rect x="150" y="314.9588477366255" width="0.6324246464501504" height="12.510288065843621" fill="#a5a5a5"></rect><rect x="150" y="328.12757201646093" width="0.6581628768778827" height="12.510288065843621" fill="#ffc000"></rect><text class="label" x="161.79054001966367" y="297.1213991769547" font-size="10px">5x</text><text class="label" x="161.83719091021106" y="310.2901234567901" font-size="10px">5x</text><text class="label" x="159.13242464645015" y="323.4588477366255" font-size="10px">1x</text><text class="label" x="159.1581628768779" y="336.62757201646093" font-size="10px">1x</text><text class="label" x="158.29054001966367" y="298.6213991769547" font-size="8px"></text><text class="label" x="158.33719091021106" y="311.7901234567901" font-size="8px"></text><text class="label" x="155.63242464645015" y="324.9588477366255" font-size="8px"></text><text class="label" x="155.6581628768779" y="338.12757201646093" font-size="8px"></text></g><g style="font-size: 13px;"><rect x="150" y="347.880658436214" width="4.741562875610965" height="12.510288065843621" fill="#4472c4"></rect><rect x="150" y="361.04938271604937" width="0.6324246464501504" height="12.510288065843621" fill="#ed7d31"></rect><rect x="150" y="374.2181069958848" width="0.7105440352285273" height="12.510288065843621" fill="#a5a5a5"></rect><rect x="150" y="387.38683127572017" width="1.0118144645986862" height="12.510288065843621" fill="#ffc000"></rect><text class="label" x="163.24156287561095" y="356.380658436214" font-size="10px">7x</text><text class="label" x="159.13242464645015" y="369.54938271604937" font-size="10px">1x</text><text class="label" x="159.21054403522854" y="382.7181069958848" font-size="10px">1x</text><text class="label" x="159.5118144645987" y="395.88683127572017" font-size="10px">2x</text><text class="label" x="159.74156287561095" y="357.880658436214" font-size="8px"></text><text class="label" x="155.63242464645015" y="371.04938271604937" font-size="8px"></text><text class="label" x="155.71054403522854" y="384.2181069958848" font-size="8px"></text><text class="label" x="156.0118144645987" y="397.38683127572017" font-size="8px"></text></g><g style="font-size: 13px;"><rect x="150" y="407.13991769547323" width="415.5073351026417" height="12.510288065843621" fill="#4472c4"></rect><rect x="150" y="420.3086419753086" width="440.9090909090909" height="12.510288065843621" fill="#ed7d31"></rect><rect x="150" y="433.47736625514403" width="58.56421437791436" height="12.510288065843621" fill="#a5a5a5"></rect><rect x="150" y="446.6460905349794" width="0.6324246464501504" height="12.510288065843621" fill="#ffc000"></rect><text class="label" x="574.0073351026417" y="415.63991769547323" font-size="10px">657x</text><text class="label" x="599.4090909090909" y="428.8086419753086" font-size="10px">697x</text><text class="label" x="217.06421437791437" y="441.97736625514403" font-size="10px">93x</text><text class="label" x="159.13242464645015" y="455.1460905349794" font-size="10px">1x</text><text class="label" x="570.5073351026417" y="417.13991769547323" font-size="8px"></text><text class="label" x="595.9090909090909" y="430.3086419753086" font-size="8px"></text><text class="label" x="213.56421437791437" y="443.47736625514403" font-size="8px"></text><text class="label" x="155.63242464645015" y="456.6460905349794" font-size="8px"></text></g><g style="font-size: 13px;"><rect x="150" y="466.3991769547325" width="3.2004392406049487" height="12.510288065843621" fill="#4472c4"></rect><rect x="150" y="479.5679012345679" width="3.1918317202409785" height="12.510288065843621" fill="#ed7d31"></rect><rect x="150" y="492.73662551440333" width="0.6324246464501504" height="12.510288065843621" fill="#a5a5a5"></rect><rect x="150" y="505.9053497942387" width="0.6417766702208019" height="12.510288065843621" fill="#ffc000"></rect><text class="label" x="161.70043924060494" y="474.8991769547325" font-size="10px">5x</text><text class="label" x="161.69183172024097" y="488.0679012345679" font-size="10px">5x</text><text class="label" x="159.13242464645015" y="501.23662551440333" font-size="10px">1x</text><text class="label" x="159.1417766702208" y="514.4053497942386" font-size="10px">1x</text><text class="label" x="158.20043924060494" y="476.3991769547325" font-size="8px"></text><text class="label" x="158.19183172024097" y="489.5679012345679" font-size="8px"></text><text class="label" x="155.63242464645015" y="502.73662551440333" font-size="8px"></text><text class="label" x="155.6417766702208" y="515.9053497942386" font-size="8px"></text></g></g></svg>