<svg xmlns="http://www.w3.org/2000/svg" xmlns:xlink="http://www.w3.org/1999/xlink" width="800" height="674" style="background-color: white;"><g class="y axis" transform="translate(149,45)" fill="none" font-size="10" font-family="sans-serif" text-anchor="end" style="font-size: 13px;"><path class="domain" stroke="currentColor" d="M0.5,0.5V480.5"></path><g class="tick" opacity="1" transform="translate(0,32.592592592592595)" style="font-size: 13px;"><line stroke="currentColor" x2="0"></line><text fill="currentColor" x="-3" dy="0.32em">object (simple)    </text></g><g class="tick" opacity="1" transform="translate(0,91.85185185185186)" style="font-size: 13px;"><line stroke="currentColor" x2="0"></line><text fill="currentColor" x="-3" dy="0.32em">object (hierarchical)    </text></g><g class="tick" opacity="1" transform="translate(0,151.11111111111111)" style="font-size: 13px;"><line stroke="currentColor" x2="0"></line><text fill="currentColor" x="-3" dy="0.32em">object (recursive)    </text></g><g class="tick" opacity="1" transform="translate(0,210.37037037037035)" style="font-size: 13px;"><line stroke="currentColor" x2="0"></line><text fill="currentColor" x="-3" dy="0.32em">object (union, explicit)    </text></g><g class="tick" opacity="1" transform="translate(0,269.6296296296296)" style="font-size: 13px;"><line stroke="currentColor" x2="0"></line><text fill="currentColor" x="-3" dy="0.32em">array (simple)    </text></g><g class="tick" opacity="1" transform="translate(0,328.8888888888889)" style="font-size: 13px;"><line stroke="currentColor" x2="0"></line><text fill="currentColor" x="-3" dy="0.32em">array (hierarchical)    </text></g><g class="tick" opacity="1" transform="translate(0,388.14814814814815)" style="font-size: 13px;"><line stroke="currentColor" x2="0"></line><text fill="currentColor" x="-3" dy="0.32em">array (recursive)    </text></g><g class="tick" opacity="1" transform="translate(0,447.40740740740745)" style="font-size: 13px;"><line stroke="currentColor" x2="0"></line><text fill="currentColor" x="-3" dy="0.32em">array (union, explicit)    </text></g></g><g class="x axis" transform="translate(149,525)" fill="none" font-size="10" font-family="sans-serif" text-anchor="middle" style="font-size: 13px;"><path class="domain" stroke="currentColor" d="M0.5,0.5H485.5"></path><g class="tick" opacity="1" transform="translate(0.5,0)" style="font-size: 13px;"><line stroke="currentColor" y2="6"></line><text fill="currentColor" y="9" dy="0.71em">0x</text></g><g class="tick" opacity="1" transform="translate(99.50780251660247,0)" style="font-size: 13px;"><line stroke="currentColor" y2="6"></line><text fill="currentColor" y="9" dy="0.71em">2x</text></g><g class="tick" opacity="1" transform="translate(198.51560503320493,0)" style="font-size: 13px;"><line stroke="currentColor" y2="6"></line><text fill="currentColor" y="9" dy="0.71em">4x</text></g><g class="tick" opacity="1" transform="translate(297.5234075498074,0)" style="font-size: 13px;"><line stroke="currentColor" y2="6"></line><text fill="currentColor" y="9" dy="0.71em">6x</text></g><g class="tick" opacity="1" transform="translate(396.53121006640987,0)" style="font-size: 13px;"><line stroke="currentColor" y2="6"></line><text fill="currentColor" y="9" dy="0.71em">8x</text></g></g><text transform="translate(400, 30)" style="text-anchor: middle; font-size: 20px; font-weight: bold;">stringify benchmark</text><rect x="650" y="125" width="230" height="5" fill="gray"></rect><rect x="645" y="35" width="230" height="90" fill="none" stroke="black"></rect><rect x="655" y="45" width="10" height="10" style="fill: #4472c4;"></rect><text x="670" y="55" style="font-size: 12px;">nestia-express</text><rect x="655" y="65" width="10" height="10" style="fill: #ed7d31;"></rect><text x="670" y="75" style="font-size: 12px;">nestia-fastify</text><rect x="655" y="85" width="10" height="10" style="fill: #a5a5a5;"></rect><text x="670" y="95" style="font-size: 12px;">NestJS-express</text><rect x="655" y="105" width="10" height="10" style="fill: #ffc000;"></rect><text x="670" y="115" style="font-size: 12px;">NestJS-fastify</text><text x="20" y="589" style="font-size: 12px;">  - CPU: Apple M1</text><text x="20" y="606" style="font-size: 12px;">  - OS: darwin</text><text x="20" y="623" style="font-size: 12px;">  - RAM: 16 GB</text><text x="20" y="640" style="font-size: 12px;">  - NodeJS version: v21.5.0</text><text x="20" y="657" style="font-size: 12px;">  - nestia version: v3.0.5</text><g style="font-size: 13px;"><g style="font-size: 13px;"><rect x="150" y="51.584362139917694" width="238.7347207351638" height="12.510288065843621" fill="#4472c4"></rect><rect x="150" y="64.75308641975309" width="409.67120335152975" height="12.510288065843621" fill="#ed7d31"></rect><rect x="150" y="77.92181069958848" width="49.503901258301234" height="12.510288065843621" fill="#a5a5a5"></rect><rect x="150" y="91.09053497942386" width="54.38937491210132" height="12.510288065843621" fill="#ffc000"></rect><text class="label" x="397.2347207351638" y="60.084362139917694" font-size="10px">4.82x</text><text class="label" x="568.1712033515298" y="73.25308641975309" font-size="10px">8.28x</text><text class="label" x="208.00390125830123" y="86.42181069958848" font-size="10px">1x</text><text class="label" x="212.88937491210132" y="99.59053497942386" font-size="10px">1.1x</text><text class="label" x="393.7347207351638" y="61.584362139917694" font-size="8px"></text><text class="label" x="564.6712033515298" y="74.75308641975309" font-size="8px"></text><text class="label" x="204.50390125830123" y="87.92181069958848" font-size="8px"></text><text class="label" x="209.38937491210132" y="101.09053497942386" font-size="8px"></text></g><g style="font-size: 13px;"><rect x="150" y="110.84362139917695" width="245.78919154203643" height="12.510288065843621" fill="#4472c4"></rect><rect x="150" y="124.01234567901236" width="287.8499974127401" height="12.510288065843621" fill="#ed7d31"></rect><rect x="150" y="137.18106995884773" width="49.503901258301234" height="12.510288065843621" fill="#a5a5a5"></rect><rect x="150" y="150.34979423868313" width="52.0634219076043" height="12.510288065843621" fill="#ffc000"></rect><text class="label" x="404.2891915420364" y="119.34362139917695" font-size="10px">4.97x</text><text class="label" x="446.3499974127401" y="132.51234567901236" font-size="10px">5.81x</text><text class="label" x="208.00390125830123" y="145.68106995884773" font-size="10px">1x</text><text class="label" x="210.5634219076043" y="158.84979423868313" font-size="10px">1.05x</text><text class="label" x="400.7891915420364" y="120.84362139917695" font-size="8px"></text><text class="label" x="442.8499974127401" y="134.01234567901236" font-size="8px"></text><text class="label" x="204.50390125830123" y="147.18106995884773" font-size="8px"></text><text class="label" x="207.0634219076043" y="160.34979423868313" font-size="8px"></text></g><g style="font-size: 13px;"><rect x="150" y="170.10288065843622" width="270.6870015385479" height="12.510288065843621" fill="#4472c4"></rect><rect x="150" y="183.2716049382716" width="318.3333940917304" height="12.510288065843621" fill="#ed7d31"></rect><rect x="150" y="196.440329218107" width="49.503901258301234" height="12.510288065843621" fill="#a5a5a5"></rect><rect x="150" y="209.6090534979424" width="49.85344580282877" height="12.510288065843621" fill="#ffc000"></rect><text class="label" x="429.1870015385479" y="178.60288065843622" font-size="10px">5.47x</text><text class="label" x="476.8333940917304" y="191.7716049382716" font-size="10px">6.43x</text><text class="label" x="208.00390125830123" y="204.940329218107" font-size="10px">1x</text><text class="label" x="208.3534458028288" y="218.1090534979424" font-size="10px">1.01x</text><text class="label" x="425.6870015385479" y="180.10288065843622" font-size="8px"></text><text class="label" x="473.3333940917304" y="193.2716049382716" font-size="8px"></text><text class="label" x="204.50390125830123" y="206.440329218107" font-size="8px"></text><text class="label" x="204.8534458028288" y="219.6090534979424" font-size="8px"></text></g><g style="font-size: 13px;"><rect x="150" y="229.36213991769546" width="403.6692967146594" height="12.510288065843621" fill="#4472c4"></rect><rect x="150" y="242.53086419753086" width="440.9090909090909" height="12.510288065843621" fill="#ed7d31"></rect><rect x="150" y="255.69958847736626" width="49.929548332269675" height="12.510288065843621" fill="#a5a5a5"></rect><rect x="150" y="268.86831275720164" width="49.503901258301234" height="12.510288065843621" fill="#ffc000"></rect><text class="label" x="562.1692967146594" y="237.86213991769546" font-size="10px">8.15x</text><text class="label" x="599.4090909090909" y="251.03086419753086" font-size="10px">8.91x</text><text class="label" x="208.4295483322697" y="264.19958847736626" font-size="10px">1.01x</text><text class="label" x="208.00390125830123" y="277.36831275720164" font-size="10px">1x</text><text class="label" x="558.6692967146594" y="239.36213991769546" font-size="8px"></text><text class="label" x="595.9090909090909" y="252.53086419753086" font-size="8px"></text><text class="label" x="204.9295483322697" y="265.69958847736626" font-size="8px"></text><text class="label" x="204.50390125830123" y="278.86831275720164" font-size="8px"></text></g><g style="font-size: 13px;"><rect x="150" y="288.6213991769547" width="223.00128891944394" height="12.510288065843621" fill="#4472c4"></rect><rect x="150" y="301.7901234567901" width="251.6088108015653" height="12.510288065843621" fill="#ed7d31"></rect><rect x="150" y="314.9588477366255" width="49.503901258301234" height="12.510288065843621" fill="#a5a5a5"></rect><rect x="150" y="328.12757201646093" width="52.366388453141575" height="12.510288065843621" fill="#ffc000"></rect><text class="label" x="381.50128891944394" y="297.1213991769547" font-size="10px">4.5x</text><text class="label" x="410.1088108015653" y="310.2901234567901" font-size="10px">5.08x</text><text class="label" x="208.00390125830123" y="323.4588477366255" font-size="10px">1x</text><text class="label" x="210.86638845314158" y="336.62757201646093" font-size="10px">1.06x</text><text class="label" x="378.00128891944394" y="298.6213991769547" font-size="8px"></text><text class="label" x="406.6088108015653" y="311.7901234567901" font-size="8px"></text><text class="label" x="204.50390125830123" y="324.9588477366255" font-size="8px"></text><text class="label" x="207.36638845314158" y="338.12757201646093" font-size="8px"></text></g><g style="font-size: 13px;"><rect x="150" y="347.880658436214" width="358.8551590771314" height="12.510288065843621" fill="#4472c4"></rect><rect x="150" y="361.04938271604937" width="377.245854669764" height="12.510288065843621" fill="#ed7d31"></rect><rect x="150" y="374.2181069958848" width="49.503901258301234" height="12.510288065843621" fill="#a5a5a5"></rect><rect x="150" y="387.38683127572017" width="56.43747481219279" height="12.510288065843621" fill="#ffc000"></rect><text class="label" x="517.3551590771315" y="356.380658436214" font-size="10px">7.25x</text><text class="label" x="535.745854669764" y="369.54938271604937" font-size="10px">7.62x</text><text class="label" x="208.00390125830123" y="382.7181069958848" font-size="10px">1x</text><text class="label" x="214.9374748121928" y="395.88683127572017" font-size="10px">1.14x</text><text class="label" x="513.8551590771315" y="357.880658436214" font-size="8px"></text><text class="label" x="532.245854669764" y="371.04938271604937" font-size="8px"></text><text class="label" x="204.50390125830123" y="384.2181069958848" font-size="8px"></text><text class="label" x="211.4374748121928" y="397.38683127572017" font-size="8px"></text></g><g style="font-size: 13px;"><rect x="150" y="407.13991769547323" width="274.6425573773727" height="12.510288065843621" fill="#4472c4"></rect><rect x="150" y="420.3086419753086" width="295.0678518156341" height="12.510288065843621" fill="#ed7d31"></rect><rect x="150" y="433.47736625514403" width="50.29325388530182" height="12.510288065843621" fill="#a5a5a5"></rect><rect x="150" y="446.6460905349794" width="49.503901258301234" height="12.510288065843621" fill="#ffc000"></rect><text class="label" x="433.1425573773727" y="415.63991769547323" font-size="10px">5.55x</text><text class="label" x="453.5678518156341" y="428.8086419753086" font-size="10px">5.96x</text><text class="label" x="208.79325388530182" y="441.97736625514403" font-size="10px">1.02x</text><text class="label" x="208.00390125830123" y="455.1460905349794" font-size="10px">1x</text><text class="label" x="429.6425573773727" y="417.13991769547323" font-size="8px"></text><text class="label" x="450.0678518156341" y="430.3086419753086" font-size="8px"></text><text class="label" x="205.29325388530182" y="443.47736625514403" font-size="8px"></text><text class="label" x="204.50390125830123" y="456.6460905349794" font-size="8px"></text></g><g style="font-size: 13px;"><rect x="150" y="466.3991769547325" width="236.35332958384242" height="12.510288065843621" fill="#4472c4"></rect><rect x="150" y="479.5679012345679" width="247.3784753009082" height="12.510288065843621" fill="#ed7d31"></rect><rect x="150" y="492.73662551440333" width="50.32881980107081" height="12.510288065843621" fill="#a5a5a5"></rect><rect x="150" y="505.9053497942387" width="49.503901258301234" height="12.510288065843621" fill="#ffc000"></rect><text class="label" x="394.8533295838424" y="474.8991769547325" font-size="10px">4.77x</text><text class="label" x="405.87847530090824" y="488.0679012345679" font-size="10px">5x</text><text class="label" x="208.8288198010708" y="501.23662551440333" font-size="10px">1.02x</text><text class="label" x="208.00390125830123" y="514.4053497942386" font-size="10px">1x</text><text class="label" x="391.3533295838424" y="476.3991769547325" font-size="8px"></text><text class="label" x="402.37847530090824" y="489.5679012345679" font-size="8px"></text><text class="label" x="205.3288198010708" y="502.73662551440333" font-size="8px"></text><text class="label" x="204.50390125830123" y="515.9053497942386" font-size="8px"></text></g></g></svg>