<svg xmlns="http://www.w3.org/2000/svg" xmlns:xlink="http://www.w3.org/1999/xlink" width="800" height="794" style="background-color: white;"><g class="y axis" transform="translate(149,45)" fill="none" font-size="10" font-family="sans-serif" text-anchor="end" style="font-size: 13px;"><path class="domain" stroke="currentColor" d="M0.5,0.5V600.5"></path><g class="tick" opacity="1" transform="translate(0,40.740740740740726)" style="font-size: 13px;"><line stroke="currentColor" x2="0"></line><text fill="currentColor" x="-3" dy="0.32em">object (simple)    </text></g><g class="tick" opacity="1" transform="translate(0,114.81481481481481)" style="font-size: 13px;"><line stroke="currentColor" x2="0"></line><text fill="currentColor" x="-3" dy="0.32em">object (hierarchical)    </text></g><g class="tick" opacity="1" transform="translate(0,188.88888888888889)" style="font-size: 13px;"><line stroke="currentColor" x2="0"></line><text fill="currentColor" x="-3" dy="0.32em">object (recursive)    </text></g><g class="tick" opacity="1" transform="translate(0,262.96296296296293)" style="font-size: 13px;"><line stroke="currentColor" x2="0"></line><text fill="currentColor" x="-3" dy="0.32em">object (union, explicit)    </text></g><g class="tick" opacity="1" transform="translate(0,337.037037037037)" style="font-size: 13px;"><line stroke="currentColor" x2="0"></line><text fill="currentColor" x="-3" dy="0.32em">array (simple)    </text></g><g class="tick" opacity="1" transform="translate(0,411.1111111111111)" style="font-size: 13px;"><line stroke="currentColor" x2="0"></line><text fill="currentColor" x="-3" dy="0.32em">array (hierarchical)    </text></g><g class="tick" opacity="1" transform="translate(0,485.18518518518516)" style="font-size: 13px;"><line stroke="currentColor" x2="0"></line><text fill="currentColor" x="-3" dy="0.32em">array (recursive)    </text></g><g class="tick" opacity="1" transform="translate(0,559.2592592592592)" style="font-size: 13px;"><line stroke="currentColor" x2="0"></line><text fill="currentColor" x="-3" dy="0.32em">array (union, explicit)    </text></g></g><g class="x axis" transform="translate(149,645)" fill="none" font-size="10" font-family="sans-serif" text-anchor="middle" style="font-size: 13px;"><path class="domain" stroke="currentColor" d="M0.5,0.5H485.5"></path><g class="tick" opacity="1" transform="translate(0.5,0)" style="font-size: 13px;"><line stroke="currentColor" y2="6"></line><text fill="currentColor" y="9" dy="0.71em">0x</text></g><g class="tick" opacity="1" transform="translate(121.42771242613985,0)" style="font-size: 13px;"><line stroke="currentColor" y2="6"></line><text fill="currentColor" y="9" dy="0.71em">5x</text></g><g class="tick" opacity="1" transform="translate(242.3554248522797,0)" style="font-size: 13px;"><line stroke="currentColor" y2="6"></line><text fill="currentColor" y="9" dy="0.71em">10x</text></g><g class="tick" opacity="1" transform="translate(363.2831372784196,0)" style="font-size: 13px;"><line stroke="currentColor" y2="6"></line><text fill="currentColor" y="9" dy="0.71em">15x</text></g><g class="tick" opacity="1" transform="translate(484.2108497045594,0)" style="font-size: 13px;"><line stroke="currentColor" y2="6"></line><text fill="currentColor" y="9" dy="0.71em">20x</text></g></g><text transform="translate(400, 30)" style="text-anchor: middle; font-size: 20px; font-weight: bold;">assert benchmark</text><rect x="650" y="145" width="230" height="5" fill="gray"></rect><rect x="645" y="35" width="230" height="110" fill="none" stroke="black"></rect><rect x="655" y="45" width="10" height="10" style="fill: #4472c4;"></rect><text x="670" y="55" style="font-size: 12px;">nestia-express</text><rect x="655" y="65" width="10" height="10" style="fill: #ed7d31;"></rect><text x="670" y="75" style="font-size: 12px;">nestia-fastify</text><rect x="655" y="85" width="10" height="10" style="fill: #a5a5a5;"></rect><text x="670" y="95" style="font-size: 12px;">fastify</text><rect x="655" y="105" width="10" height="10" style="fill: #ffc000;"></rect><text x="670" y="115" style="font-size: 12px;">NestJS-express</text><rect x="655" y="125" width="10" height="10" style="fill: #5b9bd5;"></rect><text x="670" y="135" style="font-size: 12px;">NestJS-fastify</text><text x="20" y="709" style="font-size: 12px;">  - CPU: 12th Gen Intel(R) Core(TM) i5-1235U</text><text x="20" y="726" style="font-size: 12px;">  - OS: win32</text><text x="20" y="743" style="font-size: 12px;">  - RAM: 16 GB</text><text x="20" y="760" style="font-size: 12px;">  - NodeJS version: v20.6.1</text><text x="20" y="777" style="font-size: 12px;">  - nestia version: v2.4.3</text><g style="font-size: 13px;"><g style="font-size: 13px;"><rect x="150" y="53.06747341400805" width="174.8844358592378" height="12.541254125412543" fill="#4472c4"></rect><rect x="150" y="66.26879354602124" width="262.9369082551303" height="12.541254125412543" fill="#ed7d31"></rect><rect x="150" y="79.47011367803445" width="255.16538525457062" height="12.541254125412543" fill="#a5a5a5"></rect><rect x="150" y="92.67143381004766" width="24.18554248522797" height="12.541254125412543" fill="#ffc000"></rect><rect x="150" y="105.87275394206085" width="25.511650435014108" height="12.541254125412543" fill="#5b9bd5"></rect><text class="label" x="333.3844358592378" y="61.56747341400805" font-size="10px">7.23x</text><text class="label" x="421.4369082551303" y="74.76879354602124" font-size="10px">10.87x</text><text class="label" x="413.66538525457065" y="87.97011367803445" font-size="10px">10.55x</text><text class="label" x="182.68554248522798" y="101.17143381004766" font-size="10px">1x</text><text class="label" x="184.0116504350141" y="114.37275394206085" font-size="10px">1.05x</text><text class="label" x="329.8844358592378" y="63.06747341400805" font-size="8px"></text><text class="label" x="417.9369082551303" y="76.26879354602124" font-size="8px"></text><text class="label" x="410.16538525457065" y="89.47011367803445" font-size="8px"></text><text class="label" x="179.18554248522798" y="102.67143381004766" font-size="8px"></text><text class="label" x="180.5116504350141" y="115.87275394206085" font-size="8px"></text></g><g style="font-size: 13px;"><rect x="150" y="127.14154748808213" width="247.27766545177235" height="12.541254125412543" fill="#4472c4"></rect><rect x="150" y="140.34286762009532" width="284.951786975218" height="12.541254125412543" fill="#ed7d31"></rect><rect x="150" y="153.54418775210854" width="270.1936740766638" height="12.541254125412543" fill="#a5a5a5"></rect><rect x="150" y="166.74550788412174" width="26.96293040485287" height="12.541254125412543" fill="#ffc000"></rect><rect x="150" y="179.94682801613493" width="24.18554248522797" height="12.541254125412543" fill="#5b9bd5"></rect><text class="label" x="405.77766545177235" y="135.64154748808213" font-size="10px">10.22x</text><text class="label" x="443.451786975218" y="148.84286762009532" font-size="10px">11.78x</text><text class="label" x="428.6936740766638" y="162.04418775210854" font-size="10px">11.17x</text><text class="label" x="185.46293040485287" y="175.24550788412174" font-size="10px">1.11x</text><text class="label" x="182.68554248522798" y="188.44682801613493" font-size="10px">1x</text><text class="label" x="402.27766545177235" y="137.14154748808213" font-size="8px"></text><text class="label" x="439.951786975218" y="150.34286762009532" font-size="8px"></text><text class="label" x="425.1936740766638" y="163.54418775210854" font-size="8px"></text><text class="label" x="181.96293040485287" y="176.74550788412174" font-size="8px"></text><text class="label" x="179.18554248522798" y="189.94682801613493" font-size="8px"></text></g><g style="font-size: 13px;"><rect x="150" y="201.2156215621562" width="283.78609265657076" height="12.541254125412543" fill="#4472c4"></rect><rect x="150" y="214.4169416941694" width="299.3260985401402" height="12.541254125412543" fill="#ed7d31"></rect><rect x="150" y="227.61826182618262" width="292.4812336498368" height="12.541254125412543" fill="#a5a5a5"></rect><rect x="150" y="240.8195819581958" width="24.261270211209112" height="12.541254125412543" fill="#ffc000"></rect><rect x="150" y="254.020902090209" width="24.18554248522797" height="12.541254125412543" fill="#5b9bd5"></rect><text class="label" x="442.28609265657076" y="209.7156215621562" font-size="10px">11.73x</text><text class="label" x="457.8260985401402" y="222.9169416941694" font-size="10px">12.38x</text><text class="label" x="450.9812336498368" y="236.11826182618262" font-size="10px">12.09x</text><text class="label" x="182.7612702112091" y="249.3195819581958" font-size="10px">1x</text><text class="label" x="182.68554248522798" y="262.520902090209" font-size="10px">1x</text><text class="label" x="438.78609265657076" y="211.2156215621562" font-size="8px"></text><text class="label" x="454.3260985401402" y="224.4169416941694" font-size="8px"></text><text class="label" x="447.4812336498368" y="237.61826182618262" font-size="8px"></text><text class="label" x="179.2612702112091" y="250.8195819581958" font-size="8px"></text><text class="label" x="179.18554248522798" y="264.020902090209" font-size="8px"></text></g><g style="font-size: 13px;"><rect x="150" y="275.28969563623025" width="166.72148768728914" height="12.541254125412543" fill="#4472c4"></rect><rect x="150" y="288.49101576824347" width="174.60417783286607" height="12.541254125412543" fill="#ed7d31"></rect><rect x="150" y="301.6923359002567" width="111.74225245784129" height="12.541254125412543" fill="#a5a5a5"></rect><rect x="150" y="314.89365603226986" width="24.18554248522797" height="12.541254125412543" fill="#ffc000"></rect><rect x="150" y="328.0949761642831" width="25.97687000772277" height="12.541254125412543" fill="#5b9bd5"></rect><text class="label" x="325.22148768728914" y="283.78969563623025" font-size="10px">6.89x</text><text class="label" x="333.10417783286607" y="296.99101576824347" font-size="10px">7.22x</text><text class="label" x="270.2422524578413" y="310.1923359002567" font-size="10px">4.62x</text><text class="label" x="182.68554248522798" y="323.39365603226986" font-size="10px">1x</text><text class="label" x="184.47687000772277" y="336.5949761642831" font-size="10px">1.07x</text><text class="label" x="321.72148768728914" y="285.28969563623025" font-size="8px"></text><text class="label" x="329.60417783286607" y="298.49101576824347" font-size="8px"></text><text class="label" x="266.7422524578413" y="311.6923359002567" font-size="8px"></text><text class="label" x="179.18554248522798" y="324.89365603226986" font-size="8px"></text><text class="label" x="180.97687000772277" y="338.0949761642831" font-size="8px"></text></g><g style="font-size: 13px;"><rect x="150" y="349.3637697103044" width="124.83094194711875" height="12.541254125412543" fill="#4472c4"></rect><rect x="150" y="362.56508984231755" width="120.56223863023895" height="12.541254125412543" fill="#ed7d31"></rect><rect x="150" y="375.76640997433077" width="115.96771035876696" height="12.541254125412543" fill="#a5a5a5"></rect><rect x="150" y="388.967730106344" width="24.18554248522797" height="12.541254125412543" fill="#ffc000"></rect><rect x="150" y="402.16905023835716" width="24.55968333745651" height="12.541254125412543" fill="#5b9bd5"></rect><text class="label" x="283.33094194711873" y="357.8637697103044" font-size="10px">5.16x</text><text class="label" x="279.06223863023894" y="371.06508984231755" font-size="10px">4.98x</text><text class="label" x="274.46771035876696" y="384.26640997433077" font-size="10px">4.79x</text><text class="label" x="182.68554248522798" y="397.467730106344" font-size="10px">1x</text><text class="label" x="183.0596833374565" y="410.66905023835716" font-size="10px">1.02x</text><text class="label" x="279.83094194711873" y="359.3637697103044" font-size="8px"></text><text class="label" x="275.56223863023894" y="372.56508984231755" font-size="8px"></text><text class="label" x="270.96771035876696" y="385.76640997433077" font-size="8px"></text><text class="label" x="179.18554248522798" y="398.967730106344" font-size="8px"></text><text class="label" x="179.5596833374565" y="412.16905023835716" font-size="8px"></text></g><g style="font-size: 13px;"><rect x="150" y="423.4378437843784" width="302.65917358529555" height="12.541254125412543" fill="#4472c4"></rect><rect x="150" y="436.6391639163916" width="191.63402578893067" height="12.541254125412543" fill="#ed7d31"></rect><rect x="150" y="449.84048404840485" width="279.9532065450775" height="12.541254125412543" fill="#a5a5a5"></rect><rect x="150" y="463.041804180418" width="24.18554248522797" height="12.541254125412543" fill="#ffc000"></rect><rect x="150" y="476.24312431243123" width="31.20720114960931" height="12.541254125412543" fill="#5b9bd5"></rect><text class="label" x="461.15917358529555" y="431.9378437843784" font-size="10px">12.51x</text><text class="label" x="350.13402578893067" y="445.1391639163916" font-size="10px">7.92x</text><text class="label" x="438.4532065450775" y="458.34048404840485" font-size="10px">11.58x</text><text class="label" x="182.68554248522798" y="471.541804180418" font-size="10px">1x</text><text class="label" x="189.70720114960932" y="484.74312431243123" font-size="10px">1.29x</text><text class="label" x="457.65917358529555" y="433.4378437843784" font-size="8px"></text><text class="label" x="346.63402578893067" y="446.6391639163916" font-size="8px"></text><text class="label" x="434.9532065450775" y="459.84048404840485" font-size="8px"></text><text class="label" x="179.18554248522798" y="473.041804180418" font-size="8px"></text><text class="label" x="186.20720114960932" y="486.24312431243123" font-size="8px"></text></g><g style="font-size: 13px;"><rect x="150" y="497.51191785845253" width="440.9090909090909" height="12.541254125412543" fill="#4472c4"></rect><rect x="150" y="510.7132379904657" width="415.6327559418553" height="12.541254125412543" fill="#ed7d31"></rect><rect x="150" y="523.9145581224789" width="403.54645880265224" height="12.541254125412543" fill="#a5a5a5"></rect><rect x="150" y="537.1158782544921" width="27.495563757409727" height="12.541254125412543" fill="#ffc000"></rect><rect x="150" y="550.3171983865053" width="24.18554248522797" height="12.541254125412543" fill="#5b9bd5"></rect><text class="label" x="599.4090909090909" y="506.01191785845253" font-size="10px">18.23x</text><text class="label" x="574.1327559418553" y="519.2132379904657" font-size="10px">17.19x</text><text class="label" x="562.0464588026523" y="532.4145581224789" font-size="10px">16.69x</text><text class="label" x="185.99556375740974" y="545.6158782544921" font-size="10px">1.14x</text><text class="label" x="182.68554248522798" y="558.8171983865053" font-size="10px">1x</text><text class="label" x="595.9090909090909" y="507.51191785845253" font-size="8px"></text><text class="label" x="570.6327559418553" y="520.7132379904657" font-size="8px"></text><text class="label" x="558.5464588026523" y="533.9145581224789" font-size="8px"></text><text class="label" x="182.49556375740974" y="547.1158782544921" font-size="8px"></text><text class="label" x="179.18554248522798" y="560.3171983865053" font-size="8px"></text></g><g style="font-size: 13px;"><rect x="150" y="571.5859919325266" width="128.29727697023753" height="12.541254125412543" fill="#4472c4"></rect><rect x="150" y="584.7873120645397" width="116.23218253928759" height="12.541254125412543" fill="#ed7d31"></rect><rect x="150" y="597.9886321965529" width="81.55333745106475" height="12.541254125412543" fill="#a5a5a5"></rect><rect x="150" y="611.1899523285662" width="24.420473623888164" height="12.541254125412543" fill="#ffc000"></rect><rect x="150" y="624.3912724605793" width="24.18554248522797" height="12.541254125412543" fill="#5b9bd5"></rect><text class="label" x="286.79727697023753" y="580.0859919325266" font-size="10px">5.3x</text><text class="label" x="274.7321825392876" y="593.2873120645397" font-size="10px">4.81x</text><text class="label" x="240.05333745106475" y="606.4886321965529" font-size="10px">3.37x</text><text class="label" x="182.92047362388817" y="619.6899523285662" font-size="10px">1.01x</text><text class="label" x="182.68554248522798" y="632.8912724605793" font-size="10px">1x</text><text class="label" x="283.29727697023753" y="581.5859919325266" font-size="8px"></text><text class="label" x="271.2321825392876" y="594.7873120645397" font-size="8px"></text><text class="label" x="236.55333745106475" y="607.9886321965529" font-size="8px"></text><text class="label" x="179.42047362388817" y="621.1899523285662" font-size="8px"></text><text class="label" x="179.18554248522798" y="634.3912724605793" font-size="8px"></text></g></g></svg>