<svg xmlns="http://www.w3.org/2000/svg" xmlns:xlink="http://www.w3.org/1999/xlink" width="800" height="794" style="background-color: white;"><g class="y axis" transform="translate(149,45)" fill="none" font-size="10" font-family="sans-serif" text-anchor="end" style="font-size: 13px;"><path class="domain" stroke="currentColor" d="M0.5,0.5V600.5"></path><g class="tick" opacity="1" transform="translate(0,40.740740740740726)" style="font-size: 13px;"><line stroke="currentColor" x2="0"></line><text fill="currentColor" x="-3" dy="0.32em">object (simple)    </text></g><g class="tick" opacity="1" transform="translate(0,114.81481481481481)" style="font-size: 13px;"><line stroke="currentColor" x2="0"></line><text fill="currentColor" x="-3" dy="0.32em">object (hierarchical)    </text></g><g class="tick" opacity="1" transform="translate(0,188.88888888888889)" style="font-size: 13px;"><line stroke="currentColor" x2="0"></line><text fill="currentColor" x="-3" dy="0.32em">object (recursive)    </text></g><g class="tick" opacity="1" transform="translate(0,262.96296296296293)" style="font-size: 13px;"><line stroke="currentColor" x2="0"></line><text fill="currentColor" x="-3" dy="0.32em">object (union, explicit)    </text></g><g class="tick" opacity="1" transform="translate(0,337.037037037037)" style="font-size: 13px;"><line stroke="currentColor" x2="0"></line><text fill="currentColor" x="-3" dy="0.32em">array (simple)    </text></g><g class="tick" opacity="1" transform="translate(0,411.1111111111111)" style="font-size: 13px;"><line stroke="currentColor" x2="0"></line><text fill="currentColor" x="-3" dy="0.32em">array (hierarchical)    </text></g><g class="tick" opacity="1" transform="translate(0,485.18518518518516)" style="font-size: 13px;"><line stroke="currentColor" x2="0"></line><text fill="currentColor" x="-3" dy="0.32em">array (recursive)    </text></g><g class="tick" opacity="1" transform="translate(0,559.2592592592592)" style="font-size: 13px;"><line stroke="currentColor" x2="0"></line><text fill="currentColor" x="-3" dy="0.32em">array (union, explicit)    </text></g></g><g class="x axis" transform="translate(149,645)" fill="none" font-size="10" font-family="sans-serif" text-anchor="middle" style="font-size: 13px;"><path class="domain" stroke="currentColor" d="M0.5,0.5H485.5"></path><g class="tick" opacity="1" transform="translate(0.5,0)" style="font-size: 13px;"><line stroke="currentColor" y2="6"></line><text fill="currentColor" y="9" dy="0.71em">0x</text></g><g class="tick" opacity="1" transform="translate(62.128137993988624,0)" style="font-size: 13px;"><line stroke="currentColor" y2="6"></line><text fill="currentColor" y="9" dy="0.71em">2x</text></g><g class="tick" opacity="1" transform="translate(123.75627598797725,0)" style="font-size: 13px;"><line stroke="currentColor" y2="6"></line><text fill="currentColor" y="9" dy="0.71em">4x</text></g><g class="tick" opacity="1" transform="translate(185.38441398196588,0)" style="font-size: 13px;"><line stroke="currentColor" y2="6"></line><text fill="currentColor" y="9" dy="0.71em">6x</text></g><g class="tick" opacity="1" transform="translate(247.0125519759545,0)" style="font-size: 13px;"><line stroke="currentColor" y2="6"></line><text fill="currentColor" y="9" dy="0.71em">8x</text></g><g class="tick" opacity="1" transform="translate(308.64068996994314,0)" style="font-size: 13px;"><line stroke="currentColor" y2="6"></line><text fill="currentColor" y="9" dy="0.71em">10x</text></g><g class="tick" opacity="1" transform="translate(370.26882796393176,0)" style="font-size: 13px;"><line stroke="currentColor" y2="6"></line><text fill="currentColor" y="9" dy="0.71em">12x</text></g><g class="tick" opacity="1" transform="translate(431.8969659579204,0)" style="font-size: 13px;"><line stroke="currentColor" y2="6"></line><text fill="currentColor" y="9" dy="0.71em">14x</text></g></g><text transform="translate(400, 30)" style="text-anchor: middle; font-size: 20px; font-weight: bold;">performance benchmark</text><rect x="650" y="145" width="230" height="5" fill="gray"></rect><rect x="645" y="35" width="230" height="110" fill="none" stroke="black"></rect><rect x="655" y="45" width="10" height="10" style="fill: #4472c4;"></rect><text x="670" y="55" style="font-size: 12px;">nestia-express</text><rect x="655" y="65" width="10" height="10" style="fill: #ed7d31;"></rect><text x="670" y="75" style="font-size: 12px;">nestia-fastify</text><rect x="655" y="85" width="10" height="10" style="fill: #a5a5a5;"></rect><text x="670" y="95" style="font-size: 12px;">fastify</text><rect x="655" y="105" width="10" height="10" style="fill: #ffc000;"></rect><text x="670" y="115" style="font-size: 12px;">NestJS-express</text><rect x="655" y="125" width="10" height="10" style="fill: #5b9bd5;"></rect><text x="670" y="135" style="font-size: 12px;">NestJS-fastify</text><text x="20" y="709" style="font-size: 12px;">  - CPU: 12th Gen Intel(R) Core(TM) i5-1235U</text><text x="20" y="726" style="font-size: 12px;">  - OS: win32</text><text x="20" y="743" style="font-size: 12px;">  - RAM: 16 GB</text><text x="20" y="760" style="font-size: 12px;">  - NodeJS version: v20.6.1</text><text x="20" y="777" style="font-size: 12px;">  - nestia version: v2.4.3</text><g style="font-size: 13px;"><g style="font-size: 13px;"><rect x="150" y="53.06747341400805" width="283.77992537919863" height="12.541254125412543" fill="#4472c4"></rect><rect x="150" y="66.26879354602124" width="440.9090909090908" height="12.541254125412543" fill="#ed7d31"></rect><rect x="150" y="79.47011367803445" width="203.5744888812295" height="12.541254125412543" fill="#a5a5a5"></rect><rect x="150" y="92.67143381004766" width="34.822241028137654" height="12.541254125412543" fill="#ffc000"></rect><rect x="150" y="105.87275394206085" width="30.814068996994312" height="12.541254125412543" fill="#5b9bd5"></rect><text class="label" x="442.27992537919863" y="61.56747341400805" font-size="10px">9.21x</text><text class="label" x="599.4090909090908" y="74.76879354602124" font-size="10px">14.31x</text><text class="label" x="362.0744888812295" y="87.97011367803445" font-size="10px">6.61x</text><text class="label" x="193.32224102813765" y="101.17143381004766" font-size="10px">1.13x</text><text class="label" x="189.3140689969943" y="114.37275394206085" font-size="10px">1x</text><text class="label" x="438.77992537919863" y="63.06747341400805" font-size="8px"></text><text class="label" x="595.9090909090908" y="76.26879354602124" font-size="8px"></text><text class="label" x="358.5744888812295" y="89.47011367803445" font-size="8px"></text><text class="label" x="189.82224102813765" y="102.67143381004766" font-size="8px"></text><text class="label" x="185.8140689969943" y="115.87275394206085" font-size="8px"></text></g><g style="font-size: 13px;"><rect x="150" y="127.14154748808213" width="192.29654604384467" height="12.541254125412543" fill="#4472c4"></rect><rect x="150" y="140.34286762009532" width="222.7357026558335" height="12.541254125412543" fill="#ed7d31"></rect><rect x="150" y="153.54418775210854" width="238.04950081720085" height="12.541254125412543" fill="#a5a5a5"></rect><rect x="150" y="166.74550788412174" width="30.814068996994312" height="12.541254125412543" fill="#ffc000"></rect><rect x="150" y="179.94682801613493" width="47.58794893444711" height="12.541254125412543" fill="#5b9bd5"></rect><text class="label" x="350.79654604384467" y="135.64154748808213" font-size="10px">6.24x</text><text class="label" x="381.2357026558335" y="148.84286762009532" font-size="10px">7.23x</text><text class="label" x="396.54950081720085" y="162.04418775210854" font-size="10px">7.73x</text><text class="label" x="189.3140689969943" y="175.24550788412174" font-size="10px">1x</text><text class="label" x="206.08794893444713" y="188.44682801613493" font-size="10px">1.54x</text><text class="label" x="347.29654604384467" y="137.14154748808213" font-size="8px"></text><text class="label" x="377.7357026558335" y="150.34286762009532" font-size="8px"></text><text class="label" x="393.04950081720085" y="163.54418775210854" font-size="8px"></text><text class="label" x="185.8140689969943" y="176.74550788412174" font-size="8px"></text><text class="label" x="202.58794893444713" y="189.94682801613493" font-size="8px"></text></g><g style="font-size: 13px;"><rect x="150" y="201.2156215621562" width="220.25235444869946" height="12.541254125412543" fill="#4472c4"></rect><rect x="150" y="214.4169416941694" width="230.16542503506" height="12.541254125412543" fill="#ed7d31"></rect><rect x="150" y="227.61826182618262" width="176.8855551875293" height="12.541254125412543" fill="#a5a5a5"></rect><rect x="150" y="240.8195819581958" width="30.814068996994312" height="12.541254125412543" fill="#ffc000"></rect><rect x="150" y="254.020902090209" width="32.915613839594954" height="12.541254125412543" fill="#5b9bd5"></rect><text class="label" x="378.75235444869946" y="209.7156215621562" font-size="10px">7.15x</text><text class="label" x="388.66542503506" y="222.9169416941694" font-size="10px">7.47x</text><text class="label" x="335.3855551875293" y="236.11826182618262" font-size="10px">5.74x</text><text class="label" x="189.3140689969943" y="249.3195819581958" font-size="10px">1x</text><text class="label" x="191.41561383959495" y="262.520902090209" font-size="10px">1.07x</text><text class="label" x="375.25235444869946" y="211.2156215621562" font-size="8px"></text><text class="label" x="385.16542503506" y="224.4169416941694" font-size="8px"></text><text class="label" x="331.8855551875293" y="237.61826182618262" font-size="8px"></text><text class="label" x="185.8140689969943" y="250.8195819581958" font-size="8px"></text><text class="label" x="187.91561383959495" y="264.020902090209" font-size="8px"></text></g><g style="font-size: 13px;"><rect x="150" y="275.28969563623025" width="213.17756195907657" height="12.541254125412543" fill="#4472c4"></rect><rect x="150" y="288.49101576824347" width="233.08089788649534" height="12.541254125412543" fill="#ed7d31"></rect><rect x="150" y="301.6923359002567" width="158.78769273017957" height="12.541254125412543" fill="#a5a5a5"></rect><rect x="150" y="314.89365603226986" width="30.814068996994312" height="12.541254125412543" fill="#ffc000"></rect><rect x="150" y="328.0949761642831" width="32.590174029235975" height="12.541254125412543" fill="#5b9bd5"></rect><text class="label" x="371.67756195907657" y="283.78969563623025" font-size="10px">6.92x</text><text class="label" x="391.58089788649534" y="296.99101576824347" font-size="10px">7.56x</text><text class="label" x="317.2876927301796" y="310.1923359002567" font-size="10px">5.15x</text><text class="label" x="189.3140689969943" y="323.39365603226986" font-size="10px">1x</text><text class="label" x="191.09017402923598" y="336.5949761642831" font-size="10px">1.06x</text><text class="label" x="368.17756195907657" y="285.28969563623025" font-size="8px"></text><text class="label" x="388.08089788649534" y="298.49101576824347" font-size="8px"></text><text class="label" x="313.7876927301796" y="311.6923359002567" font-size="8px"></text><text class="label" x="185.8140689969943" y="324.89365603226986" font-size="8px"></text><text class="label" x="187.59017402923598" y="338.0949761642831" font-size="8px"></text></g><g style="font-size: 13px;"><rect x="150" y="349.3637697103044" width="153.2685561886018" height="12.541254125412543" fill="#4472c4"></rect><rect x="150" y="362.56508984231755" width="156.21943159900263" height="12.541254125412543" fill="#ed7d31"></rect><rect x="150" y="375.76640997433077" width="166.60363051578125" height="12.541254125412543" fill="#a5a5a5"></rect><rect x="150" y="388.967730106344" width="30.814068996994312" height="12.541254125412543" fill="#ffc000"></rect><rect x="150" y="402.16905023835716" width="39.04504139535913" height="12.541254125412543" fill="#5b9bd5"></rect><text class="label" x="311.7685561886018" y="357.8637697103044" font-size="10px">4.97x</text><text class="label" x="314.71943159900263" y="371.06508984231755" font-size="10px">5.07x</text><text class="label" x="325.1036305157812" y="384.26640997433077" font-size="10px">5.41x</text><text class="label" x="189.3140689969943" y="397.467730106344" font-size="10px">1x</text><text class="label" x="197.54504139535914" y="410.66905023835716" font-size="10px">1.27x</text><text class="label" x="308.2685561886018" y="359.3637697103044" font-size="8px"></text><text class="label" x="311.21943159900263" y="372.56508984231755" font-size="8px"></text><text class="label" x="321.6036305157812" y="385.76640997433077" font-size="8px"></text><text class="label" x="185.8140689969943" y="398.967730106344" font-size="8px"></text><text class="label" x="194.04504139535914" y="412.16905023835716" font-size="8px"></text></g><g style="font-size: 13px;"><rect x="150" y="423.4378437843784" width="226.000407751873" height="12.541254125412543" fill="#4472c4"></rect><rect x="150" y="436.6391639163916" width="236.89498667536833" height="12.541254125412543" fill="#ed7d31"></rect><rect x="150" y="449.84048404840485" width="280.21845510186944" height="12.541254125412543" fill="#a5a5a5"></rect><rect x="150" y="463.041804180418" width="40.54218490208429" height="12.541254125412543" fill="#ffc000"></rect><rect x="150" y="476.24312431243123" width="30.814068996994312" height="12.541254125412543" fill="#5b9bd5"></rect><text class="label" x="384.500407751873" y="431.9378437843784" font-size="10px">7.33x</text><text class="label" x="395.39498667536833" y="445.1391639163916" font-size="10px">7.69x</text><text class="label" x="438.71845510186944" y="458.34048404840485" font-size="10px">9.09x</text><text class="label" x="199.04218490208427" y="471.541804180418" font-size="10px">1.32x</text><text class="label" x="189.3140689969943" y="484.74312431243123" font-size="10px">1x</text><text class="label" x="381.000407751873" y="433.4378437843784" font-size="8px"></text><text class="label" x="391.89498667536833" y="446.6391639163916" font-size="8px"></text><text class="label" x="435.21845510186944" y="459.84048404840485" font-size="8px"></text><text class="label" x="195.54218490208427" y="473.041804180418" font-size="8px"></text><text class="label" x="185.8140689969943" y="486.24312431243123" font-size="8px"></text></g><g style="font-size: 13px;"><rect x="150" y="497.51191785845253" width="247.31723610560132" height="12.541254125412543" fill="#4472c4"></rect><rect x="150" y="510.7132379904657" width="288.7821898558743" height="12.541254125412543" fill="#ed7d31"></rect><rect x="150" y="523.9145581224789" width="276.99660426480733" height="12.541254125412543" fill="#a5a5a5"></rect><rect x="150" y="537.1158782544921" width="30.814068996994312" height="12.541254125412543" fill="#ffc000"></rect><rect x="150" y="550.3171983865053" width="30.872454978442736" height="12.541254125412543" fill="#5b9bd5"></rect><text class="label" x="405.8172361056013" y="506.01191785845253" font-size="10px">8.03x</text><text class="label" x="447.2821898558743" y="519.2132379904657" font-size="10px">9.37x</text><text class="label" x="435.49660426480733" y="532.4145581224789" font-size="10px">8.99x</text><text class="label" x="189.3140689969943" y="545.6158782544921" font-size="10px">1x</text><text class="label" x="189.37245497844273" y="558.8171983865053" font-size="10px">1x</text><text class="label" x="402.3172361056013" y="507.51191785845253" font-size="8px"></text><text class="label" x="443.7821898558743" y="520.7132379904657" font-size="8px"></text><text class="label" x="431.99660426480733" y="533.9145581224789" font-size="8px"></text><text class="label" x="185.8140689969943" y="547.1158782544921" font-size="8px"></text><text class="label" x="185.87245497844273" y="560.3171983865053" font-size="8px"></text></g><g style="font-size: 13px;"><rect x="150" y="571.5859919325266" width="143.9409043022343" height="12.541254125412543" fill="#4472c4"></rect><rect x="150" y="584.7873120645397" width="153.3975902491446" height="12.541254125412543" fill="#ed7d31"></rect><rect x="150" y="597.9886321965529" width="60.07852521997149" height="12.541254125412543" fill="#a5a5a5"></rect><rect x="150" y="611.1899523285662" width="30.814068996994312" height="12.541254125412543" fill="#ffc000"></rect><rect x="150" y="624.3912724605793" width="31.280229794391442" height="12.541254125412543" fill="#5b9bd5"></rect><text class="label" x="302.4409043022343" y="580.0859919325266" font-size="10px">4.67x</text><text class="label" x="311.8975902491446" y="593.2873120645397" font-size="10px">4.98x</text><text class="label" x="218.57852521997148" y="606.4886321965529" font-size="10px">1.95x</text><text class="label" x="189.3140689969943" y="619.6899523285662" font-size="10px">1x</text><text class="label" x="189.78022979439143" y="632.8912724605793" font-size="10px">1.02x</text><text class="label" x="298.9409043022343" y="581.5859919325266" font-size="8px"></text><text class="label" x="308.3975902491446" y="594.7873120645397" font-size="8px"></text><text class="label" x="215.07852521997148" y="607.9886321965529" font-size="8px"></text><text class="label" x="185.8140689969943" y="621.1899523285662" font-size="8px"></text><text class="label" x="186.28022979439143" y="634.3912724605793" font-size="8px"></text></g></g></svg>