<svg xmlns="http://www.w3.org/2000/svg" xmlns:xlink="http://www.w3.org/1999/xlink" width="800" height="794" style="background-color: white;"><g class="y axis" transform="translate(149,45)" fill="none" font-size="10" font-family="sans-serif" text-anchor="end" style="font-size: 13px;"><path class="domain" stroke="currentColor" d="M0.5,0.5V600.5"></path><g class="tick" opacity="1" transform="translate(0,40.740740740740726)" style="font-size: 13px;"><line stroke="currentColor" x2="0"></line><text fill="currentColor" x="-3" dy="0.32em">object (simple)    </text></g><g class="tick" opacity="1" transform="translate(0,114.81481481481481)" style="font-size: 13px;"><line stroke="currentColor" x2="0"></line><text fill="currentColor" x="-3" dy="0.32em">object (hierarchical)    </text></g><g class="tick" opacity="1" transform="translate(0,188.88888888888889)" style="font-size: 13px;"><line stroke="currentColor" x2="0"></line><text fill="currentColor" x="-3" dy="0.32em">object (recursive)    </text></g><g class="tick" opacity="1" transform="translate(0,262.96296296296293)" style="font-size: 13px;"><line stroke="currentColor" x2="0"></line><text fill="currentColor" x="-3" dy="0.32em">object (union, explicit)    </text></g><g class="tick" opacity="1" transform="translate(0,337.037037037037)" style="font-size: 13px;"><line stroke="currentColor" x2="0"></line><text fill="currentColor" x="-3" dy="0.32em">array (simple)    </text></g><g class="tick" opacity="1" transform="translate(0,411.1111111111111)" style="font-size: 13px;"><line stroke="currentColor" x2="0"></line><text fill="currentColor" x="-3" dy="0.32em">array (hierarchical)    </text></g><g class="tick" opacity="1" transform="translate(0,485.18518518518516)" style="font-size: 13px;"><line stroke="currentColor" x2="0"></line><text fill="currentColor" x="-3" dy="0.32em">array (recursive)    </text></g><g class="tick" opacity="1" transform="translate(0,559.2592592592592)" style="font-size: 13px;"><line stroke="currentColor" x2="0"></line><text fill="currentColor" x="-3" dy="0.32em">array (union, explicit)    </text></g></g><g class="x axis" transform="translate(149,645)" fill="none" font-size="10" font-family="sans-serif" text-anchor="middle" style="font-size: 13px;"><path class="domain" stroke="currentColor" d="M0.5,0.5H485.5"></path><g class="tick" opacity="1" transform="translate(0.5,0)" style="font-size: 13px;"><line stroke="currentColor" y2="6"></line><text fill="currentColor" y="9" dy="0.71em">0x</text></g><g class="tick" opacity="1" transform="translate(78.00940857101416,0)" style="font-size: 13px;"><line stroke="currentColor" y2="6"></line><text fill="currentColor" y="9" dy="0.71em">2x</text></g><g class="tick" opacity="1" transform="translate(155.51881714202833,0)" style="font-size: 13px;"><line stroke="currentColor" y2="6"></line><text fill="currentColor" y="9" dy="0.71em">4x</text></g><g class="tick" opacity="1" transform="translate(233.02822571304247,0)" style="font-size: 13px;"><line stroke="currentColor" y2="6"></line><text fill="currentColor" y="9" dy="0.71em">6x</text></g><g class="tick" opacity="1" transform="translate(310.53763428405665,0)" style="font-size: 13px;"><line stroke="currentColor" y2="6"></line><text fill="currentColor" y="9" dy="0.71em">8x</text></g><g class="tick" opacity="1" transform="translate(388.0470428550708,0)" style="font-size: 13px;"><line stroke="currentColor" y2="6"></line><text fill="currentColor" y="9" dy="0.71em">10x</text></g><g class="tick" opacity="1" transform="translate(465.55645142608495,0)" style="font-size: 13px;"><line stroke="currentColor" y2="6"></line><text fill="currentColor" y="9" dy="0.71em">12x</text></g></g><text transform="translate(400, 30)" style="text-anchor: middle; font-size: 20px; font-weight: bold;">stringify benchmark</text><rect x="650" y="145" width="230" height="5" fill="gray"></rect><rect x="645" y="35" width="230" height="110" fill="none" stroke="black"></rect><rect x="655" y="45" width="10" height="10" style="fill: #4472c4;"></rect><text x="670" y="55" style="font-size: 12px;">nestia-express</text><rect x="655" y="65" width="10" height="10" style="fill: #ed7d31;"></rect><text x="670" y="75" style="font-size: 12px;">nestia-fastify</text><rect x="655" y="85" width="10" height="10" style="fill: #a5a5a5;"></rect><text x="670" y="95" style="font-size: 12px;">fastify</text><rect x="655" y="105" width="10" height="10" style="fill: #ffc000;"></rect><text x="670" y="115" style="font-size: 12px;">NestJS-express</text><rect x="655" y="125" width="10" height="10" style="fill: #5b9bd5;"></rect><text x="670" y="135" style="font-size: 12px;">NestJS-fastify</text><text x="20" y="709" style="font-size: 12px;">  - CPU: 12th Gen Intel(R) Core(TM) i5-1235U</text><text x="20" y="726" style="font-size: 12px;">  - OS: win32</text><text x="20" y="743" style="font-size: 12px;">  - RAM: 16 GB</text><text x="20" y="760" style="font-size: 12px;">  - NodeJS version: v20.6.1</text><text x="20" y="777" style="font-size: 12px;">  - nestia version: v2.4.3</text><g style="font-size: 13px;"><g style="font-size: 13px;"><rect x="150" y="53.06747341400805" width="123.29810952164283" height="12.541254125412543" fill="#4472c4"></rect><rect x="150" y="66.26879354602124" width="311.70317481195565" height="12.541254125412543" fill="#ed7d31"></rect><rect x="150" y="79.47011367803445" width="299.7962377593275" height="12.541254125412543" fill="#a5a5a5"></rect><rect x="150" y="92.67143381004766" width="38.75470428550708" height="12.541254125412543" fill="#ffc000"></rect><rect x="150" y="105.87275394206085" width="45.927202787569435" height="12.541254125412543" fill="#5b9bd5"></rect><text class="label" x="281.7981095216428" y="61.56747341400805" font-size="10px">3.18x</text><text class="label" x="470.20317481195565" y="74.76879354602124" font-size="10px">8.04x</text><text class="label" x="458.2962377593275" y="87.97011367803445" font-size="10px">7.74x</text><text class="label" x="197.25470428550707" y="101.17143381004766" font-size="10px">1x</text><text class="label" x="204.42720278756943" y="114.37275394206085" font-size="10px">1.19x</text><text class="label" x="278.2981095216428" y="63.06747341400805" font-size="8px"></text><text class="label" x="466.70317481195565" y="76.26879354602124" font-size="8px"></text><text class="label" x="454.7962377593275" y="89.47011367803445" font-size="8px"></text><text class="label" x="193.75470428550707" y="102.67143381004766" font-size="8px"></text><text class="label" x="200.92720278756943" y="115.87275394206085" font-size="8px"></text></g><g style="font-size: 13px;"><rect x="150" y="127.14154748808213" width="200.4483106760103" height="12.541254125412543" fill="#4472c4"></rect><rect x="150" y="140.34286762009532" width="273.61261824152166" height="12.541254125412543" fill="#ed7d31"></rect><rect x="150" y="153.54418775210854" width="213.02494053555014" height="12.541254125412543" fill="#a5a5a5"></rect><rect x="150" y="166.74550788412174" width="38.75470428550708" height="12.541254125412543" fill="#ffc000"></rect><rect x="150" y="179.94682801613493" width="41.41581554104545" height="12.541254125412543" fill="#5b9bd5"></rect><text class="label" x="358.9483106760103" y="135.64154748808213" font-size="10px">5.17x</text><text class="label" x="432.11261824152166" y="148.84286762009532" font-size="10px">7.06x</text><text class="label" x="371.5249405355502" y="162.04418775210854" font-size="10px">5.5x</text><text class="label" x="197.25470428550707" y="175.24550788412174" font-size="10px">1x</text><text class="label" x="199.91581554104545" y="188.44682801613493" font-size="10px">1.07x</text><text class="label" x="355.4483106760103" y="137.14154748808213" font-size="8px"></text><text class="label" x="428.61261824152166" y="150.34286762009532" font-size="8px"></text><text class="label" x="368.0249405355502" y="163.54418775210854" font-size="8px"></text><text class="label" x="193.75470428550707" y="176.74550788412174" font-size="8px"></text><text class="label" x="196.41581554104545" y="189.94682801613493" font-size="8px"></text></g><g style="font-size: 13px;"><rect x="150" y="201.2156215621562" width="219.64002639093715" height="12.541254125412543" fill="#4472c4"></rect><rect x="150" y="214.4169416941694" width="300.1357681967202" height="12.541254125412543" fill="#ed7d31"></rect><rect x="150" y="227.61826182618262" width="148.67895972068854" height="12.541254125412543" fill="#a5a5a5"></rect><rect x="150" y="240.8195819581958" width="38.75470428550708" height="12.541254125412543" fill="#ffc000"></rect><rect x="150" y="254.020902090209" width="40.93140380854725" height="12.541254125412543" fill="#5b9bd5"></rect><text class="label" x="378.1400263909371" y="209.7156215621562" font-size="10px">5.67x</text><text class="label" x="458.6357681967202" y="222.9169416941694" font-size="10px">7.74x</text><text class="label" x="307.17895972068857" y="236.11826182618262" font-size="10px">3.84x</text><text class="label" x="197.25470428550707" y="249.3195819581958" font-size="10px">1x</text><text class="label" x="199.43140380854726" y="262.520902090209" font-size="10px">1.06x</text><text class="label" x="374.6400263909371" y="211.2156215621562" font-size="8px"></text><text class="label" x="455.1357681967202" y="224.4169416941694" font-size="8px"></text><text class="label" x="303.67895972068857" y="237.61826182618262" font-size="8px"></text><text class="label" x="193.75470428550707" y="250.8195819581958" font-size="8px"></text><text class="label" x="195.93140380854726" y="264.020902090209" font-size="8px"></text></g><g style="font-size: 13px;"><rect x="150" y="275.28969563623025" width="356.0154225771232" height="12.541254125412543" fill="#4472c4"></rect><rect x="150" y="288.49101576824347" width="440.9090909090908" height="12.541254125412543" fill="#ed7d31"></rect><rect x="150" y="301.6923359002567" width="279.4967002353198" height="12.541254125412543" fill="#a5a5a5"></rect><rect x="150" y="314.89365603226986" width="38.75470428550708" height="12.541254125412543" fill="#ffc000"></rect><rect x="150" y="328.0949761642831" width="44.479020638734234" height="12.541254125412543" fill="#5b9bd5"></rect><text class="label" x="514.5154225771232" y="283.78969563623025" font-size="10px">9.19x</text><text class="label" x="599.4090909090908" y="296.99101576824347" font-size="10px">11.38x</text><text class="label" x="437.9967002353198" y="310.1923359002567" font-size="10px">7.21x</text><text class="label" x="197.25470428550707" y="323.39365603226986" font-size="10px">1x</text><text class="label" x="202.97902063873423" y="336.5949761642831" font-size="10px">1.15x</text><text class="label" x="511.0154225771232" y="285.28969563623025" font-size="8px"></text><text class="label" x="595.9090909090908" y="298.49101576824347" font-size="8px"></text><text class="label" x="434.4967002353198" y="311.6923359002567" font-size="8px"></text><text class="label" x="193.75470428550707" y="324.89365603226986" font-size="8px"></text><text class="label" x="199.47902063873423" y="338.0949761642831" font-size="8px"></text></g><g style="font-size: 13px;"><rect x="150" y="349.3637697103044" width="189.53708659866504" height="12.541254125412543" fill="#4472c4"></rect><rect x="150" y="362.56508984231755" width="217.71435290218736" height="12.541254125412543" fill="#ed7d31"></rect><rect x="150" y="375.76640997433077" width="219.13471205985883" height="12.541254125412543" fill="#a5a5a5"></rect><rect x="150" y="388.967730106344" width="39.35194622894364" height="12.541254125412543" fill="#ffc000"></rect><rect x="150" y="402.16905023835716" width="38.75470428550708" height="12.541254125412543" fill="#5b9bd5"></rect><text class="label" x="348.03708659866504" y="357.8637697103044" font-size="10px">4.89x</text><text class="label" x="376.21435290218733" y="371.06508984231755" font-size="10px">5.62x</text><text class="label" x="377.6347120598588" y="384.26640997433077" font-size="10px">5.65x</text><text class="label" x="197.85194622894363" y="397.467730106344" font-size="10px">1.02x</text><text class="label" x="197.25470428550707" y="410.66905023835716" font-size="10px">1x</text><text class="label" x="344.53708659866504" y="359.3637697103044" font-size="8px"></text><text class="label" x="372.71435290218733" y="372.56508984231755" font-size="8px"></text><text class="label" x="374.1347120598588" y="385.76640997433077" font-size="8px"></text><text class="label" x="194.35194622894363" y="398.967730106344" font-size="8px"></text><text class="label" x="193.75470428550707" y="412.16905023835716" font-size="8px"></text></g><g style="font-size: 13px;"><rect x="150" y="423.4378437843784" width="258.36469074735487" height="12.541254125412543" fill="#4472c4"></rect><rect x="150" y="436.6391639163916" width="282.6053956378152" height="12.541254125412543" fill="#ed7d31"></rect><rect x="150" y="449.84048404840485" width="244.47123096147737" height="12.541254125412543" fill="#a5a5a5"></rect><rect x="150" y="463.041804180418" width="39.21271270064686" height="12.541254125412543" fill="#ffc000"></rect><rect x="150" y="476.24312431243123" width="38.75470428550708" height="12.541254125412543" fill="#5b9bd5"></rect><text class="label" x="416.86469074735487" y="431.9378437843784" font-size="10px">6.67x</text><text class="label" x="441.1053956378152" y="445.1391639163916" font-size="10px">7.29x</text><text class="label" x="402.9712309614774" y="458.34048404840485" font-size="10px">6.31x</text><text class="label" x="197.71271270064688" y="471.541804180418" font-size="10px">1.01x</text><text class="label" x="197.25470428550707" y="484.74312431243123" font-size="10px">1x</text><text class="label" x="413.36469074735487" y="433.4378437843784" font-size="8px"></text><text class="label" x="437.6053956378152" y="446.6391639163916" font-size="8px"></text><text class="label" x="399.4712309614774" y="459.84048404840485" font-size="8px"></text><text class="label" x="194.21271270064688" y="473.041804180418" font-size="8px"></text><text class="label" x="193.75470428550707" y="486.24312431243123" font-size="8px"></text></g><g style="font-size: 13px;"><rect x="150" y="497.51191785845253" width="244.6245948914539" height="12.541254125412543" fill="#4472c4"></rect><rect x="150" y="510.7132379904657" width="271.89258218371424" height="12.541254125412543" fill="#ed7d31"></rect><rect x="150" y="523.9145581224789" width="216.56781421094988" height="12.541254125412543" fill="#a5a5a5"></rect><rect x="150" y="537.1158782544921" width="38.75470428550708" height="12.541254125412543" fill="#ffc000"></rect><rect x="150" y="550.3171983865053" width="38.89490559265266" height="12.541254125412543" fill="#5b9bd5"></rect><text class="label" x="403.1245948914539" y="506.01191785845253" font-size="10px">6.31x</text><text class="label" x="430.39258218371424" y="519.2132379904657" font-size="10px">7.02x</text><text class="label" x="375.0678142109499" y="532.4145581224789" font-size="10px">5.59x</text><text class="label" x="197.25470428550707" y="545.6158782544921" font-size="10px">1x</text><text class="label" x="197.39490559265266" y="558.8171983865053" font-size="10px">1x</text><text class="label" x="399.6245948914539" y="507.51191785845253" font-size="8px"></text><text class="label" x="426.89258218371424" y="520.7132379904657" font-size="8px"></text><text class="label" x="371.5678142109499" y="533.9145581224789" font-size="8px"></text><text class="label" x="193.75470428550707" y="547.1158782544921" font-size="8px"></text><text class="label" x="193.89490559265266" y="560.3171983865053" font-size="8px"></text></g><g style="font-size: 13px;"><rect x="150" y="571.5859919325266" width="171.00378031417418" height="12.541254125412543" fill="#4472c4"></rect><rect x="150" y="584.7873120645397" width="205.6681921953861" height="12.541254125412543" fill="#ed7d31"></rect><rect x="150" y="597.9886321965529" width="55.7868343975087" height="12.541254125412543" fill="#a5a5a5"></rect><rect x="150" y="611.1899523285662" width="39.071990730878696" height="12.541254125412543" fill="#ffc000"></rect><rect x="150" y="624.3912724605793" width="38.75470428550708" height="12.541254125412543" fill="#5b9bd5"></rect><text class="label" x="329.50378031417415" y="580.0859919325266" font-size="10px">4.41x</text><text class="label" x="364.1681921953861" y="593.2873120645397" font-size="10px">5.31x</text><text class="label" x="214.2868343975087" y="606.4886321965529" font-size="10px">1.44x</text><text class="label" x="197.5719907308787" y="619.6899523285662" font-size="10px">1.01x</text><text class="label" x="197.25470428550707" y="632.8912724605793" font-size="10px">1x</text><text class="label" x="326.00378031417415" y="581.5859919325266" font-size="8px"></text><text class="label" x="360.6681921953861" y="594.7873120645397" font-size="8px"></text><text class="label" x="210.7868343975087" y="607.9886321965529" font-size="8px"></text><text class="label" x="194.0719907308787" y="621.1899523285662" font-size="8px"></text><text class="label" x="193.75470428550707" y="634.3912724605793" font-size="8px"></text></g></g></svg>