<svg xmlns="http://www.w3.org/2000/svg" xmlns:xlink="http://www.w3.org/1999/xlink" width="800" height="794" style="background-color: white;"><g class="y axis" transform="translate(149,45)" fill="none" font-size="10" font-family="sans-serif" text-anchor="end" style="font-size: 13px;"><path class="domain" stroke="currentColor" d="M0.5,0.5V600.5"></path><g class="tick" opacity="1" transform="translate(0,40.740740740740726)" style="font-size: 13px;"><line stroke="currentColor" x2="0"></line><text fill="currentColor" x="-3" dy="0.32em">object (simple)    </text></g><g class="tick" opacity="1" transform="translate(0,114.81481481481481)" style="font-size: 13px;"><line stroke="currentColor" x2="0"></line><text fill="currentColor" x="-3" dy="0.32em">object (hierarchical)    </text></g><g class="tick" opacity="1" transform="translate(0,188.88888888888889)" style="font-size: 13px;"><line stroke="currentColor" x2="0"></line><text fill="currentColor" x="-3" dy="0.32em">object (recursive)    </text></g><g class="tick" opacity="1" transform="translate(0,262.96296296296293)" style="font-size: 13px;"><line stroke="currentColor" x2="0"></line><text fill="currentColor" x="-3" dy="0.32em">object (union, explicit)    </text></g><g class="tick" opacity="1" transform="translate(0,337.037037037037)" style="font-size: 13px;"><line stroke="currentColor" x2="0"></line><text fill="currentColor" x="-3" dy="0.32em">array (simple)    </text></g><g class="tick" opacity="1" transform="translate(0,411.1111111111111)" style="font-size: 13px;"><line stroke="currentColor" x2="0"></line><text fill="currentColor" x="-3" dy="0.32em">array (hierarchical)    </text></g><g class="tick" opacity="1" transform="translate(0,485.18518518518516)" style="font-size: 13px;"><line stroke="currentColor" x2="0"></line><text fill="currentColor" x="-3" dy="0.32em">array (recursive)    </text></g><g class="tick" opacity="1" transform="translate(0,559.2592592592592)" style="font-size: 13px;"><line stroke="currentColor" x2="0"></line><text fill="currentColor" x="-3" dy="0.32em">array (union, explicit)    </text></g></g><g class="x axis" transform="translate(149,645)" fill="none" font-size="10" font-family="sans-serif" text-anchor="middle" style="font-size: 13px;"><path class="domain" stroke="currentColor" d="M0.5,0.5H485.5"></path><g class="tick" opacity="1" transform="translate(0.5,0)" style="font-size: 13px;"><line stroke="currentColor" y2="6"></line><text fill="currentColor" y="9" dy="0.71em">0x</text></g><g class="tick" opacity="1" transform="translate(135.55156442620455,0)" style="font-size: 13px;"><line stroke="currentColor" y2="6"></line><text fill="currentColor" y="9" dy="0.71em">5x</text></g><g class="tick" opacity="1" transform="translate(270.6031288524091,0)" style="font-size: 13px;"><line stroke="currentColor" y2="6"></line><text fill="currentColor" y="9" dy="0.71em">10x</text></g><g class="tick" opacity="1" transform="translate(405.65469327861365,0)" style="font-size: 13px;"><line stroke="currentColor" y2="6"></line><text fill="currentColor" y="9" dy="0.71em">15x</text></g></g><text transform="translate(400, 30)" style="text-anchor: middle; font-size: 20px; font-weight: bold;">assert benchmark</text><rect x="650" y="145" width="230" height="5" fill="gray"></rect><rect x="645" y="35" width="230" height="110" fill="none" stroke="black"></rect><rect x="655" y="45" width="10" height="10" style="fill: #4472c4;"></rect><text x="670" y="55" style="font-size: 12px;">nestia-express</text><rect x="655" y="65" width="10" height="10" style="fill: #ed7d31;"></rect><text x="670" y="75" style="font-size: 12px;">nestia-fastify</text><rect x="655" y="85" width="10" height="10" style="fill: #a5a5a5;"></rect><text x="670" y="95" style="font-size: 12px;">fastify</text><rect x="655" y="105" width="10" height="10" style="fill: #ffc000;"></rect><text x="670" y="115" style="font-size: 12px;">NestJS-express</text><rect x="655" y="125" width="10" height="10" style="fill: #5b9bd5;"></rect><text x="670" y="135" style="font-size: 12px;">NestJS-fastify</text><text x="20" y="709" style="font-size: 12px;">  - CPU: AMD Ryzen 9 7940HS w/ Radeon 780M Graphics</text><text x="20" y="726" style="font-size: 12px;">  - OS: win32</text><text x="20" y="743" style="font-size: 12px;">  - RAM: 31 GB</text><text x="20" y="760" style="font-size: 12px;">  - NodeJS version: v20.10.0</text><text x="20" y="777" style="font-size: 12px;">  - nestia version: v3.0.2</text><g style="font-size: 13px;"><g style="font-size: 13px;"><rect x="150" y="53.06747341400805" width="226.13644933573536" height="12.541254125412543" fill="#4472c4"></rect><rect x="150" y="66.26879354602124" width="328.1711334942093" height="12.541254125412543" fill="#ed7d31"></rect><rect x="150" y="79.47011367803445" width="345.746891285603" height="12.541254125412543" fill="#a5a5a5"></rect><rect x="150" y="92.67143381004766" width="27.010312885240907" height="12.541254125412543" fill="#ffc000"></rect><rect x="150" y="105.87275394206085" width="29.858953434134555" height="12.541254125412543" fill="#5b9bd5"></rect><text class="label" x="384.6364493357354" y="61.56747341400805" font-size="10px">8.37x</text><text class="label" x="486.6711334942093" y="74.76879354602124" font-size="10px">12.15x</text><text class="label" x="504.246891285603" y="87.97011367803445" font-size="10px">12.8x</text><text class="label" x="185.51031288524092" y="101.17143381004766" font-size="10px">1x</text><text class="label" x="188.35895343413455" y="114.37275394206085" font-size="10px">1.11x</text><text class="label" x="381.1364493357354" y="63.06747341400805" font-size="8px"></text><text class="label" x="483.1711334942093" y="76.26879354602124" font-size="8px"></text><text class="label" x="500.746891285603" y="89.47011367803445" font-size="8px"></text><text class="label" x="182.01031288524092" y="102.67143381004766" font-size="8px"></text><text class="label" x="184.85895343413455" y="115.87275394206085" font-size="8px"></text></g><g style="font-size: 13px;"><rect x="150" y="127.14154748808213" width="305.7275481561328" height="12.541254125412543" fill="#4472c4"></rect><rect x="150" y="140.34286762009532" width="401.22613124741736" height="12.541254125412543" fill="#ed7d31"></rect><rect x="150" y="153.54418775210854" width="390.70206254069336" height="12.541254125412543" fill="#a5a5a5"></rect><rect x="150" y="166.74550788412174" width="27.010312885240907" height="12.541254125412543" fill="#ffc000"></rect><rect x="150" y="179.94682801613493" width="27.732021297604042" height="12.541254125412543" fill="#5b9bd5"></rect><text class="label" x="464.2275481561328" y="135.64154748808213" font-size="10px">11.32x</text><text class="label" x="559.7261312474174" y="148.84286762009532" font-size="10px">14.85x</text><text class="label" x="549.2020625406933" y="162.04418775210854" font-size="10px">14.46x</text><text class="label" x="185.51031288524092" y="175.24550788412174" font-size="10px">1x</text><text class="label" x="186.23202129760404" y="188.44682801613493" font-size="10px">1.03x</text><text class="label" x="460.7275481561328" y="137.14154748808213" font-size="8px"></text><text class="label" x="556.2261312474174" y="150.34286762009532" font-size="8px"></text><text class="label" x="545.7020625406933" y="163.54418775210854" font-size="8px"></text><text class="label" x="182.01031288524092" y="176.74550788412174" font-size="8px"></text><text class="label" x="182.73202129760404" y="189.94682801613493" font-size="8px"></text></g><g style="font-size: 13px;"><rect x="150" y="201.2156215621562" width="344.16269223745974" height="12.541254125412543" fill="#4472c4"></rect><rect x="150" y="214.4169416941694" width="402.8554069458395" height="12.541254125412543" fill="#ed7d31"></rect><rect x="150" y="227.61826182618262" width="404.3182938494952" height="12.541254125412543" fill="#a5a5a5"></rect><rect x="150" y="240.8195819581958" width="27.010312885240907" height="12.541254125412543" fill="#ffc000"></rect><rect x="150" y="254.020902090209" width="27.94203827147439" height="12.541254125412543" fill="#5b9bd5"></rect><text class="label" x="502.66269223745974" y="209.7156215621562" font-size="10px">12.74x</text><text class="label" x="561.3554069458395" y="222.9169416941694" font-size="10px">14.91x</text><text class="label" x="562.8182938494951" y="236.11826182618262" font-size="10px">14.97x</text><text class="label" x="185.51031288524092" y="249.3195819581958" font-size="10px">1x</text><text class="label" x="186.4420382714744" y="262.520902090209" font-size="10px">1.03x</text><text class="label" x="499.16269223745974" y="211.2156215621562" font-size="8px"></text><text class="label" x="557.8554069458395" y="224.4169416941694" font-size="8px"></text><text class="label" x="559.3182938494951" y="237.61826182618262" font-size="8px"></text><text class="label" x="182.01031288524092" y="250.8195819581958" font-size="8px"></text><text class="label" x="182.9420382714744" y="264.020902090209" font-size="8px"></text></g><g style="font-size: 13px;"><rect x="150" y="275.28969563623025" width="179.27868121429222" height="12.541254125412543" fill="#4472c4"></rect><rect x="150" y="288.49101576824347" width="229.90336317671452" height="12.541254125412543" fill="#ed7d31"></rect><rect x="150" y="301.6923359002567" width="153.83772791144958" height="12.541254125412543" fill="#a5a5a5"></rect><rect x="150" y="314.89365603226986" width="27.591925207255432" height="12.541254125412543" fill="#ffc000"></rect><rect x="150" y="328.0949761642831" width="27.010312885240907" height="12.541254125412543" fill="#5b9bd5"></rect><text class="label" x="337.7786812142922" y="283.78969563623025" font-size="10px">6.64x</text><text class="label" x="388.4033631767145" y="296.99101576824347" font-size="10px">8.51x</text><text class="label" x="312.3377279114496" y="310.1923359002567" font-size="10px">5.7x</text><text class="label" x="186.09192520725543" y="323.39365603226986" font-size="10px">1.02x</text><text class="label" x="185.51031288524092" y="336.5949761642831" font-size="10px">1x</text><text class="label" x="334.2786812142922" y="285.28969563623025" font-size="8px"></text><text class="label" x="384.9033631767145" y="298.49101576824347" font-size="8px"></text><text class="label" x="308.8377279114496" y="311.6923359002567" font-size="8px"></text><text class="label" x="182.59192520725543" y="324.89365603226986" font-size="8px"></text><text class="label" x="182.01031288524092" y="338.0949761642831" font-size="8px"></text></g><g style="font-size: 13px;"><rect x="150" y="349.3637697103044" width="146.4813366685158" height="12.541254125412543" fill="#4472c4"></rect><rect x="150" y="362.56508984231755" width="173.15801253941996" height="12.541254125412543" fill="#ed7d31"></rect><rect x="150" y="375.76640997433077" width="167.77295754379287" height="12.541254125412543" fill="#a5a5a5"></rect><rect x="150" y="388.967730106344" width="27.010312885240907" height="12.541254125412543" fill="#ffc000"></rect><rect x="150" y="402.16905023835716" width="29.709812063084303" height="12.541254125412543" fill="#5b9bd5"></rect><text class="label" x="304.98133666851584" y="357.8637697103044" font-size="10px">5.42x</text><text class="label" x="331.65801253941993" y="371.06508984231755" font-size="10px">6.41x</text><text class="label" x="326.27295754379287" y="384.26640997433077" font-size="10px">6.21x</text><text class="label" x="185.51031288524092" y="397.467730106344" font-size="10px">1x</text><text class="label" x="188.2098120630843" y="410.66905023835716" font-size="10px">1.1x</text><text class="label" x="301.48133666851584" y="359.3637697103044" font-size="8px"></text><text class="label" x="328.15801253941993" y="372.56508984231755" font-size="8px"></text><text class="label" x="322.77295754379287" y="385.76640997433077" font-size="8px"></text><text class="label" x="182.01031288524092" y="398.967730106344" font-size="8px"></text><text class="label" x="184.7098120630843" y="412.16905023835716" font-size="8px"></text></g><g style="font-size: 13px;"><rect x="150" y="423.4378437843784" width="178.22661254010595" height="12.541254125412543" fill="#4472c4"></rect><rect x="150" y="436.6391639163916" width="159.00147246740363" height="12.541254125412543" fill="#ed7d31"></rect><rect x="150" y="449.84048404840485" width="149.8424279060036" height="12.541254125412543" fill="#a5a5a5"></rect><rect x="150" y="463.041804180418" width="27.010312885240907" height="12.541254125412543" fill="#ffc000"></rect><rect x="150" y="476.24312431243123" width="30.603473135342522" height="12.541254125412543" fill="#5b9bd5"></rect><text class="label" x="336.726612540106" y="431.9378437843784" font-size="10px">6.6x</text><text class="label" x="317.50147246740363" y="445.1391639163916" font-size="10px">5.89x</text><text class="label" x="308.3424279060036" y="458.34048404840485" font-size="10px">5.55x</text><text class="label" x="185.51031288524092" y="471.541804180418" font-size="10px">1x</text><text class="label" x="189.1034731353425" y="484.74312431243123" font-size="10px">1.13x</text><text class="label" x="333.226612540106" y="433.4378437843784" font-size="8px"></text><text class="label" x="314.00147246740363" y="446.6391639163916" font-size="8px"></text><text class="label" x="304.8424279060036" y="459.84048404840485" font-size="8px"></text><text class="label" x="182.01031288524092" y="473.041804180418" font-size="8px"></text><text class="label" x="185.6034731353425" y="486.24312431243123" font-size="8px"></text></g><g style="font-size: 13px;"><rect x="150" y="497.51191785845253" width="373.0786671150785" height="12.541254125412543" fill="#4472c4"></rect><rect x="150" y="510.7132379904657" width="440.9090909090909" height="12.541254125412543" fill="#ed7d31"></rect><rect x="150" y="523.9145581224789" width="426.7328508338554" height="12.541254125412543" fill="#a5a5a5"></rect><rect x="150" y="537.1158782544921" width="27.010312885240907" height="12.541254125412543" fill="#ffc000"></rect><rect x="150" y="550.3171983865053" width="27.890733150361562" height="12.541254125412543" fill="#5b9bd5"></rect><text class="label" x="531.5786671150785" y="506.01191785845253" font-size="10px">13.81x</text><text class="label" x="599.4090909090909" y="519.2132379904657" font-size="10px">16.32x</text><text class="label" x="585.2328508338554" y="532.4145581224789" font-size="10px">15.8x</text><text class="label" x="185.51031288524092" y="545.6158782544921" font-size="10px">1x</text><text class="label" x="186.39073315036157" y="558.8171983865053" font-size="10px">1.03x</text><text class="label" x="528.0786671150785" y="507.51191785845253" font-size="8px"></text><text class="label" x="595.9090909090909" y="520.7132379904657" font-size="8px"></text><text class="label" x="581.7328508338554" y="533.9145581224789" font-size="8px"></text><text class="label" x="182.01031288524092" y="547.1158782544921" font-size="8px"></text><text class="label" x="182.89073315036157" y="560.3171983865053" font-size="8px"></text></g><g style="font-size: 13px;"><rect x="150" y="571.5859919325266" width="133.50708203115684" height="12.541254125412543" fill="#4472c4"></rect><rect x="150" y="584.7873120645397" width="142.78459035099803" height="12.541254125412543" fill="#ed7d31"></rect><rect x="150" y="597.9886321965529" width="97.92857012987048" height="12.541254125412543" fill="#a5a5a5"></rect><rect x="150" y="611.1899523285662" width="27.23126109484345" height="12.541254125412543" fill="#ffc000"></rect><rect x="150" y="624.3912724605793" width="27.010312885240907" height="12.541254125412543" fill="#5b9bd5"></rect><text class="label" x="292.00708203115687" y="580.0859919325266" font-size="10px">4.94x</text><text class="label" x="301.28459035099803" y="593.2873120645397" font-size="10px">5.29x</text><text class="label" x="256.4285701298705" y="606.4886321965529" font-size="10px">3.63x</text><text class="label" x="185.73126109484346" y="619.6899523285662" font-size="10px">1.01x</text><text class="label" x="185.51031288524092" y="632.8912724605793" font-size="10px">1x</text><text class="label" x="288.50708203115687" y="581.5859919325266" font-size="8px"></text><text class="label" x="297.78459035099803" y="594.7873120645397" font-size="8px"></text><text class="label" x="252.92857012987048" y="607.9886321965529" font-size="8px"></text><text class="label" x="182.23126109484346" y="621.1899523285662" font-size="8px"></text><text class="label" x="182.01031288524092" y="634.3912724605793" font-size="8px"></text></g></g></svg>