<svg xmlns="http://www.w3.org/2000/svg" xmlns:xlink="http://www.w3.org/1999/xlink" width="800" height="794" style="background-color: white;"><g class="y axis" transform="translate(149,45)" fill="none" font-size="10" font-family="sans-serif" text-anchor="end" style="font-size: 13px;"><path class="domain" stroke="currentColor" d="M0.5,0.5V600.5"></path><g class="tick" opacity="1" transform="translate(0,40.740740740740726)" style="font-size: 13px;"><line stroke="currentColor" x2="0"></line><text fill="currentColor" x="-3" dy="0.32em">object (simple)    </text></g><g class="tick" opacity="1" transform="translate(0,114.81481481481481)" style="font-size: 13px;"><line stroke="currentColor" x2="0"></line><text fill="currentColor" x="-3" dy="0.32em">object (hierarchical)    </text></g><g class="tick" opacity="1" transform="translate(0,188.88888888888889)" style="font-size: 13px;"><line stroke="currentColor" x2="0"></line><text fill="currentColor" x="-3" dy="0.32em">object (recursive)    </text></g><g class="tick" opacity="1" transform="translate(0,262.96296296296293)" style="font-size: 13px;"><line stroke="currentColor" x2="0"></line><text fill="currentColor" x="-3" dy="0.32em">object (union, explicit)    </text></g><g class="tick" opacity="1" transform="translate(0,337.037037037037)" style="font-size: 13px;"><line stroke="currentColor" x2="0"></line><text fill="currentColor" x="-3" dy="0.32em">array (simple)    </text></g><g class="tick" opacity="1" transform="translate(0,411.1111111111111)" style="font-size: 13px;"><line stroke="currentColor" x2="0"></line><text fill="currentColor" x="-3" dy="0.32em">array (hierarchical)    </text></g><g class="tick" opacity="1" transform="translate(0,485.18518518518516)" style="font-size: 13px;"><line stroke="currentColor" x2="0"></line><text fill="currentColor" x="-3" dy="0.32em">array (recursive)    </text></g><g class="tick" opacity="1" transform="translate(0,559.2592592592592)" style="font-size: 13px;"><line stroke="currentColor" x2="0"></line><text fill="currentColor" x="-3" dy="0.32em">array (union, explicit)    </text></g></g><g class="x axis" transform="translate(149,645)" fill="none" font-size="10" font-family="sans-serif" text-anchor="middle" style="font-size: 13px;"><path class="domain" stroke="currentColor" d="M0.5,0.5H485.5"></path><g class="tick" opacity="1" transform="translate(0.5,0)" style="font-size: 13px;"><line stroke="currentColor" y2="6"></line><text fill="currentColor" y="9" dy="0.71em">0x</text></g><g class="tick" opacity="1" transform="translate(130.7978594672158,0)" style="font-size: 13px;"><line stroke="currentColor" y2="6"></line><text fill="currentColor" y="9" dy="0.71em">5x</text></g><g class="tick" opacity="1" transform="translate(261.0957189344316,0)" style="font-size: 13px;"><line stroke="currentColor" y2="6"></line><text fill="currentColor" y="9" dy="0.71em">10x</text></g><g class="tick" opacity="1" transform="translate(391.3935784016474,0)" style="font-size: 13px;"><line stroke="currentColor" y2="6"></line><text fill="currentColor" y="9" dy="0.71em">15x</text></g></g><text transform="translate(400, 30)" style="text-anchor: middle; font-size: 20px; font-weight: bold;">assert benchmark</text><rect x="650" y="145" width="230" height="5" fill="gray"></rect><rect x="645" y="35" width="230" height="110" fill="none" stroke="black"></rect><rect x="655" y="45" width="10" height="10" style="fill: #4472c4;"></rect><text x="670" y="55" style="font-size: 12px;">nestia-express</text><rect x="655" y="65" width="10" height="10" style="fill: #ed7d31;"></rect><text x="670" y="75" style="font-size: 12px;">nestia-fastify</text><rect x="655" y="85" width="10" height="10" style="fill: #a5a5a5;"></rect><text x="670" y="95" style="font-size: 12px;">fastify</text><rect x="655" y="105" width="10" height="10" style="fill: #ffc000;"></rect><text x="670" y="115" style="font-size: 12px;">NestJS-express</text><rect x="655" y="125" width="10" height="10" style="fill: #5b9bd5;"></rect><text x="670" y="135" style="font-size: 12px;">NestJS-fastify</text><text x="20" y="709" style="font-size: 12px;">  - CPU: AMD Ryzen 9 7940HS w/ Radeon 780M Graphics</text><text x="20" y="726" style="font-size: 12px;">  - OS: win32</text><text x="20" y="743" style="font-size: 12px;">  - RAM: 31 GB</text><text x="20" y="760" style="font-size: 12px;">  - NodeJS version: v20.10.0</text><text x="20" y="777" style="font-size: 12px;">  - nestia version: v3.0.2</text><g style="font-size: 13px;"><g style="font-size: 13px;"><rect x="150" y="53.06747341400805" width="248.5854569115189" height="12.541254125412543" fill="#4472c4"></rect><rect x="150" y="66.26879354602124" width="396.37627620698936" height="12.541254125412543" fill="#ed7d31"></rect><rect x="150" y="79.47011367803445" width="400.7105515992385" height="12.541254125412543" fill="#a5a5a5"></rect><rect x="150" y="92.67143381004766" width="31.133114039809335" height="12.541254125412543" fill="#ffc000"></rect><rect x="150" y="105.87275394206085" width="26.05957189344316" height="12.541254125412543" fill="#5b9bd5"></rect><text class="label" x="407.0854569115189" y="61.56747341400805" font-size="10px">9.54x</text><text class="label" x="554.8762762069894" y="74.76879354602124" font-size="10px">15.21x</text><text class="label" x="559.2105515992384" y="87.97011367803445" font-size="10px">15.38x</text><text class="label" x="189.63311403980933" y="101.17143381004766" font-size="10px">1.19x</text><text class="label" x="184.55957189344315" y="114.37275394206085" font-size="10px">1x</text><text class="label" x="403.5854569115189" y="63.06747341400805" font-size="8px"></text><text class="label" x="551.3762762069894" y="76.26879354602124" font-size="8px"></text><text class="label" x="555.7105515992384" y="89.47011367803445" font-size="8px"></text><text class="label" x="186.13311403980933" y="102.67143381004766" font-size="8px"></text><text class="label" x="181.05957189344315" y="115.87275394206085" font-size="8px"></text></g><g style="font-size: 13px;"><rect x="150" y="127.14154748808213" width="305.09090497047436" height="12.541254125412543" fill="#4472c4"></rect><rect x="150" y="140.34286762009532" width="403.46893007429077" height="12.541254125412543" fill="#ed7d31"></rect><rect x="150" y="153.54418775210854" width="389.73641753265827" height="12.541254125412543" fill="#a5a5a5"></rect><rect x="150" y="166.74550788412174" width="26.05957189344316" height="12.541254125412543" fill="#ffc000"></rect><rect x="150" y="179.94682801613493" width="27.494482039706146" height="12.541254125412543" fill="#5b9bd5"></rect><text class="label" x="463.59090497047436" y="135.64154748808213" font-size="10px">11.71x</text><text class="label" x="561.9689300742907" y="148.84286762009532" font-size="10px">15.48x</text><text class="label" x="548.2364175326583" y="162.04418775210854" font-size="10px">14.96x</text><text class="label" x="184.55957189344315" y="175.24550788412174" font-size="10px">1x</text><text class="label" x="185.99448203970616" y="188.44682801613493" font-size="10px">1.06x</text><text class="label" x="460.09090497047436" y="137.14154748808213" font-size="8px"></text><text class="label" x="558.4689300742907" y="150.34286762009532" font-size="8px"></text><text class="label" x="544.7364175326583" y="163.54418775210854" font-size="8px"></text><text class="label" x="181.05957189344315" y="176.74550788412174" font-size="8px"></text><text class="label" x="182.49448203970616" y="189.94682801613493" font-size="8px"></text></g><g style="font-size: 13px;"><rect x="150" y="201.2156215621562" width="359.2294889901073" height="12.541254125412543" fill="#4472c4"></rect><rect x="150" y="214.4169416941694" width="439.5191417959123" height="12.541254125412543" fill="#ed7d31"></rect><rect x="150" y="227.61826182618262" width="430.54281503291764" height="12.541254125412543" fill="#a5a5a5"></rect><rect x="150" y="240.8195819581958" width="28.208428080503175" height="12.541254125412543" fill="#ffc000"></rect><rect x="150" y="254.020902090209" width="26.05957189344316" height="12.541254125412543" fill="#5b9bd5"></rect><text class="label" x="517.7294889901073" y="209.7156215621562" font-size="10px">13.78x</text><text class="label" x="598.0191417959122" y="222.9169416941694" font-size="10px">16.87x</text><text class="label" x="589.0428150329176" y="236.11826182618262" font-size="10px">16.52x</text><text class="label" x="186.70842808050318" y="249.3195819581958" font-size="10px">1.08x</text><text class="label" x="184.55957189344315" y="262.520902090209" font-size="10px">1x</text><text class="label" x="514.2294889901073" y="211.2156215621562" font-size="8px"></text><text class="label" x="594.5191417959122" y="224.4169416941694" font-size="8px"></text><text class="label" x="585.5428150329176" y="237.61826182618262" font-size="8px"></text><text class="label" x="183.20842808050318" y="250.8195819581958" font-size="8px"></text><text class="label" x="181.05957189344315" y="264.020902090209" font-size="8px"></text></g><g style="font-size: 13px;"><rect x="150" y="275.28969563623025" width="163.69511333876144" height="12.541254125412543" fill="#4472c4"></rect><rect x="150" y="288.49101576824347" width="227.7860831949413" height="12.541254125412543" fill="#ed7d31"></rect><rect x="150" y="301.6923359002567" width="159.32159117069884" height="12.541254125412543" fill="#a5a5a5"></rect><rect x="150" y="314.89365603226986" width="26.05957189344316" height="12.541254125412543" fill="#ffc000"></rect><rect x="150" y="328.0949761642831" width="28.140217315577353" height="12.541254125412543" fill="#5b9bd5"></rect><text class="label" x="322.1951133387614" y="283.78969563623025" font-size="10px">6.28x</text><text class="label" x="386.2860831949413" y="296.99101576824347" font-size="10px">8.74x</text><text class="label" x="317.82159117069887" y="310.1923359002567" font-size="10px">6.11x</text><text class="label" x="184.55957189344315" y="323.39365603226986" font-size="10px">1x</text><text class="label" x="186.64021731557736" y="336.5949761642831" font-size="10px">1.08x</text><text class="label" x="318.6951133387614" y="285.28969563623025" font-size="8px"></text><text class="label" x="382.7860831949413" y="298.49101576824347" font-size="8px"></text><text class="label" x="314.32159117069887" y="311.6923359002567" font-size="8px"></text><text class="label" x="181.05957189344315" y="324.89365603226986" font-size="8px"></text><text class="label" x="183.14021731557736" y="338.0949761642831" font-size="8px"></text></g><g style="font-size: 13px;"><rect x="150" y="349.3637697103044" width="133.20823547095205" height="12.541254125412543" fill="#4472c4"></rect><rect x="150" y="362.56508984231755" width="164.61460700104567" height="12.541254125412543" fill="#ed7d31"></rect><rect x="150" y="375.76640997433077" width="167.90586443340328" height="12.541254125412543" fill="#a5a5a5"></rect><rect x="150" y="388.967730106344" width="26.05957189344316" height="12.541254125412543" fill="#ffc000"></rect><rect x="150" y="402.16905023835716" width="28.20441080011229" height="12.541254125412543" fill="#5b9bd5"></rect><text class="label" x="291.70823547095205" y="357.8637697103044" font-size="10px">5.11x</text><text class="label" x="323.11460700104567" y="371.06508984231755" font-size="10px">6.32x</text><text class="label" x="326.4058644334033" y="384.26640997433077" font-size="10px">6.44x</text><text class="label" x="184.55957189344315" y="397.467730106344" font-size="10px">1x</text><text class="label" x="186.7044108001123" y="410.66905023835716" font-size="10px">1.08x</text><text class="label" x="288.20823547095205" y="359.3637697103044" font-size="8px"></text><text class="label" x="319.61460700104567" y="372.56508984231755" font-size="8px"></text><text class="label" x="322.9058644334033" y="385.76640997433077" font-size="8px"></text><text class="label" x="181.05957189344315" y="398.967730106344" font-size="8px"></text><text class="label" x="183.2044108001123" y="412.16905023835716" font-size="8px"></text></g><g style="font-size: 13px;"><rect x="150" y="423.4378437843784" width="137.032068965313" height="12.541254125412543" fill="#4472c4"></rect><rect x="150" y="436.6391639163916" width="223.23062293603365" height="12.541254125412543" fill="#ed7d31"></rect><rect x="150" y="449.84048404840485" width="165.3200110121384" height="12.541254125412543" fill="#a5a5a5"></rect><rect x="150" y="463.041804180418" width="26.05957189344316" height="12.541254125412543" fill="#ffc000"></rect><rect x="150" y="476.24312431243123" width="31.93028766414067" height="12.541254125412543" fill="#5b9bd5"></rect><text class="label" x="295.532068965313" y="431.9378437843784" font-size="10px">5.26x</text><text class="label" x="381.7306229360337" y="445.1391639163916" font-size="10px">8.57x</text><text class="label" x="323.82001101213837" y="458.34048404840485" font-size="10px">6.34x</text><text class="label" x="184.55957189344315" y="471.541804180418" font-size="10px">1x</text><text class="label" x="190.43028766414068" y="484.74312431243123" font-size="10px">1.23x</text><text class="label" x="292.032068965313" y="433.4378437843784" font-size="8px"></text><text class="label" x="378.2306229360337" y="446.6391639163916" font-size="8px"></text><text class="label" x="320.32001101213837" y="459.84048404840485" font-size="8px"></text><text class="label" x="181.05957189344315" y="473.041804180418" font-size="8px"></text><text class="label" x="186.93028766414068" y="486.24312431243123" font-size="8px"></text></g><g style="font-size: 13px;"><rect x="150" y="497.51191785845253" width="375.86402290304704" height="12.541254125412543" fill="#4472c4"></rect><rect x="150" y="510.7132379904657" width="440.9090909090908" height="12.541254125412543" fill="#ed7d31"></rect><rect x="150" y="523.9145581224789" width="423.95222111599094" height="12.541254125412543" fill="#a5a5a5"></rect><rect x="150" y="537.1158782544921" width="26.356934019721542" height="12.541254125412543" fill="#ffc000"></rect><rect x="150" y="550.3171983865053" width="26.05957189344316" height="12.541254125412543" fill="#5b9bd5"></rect><text class="label" x="534.364022903047" y="506.01191785845253" font-size="10px">14.42x</text><text class="label" x="599.4090909090908" y="519.2132379904657" font-size="10px">16.92x</text><text class="label" x="582.4522211159909" y="532.4145581224789" font-size="10px">16.27x</text><text class="label" x="184.85693401972154" y="545.6158782544921" font-size="10px">1.01x</text><text class="label" x="184.55957189344315" y="558.8171983865053" font-size="10px">1x</text><text class="label" x="530.864022903047" y="507.51191785845253" font-size="8px"></text><text class="label" x="595.9090909090908" y="520.7132379904657" font-size="8px"></text><text class="label" x="578.9522211159909" y="533.9145581224789" font-size="8px"></text><text class="label" x="181.35693401972154" y="547.1158782544921" font-size="8px"></text><text class="label" x="181.05957189344315" y="560.3171983865053" font-size="8px"></text></g><g style="font-size: 13px;"><rect x="150" y="571.5859919325266" width="126.7506593176341" height="12.541254125412543" fill="#4472c4"></rect><rect x="150" y="584.7873120645397" width="135.51062370126635" height="12.541254125412543" fill="#ed7d31"></rect><rect x="150" y="597.9886321965529" width="97.75119359059924" height="12.541254125412543" fill="#a5a5a5"></rect><rect x="150" y="611.1899523285662" width="26.05957189344316" height="12.541254125412543" fill="#ffc000"></rect><rect x="150" y="624.3912724605793" width="27.51240838275105" height="12.541254125412543" fill="#5b9bd5"></rect><text class="label" x="285.25065931763413" y="580.0859919325266" font-size="10px">4.86x</text><text class="label" x="294.01062370126635" y="593.2873120645397" font-size="10px">5.2x</text><text class="label" x="256.25119359059926" y="606.4886321965529" font-size="10px">3.75x</text><text class="label" x="184.55957189344315" y="619.6899523285662" font-size="10px">1x</text><text class="label" x="186.01240838275106" y="632.8912724605793" font-size="10px">1.06x</text><text class="label" x="281.75065931763413" y="581.5859919325266" font-size="8px"></text><text class="label" x="290.51062370126635" y="594.7873120645397" font-size="8px"></text><text class="label" x="252.75119359059926" y="607.9886321965529" font-size="8px"></text><text class="label" x="181.05957189344315" y="621.1899523285662" font-size="8px"></text><text class="label" x="182.51240838275106" y="634.3912724605793" font-size="8px"></text></g></g></svg>