<svg xmlns="http://www.w3.org/2000/svg" xmlns:xlink="http://www.w3.org/1999/xlink" width="800" height="674" style="background-color: white;"><g class="y axis" transform="translate(149,45)" fill="none" font-size="10" font-family="sans-serif" text-anchor="end" style="font-size: 13px;"><path class="domain" stroke="currentColor" d="M0.5,0.5V480.5"></path><g class="tick" opacity="1" transform="translate(0,32.592592592592595)" style="font-size: 13px;"><line stroke="currentColor" x2="0"></line><text fill="currentColor" x="-3" dy="0.32em">object (simple)    </text></g><g class="tick" opacity="1" transform="translate(0,91.85185185185186)" style="font-size: 13px;"><line stroke="currentColor" x2="0"></line><text fill="currentColor" x="-3" dy="0.32em">object (hierarchical)    </text></g><g class="tick" opacity="1" transform="translate(0,151.11111111111111)" style="font-size: 13px;"><line stroke="currentColor" x2="0"></line><text fill="currentColor" x="-3" dy="0.32em">object (recursive)    </text></g><g class="tick" opacity="1" transform="translate(0,210.37037037037035)" style="font-size: 13px;"><line stroke="currentColor" x2="0"></line><text fill="currentColor" x="-3" dy="0.32em">object (union, explicit)    </text></g><g class="tick" opacity="1" transform="translate(0,269.6296296296296)" style="font-size: 13px;"><line stroke="currentColor" x2="0"></line><text fill="currentColor" x="-3" dy="0.32em">array (simple)    </text></g><g class="tick" opacity="1" transform="translate(0,328.8888888888889)" style="font-size: 13px;"><line stroke="currentColor" x2="0"></line><text fill="currentColor" x="-3" dy="0.32em">array (hierarchical)    </text></g><g class="tick" opacity="1" transform="translate(0,388.14814814814815)" style="font-size: 13px;"><line stroke="currentColor" x2="0"></line><text fill="currentColor" x="-3" dy="0.32em">array (recursive)    </text></g><g class="tick" opacity="1" transform="translate(0,447.40740740740745)" style="font-size: 13px;"><line stroke="currentColor" x2="0"></line><text fill="currentColor" x="-3" dy="0.32em">array (union, explicit)    </text></g></g><g class="x axis" transform="translate(149,525)" fill="none" font-size="10" font-family="sans-serif" text-anchor="middle" style="font-size: 13px;"><path class="domain" stroke="currentColor" d="M0.5,0.5H485.5"></path><g class="tick" opacity="1" transform="translate(0.5,0)" style="font-size: 13px;"><line stroke="currentColor" y2="6"></line><text fill="currentColor" y="9" dy="0.71em">0x</text></g><g class="tick" opacity="1" transform="translate(135.1052430551656,0)" style="font-size: 13px;"><line stroke="currentColor" y2="6"></line><text fill="currentColor" y="9" dy="0.71em">5x</text></g><g class="tick" opacity="1" transform="translate(269.7104861103312,0)" style="font-size: 13px;"><line stroke="currentColor" y2="6"></line><text fill="currentColor" y="9" dy="0.71em">10x</text></g><g class="tick" opacity="1" transform="translate(404.3157291654968,0)" style="font-size: 13px;"><line stroke="currentColor" y2="6"></line><text fill="currentColor" y="9" dy="0.71em">15x</text></g></g><text transform="translate(400, 30)" style="text-anchor: middle; font-size: 20px; font-weight: bold;">assert benchmark</text><rect x="650" y="125" width="230" height="5" fill="gray"></rect><rect x="645" y="35" width="230" height="90" fill="none" stroke="black"></rect><rect x="655" y="45" width="10" height="10" style="fill: #4472c4;"></rect><text x="670" y="55" style="font-size: 12px;">nestia-express</text><rect x="655" y="65" width="10" height="10" style="fill: #ed7d31;"></rect><text x="670" y="75" style="font-size: 12px;">nestia-fastify</text><rect x="655" y="85" width="10" height="10" style="fill: #a5a5a5;"></rect><text x="670" y="95" style="font-size: 12px;">NestJS-express</text><rect x="655" y="105" width="10" height="10" style="fill: #ffc000;"></rect><text x="670" y="115" style="font-size: 12px;">NestJS-fastify</text><text x="20" y="589" style="font-size: 12px;">  - CPU: AMD Ryzen 9 7940HS w/ Radeon 780M Graphics</text><text x="20" y="606" style="font-size: 12px;">  - OS: win32</text><text x="20" y="623" style="font-size: 12px;">  - RAM: 31 GB</text><text x="20" y="640" style="font-size: 12px;">  - NodeJS version: v20.10.0</text><text x="20" y="657" style="font-size: 12px;">  - nestia version: v3.0.5</text><g style="font-size: 13px;"><g style="font-size: 13px;"><rect x="150" y="51.584362139917694" width="222.91091046397068" height="12.510288065843621" fill="#4472c4"></rect><rect x="150" y="64.75308641975309" width="345.51463345860566" height="12.510288065843621" fill="#ed7d31"></rect><rect x="150" y="77.92181069958848" width="26.921048611033118" height="12.510288065843621" fill="#a5a5a5"></rect><rect x="150" y="91.09053497942386" width="30.564426790450074" height="12.510288065843621" fill="#ffc000"></rect><text class="label" x="381.4109104639707" y="60.084362139917694" font-size="10px">8.28x</text><text class="label" x="504.01463345860566" y="73.25308641975309" font-size="10px">12.83x</text><text class="label" x="185.42104861103311" y="86.42181069958848" font-size="10px">1x</text><text class="label" x="189.06442679045009" y="99.59053497942386" font-size="10px">1.14x</text><text class="label" x="377.9109104639707" y="61.584362139917694" font-size="8px"></text><text class="label" x="500.51463345860566" y="74.75308641975309" font-size="8px"></text><text class="label" x="181.92104861103311" y="87.92181069958848" font-size="8px"></text><text class="label" x="185.56442679045009" y="101.09053497942386" font-size="8px"></text></g><g style="font-size: 13px;"><rect x="150" y="110.84362139917695" width="319.3997485545336" height="12.510288065843621" fill="#4472c4"></rect><rect x="150" y="124.01234567901236" width="402.6736620364357" height="12.510288065843621" fill="#ed7d31"></rect><rect x="150" y="137.18106995884773" width="27.206399593501498" height="12.510288065843621" fill="#a5a5a5"></rect><rect x="150" y="150.34979423868313" width="26.921048611033118" height="12.510288065843621" fill="#ffc000"></rect><text class="label" x="477.8997485545336" y="119.34362139917695" font-size="10px">11.86x</text><text class="label" x="561.1736620364356" y="132.51234567901236" font-size="10px">14.96x</text><text class="label" x="185.7063995935015" y="145.68106995884773" font-size="10px">1.01x</text><text class="label" x="185.42104861103311" y="158.84979423868313" font-size="10px">1x</text><text class="label" x="474.3997485545336" y="120.84362139917695" font-size="8px"></text><text class="label" x="557.6736620364356" y="134.01234567901236" font-size="8px"></text><text class="label" x="182.2063995935015" y="147.18106995884773" font-size="8px"></text><text class="label" x="181.92104861103311" y="160.34979423868313" font-size="8px"></text></g><g style="font-size: 13px;"><rect x="150" y="170.10288065843622" width="350.7219583242889" height="12.510288065843621" fill="#4472c4"></rect><rect x="150" y="183.2716049382716" width="419.18983159228236" height="12.510288065843621" fill="#ed7d31"></rect><rect x="150" y="196.440329218107" width="27.198895832674545" height="12.510288065843621" fill="#a5a5a5"></rect><rect x="150" y="209.6090534979424" width="26.921048611033118" height="12.510288065843621" fill="#ffc000"></rect><text class="label" x="509.2219583242889" y="178.60288065843622" font-size="10px">13.03x</text><text class="label" x="577.6898315922824" y="191.7716049382716" font-size="10px">15.57x</text><text class="label" x="185.69889583267454" y="204.940329218107" font-size="10px">1.01x</text><text class="label" x="185.42104861103311" y="218.1090534979424" font-size="10px">1x</text><text class="label" x="505.7219583242889" y="180.10288065843622" font-size="8px"></text><text class="label" x="574.1898315922824" y="193.2716049382716" font-size="8px"></text><text class="label" x="182.19889583267454" y="206.440329218107" font-size="8px"></text><text class="label" x="181.92104861103311" y="219.6090534979424" font-size="8px"></text></g><g style="font-size: 13px;"><rect x="150" y="229.36213991769546" width="187.27335683371055" height="12.510288065843621" fill="#4472c4"></rect><rect x="150" y="242.53086419753086" width="241.9909532771095" height="12.510288065843621" fill="#ed7d31"></rect><rect x="150" y="255.69958847736626" width="27.827803139232458" height="12.510288065843621" fill="#a5a5a5"></rect><rect x="150" y="268.86831275720164" width="26.921048611033118" height="12.510288065843621" fill="#ffc000"></rect><text class="label" x="345.7733568337105" y="237.86213991769546" font-size="10px">6.96x</text><text class="label" x="400.4909532771095" y="251.03086419753086" font-size="10px">8.99x</text><text class="label" x="186.32780313923246" y="264.19958847736626" font-size="10px">1.03x</text><text class="label" x="185.42104861103311" y="277.36831275720164" font-size="10px">1x</text><text class="label" x="342.2733568337105" y="239.36213991769546" font-size="8px"></text><text class="label" x="396.9909532771095" y="252.53086419753086" font-size="8px"></text><text class="label" x="182.82780313923246" y="265.69958847736626" font-size="8px"></text><text class="label" x="181.92104861103311" y="278.86831275720164" font-size="8px"></text></g><g style="font-size: 13px;"><rect x="150" y="288.6213991769547" width="139.48141416712934" height="12.510288065843621" fill="#4472c4"></rect><rect x="150" y="301.7901234567901" width="173.63552901906027" height="12.510288065843621" fill="#ed7d31"></rect><rect x="150" y="314.9588477366255" width="26.921048611033118" height="12.510288065843621" fill="#a5a5a5"></rect><rect x="150" y="328.12757201646093" width="30.126023549573063" height="12.510288065843621" fill="#ffc000"></rect><text class="label" x="297.98141416712934" y="297.1213991769547" font-size="10px">5.18x</text><text class="label" x="332.1355290190603" y="310.2901234567901" font-size="10px">6.45x</text><text class="label" x="185.42104861103311" y="323.4588477366255" font-size="10px">1x</text><text class="label" x="188.62602354957306" y="336.62757201646093" font-size="10px">1.12x</text><text class="label" x="294.48141416712934" y="298.6213991769547" font-size="8px"></text><text class="label" x="328.6355290190603" y="311.7901234567901" font-size="8px"></text><text class="label" x="181.92104861103311" y="324.9588477366255" font-size="8px"></text><text class="label" x="185.12602354957306" y="338.12757201646093" font-size="8px"></text></g><g style="font-size: 13px;"><rect x="150" y="347.880658436214" width="196.79360739644346" height="12.510288065843621" fill="#4472c4"></rect><rect x="150" y="361.04938271604937" width="227.49369180570935" height="12.510288065843621" fill="#ed7d31"></rect><rect x="150" y="374.2181069958848" width="26.921048611033118" height="12.510288065843621" fill="#a5a5a5"></rect><rect x="150" y="387.38683127572017" width="45.2630846710076" height="12.510288065843621" fill="#ffc000"></rect><text class="label" x="355.29360739644346" y="356.380658436214" font-size="10px">7.31x</text><text class="label" x="385.9936918057093" y="369.54938271604937" font-size="10px">8.45x</text><text class="label" x="185.42104861103311" y="382.7181069958848" font-size="10px">1x</text><text class="label" x="203.7630846710076" y="395.88683127572017" font-size="10px">1.68x</text><text class="label" x="351.79360739644346" y="357.880658436214" font-size="8px"></text><text class="label" x="382.4936918057093" y="371.04938271604937" font-size="8px"></text><text class="label" x="181.92104861103311" y="384.2181069958848" font-size="8px"></text><text class="label" x="200.2630846710076" y="397.38683127572017" font-size="8px"></text></g><g style="font-size: 13px;"><rect x="150" y="407.13991769547323" width="355.7566729334363" height="12.510288065843621" fill="#4472c4"></rect><rect x="150" y="420.3086419753086" width="440.9090909090909" height="12.510288065843621" fill="#ed7d31"></rect><rect x="150" y="433.47736625514403" width="26.921048611033118" height="12.510288065843621" fill="#a5a5a5"></rect><rect x="150" y="446.6460905349794" width="26.960666779468394" height="12.510288065843621" fill="#ffc000"></rect><text class="label" x="514.2566729334362" y="415.63991769547323" font-size="10px">13.21x</text><text class="label" x="599.4090909090909" y="428.8086419753086" font-size="10px">16.38x</text><text class="label" x="185.42104861103311" y="441.97736625514403" font-size="10px">1x</text><text class="label" x="185.4606667794684" y="455.1460905349794" font-size="10px">1x</text><text class="label" x="510.7566729334363" y="417.13991769547323" font-size="8px"></text><text class="label" x="595.9090909090909" y="430.3086419753086" font-size="8px"></text><text class="label" x="181.92104861103311" y="443.47736625514403" font-size="8px"></text><text class="label" x="181.9606667794684" y="456.6460905349794" font-size="8px"></text></g><g style="font-size: 13px;"><rect x="150" y="466.3991769547325" width="201.29805543414832" height="12.510288065843621" fill="#4472c4"></rect><rect x="150" y="479.5679012345679" width="219.93814259817705" height="12.510288065843621" fill="#ed7d31"></rect><rect x="150" y="492.73662551440333" width="26.921048611033118" height="12.510288065843621" fill="#a5a5a5"></rect><rect x="150" y="505.9053497942387" width="42.25578603326652" height="12.510288065843621" fill="#ffc000"></rect><text class="label" x="359.7980554341483" y="474.8991769547325" font-size="10px">7.48x</text><text class="label" x="378.438142598177" y="488.0679012345679" font-size="10px">8.17x</text><text class="label" x="185.42104861103311" y="501.23662551440333" font-size="10px">1x</text><text class="label" x="200.75578603326653" y="514.4053497942386" font-size="10px">1.57x</text><text class="label" x="356.2980554341483" y="476.3991769547325" font-size="8px"></text><text class="label" x="374.938142598177" y="489.5679012345679" font-size="8px"></text><text class="label" x="181.92104861103311" y="502.73662551440333" font-size="8px"></text><text class="label" x="197.25578603326653" y="515.9053497942386" font-size="8px"></text></g></g></svg>