<svg xmlns="http://www.w3.org/2000/svg" xmlns:xlink="http://www.w3.org/1999/xlink" width="800" height="674" style="background-color: white;"><g class="y axis" transform="translate(149,45)" fill="none" font-size="10" font-family="sans-serif" text-anchor="end" style="font-size: 13px;"><path class="domain" stroke="currentColor" d="M0.5,0.5V480.5"></path><g class="tick" opacity="1" transform="translate(0,32.592592592592595)" style="font-size: 13px;"><line stroke="currentColor" x2="0"></line><text fill="currentColor" x="-3" dy="0.32em">object (simple)    </text></g><g class="tick" opacity="1" transform="translate(0,91.85185185185186)" style="font-size: 13px;"><line stroke="currentColor" x2="0"></line><text fill="currentColor" x="-3" dy="0.32em">object (hierarchical)    </text></g><g class="tick" opacity="1" transform="translate(0,151.11111111111111)" style="font-size: 13px;"><line stroke="currentColor" x2="0"></line><text fill="currentColor" x="-3" dy="0.32em">object (recursive)    </text></g><g class="tick" opacity="1" transform="translate(0,210.37037037037035)" style="font-size: 13px;"><line stroke="currentColor" x2="0"></line><text fill="currentColor" x="-3" dy="0.32em">object (union, explicit)    </text></g><g class="tick" opacity="1" transform="translate(0,269.6296296296296)" style="font-size: 13px;"><line stroke="currentColor" x2="0"></line><text fill="currentColor" x="-3" dy="0.32em">array (simple)    </text></g><g class="tick" opacity="1" transform="translate(0,328.8888888888889)" style="font-size: 13px;"><line stroke="currentColor" x2="0"></line><text fill="currentColor" x="-3" dy="0.32em">array (hierarchical)    </text></g><g class="tick" opacity="1" transform="translate(0,388.14814814814815)" style="font-size: 13px;"><line stroke="currentColor" x2="0"></line><text fill="currentColor" x="-3" dy="0.32em">array (recursive)    </text></g><g class="tick" opacity="1" transform="translate(0,447.40740740740745)" style="font-size: 13px;"><line stroke="currentColor" x2="0"></line><text fill="currentColor" x="-3" dy="0.32em">array (union, explicit)    </text></g></g><g class="x axis" transform="translate(149,525)" fill="none" font-size="10" font-family="sans-serif" text-anchor="middle" style="font-size: 13px;"><path class="domain" stroke="currentColor" d="M0.5,0.5H485.5"></path><g class="tick" opacity="1" transform="translate(0.5,0)" style="font-size: 13px;"><line stroke="currentColor" y2="6"></line><text fill="currentColor" y="9" dy="0.71em">0x</text></g><g class="tick" opacity="1" transform="translate(134.1920802620343,0)" style="font-size: 13px;"><line stroke="currentColor" y2="6"></line><text fill="currentColor" y="9" dy="0.71em">5x</text></g><g class="tick" opacity="1" transform="translate(267.8841605240686,0)" style="font-size: 13px;"><line stroke="currentColor" y2="6"></line><text fill="currentColor" y="9" dy="0.71em">10x</text></g><g class="tick" opacity="1" transform="translate(401.5762407861029,0)" style="font-size: 13px;"><line stroke="currentColor" y2="6"></line><text fill="currentColor" y="9" dy="0.71em">15x</text></g></g><text transform="translate(400, 30)" style="text-anchor: middle; font-size: 20px; font-weight: bold;">assert benchmark</text><rect x="650" y="125" width="230" height="5" fill="gray"></rect><rect x="645" y="35" width="230" height="90" fill="none" stroke="black"></rect><rect x="655" y="45" width="10" height="10" style="fill: #4472c4;"></rect><text x="670" y="55" style="font-size: 12px;">nestia-express</text><rect x="655" y="65" width="10" height="10" style="fill: #ed7d31;"></rect><text x="670" y="75" style="font-size: 12px;">nestia-fastify</text><rect x="655" y="85" width="10" height="10" style="fill: #a5a5a5;"></rect><text x="670" y="95" style="font-size: 12px;">NestJS-express</text><rect x="655" y="105" width="10" height="10" style="fill: #ffc000;"></rect><text x="670" y="115" style="font-size: 12px;">NestJS-fastify</text><text x="20" y="589" style="font-size: 12px;">  - CPU: AMD Ryzen 9 7940HS w/ Radeon 780M Graphics</text><text x="20" y="606" style="font-size: 12px;">  - OS: win32</text><text x="20" y="623" style="font-size: 12px;">  - RAM: 31 GB</text><text x="20" y="640" style="font-size: 12px;">  - NodeJS version: v20.10.0</text><text x="20" y="657" style="font-size: 12px;">  - nestia version: v3.10.0-dev.20240803-2</text><g style="font-size: 13px;"><g style="font-size: 13px;"><rect x="150" y="51.584362139917694" width="211.31092321321708" height="12.510288065843621" fill="#4472c4"></rect><rect x="150" y="64.75308641975309" width="330.4616353391299" height="12.510288065843621" fill="#ed7d31"></rect><rect x="150" y="77.92181069958848" width="26.738416052406862" height="12.510288065843621" fill="#a5a5a5"></rect><rect x="150" y="91.09053497942386" width="29.59845898976324" height="12.510288065843621" fill="#ffc000"></rect><text class="label" x="369.81092321321705" y="60.084362139917694" font-size="10px">7.9x</text><text class="label" x="488.9616353391299" y="73.25308641975309" font-size="10px">12.36x</text><text class="label" x="185.23841605240688" y="86.42181069958848" font-size="10px">1x</text><text class="label" x="188.09845898976323" y="99.59053497942386" font-size="10px">1.11x</text><text class="label" x="366.31092321321705" y="61.584362139917694" font-size="8px"></text><text class="label" x="485.4616353391299" y="74.75308641975309" font-size="8px"></text><text class="label" x="181.73841605240688" y="87.92181069958848" font-size="8px"></text><text class="label" x="184.59845898976323" y="101.09053497942386" font-size="8px"></text></g><g style="font-size: 13px;"><rect x="150" y="110.84362139917695" width="300.64865199723914" height="12.510288065843621" fill="#4472c4"></rect><rect x="150" y="124.01234567901236" width="393.2874573160179" height="12.510288065843621" fill="#ed7d31"></rect><rect x="150" y="137.18106995884773" width="26.75535850377646" height="12.510288065843621" fill="#a5a5a5"></rect><rect x="150" y="150.34979423868313" width="26.738416052406862" height="12.510288065843621" fill="#ffc000"></rect><text class="label" x="459.14865199723914" y="119.34362139917695" font-size="10px">11.24x</text><text class="label" x="551.7874573160179" y="132.51234567901236" font-size="10px">14.71x</text><text class="label" x="185.25535850377645" y="145.68106995884773" font-size="10px">1x</text><text class="label" x="185.23841605240688" y="158.84979423868313" font-size="10px">1x</text><text class="label" x="455.64865199723914" y="120.84362139917695" font-size="8px"></text><text class="label" x="548.2874573160179" y="134.01234567901236" font-size="8px"></text><text class="label" x="181.75535850377645" y="147.18106995884773" font-size="8px"></text><text class="label" x="181.73841605240688" y="160.34979423868313" font-size="8px"></text></g><g style="font-size: 13px;"><rect x="150" y="170.10288065843622" width="346.4783776080028" height="12.510288065843621" fill="#4472c4"></rect><rect x="150" y="183.2716049382716" width="400.02281150013386" height="12.510288065843621" fill="#ed7d31"></rect><rect x="150" y="196.440329218107" width="27.048279042570222" height="12.510288065843621" fill="#a5a5a5"></rect><rect x="150" y="209.6090534979424" width="26.738416052406862" height="12.510288065843621" fill="#ffc000"></rect><text class="label" x="504.9783776080028" y="178.60288065843622" font-size="10px">12.96x</text><text class="label" x="558.5228115001339" y="191.7716049382716" font-size="10px">14.96x</text><text class="label" x="185.54827904257021" y="204.940329218107" font-size="10px">1.01x</text><text class="label" x="185.23841605240688" y="218.1090534979424" font-size="10px">1x</text><text class="label" x="501.4783776080028" y="180.10288065843622" font-size="8px"></text><text class="label" x="555.0228115001339" y="193.2716049382716" font-size="8px"></text><text class="label" x="182.04827904257021" y="206.440329218107" font-size="8px"></text><text class="label" x="181.73841605240688" y="219.6090534979424" font-size="8px"></text></g><g style="font-size: 13px;"><rect x="150" y="229.36213991769546" width="175.6807985422344" height="12.510288065843621" fill="#4472c4"></rect><rect x="150" y="242.53086419753086" width="219.416333411742" height="12.510288065843621" fill="#ed7d31"></rect><rect x="150" y="255.69958847736626" width="26.738416052406862" height="12.510288065843621" fill="#a5a5a5"></rect><rect x="150" y="268.86831275720164" width="26.877623726124483" height="12.510288065843621" fill="#ffc000"></rect><text class="label" x="334.1807985422344" y="237.86213991769546" font-size="10px">6.57x</text><text class="label" x="377.916333411742" y="251.03086419753086" font-size="10px">8.21x</text><text class="label" x="185.23841605240688" y="264.19958847736626" font-size="10px">1x</text><text class="label" x="185.37762372612448" y="277.36831275720164" font-size="10px">1.01x</text><text class="label" x="330.6807985422344" y="239.36213991769546" font-size="8px"></text><text class="label" x="374.416333411742" y="252.53086419753086" font-size="8px"></text><text class="label" x="181.73841605240688" y="265.69958847736626" font-size="8px"></text><text class="label" x="181.87762372612448" y="278.86831275720164" font-size="8px"></text></g><g style="font-size: 13px;"><rect x="150" y="288.6213991769547" width="119.85652766515861" height="12.510288065843621" fill="#4472c4"></rect><rect x="150" y="301.7901234567901" width="157.3072849763946" height="12.510288065843621" fill="#ed7d31"></rect><rect x="150" y="314.9588477366255" width="26.738416052406862" height="12.510288065843621" fill="#a5a5a5"></rect><rect x="150" y="328.12757201646093" width="28.43089583392977" height="12.510288065843621" fill="#ffc000"></rect><text class="label" x="278.35652766515864" y="297.1213991769547" font-size="10px">4.48x</text><text class="label" x="315.8072849763946" y="310.2901234567901" font-size="10px">5.88x</text><text class="label" x="185.23841605240688" y="323.4588477366255" font-size="10px">1x</text><text class="label" x="186.93089583392978" y="336.62757201646093" font-size="10px">1.06x</text><text class="label" x="274.85652766515864" y="298.6213991769547" font-size="8px"></text><text class="label" x="312.3072849763946" y="311.7901234567901" font-size="8px"></text><text class="label" x="181.73841605240688" y="324.9588477366255" font-size="8px"></text><text class="label" x="183.43089583392978" y="338.12757201646093" font-size="8px"></text></g><g style="font-size: 13px;"><rect x="150" y="347.880658436214" width="135.54616558632395" height="12.510288065843621" fill="#4472c4"></rect><rect x="150" y="361.04938271604937" width="180.85098070587352" height="12.510288065843621" fill="#ed7d31"></rect><rect x="150" y="374.2181069958848" width="26.738416052406862" height="12.510288065843621" fill="#a5a5a5"></rect><rect x="150" y="387.38683127572017" width="27.497210069087746" height="12.510288065843621" fill="#ffc000"></rect><text class="label" x="294.0461655863239" y="356.380658436214" font-size="10px">5.07x</text><text class="label" x="339.35098070587355" y="369.54938271604937" font-size="10px">6.76x</text><text class="label" x="185.23841605240688" y="382.7181069958848" font-size="10px">1x</text><text class="label" x="185.99721006908774" y="395.88683127572017" font-size="10px">1.03x</text><text class="label" x="290.5461655863239" y="357.880658436214" font-size="8px"></text><text class="label" x="335.85098070587355" y="371.04938271604937" font-size="8px"></text><text class="label" x="181.73841605240688" y="384.2181069958848" font-size="8px"></text><text class="label" x="182.49721006908774" y="397.38683127572017" font-size="8px"></text></g><g style="font-size: 13px;"><rect x="150" y="407.13991769547323" width="372.7489803939469" height="12.510288065843621" fill="#4472c4"></rect><rect x="150" y="420.3086419753086" width="440.9090909090908" height="12.510288065843621" fill="#ed7d31"></rect><rect x="150" y="433.47736625514403" width="26.944138821616395" height="12.510288065843621" fill="#a5a5a5"></rect><rect x="150" y="446.6460905349794" width="26.738416052406862" height="12.510288065843621" fill="#ffc000"></rect><text class="label" x="531.2489803939469" y="415.63991769547323" font-size="10px">13.94x</text><text class="label" x="599.4090909090908" y="428.8086419753086" font-size="10px">16.49x</text><text class="label" x="185.4441388216164" y="441.97736625514403" font-size="10px">1.01x</text><text class="label" x="185.23841605240688" y="455.1460905349794" font-size="10px">1x</text><text class="label" x="527.7489803939469" y="417.13991769547323" font-size="8px"></text><text class="label" x="595.9090909090908" y="430.3086419753086" font-size="8px"></text><text class="label" x="181.9441388216164" y="443.47736625514403" font-size="8px"></text><text class="label" x="181.73841605240688" y="456.6460905349794" font-size="8px"></text></g><g style="font-size: 13px;"><rect x="150" y="466.3991769547325" width="131.35648122687996" height="12.510288065843621" fill="#4472c4"></rect><rect x="150" y="479.5679012345679" width="135.8496518843691" height="12.510288065843621" fill="#ed7d31"></rect><rect x="150" y="492.73662551440333" width="26.738416052406862" height="12.510288065843621" fill="#a5a5a5"></rect><rect x="150" y="505.9053497942387" width="26.963248890790776" height="12.510288065843621" fill="#ffc000"></rect><text class="label" x="289.85648122687996" y="474.8991769547325" font-size="10px">4.91x</text><text class="label" x="294.3496518843691" y="488.0679012345679" font-size="10px">5.08x</text><text class="label" x="185.23841605240688" y="501.23662551440333" font-size="10px">1x</text><text class="label" x="185.46324889079077" y="514.4053497942386" font-size="10px">1.01x</text><text class="label" x="286.35648122687996" y="476.3991769547325" font-size="8px"></text><text class="label" x="290.8496518843691" y="489.5679012345679" font-size="8px"></text><text class="label" x="181.73841605240688" y="502.73662551440333" font-size="8px"></text><text class="label" x="181.96324889079077" y="515.9053497942386" font-size="8px"></text></g></g></svg>