<svg xmlns="http://www.w3.org/2000/svg" xmlns:xlink="http://www.w3.org/1999/xlink" width="800" height="674" style="background-color: white;"><g class="y axis" transform="translate(149,45)" fill="none" font-size="10" font-family="sans-serif" text-anchor="end" style="font-size: 13px;"><path class="domain" stroke="currentColor" d="M0.5,0.5V480.5"></path><g class="tick" opacity="1" transform="translate(0,32.592592592592595)" style="font-size: 13px;"><line stroke="currentColor" x2="0"></line><text fill="currentColor" x="-3" dy="0.32em">object (simple)    </text></g><g class="tick" opacity="1" transform="translate(0,91.85185185185186)" style="font-size: 13px;"><line stroke="currentColor" x2="0"></line><text fill="currentColor" x="-3" dy="0.32em">object (hierarchical)    </text></g><g class="tick" opacity="1" transform="translate(0,151.11111111111111)" style="font-size: 13px;"><line stroke="currentColor" x2="0"></line><text fill="currentColor" x="-3" dy="0.32em">object (recursive)    </text></g><g class="tick" opacity="1" transform="translate(0,210.37037037037035)" style="font-size: 13px;"><line stroke="currentColor" x2="0"></line><text fill="currentColor" x="-3" dy="0.32em">object (union, explicit)    </text></g><g class="tick" opacity="1" transform="translate(0,269.6296296296296)" style="font-size: 13px;"><line stroke="currentColor" x2="0"></line><text fill="currentColor" x="-3" dy="0.32em">array (simple)    </text></g><g class="tick" opacity="1" transform="translate(0,328.8888888888889)" style="font-size: 13px;"><line stroke="currentColor" x2="0"></line><text fill="currentColor" x="-3" dy="0.32em">array (hierarchical)    </text></g><g class="tick" opacity="1" transform="translate(0,388.14814814814815)" style="font-size: 13px;"><line stroke="currentColor" x2="0"></line><text fill="currentColor" x="-3" dy="0.32em">array (recursive)    </text></g><g class="tick" opacity="1" transform="translate(0,447.40740740740745)" style="font-size: 13px;"><line stroke="currentColor" x2="0"></line><text fill="currentColor" x="-3" dy="0.32em">array (union, explicit)    </text></g></g><g class="x axis" transform="translate(149,525)" fill="none" font-size="10" font-family="sans-serif" text-anchor="middle" style="font-size: 13px;"><path class="domain" stroke="currentColor" d="M0.5,0.5H485.5"></path><g class="tick" opacity="1" transform="translate(0.5,0)" style="font-size: 13px;"><line stroke="currentColor" y2="6"></line><text fill="currentColor" y="9" dy="0.71em">0x</text></g><g class="tick" opacity="1" transform="translate(94.63354909323107,0)" style="font-size: 13px;"><line stroke="currentColor" y2="6"></line><text fill="currentColor" y="9" dy="0.71em">2x</text></g><g class="tick" opacity="1" transform="translate(188.76709818646214,0)" style="font-size: 13px;"><line stroke="currentColor" y2="6"></line><text fill="currentColor" y="9" dy="0.71em">4x</text></g><g class="tick" opacity="1" transform="translate(282.9006472796932,0)" style="font-size: 13px;"><line stroke="currentColor" y2="6"></line><text fill="currentColor" y="9" dy="0.71em">6x</text></g><g class="tick" opacity="1" transform="translate(377.03419637292427,0)" style="font-size: 13px;"><line stroke="currentColor" y2="6"></line><text fill="currentColor" y="9" dy="0.71em">8x</text></g><g class="tick" opacity="1" transform="translate(471.16774546615534,0)" style="font-size: 13px;"><line stroke="currentColor" y2="6"></line><text fill="currentColor" y="9" dy="0.71em">10x</text></g></g><text transform="translate(400, 30)" style="text-anchor: middle; font-size: 20px; font-weight: bold;">performance benchmark</text><rect x="650" y="125" width="230" height="5" fill="gray"></rect><rect x="645" y="35" width="230" height="90" fill="none" stroke="black"></rect><rect x="655" y="45" width="10" height="10" style="fill: #4472c4;"></rect><text x="670" y="55" style="font-size: 12px;">nestia-express</text><rect x="655" y="65" width="10" height="10" style="fill: #ed7d31;"></rect><text x="670" y="75" style="font-size: 12px;">nestia-fastify</text><rect x="655" y="85" width="10" height="10" style="fill: #a5a5a5;"></rect><text x="670" y="95" style="font-size: 12px;">NestJS-express</text><rect x="655" y="105" width="10" height="10" style="fill: #ffc000;"></rect><text x="670" y="115" style="font-size: 12px;">NestJS-fastify</text><text x="20" y="589" style="font-size: 12px;">  - CPU: AMD Ryzen 9 7940HS w/ Radeon 780M Graphics</text><text x="20" y="606" style="font-size: 12px;">  - OS: win32</text><text x="20" y="623" style="font-size: 12px;">  - RAM: 31 GB</text><text x="20" y="640" style="font-size: 12px;">  - NodeJS version: v20.10.0</text><text x="20" y="657" style="font-size: 12px;">  - nestia version: v3.10.0-dev.20240803-2</text><g style="font-size: 13px;"><g style="font-size: 13px;"><rect x="150" y="51.584362139917694" width="272.3446690750825" height="12.510288065843621" fill="#4472c4"></rect><rect x="150" y="64.75308641975309" width="376.26198604238016" height="12.510288065843621" fill="#ed7d31"></rect><rect x="150" y="77.92181069958848" width="47.066774546615534" height="12.510288065843621" fill="#a5a5a5"></rect><rect x="150" y="91.09053497942386" width="52.03185201497163" height="12.510288065843621" fill="#ffc000"></rect><text class="label" x="430.8446690750825" y="60.084362139917694" font-size="10px">5.79x</text><text class="label" x="534.7619860423802" y="73.25308641975309" font-size="10px">7.99x</text><text class="label" x="205.56677454661553" y="86.42181069958848" font-size="10px">1x</text><text class="label" x="210.53185201497163" y="99.59053497942386" font-size="10px">1.11x</text><text class="label" x="427.3446690750825" y="61.584362139917694" font-size="8px"></text><text class="label" x="531.2619860423802" y="74.75308641975309" font-size="8px"></text><text class="label" x="202.06677454661553" y="87.92181069958848" font-size="8px"></text><text class="label" x="207.03185201497163" y="101.09053497942386" font-size="8px"></text></g><g style="font-size: 13px;"><rect x="150" y="110.84362139917695" width="352.5330764945897" height="12.510288065843621" fill="#4472c4"></rect><rect x="150" y="124.01234567901236" width="405.079612372186" height="12.510288065843621" fill="#ed7d31"></rect><rect x="150" y="137.18106995884773" width="47.066774546615534" height="12.510288065843621" fill="#a5a5a5"></rect><rect x="150" y="150.34979423868313" width="48.639636323197855" height="12.510288065843621" fill="#ffc000"></rect><text class="label" x="511.0330764945897" y="119.34362139917695" font-size="10px">7.49x</text><text class="label" x="563.5796123721859" y="132.51234567901236" font-size="10px">8.61x</text><text class="label" x="205.56677454661553" y="145.68106995884773" font-size="10px">1x</text><text class="label" x="207.13963632319786" y="158.84979423868313" font-size="10px">1.03x</text><text class="label" x="507.5330764945897" y="120.84362139917695" font-size="8px"></text><text class="label" x="560.0796123721859" y="134.01234567901236" font-size="8px"></text><text class="label" x="202.06677454661553" y="147.18106995884773" font-size="8px"></text><text class="label" x="203.63963632319786" y="160.34979423868313" font-size="8px"></text></g><g style="font-size: 13px;"><rect x="150" y="170.10288065843622" width="398.21414080538636" height="12.510288065843621" fill="#4472c4"></rect><rect x="150" y="183.2716049382716" width="440.9090909090909" height="12.510288065843621" fill="#ed7d31"></rect><rect x="150" y="196.440329218107" width="47.066774546615534" height="12.510288065843621" fill="#a5a5a5"></rect><rect x="150" y="209.6090534979424" width="49.76040160749516" height="12.510288065843621" fill="#ffc000"></rect><text class="label" x="556.7141408053864" y="178.60288065843622" font-size="10px">8.46x</text><text class="label" x="599.4090909090909" y="191.7716049382716" font-size="10px">9.37x</text><text class="label" x="205.56677454661553" y="204.940329218107" font-size="10px">1x</text><text class="label" x="208.26040160749517" y="218.1090534979424" font-size="10px">1.06x</text><text class="label" x="553.2141408053864" y="180.10288065843622" font-size="8px"></text><text class="label" x="595.9090909090909" y="193.2716049382716" font-size="8px"></text><text class="label" x="202.06677454661553" y="206.440329218107" font-size="8px"></text><text class="label" x="204.76040160749517" y="219.6090534979424" font-size="8px"></text></g><g style="font-size: 13px;"><rect x="150" y="229.36213991769546" width="393.42205641710075" height="12.510288065843621" fill="#4472c4"></rect><rect x="150" y="242.53086419753086" width="434.7107082049985" height="12.510288065843621" fill="#ed7d31"></rect><rect x="150" y="255.69958847736626" width="47.066774546615534" height="12.510288065843621" fill="#a5a5a5"></rect><rect x="150" y="268.86831275720164" width="48.404977933381446" height="12.510288065843621" fill="#ffc000"></rect><text class="label" x="551.9220564171007" y="237.86213991769546" font-size="10px">8.36x</text><text class="label" x="593.2107082049986" y="251.03086419753086" font-size="10px">9.24x</text><text class="label" x="205.56677454661553" y="264.19958847736626" font-size="10px">1x</text><text class="label" x="206.90497793338145" y="277.36831275720164" font-size="10px">1.03x</text><text class="label" x="548.4220564171007" y="239.36213991769546" font-size="8px"></text><text class="label" x="589.7107082049986" y="252.53086419753086" font-size="8px"></text><text class="label" x="202.06677454661553" y="265.69958847736626" font-size="8px"></text><text class="label" x="203.40497793338145" y="278.86831275720164" font-size="8px"></text></g><g style="font-size: 13px;"><rect x="150" y="288.6213991769547" width="253.23536562715157" height="12.510288065843621" fill="#4472c4"></rect><rect x="150" y="301.7901234567901" width="288.8936895755261" height="12.510288065843621" fill="#ed7d31"></rect><rect x="150" y="314.9588477366255" width="47.066774546615534" height="12.510288065843621" fill="#a5a5a5"></rect><rect x="150" y="328.12757201646093" width="48.80806707045793" height="12.510288065843621" fill="#ffc000"></rect><text class="label" x="411.73536562715157" y="297.1213991769547" font-size="10px">5.38x</text><text class="label" x="447.3936895755261" y="310.2901234567901" font-size="10px">6.14x</text><text class="label" x="205.56677454661553" y="323.4588477366255" font-size="10px">1x</text><text class="label" x="207.30806707045792" y="336.62757201646093" font-size="10px">1.04x</text><text class="label" x="408.23536562715157" y="298.6213991769547" font-size="8px"></text><text class="label" x="443.8936895755261" y="311.7901234567901" font-size="8px"></text><text class="label" x="202.06677454661553" y="324.9588477366255" font-size="8px"></text><text class="label" x="203.80806707045792" y="338.12757201646093" font-size="8px"></text></g><g style="font-size: 13px;"><rect x="150" y="347.880658436214" width="359.60789217112836" height="12.510288065843621" fill="#4472c4"></rect><rect x="150" y="361.04938271604937" width="373.0601835180405" height="12.510288065843621" fill="#ed7d31"></rect><rect x="150" y="374.2181069958848" width="47.066774546615534" height="12.510288065843621" fill="#a5a5a5"></rect><rect x="150" y="387.38683127572017" width="50.84832726556685" height="12.510288065843621" fill="#ffc000"></rect><text class="label" x="518.1078921711284" y="356.380658436214" font-size="10px">7.64x</text><text class="label" x="531.5601835180405" y="369.54938271604937" font-size="10px">7.93x</text><text class="label" x="205.56677454661553" y="382.7181069958848" font-size="10px">1x</text><text class="label" x="209.34832726556687" y="395.88683127572017" font-size="10px">1.08x</text><text class="label" x="514.6078921711284" y="357.880658436214" font-size="8px"></text><text class="label" x="528.0601835180405" y="371.04938271604937" font-size="8px"></text><text class="label" x="202.06677454661553" y="384.2181069958848" font-size="8px"></text><text class="label" x="205.84832726556687" y="397.38683127572017" font-size="8px"></text></g><g style="font-size: 13px;"><rect x="150" y="407.13991769547323" width="405.64810494485766" height="12.510288065843621" fill="#4472c4"></rect><rect x="150" y="420.3086419753086" width="416.4928480374151" height="12.510288065843621" fill="#ed7d31"></rect><rect x="150" y="433.47736625514403" width="47.066774546615534" height="12.510288065843621" fill="#a5a5a5"></rect><rect x="150" y="446.6460905349794" width="47.90722676453716" height="12.510288065843621" fill="#ffc000"></rect><text class="label" x="564.1481049448577" y="415.63991769547323" font-size="10px">8.62x</text><text class="label" x="574.9928480374151" y="428.8086419753086" font-size="10px">8.85x</text><text class="label" x="205.56677454661553" y="441.97736625514403" font-size="10px">1x</text><text class="label" x="206.40722676453714" y="455.1460905349794" font-size="10px">1.02x</text><text class="label" x="560.6481049448577" y="417.13991769547323" font-size="8px"></text><text class="label" x="571.4928480374151" y="430.3086419753086" font-size="8px"></text><text class="label" x="202.06677454661553" y="443.47736625514403" font-size="8px"></text><text class="label" x="202.90722676453714" y="456.6460905349794" font-size="8px"></text></g><g style="font-size: 13px;"><rect x="150" y="466.3991769547325" width="243.7040388022171" height="12.510288065843621" fill="#4472c4"></rect><rect x="150" y="479.5679012345679" width="244.74022241228914" height="12.510288065843621" fill="#ed7d31"></rect><rect x="150" y="492.73662551440333" width="47.066774546615534" height="12.510288065843621" fill="#a5a5a5"></rect><rect x="150" y="505.9053497942387" width="49.51486452311919" height="12.510288065843621" fill="#ffc000"></rect><text class="label" x="402.2040388022171" y="474.8991769547325" font-size="10px">5.18x</text><text class="label" x="403.24022241228914" y="488.0679012345679" font-size="10px">5.2x</text><text class="label" x="205.56677454661553" y="501.23662551440333" font-size="10px">1x</text><text class="label" x="208.0148645231192" y="514.4053497942386" font-size="10px">1.05x</text><text class="label" x="398.7040388022171" y="476.3991769547325" font-size="8px"></text><text class="label" x="399.74022241228914" y="489.5679012345679" font-size="8px"></text><text class="label" x="202.06677454661553" y="502.73662551440333" font-size="8px"></text><text class="label" x="204.5148645231192" y="515.9053497942386" font-size="8px"></text></g></g></svg>