<svg xmlns="http://www.w3.org/2000/svg" xmlns:xlink="http://www.w3.org/1999/xlink" width="800" height="794" style="background-color: white;"><g class="y axis" transform="translate(149,45)" fill="none" font-size="10" font-family="sans-serif" text-anchor="end" style="font-size: 13px;"><path class="domain" stroke="currentColor" d="M0.5,0.5V600.5"></path><g class="tick" opacity="1" transform="translate(0,40.740740740740726)" style="font-size: 13px;"><line stroke="currentColor" x2="0"></line><text fill="currentColor" x="-3" dy="0.32em">object (simple)    </text></g><g class="tick" opacity="1" transform="translate(0,114.81481481481481)" style="font-size: 13px;"><line stroke="currentColor" x2="0"></line><text fill="currentColor" x="-3" dy="0.32em">object (hierarchical)    </text></g><g class="tick" opacity="1" transform="translate(0,188.88888888888889)" style="font-size: 13px;"><line stroke="currentColor" x2="0"></line><text fill="currentColor" x="-3" dy="0.32em">object (recursive)    </text></g><g class="tick" opacity="1" transform="translate(0,262.96296296296293)" style="font-size: 13px;"><line stroke="currentColor" x2="0"></line><text fill="currentColor" x="-3" dy="0.32em">object (union, explicit)    </text></g><g class="tick" opacity="1" transform="translate(0,337.037037037037)" style="font-size: 13px;"><line stroke="currentColor" x2="0"></line><text fill="currentColor" x="-3" dy="0.32em">array (simple)    </text></g><g class="tick" opacity="1" transform="translate(0,411.1111111111111)" style="font-size: 13px;"><line stroke="currentColor" x2="0"></line><text fill="currentColor" x="-3" dy="0.32em">array (hierarchical)    </text></g><g class="tick" opacity="1" transform="translate(0,485.18518518518516)" style="font-size: 13px;"><line stroke="currentColor" x2="0"></line><text fill="currentColor" x="-3" dy="0.32em">array (recursive)    </text></g><g class="tick" opacity="1" transform="translate(0,559.2592592592592)" style="font-size: 13px;"><line stroke="currentColor" x2="0"></line><text fill="currentColor" x="-3" dy="0.32em">array (union, explicit)    </text></g></g><g class="x axis" transform="translate(149,645)" fill="none" font-size="10" font-family="sans-serif" text-anchor="middle" style="font-size: 13px;"><path class="domain" stroke="currentColor" d="M0.5,0.5H485.5"></path><g class="tick" opacity="1" transform="translate(0.5,0)" style="font-size: 13px;"><line stroke="currentColor" y2="6"></line><text fill="currentColor" y="9" dy="0.71em">0x</text></g><g class="tick" opacity="1" transform="translate(91.61476223519414,0)" style="font-size: 13px;"><line stroke="currentColor" y2="6"></line><text fill="currentColor" y="9" dy="0.71em">2x</text></g><g class="tick" opacity="1" transform="translate(182.72952447038827,0)" style="font-size: 13px;"><line stroke="currentColor" y2="6"></line><text fill="currentColor" y="9" dy="0.71em">4x</text></g><g class="tick" opacity="1" transform="translate(273.84428670558236,0)" style="font-size: 13px;"><line stroke="currentColor" y2="6"></line><text fill="currentColor" y="9" dy="0.71em">6x</text></g><g class="tick" opacity="1" transform="translate(364.95904894077654,0)" style="font-size: 13px;"><line stroke="currentColor" y2="6"></line><text fill="currentColor" y="9" dy="0.71em">8x</text></g><g class="tick" opacity="1" transform="translate(456.0738111759706,0)" style="font-size: 13px;"><line stroke="currentColor" y2="6"></line><text fill="currentColor" y="9" dy="0.71em">10x</text></g></g><text transform="translate(400, 30)" style="text-anchor: middle; font-size: 20px; font-weight: bold;">performance benchmark</text><rect x="650" y="145" width="230" height="5" fill="gray"></rect><rect x="645" y="35" width="230" height="110" fill="none" stroke="black"></rect><rect x="655" y="45" width="10" height="10" style="fill: #4472c4;"></rect><text x="670" y="55" style="font-size: 12px;">nestia-express</text><rect x="655" y="65" width="10" height="10" style="fill: #ed7d31;"></rect><text x="670" y="75" style="font-size: 12px;">nestia-fastify</text><rect x="655" y="85" width="10" height="10" style="fill: #a5a5a5;"></rect><text x="670" y="95" style="font-size: 12px;">fastify</text><rect x="655" y="105" width="10" height="10" style="fill: #ffc000;"></rect><text x="670" y="115" style="font-size: 12px;">NestJS-express</text><rect x="655" y="125" width="10" height="10" style="fill: #5b9bd5;"></rect><text x="670" y="135" style="font-size: 12px;">NestJS-fastify</text><text x="20" y="709" style="font-size: 12px;">  - CPU: AMD Ryzen 9 7940HS w/ Radeon 780M Graphics</text><text x="20" y="726" style="font-size: 12px;">  - OS: win32</text><text x="20" y="743" style="font-size: 12px;">  - RAM: 31 GB</text><text x="20" y="760" style="font-size: 12px;">  - NodeJS version: v20.10.0</text><text x="20" y="777" style="font-size: 12px;">  - nestia version: v3.0.2</text><g style="font-size: 13px;"><g style="font-size: 13px;"><rect x="150" y="53.06747341400805" width="259.18227369788116" height="12.541254125412543" fill="#4472c4"></rect><rect x="150" y="66.26879354602124" width="344.1533163603378" height="12.541254125412543" fill="#ed7d31"></rect><rect x="150" y="79.47011367803445" width="348.0715080350962" height="12.541254125412543" fill="#a5a5a5"></rect><rect x="150" y="92.67143381004766" width="45.55738111759707" height="12.541254125412543" fill="#ffc000"></rect><rect x="150" y="105.87275394206085" width="46.89131337965289" height="12.541254125412543" fill="#5b9bd5"></rect><text class="label" x="417.68227369788116" y="61.56747341400805" font-size="10px">5.69x</text><text class="label" x="502.6533163603378" y="74.76879354602124" font-size="10px">7.55x</text><text class="label" x="506.5715080350962" y="87.97011367803445" font-size="10px">7.64x</text><text class="label" x="204.05738111759706" y="101.17143381004766" font-size="10px">1x</text><text class="label" x="205.3913133796529" y="114.37275394206085" font-size="10px">1.03x</text><text class="label" x="414.18227369788116" y="63.06747341400805" font-size="8px"></text><text class="label" x="499.1533163603378" y="76.26879354602124" font-size="8px"></text><text class="label" x="503.0715080350962" y="89.47011367803445" font-size="8px"></text><text class="label" x="200.55738111759706" y="102.67143381004766" font-size="8px"></text><text class="label" x="201.8913133796529" y="115.87275394206085" font-size="8px"></text></g><g style="font-size: 13px;"><rect x="150" y="127.14154748808213" width="328.1267498049049" height="12.541254125412543" fill="#4472c4"></rect><rect x="150" y="140.34286762009532" width="403.2083886984986" height="12.541254125412543" fill="#ed7d31"></rect><rect x="150" y="153.54418775210854" width="396.97760970305666" height="12.541254125412543" fill="#a5a5a5"></rect><rect x="150" y="166.74550788412174" width="45.55738111759707" height="12.541254125412543" fill="#ffc000"></rect><rect x="150" y="179.94682801613493" width="48.89973878701207" height="12.541254125412543" fill="#5b9bd5"></rect><text class="label" x="486.6267498049049" y="135.64154748808213" font-size="10px">7.2x</text><text class="label" x="561.7083886984985" y="148.84286762009532" font-size="10px">8.85x</text><text class="label" x="555.4776097030567" y="162.04418775210854" font-size="10px">8.71x</text><text class="label" x="204.05738111759706" y="175.24550788412174" font-size="10px">1x</text><text class="label" x="207.39973878701207" y="188.44682801613493" font-size="10px">1.07x</text><text class="label" x="483.1267498049049" y="137.14154748808213" font-size="8px"></text><text class="label" x="558.2083886984985" y="150.34286762009532" font-size="8px"></text><text class="label" x="551.9776097030567" y="163.54418775210854" font-size="8px"></text><text class="label" x="200.55738111759706" y="176.74550788412174" font-size="8px"></text><text class="label" x="203.89973878701207" y="189.94682801613493" font-size="8px"></text></g><g style="font-size: 13px;"><rect x="150" y="201.2156215621562" width="379.32603900374295" height="12.541254125412543" fill="#4472c4"></rect><rect x="150" y="214.4169416941694" width="423.64543758574024" height="12.541254125412543" fill="#ed7d31"></rect><rect x="150" y="227.61826182618262" width="440.9090909090909" height="12.541254125412543" fill="#a5a5a5"></rect><rect x="150" y="240.8195819581958" width="47.834302686375985" height="12.541254125412543" fill="#ffc000"></rect><rect x="150" y="254.020902090209" width="45.55738111759707" height="12.541254125412543" fill="#5b9bd5"></rect><text class="label" x="537.826039003743" y="209.7156215621562" font-size="10px">8.33x</text><text class="label" x="582.1454375857402" y="222.9169416941694" font-size="10px">9.3x</text><text class="label" x="599.4090909090909" y="236.11826182618262" font-size="10px">9.68x</text><text class="label" x="206.334302686376" y="249.3195819581958" font-size="10px">1.05x</text><text class="label" x="204.05738111759706" y="262.520902090209" font-size="10px">1x</text><text class="label" x="534.326039003743" y="211.2156215621562" font-size="8px"></text><text class="label" x="578.6454375857402" y="224.4169416941694" font-size="8px"></text><text class="label" x="595.9090909090909" y="237.61826182618262" font-size="8px"></text><text class="label" x="202.834302686376" y="250.8195819581958" font-size="8px"></text><text class="label" x="200.55738111759706" y="264.020902090209" font-size="8px"></text></g><g style="font-size: 13px;"><rect x="150" y="275.28969563623025" width="352.0205090137618" height="12.541254125412543" fill="#4472c4"></rect><rect x="150" y="288.49101576824347" width="415.6878931683907" height="12.541254125412543" fill="#ed7d31"></rect><rect x="150" y="301.6923359002567" width="269.63574966190674" height="12.541254125412543" fill="#a5a5a5"></rect><rect x="150" y="314.89365603226986" width="45.55738111759707" height="12.541254125412543" fill="#ffc000"></rect><rect x="150" y="328.0949761642831" width="46.915137294797454" height="12.541254125412543" fill="#5b9bd5"></rect><text class="label" x="510.5205090137618" y="283.78969563623025" font-size="10px">7.73x</text><text class="label" x="574.1878931683907" y="296.99101576824347" font-size="10px">9.12x</text><text class="label" x="428.13574966190674" y="310.1923359002567" font-size="10px">5.92x</text><text class="label" x="204.05738111759706" y="323.39365603226986" font-size="10px">1x</text><text class="label" x="205.41513729479746" y="336.5949761642831" font-size="10px">1.03x</text><text class="label" x="507.0205090137618" y="285.28969563623025" font-size="8px"></text><text class="label" x="570.6878931683907" y="298.49101576824347" font-size="8px"></text><text class="label" x="424.63574966190674" y="311.6923359002567" font-size="8px"></text><text class="label" x="200.55738111759706" y="324.89365603226986" font-size="8px"></text><text class="label" x="201.91513729479746" y="338.0949761642831" font-size="8px"></text></g><g style="font-size: 13px;"><rect x="150" y="349.3637697103044" width="251.32075756131283" height="12.541254125412543" fill="#4472c4"></rect><rect x="150" y="362.56508984231755" width="256.13671894931696" height="12.541254125412543" fill="#ed7d31"></rect><rect x="150" y="375.76640997433077" width="266.93054949750734" height="12.541254125412543" fill="#a5a5a5"></rect><rect x="150" y="388.967730106344" width="45.55738111759707" height="12.541254125412543" fill="#ffc000"></rect><rect x="150" y="402.16905023835716" width="49.57491011526858" height="12.541254125412543" fill="#5b9bd5"></rect><text class="label" x="409.8207575613128" y="357.8637697103044" font-size="10px">5.52x</text><text class="label" x="414.63671894931696" y="371.06508984231755" font-size="10px">5.62x</text><text class="label" x="425.43054949750734" y="384.26640997433077" font-size="10px">5.86x</text><text class="label" x="204.05738111759706" y="397.467730106344" font-size="10px">1x</text><text class="label" x="208.07491011526858" y="410.66905023835716" font-size="10px">1.09x</text><text class="label" x="406.3207575613128" y="359.3637697103044" font-size="8px"></text><text class="label" x="411.13671894931696" y="372.56508984231755" font-size="8px"></text><text class="label" x="421.93054949750734" y="385.76640997433077" font-size="8px"></text><text class="label" x="200.55738111759706" y="398.967730106344" font-size="8px"></text><text class="label" x="204.57491011526858" y="412.16905023835716" font-size="8px"></text></g><g style="font-size: 13px;"><rect x="150" y="423.4378437843784" width="254.69290076671987" height="12.541254125412543" fill="#4472c4"></rect><rect x="150" y="436.6391639163916" width="323.6221804618825" height="12.541254125412543" fill="#ed7d31"></rect><rect x="150" y="449.84048404840485" width="194.9652221899291" height="12.541254125412543" fill="#a5a5a5"></rect><rect x="150" y="463.041804180418" width="45.55738111759707" height="12.541254125412543" fill="#ffc000"></rect><rect x="150" y="476.24312431243123" width="48.44223808827835" height="12.541254125412543" fill="#5b9bd5"></rect><text class="label" x="413.19290076671984" y="431.9378437843784" font-size="10px">5.59x</text><text class="label" x="482.1221804618825" y="445.1391639163916" font-size="10px">7.1x</text><text class="label" x="353.46522218992914" y="458.34048404840485" font-size="10px">4.28x</text><text class="label" x="204.05738111759706" y="471.541804180418" font-size="10px">1x</text><text class="label" x="206.94223808827834" y="484.74312431243123" font-size="10px">1.06x</text><text class="label" x="409.69290076671984" y="433.4378437843784" font-size="8px"></text><text class="label" x="478.6221804618825" y="446.6391639163916" font-size="8px"></text><text class="label" x="349.96522218992914" y="459.84048404840485" font-size="8px"></text><text class="label" x="200.55738111759706" y="473.041804180418" font-size="8px"></text><text class="label" x="203.44223808827834" y="486.24312431243123" font-size="8px"></text></g><g style="font-size: 13px;"><rect x="150" y="497.51191785845253" width="390.52898720205155" height="12.541254125412543" fill="#4472c4"></rect><rect x="150" y="510.7132379904657" width="409.5116604249384" height="12.541254125412543" fill="#ed7d31"></rect><rect x="150" y="523.9145581224789" width="364.5788082567057" height="12.541254125412543" fill="#a5a5a5"></rect><rect x="150" y="537.1158782544921" width="46.287896454510175" height="12.541254125412543" fill="#ffc000"></rect><rect x="150" y="550.3171983865053" width="45.55738111759707" height="12.541254125412543" fill="#5b9bd5"></rect><text class="label" x="549.0289872020516" y="506.01191785845253" font-size="10px">8.57x</text><text class="label" x="568.0116604249383" y="519.2132379904657" font-size="10px">8.99x</text><text class="label" x="523.0788082567058" y="532.4145581224789" font-size="10px">8x</text><text class="label" x="204.7878964545102" y="545.6158782544921" font-size="10px">1.02x</text><text class="label" x="204.05738111759706" y="558.8171983865053" font-size="10px">1x</text><text class="label" x="545.5289872020516" y="507.51191785845253" font-size="8px"></text><text class="label" x="564.5116604249383" y="520.7132379904657" font-size="8px"></text><text class="label" x="519.5788082567058" y="533.9145581224789" font-size="8px"></text><text class="label" x="201.2878964545102" y="547.1158782544921" font-size="8px"></text><text class="label" x="200.55738111759706" y="560.3171983865053" font-size="8px"></text></g><g style="font-size: 13px;"><rect x="150" y="571.5859919325266" width="230.66430872444158" height="12.541254125412543" fill="#4472c4"></rect><rect x="150" y="584.7873120645397" width="220.96033220836398" height="12.541254125412543" fill="#ed7d31"></rect><rect x="150" y="597.9886321965529" width="83.56376833415801" height="12.541254125412543" fill="#a5a5a5"></rect><rect x="150" y="611.1899523285662" width="45.55738111759707" height="12.541254125412543" fill="#ffc000"></rect><rect x="150" y="624.3912724605793" width="46.31996012903849" height="12.541254125412543" fill="#5b9bd5"></rect><text class="label" x="389.1643087244416" y="580.0859919325266" font-size="10px">5.06x</text><text class="label" x="379.460332208364" y="593.2873120645397" font-size="10px">4.85x</text><text class="label" x="242.063768334158" y="606.4886321965529" font-size="10px">1.83x</text><text class="label" x="204.05738111759706" y="619.6899523285662" font-size="10px">1x</text><text class="label" x="204.8199601290385" y="632.8912724605793" font-size="10px">1.02x</text><text class="label" x="385.6643087244416" y="581.5859919325266" font-size="8px"></text><text class="label" x="375.960332208364" y="594.7873120645397" font-size="8px"></text><text class="label" x="238.563768334158" y="607.9886321965529" font-size="8px"></text><text class="label" x="200.55738111759706" y="621.1899523285662" font-size="8px"></text><text class="label" x="201.3199601290385" y="634.3912724605793" font-size="8px"></text></g></g></svg>