<svg xmlns="http://www.w3.org/2000/svg" xmlns:xlink="http://www.w3.org/1999/xlink" width="800" height="794" style="background-color: white;"><g class="y axis" transform="translate(149,45)" fill="none" font-size="10" font-family="sans-serif" text-anchor="end" style="font-size: 13px;"><path class="domain" stroke="currentColor" d="M0.5,0.5V600.5"></path><g class="tick" opacity="1" transform="translate(0,40.740740740740726)" style="font-size: 13px;"><line stroke="currentColor" x2="0"></line><text fill="currentColor" x="-3" dy="0.32em">object (simple)    </text></g><g class="tick" opacity="1" transform="translate(0,114.81481481481481)" style="font-size: 13px;"><line stroke="currentColor" x2="0"></line><text fill="currentColor" x="-3" dy="0.32em">object (hierarchical)    </text></g><g class="tick" opacity="1" transform="translate(0,188.88888888888889)" style="font-size: 13px;"><line stroke="currentColor" x2="0"></line><text fill="currentColor" x="-3" dy="0.32em">object (recursive)    </text></g><g class="tick" opacity="1" transform="translate(0,262.96296296296293)" style="font-size: 13px;"><line stroke="currentColor" x2="0"></line><text fill="currentColor" x="-3" dy="0.32em">object (union, explicit)    </text></g><g class="tick" opacity="1" transform="translate(0,337.037037037037)" style="font-size: 13px;"><line stroke="currentColor" x2="0"></line><text fill="currentColor" x="-3" dy="0.32em">array (simple)    </text></g><g class="tick" opacity="1" transform="translate(0,411.1111111111111)" style="font-size: 13px;"><line stroke="currentColor" x2="0"></line><text fill="currentColor" x="-3" dy="0.32em">array (hierarchical)    </text></g><g class="tick" opacity="1" transform="translate(0,485.18518518518516)" style="font-size: 13px;"><line stroke="currentColor" x2="0"></line><text fill="currentColor" x="-3" dy="0.32em">array (recursive)    </text></g><g class="tick" opacity="1" transform="translate(0,559.2592592592592)" style="font-size: 13px;"><line stroke="currentColor" x2="0"></line><text fill="currentColor" x="-3" dy="0.32em">array (union, explicit)    </text></g></g><g class="x axis" transform="translate(149,645)" fill="none" font-size="10" font-family="sans-serif" text-anchor="middle" style="font-size: 13px;"><path class="domain" stroke="currentColor" d="M0.5,0.5H485.5"></path><g class="tick" opacity="1" transform="translate(0.5,0)" style="font-size: 13px;"><line stroke="currentColor" y2="6"></line><text fill="currentColor" y="9" dy="0.71em">0x</text></g><g class="tick" opacity="1" transform="translate(89.13281984035636,0)" style="font-size: 13px;"><line stroke="currentColor" y2="6"></line><text fill="currentColor" y="9" dy="0.71em">2x</text></g><g class="tick" opacity="1" transform="translate(177.76563968071272,0)" style="font-size: 13px;"><line stroke="currentColor" y2="6"></line><text fill="currentColor" y="9" dy="0.71em">4x</text></g><g class="tick" opacity="1" transform="translate(266.39845952106907,0)" style="font-size: 13px;"><line stroke="currentColor" y2="6"></line><text fill="currentColor" y="9" dy="0.71em">6x</text></g><g class="tick" opacity="1" transform="translate(355.03127936142545,0)" style="font-size: 13px;"><line stroke="currentColor" y2="6"></line><text fill="currentColor" y="9" dy="0.71em">8x</text></g><g class="tick" opacity="1" transform="translate(443.6640992017818,0)" style="font-size: 13px;"><line stroke="currentColor" y2="6"></line><text fill="currentColor" y="9" dy="0.71em">10x</text></g></g><text transform="translate(400, 30)" style="text-anchor: middle; font-size: 20px; font-weight: bold;">performance benchmark</text><rect x="650" y="145" width="230" height="5" fill="gray"></rect><rect x="645" y="35" width="230" height="110" fill="none" stroke="black"></rect><rect x="655" y="45" width="10" height="10" style="fill: #4472c4;"></rect><text x="670" y="55" style="font-size: 12px;">nestia-express</text><rect x="655" y="65" width="10" height="10" style="fill: #ed7d31;"></rect><text x="670" y="75" style="font-size: 12px;">nestia-fastify</text><rect x="655" y="85" width="10" height="10" style="fill: #a5a5a5;"></rect><text x="670" y="95" style="font-size: 12px;">fastify</text><rect x="655" y="105" width="10" height="10" style="fill: #ffc000;"></rect><text x="670" y="115" style="font-size: 12px;">NestJS-express</text><rect x="655" y="125" width="10" height="10" style="fill: #5b9bd5;"></rect><text x="670" y="135" style="font-size: 12px;">NestJS-fastify</text><text x="20" y="709" style="font-size: 12px;">  - CPU: AMD Ryzen 9 7940HS w/ Radeon 780M Graphics</text><text x="20" y="726" style="font-size: 12px;">  - OS: win32</text><text x="20" y="743" style="font-size: 12px;">  - RAM: 31 GB</text><text x="20" y="760" style="font-size: 12px;">  - NodeJS version: v20.10.0</text><text x="20" y="777" style="font-size: 12px;">  - nestia version: v3.0.2</text><g style="font-size: 13px;"><g style="font-size: 13px;"><rect x="150" y="53.06747341400805" width="260.3022795909066" height="12.541254125412543" fill="#4472c4"></rect><rect x="150" y="66.26879354602124" width="357.99690811329845" height="12.541254125412543" fill="#ed7d31"></rect><rect x="150" y="79.47011367803445" width="348.90189563739585" height="12.541254125412543" fill="#a5a5a5"></rect><rect x="150" y="92.67143381004766" width="44.31640992017818" height="12.541254125412543" fill="#ffc000"></rect><rect x="150" y="105.87275394206085" width="49.50144821810452" height="12.541254125412543" fill="#5b9bd5"></rect><text class="label" x="418.8022795909066" y="61.56747341400805" font-size="10px">5.87x</text><text class="label" x="516.4969081132984" y="74.76879354602124" font-size="10px">8.08x</text><text class="label" x="507.40189563739585" y="87.97011367803445" font-size="10px">7.87x</text><text class="label" x="202.8164099201782" y="101.17143381004766" font-size="10px">1x</text><text class="label" x="208.0014482181045" y="114.37275394206085" font-size="10px">1.12x</text><text class="label" x="415.3022795909066" y="63.06747341400805" font-size="8px"></text><text class="label" x="512.9969081132984" y="76.26879354602124" font-size="8px"></text><text class="label" x="503.90189563739585" y="89.47011367803445" font-size="8px"></text><text class="label" x="199.3164099201782" y="102.67143381004766" font-size="8px"></text><text class="label" x="204.5014482181045" y="115.87275394206085" font-size="8px"></text></g><g style="font-size: 13px;"><rect x="150" y="127.14154748808213" width="334.3223323826111" height="12.541254125412543" fill="#4472c4"></rect><rect x="150" y="140.34286762009532" width="385.22626320249515" height="12.541254125412543" fill="#ed7d31"></rect><rect x="150" y="153.54418775210854" width="383.72742816874035" height="12.541254125412543" fill="#a5a5a5"></rect><rect x="150" y="166.74550788412174" width="44.31640992017818" height="12.541254125412543" fill="#ffc000"></rect><rect x="150" y="179.94682801613493" width="48.16453579625666" height="12.541254125412543" fill="#5b9bd5"></rect><text class="label" x="492.8223323826111" y="135.64154748808213" font-size="10px">7.54x</text><text class="label" x="543.7262632024951" y="148.84286762009532" font-size="10px">8.69x</text><text class="label" x="542.2274281687403" y="162.04418775210854" font-size="10px">8.66x</text><text class="label" x="202.8164099201782" y="175.24550788412174" font-size="10px">1x</text><text class="label" x="206.66453579625664" y="188.44682801613493" font-size="10px">1.09x</text><text class="label" x="489.3223323826111" y="137.14154748808213" font-size="8px"></text><text class="label" x="540.2262632024951" y="150.34286762009532" font-size="8px"></text><text class="label" x="538.7274281687403" y="163.54418775210854" font-size="8px"></text><text class="label" x="199.3164099201782" y="176.74550788412174" font-size="8px"></text><text class="label" x="203.16453579625664" y="189.94682801613493" font-size="8px"></text></g><g style="font-size: 13px;"><rect x="150" y="201.2156215621562" width="376.1713402865061" height="12.541254125412543" fill="#4472c4"></rect><rect x="150" y="214.4169416941694" width="399.86137476791606" height="12.541254125412543" fill="#ed7d31"></rect><rect x="150" y="227.61826182618262" width="392.99521621177024" height="12.541254125412543" fill="#a5a5a5"></rect><rect x="150" y="240.8195819581958" width="44.31640992017818" height="12.541254125412543" fill="#ffc000"></rect><rect x="150" y="254.020902090209" width="46.47802325379791" height="12.541254125412543" fill="#5b9bd5"></rect><text class="label" x="534.6713402865062" y="209.7156215621562" font-size="10px">8.49x</text><text class="label" x="558.361374767916" y="222.9169416941694" font-size="10px">9.02x</text><text class="label" x="551.4952162117702" y="236.11826182618262" font-size="10px">8.87x</text><text class="label" x="202.8164099201782" y="249.3195819581958" font-size="10px">1x</text><text class="label" x="204.97802325379791" y="262.520902090209" font-size="10px">1.05x</text><text class="label" x="531.1713402865062" y="211.2156215621562" font-size="8px"></text><text class="label" x="554.861374767916" y="224.4169416941694" font-size="8px"></text><text class="label" x="547.9952162117702" y="237.61826182618262" font-size="8px"></text><text class="label" x="199.3164099201782" y="250.8195819581958" font-size="8px"></text><text class="label" x="201.47802325379791" y="264.020902090209" font-size="8px"></text></g><g style="font-size: 13px;"><rect x="150" y="275.28969563623025" width="400.87776239112003" height="12.541254125412543" fill="#4472c4"></rect><rect x="150" y="288.49101576824347" width="440.9090909090908" height="12.541254125412543" fill="#ed7d31"></rect><rect x="150" y="301.6923359002567" width="286.08645086344757" height="12.541254125412543" fill="#a5a5a5"></rect><rect x="150" y="314.89365603226986" width="44.31640992017818" height="12.541254125412543" fill="#ffc000"></rect><rect x="150" y="328.0949761642831" width="47.11379342199903" height="12.541254125412543" fill="#5b9bd5"></rect><text class="label" x="559.3777623911201" y="283.78969563623025" font-size="10px">9.05x</text><text class="label" x="599.4090909090908" y="296.99101576824347" font-size="10px">9.95x</text><text class="label" x="444.58645086344757" y="310.1923359002567" font-size="10px">6.46x</text><text class="label" x="202.8164099201782" y="323.39365603226986" font-size="10px">1x</text><text class="label" x="205.61379342199902" y="336.5949761642831" font-size="10px">1.06x</text><text class="label" x="555.8777623911201" y="285.28969563623025" font-size="8px"></text><text class="label" x="595.9090909090908" y="298.49101576824347" font-size="8px"></text><text class="label" x="441.08645086344757" y="311.6923359002567" font-size="8px"></text><text class="label" x="199.3164099201782" y="324.89365603226986" font-size="8px"></text><text class="label" x="202.11379342199902" y="338.0949761642831" font-size="8px"></text></g><g style="font-size: 13px;"><rect x="150" y="349.3637697103044" width="245.59159081906415" height="12.541254125412543" fill="#4472c4"></rect><rect x="150" y="362.56508984231755" width="261.8884472482116" height="12.541254125412543" fill="#ed7d31"></rect><rect x="150" y="375.76640997433077" width="251.252356283204" height="12.541254125412543" fill="#a5a5a5"></rect><rect x="150" y="388.967730106344" width="44.31640992017818" height="12.541254125412543" fill="#ffc000"></rect><rect x="150" y="402.16905023835716" width="47.20450357907899" height="12.541254125412543" fill="#5b9bd5"></rect><text class="label" x="404.09159081906415" y="357.8637697103044" font-size="10px">5.54x</text><text class="label" x="420.3884472482116" y="371.06508984231755" font-size="10px">5.91x</text><text class="label" x="409.752356283204" y="384.26640997433077" font-size="10px">5.67x</text><text class="label" x="202.8164099201782" y="397.467730106344" font-size="10px">1x</text><text class="label" x="205.704503579079" y="410.66905023835716" font-size="10px">1.07x</text><text class="label" x="400.59159081906415" y="359.3637697103044" font-size="8px"></text><text class="label" x="416.8884472482116" y="372.56508984231755" font-size="8px"></text><text class="label" x="406.252356283204" y="385.76640997433077" font-size="8px"></text><text class="label" x="199.3164099201782" y="398.967730106344" font-size="8px"></text><text class="label" x="202.204503579079" y="412.16905023835716" font-size="8px"></text></g><g style="font-size: 13px;"><rect x="150" y="423.4378437843784" width="396.6591525236869" height="12.541254125412543" fill="#4472c4"></rect><rect x="150" y="436.6391639163916" width="392.2680576999586" height="12.541254125412543" fill="#ed7d31"></rect><rect x="150" y="449.84048404840485" width="352.95557464247366" height="12.541254125412543" fill="#a5a5a5"></rect><rect x="150" y="463.041804180418" width="44.31640992017818" height="12.541254125412543" fill="#ffc000"></rect><rect x="150" y="476.24312431243123" width="55.91435639457918" height="12.541254125412543" fill="#5b9bd5"></rect><text class="label" x="555.1591525236869" y="431.9378437843784" font-size="10px">8.95x</text><text class="label" x="550.7680576999586" y="445.1391639163916" font-size="10px">8.85x</text><text class="label" x="511.45557464247366" y="458.34048404840485" font-size="10px">7.96x</text><text class="label" x="202.8164099201782" y="471.541804180418" font-size="10px">1x</text><text class="label" x="214.4143563945792" y="484.74312431243123" font-size="10px">1.26x</text><text class="label" x="551.6591525236869" y="433.4378437843784" font-size="8px"></text><text class="label" x="547.2680576999586" y="446.6391639163916" font-size="8px"></text><text class="label" x="507.95557464247366" y="459.84048404840485" font-size="8px"></text><text class="label" x="199.3164099201782" y="473.041804180418" font-size="8px"></text><text class="label" x="210.9143563945792" y="486.24312431243123" font-size="8px"></text></g><g style="font-size: 13px;"><rect x="150" y="497.51191785845253" width="376.19302430745535" height="12.541254125412543" fill="#4472c4"></rect><rect x="150" y="510.7132379904657" width="384.8773810734201" height="12.541254125412543" fill="#ed7d31"></rect><rect x="150" y="523.9145581224789" width="364.68173547076066" height="12.541254125412543" fill="#a5a5a5"></rect><rect x="150" y="537.1158782544921" width="44.383833158925086" height="12.541254125412543" fill="#ffc000"></rect><rect x="150" y="550.3171983865053" width="44.31640992017818" height="12.541254125412543" fill="#5b9bd5"></rect><text class="label" x="534.6930243074553" y="506.01191785845253" font-size="10px">8.49x</text><text class="label" x="543.3773810734201" y="519.2132379904657" font-size="10px">8.68x</text><text class="label" x="523.1817354707607" y="532.4145581224789" font-size="10px">8.23x</text><text class="label" x="202.88383315892509" y="545.6158782544921" font-size="10px">1x</text><text class="label" x="202.8164099201782" y="558.8171983865053" font-size="10px">1x</text><text class="label" x="531.1930243074553" y="507.51191785845253" font-size="8px"></text><text class="label" x="539.8773810734201" y="520.7132379904657" font-size="8px"></text><text class="label" x="519.6817354707607" y="533.9145581224789" font-size="8px"></text><text class="label" x="199.38383315892509" y="547.1158782544921" font-size="8px"></text><text class="label" x="199.3164099201782" y="560.3171983865053" font-size="8px"></text></g><g style="font-size: 13px;"><rect x="150" y="571.5859919325266" width="221.25811638996873" height="12.541254125412543" fill="#4472c4"></rect><rect x="150" y="584.7873120645397" width="222.48639648055018" height="12.541254125412543" fill="#ed7d31"></rect><rect x="150" y="597.9886321965529" width="85.20390609848799" height="12.541254125412543" fill="#a5a5a5"></rect><rect x="150" y="611.1899523285662" width="44.31640992017818" height="12.541254125412543" fill="#ffc000"></rect><rect x="150" y="624.3912724605793" width="45.774973844247576" height="12.541254125412543" fill="#5b9bd5"></rect><text class="label" x="379.75811638996873" y="580.0859919325266" font-size="10px">4.99x</text><text class="label" x="380.9863964805502" y="593.2873120645397" font-size="10px">5.02x</text><text class="label" x="243.703906098488" y="606.4886321965529" font-size="10px">1.92x</text><text class="label" x="202.8164099201782" y="619.6899523285662" font-size="10px">1x</text><text class="label" x="204.27497384424757" y="632.8912724605793" font-size="10px">1.03x</text><text class="label" x="376.25811638996873" y="581.5859919325266" font-size="8px"></text><text class="label" x="377.4863964805502" y="594.7873120645397" font-size="8px"></text><text class="label" x="240.203906098488" y="607.9886321965529" font-size="8px"></text><text class="label" x="199.3164099201782" y="621.1899523285662" font-size="8px"></text><text class="label" x="200.77497384424757" y="634.3912724605793" font-size="8px"></text></g></g></svg>