<svg xmlns="http://www.w3.org/2000/svg" xmlns:xlink="http://www.w3.org/1999/xlink" width="800" height="794" style="background-color: white;"><g class="y axis" transform="translate(149,45)" fill="none" font-size="10" font-family="sans-serif" text-anchor="end" style="font-size: 13px;"><path class="domain" stroke="currentColor" d="M0.5,0.5V600.5"></path><g class="tick" opacity="1" transform="translate(0,40.740740740740726)" style="font-size: 13px;"><line stroke="currentColor" x2="0"></line><text fill="currentColor" x="-3" dy="0.32em">object (simple)    </text></g><g class="tick" opacity="1" transform="translate(0,114.81481481481481)" style="font-size: 13px;"><line stroke="currentColor" x2="0"></line><text fill="currentColor" x="-3" dy="0.32em">object (hierarchical)    </text></g><g class="tick" opacity="1" transform="translate(0,188.88888888888889)" style="font-size: 13px;"><line stroke="currentColor" x2="0"></line><text fill="currentColor" x="-3" dy="0.32em">object (recursive)    </text></g><g class="tick" opacity="1" transform="translate(0,262.96296296296293)" style="font-size: 13px;"><line stroke="currentColor" x2="0"></line><text fill="currentColor" x="-3" dy="0.32em">object (union, explicit)    </text></g><g class="tick" opacity="1" transform="translate(0,337.037037037037)" style="font-size: 13px;"><line stroke="currentColor" x2="0"></line><text fill="currentColor" x="-3" dy="0.32em">array (simple)    </text></g><g class="tick" opacity="1" transform="translate(0,411.1111111111111)" style="font-size: 13px;"><line stroke="currentColor" x2="0"></line><text fill="currentColor" x="-3" dy="0.32em">array (hierarchical)    </text></g><g class="tick" opacity="1" transform="translate(0,485.18518518518516)" style="font-size: 13px;"><line stroke="currentColor" x2="0"></line><text fill="currentColor" x="-3" dy="0.32em">array (recursive)    </text></g><g class="tick" opacity="1" transform="translate(0,559.2592592592592)" style="font-size: 13px;"><line stroke="currentColor" x2="0"></line><text fill="currentColor" x="-3" dy="0.32em">array (union, explicit)    </text></g></g><g class="x axis" transform="translate(149,645)" fill="none" font-size="10" font-family="sans-serif" text-anchor="middle" style="font-size: 13px;"><path class="domain" stroke="currentColor" d="M0.5,0.5H485.5"></path><g class="tick" opacity="1" transform="translate(0.5,0)" style="font-size: 13px;"><line stroke="currentColor" y2="6"></line><text fill="currentColor" y="9" dy="0.71em">0x</text></g><g class="tick" opacity="1" transform="translate(90.25644223548922,0)" style="font-size: 13px;"><line stroke="currentColor" y2="6"></line><text fill="currentColor" y="9" dy="0.71em">2x</text></g><g class="tick" opacity="1" transform="translate(180.01288447097843,0)" style="font-size: 13px;"><line stroke="currentColor" y2="6"></line><text fill="currentColor" y="9" dy="0.71em">4x</text></g><g class="tick" opacity="1" transform="translate(269.7693267064676,0)" style="font-size: 13px;"><line stroke="currentColor" y2="6"></line><text fill="currentColor" y="9" dy="0.71em">6x</text></g><g class="tick" opacity="1" transform="translate(359.52576894195687,0)" style="font-size: 13px;"><line stroke="currentColor" y2="6"></line><text fill="currentColor" y="9" dy="0.71em">8x</text></g><g class="tick" opacity="1" transform="translate(449.2822111774461,0)" style="font-size: 13px;"><line stroke="currentColor" y2="6"></line><text fill="currentColor" y="9" dy="0.71em">10x</text></g></g><text transform="translate(400, 30)" style="text-anchor: middle; font-size: 20px; font-weight: bold;">performance benchmark</text><rect x="650" y="145" width="230" height="5" fill="gray"></rect><rect x="645" y="35" width="230" height="110" fill="none" stroke="black"></rect><rect x="655" y="45" width="10" height="10" style="fill: #4472c4;"></rect><text x="670" y="55" style="font-size: 12px;">nestia-express</text><rect x="655" y="65" width="10" height="10" style="fill: #ed7d31;"></rect><text x="670" y="75" style="font-size: 12px;">nestia-fastify</text><rect x="655" y="85" width="10" height="10" style="fill: #a5a5a5;"></rect><text x="670" y="95" style="font-size: 12px;">fastify</text><rect x="655" y="105" width="10" height="10" style="fill: #ffc000;"></rect><text x="670" y="115" style="font-size: 12px;">NestJS-express</text><rect x="655" y="125" width="10" height="10" style="fill: #5b9bd5;"></rect><text x="670" y="135" style="font-size: 12px;">NestJS-fastify</text><text x="20" y="709" style="font-size: 12px;">  - CPU: AMD Ryzen 9 7940HS w/ Radeon 780M Graphics</text><text x="20" y="726" style="font-size: 12px;">  - OS: win32</text><text x="20" y="743" style="font-size: 12px;">  - RAM: 31 GB</text><text x="20" y="760" style="font-size: 12px;">  - NodeJS version: v20.10.0</text><text x="20" y="777" style="font-size: 12px;">  - nestia version: v2.4.3</text><g style="font-size: 13px;"><g style="font-size: 13px;"><rect x="150" y="53.06747341400805" width="251.8813137146273" height="12.541254125412543" fill="#4472c4"></rect><rect x="150" y="66.26879354602124" width="361.29522014073103" height="12.541254125412543" fill="#ed7d31"></rect><rect x="150" y="79.47011367803445" width="356.4344935003564" height="12.541254125412543" fill="#a5a5a5"></rect><rect x="150" y="92.67143381004766" width="44.87822111774461" height="12.541254125412543" fill="#ffc000"></rect><rect x="150" y="105.87275394206085" width="47.3290252303553" height="12.541254125412543" fill="#5b9bd5"></rect><text class="label" x="410.3813137146273" y="61.56747341400805" font-size="10px">5.61x</text><text class="label" x="519.7952201407311" y="74.76879354602124" font-size="10px">8.05x</text><text class="label" x="514.9344935003564" y="87.97011367803445" font-size="10px">7.94x</text><text class="label" x="203.3782211177446" y="101.17143381004766" font-size="10px">1x</text><text class="label" x="205.82902523035528" y="114.37275394206085" font-size="10px">1.05x</text><text class="label" x="406.8813137146273" y="63.06747341400805" font-size="8px"></text><text class="label" x="516.2952201407311" y="76.26879354602124" font-size="8px"></text><text class="label" x="511.4344935003564" y="89.47011367803445" font-size="8px"></text><text class="label" x="199.8782211177446" y="102.67143381004766" font-size="8px"></text><text class="label" x="202.32902523035528" y="115.87275394206085" font-size="8px"></text></g><g style="font-size: 13px;"><rect x="150" y="127.14154748808213" width="336.2596623361978" height="12.541254125412543" fill="#4472c4"></rect><rect x="150" y="140.34286762009532" width="388.13566744354114" height="12.541254125412543" fill="#ed7d31"></rect><rect x="150" y="153.54418775210854" width="351.9450793688626" height="12.541254125412543" fill="#a5a5a5"></rect><rect x="150" y="166.74550788412174" width="44.87822111774461" height="12.541254125412543" fill="#ffc000"></rect><rect x="150" y="179.94682801613493" width="46.21642739370396" height="12.541254125412543" fill="#5b9bd5"></rect><text class="label" x="494.7596623361978" y="135.64154748808213" font-size="10px">7.49x</text><text class="label" x="546.6356674435411" y="148.84286762009532" font-size="10px">8.65x</text><text class="label" x="510.4450793688626" y="162.04418775210854" font-size="10px">7.84x</text><text class="label" x="203.3782211177446" y="175.24550788412174" font-size="10px">1x</text><text class="label" x="204.71642739370395" y="188.44682801613493" font-size="10px">1.03x</text><text class="label" x="491.2596623361978" y="137.14154748808213" font-size="8px"></text><text class="label" x="543.1356674435411" y="150.34286762009532" font-size="8px"></text><text class="label" x="506.9450793688626" y="163.54418775210854" font-size="8px"></text><text class="label" x="199.8782211177446" y="176.74550788412174" font-size="8px"></text><text class="label" x="201.21642739370395" y="189.94682801613493" font-size="8px"></text></g><g style="font-size: 13px;"><rect x="150" y="201.2156215621562" width="362.95663250692746" height="12.541254125412543" fill="#4472c4"></rect><rect x="150" y="214.4169416941694" width="405.13192924913767" height="12.541254125412543" fill="#ed7d31"></rect><rect x="150" y="227.61826182618262" width="283.0078724193624" height="12.541254125412543" fill="#a5a5a5"></rect><rect x="150" y="240.8195819581958" width="44.9181503656986" height="12.541254125412543" fill="#ffc000"></rect><rect x="150" y="254.020902090209" width="44.87822111774461" height="12.541254125412543" fill="#5b9bd5"></rect><text class="label" x="521.4566325069275" y="209.7156215621562" font-size="10px">8.09x</text><text class="label" x="563.6319292491377" y="222.9169416941694" font-size="10px">9.03x</text><text class="label" x="441.5078724193624" y="236.11826182618262" font-size="10px">6.31x</text><text class="label" x="203.4181503656986" y="249.3195819581958" font-size="10px">1x</text><text class="label" x="203.3782211177446" y="262.520902090209" font-size="10px">1x</text><text class="label" x="517.9566325069275" y="211.2156215621562" font-size="8px"></text><text class="label" x="560.1319292491377" y="224.4169416941694" font-size="8px"></text><text class="label" x="438.0078724193624" y="237.61826182618262" font-size="8px"></text><text class="label" x="199.9181503656986" y="250.8195819581958" font-size="8px"></text><text class="label" x="199.8782211177446" y="264.020902090209" font-size="8px"></text></g><g style="font-size: 13px;"><rect x="150" y="275.28969563623025" width="401.28128536231117" height="12.541254125412543" fill="#4472c4"></rect><rect x="150" y="288.49101576824347" width="440.9090909090909" height="12.541254125412543" fill="#ed7d31"></rect><rect x="150" y="301.6923359002567" width="290.5523823598287" height="12.541254125412543" fill="#a5a5a5"></rect><rect x="150" y="314.89365603226986" width="44.87822111774461" height="12.541254125412543" fill="#ffc000"></rect><rect x="150" y="328.0949761642831" width="48.983703454052076" height="12.541254125412543" fill="#5b9bd5"></rect><text class="label" x="559.7812853623111" y="283.78969563623025" font-size="10px">8.94x</text><text class="label" x="599.4090909090909" y="296.99101576824347" font-size="10px">9.82x</text><text class="label" x="449.0523823598287" y="310.1923359002567" font-size="10px">6.47x</text><text class="label" x="203.3782211177446" y="323.39365603226986" font-size="10px">1x</text><text class="label" x="207.4837034540521" y="336.5949761642831" font-size="10px">1.09x</text><text class="label" x="556.2812853623111" y="285.28969563623025" font-size="8px"></text><text class="label" x="595.9090909090909" y="298.49101576824347" font-size="8px"></text><text class="label" x="445.5523823598287" y="311.6923359002567" font-size="8px"></text><text class="label" x="199.8782211177446" y="324.89365603226986" font-size="8px"></text><text class="label" x="203.9837034540521" y="338.0949761642831" font-size="8px"></text></g><g style="font-size: 13px;"><rect x="150" y="349.3637697103044" width="240.70786997425827" height="12.541254125412543" fill="#4472c4"></rect><rect x="150" y="362.56508984231755" width="260.50445200529003" height="12.541254125412543" fill="#ed7d31"></rect><rect x="150" y="375.76640997433077" width="247.09748049038203" height="12.541254125412543" fill="#a5a5a5"></rect><rect x="150" y="388.967730106344" width="44.87822111774461" height="12.541254125412543" fill="#ffc000"></rect><rect x="150" y="402.16905023835716" width="46.34370203242535" height="12.541254125412543" fill="#5b9bd5"></rect><text class="label" x="399.2078699742583" y="357.8637697103044" font-size="10px">5.36x</text><text class="label" x="419.00445200529003" y="371.06508984231755" font-size="10px">5.8x</text><text class="label" x="405.59748049038205" y="384.26640997433077" font-size="10px">5.51x</text><text class="label" x="203.3782211177446" y="397.467730106344" font-size="10px">1x</text><text class="label" x="204.84370203242534" y="410.66905023835716" font-size="10px">1.03x</text><text class="label" x="395.7078699742583" y="359.3637697103044" font-size="8px"></text><text class="label" x="415.50445200529003" y="372.56508984231755" font-size="8px"></text><text class="label" x="402.09748049038205" y="385.76640997433077" font-size="8px"></text><text class="label" x="199.8782211177446" y="398.967730106344" font-size="8px"></text><text class="label" x="201.34370203242534" y="412.16905023835716" font-size="8px"></text></g><g style="font-size: 13px;"><rect x="150" y="423.4378437843784" width="414.8998035399276" height="12.541254125412543" fill="#4472c4"></rect><rect x="150" y="436.6391639163916" width="365.8761989786537" height="12.541254125412543" fill="#ed7d31"></rect><rect x="150" y="449.84048404840485" width="326.9699602238587" height="12.541254125412543" fill="#a5a5a5"></rect><rect x="150" y="463.041804180418" width="44.87822111774461" height="12.541254125412543" fill="#ffc000"></rect><rect x="150" y="476.24312431243123" width="59.66873043906322" height="12.541254125412543" fill="#5b9bd5"></rect><text class="label" x="573.3998035399276" y="431.9378437843784" font-size="10px">9.25x</text><text class="label" x="524.3761989786537" y="445.1391639163916" font-size="10px">8.15x</text><text class="label" x="485.4699602238587" y="458.34048404840485" font-size="10px">7.29x</text><text class="label" x="203.3782211177446" y="471.541804180418" font-size="10px">1x</text><text class="label" x="218.1687304390632" y="484.74312431243123" font-size="10px">1.33x</text><text class="label" x="569.8998035399276" y="433.4378437843784" font-size="8px"></text><text class="label" x="520.8761989786537" y="446.6391639163916" font-size="8px"></text><text class="label" x="481.9699602238587" y="459.84048404840485" font-size="8px"></text><text class="label" x="199.8782211177446" y="473.041804180418" font-size="8px"></text><text class="label" x="214.6687304390632" y="486.24312431243123" font-size="8px"></text></g><g style="font-size: 13px;"><rect x="150" y="497.51191785845253" width="375.45127021228626" height="12.541254125412543" fill="#4472c4"></rect><rect x="150" y="510.7132379904657" width="379.4949838043918" height="12.541254125412543" fill="#ed7d31"></rect><rect x="150" y="523.9145581224789" width="355.7431332016733" height="12.541254125412543" fill="#a5a5a5"></rect><rect x="150" y="537.1158782544921" width="44.87822111774461" height="12.541254125412543" fill="#ffc000"></rect><rect x="150" y="550.3171983865053" width="45.356104724657996" height="12.541254125412543" fill="#5b9bd5"></rect><text class="label" x="533.9512702122863" y="506.01191785845253" font-size="10px">8.37x</text><text class="label" x="537.9949838043917" y="519.2132379904657" font-size="10px">8.46x</text><text class="label" x="514.2431332016733" y="532.4145581224789" font-size="10px">7.93x</text><text class="label" x="203.3782211177446" y="545.6158782544921" font-size="10px">1x</text><text class="label" x="203.856104724658" y="558.8171983865053" font-size="10px">1.01x</text><text class="label" x="530.4512702122863" y="507.51191785845253" font-size="8px"></text><text class="label" x="534.4949838043917" y="520.7132379904657" font-size="8px"></text><text class="label" x="510.7431332016733" y="533.9145581224789" font-size="8px"></text><text class="label" x="199.8782211177446" y="547.1158782544921" font-size="8px"></text><text class="label" x="200.356104724658" y="560.3171983865053" font-size="8px"></text></g><g style="font-size: 13px;"><rect x="150" y="571.5859919325266" width="229.38306941280092" height="12.541254125412543" fill="#4472c4"></rect><rect x="150" y="584.7873120645397" width="232.1278501557709" height="12.541254125412543" fill="#ed7d31"></rect><rect x="150" y="597.9886321965529" width="90.20949630617987" height="12.541254125412543" fill="#a5a5a5"></rect><rect x="150" y="611.1899523285662" width="46.407942649183376" height="12.541254125412543" fill="#ffc000"></rect><rect x="150" y="624.3912724605793" width="44.87822111774461" height="12.541254125412543" fill="#5b9bd5"></rect><text class="label" x="387.8830694128009" y="580.0859919325266" font-size="10px">5.11x</text><text class="label" x="390.6278501557709" y="593.2873120645397" font-size="10px">5.17x</text><text class="label" x="248.70949630617986" y="606.4886321965529" font-size="10px">2.01x</text><text class="label" x="204.90794264918338" y="619.6899523285662" font-size="10px">1.03x</text><text class="label" x="203.3782211177446" y="632.8912724605793" font-size="10px">1x</text><text class="label" x="384.3830694128009" y="581.5859919325266" font-size="8px"></text><text class="label" x="387.1278501557709" y="594.7873120645397" font-size="8px"></text><text class="label" x="245.20949630617986" y="607.9886321965529" font-size="8px"></text><text class="label" x="201.40794264918338" y="621.1899523285662" font-size="8px"></text><text class="label" x="199.8782211177446" y="634.3912724605793" font-size="8px"></text></g></g></svg>