<svg xmlns="http://www.w3.org/2000/svg" xmlns:xlink="http://www.w3.org/1999/xlink" width="800" height="674" style="background-color: white;"><g class="y axis" transform="translate(149,45)" fill="none" font-size="10" font-family="sans-serif" text-anchor="end" style="font-size: 13px;"><path class="domain" stroke="currentColor" d="M0.5,0.5V480.5"></path><g class="tick" opacity="1" transform="translate(0,32.592592592592595)" style="font-size: 13px;"><line stroke="currentColor" x2="0"></line><text fill="currentColor" x="-3" dy="0.32em">object (simple)    </text></g><g class="tick" opacity="1" transform="translate(0,91.85185185185186)" style="font-size: 13px;"><line stroke="currentColor" x2="0"></line><text fill="currentColor" x="-3" dy="0.32em">object (hierarchical)    </text></g><g class="tick" opacity="1" transform="translate(0,151.11111111111111)" style="font-size: 13px;"><line stroke="currentColor" x2="0"></line><text fill="currentColor" x="-3" dy="0.32em">object (recursive)    </text></g><g class="tick" opacity="1" transform="translate(0,210.37037037037035)" style="font-size: 13px;"><line stroke="currentColor" x2="0"></line><text fill="currentColor" x="-3" dy="0.32em">object (union, explicit)    </text></g><g class="tick" opacity="1" transform="translate(0,269.6296296296296)" style="font-size: 13px;"><line stroke="currentColor" x2="0"></line><text fill="currentColor" x="-3" dy="0.32em">array (simple)    </text></g><g class="tick" opacity="1" transform="translate(0,328.8888888888889)" style="font-size: 13px;"><line stroke="currentColor" x2="0"></line><text fill="currentColor" x="-3" dy="0.32em">array (hierarchical)    </text></g><g class="tick" opacity="1" transform="translate(0,388.14814814814815)" style="font-size: 13px;"><line stroke="currentColor" x2="0"></line><text fill="currentColor" x="-3" dy="0.32em">array (recursive)    </text></g><g class="tick" opacity="1" transform="translate(0,447.40740740740745)" style="font-size: 13px;"><line stroke="currentColor" x2="0"></line><text fill="currentColor" x="-3" dy="0.32em">array (union, explicit)    </text></g></g><g class="x axis" transform="translate(149,525)" fill="none" font-size="10" font-family="sans-serif" text-anchor="middle" style="font-size: 13px;"><path class="domain" stroke="currentColor" d="M0.5,0.5H485.5"></path><g class="tick" opacity="1" transform="translate(0.5,0)" style="font-size: 13px;"><line stroke="currentColor" y2="6"></line><text fill="currentColor" y="9" dy="0.71em">0x</text></g><g class="tick" opacity="1" transform="translate(93.19639246083929,0)" style="font-size: 13px;"><line stroke="currentColor" y2="6"></line><text fill="currentColor" y="9" dy="0.71em">2x</text></g><g class="tick" opacity="1" transform="translate(185.89278492167858,0)" style="font-size: 13px;"><line stroke="currentColor" y2="6"></line><text fill="currentColor" y="9" dy="0.71em">4x</text></g><g class="tick" opacity="1" transform="translate(278.58917738251785,0)" style="font-size: 13px;"><line stroke="currentColor" y2="6"></line><text fill="currentColor" y="9" dy="0.71em">6x</text></g><g class="tick" opacity="1" transform="translate(371.28556984335717,0)" style="font-size: 13px;"><line stroke="currentColor" y2="6"></line><text fill="currentColor" y="9" dy="0.71em">8x</text></g><g class="tick" opacity="1" transform="translate(463.98196230419643,0)" style="font-size: 13px;"><line stroke="currentColor" y2="6"></line><text fill="currentColor" y="9" dy="0.71em">10x</text></g></g><text transform="translate(400, 30)" style="text-anchor: middle; font-size: 20px; font-weight: bold;">performance benchmark</text><rect x="650" y="125" width="230" height="5" fill="gray"></rect><rect x="645" y="35" width="230" height="90" fill="none" stroke="black"></rect><rect x="655" y="45" width="10" height="10" style="fill: #4472c4;"></rect><text x="670" y="55" style="font-size: 12px;">nestia-express</text><rect x="655" y="65" width="10" height="10" style="fill: #ed7d31;"></rect><text x="670" y="75" style="font-size: 12px;">nestia-fastify</text><rect x="655" y="85" width="10" height="10" style="fill: #a5a5a5;"></rect><text x="670" y="95" style="font-size: 12px;">NestJS-express</text><rect x="655" y="105" width="10" height="10" style="fill: #ffc000;"></rect><text x="670" y="115" style="font-size: 12px;">NestJS-fastify</text><text x="20" y="589" style="font-size: 12px;">  - CPU: AMD Ryzen 9 7940HS w/ Radeon 780M Graphics</text><text x="20" y="606" style="font-size: 12px;">  - OS: win32</text><text x="20" y="623" style="font-size: 12px;">  - RAM: 31 GB</text><text x="20" y="640" style="font-size: 12px;">  - NodeJS version: v20.10.0</text><text x="20" y="657" style="font-size: 12px;">  - nestia version: v3.0.5</text><g style="font-size: 13px;"><g style="font-size: 13px;"><rect x="150" y="51.584362139917694" width="323.79922273163254" height="12.510288065843621" fill="#4472c4"></rect><rect x="150" y="64.75308641975309" width="440.9090909090909" height="12.510288065843621" fill="#ed7d31"></rect><rect x="150" y="77.92181069958848" width="46.348196230419646" height="12.510288065843621" fill="#a5a5a5"></rect><rect x="150" y="91.09053497942386" width="59.8724217023316" height="12.510288065843621" fill="#ffc000"></rect><text class="label" x="482.29922273163254" y="60.084362139917694" font-size="10px">6.99x</text><text class="label" x="599.4090909090909" y="73.25308641975309" font-size="10px">9.51x</text><text class="label" x="204.84819623041966" y="86.42181069958848" font-size="10px">1x</text><text class="label" x="218.3724217023316" y="99.59053497942386" font-size="10px">1.29x</text><text class="label" x="478.79922273163254" y="61.584362139917694" font-size="8px"></text><text class="label" x="595.9090909090909" y="74.75308641975309" font-size="8px"></text><text class="label" x="201.34819623041966" y="87.92181069958848" font-size="8px"></text><text class="label" x="214.8724217023316" y="101.09053497942386" font-size="8px"></text></g><g style="font-size: 13px;"><rect x="150" y="110.84362139917695" width="350.01052468596157" height="12.510288065843621" fill="#4472c4"></rect><rect x="150" y="124.01234567901236" width="406.0265293369566" height="12.510288065843621" fill="#ed7d31"></rect><rect x="150" y="137.18106995884773" width="46.348196230419646" height="12.510288065843621" fill="#a5a5a5"></rect><rect x="150" y="150.34979423868313" width="48.383025750671884" height="12.510288065843621" fill="#ffc000"></rect><text class="label" x="508.51052468596157" y="119.34362139917695" font-size="10px">7.55x</text><text class="label" x="564.5265293369566" y="132.51234567901236" font-size="10px">8.76x</text><text class="label" x="204.84819623041966" y="145.68106995884773" font-size="10px">1x</text><text class="label" x="206.8830257506719" y="158.84979423868313" font-size="10px">1.04x</text><text class="label" x="505.01052468596157" y="120.84362139917695" font-size="8px"></text><text class="label" x="561.0265293369566" y="134.01234567901236" font-size="8px"></text><text class="label" x="201.34819623041966" y="147.18106995884773" font-size="8px"></text><text class="label" x="203.3830257506719" y="160.34979423868313" font-size="8px"></text></g><g style="font-size: 13px;"><rect x="150" y="170.10288065843622" width="379.51570698795865" height="12.510288065843621" fill="#4472c4"></rect><rect x="150" y="183.2716049382716" width="430.13616030757197" height="12.510288065843621" fill="#ed7d31"></rect><rect x="150" y="196.440329218107" width="46.348196230419646" height="12.510288065843621" fill="#a5a5a5"></rect><rect x="150" y="209.6090534979424" width="47.59785922395267" height="12.510288065843621" fill="#ffc000"></rect><text class="label" x="538.0157069879587" y="178.60288065843622" font-size="10px">8.19x</text><text class="label" x="588.636160307572" y="191.7716049382716" font-size="10px">9.28x</text><text class="label" x="204.84819623041966" y="204.940329218107" font-size="10px">1x</text><text class="label" x="206.09785922395267" y="218.1090534979424" font-size="10px">1.03x</text><text class="label" x="534.5157069879587" y="180.10288065843622" font-size="8px"></text><text class="label" x="585.136160307572" y="193.2716049382716" font-size="8px"></text><text class="label" x="201.34819623041966" y="206.440329218107" font-size="8px"></text><text class="label" x="202.59785922395267" y="219.6090534979424" font-size="8px"></text></g><g style="font-size: 13px;"><rect x="150" y="229.36213991769546" width="387.4795061087276" height="12.510288065843621" fill="#4472c4"></rect><rect x="150" y="242.53086419753086" width="427.71537187558437" height="12.510288065843621" fill="#ed7d31"></rect><rect x="150" y="255.69958847736626" width="46.348196230419646" height="12.510288065843621" fill="#a5a5a5"></rect><rect x="150" y="268.86831275720164" width="47.04738889821306" height="12.510288065843621" fill="#ffc000"></rect><text class="label" x="545.9795061087276" y="237.86213991769546" font-size="10px">8.36x</text><text class="label" x="586.2153718755844" y="251.03086419753086" font-size="10px">9.23x</text><text class="label" x="204.84819623041966" y="264.19958847736626" font-size="10px">1x</text><text class="label" x="205.54738889821306" y="277.36831275720164" font-size="10px">1.02x</text><text class="label" x="542.4795061087276" y="239.36213991769546" font-size="8px"></text><text class="label" x="582.7153718755844" y="252.53086419753086" font-size="8px"></text><text class="label" x="201.34819623041966" y="265.69958847736626" font-size="8px"></text><text class="label" x="202.04738889821306" y="278.86831275720164" font-size="8px"></text></g><g style="font-size: 13px;"><rect x="150" y="288.6213991769547" width="248.2936381968425" height="12.510288065843621" fill="#4472c4"></rect><rect x="150" y="301.7901234567901" width="260.2929012950148" height="12.510288065843621" fill="#ed7d31"></rect><rect x="150" y="314.9588477366255" width="46.348196230419646" height="12.510288065843621" fill="#a5a5a5"></rect><rect x="150" y="328.12757201646093" width="46.82595966958016" height="12.510288065843621" fill="#ffc000"></rect><text class="label" x="406.7936381968425" y="297.1213991769547" font-size="10px">5.36x</text><text class="label" x="418.7929012950148" y="310.2901234567901" font-size="10px">5.62x</text><text class="label" x="204.84819623041966" y="323.4588477366255" font-size="10px">1x</text><text class="label" x="205.32595966958016" y="336.62757201646093" font-size="10px">1.01x</text><text class="label" x="403.2936381968425" y="298.6213991769547" font-size="8px"></text><text class="label" x="415.2929012950148" y="311.7901234567901" font-size="8px"></text><text class="label" x="201.34819623041966" y="324.9588477366255" font-size="8px"></text><text class="label" x="201.82595966958016" y="338.12757201646093" font-size="8px"></text></g><g style="font-size: 13px;"><rect x="150" y="347.880658436214" width="247.96541787773268" height="12.510288065843621" fill="#4472c4"></rect><rect x="150" y="361.04938271604937" width="311.49632587355194" height="12.510288065843621" fill="#ed7d31"></rect><rect x="150" y="374.2181069958848" width="46.348196230419646" height="12.510288065843621" fill="#a5a5a5"></rect><rect x="150" y="387.38683127572017" width="51.20630815627467" height="12.510288065843621" fill="#ffc000"></rect><text class="label" x="406.46541787773265" y="356.380658436214" font-size="10px">5.35x</text><text class="label" x="469.99632587355194" y="369.54938271604937" font-size="10px">6.72x</text><text class="label" x="204.84819623041966" y="382.7181069958848" font-size="10px">1x</text><text class="label" x="209.70630815627467" y="395.88683127572017" font-size="10px">1.1x</text><text class="label" x="402.96541787773265" y="357.880658436214" font-size="8px"></text><text class="label" x="466.49632587355194" y="371.04938271604937" font-size="8px"></text><text class="label" x="201.34819623041966" y="384.2181069958848" font-size="8px"></text><text class="label" x="206.20630815627467" y="397.38683127572017" font-size="8px"></text></g><g style="font-size: 13px;"><rect x="150" y="407.13991769547323" width="394.332525286573" height="12.510288065843621" fill="#4472c4"></rect><rect x="150" y="420.3086419753086" width="384.48982133864007" height="12.510288065843621" fill="#ed7d31"></rect><rect x="150" y="433.47736625514403" width="46.348196230419646" height="12.510288065843621" fill="#a5a5a5"></rect><rect x="150" y="446.6460905349794" width="46.84257276862003" height="12.510288065843621" fill="#ffc000"></rect><text class="label" x="552.832525286573" y="415.63991769547323" font-size="10px">8.51x</text><text class="label" x="542.98982133864" y="428.8086419753086" font-size="10px">8.3x</text><text class="label" x="204.84819623041966" y="441.97736625514403" font-size="10px">1x</text><text class="label" x="205.34257276862002" y="455.1460905349794" font-size="10px">1.01x</text><text class="label" x="549.332525286573" y="417.13991769547323" font-size="8px"></text><text class="label" x="539.48982133864" y="430.3086419753086" font-size="8px"></text><text class="label" x="201.34819623041966" y="443.47736625514403" font-size="8px"></text><text class="label" x="201.84257276862002" y="456.6460905349794" font-size="8px"></text></g><g style="font-size: 13px;"><rect x="150" y="466.3991769547325" width="216.41961188114806" height="12.510288065843621" fill="#4472c4"></rect><rect x="150" y="479.5679012345679" width="220.23773571947734" height="12.510288065843621" fill="#ed7d31"></rect><rect x="150" y="492.73662551440333" width="46.348196230419646" height="12.510288065843621" fill="#a5a5a5"></rect><rect x="150" y="505.9053497942387" width="46.932449962758895" height="12.510288065843621" fill="#ffc000"></rect><text class="label" x="374.91961188114806" y="474.8991769547325" font-size="10px">4.67x</text><text class="label" x="378.7377357194773" y="488.0679012345679" font-size="10px">4.75x</text><text class="label" x="204.84819623041966" y="501.23662551440333" font-size="10px">1x</text><text class="label" x="205.43244996275888" y="514.4053497942386" font-size="10px">1.01x</text><text class="label" x="371.41961188114806" y="476.3991769547325" font-size="8px"></text><text class="label" x="375.2377357194773" y="489.5679012345679" font-size="8px"></text><text class="label" x="201.34819623041966" y="502.73662551440333" font-size="8px"></text><text class="label" x="201.93244996275888" y="515.9053497942386" font-size="8px"></text></g></g></svg>