<svg xmlns="http://www.w3.org/2000/svg" xmlns:xlink="http://www.w3.org/1999/xlink" width="800" height="794" style="background-color: white;"><g class="y axis" transform="translate(149,45)" fill="none" font-size="10" font-family="sans-serif" text-anchor="end" style="font-size: 13px;"><path class="domain" stroke="currentColor" d="M0.5,0.5V600.5"></path><g class="tick" opacity="1" transform="translate(0,40.740740740740726)" style="font-size: 13px;"><line stroke="currentColor" x2="0"></line><text fill="currentColor" x="-3" dy="0.32em">object (simple)    </text></g><g class="tick" opacity="1" transform="translate(0,114.81481481481481)" style="font-size: 13px;"><line stroke="currentColor" x2="0"></line><text fill="currentColor" x="-3" dy="0.32em">object (hierarchical)    </text></g><g class="tick" opacity="1" transform="translate(0,188.88888888888889)" style="font-size: 13px;"><line stroke="currentColor" x2="0"></line><text fill="currentColor" x="-3" dy="0.32em">object (recursive)    </text></g><g class="tick" opacity="1" transform="translate(0,262.96296296296293)" style="font-size: 13px;"><line stroke="currentColor" x2="0"></line><text fill="currentColor" x="-3" dy="0.32em">object (union, explicit)    </text></g><g class="tick" opacity="1" transform="translate(0,337.037037037037)" style="font-size: 13px;"><line stroke="currentColor" x2="0"></line><text fill="currentColor" x="-3" dy="0.32em">array (simple)    </text></g><g class="tick" opacity="1" transform="translate(0,411.1111111111111)" style="font-size: 13px;"><line stroke="currentColor" x2="0"></line><text fill="currentColor" x="-3" dy="0.32em">array (hierarchical)    </text></g><g class="tick" opacity="1" transform="translate(0,485.18518518518516)" style="font-size: 13px;"><line stroke="currentColor" x2="0"></line><text fill="currentColor" x="-3" dy="0.32em">array (recursive)    </text></g><g class="tick" opacity="1" transform="translate(0,559.2592592592592)" style="font-size: 13px;"><line stroke="currentColor" x2="0"></line><text fill="currentColor" x="-3" dy="0.32em">array (union, explicit)    </text></g></g><g class="x axis" transform="translate(149,645)" fill="none" font-size="10" font-family="sans-serif" text-anchor="middle" style="font-size: 13px;"><path class="domain" stroke="currentColor" d="M0.5,0.5H485.5"></path><g class="tick" opacity="1" transform="translate(0.5,0)" style="font-size: 13px;"><line stroke="currentColor" y2="6"></line><text fill="currentColor" y="9" dy="0.71em">0x</text></g><g class="tick" opacity="1" transform="translate(71.1989871780849,0)" style="font-size: 13px;"><line stroke="currentColor" y2="6"></line><text fill="currentColor" y="9" dy="0.71em">2x</text></g><g class="tick" opacity="1" transform="translate(141.8979743561698,0)" style="font-size: 13px;"><line stroke="currentColor" y2="6"></line><text fill="currentColor" y="9" dy="0.71em">4x</text></g><g class="tick" opacity="1" transform="translate(212.5969615342547,0)" style="font-size: 13px;"><line stroke="currentColor" y2="6"></line><text fill="currentColor" y="9" dy="0.71em">6x</text></g><g class="tick" opacity="1" transform="translate(283.2959487123396,0)" style="font-size: 13px;"><line stroke="currentColor" y2="6"></line><text fill="currentColor" y="9" dy="0.71em">8x</text></g><g class="tick" opacity="1" transform="translate(353.99493589042453,0)" style="font-size: 13px;"><line stroke="currentColor" y2="6"></line><text fill="currentColor" y="9" dy="0.71em">10x</text></g><g class="tick" opacity="1" transform="translate(424.6939230685094,0)" style="font-size: 13px;"><line stroke="currentColor" y2="6"></line><text fill="currentColor" y="9" dy="0.71em">12x</text></g></g><text transform="translate(400, 30)" style="text-anchor: middle; font-size: 20px; font-weight: bold;">stringify benchmark</text><rect x="650" y="145" width="230" height="5" fill="gray"></rect><rect x="645" y="35" width="230" height="110" fill="none" stroke="black"></rect><rect x="655" y="45" width="10" height="10" style="fill: #4472c4;"></rect><text x="670" y="55" style="font-size: 12px;">nestia-express</text><rect x="655" y="65" width="10" height="10" style="fill: #ed7d31;"></rect><text x="670" y="75" style="font-size: 12px;">nestia-fastify</text><rect x="655" y="85" width="10" height="10" style="fill: #a5a5a5;"></rect><text x="670" y="95" style="font-size: 12px;">fastify</text><rect x="655" y="105" width="10" height="10" style="fill: #ffc000;"></rect><text x="670" y="115" style="font-size: 12px;">NestJS-express</text><rect x="655" y="125" width="10" height="10" style="fill: #5b9bd5;"></rect><text x="670" y="135" style="font-size: 12px;">NestJS-fastify</text><text x="20" y="709" style="font-size: 12px;">  - CPU: AMD Ryzen 9 7940HS w/ Radeon 780M Graphics</text><text x="20" y="726" style="font-size: 12px;">  - OS: win32</text><text x="20" y="743" style="font-size: 12px;">  - RAM: 31 GB</text><text x="20" y="760" style="font-size: 12px;">  - NodeJS version: v20.10.0</text><text x="20" y="777" style="font-size: 12px;">  - nestia version: v3.0.2</text><g style="font-size: 13px;"><g style="font-size: 13px;"><rect x="150" y="53.06747341400805" width="146.2106961524071" height="12.541254125412543" fill="#4472c4"></rect><rect x="150" y="66.26879354602124" width="262.5043815744049" height="12.541254125412543" fill="#ed7d31"></rect><rect x="150" y="79.47011367803445" width="231.9833737044696" height="12.541254125412543" fill="#a5a5a5"></rect><rect x="150" y="92.67143381004766" width="35.34949358904245" height="12.541254125412543" fill="#ffc000"></rect><rect x="150" y="105.87275394206085" width="42.34085745435973" height="12.541254125412543" fill="#5b9bd5"></rect><text class="label" x="304.7106961524071" y="61.56747341400805" font-size="10px">4.14x</text><text class="label" x="421.0043815744049" y="74.76879354602124" font-size="10px">7.43x</text><text class="label" x="390.4833737044696" y="87.97011367803445" font-size="10px">6.56x</text><text class="label" x="193.84949358904245" y="101.17143381004766" font-size="10px">1x</text><text class="label" x="200.84085745435974" y="114.37275394206085" font-size="10px">1.2x</text><text class="label" x="301.2106961524071" y="63.06747341400805" font-size="8px"></text><text class="label" x="417.5043815744049" y="76.26879354602124" font-size="8px"></text><text class="label" x="386.9833737044696" y="89.47011367803445" font-size="8px"></text><text class="label" x="190.34949358904245" y="102.67143381004766" font-size="8px"></text><text class="label" x="197.34085745435974" y="115.87275394206085" font-size="8px"></text></g><g style="font-size: 13px;"><rect x="150" y="127.14154748808213" width="193.01100773383382" height="12.541254125412543" fill="#4472c4"></rect><rect x="150" y="140.34286762009532" width="243.35577900615914" height="12.541254125412543" fill="#ed7d31"></rect><rect x="150" y="153.54418775210854" width="243.08280939484231" height="12.541254125412543" fill="#a5a5a5"></rect><rect x="150" y="166.74550788412174" width="35.34949358904245" height="12.541254125412543" fill="#ffc000"></rect><rect x="150" y="179.94682801613493" width="35.855156773868444" height="12.541254125412543" fill="#5b9bd5"></rect><text class="label" x="351.5110077338338" y="135.64154748808213" font-size="10px">5.46x</text><text class="label" x="401.85577900615914" y="148.84286762009532" font-size="10px">6.88x</text><text class="label" x="401.58280939484234" y="162.04418775210854" font-size="10px">6.88x</text><text class="label" x="193.84949358904245" y="175.24550788412174" font-size="10px">1x</text><text class="label" x="194.35515677386843" y="188.44682801613493" font-size="10px">1.01x</text><text class="label" x="348.0110077338338" y="137.14154748808213" font-size="8px"></text><text class="label" x="398.35577900615914" y="150.34286762009532" font-size="8px"></text><text class="label" x="398.08280939484234" y="163.54418775210854" font-size="8px"></text><text class="label" x="190.34949358904245" y="176.74550788412174" font-size="8px"></text><text class="label" x="190.85515677386843" y="189.94682801613493" font-size="8px"></text></g><g style="font-size: 13px;"><rect x="150" y="201.2156215621562" width="214.46842864521312" height="12.541254125412543" fill="#4472c4"></rect><rect x="150" y="214.4169416941694" width="252.75470140054097" height="12.541254125412543" fill="#ed7d31"></rect><rect x="150" y="227.61826182618262" width="232.68155735071116" height="12.541254125412543" fill="#a5a5a5"></rect><rect x="150" y="240.8195819581958" width="35.34949358904245" height="12.541254125412543" fill="#ffc000"></rect><rect x="150" y="254.020902090209" width="35.85587967506163" height="12.541254125412543" fill="#5b9bd5"></rect><text class="label" x="372.9684286452131" y="209.7156215621562" font-size="10px">6.07x</text><text class="label" x="411.25470140054097" y="222.9169416941694" font-size="10px">7.15x</text><text class="label" x="391.18155735071116" y="236.11826182618262" font-size="10px">6.58x</text><text class="label" x="193.84949358904245" y="249.3195819581958" font-size="10px">1x</text><text class="label" x="194.35587967506163" y="262.520902090209" font-size="10px">1.01x</text><text class="label" x="369.4684286452131" y="211.2156215621562" font-size="8px"></text><text class="label" x="407.75470140054097" y="224.4169416941694" font-size="8px"></text><text class="label" x="387.68155735071116" y="237.61826182618262" font-size="8px"></text><text class="label" x="190.34949358904245" y="250.8195819581958" font-size="8px"></text><text class="label" x="190.85587967506163" y="264.020902090209" font-size="8px"></text></g><g style="font-size: 13px;"><rect x="150" y="275.28969563623025" width="339.18494621121556" height="12.541254125412543" fill="#4472c4"></rect><rect x="150" y="288.49101576824347" width="440.9090909090909" height="12.541254125412543" fill="#ed7d31"></rect><rect x="150" y="301.6923359002567" width="263.33989829185555" height="12.541254125412543" fill="#a5a5a5"></rect><rect x="150" y="314.89365603226986" width="35.34949358904245" height="12.541254125412543" fill="#ffc000"></rect><rect x="150" y="328.0949761642831" width="36.587568914038265" height="12.541254125412543" fill="#5b9bd5"></rect><text class="label" x="497.68494621121556" y="283.78969563623025" font-size="10px">9.6x</text><text class="label" x="599.4090909090909" y="296.99101576824347" font-size="10px">12.47x</text><text class="label" x="421.83989829185555" y="310.1923359002567" font-size="10px">7.45x</text><text class="label" x="193.84949358904245" y="323.39365603226986" font-size="10px">1x</text><text class="label" x="195.08756891403826" y="336.5949761642831" font-size="10px">1.04x</text><text class="label" x="494.18494621121556" y="285.28969563623025" font-size="8px"></text><text class="label" x="595.9090909090909" y="298.49101576824347" font-size="8px"></text><text class="label" x="418.33989829185555" y="311.6923359002567" font-size="8px"></text><text class="label" x="190.34949358904245" y="324.89365603226986" font-size="8px"></text><text class="label" x="191.58756891403826" y="338.0949761642831" font-size="8px"></text></g><g style="font-size: 13px;"><rect x="150" y="349.3637697103044" width="181.57106888111986" height="12.541254125412543" fill="#4472c4"></rect><rect x="150" y="362.56508984231755" width="196.54596776403898" height="12.541254125412543" fill="#ed7d31"></rect><rect x="150" y="375.76640997433077" width="206.56386972249484" height="12.541254125412543" fill="#a5a5a5"></rect><rect x="150" y="388.967730106344" width="36.10754034904718" height="12.541254125412543" fill="#ffc000"></rect><rect x="150" y="402.16905023835716" width="35.34949358904245" height="12.541254125412543" fill="#5b9bd5"></rect><text class="label" x="340.07106888111986" y="357.8637697103044" font-size="10px">5.14x</text><text class="label" x="355.045967764039" y="371.06508984231755" font-size="10px">5.56x</text><text class="label" x="365.0638697224948" y="384.26640997433077" font-size="10px">5.84x</text><text class="label" x="194.60754034904718" y="397.467730106344" font-size="10px">1.02x</text><text class="label" x="193.84949358904245" y="410.66905023835716" font-size="10px">1x</text><text class="label" x="336.57106888111986" y="359.3637697103044" font-size="8px"></text><text class="label" x="351.545967764039" y="372.56508984231755" font-size="8px"></text><text class="label" x="361.5638697224948" y="385.76640997433077" font-size="8px"></text><text class="label" x="191.10754034904718" y="398.967730106344" font-size="8px"></text><text class="label" x="190.34949358904245" y="412.16905023835716" font-size="8px"></text></g><g style="font-size: 13px;"><rect x="150" y="423.4378437843784" width="223.10034632332216" height="12.541254125412543" fill="#4472c4"></rect><rect x="150" y="436.6391639163916" width="265.62652071662825" height="12.541254125412543" fill="#ed7d31"></rect><rect x="150" y="449.84048404840485" width="125.22589144626353" height="12.541254125412543" fill="#a5a5a5"></rect><rect x="150" y="463.041804180418" width="36.81095759089736" height="12.541254125412543" fill="#ffc000"></rect><rect x="150" y="476.24312431243123" width="35.34949358904245" height="12.541254125412543" fill="#5b9bd5"></rect><text class="label" x="381.6003463233221" y="431.9378437843784" font-size="10px">6.31x</text><text class="label" x="424.12652071662825" y="445.1391639163916" font-size="10px">7.51x</text><text class="label" x="283.7258914462635" y="458.34048404840485" font-size="10px">3.54x</text><text class="label" x="195.31095759089737" y="471.541804180418" font-size="10px">1.04x</text><text class="label" x="193.84949358904245" y="484.74312431243123" font-size="10px">1x</text><text class="label" x="378.1003463233221" y="433.4378437843784" font-size="8px"></text><text class="label" x="420.62652071662825" y="446.6391639163916" font-size="8px"></text><text class="label" x="280.2258914462635" y="459.84048404840485" font-size="8px"></text><text class="label" x="191.81095759089737" y="473.041804180418" font-size="8px"></text><text class="label" x="190.34949358904245" y="486.24312431243123" font-size="8px"></text></g><g style="font-size: 13px;"><rect x="150" y="497.51191785845253" width="195.08121698593723" height="12.541254125412543" fill="#4472c4"></rect><rect x="150" y="510.7132379904657" width="218.74776945640767" height="12.541254125412543" fill="#ed7d31"></rect><rect x="150" y="523.9145581224789" width="139.30554022070652" height="12.541254125412543" fill="#a5a5a5"></rect><rect x="150" y="537.1158782544921" width="35.34949358904245" height="12.541254125412543" fill="#ffc000"></rect><rect x="150" y="550.3171983865053" width="36.382436356730196" height="12.541254125412543" fill="#5b9bd5"></rect><text class="label" x="353.5812169859372" y="506.01191785845253" font-size="10px">5.52x</text><text class="label" x="377.2477694564077" y="519.2132379904657" font-size="10px">6.19x</text><text class="label" x="297.8055402207065" y="532.4145581224789" font-size="10px">3.94x</text><text class="label" x="193.84949358904245" y="545.6158782544921" font-size="10px">1x</text><text class="label" x="194.88243635673018" y="558.8171983865053" font-size="10px">1.03x</text><text class="label" x="350.0812169859372" y="507.51191785845253" font-size="8px"></text><text class="label" x="373.7477694564077" y="520.7132379904657" font-size="8px"></text><text class="label" x="294.3055402207065" y="533.9145581224789" font-size="8px"></text><text class="label" x="190.34949358904245" y="547.1158782544921" font-size="8px"></text><text class="label" x="191.38243635673018" y="560.3171983865053" font-size="8px"></text></g><g style="font-size: 13px;"><rect x="150" y="571.5859919325266" width="165.0885287872664" height="12.541254125412543" fill="#4472c4"></rect><rect x="150" y="584.7873120645397" width="166.47812394199636" height="12.541254125412543" fill="#ed7d31"></rect><rect x="150" y="597.9886321965529" width="46.61702439809208" height="12.541254125412543" fill="#a5a5a5"></rect><rect x="150" y="611.1899523285662" width="35.34949358904245" height="12.541254125412543" fill="#ffc000"></rect><rect x="150" y="624.3912724605793" width="35.42880475694065" height="12.541254125412543" fill="#5b9bd5"></rect><text class="label" x="323.5885287872664" y="580.0859919325266" font-size="10px">4.67x</text><text class="label" x="324.9781239419964" y="593.2873120645397" font-size="10px">4.71x</text><text class="label" x="205.11702439809207" y="606.4886321965529" font-size="10px">1.32x</text><text class="label" x="193.84949358904245" y="619.6899523285662" font-size="10px">1x</text><text class="label" x="193.92880475694065" y="632.8912724605793" font-size="10px">1x</text><text class="label" x="320.0885287872664" y="581.5859919325266" font-size="8px"></text><text class="label" x="321.4781239419964" y="594.7873120645397" font-size="8px"></text><text class="label" x="201.61702439809207" y="607.9886321965529" font-size="8px"></text><text class="label" x="190.34949358904245" y="621.1899523285662" font-size="8px"></text><text class="label" x="190.42880475694065" y="634.3912724605793" font-size="8px"></text></g></g></svg>