<svg xmlns="http://www.w3.org/2000/svg" xmlns:xlink="http://www.w3.org/1999/xlink" width="800" height="794" style="background-color: white;"><g class="y axis" transform="translate(149,45)" fill="none" font-size="10" font-family="sans-serif" text-anchor="end" style="font-size: 13px;"><path class="domain" stroke="currentColor" d="M0.5,0.5V600.5"></path><g class="tick" opacity="1" transform="translate(0,40.740740740740726)" style="font-size: 13px;"><line stroke="currentColor" x2="0"></line><text fill="currentColor" x="-3" dy="0.32em">object (simple)    </text></g><g class="tick" opacity="1" transform="translate(0,114.81481481481481)" style="font-size: 13px;"><line stroke="currentColor" x2="0"></line><text fill="currentColor" x="-3" dy="0.32em">object (hierarchical)    </text></g><g class="tick" opacity="1" transform="translate(0,188.88888888888889)" style="font-size: 13px;"><line stroke="currentColor" x2="0"></line><text fill="currentColor" x="-3" dy="0.32em">object (recursive)    </text></g><g class="tick" opacity="1" transform="translate(0,262.96296296296293)" style="font-size: 13px;"><line stroke="currentColor" x2="0"></line><text fill="currentColor" x="-3" dy="0.32em">object (union, explicit)    </text></g><g class="tick" opacity="1" transform="translate(0,337.037037037037)" style="font-size: 13px;"><line stroke="currentColor" x2="0"></line><text fill="currentColor" x="-3" dy="0.32em">array (simple)    </text></g><g class="tick" opacity="1" transform="translate(0,411.1111111111111)" style="font-size: 13px;"><line stroke="currentColor" x2="0"></line><text fill="currentColor" x="-3" dy="0.32em">array (hierarchical)    </text></g><g class="tick" opacity="1" transform="translate(0,485.18518518518516)" style="font-size: 13px;"><line stroke="currentColor" x2="0"></line><text fill="currentColor" x="-3" dy="0.32em">array (recursive)    </text></g><g class="tick" opacity="1" transform="translate(0,559.2592592592592)" style="font-size: 13px;"><line stroke="currentColor" x2="0"></line><text fill="currentColor" x="-3" dy="0.32em">array (union, explicit)    </text></g></g><g class="x axis" transform="translate(149,645)" fill="none" font-size="10" font-family="sans-serif" text-anchor="middle" style="font-size: 13px;"><path class="domain" stroke="currentColor" d="M0.5,0.5H485.5"></path><g class="tick" opacity="1" transform="translate(0.5,0)" style="font-size: 13px;"><line stroke="currentColor" y2="6"></line><text fill="currentColor" y="9" dy="0.71em">0x</text></g><g class="tick" opacity="1" transform="translate(70.68769691090786,0)" style="font-size: 13px;"><line stroke="currentColor" y2="6"></line><text fill="currentColor" y="9" dy="0.71em">2x</text></g><g class="tick" opacity="1" transform="translate(140.87539382181572,0)" style="font-size: 13px;"><line stroke="currentColor" y2="6"></line><text fill="currentColor" y="9" dy="0.71em">4x</text></g><g class="tick" opacity="1" transform="translate(211.0630907327236,0)" style="font-size: 13px;"><line stroke="currentColor" y2="6"></line><text fill="currentColor" y="9" dy="0.71em">6x</text></g><g class="tick" opacity="1" transform="translate(281.25078764363144,0)" style="font-size: 13px;"><line stroke="currentColor" y2="6"></line><text fill="currentColor" y="9" dy="0.71em">8x</text></g><g class="tick" opacity="1" transform="translate(351.43848455453934,0)" style="font-size: 13px;"><line stroke="currentColor" y2="6"></line><text fill="currentColor" y="9" dy="0.71em">10x</text></g><g class="tick" opacity="1" transform="translate(421.6261814654472,0)" style="font-size: 13px;"><line stroke="currentColor" y2="6"></line><text fill="currentColor" y="9" dy="0.71em">12x</text></g></g><text transform="translate(400, 30)" style="text-anchor: middle; font-size: 20px; font-weight: bold;">stringify benchmark</text><rect x="650" y="145" width="230" height="5" fill="gray"></rect><rect x="645" y="35" width="230" height="110" fill="none" stroke="black"></rect><rect x="655" y="45" width="10" height="10" style="fill: #4472c4;"></rect><text x="670" y="55" style="font-size: 12px;">nestia-express</text><rect x="655" y="65" width="10" height="10" style="fill: #ed7d31;"></rect><text x="670" y="75" style="font-size: 12px;">nestia-fastify</text><rect x="655" y="85" width="10" height="10" style="fill: #a5a5a5;"></rect><text x="670" y="95" style="font-size: 12px;">fastify</text><rect x="655" y="105" width="10" height="10" style="fill: #ffc000;"></rect><text x="670" y="115" style="font-size: 12px;">NestJS-express</text><rect x="655" y="125" width="10" height="10" style="fill: #5b9bd5;"></rect><text x="670" y="135" style="font-size: 12px;">NestJS-fastify</text><text x="20" y="709" style="font-size: 12px;">  - CPU: AMD Ryzen 9 7940HS w/ Radeon 780M Graphics</text><text x="20" y="726" style="font-size: 12px;">  - OS: win32</text><text x="20" y="743" style="font-size: 12px;">  - RAM: 31 GB</text><text x="20" y="760" style="font-size: 12px;">  - NodeJS version: v20.10.0</text><text x="20" y="777" style="font-size: 12px;">  - nestia version: v2.4.3</text><g style="font-size: 13px;"><g style="font-size: 13px;"><rect x="150" y="53.06747341400805" width="148.44857128208804" height="12.541254125412543" fill="#4472c4"></rect><rect x="150" y="66.26879354602124" width="256.2741953661039" height="12.541254125412543" fill="#ed7d31"></rect><rect x="150" y="79.47011367803445" width="227.49057340257863" height="12.541254125412543" fill="#a5a5a5"></rect><rect x="150" y="92.67143381004766" width="35.09384845545393" height="12.541254125412543" fill="#ffc000"></rect><rect x="150" y="105.87275394206085" width="40.565103899813906" height="12.541254125412543" fill="#5b9bd5"></rect><text class="label" x="306.94857128208804" y="61.56747341400805" font-size="10px">4.23x</text><text class="label" x="414.7741953661039" y="74.76879354602124" font-size="10px">7.3x</text><text class="label" x="385.99057340257866" y="87.97011367803445" font-size="10px">6.48x</text><text class="label" x="193.59384845545392" y="101.17143381004766" font-size="10px">1x</text><text class="label" x="199.0651038998139" y="114.37275394206085" font-size="10px">1.16x</text><text class="label" x="303.44857128208804" y="63.06747341400805" font-size="8px"></text><text class="label" x="411.2741953661039" y="76.26879354602124" font-size="8px"></text><text class="label" x="382.49057340257866" y="89.47011367803445" font-size="8px"></text><text class="label" x="190.09384845545392" y="102.67143381004766" font-size="8px"></text><text class="label" x="195.5651038998139" y="115.87275394206085" font-size="8px"></text></g><g style="font-size: 13px;"><rect x="150" y="127.14154748808213" width="212.87970735824544" height="12.541254125412543" fill="#4472c4"></rect><rect x="150" y="140.34286762009532" width="261.0559237861776" height="12.541254125412543" fill="#ed7d31"></rect><rect x="150" y="153.54418775210854" width="214.99597550880966" height="12.541254125412543" fill="#a5a5a5"></rect><rect x="150" y="166.74550788412174" width="35.09384845545393" height="12.541254125412543" fill="#ffc000"></rect><rect x="150" y="179.94682801613493" width="36.858393802991046" height="12.541254125412543" fill="#5b9bd5"></rect><text class="label" x="371.37970735824547" y="135.64154748808213" font-size="10px">6.07x</text><text class="label" x="419.5559237861776" y="148.84286762009532" font-size="10px">7.44x</text><text class="label" x="373.4959755088097" y="162.04418775210854" font-size="10px">6.13x</text><text class="label" x="193.59384845545392" y="175.24550788412174" font-size="10px">1x</text><text class="label" x="195.35839380299103" y="188.44682801613493" font-size="10px">1.05x</text><text class="label" x="367.87970735824547" y="137.14154748808213" font-size="8px"></text><text class="label" x="416.0559237861776" y="150.34286762009532" font-size="8px"></text><text class="label" x="369.9959755088097" y="163.54418775210854" font-size="8px"></text><text class="label" x="190.09384845545392" y="176.74550788412174" font-size="8px"></text><text class="label" x="191.85839380299103" y="189.94682801613493" font-size="8px"></text></g><g style="font-size: 13px;"><rect x="150" y="201.2156215621562" width="249.1769820119865" height="12.541254125412543" fill="#4472c4"></rect><rect x="150" y="214.4169416941694" width="306.1383903046652" height="12.541254125412543" fill="#ed7d31"></rect><rect x="150" y="227.61826182618262" width="151.80550356640532" height="12.541254125412543" fill="#a5a5a5"></rect><rect x="150" y="240.8195819581958" width="37.516217281315186" height="12.541254125412543" fill="#ffc000"></rect><rect x="150" y="254.020902090209" width="35.09384845545393" height="12.541254125412543" fill="#5b9bd5"></rect><text class="label" x="407.6769820119865" y="209.7156215621562" font-size="10px">7.1x</text><text class="label" x="464.6383903046652" y="222.9169416941694" font-size="10px">8.72x</text><text class="label" x="310.3055035664053" y="236.11826182618262" font-size="10px">4.33x</text><text class="label" x="196.0162172813152" y="249.3195819581958" font-size="10px">1.07x</text><text class="label" x="193.59384845545392" y="262.520902090209" font-size="10px">1x</text><text class="label" x="404.1769820119865" y="211.2156215621562" font-size="8px"></text><text class="label" x="461.1383903046652" y="224.4169416941694" font-size="8px"></text><text class="label" x="306.8055035664053" y="237.61826182618262" font-size="8px"></text><text class="label" x="192.5162172813152" y="250.8195819581958" font-size="8px"></text><text class="label" x="190.09384845545392" y="264.020902090209" font-size="8px"></text></g><g style="font-size: 13px;"><rect x="150" y="275.28969563623025" width="385.4373590919779" height="12.541254125412543" fill="#4472c4"></rect><rect x="150" y="288.49101576824347" width="440.9090909090908" height="12.541254125412543" fill="#ed7d31"></rect><rect x="150" y="301.6923359002567" width="285.3457828785334" height="12.541254125412543" fill="#a5a5a5"></rect><rect x="150" y="314.89365603226986" width="35.09384845545393" height="12.541254125412543" fill="#ffc000"></rect><rect x="150" y="328.0949761642831" width="36.29778295358641" height="12.541254125412543" fill="#5b9bd5"></rect><text class="label" x="543.9373590919779" y="283.78969563623025" font-size="10px">10.98x</text><text class="label" x="599.4090909090908" y="296.99101576824347" font-size="10px">12.56x</text><text class="label" x="443.8457828785334" y="310.1923359002567" font-size="10px">8.13x</text><text class="label" x="193.59384845545392" y="323.39365603226986" font-size="10px">1x</text><text class="label" x="194.79778295358642" y="336.5949761642831" font-size="10px">1.03x</text><text class="label" x="540.4373590919779" y="285.28969563623025" font-size="8px"></text><text class="label" x="595.9090909090908" y="298.49101576824347" font-size="8px"></text><text class="label" x="440.3457828785334" y="311.6923359002567" font-size="8px"></text><text class="label" x="190.09384845545392" y="324.89365603226986" font-size="8px"></text><text class="label" x="191.29778295358642" y="338.0949761642831" font-size="8px"></text></g><g style="font-size: 13px;"><rect x="150" y="349.3637697103044" width="181.98486918870796" height="12.541254125412543" fill="#4472c4"></rect><rect x="150" y="362.56508984231755" width="203.47375188298355" height="12.541254125412543" fill="#ed7d31"></rect><rect x="150" y="375.76640997433077" width="191.3428076446316" height="12.541254125412543" fill="#a5a5a5"></rect><rect x="150" y="388.967730106344" width="35.09384845545393" height="12.541254125412543" fill="#ffc000"></rect><rect x="150" y="402.16905023835716" width="36.823729972095165" height="12.541254125412543" fill="#5b9bd5"></rect><text class="label" x="340.484869188708" y="357.8637697103044" font-size="10px">5.19x</text><text class="label" x="361.97375188298355" y="371.06508984231755" font-size="10px">5.8x</text><text class="label" x="349.8428076446316" y="384.26640997433077" font-size="10px">5.45x</text><text class="label" x="193.59384845545392" y="397.467730106344" font-size="10px">1x</text><text class="label" x="195.32372997209518" y="410.66905023835716" font-size="10px">1.05x</text><text class="label" x="336.984869188708" y="359.3637697103044" font-size="8px"></text><text class="label" x="358.47375188298355" y="372.56508984231755" font-size="8px"></text><text class="label" x="346.3428076446316" y="385.76640997433077" font-size="8px"></text><text class="label" x="190.09384845545392" y="398.967730106344" font-size="8px"></text><text class="label" x="191.82372997209518" y="412.16905023835716" font-size="8px"></text></g><g style="font-size: 13px;"><rect x="150" y="423.4378437843784" width="263.684572162301" height="12.541254125412543" fill="#4472c4"></rect><rect x="150" y="436.6391639163916" width="254.71795919598648" height="12.541254125412543" fill="#ed7d31"></rect><rect x="150" y="449.84048404840485" width="117.97770816110256" height="12.541254125412543" fill="#a5a5a5"></rect><rect x="150" y="463.041804180418" width="35.09384845545393" height="12.541254125412543" fill="#ffc000"></rect><rect x="150" y="476.24312431243123" width="37.03822909006141" height="12.541254125412543" fill="#5b9bd5"></rect><text class="label" x="422.184572162301" y="431.9378437843784" font-size="10px">7.51x</text><text class="label" x="413.2179591959865" y="445.1391639163916" font-size="10px">7.26x</text><text class="label" x="276.47770816110256" y="458.34048404840485" font-size="10px">3.36x</text><text class="label" x="193.59384845545392" y="471.541804180418" font-size="10px">1x</text><text class="label" x="195.5382290900614" y="484.74312431243123" font-size="10px">1.06x</text><text class="label" x="418.684572162301" y="433.4378437843784" font-size="8px"></text><text class="label" x="409.7179591959865" y="446.6391639163916" font-size="8px"></text><text class="label" x="272.97770816110256" y="459.84048404840485" font-size="8px"></text><text class="label" x="190.09384845545392" y="473.041804180418" font-size="8px"></text><text class="label" x="192.0382290900614" y="486.24312431243123" font-size="8px"></text></g><g style="font-size: 13px;"><rect x="150" y="497.51191785845253" width="209.4251293851519" height="12.541254125412543" fill="#4472c4"></rect><rect x="150" y="510.7132379904657" width="208.0405668754062" height="12.541254125412543" fill="#ed7d31"></rect><rect x="150" y="523.9145581224789" width="140.24239653181777" height="12.541254125412543" fill="#a5a5a5"></rect><rect x="150" y="537.1158782544921" width="35.66158432231325" height="12.541254125412543" fill="#ffc000"></rect><rect x="150" y="550.3171983865053" width="35.09384845545393" height="12.541254125412543" fill="#5b9bd5"></rect><text class="label" x="367.9251293851519" y="506.01191785845253" font-size="10px">5.97x</text><text class="label" x="366.54056687540617" y="519.2132379904657" font-size="10px">5.93x</text><text class="label" x="298.7423965318178" y="532.4145581224789" font-size="10px">4x</text><text class="label" x="194.16158432231325" y="545.6158782544921" font-size="10px">1.02x</text><text class="label" x="193.59384845545392" y="558.8171983865053" font-size="10px">1x</text><text class="label" x="364.4251293851519" y="507.51191785845253" font-size="8px"></text><text class="label" x="363.04056687540617" y="520.7132379904657" font-size="8px"></text><text class="label" x="295.2423965318178" y="533.9145581224789" font-size="8px"></text><text class="label" x="190.66158432231325" y="547.1158782544921" font-size="8px"></text><text class="label" x="190.09384845545392" y="560.3171983865053" font-size="8px"></text></g><g style="font-size: 13px;"><rect x="150" y="571.5859919325266" width="172.02859117301134" height="12.541254125412543" fill="#4472c4"></rect><rect x="150" y="584.7873120645397" width="168.9290924555307" height="12.541254125412543" fill="#ed7d31"></rect><rect x="150" y="597.9886321965529" width="44.36128870765954" height="12.541254125412543" fill="#a5a5a5"></rect><rect x="150" y="611.1899523285662" width="36.998011581947864" height="12.541254125412543" fill="#ffc000"></rect><rect x="150" y="624.3912724605793" width="35.09384845545393" height="12.541254125412543" fill="#5b9bd5"></rect><text class="label" x="330.52859117301136" y="580.0859919325266" font-size="10px">4.9x</text><text class="label" x="327.42909245553074" y="593.2873120645397" font-size="10px">4.81x</text><text class="label" x="202.86128870765953" y="606.4886321965529" font-size="10px">1.26x</text><text class="label" x="195.49801158194788" y="619.6899523285662" font-size="10px">1.05x</text><text class="label" x="193.59384845545392" y="632.8912724605793" font-size="10px">1x</text><text class="label" x="327.02859117301136" y="581.5859919325266" font-size="8px"></text><text class="label" x="323.92909245553074" y="594.7873120645397" font-size="8px"></text><text class="label" x="199.36128870765953" y="607.9886321965529" font-size="8px"></text><text class="label" x="191.99801158194788" y="621.1899523285662" font-size="8px"></text><text class="label" x="190.09384845545392" y="634.3912724605793" font-size="8px"></text></g></g></svg>