<svg xmlns="http://www.w3.org/2000/svg" xmlns:xlink="http://www.w3.org/1999/xlink" width="800" height="794" style="background-color: white;"><g class="y axis" transform="translate(149,45)" fill="none" font-size="10" font-family="sans-serif" text-anchor="end" style="font-size: 13px;"><path class="domain" stroke="currentColor" d="M0.5,0.5V600.5"></path><g class="tick" opacity="1" transform="translate(0,40.740740740740726)" style="font-size: 13px;"><line stroke="currentColor" x2="0"></line><text fill="currentColor" x="-3" dy="0.32em">object (simple)    </text></g><g class="tick" opacity="1" transform="translate(0,114.81481481481481)" style="font-size: 13px;"><line stroke="currentColor" x2="0"></line><text fill="currentColor" x="-3" dy="0.32em">object (hierarchical)    </text></g><g class="tick" opacity="1" transform="translate(0,188.88888888888889)" style="font-size: 13px;"><line stroke="currentColor" x2="0"></line><text fill="currentColor" x="-3" dy="0.32em">object (recursive)    </text></g><g class="tick" opacity="1" transform="translate(0,262.96296296296293)" style="font-size: 13px;"><line stroke="currentColor" x2="0"></line><text fill="currentColor" x="-3" dy="0.32em">object (union, explicit)    </text></g><g class="tick" opacity="1" transform="translate(0,337.037037037037)" style="font-size: 13px;"><line stroke="currentColor" x2="0"></line><text fill="currentColor" x="-3" dy="0.32em">array (simple)    </text></g><g class="tick" opacity="1" transform="translate(0,411.1111111111111)" style="font-size: 13px;"><line stroke="currentColor" x2="0"></line><text fill="currentColor" x="-3" dy="0.32em">array (hierarchical)    </text></g><g class="tick" opacity="1" transform="translate(0,485.18518518518516)" style="font-size: 13px;"><line stroke="currentColor" x2="0"></line><text fill="currentColor" x="-3" dy="0.32em">array (recursive)    </text></g><g class="tick" opacity="1" transform="translate(0,559.2592592592592)" style="font-size: 13px;"><line stroke="currentColor" x2="0"></line><text fill="currentColor" x="-3" dy="0.32em">array (union, explicit)    </text></g></g><g class="x axis" transform="translate(149,645)" fill="none" font-size="10" font-family="sans-serif" text-anchor="middle" style="font-size: 13px;"><path class="domain" stroke="currentColor" d="M0.5,0.5H485.5"></path><g class="tick" opacity="1" transform="translate(0.5,0)" style="font-size: 13px;"><line stroke="currentColor" y2="6"></line><text fill="currentColor" y="9" dy="0.71em">0x</text></g><g class="tick" opacity="1" transform="translate(68.09282195834221,0)" style="font-size: 13px;"><line stroke="currentColor" y2="6"></line><text fill="currentColor" y="9" dy="0.71em">2x</text></g><g class="tick" opacity="1" transform="translate(135.68564391668443,0)" style="font-size: 13px;"><line stroke="currentColor" y2="6"></line><text fill="currentColor" y="9" dy="0.71em">4x</text></g><g class="tick" opacity="1" transform="translate(203.27846587502665,0)" style="font-size: 13px;"><line stroke="currentColor" y2="6"></line><text fill="currentColor" y="9" dy="0.71em">6x</text></g><g class="tick" opacity="1" transform="translate(270.87128783336885,0)" style="font-size: 13px;"><line stroke="currentColor" y2="6"></line><text fill="currentColor" y="9" dy="0.71em">8x</text></g><g class="tick" opacity="1" transform="translate(338.46410979171105,0)" style="font-size: 13px;"><line stroke="currentColor" y2="6"></line><text fill="currentColor" y="9" dy="0.71em">10x</text></g><g class="tick" opacity="1" transform="translate(406.0569317500533,0)" style="font-size: 13px;"><line stroke="currentColor" y2="6"></line><text fill="currentColor" y="9" dy="0.71em">12x</text></g><g class="tick" opacity="1" transform="translate(473.6497537083955,0)" style="font-size: 13px;"><line stroke="currentColor" y2="6"></line><text fill="currentColor" y="9" dy="0.71em">14x</text></g></g><text transform="translate(400, 30)" style="text-anchor: middle; font-size: 20px; font-weight: bold;">stringify benchmark</text><rect x="650" y="145" width="230" height="5" fill="gray"></rect><rect x="645" y="35" width="230" height="110" fill="none" stroke="black"></rect><rect x="655" y="45" width="10" height="10" style="fill: #4472c4;"></rect><text x="670" y="55" style="font-size: 12px;">nestia-express</text><rect x="655" y="65" width="10" height="10" style="fill: #ed7d31;"></rect><text x="670" y="75" style="font-size: 12px;">nestia-fastify</text><rect x="655" y="85" width="10" height="10" style="fill: #a5a5a5;"></rect><text x="670" y="95" style="font-size: 12px;">fastify</text><rect x="655" y="105" width="10" height="10" style="fill: #ffc000;"></rect><text x="670" y="115" style="font-size: 12px;">NestJS-express</text><rect x="655" y="125" width="10" height="10" style="fill: #5b9bd5;"></rect><text x="670" y="135" style="font-size: 12px;">NestJS-fastify</text><text x="20" y="709" style="font-size: 12px;">  - CPU: AMD Ryzen 9 7940HS w/ Radeon 780M Graphics</text><text x="20" y="726" style="font-size: 12px;">  - OS: win32</text><text x="20" y="743" style="font-size: 12px;">  - RAM: 31 GB</text><text x="20" y="760" style="font-size: 12px;">  - NodeJS version: v20.10.0</text><text x="20" y="777" style="font-size: 12px;">  - nestia version: v3.0.2</text><g style="font-size: 13px;"><g style="font-size: 13px;"><rect x="150" y="53.06747341400805" width="141.3143586991682" height="12.541254125412543" fill="#4472c4"></rect><rect x="150" y="66.26879354602124" width="233.83564117692285" height="12.541254125412543" fill="#ed7d31"></rect><rect x="150" y="79.47011367803445" width="230.54415412354533" height="12.541254125412543" fill="#a5a5a5"></rect><rect x="150" y="92.67143381004766" width="33.79641097917111" height="12.541254125412543" fill="#ffc000"></rect><rect x="150" y="105.87275394206085" width="38.7952459122213" height="12.541254125412543" fill="#5b9bd5"></rect><text class="label" x="299.8143586991682" y="61.56747341400805" font-size="10px">4.18x</text><text class="label" x="392.3356411769229" y="74.76879354602124" font-size="10px">6.92x</text><text class="label" x="389.04415412354535" y="87.97011367803445" font-size="10px">6.82x</text><text class="label" x="192.2964109791711" y="101.17143381004766" font-size="10px">1x</text><text class="label" x="197.2952459122213" y="114.37275394206085" font-size="10px">1.15x</text><text class="label" x="296.3143586991682" y="63.06747341400805" font-size="8px"></text><text class="label" x="388.8356411769229" y="76.26879354602124" font-size="8px"></text><text class="label" x="385.54415412354535" y="89.47011367803445" font-size="8px"></text><text class="label" x="188.7964109791711" y="102.67143381004766" font-size="8px"></text><text class="label" x="193.7952459122213" y="115.87275394206085" font-size="8px"></text></g><g style="font-size: 13px;"><rect x="150" y="127.14154748808213" width="191.44788946966747" height="12.541254125412543" fill="#4472c4"></rect><rect x="150" y="140.34286762009532" width="232.46029286793228" height="12.541254125412543" fill="#ed7d31"></rect><rect x="150" y="153.54418775210854" width="234.00175253457888" height="12.541254125412543" fill="#a5a5a5"></rect><rect x="150" y="166.74550788412174" width="33.79641097917111" height="12.541254125412543" fill="#ffc000"></rect><rect x="150" y="179.94682801613493" width="34.60357197828121" height="12.541254125412543" fill="#5b9bd5"></rect><text class="label" x="349.9478894696675" y="135.64154748808213" font-size="10px">5.66x</text><text class="label" x="390.96029286793225" y="148.84286762009532" font-size="10px">6.88x</text><text class="label" x="392.5017525345789" y="162.04418775210854" font-size="10px">6.92x</text><text class="label" x="192.2964109791711" y="175.24550788412174" font-size="10px">1x</text><text class="label" x="193.1035719782812" y="188.44682801613493" font-size="10px">1.02x</text><text class="label" x="346.4478894696675" y="137.14154748808213" font-size="8px"></text><text class="label" x="387.46029286793225" y="150.34286762009532" font-size="8px"></text><text class="label" x="389.0017525345789" y="163.54418775210854" font-size="8px"></text><text class="label" x="188.7964109791711" y="176.74550788412174" font-size="8px"></text><text class="label" x="189.6035719782812" y="189.94682801613493" font-size="8px"></text></g><g style="font-size: 13px;"><rect x="150" y="201.2156215621562" width="213.1293800282595" height="12.541254125412543" fill="#4472c4"></rect><rect x="150" y="214.4169416941694" width="260.5314953658492" height="12.541254125412543" fill="#ed7d31"></rect><rect x="150" y="227.61826182618262" width="241.15381506310595" height="12.541254125412543" fill="#a5a5a5"></rect><rect x="150" y="240.8195819581958" width="33.79641097917111" height="12.541254125412543" fill="#ffc000"></rect><rect x="150" y="254.020902090209" width="34.41600637903943" height="12.541254125412543" fill="#5b9bd5"></rect><text class="label" x="371.6293800282595" y="209.7156215621562" font-size="10px">6.31x</text><text class="label" x="419.0314953658492" y="222.9169416941694" font-size="10px">7.71x</text><text class="label" x="399.653815063106" y="236.11826182618262" font-size="10px">7.14x</text><text class="label" x="192.2964109791711" y="249.3195819581958" font-size="10px">1x</text><text class="label" x="192.91600637903943" y="262.520902090209" font-size="10px">1.02x</text><text class="label" x="368.1293800282595" y="211.2156215621562" font-size="8px"></text><text class="label" x="415.5314953658492" y="224.4169416941694" font-size="8px"></text><text class="label" x="396.153815063106" y="237.61826182618262" font-size="8px"></text><text class="label" x="188.7964109791711" y="250.8195819581958" font-size="8px"></text><text class="label" x="189.41600637903943" y="264.020902090209" font-size="8px"></text></g><g style="font-size: 13px;"><rect x="150" y="275.28969563623025" width="392.88082674079493" height="12.541254125412543" fill="#4472c4"></rect><rect x="150" y="288.49101576824347" width="440.9090909090909" height="12.541254125412543" fill="#ed7d31"></rect><rect x="150" y="301.6923359002567" width="269.6360530785695" height="12.541254125412543" fill="#a5a5a5"></rect><rect x="150" y="314.89365603226986" width="33.79641097917111" height="12.541254125412543" fill="#ffc000"></rect><rect x="150" y="328.0949761642831" width="36.315720281089924" height="12.541254125412543" fill="#5b9bd5"></rect><text class="label" x="551.3808267407949" y="283.78969563623025" font-size="10px">11.62x</text><text class="label" x="599.4090909090909" y="296.99101576824347" font-size="10px">13.05x</text><text class="label" x="428.1360530785695" y="310.1923359002567" font-size="10px">7.98x</text><text class="label" x="192.2964109791711" y="323.39365603226986" font-size="10px">1x</text><text class="label" x="194.8157202810899" y="336.5949761642831" font-size="10px">1.07x</text><text class="label" x="547.8808267407949" y="285.28969563623025" font-size="8px"></text><text class="label" x="595.9090909090909" y="298.49101576824347" font-size="8px"></text><text class="label" x="424.6360530785695" y="311.6923359002567" font-size="8px"></text><text class="label" x="188.7964109791711" y="324.89365603226986" font-size="8px"></text><text class="label" x="191.3157202810899" y="338.0949761642831" font-size="8px"></text></g><g style="font-size: 13px;"><rect x="150" y="349.3637697103044" width="192.50636802141491" height="12.541254125412543" fill="#4472c4"></rect><rect x="150" y="362.56508984231755" width="211.85173408258478" height="12.541254125412543" fill="#ed7d31"></rect><rect x="150" y="375.76640997433077" width="218.39517067629197" height="12.541254125412543" fill="#a5a5a5"></rect><rect x="150" y="388.967730106344" width="34.872776509027226" height="12.541254125412543" fill="#ffc000"></rect><rect x="150" y="402.16905023835716" width="33.79641097917111" height="12.541254125412543" fill="#5b9bd5"></rect><text class="label" x="351.0063680214149" y="357.8637697103044" font-size="10px">5.7x</text><text class="label" x="370.3517340825848" y="371.06508984231755" font-size="10px">6.27x</text><text class="label" x="376.89517067629197" y="384.26640997433077" font-size="10px">6.46x</text><text class="label" x="193.37277650902723" y="397.467730106344" font-size="10px">1.03x</text><text class="label" x="192.2964109791711" y="410.66905023835716" font-size="10px">1x</text><text class="label" x="347.5063680214149" y="359.3637697103044" font-size="8px"></text><text class="label" x="366.8517340825848" y="372.56508984231755" font-size="8px"></text><text class="label" x="373.39517067629197" y="385.76640997433077" font-size="8px"></text><text class="label" x="189.87277650902723" y="398.967730106344" font-size="8px"></text><text class="label" x="188.7964109791711" y="412.16905023835716" font-size="8px"></text></g><g style="font-size: 13px;"><rect x="150" y="423.4378437843784" width="263.3535931932639" height="12.541254125412543" fill="#4472c4"></rect><rect x="150" y="436.6391639163916" width="268.0315004356392" height="12.541254125412543" fill="#ed7d31"></rect><rect x="150" y="449.84048404840485" width="196.9391906506238" height="12.541254125412543" fill="#a5a5a5"></rect><rect x="150" y="463.041804180418" width="33.79641097917111" height="12.541254125412543" fill="#ffc000"></rect><rect x="150" y="476.24312431243123" width="36.10493957717675" height="12.541254125412543" fill="#5b9bd5"></rect><text class="label" x="421.8535931932639" y="431.9378437843784" font-size="10px">7.79x</text><text class="label" x="426.5315004356392" y="445.1391639163916" font-size="10px">7.93x</text><text class="label" x="355.4391906506238" y="458.34048404840485" font-size="10px">5.83x</text><text class="label" x="192.2964109791711" y="471.541804180418" font-size="10px">1x</text><text class="label" x="194.60493957717676" y="484.74312431243123" font-size="10px">1.07x</text><text class="label" x="418.3535931932639" y="433.4378437843784" font-size="8px"></text><text class="label" x="423.0315004356392" y="446.6391639163916" font-size="8px"></text><text class="label" x="351.9391906506238" y="459.84048404840485" font-size="8px"></text><text class="label" x="188.7964109791711" y="473.041804180418" font-size="8px"></text><text class="label" x="191.10493957717676" y="486.24312431243123" font-size="8px"></text></g><g style="font-size: 13px;"><rect x="150" y="497.51191785845253" width="192.346146634743" height="12.541254125412543" fill="#4472c4"></rect><rect x="150" y="510.7132379904657" width="212.73480195987858" height="12.541254125412543" fill="#ed7d31"></rect><rect x="150" y="523.9145581224789" width="129.64818129794034" height="12.541254125412543" fill="#a5a5a5"></rect><rect x="150" y="537.1158782544921" width="34.276407515987685" height="12.541254125412543" fill="#ffc000"></rect><rect x="150" y="550.3171983865053" width="33.79641097917111" height="12.541254125412543" fill="#5b9bd5"></rect><text class="label" x="350.84614663474304" y="506.01191785845253" font-size="10px">5.69x</text><text class="label" x="371.2348019598786" y="519.2132379904657" font-size="10px">6.29x</text><text class="label" x="288.14818129794037" y="532.4145581224789" font-size="10px">3.84x</text><text class="label" x="192.77640751598767" y="545.6158782544921" font-size="10px">1.01x</text><text class="label" x="192.2964109791711" y="558.8171983865053" font-size="10px">1x</text><text class="label" x="347.34614663474304" y="507.51191785845253" font-size="8px"></text><text class="label" x="367.7348019598786" y="520.7132379904657" font-size="8px"></text><text class="label" x="284.64818129794037" y="533.9145581224789" font-size="8px"></text><text class="label" x="189.27640751598767" y="547.1158782544921" font-size="8px"></text><text class="label" x="188.7964109791711" y="560.3171983865053" font-size="8px"></text></g><g style="font-size: 13px;"><rect x="150" y="571.5859919325266" width="242.8314637107286" height="12.541254125412543" fill="#4472c4"></rect><rect x="150" y="584.7873120645397" width="254.8202504223276" height="12.541254125412543" fill="#ed7d31"></rect><rect x="150" y="597.9886321965529" width="66.65689801891234" height="12.541254125412543" fill="#a5a5a5"></rect><rect x="150" y="611.1899523285662" width="33.79641097917111" height="12.541254125412543" fill="#ffc000"></rect><rect x="150" y="624.3912724605793" width="51.601649997923275" height="12.541254125412543" fill="#5b9bd5"></rect><text class="label" x="401.3314637107286" y="580.0859919325266" font-size="10px">7.19x</text><text class="label" x="413.3202504223276" y="593.2873120645397" font-size="10px">7.54x</text><text class="label" x="225.15689801891233" y="606.4886321965529" font-size="10px">1.97x</text><text class="label" x="192.2964109791711" y="619.6899523285662" font-size="10px">1x</text><text class="label" x="210.1016499979233" y="632.8912724605793" font-size="10px">1.53x</text><text class="label" x="397.8314637107286" y="581.5859919325266" font-size="8px"></text><text class="label" x="409.8202504223276" y="594.7873120645397" font-size="8px"></text><text class="label" x="221.65689801891233" y="607.9886321965529" font-size="8px"></text><text class="label" x="188.7964109791711" y="621.1899523285662" font-size="8px"></text><text class="label" x="206.6016499979233" y="634.3912724605793" font-size="8px"></text></g></g></svg>