<svg xmlns="http://www.w3.org/2000/svg" xmlns:xlink="http://www.w3.org/1999/xlink" width="800" height="674" style="background-color: white;"><g class="y axis" transform="translate(149,45)" fill="none" font-size="10" font-family="sans-serif" text-anchor="end" style="font-size: 13px;"><path class="domain" stroke="currentColor" d="M0.5,0.5V480.5"></path><g class="tick" opacity="1" transform="translate(0,32.592592592592595)" style="font-size: 13px;"><line stroke="currentColor" x2="0"></line><text fill="currentColor" x="-3" dy="0.32em">object (simple)    </text></g><g class="tick" opacity="1" transform="translate(0,91.85185185185186)" style="font-size: 13px;"><line stroke="currentColor" x2="0"></line><text fill="currentColor" x="-3" dy="0.32em">object (hierarchical)    </text></g><g class="tick" opacity="1" transform="translate(0,151.11111111111111)" style="font-size: 13px;"><line stroke="currentColor" x2="0"></line><text fill="currentColor" x="-3" dy="0.32em">object (recursive)    </text></g><g class="tick" opacity="1" transform="translate(0,210.37037037037035)" style="font-size: 13px;"><line stroke="currentColor" x2="0"></line><text fill="currentColor" x="-3" dy="0.32em">object (union, explicit)    </text></g><g class="tick" opacity="1" transform="translate(0,269.6296296296296)" style="font-size: 13px;"><line stroke="currentColor" x2="0"></line><text fill="currentColor" x="-3" dy="0.32em">array (simple)    </text></g><g class="tick" opacity="1" transform="translate(0,328.8888888888889)" style="font-size: 13px;"><line stroke="currentColor" x2="0"></line><text fill="currentColor" x="-3" dy="0.32em">array (hierarchical)    </text></g><g class="tick" opacity="1" transform="translate(0,388.14814814814815)" style="font-size: 13px;"><line stroke="currentColor" x2="0"></line><text fill="currentColor" x="-3" dy="0.32em">array (recursive)    </text></g><g class="tick" opacity="1" transform="translate(0,447.40740740740745)" style="font-size: 13px;"><line stroke="currentColor" x2="0"></line><text fill="currentColor" x="-3" dy="0.32em">array (union, explicit)    </text></g></g><g class="x axis" transform="translate(149,525)" fill="none" font-size="10" font-family="sans-serif" text-anchor="middle" style="font-size: 13px;"><path class="domain" stroke="currentColor" d="M0.5,0.5H485.5"></path><g class="tick" opacity="1" transform="translate(0.5,0)" style="font-size: 13px;"><line stroke="currentColor" y2="6"></line><text fill="currentColor" y="9" dy="0.71em">0x</text></g><g class="tick" opacity="1" transform="translate(71.46654409503611,0)" style="font-size: 13px;"><line stroke="currentColor" y2="6"></line><text fill="currentColor" y="9" dy="0.71em">2x</text></g><g class="tick" opacity="1" transform="translate(142.43308819007223,0)" style="font-size: 13px;"><line stroke="currentColor" y2="6"></line><text fill="currentColor" y="9" dy="0.71em">4x</text></g><g class="tick" opacity="1" transform="translate(213.39963228510837,0)" style="font-size: 13px;"><line stroke="currentColor" y2="6"></line><text fill="currentColor" y="9" dy="0.71em">6x</text></g><g class="tick" opacity="1" transform="translate(284.36617638014445,0)" style="font-size: 13px;"><line stroke="currentColor" y2="6"></line><text fill="currentColor" y="9" dy="0.71em">8x</text></g><g class="tick" opacity="1" transform="translate(355.3327204751806,0)" style="font-size: 13px;"><line stroke="currentColor" y2="6"></line><text fill="currentColor" y="9" dy="0.71em">10x</text></g><g class="tick" opacity="1" transform="translate(426.29926457021674,0)" style="font-size: 13px;"><line stroke="currentColor" y2="6"></line><text fill="currentColor" y="9" dy="0.71em">12x</text></g></g><text transform="translate(400, 30)" style="text-anchor: middle; font-size: 20px; font-weight: bold;">stringify benchmark</text><rect x="650" y="125" width="230" height="5" fill="gray"></rect><rect x="645" y="35" width="230" height="90" fill="none" stroke="black"></rect><rect x="655" y="45" width="10" height="10" style="fill: #4472c4;"></rect><text x="670" y="55" style="font-size: 12px;">nestia-express</text><rect x="655" y="65" width="10" height="10" style="fill: #ed7d31;"></rect><text x="670" y="75" style="font-size: 12px;">nestia-fastify</text><rect x="655" y="85" width="10" height="10" style="fill: #a5a5a5;"></rect><text x="670" y="95" style="font-size: 12px;">NestJS-express</text><rect x="655" y="105" width="10" height="10" style="fill: #ffc000;"></rect><text x="670" y="115" style="font-size: 12px;">NestJS-fastify</text><text x="20" y="589" style="font-size: 12px;">  - CPU: AMD Ryzen 9 7940HS w/ Radeon 780M Graphics</text><text x="20" y="606" style="font-size: 12px;">  - OS: win32</text><text x="20" y="623" style="font-size: 12px;">  - RAM: 31 GB</text><text x="20" y="640" style="font-size: 12px;">  - NodeJS version: v20.10.0</text><text x="20" y="657" style="font-size: 12px;">  - nestia version: v3.0.5</text><g style="font-size: 13px;"><g style="font-size: 13px;"><rect x="150" y="51.584362139917694" width="145.35086015084022" height="12.510288065843621" fill="#4472c4"></rect><rect x="150" y="64.75308641975309" width="244.87399942352113" height="12.510288065843621" fill="#ed7d31"></rect><rect x="150" y="77.92181069958848" width="35.48327204751806" height="12.510288065843621" fill="#a5a5a5"></rect><rect x="150" y="91.09053497942386" width="39.04320562577763" height="12.510288065843621" fill="#ffc000"></rect><text class="label" x="303.8508601508402" y="60.084362139917694" font-size="10px">4.1x</text><text class="label" x="403.3739994235211" y="73.25308641975309" font-size="10px">6.9x</text><text class="label" x="193.98327204751806" y="86.42181069958848" font-size="10px">1x</text><text class="label" x="197.54320562577763" y="99.59053497942386" font-size="10px">1.1x</text><text class="label" x="300.3508601508402" y="61.584362139917694" font-size="8px"></text><text class="label" x="399.8739994235211" y="74.75308641975309" font-size="8px"></text><text class="label" x="190.48327204751806" y="87.92181069958848" font-size="8px"></text><text class="label" x="194.04320562577763" y="101.09053497942386" font-size="8px"></text></g><g style="font-size: 13px;"><rect x="150" y="110.84362139917695" width="202.3518050544346" height="12.510288065843621" fill="#4472c4"></rect><rect x="150" y="124.01234567901236" width="247.16065950253048" height="12.510288065843621" fill="#ed7d31"></rect><rect x="150" y="137.18106995884773" width="35.48327204751806" height="12.510288065843621" fill="#a5a5a5"></rect><rect x="150" y="150.34979423868313" width="36.70608177867901" height="12.510288065843621" fill="#ffc000"></rect><text class="label" x="360.85180505443464" y="119.34362139917695" font-size="10px">5.7x</text><text class="label" x="405.6606595025305" y="132.51234567901236" font-size="10px">6.97x</text><text class="label" x="193.98327204751806" y="145.68106995884773" font-size="10px">1x</text><text class="label" x="195.206081778679" y="158.84979423868313" font-size="10px">1.03x</text><text class="label" x="357.35180505443464" y="120.84362139917695" font-size="8px"></text><text class="label" x="402.1606595025305" y="134.01234567901236" font-size="8px"></text><text class="label" x="190.48327204751806" y="147.18106995884773" font-size="8px"></text><text class="label" x="191.706081778679" y="160.34979423868313" font-size="8px"></text></g><g style="font-size: 13px;"><rect x="150" y="170.10288065843622" width="225.97752569909986" height="12.510288065843621" fill="#4472c4"></rect><rect x="150" y="183.2716049382716" width="277.48430707145565" height="12.510288065843621" fill="#ed7d31"></rect><rect x="150" y="196.440329218107" width="35.48327204751806" height="12.510288065843621" fill="#a5a5a5"></rect><rect x="150" y="209.6090534979424" width="36.036005106047305" height="12.510288065843621" fill="#ffc000"></rect><text class="label" x="384.47752569909983" y="178.60288065843622" font-size="10px">6.37x</text><text class="label" x="435.98430707145565" y="191.7716049382716" font-size="10px">7.82x</text><text class="label" x="193.98327204751806" y="204.940329218107" font-size="10px">1x</text><text class="label" x="194.5360051060473" y="218.1090534979424" font-size="10px">1.02x</text><text class="label" x="380.97752569909983" y="180.10288065843622" font-size="8px"></text><text class="label" x="432.48430707145565" y="193.2716049382716" font-size="8px"></text><text class="label" x="190.48327204751806" y="206.440329218107" font-size="8px"></text><text class="label" x="191.0360051060473" y="219.6090534979424" font-size="8px"></text></g><g style="font-size: 13px;"><rect x="150" y="229.36213991769546" width="384.3696080565261" height="12.510288065843621" fill="#4472c4"></rect><rect x="150" y="242.53086419753086" width="440.9090909090908" height="12.510288065843621" fill="#ed7d31"></rect><rect x="150" y="255.69958847736626" width="36.09341589179977" height="12.510288065843621" fill="#a5a5a5"></rect><rect x="150" y="268.86831275720164" width="35.48327204751806" height="12.510288065843621" fill="#ffc000"></rect><text class="label" x="542.8696080565261" y="237.86213991769546" font-size="10px">10.83x</text><text class="label" x="599.4090909090908" y="251.03086419753086" font-size="10px">12.43x</text><text class="label" x="194.59341589179976" y="264.19958847736626" font-size="10px">1.02x</text><text class="label" x="193.98327204751806" y="277.36831275720164" font-size="10px">1x</text><text class="label" x="539.3696080565261" y="239.36213991769546" font-size="8px"></text><text class="label" x="595.9090909090908" y="252.53086419753086" font-size="8px"></text><text class="label" x="191.09341589179976" y="265.69958847736626" font-size="8px"></text><text class="label" x="190.48327204751806" y="278.86831275720164" font-size="8px"></text></g><g style="font-size: 13px;"><rect x="150" y="288.6213991769547" width="203.9825060917976" height="12.510288065843621" fill="#4472c4"></rect><rect x="150" y="301.7901234567901" width="212.7954414953849" height="12.510288065843621" fill="#ed7d31"></rect><rect x="150" y="314.9588477366255" width="35.48327204751806" height="12.510288065843621" fill="#a5a5a5"></rect><rect x="150" y="328.12757201646093" width="37.63110619253385" height="12.510288065843621" fill="#ffc000"></rect><text class="label" x="362.48250609179763" y="297.1213991769547" font-size="10px">5.75x</text><text class="label" x="371.2954414953849" y="310.2901234567901" font-size="10px">6x</text><text class="label" x="193.98327204751806" y="323.4588477366255" font-size="10px">1x</text><text class="label" x="196.13110619253385" y="336.62757201646093" font-size="10px">1.06x</text><text class="label" x="358.98250609179763" y="298.6213991769547" font-size="8px"></text><text class="label" x="367.7954414953849" y="311.7901234567901" font-size="8px"></text><text class="label" x="190.48327204751806" y="324.9588477366255" font-size="8px"></text><text class="label" x="192.63110619253385" y="338.12757201646093" font-size="8px"></text></g><g style="font-size: 13px;"><rect x="150" y="347.880658436214" width="264.8871539381841" height="12.510288065843621" fill="#4472c4"></rect><rect x="150" y="361.04938271604937" width="191.402994111383" height="12.510288065843621" fill="#ed7d31"></rect><rect x="150" y="374.2181069958848" width="35.48327204751806" height="12.510288065843621" fill="#a5a5a5"></rect><rect x="150" y="387.38683127572017" width="36.46529359176146" height="12.510288065843621" fill="#ffc000"></rect><text class="label" x="423.3871539381841" y="356.380658436214" font-size="10px">7.47x</text><text class="label" x="349.902994111383" y="369.54938271604937" font-size="10px">5.39x</text><text class="label" x="193.98327204751806" y="382.7181069958848" font-size="10px">1x</text><text class="label" x="194.96529359176145" y="395.88683127572017" font-size="10px">1.03x</text><text class="label" x="419.8871539381841" y="357.880658436214" font-size="8px"></text><text class="label" x="346.402994111383" y="371.04938271604937" font-size="8px"></text><text class="label" x="190.48327204751806" y="384.2181069958848" font-size="8px"></text><text class="label" x="191.46529359176145" y="397.38683127572017" font-size="8px"></text></g><g style="font-size: 13px;"><rect x="150" y="407.13991769547323" width="208.58398953708257" height="12.510288065843621" fill="#4472c4"></rect><rect x="150" y="420.3086419753086" width="216.0704731638678" height="12.510288065843621" fill="#ed7d31"></rect><rect x="150" y="433.47736625514403" width="35.48327204751806" height="12.510288065843621" fill="#a5a5a5"></rect><rect x="150" y="446.6460905349794" width="35.58041225977028" height="12.510288065843621" fill="#ffc000"></rect><text class="label" x="367.0839895370826" y="415.63991769547323" font-size="10px">5.88x</text><text class="label" x="374.5704731638678" y="428.8086419753086" font-size="10px">6.09x</text><text class="label" x="193.98327204751806" y="441.97736625514403" font-size="10px">1x</text><text class="label" x="194.08041225977027" y="455.1460905349794" font-size="10px">1x</text><text class="label" x="363.5839895370826" y="417.13991769547323" font-size="8px"></text><text class="label" x="371.0704731638678" y="430.3086419753086" font-size="8px"></text><text class="label" x="190.48327204751806" y="443.47736625514403" font-size="8px"></text><text class="label" x="190.58041225977027" y="456.6460905349794" font-size="8px"></text></g><g style="font-size: 13px;"><rect x="150" y="466.3991769547325" width="170.8096892081674" height="12.510288065843621" fill="#4472c4"></rect><rect x="150" y="479.5679012345679" width="171.56037365123723" height="12.510288065843621" fill="#ed7d31"></rect><rect x="150" y="492.73662551440333" width="35.48327204751806" height="12.510288065843621" fill="#a5a5a5"></rect><rect x="150" y="505.9053497942387" width="37.03166227196181" height="12.510288065843621" fill="#ffc000"></rect><text class="label" x="329.3096892081674" y="474.8991769547325" font-size="10px">4.81x</text><text class="label" x="330.0603736512372" y="488.0679012345679" font-size="10px">4.83x</text><text class="label" x="193.98327204751806" y="501.23662551440333" font-size="10px">1x</text><text class="label" x="195.5316622719618" y="514.4053497942386" font-size="10px">1.04x</text><text class="label" x="325.8096892081674" y="476.3991769547325" font-size="8px"></text><text class="label" x="326.5603736512372" y="489.5679012345679" font-size="8px"></text><text class="label" x="190.48327204751806" y="502.73662551440333" font-size="8px"></text><text class="label" x="192.0316622719618" y="515.9053497942386" font-size="8px"></text></g></g></svg>