<svg xmlns="http://www.w3.org/2000/svg" xmlns:xlink="http://www.w3.org/1999/xlink" width="800" height="674" style="background-color: white;"><g class="y axis" transform="translate(149,45)" fill="none" font-size="10" font-family="sans-serif" text-anchor="end" style="font-size: 13px;"><path class="domain" stroke="currentColor" d="M0.5,0.5V480.5"></path><g class="tick" opacity="1" transform="translate(0,32.592592592592595)" style="font-size: 13px;"><line stroke="currentColor" x2="0"></line><text fill="currentColor" x="-3" dy="0.32em">object (simple)    </text></g><g class="tick" opacity="1" transform="translate(0,91.85185185185186)" style="font-size: 13px;"><line stroke="currentColor" x2="0"></line><text fill="currentColor" x="-3" dy="0.32em">object (hierarchical)    </text></g><g class="tick" opacity="1" transform="translate(0,151.11111111111111)" style="font-size: 13px;"><line stroke="currentColor" x2="0"></line><text fill="currentColor" x="-3" dy="0.32em">object (recursive)    </text></g><g class="tick" opacity="1" transform="translate(0,210.37037037037035)" style="font-size: 13px;"><line stroke="currentColor" x2="0"></line><text fill="currentColor" x="-3" dy="0.32em">object (union, explicit)    </text></g><g class="tick" opacity="1" transform="translate(0,269.6296296296296)" style="font-size: 13px;"><line stroke="currentColor" x2="0"></line><text fill="currentColor" x="-3" dy="0.32em">array (simple)    </text></g><g class="tick" opacity="1" transform="translate(0,328.8888888888889)" style="font-size: 13px;"><line stroke="currentColor" x2="0"></line><text fill="currentColor" x="-3" dy="0.32em">array (hierarchical)    </text></g><g class="tick" opacity="1" transform="translate(0,388.14814814814815)" style="font-size: 13px;"><line stroke="currentColor" x2="0"></line><text fill="currentColor" x="-3" dy="0.32em">array (recursive)    </text></g><g class="tick" opacity="1" transform="translate(0,447.40740740740745)" style="font-size: 13px;"><line stroke="currentColor" x2="0"></line><text fill="currentColor" x="-3" dy="0.32em">array (union, explicit)    </text></g></g><g class="x axis" transform="translate(149,525)" fill="none" font-size="10" font-family="sans-serif" text-anchor="middle" style="font-size: 13px;"><path class="domain" stroke="currentColor" d="M0.5,0.5H485.5"></path><g class="tick" opacity="1" transform="translate(0.5,0)" style="font-size: 13px;"><line stroke="currentColor" y2="6"></line><text fill="currentColor" y="9" dy="0.71em">0x</text></g><g class="tick" opacity="1" transform="translate(70.88136596753012,0)" style="font-size: 13px;"><line stroke="currentColor" y2="6"></line><text fill="currentColor" y="9" dy="0.71em">2x</text></g><g class="tick" opacity="1" transform="translate(141.26273193506023,0)" style="font-size: 13px;"><line stroke="currentColor" y2="6"></line><text fill="currentColor" y="9" dy="0.71em">4x</text></g><g class="tick" opacity="1" transform="translate(211.64409790259035,0)" style="font-size: 13px;"><line stroke="currentColor" y2="6"></line><text fill="currentColor" y="9" dy="0.71em">6x</text></g><g class="tick" opacity="1" transform="translate(282.02546387012046,0)" style="font-size: 13px;"><line stroke="currentColor" y2="6"></line><text fill="currentColor" y="9" dy="0.71em">8x</text></g><g class="tick" opacity="1" transform="translate(352.4068298376506,0)" style="font-size: 13px;"><line stroke="currentColor" y2="6"></line><text fill="currentColor" y="9" dy="0.71em">10x</text></g><g class="tick" opacity="1" transform="translate(422.7881958051807,0)" style="font-size: 13px;"><line stroke="currentColor" y2="6"></line><text fill="currentColor" y="9" dy="0.71em">12x</text></g></g><text transform="translate(400, 30)" style="text-anchor: middle; font-size: 20px; font-weight: bold;">stringify benchmark</text><rect x="650" y="125" width="230" height="5" fill="gray"></rect><rect x="645" y="35" width="230" height="90" fill="none" stroke="black"></rect><rect x="655" y="45" width="10" height="10" style="fill: #4472c4;"></rect><text x="670" y="55" style="font-size: 12px;">nestia-express</text><rect x="655" y="65" width="10" height="10" style="fill: #ed7d31;"></rect><text x="670" y="75" style="font-size: 12px;">nestia-fastify</text><rect x="655" y="85" width="10" height="10" style="fill: #a5a5a5;"></rect><text x="670" y="95" style="font-size: 12px;">NestJS-express</text><rect x="655" y="105" width="10" height="10" style="fill: #ffc000;"></rect><text x="670" y="115" style="font-size: 12px;">NestJS-fastify</text><text x="20" y="589" style="font-size: 12px;">  - CPU: AMD Ryzen 9 7940HS w/ Radeon 780M Graphics</text><text x="20" y="606" style="font-size: 12px;">  - OS: win32</text><text x="20" y="623" style="font-size: 12px;">  - RAM: 31 GB</text><text x="20" y="640" style="font-size: 12px;">  - NodeJS version: v20.10.0</text><text x="20" y="657" style="font-size: 12px;">  - nestia version: v3.10.0-dev.20240803-2</text><g style="font-size: 13px;"><g style="font-size: 13px;"><rect x="150" y="51.584362139917694" width="143.32241132043237" height="12.510288065843621" fill="#4472c4"></rect><rect x="150" y="64.75308641975309" width="245.1074108777704" height="12.510288065843621" fill="#ed7d31"></rect><rect x="150" y="77.92181069958848" width="35.19068298376506" height="12.510288065843621" fill="#a5a5a5"></rect><rect x="150" y="91.09053497942386" width="40.59717301573951" height="12.510288065843621" fill="#ffc000"></rect><text class="label" x="301.82241132043237" y="60.084362139917694" font-size="10px">4.07x</text><text class="label" x="403.6074108777704" y="73.25308641975309" font-size="10px">6.97x</text><text class="label" x="193.69068298376504" y="86.42181069958848" font-size="10px">1x</text><text class="label" x="199.09717301573951" y="99.59053497942386" font-size="10px">1.15x</text><text class="label" x="298.32241132043237" y="61.584362139917694" font-size="8px"></text><text class="label" x="400.1074108777704" y="74.75308641975309" font-size="8px"></text><text class="label" x="190.19068298376504" y="87.92181069958848" font-size="8px"></text><text class="label" x="195.59717301573951" y="101.09053497942386" font-size="8px"></text></g><g style="font-size: 13px;"><rect x="150" y="110.84362139917695" width="195.3350560105449" height="12.510288065843621" fill="#4472c4"></rect><rect x="150" y="124.01234567901236" width="238.97429782885033" height="12.510288065843621" fill="#ed7d31"></rect><rect x="150" y="137.18106995884773" width="35.19068298376506" height="12.510288065843621" fill="#a5a5a5"></rect><rect x="150" y="150.34979423868313" width="36.778176180862616" height="12.510288065843621" fill="#ffc000"></rect><text class="label" x="353.8350560105449" y="119.34362139917695" font-size="10px">5.55x</text><text class="label" x="397.47429782885035" y="132.51234567901236" font-size="10px">6.79x</text><text class="label" x="193.69068298376504" y="145.68106995884773" font-size="10px">1x</text><text class="label" x="195.2781761808626" y="158.84979423868313" font-size="10px">1.05x</text><text class="label" x="350.3350560105449" y="120.84362139917695" font-size="8px"></text><text class="label" x="393.97429782885035" y="134.01234567901236" font-size="8px"></text><text class="label" x="190.19068298376504" y="147.18106995884773" font-size="8px"></text><text class="label" x="191.7781761808626" y="160.34979423868313" font-size="8px"></text></g><g style="font-size: 13px;"><rect x="150" y="170.10288065843622" width="227.43609540841035" height="12.510288065843621" fill="#4472c4"></rect><rect x="150" y="183.2716049382716" width="276.21120376492513" height="12.510288065843621" fill="#ed7d31"></rect><rect x="150" y="196.440329218107" width="35.19068298376506" height="12.510288065843621" fill="#a5a5a5"></rect><rect x="150" y="209.6090534979424" width="36.238116147437744" height="12.510288065843621" fill="#ffc000"></rect><text class="label" x="385.9360954084103" y="178.60288065843622" font-size="10px">6.46x</text><text class="label" x="434.71120376492513" y="191.7716049382716" font-size="10px">7.85x</text><text class="label" x="193.69068298376504" y="204.940329218107" font-size="10px">1x</text><text class="label" x="194.73811614743775" y="218.1090534979424" font-size="10px">1.03x</text><text class="label" x="382.4360954084103" y="180.10288065843622" font-size="8px"></text><text class="label" x="431.21120376492513" y="193.2716049382716" font-size="8px"></text><text class="label" x="190.19068298376504" y="206.440329218107" font-size="8px"></text><text class="label" x="191.23811614743775" y="219.6090534979424" font-size="8px"></text></g><g style="font-size: 13px;"><rect x="150" y="229.36213991769546" width="395.964875239584" height="12.510288065843621" fill="#4472c4"></rect><rect x="150" y="242.53086419753086" width="440.9090909090909" height="12.510288065843621" fill="#ed7d31"></rect><rect x="150" y="255.69958847736626" width="38.11578151174621" height="12.510288065843621" fill="#a5a5a5"></rect><rect x="150" y="268.86831275720164" width="35.19068298376506" height="12.510288065843621" fill="#ffc000"></rect><text class="label" x="554.464875239584" y="237.86213991769546" font-size="10px">11.25x</text><text class="label" x="599.4090909090909" y="251.03086419753086" font-size="10px">12.53x</text><text class="label" x="196.6157815117462" y="264.19958847736626" font-size="10px">1.08x</text><text class="label" x="193.69068298376504" y="277.36831275720164" font-size="10px">1x</text><text class="label" x="550.964875239584" y="239.36213991769546" font-size="8px"></text><text class="label" x="595.9090909090909" y="252.53086419753086" font-size="8px"></text><text class="label" x="193.1157815117462" y="265.69958847736626" font-size="8px"></text><text class="label" x="190.19068298376504" y="278.86831275720164" font-size="8px"></text></g><g style="font-size: 13px;"><rect x="150" y="288.6213991769547" width="197.80338910647603" height="12.510288065843621" fill="#4472c4"></rect><rect x="150" y="301.7901234567901" width="228.87188386144416" height="12.510288065843621" fill="#ed7d31"></rect><rect x="150" y="314.9588477366255" width="36.15202696909643" height="12.510288065843621" fill="#a5a5a5"></rect><rect x="150" y="328.12757201646093" width="35.19068298376506" height="12.510288065843621" fill="#ffc000"></rect><text class="label" x="356.30338910647606" y="297.1213991769547" font-size="10px">5.62x</text><text class="label" x="387.3718838614442" y="310.2901234567901" font-size="10px">6.5x</text><text class="label" x="194.65202696909643" y="323.4588477366255" font-size="10px">1.03x</text><text class="label" x="193.69068298376504" y="336.62757201646093" font-size="10px">1x</text><text class="label" x="352.80338910647606" y="298.6213991769547" font-size="8px"></text><text class="label" x="383.8718838614442" y="311.7901234567901" font-size="8px"></text><text class="label" x="191.15202696909643" y="324.9588477366255" font-size="8px"></text><text class="label" x="190.19068298376504" y="338.12757201646093" font-size="8px"></text></g><g style="font-size: 13px;"><rect x="150" y="347.880658436214" width="271.4312305001768" height="12.510288065843621" fill="#4472c4"></rect><rect x="150" y="361.04938271604937" width="267.3637979620191" height="12.510288065843621" fill="#ed7d31"></rect><rect x="150" y="374.2181069958848" width="35.19068298376506" height="12.510288065843621" fill="#a5a5a5"></rect><rect x="150" y="387.38683127572017" width="35.78760451660399" height="12.510288065843621" fill="#ffc000"></rect><text class="label" x="429.9312305001768" y="356.380658436214" font-size="10px">7.71x</text><text class="label" x="425.8637979620191" y="369.54938271604937" font-size="10px">7.6x</text><text class="label" x="193.69068298376504" y="382.7181069958848" font-size="10px">1x</text><text class="label" x="194.287604516604" y="395.88683127572017" font-size="10px">1.02x</text><text class="label" x="426.4312305001768" y="357.880658436214" font-size="8px"></text><text class="label" x="422.3637979620191" y="371.04938271604937" font-size="8px"></text><text class="label" x="190.19068298376504" y="384.2181069958848" font-size="8px"></text><text class="label" x="190.787604516604" y="397.38683127572017" font-size="8px"></text></g><g style="font-size: 13px;"><rect x="150" y="407.13991769547323" width="210.83689171357332" height="12.510288065843621" fill="#4472c4"></rect><rect x="150" y="420.3086419753086" width="224.75538474758412" height="12.510288065843621" fill="#ed7d31"></rect><rect x="150" y="433.47736625514403" width="36.43849094437727" height="12.510288065843621" fill="#a5a5a5"></rect><rect x="150" y="446.6460905349794" width="35.19068298376506" height="12.510288065843621" fill="#ffc000"></rect><text class="label" x="369.3368917135733" y="415.63991769547323" font-size="10px">5.99x</text><text class="label" x="383.2553847475841" y="428.8086419753086" font-size="10px">6.39x</text><text class="label" x="194.93849094437726" y="441.97736625514403" font-size="10px">1.04x</text><text class="label" x="193.69068298376504" y="455.1460905349794" font-size="10px">1x</text><text class="label" x="365.8368917135733" y="417.13991769547323" font-size="8px"></text><text class="label" x="379.7553847475841" y="430.3086419753086" font-size="8px"></text><text class="label" x="191.43849094437726" y="443.47736625514403" font-size="8px"></text><text class="label" x="190.19068298376504" y="456.6460905349794" font-size="8px"></text></g><g style="font-size: 13px;"><rect x="150" y="466.3991769547325" width="172.377431427199" height="12.510288065843621" fill="#4472c4"></rect><rect x="150" y="479.5679012345679" width="187.41414682595024" height="12.510288065843621" fill="#ed7d31"></rect><rect x="150" y="492.73662551440333" width="35.19068298376506" height="12.510288065843621" fill="#a5a5a5"></rect><rect x="150" y="505.9053497942387" width="36.58918171775977" height="12.510288065843621" fill="#ffc000"></rect><text class="label" x="330.877431427199" y="474.8991769547325" font-size="10px">4.9x</text><text class="label" x="345.91414682595024" y="488.0679012345679" font-size="10px">5.33x</text><text class="label" x="193.69068298376504" y="501.23662551440333" font-size="10px">1x</text><text class="label" x="195.08918171775977" y="514.4053497942386" font-size="10px">1.04x</text><text class="label" x="327.377431427199" y="476.3991769547325" font-size="8px"></text><text class="label" x="342.41414682595024" y="489.5679012345679" font-size="8px"></text><text class="label" x="190.19068298376504" y="502.73662551440333" font-size="8px"></text><text class="label" x="191.58918171775977" y="515.9053497942386" font-size="8px"></text></g></g></svg>